# procedural placeholder mesh: canopy_blob_3
v 0.08498 0.86923 0.00000
v 0.08235 0.86754 0.02030
v 0.07508 0.86723 0.03940
v 0.06357 0.86861 0.05631
v 0.04842 0.87174 0.07014
v 0.03038 0.87635 0.08011
v 0.01039 0.88192 0.08560
v -0.01046 0.88773 0.08616
v -0.03096 0.89299 0.08163
v -0.04982 0.89695 0.07217
v -0.06579 0.89905 0.05829
v -0.07784 0.89915 0.04085
v -0.08520 0.89756 0.02100
v -0.08751 0.89503 0.00000
v -0.08471 0.89239 -0.02088
v -0.07707 0.89026 -0.04045
v -0.06505 0.88884 -0.05763
v -0.04932 0.88800 -0.07145
v -0.03076 0.88737 -0.08112
v -0.01045 0.88659 -0.08605
v 0.01043 0.88536 -0.08593
v 0.03063 0.88352 -0.08077
v 0.04893 0.88106 -0.07089
v 0.06426 0.87812 -0.05693
v 0.07574 0.87494 -0.03975
v 0.08276 0.87185 -0.02040
v 0.25237 0.79261 0.00000
v 0.24542 0.79385 0.06049
v 0.22485 0.79755 0.11801
v 0.19329 0.81102 0.17124
v 0.15100 0.83482 0.21876
v 0.09726 0.86141 0.25645
v 0.03393 0.88396 0.27940
v -0.03466 0.90323 0.28549
v -0.10431 0.92385 0.27504
v -0.17095 0.94514 0.24766
v -0.22824 0.95768 0.20220
v -0.26808 0.95086 0.14070
v -0.28599 0.92510 0.07049
v -0.28496 0.89497 0.00000
v -0.27121 0.87728 -0.06685
v -0.24703 0.87621 -0.12965
v -0.21016 0.88181 -0.18619
v -0.15950 0.88186 -0.23108
v -0.09857 0.87300 -0.25990
v -0.03301 0.86000 -0.27183
v 0.03250 0.84689 -0.26768
v 0.09401 0.83267 -0.24790
v 0.14754 0.81572 -0.21375
v 0.19053 0.79945 -0.16880
v 0.22281 0.79032 -0.11694
v 0.24420 0.78991 -0.06019
v 0.39691 0.70821 0.00000
v 0.39305 0.72231 0.09688
v 0.35706 0.71952 0.18740
v 0.30980 0.73851 0.27446
v 0.25101 0.78844 0.36365
v 0.16568 0.83370 0.43688
v 0.05671 0.83951 0.46706
v -0.05532 0.81888 0.45559
v -0.16172 0.81376 0.42643
v -0.26867 0.84389 0.38923
v -0.37094 0.88426 0.32863
v -0.43887 0.88439 0.23034
v -0.45101 0.82884 0.11117
v -0.43097 0.76899 0.00000
v -0.41520 0.76302 -0.10234
v -0.40053 0.80712 -0.21021
v -0.35492 0.84606 -0.31443
v -0.26687 0.83826 -0.38663
v -0.15840 0.79704 -0.41767
v -0.05150 0.76229 -0.42410
v 0.05054 0.74812 -0.41622
v 0.14618 0.73558 -0.38546
v 0.22448 0.70510 -0.32521
v 0.27806 0.66285 -0.24634
v 0.31906 0.64295 -0.16746
v 0.36352 0.66804 -0.08960
v 0.56975 0.67394 0.00000
v 0.54542 0.66447 0.13443
v 0.47106 0.62929 0.24723
v 0.38992 0.61619 0.34544
v 0.31704 0.66016 0.45930
v 0.21548 0.71878 0.56816
v 0.07273 0.71376 0.59901
v -0.06763 0.66367 0.55697
v -0.19189 0.64010 0.50597
v -0.32186 0.67021 0.46630
v -0.46289 0.73151 0.41009
v -0.56177 0.75047 0.29484
v -0.56861 0.69273 0.14015
v -0.53252 0.62991 0.00000
v -0.51952 0.63292 -0.12805
v -0.51887 0.69315 -0.27232
v -0.46610 0.73659 -0.41293
v -0.34772 0.72407 -0.50377
v -0.21113 0.70427 -0.55669
v -0.07265 0.71291 -0.59830
v 0.07396 0.72582 -0.60913
v 0.21289 0.71015 -0.56134
v 0.32603 0.67889 -0.47234
v 0.40816 0.64502 -0.36160
v 0.46580 0.62227 -0.24447
v 0.52700 0.64203 -0.12989
v 0.72210 0.59670 0.00000
v 0.64268 0.54696 0.15841
v 0.55555 0.51845 0.29157
v 0.45012 0.49692 0.39878
v 0.36237 0.52712 0.52498
v 0.25500 0.59422 0.67237
v 0.08823 0.60489 0.72667
v -0.08544 0.58574 0.70368
v -0.25321 0.59005 0.66765
v -0.42080 0.61212 0.60964
v -0.58228 0.64282 0.51586
v -0.69631 0.64982 0.36545
v -0.73960 0.62944 0.18229
v -0.72245 0.59698 0.00000
v -0.67165 0.57161 -0.16555
v -0.63257 0.59033 -0.33200
v -0.52825 0.58317 -0.46799
v -0.37571 0.54653 -0.54431
v -0.24663 0.57472 -0.65031
v -0.09314 0.63850 -0.76705
v 0.09826 0.67365 -0.80928
v 0.27151 0.63269 -0.71590
v 0.39481 0.57431 -0.57198
v 0.51180 0.56502 -0.45342
v 0.63521 0.59280 -0.33338
v 0.72316 0.61545 -0.17824
v 0.79846 0.46138 0.00000
v 0.69445 0.41329 0.17117
v 0.64523 0.42107 0.33864
v 0.55589 0.42913 0.49247
v 0.44352 0.45115 0.64255
v 0.30825 0.50230 0.81279
v 0.11200 0.53691 0.92241
v -0.11645 0.55825 0.95906
v -0.34344 0.55965 0.90559
v -0.54836 0.55779 0.79443
v -0.69746 0.53842 0.61790
v -0.77687 0.50697 0.40773
v -0.88114 0.52439 0.21718
v -0.89193 0.51539 0.00000
v -0.80797 0.48084 -0.19915
v -0.75713 0.49409 -0.39737
v -0.57976 0.44756 -0.51362
v -0.38538 0.39201 -0.55832
v -0.25876 0.42166 -0.68230
v -0.09702 0.46509 -0.79901
v 0.10554 0.50594 -0.86919
v 0.29684 0.48371 -0.78271
v 0.41050 0.41756 -0.59471
v 0.49906 0.38526 -0.44213
v 0.65343 0.42642 -0.34295
v 0.79377 0.47240 -0.19565
v 0.82995 0.31912 0.00000
v 0.77870 0.30838 0.19193
v 0.75659 0.32855 0.39709
v 0.68053 0.34958 0.60289
v 0.51535 0.34882 0.74661
v 0.34343 0.37239 0.90555
v 0.13264 0.42310 1.09235
v -0.14120 0.45041 1.16285
v -0.39140 0.42441 1.03205
v -0.63267 0.42824 0.91658
v -0.78439 0.40294 0.69491
v -0.81163 0.35245 0.42598
v -0.93717 0.37113 0.23099
v -0.91833 0.35310 0.00000
v -0.82269 0.32580 -0.20278
v -0.79630 0.34579 -0.41793
v -0.59871 0.30756 -0.53041
v -0.44356 0.30023 -0.64260
v -0.30761 0.33355 -0.81111
v -0.10698 0.34127 -0.88109
v 0.11177 0.35655 -0.92054
v 0.31191 0.33821 -0.82244
v 0.45069 0.30506 -0.65294
v 0.55242 0.28378 -0.48940
v 0.64172 0.27867 -0.33680
v 0.75730 0.29990 -0.18666
v 0.89629 0.19794 0.00000
v 0.91826 0.20886 0.22633
v 0.87206 0.21750 0.45769
v 0.77372 0.22828 0.68546
v 0.56628 0.22015 0.82040
v 0.37532 0.23375 0.98964
v 0.14282 0.26168 1.17626
v -0.14703 0.26939 1.21093
v -0.41392 0.25779 1.09142
v -0.70785 0.27519 1.02549
v -0.83740 0.24707 0.74187
v -0.83907 0.20928 0.44038
v -0.95780 0.21786 0.23608
v -0.92538 0.20437 0.00000
v -0.79492 0.18081 -0.19593
v -0.77183 0.19250 -0.40509
v -0.57005 0.16819 -0.50502
v -0.49494 0.19242 -0.71704
v -0.36332 0.22627 -0.95800
v -0.11976 0.21942 -0.98630
v 0.12080 0.22133 -0.99487
v 0.32637 0.20326 -0.86058
v 0.50320 0.19563 -0.72901
v 0.71361 0.21055 -0.63221
v 0.75634 0.18864 -0.39696
v 0.79558 0.18096 -0.19609
v 1.03122 0.07434 0.00000
v 1.02090 0.07580 0.25163
v 0.92811 0.07557 0.48711
v 0.84187 0.08109 0.74584
v 0.64856 0.08231 0.93960
v 0.43543 0.08853 1.14813
v 0.14942 0.08937 1.23056
v -0.14982 0.08961 1.23386
v -0.46470 0.09448 1.22532
v -0.75733 0.09611 1.09719
v -0.81598 0.07859 0.72290
v -0.88273 0.07187 0.46329
v -0.94761 0.07036 0.23357
v -0.93615 0.06749 0.00000
v -0.79259 0.05885 -0.19536
v -0.80384 0.06545 -0.42189
v -0.58052 0.05591 -0.51429
v -0.49824 0.06323 -0.72182
v -0.36171 0.07354 -0.95375
v -0.11025 0.06594 -0.90800
v 0.11322 0.06772 -0.93242
v 0.33007 0.06711 -0.87032
v 0.52627 0.06679 -0.76243
v 0.77757 0.07489 -0.68887
v 0.87301 0.07108 -0.45819
v 0.92707 0.06884 -0.22850
v 1.12451 -0.08107 0.00000
v 1.01399 -0.07529 0.24993
v 0.92353 -0.07519 0.48470
v 0.92184 -0.08879 0.81668
v 0.73015 -0.09266 1.05781
v 0.47566 -0.09670 1.25420
v 0.15411 -0.09218 1.26922
v -0.15875 -0.09495 1.30739
v -0.50832 -0.10335 1.34034
v -0.73164 -0.09285 1.05996
v -0.82786 -0.07974 0.73342
v -1.00782 -0.08206 0.52894
v -0.92394 -0.06860 0.22773
v -0.86528 -0.06238 0.00000
v -0.76170 -0.05656 -0.18774
v -0.81374 -0.06625 -0.42709
v -0.62758 -0.06045 -0.55599
v -0.48539 -0.06160 -0.70321
v -0.31802 -0.06466 -0.83855
v -0.09162 -0.05480 -0.75459
v 0.09908 -0.05926 -0.81598
v 0.32734 -0.06655 -0.86312
v 0.51564 -0.06544 -0.74704
v 0.68069 -0.06556 -0.60304
v 0.86875 -0.07073 -0.45596
v 1.00869 -0.07490 -0.24862
v 1.10480 -0.24399 0.00000
v 1.04192 -0.23699 0.25681
v 0.97214 -0.24247 0.51022
v 0.98460 -0.29050 0.87228
v 0.74951 -0.29139 1.08585
v 0.46150 -0.28742 1.21687
v 0.15469 -0.28342 1.27397
v -0.16549 -0.30321 1.36293
v -0.49669 -0.30933 1.30966
v -0.67375 -0.26193 0.97610
v -0.90452 -0.26688 0.80133
v -1.05367 -0.26280 0.55301
v -0.85272 -0.19396 0.21018
v -0.76901 -0.16983 0.00000
v -0.70579 -0.16054 -0.17396
v -0.73396 -0.18306 -0.38521
v -0.63063 -0.18606 -0.55869
v -0.46404 -0.18040 -0.67227
v -0.27833 -0.17334 -0.73390
v -0.08545 -0.15656 -0.70375
v 0.09829 -0.18008 -0.80948
v 0.32644 -0.20331 -0.86076
v 0.50019 -0.19446 -0.72465
v 0.59141 -0.17449 -0.52394
v 0.79302 -0.19779 -0.41621
v 0.97061 -0.22077 -0.23923
v 1.02491 -0.39409 0.00000
v 1.11591 -0.44192 0.27505
v 1.03363 -0.44885 0.54249
v 0.95490 -0.49053 0.84596
v 0.73130 -0.49500 1.05947
v 0.44160 -0.47883 1.16439
v 0.15537 -0.49561 1.27955
v -0.16614 -0.52997 1.36826
v -0.45702 -0.49556 1.20506
v -0.63590 -0.43043 0.92126
v -0.89578 -0.46016 0.79359
v -0.90316 -0.39219 0.47401
v -0.74767 -0.29609 0.18428
v -0.76176 -0.29290 0.00000
v -0.70603 -0.27960 -0.17402
v -0.65237 -0.28329 -0.34239
v -0.57241 -0.29405 -0.50711
v -0.42117 -0.28508 -0.61016
v -0.26088 -0.28288 -0.68789
v -0.09045 -0.28855 -0.74496
v 0.10011 -0.31936 -0.82450
v 0.29863 -0.32381 -0.78743
v 0.48090 -0.32551 -0.69670
v 0.60833 -0.31250 -0.53893
v 0.75717 -0.32880 -0.39739
v 0.89276 -0.35355 -0.22005
v 0.91899 -0.53103 0.00000
v 1.04019 -0.61905 0.25638
v 0.97500 -0.63627 0.51172
v 0.84431 -0.65179 0.74799
v 0.68122 -0.69293 0.98691
v 0.43221 -0.70429 1.13964
v 0.15206 -0.72894 1.25230
v -0.15600 -0.74786 1.28481
v -0.41808 -0.68128 1.10240
v -0.59710 -0.60737 0.86505
v -0.77097 -0.59518 0.68302
v -0.74702 -0.48750 0.39207
v -0.70258 -0.41813 0.17317
v -0.75869 -0.43840 0.00000
v -0.69675 -0.41465 -0.17173
v -0.58925 -0.38453 -0.30926
v -0.48632 -0.37543 -0.43084
v -0.36807 -0.37440 -0.53324
v -0.24435 -0.39818 -0.64430
v -0.08831 -0.42335 -0.72730
v 0.09016 -0.43223 -0.74256
v 0.25098 -0.40898 -0.66179
v 0.43721 -0.44473 -0.63341
v 0.62127 -0.47961 -0.55040
v 0.74743 -0.48776 -0.39228
v 0.83529 -0.49711 -0.20588
v 0.79931 -0.66050 0.00000
v 0.87773 -0.74701 0.21634
v 0.85528 -0.79818 0.44889
v 0.73561 -0.81209 0.65169
v 0.59059 -0.85910 0.85562
v 0.38666 -0.90104 1.01955
v 0.13286 -0.91078 1.09416
v -0.13030 -0.89324 1.07309
v -0.35583 -0.82918 0.93823
v -0.51817 -0.75375 0.75069
v -0.64275 -0.70958 0.56943
v -0.69562 -0.64917 0.36509
v -0.70389 -0.59905 0.17349
v -0.68306 -0.56444 0.00000
v -0.59819 -0.50910 -0.14744
v -0.49223 -0.45936 -0.25834
v -0.39666 -0.43790 -0.35141
v -0.31323 -0.45564 -0.45380
v -0.21108 -0.49189 -0.55658
v -0.07484 -0.51304 -0.61634
v 0.07634 -0.52332 -0.62869
v 0.22700 -0.52897 -0.59855
v 0.39860 -0.57982 -0.57747
v 0.56450 -0.62319 -0.50010
v 0.67001 -0.62527 -0.35165
v 0.73853 -0.62854 -0.18203
v 0.63937 -0.75630 0.00000
v 0.70316 -0.85665 0.17331
v 0.70103 -0.93651 0.36793
v 0.60978 -0.96364 0.54022
v 0.47066 -0.98006 0.68187
v 0.29769 -0.99302 0.78494
v 0.09930 -0.97447 0.81781
v -0.09534 -0.93564 0.78522
v -0.26814 -0.89447 0.70704
v -0.41324 -0.86049 0.59868
v -0.53665 -0.84807 0.47543
v -0.62420 -0.83387 0.32761
v -0.64398 -0.78455 0.15873
v -0.59903 -0.70858 0.00000
v -0.52069 -0.63435 -0.12834
v -0.43214 -0.57729 -0.22680
v -0.34833 -0.55047 -0.30860
v -0.27120 -0.56473 -0.39291
v -0.17787 -0.59335 -0.46902
v -0.06289 -0.61716 -0.51794
v 0.06647 -0.65227 -0.54741
v 0.20856 -0.69571 -0.54993
v 0.35117 -0.73124 -0.50876
v 0.46254 -0.73095 -0.40977
v 0.52587 -0.70252 -0.27600
v 0.57490 -0.70039 -0.14170
v 0.45891 -0.81884 0.00000
v 0.49730 -0.91389 0.12257
v 0.49448 -0.99645 0.25953
v 0.43392 -1.03438 0.38442
v 0.32903 -1.03349 0.47668
v 0.20076 -1.01018 0.52935
v 0.06592 -0.97587 0.54293
v -0.06401 -0.94753 0.52716
v -0.18630 -0.93741 0.49122
v -0.29958 -0.94099 0.43401
v -0.39642 -0.94499 0.35120
v -0.46387 -0.93476 0.24346
v -0.49274 -0.90551 0.12145
v -0.48651 -0.86809 0.00000
v -0.45206 -0.83075 -0.11142
v -0.39275 -0.79145 -0.20613
v -0.31685 -0.75532 -0.28071
v -0.23389 -0.73466 -0.33885
v -0.14555 -0.73237 -0.38378
v -0.05051 -0.74765 -0.41596
v 0.05266 -0.77951 -0.43369
v 0.16148 -0.81254 -0.42579
v 0.26170 -0.82201 -0.37914
v 0.33456 -0.79752 -0.29639
v 0.37820 -0.76213 -0.19850
v 0.41411 -0.76101 -0.10207
v 0.29616 -0.93014 0.00000
v 0.30294 -0.97991 0.07467
v 0.28920 -1.02578 0.15178
v 0.25095 -1.05296 0.22232
v 0.19114 -1.05679 0.27692
v 0.11773 -1.04271 0.31043
v 0.03919 -1.02112 0.32276
v -0.03844 -1.00164 0.31660
v -0.11161 -0.98852 0.29429
v -0.17725 -0.97996 0.25679
v -0.23165 -0.97199 0.20522
v -0.27151 -0.96303 0.14250
v -0.29503 -0.95434 0.07272
v -0.30132 -0.94636 0.00000
v -0.28929 -0.93577 -0.07130
v -0.25891 -0.91835 -0.13589
v -0.21321 -0.89460 -0.18889
v -0.15753 -0.87096 -0.22823
v -0.09659 -0.85544 -0.25467
v -0.03272 -0.85252 -0.26946
v 0.03302 -0.86026 -0.27191
v 0.09834 -0.87102 -0.25931
v 0.15857 -0.87667 -0.22972
v 0.20875 -0.87591 -0.18494
v 0.24732 -0.87723 -0.12980
v 0.27618 -0.89335 -0.06807
v 0.09676 -0.98963 0.00000
v 0.09492 -0.99990 0.02340
v 0.08731 -1.00849 0.04582
v 0.07423 -1.01434 0.06576
v 0.05647 -1.01684 0.08182
v 0.03522 -1.01597 0.09288
v 0.01193 -1.01223 0.09824
v -0.01186 -1.00643 0.09768
v -0.03465 -0.99942 0.09136
v -0.05509 -0.99193 0.07981
v -0.07205 -0.98448 0.06383
v -0.08461 -0.97736 0.04441
v -0.09214 -0.97067 0.02271
v -0.09429 -0.96437 0.00000
v -0.09098 -0.95837 -0.02242
v -0.08248 -0.95270 -0.04329
v -0.06935 -0.94760 -0.06144
v -0.05240 -0.94353 -0.07592
v -0.03263 -0.94104 -0.08603
v -0.01108 -0.94056 -0.09129
v 0.01110 -0.94228 -0.09145
v 0.03280 -0.94614 -0.08649
v 0.05287 -0.95195 -0.07660
v 0.07022 -0.95951 -0.06221
v 0.08385 -0.96860 -0.04401
v 0.09292 -0.97886 -0.02290
v 0.00000 0.89614 0.00000
v 0.00000 -0.82000 0.00000
vn 0.3920 0.9177 0.0647
vn 0.3695 0.9230 0.1073
vn 0.3685 0.9266 0.0747
vn 0.3718 0.9281 0.0222
vn 0.3452 0.9385 -0.0045
vn 0.2965 0.9550 -0.0131
vn 0.2681 0.9632 -0.0186
vn 0.2754 0.9611 -0.0200
vn 0.2805 0.9595 -0.0268
vn 0.2437 0.9675 -0.0682
vn 0.1664 0.9735 -0.1565
vn 0.0867 0.9648 -0.2482
vn 0.0325 0.9620 -0.2710
vn -0.0096 0.9807 -0.1952
vn -0.0500 0.9954 -0.0818
vn -0.0564 0.9980 -0.0291
vn -0.0124 0.9988 -0.0476
vn 0.0476 0.9949 -0.0893
vn 0.0876 0.9881 -0.1266
vn 0.1223 0.9797 -0.1588
vn 0.1899 0.9658 -0.1765
vn 0.2865 0.9436 -0.1660
vn 0.3659 0.9200 -0.1405
vn 0.4027 0.9069 -0.1241
vn 0.4129 0.9053 -0.1001
vn 0.4112 0.9111 -0.0296
vn 0.4584 0.8875 -0.0478
vn 0.4144 0.9048 0.0978
vn 0.4445 0.8928 0.0725
vn 0.4808 0.8766 -0.0176
vn 0.4318 0.9014 -0.0322
vn 0.3006 0.9528 0.0414
vn 0.1785 0.9703 0.1634
vn 0.1496 0.9448 0.2914
vn 0.1600 0.9169 0.3655
vn 0.0998 0.9443 0.3137
vn -0.0637 0.9945 0.0830
vn -0.2365 0.9457 -0.2228
vn -0.3284 0.8697 -0.3683
vn -0.3744 0.8826 -0.2843
vn -0.3599 0.9295 -0.0805
vn -0.2565 0.9665 -0.0015
vn -0.1004 0.9907 -0.0922
vn 0.0427 0.9697 -0.2405
vn 0.1143 0.9306 -0.3478
vn 0.1536 0.9075 -0.3910
vn 0.2506 0.8941 -0.3712
vn 0.4129 0.8595 -0.3011
vn 0.5588 0.7960 -0.2327
vn 0.6161 0.7493 -0.2428
vn 0.5858 0.7519 -0.3025
vn 0.5264 0.8141 -0.2452
vn 0.3783 0.9044 -0.1973
vn 0.4057 0.9037 0.1367
vn 0.5071 0.8292 0.2350
vn 0.6685 0.7313 0.1355
vn 0.6430 0.7504 0.1530
vn 0.3353 0.8803 0.3357
vn -0.0729 0.8548 0.5138
vn -0.2035 0.7346 0.6473
vn -0.1217 0.6431 0.7561
vn -0.1081 0.6460 0.7557
vn -0.3307 0.7849 0.5239
vn -0.5946 0.8035 -0.0307
vn -0.6439 0.6757 -0.3588
vn -0.6934 0.6661 -0.2748
vn -0.7124 0.7005 0.0412
vn -0.6230 0.7798 0.0617
vn -0.3801 0.8962 -0.2288
vn -0.0550 0.8869 -0.4587
vn 0.1066 0.8815 -0.4599
vn 0.1258 0.9237 -0.3618
vn 0.1783 0.9425 -0.2825
vn 0.3273 0.9234 -0.2003
vn 0.4721 0.8794 -0.0615
vn 0.4975 0.8671 -0.0256
vn 0.4033 0.8736 -0.2722
vn 0.3412 0.8442 -0.4135
vn 0.3707 0.9285 -0.0204
vn 0.4738 0.8222 0.3153
vn 0.4664 0.7346 0.4928
vn 0.6936 0.6125 0.3792
vn 0.7716 0.5475 0.3238
vn 0.4533 0.7105 0.5383
vn -0.1160 0.7700 0.6274
vn -0.3086 0.7666 0.5631
vn -0.1687 0.7785 0.6046
vn -0.0698 0.6992 0.7115
vn -0.2875 0.7157 0.6365
vn -0.5832 0.7987 0.1485
vn -0.5447 0.7800 -0.3081
vn -0.4994 0.8146 -0.2948
vn -0.6530 0.7545 0.0657
vn -0.7452 0.6667 -0.0087
vn -0.6315 0.6173 -0.4693
vn -0.4041 0.5920 -0.6973
vn -0.2439 0.7723 -0.5865
vn -0.1153 0.9305 -0.3478
vn 0.1197 0.9678 -0.2214
vn 0.3463 0.9168 -0.1990
vn 0.4290 0.8882 -0.1646
vn 0.3175 0.9473 -0.0432
vn 0.1306 0.9890 -0.0689
vn 0.1517 0.9720 -0.1796
vn 0.6170 0.7395 0.2692
vn 0.6749 0.6054 0.4220
vn 0.5074 0.7115 0.4861
vn 0.5110 0.7708 0.3805
vn 0.6947 0.6666 0.2701
vn 0.5171 0.7514 0.4099
vn 0.0617 0.9058 0.4193
vn -0.1085 0.9598 0.2590
vn -0.0481 0.9728 0.2267
vn -0.0807 0.9405 0.3299
vn -0.3374 0.8318 0.4408
vn -0.5769 0.7545 0.3130
vn -0.5061 0.8569 -0.0975
vn -0.3455 0.8979 -0.2729
vn -0.4303 0.8962 -0.1084
vn -0.5441 0.7938 -0.2715
vn -0.5193 0.4685 -0.7147
vn -0.5607 0.2402 -0.7924
vn -0.5963 0.3345 -0.7298
vn -0.4296 0.5347 -0.7277
vn 0.1324 0.7480 -0.6504
vn 0.6107 0.6528 -0.4483
vn 0.7327 0.4519 -0.5089
vn 0.6262 0.4113 -0.6623
vn 0.5330 0.6788 -0.5051
vn 0.5272 0.8398 -0.1295
vn 0.8768 0.4122 0.2478
vn 0.7583 0.5478 0.3533
vn 0.6123 0.7514 0.2459
vn 0.4203 0.8594 0.2912
vn 0.5633 0.7699 0.2997
vn 0.5680 0.7209 0.3971
vn 0.2397 0.8703 0.4301
vn -0.0600 0.9322 0.3569
vn -0.1454 0.9156 0.3749
vn -0.3200 0.8942 0.3132
vn -0.6223 0.7389 0.2584
vn -0.7823 0.4702 0.4087
vn -0.8307 0.5336 0.1588
vn -0.7869 0.5656 -0.2466
vn -0.7846 0.5612 -0.2635
vn -0.6125 0.5872 -0.5293
vn -0.3603 0.4656 -0.8083
vn -0.4336 0.5168 -0.7382
vn -0.5755 0.4865 -0.6574
vn -0.4668 0.3126 -0.8273
vn 0.0491 0.3039 -0.9514
vn 0.6612 0.3554 -0.6607
vn 0.8280 0.3531 -0.4356
vn 0.7376 0.1396 -0.6606
vn 0.6816 -0.0372 -0.7308
vn 0.9026 0.1267 -0.4113
vn 0.9300 0.3612 -0.0678
vn 0.7075 0.6838 0.1783
vn 0.6644 0.7362 0.1285
vn 0.4962 0.7859 0.3690
vn 0.5228 0.6928 0.4967
vn 0.6262 0.5383 0.5640
vn 0.3955 0.5749 0.7163
vn -0.1016 0.6521 0.7513
vn -0.3018 0.6330 0.7128
vn -0.5415 0.6623 0.5178
vn -0.8372 0.5003 0.2210
vn -0.9059 0.2837 0.3146
vn -0.9512 0.2191 0.2175
vn -0.9593 0.0998 -0.2642
vn -0.9601 -0.0304 -0.2779
vn -0.8135 0.0094 -0.5815
vn -0.6121 0.1145 -0.7825
vn -0.5435 0.6424 -0.5404
vn -0.3641 0.7895 -0.4941
vn -0.2427 0.6291 -0.7385
vn 0.1249 0.4226 -0.8977
vn 0.5716 0.3438 -0.7451
vn 0.6331 0.6332 -0.4452
vn 0.5621 0.8004 -0.2082
vn 0.7320 0.4459 -0.5151
vn 0.8502 0.0656 -0.5224
vn 0.7818 0.5851 -0.2155
vn 0.7554 0.6481 0.0966
vn 0.7619 0.6183 0.1930
vn 0.5883 0.6707 0.4518
vn 0.4686 0.6836 0.5595
vn 0.5023 0.5867 0.6352
vn 0.3684 0.3580 0.8580
vn -0.0569 0.3377 0.9395
vn -0.3138 0.4718 0.8240
vn -0.6575 0.4209 0.6249
vn -0.9373 0.2421 0.2508
vn -0.9552 0.2310 0.1851
vn -0.9734 0.0735 0.2169
vn -0.9356 0.0606 -0.3478
vn -0.9523 -0.0276 -0.3040
vn -0.8098 0.0007 -0.5867
vn -0.7439 -0.0867 -0.6626
vn -0.8663 0.1754 -0.4678
vn -0.4770 0.3661 -0.7990
vn -0.1157 0.1698 -0.9787
vn 0.2014 0.1638 -0.9657
vn 0.5308 0.2499 -0.8098
vn 0.4581 0.4532 -0.7647
vn 0.5291 0.7842 -0.3243
vn 0.5879 0.8031 -0.0966
vn 0.6810 0.6625 -0.3119
vn 0.8119 0.5746 -0.1032
vn 0.9178 0.3561 0.1757
vn 0.9167 0.3245 0.2330
vn 0.7205 0.5326 0.4442
vn 0.5212 0.6241 0.5821
vn 0.3611 0.6036 0.7108
vn 0.2086 0.3823 0.9002
vn 0.0291 0.3158 0.9484
vn -0.3342 0.4217 0.8429
vn -0.7659 0.2236 0.6028
vn -0.9407 0.1731 0.2919
vn -0.9403 0.3241 0.1042
vn -0.9864 -0.1070 0.1249
vn -0.9308 -0.1890 -0.3130
vn -0.9634 -0.0662 -0.2596
vn -0.8225 0.2094 -0.5289
vn -0.6390 0.2248 -0.7356
vn -0.8597 -0.1642 -0.4838
vn -0.3786 -0.4458 -0.8111
vn -0.0351 -0.5667 -0.8232
vn 0.0151 -0.4639 -0.8858
vn 0.4313 -0.0896 -0.8977
vn 0.4600 -0.0839 -0.8839
vn 0.6143 -0.0626 -0.7866
vn 0.8445 0.4517 -0.2876
vn 0.7326 0.6315 -0.2539
vn 0.9628 0.2687 -0.0294
vn 0.9322 0.1953 0.3047
vn 0.9752 0.1614 0.1515
vn 0.8552 0.3383 0.3926
vn 0.6118 0.3501 0.7093
vn 0.3662 0.2547 0.8950
vn 0.1430 0.2135 0.9664
vn 0.0416 0.2171 0.9753
vn -0.4502 0.1264 0.8839
vn -0.7925 -0.0601 0.6070
vn -0.8893 0.2148 0.4037
vn -0.9544 0.2934 0.0544
vn -0.9656 -0.1660 -0.1999
vn -0.8339 -0.4785 -0.2750
vn -0.8959 -0.4189 -0.1480
vn -0.9232 -0.2432 -0.2974
vn -0.5776 0.1431 -0.8036
vn -0.6699 -0.2269 -0.7070
vn -0.2057 -0.6052 -0.7690
vn -0.0072 -0.6018 -0.7986
vn -0.2035 -0.4549 -0.8670
vn 0.2563 -0.2111 -0.9433
vn 0.6167 -0.2737 -0.7381
vn 0.4261 -0.6018 -0.6755
vn 0.7066 -0.3755 -0.5997
vn 0.8889 0.0732 -0.4522
vn 0.9624 -0.1608 -0.2189
vn 0.9330 0.2293 0.2772
vn 0.9658 0.1986 0.1669
vn 0.9189 0.0893 0.3843
vn 0.5599 0.0265 0.8281
vn 0.3656 -0.1284 0.9219
vn 0.2057 -0.0099 0.9786
vn -0.0322 0.0101 0.9994
vn -0.5453 -0.2425 0.8024
vn -0.7089 -0.3230 0.6270
vn -0.8658 -0.0789 0.4942
vn -0.9742 -0.2174 -0.0611
vn -0.8647 -0.3124 -0.3933
vn -0.8773 -0.3493 -0.3292
vn -0.8966 -0.4075 -0.1734
vn -0.8026 -0.5899 -0.0886
vn -0.6132 -0.4061 -0.6775
vn -0.4572 -0.3660 -0.8105
vn -0.1881 -0.4191 -0.8883
vn -0.1278 -0.1501 -0.9804
vn -0.2706 -0.1412 -0.9523
vn 0.1647 -0.2526 -0.9534
vn 0.7445 -0.1237 -0.6560
vn 0.6655 -0.3240 -0.6724
vn 0.5317 -0.4780 -0.6991
vn 0.7267 -0.4013 -0.5576
vn 0.7697 -0.4551 -0.4477
vn 0.9898 -0.1293 0.0598
vn 0.9542 -0.0514 0.2946
vn 0.8758 -0.3105 0.3696
vn 0.5337 -0.2422 0.8102
vn 0.3651 -0.1732 0.9147
vn 0.2677 -0.1354 0.9539
vn -0.1382 -0.2025 0.9695
vn -0.6208 -0.3798 0.6858
vn -0.6855 -0.4415 0.5789
vn -0.7609 -0.5401 0.3597
vn -0.7877 -0.5795 -0.2089
vn -0.8251 -0.4560 -0.3335
vn -0.9622 -0.1724 -0.2110
vn -0.9209 -0.1279 -0.3683
vn -0.7791 -0.5821 -0.2328
vn -0.5427 -0.7093 -0.4498
vn -0.4281 -0.5996 -0.6761
vn -0.3580 -0.3806 -0.8526
vn -0.2377 -0.0975 -0.9664
vn -0.1140 -0.2922 -0.9496
vn 0.1170 -0.5740 -0.8105
vn 0.5596 -0.3388 -0.7564
vn 0.7770 0.0414 -0.6281
vn 0.7210 -0.1539 -0.6756
vn 0.7172 -0.4260 -0.5516
vn 0.6843 -0.5569 -0.4708
vn 0.7889 -0.5798 -0.2037
vn 0.8078 -0.5089 0.2974
vn 0.7277 -0.6082 0.3171
vn 0.5929 -0.5696 0.5692
vn 0.3868 -0.4048 0.8286
vn 0.2211 -0.4442 0.8682
vn -0.1972 -0.5815 0.7893
vn -0.6353 -0.5532 0.5389
vn -0.7195 -0.5391 0.4378
vn -0.7182 -0.6622 0.2137
vn -0.8414 -0.4957 -0.2151
vn -0.9272 -0.3302 -0.1768
vn -0.9222 -0.3739 -0.0985
vn -0.7628 -0.4134 -0.4973
vn -0.5826 -0.6468 -0.4921
vn -0.4640 -0.8010 -0.3784
vn -0.4772 -0.7390 -0.4755
vn -0.4746 -0.6082 -0.6362
vn -0.2663 -0.5240 -0.8090
vn 0.0586 -0.5863 -0.8080
vn 0.1509 -0.6354 -0.7573
vn 0.2094 -0.5372 -0.8171
vn 0.6335 -0.2985 -0.7138
vn 0.7939 -0.2926 -0.5330
vn 0.7808 -0.4513 -0.4320
vn 0.5890 -0.6800 -0.4367
vn 0.6270 -0.7045 -0.3325
vn 0.6782 -0.7220 0.1366
vn 0.6223 -0.7141 0.3207
vn 0.5307 -0.7791 0.3336
vn 0.3051 -0.8158 0.4913
vn 0.0595 -0.8627 0.5022
vn -0.1952 -0.9012 0.3869
vn -0.4985 -0.8123 0.3028
vn -0.6372 -0.7120 0.2950
vn -0.6869 -0.6876 0.2354
vn -0.9149 -0.4023 -0.0340
vn -0.9617 -0.2198 -0.1635
vn -0.8593 -0.4043 -0.3131
vn -0.5955 -0.5372 -0.5973
vn -0.4612 -0.6209 -0.6339
vn -0.5101 -0.7209 -0.4692
vn -0.5823 -0.6931 -0.4248
vn -0.5070 -0.6779 -0.5324
vn -0.2887 -0.6884 -0.6654
vn -0.0297 -0.6264 -0.7789
vn 0.1467 -0.4592 -0.8761
vn 0.1712 -0.5032 -0.8470
vn 0.4299 -0.6651 -0.6106
vn 0.5712 -0.7446 -0.3455
vn 0.5739 -0.7465 -0.3367
vn 0.3549 -0.7859 -0.5064
vn 0.4517 -0.7673 -0.4552
vn 0.5159 -0.8495 -0.1102
vn 0.4346 -0.8735 0.2193
vn 0.2995 -0.9241 0.2373
vn 0.0968 -0.9743 0.2032
vn -0.0929 -0.9823 0.1629
vn -0.1880 -0.9754 0.1148
vn -0.2892 -0.9476 0.1359
vn -0.3973 -0.8895 0.2255
vn -0.5066 -0.8193 0.2685
vn -0.7423 -0.6652 0.0798
vn -0.8436 -0.4927 -0.2137
vn -0.7857 -0.4161 -0.4578
vn -0.6773 -0.3512 -0.6465
vn -0.6083 -0.3090 -0.7311
vn -0.6232 -0.3507 -0.6990
vn -0.6388 -0.4679 -0.6108
vn -0.5259 -0.5847 -0.6178
vn -0.3644 -0.6318 -0.6841
vn -0.2181 -0.6099 -0.7619
vn 0.0266 -0.5765 -0.8166
vn 0.2548 -0.6821 -0.6854
vn 0.4368 -0.8362 -0.3317
vn 0.4145 -0.9005 -0.1317
vn 0.3145 -0.8957 -0.3144
vn 0.3371 -0.7455 -0.5750
vn 0.3460 -0.7630 -0.5460
vn 0.3440 -0.8843 -0.3157
vn 0.2313 -0.9728 0.0110
vn 0.0584 -0.9833 0.1726
vn -0.0963 -0.9811 0.1678
vn -0.1922 -0.9739 0.1210
vn -0.1850 -0.9779 0.0969
vn -0.1456 -0.9806 0.1311
vn -0.1719 -0.9680 0.1828
vn -0.2492 -0.9543 0.1647
vn -0.3643 -0.9309 0.0284
vn -0.4894 -0.8545 -0.1742
vn -0.5887 -0.7231 -0.3613
vn -0.6228 -0.5720 -0.5338
vn -0.5699 -0.4559 -0.6836
vn -0.4903 -0.4274 -0.7595
vn -0.4398 -0.5075 -0.7409
vn -0.3828 -0.6256 -0.6798
vn -0.3251 -0.7007 -0.6350
vn -0.2565 -0.7522 -0.6069
vn -0.0635 -0.8280 -0.5572
vn 0.2321 -0.8945 -0.3820
vn 0.4585 -0.8781 -0.1368
vn 0.5080 -0.8567 -0.0891
vn 0.4163 -0.8342 -0.3617
vn 0.3832 -0.7501 -0.5390
vn 0.3288 -0.7797 -0.5329
vn 0.2597 -0.8809 -0.3957
vn 0.1282 -0.9766 -0.1727
vn -0.0381 -0.9991 0.0188
vn -0.1712 -0.9788 0.1124
vn -0.2400 -0.9610 0.1373
vn -0.2335 -0.9635 0.1309
vn -0.1818 -0.9770 0.1117
vn -0.1428 -0.9870 0.0737
vn -0.1325 -0.9911 0.0138
vn -0.1477 -0.9876 -0.0528
vn -0.1898 -0.9750 -0.1157
vn -0.2449 -0.9511 -0.1885
vn -0.2774 -0.9099 -0.3085
vn -0.2502 -0.8480 -0.4672
vn -0.1809 -0.7928 -0.5820
vn -0.1309 -0.7815 -0.6100
vn -0.1280 -0.8062 -0.5776
vn -0.1544 -0.8394 -0.5211
vn -0.1551 -0.8734 -0.4616
vn -0.0626 -0.9150 -0.3985
vn 0.1245 -0.9409 -0.3149
vn 0.3246 -0.9144 -0.2418
vn 0.4439 -0.8554 -0.2669
vn 0.4458 -0.7937 -0.4138
vn -0.0306 -0.8817 -0.4707
vn -0.0430 -0.8584 -0.5112
vn -0.0716 -0.8737 -0.4812
vn -0.1288 -0.9039 -0.4079
vn -0.1972 -0.9229 -0.3306
vn -0.2461 -0.9281 -0.2794
vn -0.2524 -0.9315 -0.2619
vn -0.2079 -0.9414 -0.2658
vn -0.1289 -0.9539 -0.2710
vn -0.0495 -0.9619 -0.2687
vn 0.0116 -0.9651 -0.2617
vn 0.0607 -0.9673 -0.2463
vn 0.1056 -0.9712 -0.2138
vn 0.1400 -0.9750 -0.1726
vn 0.1581 -0.9755 -0.1532
vn 0.1667 -0.9711 -0.1706
vn 0.1673 -0.9651 -0.2014
vn 0.1422 -0.9666 -0.2131
vn 0.0709 -0.9776 -0.1981
vn -0.0387 -0.9840 -0.1742
vn -0.1353 -0.9769 -0.1653
vn -0.1663 -0.9703 -0.1758
vn -0.1257 -0.9733 -0.1921
vn -0.0552 -0.9756 -0.2127
vn -0.0120 -0.9641 -0.2654
vn -0.0146 -0.9297 -0.3680
vn 0.1529 0.9882 0.0021
vn -0.1315 -0.9327 -0.3357
vt 0.6700 2.2385
vt 0.6647 2.2351
vt 0.6502 2.2345
vt 0.6271 2.2372
vt 0.5968 2.2435
vt 0.5608 2.2527
vt 0.5208 2.2638
vt 0.4791 2.2755
vt 0.4381 2.2860
vt 0.4004 2.2939
vt 0.3684 2.2981
vt 0.3443 2.2983
vt 0.3296 2.2951
vt 0.3250 2.2901
vt 0.3306 2.2848
vt 0.3459 2.2805
vt 0.3699 2.2777
vt 0.4014 2.2760
vt 0.4385 2.2747
vt 0.4791 2.2732
vt 0.5209 2.2707
vt 0.5613 2.2670
vt 0.5979 2.2621
vt 0.6285 2.2562
vt 0.6515 2.2499
vt 0.6655 2.2437
vt 1.0047 2.0852
vt 0.9908 2.0877
vt 0.9497 2.0951
vt 0.8866 2.1220
vt 0.8020 2.1696
vt 0.6945 2.2228
vt 0.5679 2.2679
vt 0.4307 2.3065
vt 0.2914 2.3477
vt 0.1581 2.3903
vt 0.0435 2.4154
vt -0.0362 2.4017
vt -0.0720 2.3502
vt -0.0699 2.2899
vt -0.0424 2.2546
vt 0.0059 2.2524
vt 0.0797 2.2636
vt 0.1810 2.2637
vt 0.3029 2.2460
vt 0.4340 2.2200
vt 0.5650 2.1938
vt 0.6880 2.1653
vt 0.7951 2.1314
vt 0.8811 2.0989
vt 0.9456 2.0806
vt 0.9884 2.0798
vt 1.2938 1.9164
vt 1.2861 1.9446
vt 1.2141 1.9390
vt 1.1196 1.9770
vt 1.0020 2.0769
vt 0.8314 2.1674
vt 0.6134 2.1790
vt 0.3894 2.1378
vt 0.1766 2.1275
vt -0.0373 2.1878
vt -0.2419 2.2685
vt -0.3777 2.2688
vt -0.4020 2.1577
vt -0.3619 2.0380
vt -0.3304 2.0260
vt -0.3011 2.1142
vt -0.2098 2.1921
vt -0.0337 2.1765
vt 0.1832 2.0941
vt 0.3970 2.0246
vt 0.6011 1.9962
vt 0.7924 1.9712
vt 0.9490 1.9102
vt 1.0561 1.8257
vt 1.1381 1.7859
vt 1.2270 1.8361
vt 1.6395 1.8479
vt 1.5908 1.8289
vt 1.4421 1.7586
vt 1.2798 1.7324
vt 1.1341 1.8203
vt 0.9310 1.9376
vt 0.6455 1.9275
vt 0.3647 1.8273
vt 0.1162 1.7802
vt -0.1437 1.8404
vt -0.4258 1.9630
vt -0.6235 2.0009
vt -0.6372 1.8855
vt -0.5650 1.7598
vt -0.5390 1.7658
vt -0.5377 1.8863
vt -0.4322 1.9732
vt -0.1954 1.9481
vt 0.0777 1.9085
vt 0.3547 1.9258
vt 0.6479 1.9516
vt 0.9258 1.9203
vt 1.1521 1.8578
vt 1.3163 1.7900
vt 1.4316 1.7445
vt 1.5540 1.7841
vt 1.9442 1.6934
vt 1.7854 1.5939
vt 1.6111 1.5369
vt 1.4002 1.4938
vt 1.2247 1.5542
vt 1.0100 1.6884
vt 0.6765 1.7098
vt 0.3291 1.6715
vt -0.0064 1.6801
vt -0.3416 1.7242
vt -0.6646 1.7856
vt -0.8926 1.7996
vt -0.9792 1.7589
vt -0.9449 1.6940
vt -0.8433 1.6432
vt -0.7651 1.6807
vt -0.5565 1.6663
vt -0.2514 1.5931
vt 0.0067 1.6494
vt 0.3137 1.7770
vt 0.6965 1.8473
vt 1.0430 1.7654
vt 1.2896 1.6486
vt 1.5236 1.6300
vt 1.7704 1.6856
vt 1.9463 1.7309
vt 2.0969 1.4228
vt 1.8889 1.3266
vt 1.7905 1.3421
vt 1.6118 1.3583
vt 1.3870 1.4023
vt 1.1165 1.5046
vt 0.7240 1.5738
vt 0.2671 1.6165
vt -0.1869 1.6193
vt -0.5967 1.6156
vt -0.8949 1.5768
vt -1.0537 1.5139
vt -1.2623 1.5488
vt -1.2839 1.5308
vt -1.1159 1.4617
vt -1.0143 1.4882
vt -0.6595 1.3951
vt -0.2708 1.2840
vt -0.0175 1.3433
vt 0.3060 1.4302
vt 0.7111 1.5119
vt 1.0937 1.4674
vt 1.3210 1.3351
vt 1.4981 1.2705
vt 1.8069 1.3528
vt 2.0875 1.4448
vt 2.1599 1.1382
vt 2.0574 1.1168
vt 2.0132 1.1571
vt 1.8611 1.1992
vt 1.5307 1.1976
vt 1.1869 1.2448
vt 0.7653 1.3462
vt 0.2176 1.4008
vt -0.2828 1.3488
vt -0.7653 1.3565
vt -1.0688 1.3059
vt -1.1233 1.2049
vt -1.3743 1.2423
vt -1.3367 1.2062
vt -1.1454 1.1516
vt -1.0926 1.1916
vt -0.6974 1.1151
vt -0.3871 1.1005
vt -0.1152 1.1671
vt 0.2860 1.1825
vt 0.7235 1.2131
vt 1.1238 1.1764
vt 1.4014 1.1101
vt 1.6048 1.0676
vt 1.7834 1.0573
vt 2.0146 1.0998
vt 2.2926 0.8959
vt 2.3365 0.9177
vt 2.2441 0.9350
vt 2.0474 0.9566
vt 1.6326 0.9403
vt 1.2506 0.9675
vt 0.7856 1.0234
vt 0.2059 1.0388
vt -0.3278 1.0156
vt -0.9157 1.0504
vt -1.1748 0.9941
vt -1.1781 0.9186
vt -1.4156 0.9357
vt -1.3508 0.9087
vt -1.0898 0.8616
vt -1.0437 0.8850
vt -0.6401 0.8364
vt -0.4899 0.8848
vt -0.2266 0.9525
vt 0.2605 0.9388
vt 0.7416 0.9427
vt 1.1527 0.9065
vt 1.5064 0.8913
vt 1.9272 0.9211
vt 2.0127 0.8773
vt 2.0912 0.8619
vt 2.5624 0.6487
vt 2.5418 0.6516
vt 2.3562 0.6511
vt 2.1837 0.6622
vt 1.7971 0.6646
vt 1.3709 0.6771
vt 0.7988 0.6787
vt 0.2004 0.6792
vt -0.4294 0.6890
vt -1.0147 0.6922
vt -1.1320 0.6572
vt -1.2655 0.6437
vt -1.3952 0.6407
vt -1.3723 0.6350
vt -1.0852 0.6177
vt -1.1077 0.6309
vt -0.6610 0.6118
vt -0.4965 0.6265
vt -0.2234 0.6471
vt 0.2795 0.6319
vt 0.7264 0.6354
vt 1.1601 0.6342
vt 1.5525 0.6336
vt 2.0551 0.6498
vt 2.2460 0.6422
vt 2.3541 0.6377
vt 2.7490 0.3379
vt 2.5280 0.3494
vt 2.3471 0.3496
vt 2.3437 0.3224
vt 1.9603 0.3147
vt 1.4513 0.3066
vt 0.8082 0.3156
vt 0.1825 0.3101
vt -0.5166 0.2933
vt -0.9633 0.3143
vt -1.1557 0.3405
vt -1.5156 0.3359
vt -1.3479 0.3628
vt -1.2306 0.3752
vt -1.0234 0.3869
vt -1.1275 0.3675
vt -0.7552 0.3791
vt -0.4708 0.3768
vt -0.1360 0.3707
vt 0.3168 0.3904
vt 0.6982 0.3815
vt 1.1547 0.3669
vt 1.5313 0.3691
vt 1.8614 0.3689
vt 2.2375 0.3585
vt 2.5174 0.3502
vt 2.7096 0.0120
vt 2.5838 0.0260
vt 2.4443 0.0151
vt 2.4692 -0.0810
vt 1.9990 -0.0828
vt 1.4230 -0.0748
vt 0.8094 -0.0668
vt 0.1690 -0.1064
vt -0.4934 -0.1187
vt -0.8475 -0.0239
vt -1.3090 -0.0338
vt -1.6073 -0.0256
vt -1.2054 0.1121
vt -1.0380 0.1603
vt -0.9116 0.1789
vt -0.9679 0.1339
vt -0.7613 0.1279
vt -0.4281 0.1392
vt -0.0567 0.1533
vt 0.3291 0.1869
vt 0.6966 0.1398
vt 1.1529 0.0934
vt 1.5004 0.1111
vt 1.6828 0.1510
vt 2.0860 0.1044
vt 2.4412 0.0585
vt 2.5498 -0.2882
vt 2.7318 -0.3838
vt 2.5673 -0.3977
vt 2.4098 -0.4811
vt 1.9626 -0.4900
vt 1.3832 -0.4577
vt 0.8107 -0.4912
vt 0.1677 -0.5599
vt -0.4140 -0.4911
vt -0.7718 -0.3609
vt -1.2916 -0.4203
vt -1.3063 -0.2844
vt -0.9953 -0.0922
vt -1.0235 -0.0858
vt -0.9121 -0.0592
vt -0.8047 -0.0666
vt -0.6448 -0.0881
vt -0.3423 -0.0702
vt -0.0218 -0.0658
vt 0.3191 -0.0771
vt 0.7002 -0.1387
vt 1.0973 -0.1476
vt 1.4618 -0.1510
vt 1.7167 -0.1250
vt 2.0143 -0.1576
vt 2.2855 -0.2071
vt 2.3380 -0.5621
vt 2.5804 -0.7381
vt 2.4500 -0.7725
vt 2.1886 -0.8036
vt 1.8624 -0.8859
vt 1.3644 -0.9086
vt 0.8041 -0.9579
vt 0.1880 -0.9957
vt -0.3362 -0.8626
vt -0.6942 -0.7147
vt -1.0419 -0.6904
vt -0.9940 -0.4750
vt -0.9052 -0.3363
vt -1.0174 -0.3768
vt -0.8935 -0.3293
vt -0.6785 -0.2691
vt -0.4726 -0.2509
vt -0.2361 -0.2488
vt 0.0113 -0.2964
vt 0.3234 -0.3467
vt 0.6803 -0.3645
vt 1.0020 -0.3180
vt 1.3744 -0.3895
vt 1.7425 -0.4592
vt 1.9949 -0.4755
vt 2.1706 -0.4942
vt 2.0986 -0.8210
vt 2.2555 -0.9940
vt 2.2106 -1.0964
vt 1.9712 -1.1242
vt 1.6812 -1.2182
vt 1.2733 -1.3021
vt 0.7657 -1.3216
vt 0.2394 -1.2865
vt -0.2117 -1.1584
vt -0.5363 -1.0075
vt -0.7855 -0.9192
vt -0.8912 -0.7983
vt -0.9078 -0.6981
vt -0.8661 -0.6289
vt -0.6964 -0.5182
vt -0.4845 -0.4187
vt -0.2933 -0.3758
vt -0.1265 -0.4113
vt 0.0778 -0.4838
vt 0.3503 -0.5261
vt 0.6527 -0.5466
vt 0.9540 -0.5579
vt 1.2972 -0.6596
vt 1.6290 -0.7464
vt 1.8400 -0.7505
vt 1.9771 -0.7571
vt 1.7787 -1.0126
vt 1.9063 -1.2133
vt 1.9021 -1.3730
vt 1.7196 -1.4273
vt 1.4413 -1.4601
vt 1.0954 -1.4860
vt 0.6986 -1.4489
vt 0.3093 -1.3713
vt -0.0363 -1.2889
vt -0.3265 -1.2210
vt -0.5733 -1.1961
vt -0.7484 -1.1677
vt -0.7880 -1.0691
vt -0.6981 -0.9172
vt -0.5414 -0.7687
vt -0.3643 -0.6546
vt -0.1967 -0.6009
vt -0.0424 -0.6295
vt 0.1443 -0.6867
vt 0.3742 -0.7343
vt 0.6329 -0.8045
vt 0.9171 -0.8914
vt 1.2023 -0.9625
vt 1.4251 -0.9619
vt 1.5517 -0.9050
vt 1.6498 -0.9008
vt 1.4178 -1.1377
vt 1.4946 -1.3278
vt 1.4890 -1.4929
vt 1.3678 -1.5688
vt 1.1581 -1.5670
vt 0.9015 -1.5204
vt 0.6318 -1.4517
vt 0.3720 -1.3951
vt 0.1274 -1.3748
vt -0.0992 -1.3820
vt -0.2928 -1.3900
vt -0.4277 -1.3695
vt -0.4855 -1.3110
vt -0.4730 -1.2362
vt -0.4041 -1.1615
vt -0.2855 -1.0829
vt -0.1337 -1.0106
vt 0.0322 -0.9693
vt 0.2089 -0.9647
vt 0.3990 -0.9953
vt 0.6053 -1.0590
vt 0.8230 -1.1251
vt 1.0234 -1.1440
vt 1.1691 -1.0950
vt 1.2564 -1.0243
vt 1.3282 -1.0220
vt 1.0923 -1.3603
vt 1.1059 -1.4598
vt 1.0784 -1.5516
vt 1.0019 -1.6059
vt 0.8823 -1.6136
vt 0.7355 -1.5854
vt 0.5784 -1.5422
vt 0.4231 -1.5033
vt 0.2768 -1.4770
vt 0.1455 -1.4599
vt 0.0367 -1.4440
vt -0.0430 -1.4261
vt -0.0901 -1.4087
vt -0.1026 -1.3927
vt -0.0786 -1.3715
vt -0.0178 -1.3367
vt 0.0736 -1.2892
vt 0.1849 -1.2419
vt 0.3068 -1.2109
vt 0.4346 -1.2050
vt 0.5660 -1.2205
vt 0.6967 -1.2420
vt 0.8171 -1.2533
vt 0.9175 -1.2518
vt 0.9946 -1.2545
vt 1.0524 -1.2867
vt 0.6935 -1.4793
vt 0.6898 -1.4998
vt 0.6746 -1.5170
vt 0.6485 -1.5287
vt 0.6129 -1.5337
vt 0.5704 -1.5319
vt 0.5239 -1.5245
vt 0.4763 -1.5129
vt 0.4307 -1.4988
vt 0.3898 -1.4839
vt 0.3559 -1.4690
vt 0.3308 -1.4547
vt 0.3157 -1.4413
vt 0.3114 -1.4287
vt 0.3180 -1.4167
vt 0.3350 -1.4054
vt 0.3613 -1.3952
vt 0.3952 -1.3871
vt 0.4347 -1.3821
vt 0.4778 -1.3811
vt 0.5222 -1.3846
vt 0.5656 -1.3923
vt 0.6057 -1.4039
vt 0.6404 -1.4190
vt 0.6677 -1.4372
vt 0.6858 -1.4577
vt 0.5000 2.2923
vt 0.5000 -1.1400
f 1/1/1 2/2/2 28/28/28
f 1/1/1 28/28/28 27/27/27
f 2/2/2 3/3/3 29/29/29
f 2/2/2 29/29/29 28/28/28
f 3/3/3 4/4/4 30/30/30
f 3/3/3 30/30/30 29/29/29
f 4/4/4 5/5/5 31/31/31
f 4/4/4 31/31/31 30/30/30
f 5/5/5 6/6/6 32/32/32
f 5/5/5 32/32/32 31/31/31
f 6/6/6 7/7/7 33/33/33
f 6/6/6 33/33/33 32/32/32
f 7/7/7 8/8/8 34/34/34
f 7/7/7 34/34/34 33/33/33
f 8/8/8 9/9/9 35/35/35
f 8/8/8 35/35/35 34/34/34
f 9/9/9 10/10/10 36/36/36
f 9/9/9 36/36/36 35/35/35
f 10/10/10 11/11/11 37/37/37
f 10/10/10 37/37/37 36/36/36
f 11/11/11 12/12/12 38/38/38
f 11/11/11 38/38/38 37/37/37
f 12/12/12 13/13/13 39/39/39
f 12/12/12 39/39/39 38/38/38
f 13/13/13 14/14/14 40/40/40
f 13/13/13 40/40/40 39/39/39
f 14/14/14 15/15/15 41/41/41
f 14/14/14 41/41/41 40/40/40
f 15/15/15 16/16/16 42/42/42
f 15/15/15 42/42/42 41/41/41
f 16/16/16 17/17/17 43/43/43
f 16/16/16 43/43/43 42/42/42
f 17/17/17 18/18/18 44/44/44
f 17/17/17 44/44/44 43/43/43
f 18/18/18 19/19/19 45/45/45
f 18/18/18 45/45/45 44/44/44
f 19/19/19 20/20/20 46/46/46
f 19/19/19 46/46/46 45/45/45
f 20/20/20 21/21/21 47/47/47
f 20/20/20 47/47/47 46/46/46
f 21/21/21 22/22/22 48/48/48
f 21/21/21 48/48/48 47/47/47
f 22/22/22 23/23/23 49/49/49
f 22/22/22 49/49/49 48/48/48
f 23/23/23 24/24/24 50/50/50
f 23/23/23 50/50/50 49/49/49
f 24/24/24 25/25/25 51/51/51
f 24/24/24 51/51/51 50/50/50
f 25/25/25 26/26/26 52/52/52
f 25/25/25 52/52/52 51/51/51
f 26/26/26 1/1/1 27/27/27
f 26/26/26 27/27/27 52/52/52
f 27/27/27 28/28/28 54/54/54
f 27/27/27 54/54/54 53/53/53
f 28/28/28 29/29/29 55/55/55
f 28/28/28 55/55/55 54/54/54
f 29/29/29 30/30/30 56/56/56
f 29/29/29 56/56/56 55/55/55
f 30/30/30 31/31/31 57/57/57
f 30/30/30 57/57/57 56/56/56
f 31/31/31 32/32/32 58/58/58
f 31/31/31 58/58/58 57/57/57
f 32/32/32 33/33/33 59/59/59
f 32/32/32 59/59/59 58/58/58
f 33/33/33 34/34/34 60/60/60
f 33/33/33 60/60/60 59/59/59
f 34/34/34 35/35/35 61/61/61
f 34/34/34 61/61/61 60/60/60
f 35/35/35 36/36/36 62/62/62
f 35/35/35 62/62/62 61/61/61
f 36/36/36 37/37/37 63/63/63
f 36/36/36 63/63/63 62/62/62
f 37/37/37 38/38/38 64/64/64
f 37/37/37 64/64/64 63/63/63
f 38/38/38 39/39/39 65/65/65
f 38/38/38 65/65/65 64/64/64
f 39/39/39 40/40/40 66/66/66
f 39/39/39 66/66/66 65/65/65
f 40/40/40 41/41/41 67/67/67
f 40/40/40 67/67/67 66/66/66
f 41/41/41 42/42/42 68/68/68
f 41/41/41 68/68/68 67/67/67
f 42/42/42 43/43/43 69/69/69
f 42/42/42 69/69/69 68/68/68
f 43/43/43 44/44/44 70/70/70
f 43/43/43 70/70/70 69/69/69
f 44/44/44 45/45/45 71/71/71
f 44/44/44 71/71/71 70/70/70
f 45/45/45 46/46/46 72/72/72
f 45/45/45 72/72/72 71/71/71
f 46/46/46 47/47/47 73/73/73
f 46/46/46 73/73/73 72/72/72
f 47/47/47 48/48/48 74/74/74
f 47/47/47 74/74/74 73/73/73
f 48/48/48 49/49/49 75/75/75
f 48/48/48 75/75/75 74/74/74
f 49/49/49 50/50/50 76/76/76
f 49/49/49 76/76/76 75/75/75
f 50/50/50 51/51/51 77/77/77
f 50/50/50 77/77/77 76/76/76
f 51/51/51 52/52/52 78/78/78
f 51/51/51 78/78/78 77/77/77
f 52/52/52 27/27/27 53/53/53
f 52/52/52 53/53/53 78/78/78
f 53/53/53 54/54/54 80/80/80
f 53/53/53 80/80/80 79/79/79
f 54/54/54 55/55/55 81/81/81
f 54/54/54 81/81/81 80/80/80
f 55/55/55 56/56/56 82/82/82
f 55/55/55 82/82/82 81/81/81
f 56/56/56 57/57/57 83/83/83
f 56/56/56 83/83/83 82/82/82
f 57/57/57 58/58/58 84/84/84
f 57/57/57 84/84/84 83/83/83
f 58/58/58 59/59/59 85/85/85
f 58/58/58 85/85/85 84/84/84
f 59/59/59 60/60/60 86/86/86
f 59/59/59 86/86/86 85/85/85
f 60/60/60 61/61/61 87/87/87
f 60/60/60 87/87/87 86/86/86
f 61/61/61 62/62/62 88/88/88
f 61/61/61 88/88/88 87/87/87
f 62/62/62 63/63/63 89/89/89
f 62/62/62 89/89/89 88/88/88
f 63/63/63 64/64/64 90/90/90
f 63/63/63 90/90/90 89/89/89
f 64/64/64 65/65/65 91/91/91
f 64/64/64 91/91/91 90/90/90
f 65/65/65 66/66/66 92/92/92
f 65/65/65 92/92/92 91/91/91
f 66/66/66 67/67/67 93/93/93
f 66/66/66 93/93/93 92/92/92
f 67/67/67 68/68/68 94/94/94
f 67/67/67 94/94/94 93/93/93
f 68/68/68 69/69/69 95/95/95
f 68/68/68 95/95/95 94/94/94
f 69/69/69 70/70/70 96/96/96
f 69/69/69 96/96/96 95/95/95
f 70/70/70 71/71/71 97/97/97
f 70/70/70 97/97/97 96/96/96
f 71/71/71 72/72/72 98/98/98
f 71/71/71 98/98/98 97/97/97
f 72/72/72 73/73/73 99/99/99
f 72/72/72 99/99/99 98/98/98
f 73/73/73 74/74/74 100/100/100
f 73/73/73 100/100/100 99/99/99
f 74/74/74 75/75/75 101/101/101
f 74/74/74 101/101/101 100/100/100
f 75/75/75 76/76/76 102/102/102
f 75/75/75 102/102/102 101/101/101
f 76/76/76 77/77/77 103/103/103
f 76/76/76 103/103/103 102/102/102
f 77/77/77 78/78/78 104/104/104
f 77/77/77 104/104/104 103/103/103
f 78/78/78 53/53/53 79/79/79
f 78/78/78 79/79/79 104/104/104
f 79/79/79 80/80/80 106/106/106
f 79/79/79 106/106/106 105/105/105
f 80/80/80 81/81/81 107/107/107
f 80/80/80 107/107/107 106/106/106
f 81/81/81 82/82/82 108/108/108
f 81/81/81 108/108/108 107/107/107
f 82/82/82 83/83/83 109/109/109
f 82/82/82 109/109/109 108/108/108
f 83/83/83 84/84/84 110/110/110
f 83/83/83 110/110/110 109/109/109
f 84/84/84 85/85/85 111/111/111
f 84/84/84 111/111/111 110/110/110
f 85/85/85 86/86/86 112/112/112
f 85/85/85 112/112/112 111/111/111
f 86/86/86 87/87/87 113/113/113
f 86/86/86 113/113/113 112/112/112
f 87/87/87 88/88/88 114/114/114
f 87/87/87 114/114/114 113/113/113
f 88/88/88 89/89/89 115/115/115
f 88/88/88 115/115/115 114/114/114
f 89/89/89 90/90/90 116/116/116
f 89/89/89 116/116/116 115/115/115
f 90/90/90 91/91/91 117/117/117
f 90/90/90 117/117/117 116/116/116
f 91/91/91 92/92/92 118/118/118
f 91/91/91 118/118/118 117/117/117
f 92/92/92 93/93/93 119/119/119
f 92/92/92 119/119/119 118/118/118
f 93/93/93 94/94/94 120/120/120
f 93/93/93 120/120/120 119/119/119
f 94/94/94 95/95/95 121/121/121
f 94/94/94 121/121/121 120/120/120
f 95/95/95 96/96/96 122/122/122
f 95/95/95 122/122/122 121/121/121
f 96/96/96 97/97/97 123/123/123
f 96/96/96 123/123/123 122/122/122
f 97/97/97 98/98/98 124/124/124
f 97/97/97 124/124/124 123/123/123
f 98/98/98 99/99/99 125/125/125
f 98/98/98 125/125/125 124/124/124
f 99/99/99 100/100/100 126/126/126
f 99/99/99 126/126/126 125/125/125
f 100/100/100 101/101/101 127/127/127
f 100/100/100 127/127/127 126/126/126
f 101/101/101 102/102/102 128/128/128
f 101/101/101 128/128/128 127/127/127
f 102/102/102 103/103/103 129/129/129
f 102/102/102 129/129/129 128/128/128
f 103/103/103 104/104/104 130/130/130
f 103/103/103 130/130/130 129/129/129
f 104/104/104 79/79/79 105/105/105
f 104/104/104 105/105/105 130/130/130
f 105/105/105 106/106/106 132/132/132
f 105/105/105 132/132/132 131/131/131
f 106/106/106 107/107/107 133/133/133
f 106/106/106 133/133/133 132/132/132
f 107/107/107 108/108/108 134/134/134
f 107/107/107 134/134/134 133/133/133
f 108/108/108 109/109/109 135/135/135
f 108/108/108 135/135/135 134/134/134
f 109/109/109 110/110/110 136/136/136
f 109/109/109 136/136/136 135/135/135
f 110/110/110 111/111/111 137/137/137
f 110/110/110 137/137/137 136/136/136
f 111/111/111 112/112/112 138/138/138
f 111/111/111 138/138/138 137/137/137
f 112/112/112 113/113/113 139/139/139
f 112/112/112 139/139/139 138/138/138
f 113/113/113 114/114/114 140/140/140
f 113/113/113 140/140/140 139/139/139
f 114/114/114 115/115/115 141/141/141
f 114/114/114 141/141/141 140/140/140
f 115/115/115 116/116/116 142/142/142
f 115/115/115 142/142/142 141/141/141
f 116/116/116 117/117/117 143/143/143
f 116/116/116 143/143/143 142/142/142
f 117/117/117 118/118/118 144/144/144
f 117/117/117 144/144/144 143/143/143
f 118/118/118 119/119/119 145/145/145
f 118/118/118 145/145/145 144/144/144
f 119/119/119 120/120/120 146/146/146
f 119/119/119 146/146/146 145/145/145
f 120/120/120 121/121/121 147/147/147
f 120/120/120 147/147/147 146/146/146
f 121/121/121 122/122/122 148/148/148
f 121/121/121 148/148/148 147/147/147
f 122/122/122 123/123/123 149/149/149
f 122/122/122 149/149/149 148/148/148
f 123/123/123 124/124/124 150/150/150
f 123/123/123 150/150/150 149/149/149
f 124/124/124 125/125/125 151/151/151
f 124/124/124 151/151/151 150/150/150
f 125/125/125 126/126/126 152/152/152
f 125/125/125 152/152/152 151/151/151
f 126/126/126 127/127/127 153/153/153
f 126/126/126 153/153/153 152/152/152
f 127/127/127 128/128/128 154/154/154
f 127/127/127 154/154/154 153/153/153
f 128/128/128 129/129/129 155/155/155
f 128/128/128 155/155/155 154/154/154
f 129/129/129 130/130/130 156/156/156
f 129/129/129 156/156/156 155/155/155
f 130/130/130 105/105/105 131/131/131
f 130/130/130 131/131/131 156/156/156
f 131/131/131 132/132/132 158/158/158
f 131/131/131 158/158/158 157/157/157
f 132/132/132 133/133/133 159/159/159
f 132/132/132 159/159/159 158/158/158
f 133/133/133 134/134/134 160/160/160
f 133/133/133 160/160/160 159/159/159
f 134/134/134 135/135/135 161/161/161
f 134/134/134 161/161/161 160/160/160
f 135/135/135 136/136/136 162/162/162
f 135/135/135 162/162/162 161/161/161
f 136/136/136 137/137/137 163/163/163
f 136/136/136 163/163/163 162/162/162
f 137/137/137 138/138/138 164/164/164
f 137/137/137 164/164/164 163/163/163
f 138/138/138 139/139/139 165/165/165
f 138/138/138 165/165/165 164/164/164
f 139/139/139 140/140/140 166/166/166
f 139/139/139 166/166/166 165/165/165
f 140/140/140 141/141/141 167/167/167
f 140/140/140 167/167/167 166/166/166
f 141/141/141 142/142/142 168/168/168
f 141/141/141 168/168/168 167/167/167
f 142/142/142 143/143/143 169/169/169
f 142/142/142 169/169/169 168/168/168
f 143/143/143 144/144/144 170/170/170
f 143/143/143 170/170/170 169/169/169
f 144/144/144 145/145/145 171/171/171
f 144/144/144 171/171/171 170/170/170
f 145/145/145 146/146/146 172/172/172
f 145/145/145 172/172/172 171/171/171
f 146/146/146 147/147/147 173/173/173
f 146/146/146 173/173/173 172/172/172
f 147/147/147 148/148/148 174/174/174
f 147/147/147 174/174/174 173/173/173
f 148/148/148 149/149/149 175/175/175
f 148/148/148 175/175/175 174/174/174
f 149/149/149 150/150/150 176/176/176
f 149/149/149 176/176/176 175/175/175
f 150/150/150 151/151/151 177/177/177
f 150/150/150 177/177/177 176/176/176
f 151/151/151 152/152/152 178/178/178
f 151/151/151 178/178/178 177/177/177
f 152/152/152 153/153/153 179/179/179
f 152/152/152 179/179/179 178/178/178
f 153/153/153 154/154/154 180/180/180
f 153/153/153 180/180/180 179/179/179
f 154/154/154 155/155/155 181/181/181
f 154/154/154 181/181/181 180/180/180
f 155/155/155 156/156/156 182/182/182
f 155/155/155 182/182/182 181/181/181
f 156/156/156 131/131/131 157/157/157
f 156/156/156 157/157/157 182/182/182
f 157/157/157 158/158/158 184/184/184
f 157/157/157 184/184/184 183/183/183
f 158/158/158 159/159/159 185/185/185
f 158/158/158 185/185/185 184/184/184
f 159/159/159 160/160/160 186/186/186
f 159/159/159 186/186/186 185/185/185
f 160/160/160 161/161/161 187/187/187
f 160/160/160 187/187/187 186/186/186
f 161/161/161 162/162/162 188/188/188
f 161/161/161 188/188/188 187/187/187
f 162/162/162 163/163/163 189/189/189
f 162/162/162 189/189/189 188/188/188
f 163/163/163 164/164/164 190/190/190
f 163/163/163 190/190/190 189/189/189
f 164/164/164 165/165/165 191/191/191
f 164/164/164 191/191/191 190/190/190
f 165/165/165 166/166/166 192/192/192
f 165/165/165 192/192/192 191/191/191
f 166/166/166 167/167/167 193/193/193
f 166/166/166 193/193/193 192/192/192
f 167/167/167 168/168/168 194/194/194
f 167/167/167 194/194/194 193/193/193
f 168/168/168 169/169/169 195/195/195
f 168/168/168 195/195/195 194/194/194
f 169/169/169 170/170/170 196/196/196
f 169/169/169 196/196/196 195/195/195
f 170/170/170 171/171/171 197/197/197
f 170/170/170 197/197/197 196/196/196
f 171/171/171 172/172/172 198/198/198
f 171/171/171 198/198/198 197/197/197
f 172/172/172 173/173/173 199/199/199
f 172/172/172 199/199/199 198/198/198
f 173/173/173 174/174/174 200/200/200
f 173/173/173 200/200/200 199/199/199
f 174/174/174 175/175/175 201/201/201
f 174/174/174 201/201/201 200/200/200
f 175/175/175 176/176/176 202/202/202
f 175/175/175 202/202/202 201/201/201
f 176/176/176 177/177/177 203/203/203
f 176/176/176 203/203/203 202/202/202
f 177/177/177 178/178/178 204/204/204
f 177/177/177 204/204/204 203/203/203
f 178/178/178 179/179/179 205/205/205
f 178/178/178 205/205/205 204/204/204
f 179/179/179 180/180/180 206/206/206
f 179/179/179 206/206/206 205/205/205
f 180/180/180 181/181/181 207/207/207
f 180/180/180 207/207/207 206/206/206
f 181/181/181 182/182/182 208/208/208
f 181/181/181 208/208/208 207/207/207
f 182/182/182 157/157/157 183/183/183
f 182/182/182 183/183/183 208/208/208
f 183/183/183 184/184/184 210/210/210
f 183/183/183 210/210/210 209/209/209
f 184/184/184 185/185/185 211/211/211
f 184/184/184 211/211/211 210/210/210
f 185/185/185 186/186/186 212/212/212
f 185/185/185 212/212/212 211/211/211
f 186/186/186 187/187/187 213/213/213
f 186/186/186 213/213/213 212/212/212
f 187/187/187 188/188/188 214/214/214
f 187/187/187 214/214/214 213/213/213
f 188/188/188 189/189/189 215/215/215
f 188/188/188 215/215/215 214/214/214
f 189/189/189 190/190/190 216/216/216
f 189/189/189 216/216/216 215/215/215
f 190/190/190 191/191/191 217/217/217
f 190/190/190 217/217/217 216/216/216
f 191/191/191 192/192/192 218/218/218
f 191/191/191 218/218/218 217/217/217
f 192/192/192 193/193/193 219/219/219
f 192/192/192 219/219/219 218/218/218
f 193/193/193 194/194/194 220/220/220
f 193/193/193 220/220/220 219/219/219
f 194/194/194 195/195/195 221/221/221
f 194/194/194 221/221/221 220/220/220
f 195/195/195 196/196/196 222/222/222
f 195/195/195 222/222/222 221/221/221
f 196/196/196 197/197/197 223/223/223
f 196/196/196 223/223/223 222/222/222
f 197/197/197 198/198/198 224/224/224
f 197/197/197 224/224/224 223/223/223
f 198/198/198 199/199/199 225/225/225
f 198/198/198 225/225/225 224/224/224
f 199/199/199 200/200/200 226/226/226
f 199/199/199 226/226/226 225/225/225
f 200/200/200 201/201/201 227/227/227
f 200/200/200 227/227/227 226/226/226
f 201/201/201 202/202/202 228/228/228
f 201/201/201 228/228/228 227/227/227
f 202/202/202 203/203/203 229/229/229
f 202/202/202 229/229/229 228/228/228
f 203/203/203 204/204/204 230/230/230
f 203/203/203 230/230/230 229/229/229
f 204/204/204 205/205/205 231/231/231
f 204/204/204 231/231/231 230/230/230
f 205/205/205 206/206/206 232/232/232
f 205/205/205 232/232/232 231/231/231
f 206/206/206 207/207/207 233/233/233
f 206/206/206 233/233/233 232/232/232
f 207/207/207 208/208/208 234/234/234
f 207/207/207 234/234/234 233/233/233
f 208/208/208 183/183/183 209/209/209
f 208/208/208 209/209/209 234/234/234
f 209/209/209 210/210/210 236/236/236
f 209/209/209 236/236/236 235/235/235
f 210/210/210 211/211/211 237/237/237
f 210/210/210 237/237/237 236/236/236
f 211/211/211 212/212/212 238/238/238
f 211/211/211 238/238/238 237/237/237
f 212/212/212 213/213/213 239/239/239
f 212/212/212 239/239/239 238/238/238
f 213/213/213 214/214/214 240/240/240
f 213/213/213 240/240/240 239/239/239
f 214/214/214 215/215/215 241/241/241
f 214/214/214 241/241/241 240/240/240
f 215/215/215 216/216/216 242/242/242
f 215/215/215 242/242/242 241/241/241
f 216/216/216 217/217/217 243/243/243
f 216/216/216 243/243/243 242/242/242
f 217/217/217 218/218/218 244/244/244
f 217/217/217 244/244/244 243/243/243
f 218/218/218 219/219/219 245/245/245
f 218/218/218 245/245/245 244/244/244
f 219/219/219 220/220/220 246/246/246
f 219/219/219 246/246/246 245/245/245
f 220/220/220 221/221/221 247/247/247
f 220/220/220 247/247/247 246/246/246
f 221/221/221 222/222/222 248/248/248
f 221/221/221 248/248/248 247/247/247
f 222/222/222 223/223/223 249/249/249
f 222/222/222 249/249/249 248/248/248
f 223/223/223 224/224/224 250/250/250
f 223/223/223 250/250/250 249/249/249
f 224/224/224 225/225/225 251/251/251
f 224/224/224 251/251/251 250/250/250
f 225/225/225 226/226/226 252/252/252
f 225/225/225 252/252/252 251/251/251
f 226/226/226 227/227/227 253/253/253
f 226/226/226 253/253/253 252/252/252
f 227/227/227 228/228/228 254/254/254
f 227/227/227 254/254/254 253/253/253
f 228/228/228 229/229/229 255/255/255
f 228/228/228 255/255/255 254/254/254
f 229/229/229 230/230/230 256/256/256
f 229/229/229 256/256/256 255/255/255
f 230/230/230 231/231/231 257/257/257
f 230/230/230 257/257/257 256/256/256
f 231/231/231 232/232/232 258/258/258
f 231/231/231 258/258/258 257/257/257
f 232/232/232 233/233/233 259/259/259
f 232/232/232 259/259/259 258/258/258
f 233/233/233 234/234/234 260/260/260
f 233/233/233 260/260/260 259/259/259
f 234/234/234 209/209/209 235/235/235
f 234/234/234 235/235/235 260/260/260
f 235/235/235 236/236/236 262/262/262
f 235/235/235 262/262/262 261/261/261
f 236/236/236 237/237/237 263/263/263
f 236/236/236 263/263/263 262/262/262
f 237/237/237 238/238/238 264/264/264
f 237/237/237 264/264/264 263/263/263
f 238/238/238 239/239/239 265/265/265
f 238/238/238 265/265/265 264/264/264
f 239/239/239 240/240/240 266/266/266
f 239/239/239 266/266/266 265/265/265
f 240/240/240 241/241/241 267/267/267
f 240/240/240 267/267/267 266/266/266
f 241/241/241 242/242/242 268/268/268
f 241/241/241 268/268/268 267/267/267
f 242/242/242 243/243/243 269/269/269
f 242/242/242 269/269/269 268/268/268
f 243/243/243 244/244/244 270/270/270
f 243/243/243 270/270/270 269/269/269
f 244/244/244 245/245/245 271/271/271
f 244/244/244 271/271/271 270/270/270
f 245/245/245 246/246/246 272/272/272
f 245/245/245 272/272/272 271/271/271
f 246/246/246 247/247/247 273/273/273
f 246/246/246 273/273/273 272/272/272
f 247/247/247 248/248/248 274/274/274
f 247/247/247 274/274/274 273/273/273
f 248/248/248 249/249/249 275/275/275
f 248/248/248 275/275/275 274/274/274
f 249/249/249 250/250/250 276/276/276
f 249/249/249 276/276/276 275/275/275
f 250/250/250 251/251/251 277/277/277
f 250/250/250 277/277/277 276/276/276
f 251/251/251 252/252/252 278/278/278
f 251/251/251 278/278/278 277/277/277
f 252/252/252 253/253/253 279/279/279
f 252/252/252 279/279/279 278/278/278
f 253/253/253 254/254/254 280/280/280
f 253/253/253 280/280/280 279/279/279
f 254/254/254 255/255/255 281/281/281
f 254/254/254 281/281/281 280/280/280
f 255/255/255 256/256/256 282/282/282
f 255/255/255 282/282/282 281/281/281
f 256/256/256 257/257/257 283/283/283
f 256/256/256 283/283/283 282/282/282
f 257/257/257 258/258/258 284/284/284
f 257/257/257 284/284/284 283/283/283
f 258/258/258 259/259/259 285/285/285
f 258/258/258 285/285/285 284/284/284
f 259/259/259 260/260/260 286/286/286
f 259/259/259 286/286/286 285/285/285
f 260/260/260 235/235/235 261/261/261
f 260/260/260 261/261/261 286/286/286
f 261/261/261 262/262/262 288/288/288
f 261/261/261 288/288/288 287/287/287
f 262/262/262 263/263/263 289/289/289
f 262/262/262 289/289/289 288/288/288
f 263/263/263 264/264/264 290/290/290
f 263/263/263 290/290/290 289/289/289
f 264/264/264 265/265/265 291/291/291
f 264/264/264 291/291/291 290/290/290
f 265/265/265 266/266/266 292/292/292
f 265/265/265 292/292/292 291/291/291
f 266/266/266 267/267/267 293/293/293
f 266/266/266 293/293/293 292/292/292
f 267/267/267 268/268/268 294/294/294
f 267/267/267 294/294/294 293/293/293
f 268/268/268 269/269/269 295/295/295
f 268/268/268 295/295/295 294/294/294
f 269/269/269 270/270/270 296/296/296
f 269/269/269 296/296/296 295/295/295
f 270/270/270 271/271/271 297/297/297
f 270/270/270 297/297/297 296/296/296
f 271/271/271 272/272/272 298/298/298
f 271/271/271 298/298/298 297/297/297
f 272/272/272 273/273/273 299/299/299
f 272/272/272 299/299/299 298/298/298
f 273/273/273 274/274/274 300/300/300
f 273/273/273 300/300/300 299/299/299
f 274/274/274 275/275/275 301/301/301
f 274/274/274 301/301/301 300/300/300
f 275/275/275 276/276/276 302/302/302
f 275/275/275 302/302/302 301/301/301
f 276/276/276 277/277/277 303/303/303
f 276/276/276 303/303/303 302/302/302
f 277/277/277 278/278/278 304/304/304
f 277/277/277 304/304/304 303/303/303
f 278/278/278 279/279/279 305/305/305
f 278/278/278 305/305/305 304/304/304
f 279/279/279 280/280/280 306/306/306
f 279/279/279 306/306/306 305/305/305
f 280/280/280 281/281/281 307/307/307
f 280/280/280 307/307/307 306/306/306
f 281/281/281 282/282/282 308/308/308
f 281/281/281 308/308/308 307/307/307
f 282/282/282 283/283/283 309/309/309
f 282/282/282 309/309/309 308/308/308
f 283/283/283 284/284/284 310/310/310
f 283/283/283 310/310/310 309/309/309
f 284/284/284 285/285/285 311/311/311
f 284/284/284 311/311/311 310/310/310
f 285/285/285 286/286/286 312/312/312
f 285/285/285 312/312/312 311/311/311
f 286/286/286 261/261/261 287/287/287
f 286/286/286 287/287/287 312/312/312
f 287/287/287 288/288/288 314/314/314
f 287/287/287 314/314/314 313/313/313
f 288/288/288 289/289/289 315/315/315
f 288/288/288 315/315/315 314/314/314
f 289/289/289 290/290/290 316/316/316
f 289/289/289 316/316/316 315/315/315
f 290/290/290 291/291/291 317/317/317
f 290/290/290 317/317/317 316/316/316
f 291/291/291 292/292/292 318/318/318
f 291/291/291 318/318/318 317/317/317
f 292/292/292 293/293/293 319/319/319
f 292/292/292 319/319/319 318/318/318
f 293/293/293 294/294/294 320/320/320
f 293/293/293 320/320/320 319/319/319
f 294/294/294 295/295/295 321/321/321
f 294/294/294 321/321/321 320/320/320
f 295/295/295 296/296/296 322/322/322
f 295/295/295 322/322/322 321/321/321
f 296/296/296 297/297/297 323/323/323
f 296/296/296 323/323/323 322/322/322
f 297/297/297 298/298/298 324/324/324
f 297/297/297 324/324/324 323/323/323
f 298/298/298 299/299/299 325/325/325
f 298/298/298 325/325/325 324/324/324
f 299/299/299 300/300/300 326/326/326
f 299/299/299 326/326/326 325/325/325
f 300/300/300 301/301/301 327/327/327
f 300/300/300 327/327/327 326/326/326
f 301/301/301 302/302/302 328/328/328
f 301/301/301 328/328/328 327/327/327
f 302/302/302 303/303/303 329/329/329
f 302/302/302 329/329/329 328/328/328
f 303/303/303 304/304/304 330/330/330
f 303/303/303 330/330/330 329/329/329
f 304/304/304 305/305/305 331/331/331
f 304/304/304 331/331/331 330/330/330
f 305/305/305 306/306/306 332/332/332
f 305/305/305 332/332/332 331/331/331
f 306/306/306 307/307/307 333/333/333
f 306/306/306 333/333/333 332/332/332
f 307/307/307 308/308/308 334/334/334
f 307/307/307 334/334/334 333/333/333
f 308/308/308 309/309/309 335/335/335
f 308/308/308 335/335/335 334/334/334
f 309/309/309 310/310/310 336/336/336
f 309/309/309 336/336/336 335/335/335
f 310/310/310 311/311/311 337/337/337
f 310/310/310 337/337/337 336/336/336
f 311/311/311 312/312/312 338/338/338
f 311/311/311 338/338/338 337/337/337
f 312/312/312 287/287/287 313/313/313
f 312/312/312 313/313/313 338/338/338
f 313/313/313 314/314/314 340/340/340
f 313/313/313 340/340/340 339/339/339
f 314/314/314 315/315/315 341/341/341
f 314/314/314 341/341/341 340/340/340
f 315/315/315 316/316/316 342/342/342
f 315/315/315 342/342/342 341/341/341
f 316/316/316 317/317/317 343/343/343
f 316/316/316 343/343/343 342/342/342
f 317/317/317 318/318/318 344/344/344
f 317/317/317 344/344/344 343/343/343
f 318/318/318 319/319/319 345/345/345
f 318/318/318 345/345/345 344/344/344
f 319/319/319 320/320/320 346/346/346
f 319/319/319 346/346/346 345/345/345
f 320/320/320 321/321/321 347/347/347
f 320/320/320 347/347/347 346/346/346
f 321/321/321 322/322/322 348/348/348
f 321/321/321 348/348/348 347/347/347
f 322/322/322 323/323/323 349/349/349
f 322/322/322 349/349/349 348/348/348
f 323/323/323 324/324/324 350/350/350
f 323/323/323 350/350/350 349/349/349
f 324/324/324 325/325/325 351/351/351
f 324/324/324 351/351/351 350/350/350
f 325/325/325 326/326/326 352/352/352
f 325/325/325 352/352/352 351/351/351
f 326/326/326 327/327/327 353/353/353
f 326/326/326 353/353/353 352/352/352
f 327/327/327 328/328/328 354/354/354
f 327/327/327 354/354/354 353/353/353
f 328/328/328 329/329/329 355/355/355
f 328/328/328 355/355/355 354/354/354
f 329/329/329 330/330/330 356/356/356
f 329/329/329 356/356/356 355/355/355
f 330/330/330 331/331/331 357/357/357
f 330/330/330 357/357/357 356/356/356
f 331/331/331 332/332/332 358/358/358
f 331/331/331 358/358/358 357/357/357
f 332/332/332 333/333/333 359/359/359
f 332/332/332 359/359/359 358/358/358
f 333/333/333 334/334/334 360/360/360
f 333/333/333 360/360/360 359/359/359
f 334/334/334 335/335/335 361/361/361
f 334/334/334 361/361/361 360/360/360
f 335/335/335 336/336/336 362/362/362
f 335/335/335 362/362/362 361/361/361
f 336/336/336 337/337/337 363/363/363
f 336/336/336 363/363/363 362/362/362
f 337/337/337 338/338/338 364/364/364
f 337/337/337 364/364/364 363/363/363
f 338/338/338 313/313/313 339/339/339
f 338/338/338 339/339/339 364/364/364
f 339/339/339 340/340/340 366/366/366
f 339/339/339 366/366/366 365/365/365
f 340/340/340 341/341/341 367/367/367
f 340/340/340 367/367/367 366/366/366
f 341/341/341 342/342/342 368/368/368
f 341/341/341 368/368/368 367/367/367
f 342/342/342 343/343/343 369/369/369
f 342/342/342 369/369/369 368/368/368
f 343/343/343 344/344/344 370/370/370
f 343/343/343 370/370/370 369/369/369
f 344/344/344 345/345/345 371/371/371
f 344/344/344 371/371/371 370/370/370
f 345/345/345 346/346/346 372/372/372
f 345/345/345 372/372/372 371/371/371
f 346/346/346 347/347/347 373/373/373
f 346/346/346 373/373/373 372/372/372
f 347/347/347 348/348/348 374/374/374
f 347/347/347 374/374/374 373/373/373
f 348/348/348 349/349/349 375/375/375
f 348/348/348 375/375/375 374/374/374
f 349/349/349 350/350/350 376/376/376
f 349/349/349 376/376/376 375/375/375
f 350/350/350 351/351/351 377/377/377
f 350/350/350 377/377/377 376/376/376
f 351/351/351 352/352/352 378/378/378
f 351/351/351 378/378/378 377/377/377
f 352/352/352 353/353/353 379/379/379
f 352/352/352 379/379/379 378/378/378
f 353/353/353 354/354/354 380/380/380
f 353/353/353 380/380/380 379/379/379
f 354/354/354 355/355/355 381/381/381
f 354/354/354 381/381/381 380/380/380
f 355/355/355 356/356/356 382/382/382
f 355/355/355 382/382/382 381/381/381
f 356/356/356 357/357/357 383/383/383
f 356/356/356 383/383/383 382/382/382
f 357/357/357 358/358/358 384/384/384
f 357/357/357 384/384/384 383/383/383
f 358/358/358 359/359/359 385/385/385
f 358/358/358 385/385/385 384/384/384
f 359/359/359 360/360/360 386/386/386
f 359/359/359 386/386/386 385/385/385
f 360/360/360 361/361/361 387/387/387
f 360/360/360 387/387/387 386/386/386
f 361/361/361 362/362/362 388/388/388
f 361/361/361 388/388/388 387/387/387
f 362/362/362 363/363/363 389/389/389
f 362/362/362 389/389/389 388/388/388
f 363/363/363 364/364/364 390/390/390
f 363/363/363 390/390/390 389/389/389
f 364/364/364 339/339/339 365/365/365
f 364/364/364 365/365/365 390/390/390
f 365/365/365 366/366/366 392/392/392
f 365/365/365 392/392/392 391/391/391
f 366/366/366 367/367/367 393/393/393
f 366/366/366 393/393/393 392/392/392
f 367/367/367 368/368/368 394/394/394
f 367/367/367 394/394/394 393/393/393
f 368/368/368 369/369/369 395/395/395
f 368/368/368 395/395/395 394/394/394
f 369/369/369 370/370/370 396/396/396
f 369/369/369 396/396/396 395/395/395
f 370/370/370 371/371/371 397/397/397
f 370/370/370 397/397/397 396/396/396
f 371/371/371 372/372/372 398/398/398
f 371/371/371 398/398/398 397/397/397
f 372/372/372 373/373/373 399/399/399
f 372/372/372 399/399/399 398/398/398
f 373/373/373 374/374/374 400/400/400
f 373/373/373 400/400/400 399/399/399
f 374/374/374 375/375/375 401/401/401
f 374/374/374 401/401/401 400/400/400
f 375/375/375 376/376/376 402/402/402
f 375/375/375 402/402/402 401/401/401
f 376/376/376 377/377/377 403/403/403
f 376/376/376 403/403/403 402/402/402
f 377/377/377 378/378/378 404/404/404
f 377/377/377 404/404/404 403/403/403
f 378/378/378 379/379/379 405/405/405
f 378/378/378 405/405/405 404/404/404
f 379/379/379 380/380/380 406/406/406
f 379/379/379 406/406/406 405/405/405
f 380/380/380 381/381/381 407/407/407
f 380/380/380 407/407/407 406/406/406
f 381/381/381 382/382/382 408/408/408
f 381/381/381 408/408/408 407/407/407
f 382/382/382 383/383/383 409/409/409
f 382/382/382 409/409/409 408/408/408
f 383/383/383 384/384/384 410/410/410
f 383/383/383 410/410/410 409/409/409
f 384/384/384 385/385/385 411/411/411
f 384/384/384 411/411/411 410/410/410
f 385/385/385 386/386/386 412/412/412
f 385/385/385 412/412/412 411/411/411
f 386/386/386 387/387/387 413/413/413
f 386/386/386 413/413/413 412/412/412
f 387/387/387 388/388/388 414/414/414
f 387/387/387 414/414/414 413/413/413
f 388/388/388 389/389/389 415/415/415
f 388/388/388 415/415/415 414/414/414
f 389/389/389 390/390/390 416/416/416
f 389/389/389 416/416/416 415/415/415
f 390/390/390 365/365/365 391/391/391
f 390/390/390 391/391/391 416/416/416
f 391/391/391 392/392/392 418/418/418
f 391/391/391 418/418/418 417/417/417
f 392/392/392 393/393/393 419/419/419
f 392/392/392 419/419/419 418/418/418
f 393/393/393 394/394/394 420/420/420
f 393/393/393 420/420/420 419/419/419
f 394/394/394 395/395/395 421/421/421
f 394/394/394 421/421/421 420/420/420
f 395/395/395 396/396/396 422/422/422
f 395/395/395 422/422/422 421/421/421
f 396/396/396 397/397/397 423/423/423
f 396/396/396 423/423/423 422/422/422
f 397/397/397 398/398/398 424/424/424
f 397/397/397 424/424/424 423/423/423
f 398/398/398 399/399/399 425/425/425
f 398/398/398 425/425/425 424/424/424
f 399/399/399 400/400/400 426/426/426
f 399/399/399 426/426/426 425/425/425
f 400/400/400 401/401/401 427/427/427
f 400/400/400 427/427/427 426/426/426
f 401/401/401 402/402/402 428/428/428
f 401/401/401 428/428/428 427/427/427
f 402/402/402 403/403/403 429/429/429
f 402/402/402 429/429/429 428/428/428
f 403/403/403 404/404/404 430/430/430
f 403/403/403 430/430/430 429/429/429
f 404/404/404 405/405/405 431/431/431
f 404/404/404 431/431/431 430/430/430
f 405/405/405 406/406/406 432/432/432
f 405/405/405 432/432/432 431/431/431
f 406/406/406 407/407/407 433/433/433
f 406/406/406 433/433/433 432/432/432
f 407/407/407 408/408/408 434/434/434
f 407/407/407 434/434/434 433/433/433
f 408/408/408 409/409/409 435/435/435
f 408/408/408 435/435/435 434/434/434
f 409/409/409 410/410/410 436/436/436
f 409/409/409 436/436/436 435/435/435
f 410/410/410 411/411/411 437/437/437
f 410/410/410 437/437/437 436/436/436
f 411/411/411 412/412/412 438/438/438
f 411/411/411 438/438/438 437/437/437
f 412/412/412 413/413/413 439/439/439
f 412/412/412 439/439/439 438/438/438
f 413/413/413 414/414/414 440/440/440
f 413/413/413 440/440/440 439/439/439
f 414/414/414 415/415/415 441/441/441
f 414/414/414 441/441/441 440/440/440
f 415/415/415 416/416/416 442/442/442
f 415/415/415 442/442/442 441/441/441
f 416/416/416 391/391/391 417/417/417
f 416/416/416 417/417/417 442/442/442
f 417/417/417 418/418/418 444/444/444
f 417/417/417 444/444/444 443/443/443
f 418/418/418 419/419/419 445/445/445
f 418/418/418 445/445/445 444/444/444
f 419/419/419 420/420/420 446/446/446
f 419/419/419 446/446/446 445/445/445
f 420/420/420 421/421/421 447/447/447
f 420/420/420 447/447/447 446/446/446
f 421/421/421 422/422/422 448/448/448
f 421/421/421 448/448/448 447/447/447
f 422/422/422 423/423/423 449/449/449
f 422/422/422 449/449/449 448/448/448
f 423/423/423 424/424/424 450/450/450
f 423/423/423 450/450/450 449/449/449
f 424/424/424 425/425/425 451/451/451
f 424/424/424 451/451/451 450/450/450
f 425/425/425 426/426/426 452/452/452
f 425/425/425 452/452/452 451/451/451
f 426/426/426 427/427/427 453/453/453
f 426/426/426 453/453/453 452/452/452
f 427/427/427 428/428/428 454/454/454
f 427/427/427 454/454/454 453/453/453
f 428/428/428 429/429/429 455/455/455
f 428/428/428 455/455/455 454/454/454
f 429/429/429 430/430/430 456/456/456
f 429/429/429 456/456/456 455/455/455
f 430/430/430 431/431/431 457/457/457
f 430/430/430 457/457/457 456/456/456
f 431/431/431 432/432/432 458/458/458
f 431/431/431 458/458/458 457/457/457
f 432/432/432 433/433/433 459/459/459
f 432/432/432 459/459/459 458/458/458
f 433/433/433 434/434/434 460/460/460
f 433/433/433 460/460/460 459/459/459
f 434/434/434 435/435/435 461/461/461
f 434/434/434 461/461/461 460/460/460
f 435/435/435 436/436/436 462/462/462
f 435/435/435 462/462/462 461/461/461
f 436/436/436 437/437/437 463/463/463
f 436/436/436 463/463/463 462/462/462
f 437/437/437 438/438/438 464/464/464
f 437/437/437 464/464/464 463/463/463
f 438/438/438 439/439/439 465/465/465
f 438/438/438 465/465/465 464/464/464
f 439/439/439 440/440/440 466/466/466
f 439/439/439 466/466/466 465/465/465
f 440/440/440 441/441/441 467/467/467
f 440/440/440 467/467/467 466/466/466
f 441/441/441 442/442/442 468/468/468
f 441/441/441 468/468/468 467/467/467
f 442/442/442 417/417/417 443/443/443
f 442/442/442 443/443/443 468/468/468
f 469/469/469 2/2/2 1/1/1
f 469/469/469 3/3/3 2/2/2
f 469/469/469 4/4/4 3/3/3
f 469/469/469 5/5/5 4/4/4
f 469/469/469 6/6/6 5/5/5
f 469/469/469 7/7/7 6/6/6
f 469/469/469 8/8/8 7/7/7
f 469/469/469 9/9/9 8/8/8
f 469/469/469 10/10/10 9/9/9
f 469/469/469 11/11/11 10/10/10
f 469/469/469 12/12/12 11/11/11
f 469/469/469 13/13/13 12/12/12
f 469/469/469 14/14/14 13/13/13
f 469/469/469 15/15/15 14/14/14
f 469/469/469 16/16/16 15/15/15
f 469/469/469 17/17/17 16/16/16
f 469/469/469 18/18/18 17/17/17
f 469/469/469 19/19/19 18/18/18
f 469/469/469 20/20/20 19/19/19
f 469/469/469 21/21/21 20/20/20
f 469/469/469 22/22/22 21/21/21
f 469/469/469 23/23/23 22/22/22
f 469/469/469 24/24/24 23/23/23
f 469/469/469 25/25/25 24/24/24
f 469/469/469 26/26/26 25/25/25
f 469/469/469 1/1/1 26/26/26
f 470/470/470 443/443/443 444/444/444
f 470/470/470 444/444/444 445/445/445
f 470/470/470 445/445/445 446/446/446
f 470/470/470 446/446/446 447/447/447
f 470/470/470 447/447/447 448/448/448
f 470/470/470 448/448/448 449/449/449
f 470/470/470 449/449/449 450/450/450
f 470/470/470 450/450/450 451/451/451
f 470/470/470 451/451/451 452/452/452
f 470/470/470 452/452/452 453/453/453
f 470/470/470 453/453/453 454/454/454
f 470/470/470 454/454/454 455/455/455
f 470/470/470 455/455/455 456/456/456
f 470/470/470 456/456/456 457/457/457
f 470/470/470 457/457/457 458/458/458
f 470/470/470 458/458/458 459/459/459
f 470/470/470 459/459/459 460/460/460
f 470/470/470 460/460/460 461/461/461
f 470/470/470 461/461/461 462/462/462
f 470/470/470 462/462/462 463/463/463
f 470/470/470 463/463/463 464/464/464
f 470/470/470 464/464/464 465/465/465
f 470/470/470 465/465/465 466/466/466
f 470/470/470 466/466/466 467/467/467
f 470/470/470 467/467/467 468/468/468
f 470/470/470 468/468/468 443/443/443
