# procedural placeholder mesh: canopy_blob_2
v 0.08689 0.88874 0.00000
v 0.08405 0.88542 0.02072
v 0.07633 0.88165 0.04006
v 0.06425 0.87799 0.05692
v 0.04860 0.87511 0.07041
v 0.03029 0.87357 0.07986
v 0.01029 0.87355 0.08478
v -0.01031 0.87472 0.08490
v -0.03039 0.87644 0.08012
v -0.04876 0.87801 0.07065
v -0.06433 0.87901 0.05699
v -0.07613 0.87937 0.03995
v -0.08348 0.87937 0.02058
v -0.08598 0.87945 0.00000
v -0.08354 0.87998 -0.02059
v -0.07629 0.88119 -0.04004
v -0.06463 0.88310 -0.05725
v -0.04918 0.88557 -0.07126
v -0.03080 0.88831 -0.08121
v -0.01050 0.89095 -0.08647
v 0.01052 0.89309 -0.08668
v 0.03101 0.89446 -0.08177
v 0.04970 0.89490 -0.07201
v 0.06546 0.89448 -0.05799
v 0.07733 0.89328 -0.04059
v 0.08462 0.89137 -0.02086
v 0.27743 0.87131 0.00000
v 0.27144 0.87803 0.06690
v 0.24429 0.86651 0.12822
v 0.20046 0.84112 0.17759
v 0.14759 0.81597 0.21382
v 0.09094 0.80545 0.23979
v 0.03125 0.81434 0.25740
v -0.03203 0.83459 0.26380
v -0.09624 0.85239 0.25376
v -0.15530 0.85859 0.22498
v -0.20315 0.85241 0.17998
v -0.23639 0.83847 0.12407
v -0.25478 0.82412 0.06280
v -0.26010 0.81689 0.00000
v -0.25327 0.81924 -0.06242
v -0.23278 0.82566 -0.12217
v -0.19739 0.82824 -0.17487
v -0.14927 0.82525 -0.21625
v -0.09282 0.82213 -0.24476
v -0.03163 0.82414 -0.26049
v 0.03186 0.83023 -0.26242
v 0.09425 0.83473 -0.24851
v 0.15093 0.83447 -0.21866
v 0.19863 0.83345 -0.17597
v 0.23658 0.83914 -0.12417
v 0.26405 0.85413 -0.06508
v 0.50109 0.89411 0.00000
v 0.50602 0.92992 0.12472
v 0.45570 0.91830 0.23917
v 0.36408 0.86789 0.32254
v 0.25681 0.80665 0.37205
v 0.15231 0.76642 0.40162
v 0.05164 0.76439 0.42527
v -0.05269 0.78000 0.43396
v -0.15447 0.77727 0.40731
v -0.23885 0.75024 0.34604
v -0.30202 0.71997 0.26757
v -0.34485 0.69492 0.18099
v -0.36733 0.67504 0.09054
v -0.38079 0.67944 0.00000
v -0.39296 0.72215 -0.09686
v -0.38410 0.77401 -0.20159
v -0.32936 0.78514 -0.29179
v -0.23714 0.74487 -0.34356
v -0.13811 0.69494 -0.36416
v -0.04602 0.68125 -0.37902
v 0.04820 0.71347 -0.39694
v 0.15127 0.76115 -0.39886
v 0.25129 0.78933 -0.36406
v 0.33419 0.79665 -0.29607
v 0.40011 0.80628 -0.20999
v 0.45721 0.84023 -0.11269
v 0.71230 0.84256 0.00000
v 0.72334 0.88123 0.17829
v 0.66125 0.88337 0.34705
v 0.54430 0.86017 0.48221
v 0.38488 0.80144 0.55760
v 0.21943 0.73198 0.57860
v 0.07126 0.69935 0.58692
v -0.06972 0.68421 0.57421
v -0.19324 0.64460 0.50953
v -0.27907 0.58110 0.40430
v -0.34758 0.54928 0.30793
v -0.41622 0.55603 0.21845
v -0.45650 0.55615 0.11252
v -0.47528 0.56220 0.00000
v -0.49820 0.60694 -0.12279
v -0.50670 0.67691 -0.26594
v -0.44566 0.70427 -0.39482
v -0.31090 0.64738 -0.45041
v -0.17222 0.57449 -0.45411
v -0.05754 0.56466 -0.47388
v 0.06595 0.64715 -0.54311
v 0.22975 0.76639 -0.60580
v 0.40195 0.83697 -0.58232
v 0.53586 0.84682 -0.47473
v 0.61291 0.81878 -0.32168
v 0.66067 0.80489 -0.16284
v 0.89565 0.74011 0.00000
v 0.87261 0.74265 0.21508
v 0.80591 0.75210 0.42298
v 0.70506 0.77837 0.62463
v 0.50461 0.73402 0.73105
v 0.27629 0.64384 0.72852
v 0.08849 0.60662 0.72876
v -0.08469 0.58062 0.69752
v -0.23557 0.54894 0.62114
v -0.34260 0.49837 0.49635
v -0.44478 0.49102 0.39404
v -0.57506 0.53667 0.30182
v -0.63687 0.54202 0.15697
v -0.64606 0.53386 0.00000
v -0.61423 0.52275 -0.15139
v -0.57911 0.54044 -0.30394
v -0.53327 0.58872 -0.47244
v -0.39810 0.57910 -0.57675
v -0.23934 0.55774 -0.63110
v -0.07951 0.54505 -0.65479
v 0.08652 0.59310 -0.71252
v 0.29470 0.68673 -0.77705
v 0.51415 0.74791 -0.74488
v 0.69064 0.76244 -0.61185
v 0.78924 0.73654 -0.41422
v 0.84790 0.72161 -0.20899
v 1.10362 0.63771 0.00000
v 1.03206 0.61421 0.25438
v 0.96608 0.63045 0.50704
v 0.85528 0.66026 0.75772
v 0.61679 0.62740 0.89357
v 0.32605 0.53130 0.85972
v 0.10248 0.49129 0.84403
v -0.09285 0.44511 0.76469
v -0.26062 0.42469 0.68721
v -0.39539 0.40219 0.57283
v -0.53473 0.41280 0.47373
v -0.72853 0.47542 0.38236
v -0.77011 0.45831 0.18982
v -0.78313 0.45252 0.00000
v -0.75047 0.44663 -0.18497
v -0.66874 0.43641 -0.35098
v -0.61265 0.47295 -0.54276
v -0.48793 0.49632 -0.70688
v -0.33114 0.53960 -0.87315
v -0.10632 0.50969 -0.87563
v 0.10291 0.49336 -0.84758
v 0.31193 0.50829 -0.82249
v 0.52984 0.53895 -0.76760
v 0.73977 0.57109 -0.65538
v 0.91247 0.59546 -0.47890
v 1.06264 0.63241 -0.26192
v 1.15354 0.44355 0.00000
v 1.12650 0.44611 0.27766
v 1.09362 0.47490 0.57398
v 0.92430 0.47481 0.81886
v 0.68517 0.46377 0.99263
v 0.37080 0.40207 0.97772
v 0.11246 0.35875 0.92620
v -0.09840 0.31388 0.81037
v -0.29206 0.31669 0.77010
v -0.44925 0.30409 0.65086
v -0.55779 0.28654 0.49416
v -0.77775 0.33774 0.40820
v -0.84675 0.33533 0.20871
v -0.85168 0.32748 0.00000
v -0.83806 0.33189 -0.20656
v -0.75341 0.32717 -0.39542
v -0.65601 0.33699 -0.58117
v -0.50695 0.34314 -0.73445
v -0.34171 0.37053 -0.90102
v -0.11338 0.36166 -0.93373
v 0.12142 0.38734 -1.00002
v 0.35510 0.38504 -0.93632
v 0.57370 0.38832 -0.83115
v 0.78417 0.40283 -0.69471
v 0.98324 0.42697 -0.51604
v 1.15350 0.45680 -0.28431
v 1.14194 0.25219 0.00000
v 1.18982 0.27063 0.29326
v 1.09761 0.27376 0.57607
v 0.89821 0.26501 0.79574
v 0.70372 0.27358 1.01951
v 0.39970 0.24893 1.05393
v 0.12362 0.22650 1.01812
v -0.11770 0.21565 0.96935
v -0.35298 0.21983 0.93073
v -0.50402 0.19595 0.73020
v -0.57916 0.17088 0.51309
v -0.81970 0.20444 0.43021
v -0.98146 0.22324 0.24191
v -0.93532 0.20656 0.00000
v -0.85632 0.19477 -0.21106
v -0.78543 0.19590 -0.41222
v -0.71629 0.21134 -0.63458
v -0.54126 0.21043 -0.78416
v -0.31697 0.19741 -0.83577
v -0.11813 0.21644 -0.97290
v 0.13487 0.24711 -1.11076
v 0.37562 0.23394 -0.99043
v 0.60974 0.23705 -0.88336
v 0.83249 0.24562 -0.73752
v 1.01712 0.25369 -0.53383
v 1.11484 0.25358 -0.27478
v 1.18948 0.08575 0.00000
v 1.25417 0.09312 0.30912
v 1.09087 0.08882 0.57253
v 0.89112 0.08583 0.78946
v 0.74029 0.09395 1.07250
v 0.44930 0.09135 1.18471
v 0.14282 0.08542 1.17620
v -0.13178 0.07882 1.08534
v -0.34871 0.07090 0.91948
v -0.50967 0.06468 0.73838
v -0.65445 0.06303 0.57980
v -0.85284 0.06944 0.44761
v -0.97792 0.07261 0.24104
v -0.91432 0.06592 0.00000
v -0.85821 0.06372 -0.21153
v -0.81022 0.06597 -0.42524
v -0.72000 0.06935 -0.63787
v -0.55696 0.07068 -0.80689
v -0.34328 0.06979 -0.90515
v -0.13386 0.08006 -1.10242
v 0.13783 0.08243 -1.13510
v 0.34715 0.07058 -0.91537
v 0.57935 0.07353 -0.83933
v 0.88612 0.08535 -0.78504
v 1.12475 0.09158 -0.59032
v 1.10378 0.08196 -0.27206
v 1.08820 -0.07845 0.00000
v 1.10110 -0.08176 0.27140
v 1.09480 -0.08914 0.57460
v 0.88158 -0.08491 0.78101
v 0.73176 -0.09287 1.06014
v 0.49494 -0.10062 1.30504
v 0.15352 -0.09182 1.26437
v -0.12800 -0.07656 1.05414
v -0.33657 -0.06843 0.88747
v -0.56952 -0.07228 0.82509
v -0.70199 -0.06761 0.62191
v -0.76865 -0.06258 0.40342
v -0.84550 -0.06278 0.20840
v -0.83297 -0.06005 0.00000
v -0.86913 -0.06453 -0.21422
v -0.81525 -0.06638 -0.42788
v -0.66013 -0.06358 -0.58482
v -0.52057 -0.06607 -0.75417
v -0.36023 -0.07324 -0.94985
v -0.13108 -0.07840 -1.07955
v 0.13487 -0.08067 -1.11077
v 0.34830 -0.07081 -0.91840
v 0.55770 -0.07078 -0.80797
v 0.84544 -0.08143 -0.74900
v 1.08966 -0.08872 -0.57190
v 1.03946 -0.07718 -0.25620
v 0.93126 -0.20567 0.00000
v 0.89055 -0.20256 0.21950
v 1.03293 -0.25763 0.54212
v 0.82750 -0.24415 0.73310
v 0.64109 -0.24923 0.92878
v 0.43712 -0.27224 1.15259
v 0.13833 -0.25345 1.13927
v -0.12920 -0.23671 1.06404
v -0.39458 -0.24574 1.04041
v -0.63092 -0.24528 0.91405
v -0.66346 -0.19575 0.58777
v -0.72862 -0.18173 0.38241
v -0.85778 -0.19511 0.21142
v -0.84286 -0.18614 0.00000
v -0.88641 -0.20162 -0.21848
v -0.76489 -0.19077 -0.40144
v -0.65482 -0.19320 -0.58012
v -0.51576 -0.20051 -0.74721
v -0.32933 -0.20510 -0.86837
v -0.11494 -0.21060 -0.94664
v 0.12152 -0.22265 -1.00083
v 0.33976 -0.21160 -0.89586
v 0.54159 -0.21055 -0.78462
v 0.73090 -0.21565 -0.64752
v 0.86907 -0.21676 -0.45612
v 0.91356 -0.20779 -0.22517
v 0.86649 -0.33317 0.00000
v 0.81404 -0.32237 0.20064
v 0.91638 -0.39794 0.48095
v 0.80828 -0.41521 0.71607
v 0.60838 -0.41180 0.88139
v 0.36933 -0.40047 0.97384
v 0.12411 -0.39590 1.02212
v -0.12730 -0.40609 1.04843
v -0.38491 -0.41736 1.01491
v -0.56340 -0.38135 0.81623
v -0.63789 -0.32768 0.56512
v -0.81473 -0.35380 0.42760
v -0.94341 -0.37361 0.23253
v -0.83890 -0.32256 0.00000
v -0.79337 -0.31419 -0.19555
v -0.64136 -0.27851 -0.33661
v -0.60180 -0.30914 -0.53315
v -0.49222 -0.33317 -0.71310
v -0.29382 -0.31859 -0.77473
v -0.09796 -0.31248 -0.80676
v 0.10511 -0.33531 -0.86570
v 0.32564 -0.35310 -0.85864
v 0.49938 -0.33802 -0.72348
v 0.64649 -0.33210 -0.57274
v 0.77166 -0.33509 -0.40500
v 0.86948 -0.34433 -0.21431
v 0.79447 -0.45907 0.00000
v 0.74854 -0.44548 0.18450
v 0.76739 -0.50079 0.40276
v 0.74807 -0.57750 0.66273
v 0.58696 -0.59706 0.85036
v 0.33414 -0.54449 0.88106
v 0.11049 -0.52968 0.90998
v -0.11101 -0.53215 0.91422
v -0.31756 -0.51748 0.83735
v -0.46605 -0.47407 0.67519
v -0.60510 -0.46713 0.53607
v -0.77217 -0.50390 0.40527
v -0.79307 -0.47198 0.19547
v -0.64511 -0.37277 0.00000
v -0.58817 -0.35003 -0.14497
v -0.52933 -0.34543 -0.27781
v -0.49690 -0.38360 -0.44022
v -0.43158 -0.43900 -0.62524
v -0.28416 -0.46305 -0.74927
v -0.08836 -0.42357 -0.72769
v 0.09224 -0.44220 -0.75969
v 0.30306 -0.49384 -0.79910
v 0.44185 -0.44945 -0.64013
v 0.57365 -0.44284 -0.50821
v 0.73672 -0.48077 -0.38666
v 0.81783 -0.48671 -0.20158
v 0.70873 -0.58565 0.00000
v 0.67052 -0.57065 0.16527
v 0.60813 -0.56753 0.31917
v 0.56976 -0.62899 0.50476
v 0.46776 -0.68043 0.67767
v 0.28110 -0.65504 0.74119
v 0.09352 -0.64110 0.77019
v -0.09565 -0.65575 0.78778
v -0.27910 -0.65039 0.73593
v -0.41758 -0.60743 0.60497
v -0.53709 -0.59294 0.47582
v -0.63720 -0.59466 0.33443
v -0.63683 -0.54198 0.15696
v -0.57956 -0.47891 0.00000
v -0.57090 -0.48587 -0.14071
v -0.53071 -0.49528 -0.27854
v -0.42706 -0.47146 -0.37834
v -0.33992 -0.49446 -0.49245
v -0.23972 -0.55861 -0.63208
v -0.08050 -0.55183 -0.66294
v 0.08275 -0.56730 -0.68152
v 0.25876 -0.60299 -0.68230
v 0.38399 -0.55858 -0.55631
v 0.49049 -0.54148 -0.43453
v 0.61026 -0.56952 -0.32029
v 0.68622 -0.58402 -0.16914
v 0.61899 -0.73219 0.00000
v 0.57831 -0.70454 0.14254
v 0.49754 -0.66466 0.26113
v 0.43784 -0.69192 0.38789
v 0.36345 -0.75681 0.52655
v 0.23548 -0.78552 0.62092
v 0.08074 -0.79230 0.66492
v -0.08171 -0.80187 0.67295
v -0.23646 -0.78878 0.62349
v -0.35379 -0.73671 0.51256
v -0.43789 -0.69201 0.38794
v -0.51132 -0.68307 0.26836
v -0.56423 -0.68739 0.13907
v -0.58655 -0.69382 0.00000
v -0.56983 -0.69422 -0.14045
v -0.48767 -0.65148 -0.25595
v -0.35996 -0.56884 -0.31889
v -0.25757 -0.53634 -0.37316
v -0.17628 -0.58803 -0.46481
v -0.06618 -0.64948 -0.54506
v 0.07056 -0.69247 -0.58114
v 0.20915 -0.69766 -0.55147
v 0.31504 -0.65601 -0.45642
v 0.39886 -0.63032 -0.35336
v 0.48880 -0.65298 -0.25654
v 0.57667 -0.70254 -0.14214
v 0.42805 -0.76378 0.00000
v 0.41152 -0.75626 0.10143
v 0.37451 -0.75470 0.19656
v 0.33100 -0.78904 0.29324
v 0.26752 -0.84029 0.38757
v 0.17334 -0.87222 0.45706
v 0.05951 -0.88089 0.49008
v -0.05932 -0.87806 0.48851
v -0.17053 -0.85810 0.44966
v -0.25873 -0.81267 0.37483
v -0.31925 -0.76103 0.28283
v -0.36408 -0.73367 0.19108
v -0.39974 -0.73461 0.09853
v -0.41500 -0.74049 0.00000
v -0.39583 -0.72742 -0.09756
v -0.34298 -0.69116 -0.18001
v -0.27489 -0.65529 -0.24353
v -0.20994 -0.65944 -0.30415
v -0.14185 -0.71378 -0.37404
v -0.05256 -0.77801 -0.43285
v 0.05428 -0.80356 -0.44706
v 0.15414 -0.77562 -0.40644
v 0.23020 -0.72306 -0.33350
v 0.29083 -0.69328 -0.25765
v 0.35104 -0.70740 -0.18424
v 0.40482 -0.74394 -0.09978
v 0.22915 -0.71970 0.00000
v 0.22470 -0.72684 0.05538
v 0.20904 -0.74148 0.10972
v 0.18185 -0.76302 0.16110
v 0.14200 -0.78508 0.20572
v 0.09044 -0.80102 0.23847
v 0.03106 -0.80940 0.25583
v -0.03114 -0.81145 0.25648
v -0.09103 -0.80624 0.24003
v -0.14326 -0.79207 0.20755
v -0.18386 -0.77147 0.16289
v -0.21171 -0.75093 0.11111
v -0.22730 -0.73526 0.05603
v -0.23084 -0.72500 0.00000
v -0.22264 -0.72019 -0.05488
v -0.20425 -0.72447 -0.10720
v -0.17723 -0.74363 -0.15701
v -0.14085 -0.77874 -0.20406
v -0.09258 -0.81994 -0.24411
v -0.03257 -0.84860 -0.26823
v 0.03259 -0.84927 -0.26844
v 0.09275 -0.82146 -0.24456
v 0.14110 -0.78011 -0.20442
v 0.17737 -0.74422 -0.15713
v 0.20414 -0.72409 -0.10714
v 0.22198 -0.71802 -0.05471
v 0.07203 -0.73674 0.00000
v 0.06960 -0.73314 0.01715
v 0.06334 -0.73165 0.03324
v 0.05356 -0.73188 0.04745
v 0.04073 -0.73332 0.05900
v 0.02550 -0.73541 0.06723
v 0.00869 -0.73772 0.07160
v -0.00872 -0.73990 0.07181
v -0.02572 -0.74173 0.06781
v -0.04128 -0.74318 0.05980
v -0.05448 -0.74441 0.04826
v -0.06456 -0.74580 0.03389
v -0.07099 -0.74786 0.01750
v -0.07343 -0.75108 0.00000
v -0.07175 -0.75580 -0.01768
v -0.06596 -0.76196 -0.03462
v -0.05628 -0.76900 -0.04986
v -0.04309 -0.77583 -0.06243
v -0.02708 -0.78105 -0.07140
v -0.00923 -0.78332 -0.07603
v 0.00921 -0.78185 -0.07588
v 0.02693 -0.77672 -0.07100
v 0.04270 -0.76882 -0.06186
v 0.05559 -0.75957 -0.04925
v 0.06497 -0.75043 -0.03410
v 0.07049 -0.74259 -0.01737
v 0.00000 0.83507 0.00000
v 0.00000 -0.82000 0.00000
vn -0.0288 0.9994 0.0172
vn -0.0925 0.9836 0.1546
vn -0.1363 0.9569 0.2563
vn -0.1204 0.9496 0.2895
vn -0.0190 0.9647 0.2628
vn 0.1205 0.9698 0.2119
vn 0.1900 0.9673 0.1681
vn 0.1558 0.9802 0.1222
vn 0.0632 0.9961 0.0623
vn -0.0357 0.9994 0.0007
vn -0.1161 0.9921 -0.0465
vn -0.1689 0.9836 -0.0628
vn -0.1966 0.9798 -0.0360
vn -0.2101 0.9777 0.0064
vn -0.2062 0.9785 0.0070
vn -0.1753 0.9834 -0.0469
vn -0.1360 0.9843 -0.1127
vn -0.1225 0.9801 -0.1560
vn -0.1299 0.9750 -0.1805
vn -0.1104 0.9745 -0.1954
vn -0.0359 0.9811 -0.1900
vn 0.0613 0.9856 -0.1573
vn 0.1201 0.9851 -0.1229
vn 0.1168 0.9862 -0.1174
vn 0.0763 0.9892 -0.1249
vn 0.0275 0.9956 -0.0892
vn -0.0472 0.9792 -0.1972
vn -0.1417 0.9898 0.0118
vn -0.2297 0.9532 0.1967
vn -0.2592 0.9206 0.2919
vn -0.1605 0.9379 0.3076
vn 0.0799 0.9553 0.2845
vn 0.2328 0.9298 0.2851
vn 0.1533 0.9350 0.3198
vn -0.0847 0.9383 0.3352
vn -0.3322 0.8975 0.2902
vn -0.5085 0.8426 0.1775
vn -0.5993 0.7989 0.0508
vn -0.6140 0.7890 0.0214
vn -0.5662 0.8199 0.0849
vn -0.4545 0.8867 0.0847
vn -0.2903 0.9549 -0.0633
vn -0.1364 0.9478 -0.2881
vn -0.0890 0.8771 -0.4720
vn -0.1492 0.8095 -0.5679
vn -0.1983 0.7932 -0.5757
vn -0.1287 0.8533 -0.5052
vn 0.0292 0.9323 -0.3605
vn 0.1440 0.9634 -0.2260
vn 0.1544 0.9677 -0.1996
vn 0.0942 0.9584 -0.2696
vn 0.0248 0.9523 -0.3041
vn 0.1075 0.9408 -0.3216
vn 0.0384 0.9972 -0.0646
vn -0.1326 0.9767 0.1690
vn -0.2990 0.9174 0.2627
vn -0.3323 0.9044 0.2677
vn -0.1403 0.9512 0.2750
vn 0.0653 0.9321 0.3563
vn -0.0737 0.8768 0.4753
vn -0.4374 0.7454 0.5030
vn -0.6538 0.5928 0.4702
vn -0.7401 0.5524 0.3836
vn -0.7847 0.5904 0.1891
vn -0.7814 0.6139 0.1124
vn -0.7476 0.6165 0.2471
vn -0.6836 0.6675 0.2953
vn -0.5246 0.8501 0.0453
vn -0.1254 0.9025 -0.4121
vn 0.1204 0.7466 -0.6543
vn 0.0134 0.6690 -0.7431
vn -0.3214 0.6708 -0.6684
vn -0.4323 0.7673 -0.4737
vn -0.2940 0.9233 -0.2472
vn -0.1210 0.9913 -0.0527
vn -0.0257 0.9996 0.0077
vn 0.0189 0.9898 -0.1413
vn 0.0720 0.9307 -0.3586
vn 0.3879 0.8927 -0.2292
vn 0.4705 0.8820 -0.0266
vn 0.3121 0.9286 0.2005
vn -0.0365 0.9372 0.3469
vn -0.2708 0.8742 0.4029
vn -0.2377 0.8757 0.4202
vn -0.1436 0.8737 0.4648
vn -0.2778 0.8071 0.5210
vn -0.5954 0.6884 0.4142
vn -0.6920 0.6188 0.3717
vn -0.5483 0.7116 0.4394
vn -0.4431 0.8611 0.2492
vn -0.4300 0.8980 0.0935
vn -0.5333 0.8300 0.1633
vn -0.7328 0.6257 0.2672
vn -0.7792 0.6227 0.0713
vn -0.3403 0.8362 -0.4301
vn 0.1573 0.8152 -0.5574
vn 0.1864 0.8656 -0.4647
vn -0.3534 0.8388 -0.4141
vn -0.5841 0.6964 -0.4171
vn -0.4133 0.8173 -0.4014
vn -0.0970 0.9678 -0.2324
vn 0.1219 0.9925 -0.0061
vn 0.1901 0.9813 0.0311
vn 0.2484 0.9535 -0.1705
vn 0.4738 0.8796 -0.0425
vn 0.6038 0.7946 0.0642
vn 0.5753 0.8007 0.1673
vn 0.2757 0.8814 0.3835
vn -0.1551 0.8122 0.5624
vn -0.2308 0.7510 0.6186
vn -0.2274 0.7165 0.6595
vn -0.3288 0.6253 0.7078
vn -0.5737 0.6341 0.5184
vn -0.5707 0.7338 0.3685
vn -0.2309 0.8536 0.4670
vn -0.2067 0.9485 0.2402
vn -0.3068 0.9507 0.0463
vn -0.3248 0.9433 -0.0686
vn -0.4977 0.8643 -0.0731
vn -0.7897 0.6131 -0.0230
vn -0.6388 0.7056 -0.3068
vn -0.1676 0.9144 -0.3685
vn 0.1233 0.9745 -0.1876
vn -0.0646 0.9761 -0.2075
vn -0.3910 0.7523 -0.5303
vn -0.2435 0.5442 -0.8029
vn 0.1889 0.5875 -0.7869
vn 0.4989 0.7367 -0.4564
vn 0.4797 0.8607 -0.1704
vn 0.3897 0.9163 -0.0922
vn 0.7233 0.6897 0.0327
vn 0.6962 0.7030 0.1453
vn 0.6649 0.7122 0.2254
vn 0.5259 0.7048 0.4761
vn -0.0259 0.7008 0.7129
vn -0.2511 0.6383 0.7276
vn -0.3071 0.5651 0.7657
vn -0.3536 0.4708 0.8083
vn -0.4950 0.5551 0.6684
vn -0.5919 0.5836 0.5560
vn -0.3470 0.5153 0.7837
vn -0.4907 0.7248 0.4837
vn -0.6760 0.7339 0.0658
vn -0.6998 0.7127 -0.0486
vn -0.6012 0.7627 -0.2384
vn -0.7114 0.6636 -0.2312
vn -0.7937 0.4984 -0.3488
vn -0.6593 0.5350 -0.5284
vn -0.2031 0.7845 -0.5859
vn 0.0413 0.8698 -0.4917
vn 0.0303 0.8461 -0.5322
vn 0.0605 0.5341 -0.8433
vn 0.3109 0.2787 -0.9087
vn 0.5586 0.3042 -0.7716
vn 0.6632 0.5049 -0.5525
vn 0.6958 0.6801 -0.2310
vn 0.9796 0.1997 -0.0200
vn 0.9328 0.3273 0.1507
vn 0.8766 0.3091 0.3687
vn 0.7379 0.2440 0.6292
vn 0.2217 0.3963 0.8909
vn -0.1965 0.5082 0.8385
vn -0.3020 0.5927 0.7466
vn -0.2949 0.6778 0.6735
vn -0.3798 0.7146 0.5875
vn -0.6511 0.5944 0.4719
vn -0.4864 0.3092 0.8172
vn -0.5754 0.4170 0.7036
vn -0.7822 0.6194 0.0672
vn -0.8805 0.4685 -0.0715
vn -0.8926 0.3874 -0.2307
vn -0.7891 0.5047 -0.3501
vn -0.7223 0.4923 -0.4857
vn -0.6530 0.1920 -0.7326
vn -0.5234 -0.0073 -0.8521
vn -0.2301 0.3416 -0.9112
vn 0.0723 0.6333 -0.7705
vn 0.2660 0.5744 -0.7741
vn 0.3951 0.4605 -0.7949
vn 0.5586 0.3414 -0.7559
vn 0.7484 0.2290 -0.6225
vn 0.9331 0.1545 -0.3247
vn 0.9882 0.0885 -0.1249
vn 0.9639 0.2186 0.1521
vn 0.8813 0.0453 0.4704
vn 0.7868 -0.0191 0.6169
vn 0.4497 0.2657 0.8527
vn -0.0497 0.5214 0.8519
vn -0.1931 0.6162 0.7636
vn -0.2798 0.6273 0.7268
vn -0.4633 0.5471 0.6972
vn -0.7255 0.5326 0.4359
vn -0.6016 0.4762 0.6413
vn -0.5631 0.2103 0.7992
vn -0.9237 0.3460 0.1647
vn -0.9225 0.3100 -0.2301
vn -0.9428 0.1862 -0.2764
vn -0.9250 0.1834 -0.3327
vn -0.7980 0.2771 -0.5352
vn -0.4473 0.3833 -0.8081
vn -0.5108 0.2175 -0.8317
vn -0.4014 0.2991 -0.8657
vn 0.0736 0.2382 -0.9684
vn 0.3895 0.0102 -0.9210
vn 0.4104 0.1454 -0.9003
vn 0.5608 0.4288 -0.7082
vn 0.8280 0.3510 -0.4373
vn 0.9517 -0.0142 -0.3066
vn 0.9501 -0.2497 -0.1873
vn 0.9885 -0.1227 0.0887
vn 0.8147 0.0439 0.5781
vn 0.8176 -0.0608 0.5725
vn 0.6771 0.1930 0.7101
vn 0.0841 0.5345 0.8410
vn -0.2327 0.5019 0.8330
vn -0.4431 0.2979 0.8455
vn -0.5414 0.1423 0.8287
vn -0.7324 0.3169 0.6026
vn -0.7434 0.3145 0.5903
vn -0.6929 -0.1791 0.6984
vn -0.9118 -0.3602 0.1970
vn -0.9571 -0.2328 -0.1727
vn -0.9659 0.0147 -0.2584
vn -0.9232 -0.0136 -0.3842
vn -0.8294 -0.2173 -0.5147
vn -0.6280 -0.0267 -0.7778
vn -0.4924 0.2781 -0.8247
vn -0.3900 0.2736 -0.8793
vn 0.2806 0.1529 -0.9476
vn 0.5150 -0.1748 -0.8392
vn 0.2505 -0.2959 -0.9218
vn 0.4675 -0.0527 -0.8824
vn 0.9253 0.1635 -0.3422
vn 0.9779 -0.1340 -0.1604
vn 0.7366 -0.6705 -0.0889
vn 0.7319 -0.6719 -0.1136
vn 0.8274 -0.3368 0.4494
vn 0.7458 -0.2990 0.5953
vn 0.7419 -0.4239 0.5195
vn 0.2732 -0.1891 0.9432
vn -0.3041 0.0527 0.9512
vn -0.4848 0.1841 0.8550
vn -0.4591 0.3280 0.8256
vn -0.6917 0.3459 0.6340
vn -0.8881 0.1018 0.4482
vn -0.8481 -0.2570 0.4634
vn -0.9016 -0.3959 0.1744
vn -0.9481 -0.3170 0.0228
vn -0.9806 -0.1052 -0.1654
vn -0.8843 -0.1261 -0.4496
vn -0.7651 -0.2175 -0.6060
vn -0.6892 -0.3520 -0.6334
vn -0.5448 -0.3021 -0.7822
vn -0.3528 -0.3821 -0.8541
vn 0.2491 -0.3279 -0.9113
vn 0.5986 -0.0995 -0.7949
vn 0.3387 -0.3011 -0.8914
vn 0.3322 -0.5871 -0.7382
vn 0.6934 -0.6399 -0.3311
vn 0.8520 -0.5234 0.0132
vn 0.7533 -0.6569 0.0336
vn 0.6838 -0.6994 -0.2081
vn 0.8150 -0.5707 0.0999
vn 0.6548 -0.3069 0.6906
vn 0.5955 -0.5935 0.5414
vn 0.2974 -0.7442 0.5981
vn -0.1170 -0.5609 0.8196
vn -0.2652 -0.1507 0.9524
vn -0.4276 0.1646 0.8889
vn -0.8101 0.1130 0.5753
vn -0.9404 0.0208 0.3395
vn -0.8838 0.1572 0.4406
vn -0.9718 0.1668 0.1664
vn -0.9962 -0.0870 -0.0003
vn -0.9025 -0.3747 -0.2125
vn -0.7600 -0.5424 -0.3580
vn -0.7683 -0.3144 -0.5576
vn -0.6141 -0.2563 -0.7464
vn -0.4046 -0.5776 -0.7090
vn -0.2570 -0.7196 -0.6451
vn 0.0357 -0.6522 -0.7572
vn 0.5057 -0.3379 -0.7938
vn 0.5068 -0.3915 -0.7680
vn 0.4658 -0.6563 -0.5936
vn 0.5457 -0.7754 -0.3178
vn 0.7713 -0.6361 -0.0188
vn 0.8869 -0.4463 0.1191
vn 0.8344 -0.5367 -0.1253
vn 0.7760 -0.6103 -0.1592
vn 0.7205 -0.3581 0.5939
vn 0.4560 -0.2994 0.8381
vn 0.2615 -0.6689 0.6958
vn 0.0620 -0.6943 0.7170
vn -0.0851 -0.5775 0.8119
vn -0.3813 -0.6032 0.7005
vn -0.6726 -0.6109 0.4175
vn -0.8300 -0.3330 0.4475
vn -0.8358 -0.0933 0.5411
vn -0.9615 -0.2748 -0.0055
vn -0.7394 -0.6055 -0.2943
vn -0.5190 -0.8176 -0.2494
vn -0.5051 -0.8251 -0.2533
vn -0.6753 -0.7141 -0.1845
vn -0.5849 -0.4717 -0.6599
vn -0.1900 -0.4437 -0.8758
vn -0.2018 -0.7009 -0.6841
vn -0.1746 -0.6900 -0.7024
vn 0.3892 -0.4970 -0.7756
vn 0.5492 -0.5488 -0.6302
vn 0.5605 -0.5902 -0.5809
vn 0.7291 -0.5125 -0.4537
vn 0.8918 -0.4309 -0.1380
vn 0.8527 -0.4912 0.1777
vn 0.7967 -0.5998 0.0744
vn 0.5924 -0.7650 -0.2526
vn 0.5857 -0.8050 0.0942
vn 0.3267 -0.6576 0.6789
vn 0.0713 -0.6179 0.7830
vn 0.0666 -0.6896 0.7211
vn -0.1035 -0.7009 0.7057
vn -0.4032 -0.7442 0.5326
vn -0.5464 -0.7413 0.3898
vn -0.6005 -0.6174 0.5082
vn -0.6562 -0.6613 0.3635
vn -0.6473 -0.7126 -0.2704
vn -0.5507 -0.6907 -0.4687
vn -0.5657 -0.7809 -0.2649
vn -0.6212 -0.7145 -0.3217
vn -0.6145 -0.7888 -0.0094
vn -0.5818 -0.7899 -0.1937
vn -0.2004 -0.5546 -0.8076
vn -0.0477 -0.4594 -0.8869
vn -0.2365 -0.6044 -0.7608
vn 0.2621 -0.6470 -0.7160
vn 0.6022 -0.6266 -0.4948
vn 0.4277 -0.7115 -0.5575
vn 0.5763 -0.6452 -0.5015
vn 0.8182 -0.5530 -0.1573
vn 0.7914 -0.5984 0.1248
vn 0.7398 -0.5957 0.3127
vn 0.5772 -0.8160 -0.0321
vn 0.4659 -0.8761 -0.1242
vn 0.3055 -0.9195 0.2473
vn 0.0576 -0.7614 0.6458
vn 0.0760 -0.6973 0.7128
vn -0.0711 -0.6934 0.7170
vn -0.4560 -0.6499 0.6080
vn -0.6512 -0.6094 0.4523
vn -0.5688 -0.6989 0.4335
vn -0.5948 -0.7728 0.2212
vn -0.7673 -0.6038 -0.2162
vn -0.9010 -0.2686 -0.3405
vn -0.9452 -0.1594 -0.2850
vn -0.7706 -0.2304 -0.5942
vn -0.5972 -0.6610 -0.4543
vn -0.5194 -0.8541 -0.0271
vn -0.4007 -0.8760 -0.2685
vn -0.1015 -0.6487 -0.7543
vn -0.1115 -0.5958 -0.7953
vn 0.2060 -0.7666 -0.6082
vn 0.6022 -0.7100 -0.3650
vn 0.4378 -0.7676 -0.4681
vn 0.3780 -0.7874 -0.4869
vn 0.6240 -0.7406 -0.2493
vn 0.5441 -0.8389 -0.0114
vn 0.5526 -0.7502 0.3632
vn 0.5712 -0.7704 0.2831
vn 0.5971 -0.8019 -0.0195
vn 0.4983 -0.8607 0.1046
vn 0.2552 -0.8436 0.4724
vn 0.1053 -0.7753 0.6228
vn -0.0701 -0.7943 0.6035
vn -0.4166 -0.7877 0.4538
vn -0.6325 -0.7337 0.2483
vn -0.5267 -0.8285 0.1905
vn -0.3835 -0.9011 0.2026
vn -0.5698 -0.8166 0.0921
vn -0.7980 -0.5933 -0.1058
vn -0.7675 -0.5416 -0.3429
vn -0.4597 -0.5512 -0.6963
vn -0.2634 -0.5743 -0.7751
vn -0.5324 -0.7408 -0.4095
vn -0.6277 -0.7496 -0.2100
vn -0.4049 -0.7546 -0.5164
vn -0.0687 -0.7494 -0.6585
vn 0.2906 -0.8416 -0.4552
vn 0.5400 -0.8096 -0.2302
vn 0.3910 -0.8587 -0.3314
vn 0.2141 -0.8522 -0.4775
vn 0.3485 -0.8543 -0.3856
vn 0.0070 -0.9936 -0.1124
vn 0.0770 -0.9943 0.0742
vn 0.2444 -0.9690 0.0346
vn 0.4077 -0.9011 -0.1474
vn 0.3869 -0.9116 -0.1387
vn 0.2139 -0.9768 0.0056
vn 0.0592 -0.9942 0.0899
vn -0.0548 -0.9950 0.0831
vn -0.2503 -0.9680 0.0198
vn -0.4398 -0.8950 -0.0741
vn -0.4349 -0.8943 -0.1051
vn -0.2568 -0.9664 -0.0110
vn -0.1349 -0.9891 0.0592
vn -0.1136 -0.9934 -0.0129
vn -0.0874 -0.9778 -0.1903
vn -0.0807 -0.9113 -0.4037
vn -0.2502 -0.7983 -0.5479
vn -0.6021 -0.6577 -0.4527
vn -0.7134 -0.6078 -0.3488
vn -0.4996 -0.7344 -0.4594
vn 0.0097 -0.8786 -0.4774
vn 0.4407 -0.8643 -0.2425
vn 0.5455 -0.8360 -0.0593
vn 0.3539 -0.9273 -0.1221
vn 0.0676 -0.9508 -0.3023
vn -0.0168 -0.9544 -0.2981
vn -0.1049 -0.9905 -0.0892
vn -0.0866 -0.9900 -0.1112
vn 0.0029 -0.9777 -0.2099
vn 0.0933 -0.9401 -0.3278
vn 0.1055 -0.9252 -0.3645
vn 0.0554 -0.9374 -0.3439
vn 0.0197 -0.9471 -0.3204
vn 0.0103 -0.9525 -0.3045
vn -0.0376 -0.9556 -0.2922
vn -0.1390 -0.9472 -0.2888
vn -0.2102 -0.9383 -0.2746
vn -0.1834 -0.9598 -0.2124
vn -0.0950 -0.9884 -0.1187
vn -0.0307 -0.9977 -0.0603
vn -0.0445 -0.9981 -0.0416
vn -0.1746 -0.9840 -0.0365
vn -0.3998 -0.9160 -0.0342
vn -0.5725 -0.8195 -0.0244
vn -0.5795 -0.8142 -0.0356
vn -0.3631 -0.9295 -0.0646
vn 0.0727 -0.9969 -0.0283
vn 0.4233 -0.9027 0.0771
vn 0.5343 -0.8303 0.1585
vn 0.4508 -0.8796 0.1519
vn 0.2091 -0.9772 0.0360
vn -0.0156 -0.9976 -0.0676
vn 0.2753 -0.9555 0.1059
vn 0.2199 -0.9741 0.0531
vn 0.1805 -0.9829 -0.0373
vn 0.1574 -0.9786 -0.1324
vn 0.1311 -0.9738 -0.1857
vn 0.0959 -0.9747 -0.2020
vn 0.0721 -0.9763 -0.2039
vn 0.0636 -0.9786 -0.1958
vn 0.0405 -0.9834 -0.1768
vn -0.0166 -0.9879 -0.1544
vn -0.0874 -0.9879 -0.1278
vn -0.1457 -0.9858 -0.0833
vn -0.1962 -0.9803 -0.0243
vn -0.2526 -0.9674 0.0196
vn -0.3108 -0.9496 0.0399
vn -0.3604 -0.9304 0.0670
vn -0.3961 -0.9099 0.1231
vn -0.4010 -0.8973 0.1843
vn -0.3403 -0.9144 0.2191
vn -0.1795 -0.9562 0.2311
vn 0.0653 -0.9686 0.2397
vn 0.2943 -0.9213 0.2540
vn 0.4230 -0.8658 0.2672
vn 0.4489 -0.8554 0.2585
vn 0.4066 -0.8886 0.2122
vn 0.3393 -0.9285 0.1510
vn -0.0459 0.9942 0.0975
vn 0.0938 -0.9569 0.2750
vt 0.6738 2.2775
vt 0.6681 2.2708
vt 0.6527 2.2633
vt 0.6285 2.2560
vt 0.5972 2.2502
vt 0.5606 2.2471
vt 0.5206 2.2471
vt 0.4794 2.2494
vt 0.4392 2.2529
vt 0.4025 2.2560
vt 0.3713 2.2580
vt 0.3477 2.2587
vt 0.3330 2.2587
vt 0.3280 2.2589
vt 0.3329 2.2600
vt 0.3474 2.2624
vt 0.3707 2.2662
vt 0.4016 2.2711
vt 0.4384 2.2766
vt 0.4790 2.2819
vt 0.5210 2.2862
vt 0.5620 2.2889
vt 0.5994 2.2898
vt 0.6309 2.2890
vt 0.6547 2.2866
vt 0.6692 2.2827
vt 1.0549 2.2426
vt 1.0429 2.2561
vt 0.9886 2.2330
vt 0.9009 2.1822
vt 0.7952 2.1319
vt 0.6819 2.1109
vt 0.5625 2.1287
vt 0.4359 2.1692
vt 0.3075 2.2048
vt 0.1894 2.2172
vt 0.0937 2.2048
vt 0.0272 2.1769
vt -0.0096 2.1482
vt -0.0202 2.1338
vt -0.0065 2.1385
vt 0.0344 2.1513
vt 0.1052 2.1565
vt 0.2015 2.1505
vt 0.3144 2.1443
vt 0.4367 2.1483
vt 0.5637 2.1605
vt 0.6885 2.1695
vt 0.8019 2.1689
vt 0.8973 2.1669
vt 0.9732 2.1783
vt 1.0281 2.2083
vt 1.5022 2.2882
vt 1.5120 2.3598
vt 1.4114 2.3366
vt 1.2282 2.2358
vt 1.0136 2.1133
vt 0.8046 2.0328
vt 0.6033 2.0288
vt 0.3946 2.0600
vt 0.1911 2.0545
vt 0.0223 2.0005
vt -0.1040 1.9399
vt -0.1897 1.8898
vt -0.2347 1.8501
vt -0.2616 1.8589
vt -0.2859 1.9443
vt -0.2682 2.0480
vt -0.1587 2.0703
vt 0.0257 1.9897
vt 0.2238 1.8899
vt 0.4080 1.8625
vt 0.5964 1.9269
vt 0.8025 2.0223
vt 1.0026 2.0787
vt 1.1684 2.0933
vt 1.3002 2.1126
vt 1.4144 2.1805
vt 1.9246 2.1851
vt 1.9467 2.2625
vt 1.8225 2.2667
vt 1.5886 2.2203
vt 1.2698 2.1029
vt 0.9389 1.9640
vt 0.6425 1.8987
vt 0.3606 1.8684
vt 0.1135 1.7892
vt -0.0581 1.6622
vt -0.1952 1.5986
vt -0.3324 1.6121
vt -0.4130 1.6123
vt -0.4506 1.6244
vt -0.4964 1.7139
vt -0.5134 1.8538
vt -0.3913 1.9085
vt -0.1218 1.7948
vt 0.1556 1.6490
vt 0.3849 1.6293
vt 0.6319 1.7943
vt 0.9595 2.0328
vt 1.3039 2.1739
vt 1.5717 2.1936
vt 1.7258 2.1376
vt 1.8213 2.1098
vt 2.2913 1.9802
vt 2.2452 1.9853
vt 2.1118 2.0042
vt 1.9101 2.0567
vt 1.5092 1.9680
vt 1.0526 1.7877
vt 0.6770 1.7132
vt 0.3306 1.6612
vt 0.0289 1.5979
vt -0.1852 1.4967
vt -0.3896 1.4820
vt -0.6501 1.5733
vt -0.7737 1.5840
vt -0.7921 1.5677
vt -0.7285 1.5455
vt -0.6582 1.5809
vt -0.5665 1.6774
vt -0.2962 1.6582
vt 0.0213 1.6155
vt 0.3410 1.5901
vt 0.6730 1.6862
vt 1.0894 1.8735
vt 1.5283 1.9958
vt 1.8813 2.0249
vt 2.0785 1.9731
vt 2.1958 1.9432
vt 2.7072 1.7754
vt 2.5641 1.7284
vt 2.4322 1.7609
vt 2.2106 1.8205
vt 1.7336 1.7548
vt 1.1521 1.5626
vt 0.7050 1.4826
vt 0.3143 1.3902
vt -0.0212 1.3494
vt -0.2908 1.3044
vt -0.5695 1.3256
vt -0.9571 1.4508
vt -1.0402 1.4166
vt -1.0663 1.4050
vt -1.0009 1.3933
vt -0.8375 1.3728
vt -0.7253 1.4459
vt -0.4759 1.4926
vt -0.1623 1.5792
vt 0.2874 1.5194
vt 0.7058 1.4867
vt 1.1239 1.5166
vt 1.5597 1.5779
vt 1.9795 1.6422
vt 2.3249 1.6909
vt 2.6253 1.7648
vt 2.8071 1.3871
vt 2.7530 1.3922
vt 2.6872 1.4498
vt 2.3486 1.4496
vt 1.8703 1.4275
vt 1.2416 1.3041
vt 0.7249 1.2175
vt 0.3032 1.1278
vt -0.0841 1.1334
vt -0.3985 1.1082
vt -0.6156 1.0731
vt -1.0555 1.1755
vt -1.1935 1.1707
vt -1.2034 1.1550
vt -1.1761 1.1638
vt -1.0068 1.1543
vt -0.8120 1.1740
vt -0.5139 1.1863
vt -0.1834 1.2411
vt 0.2732 1.2233
vt 0.7428 1.2747
vt 1.2102 1.2701
vt 1.6474 1.2766
vt 2.0683 1.3057
vt 2.4665 1.3539
vt 2.8070 1.4136
vt 2.7839 1.0044
vt 2.8796 1.0413
vt 2.6952 1.0475
vt 2.2964 1.0300
vt 1.9074 1.0472
vt 1.2994 0.9979
vt 0.7472 0.9530
vt 0.2646 0.9313
vt -0.2060 0.9397
vt -0.5080 0.8919
vt -0.6583 0.8418
vt -1.1394 0.9089
vt -1.4629 0.9465
vt -1.3706 0.9131
vt -1.2126 0.8895
vt -1.0709 0.8918
vt -0.9326 0.9227
vt -0.5825 0.9209
vt -0.1339 0.8948
vt 0.2637 0.9329
vt 0.7697 0.9942
vt 1.2512 0.9679
vt 1.7195 0.9741
vt 2.1650 0.9912
vt 2.5342 1.0074
vt 2.7297 1.0072
vt 2.8790 0.6715
vt 3.0083 0.6862
vt 2.6817 0.6776
vt 2.2822 0.6717
vt 1.9806 0.6879
vt 1.3986 0.6827
vt 0.7856 0.6708
vt 0.2364 0.6576
vt -0.1974 0.6418
vt -0.5193 0.6294
vt -0.8089 0.6261
vt -1.2057 0.6389
vt -1.4558 0.6452
vt -1.3286 0.6318
vt -1.2164 0.6274
vt -1.1204 0.6319
vt -0.9400 0.6387
vt -0.6139 0.6414
vt -0.1866 0.6396
vt 0.2323 0.6601
vt 0.7757 0.6649
vt 1.1943 0.6412
vt 1.6587 0.6471
vt 2.2722 0.6707
vt 2.7495 0.6832
vt 2.7076 0.6639
vt 2.6764 0.3431
vt 2.7022 0.3365
vt 2.6896 0.3217
vt 2.2632 0.3302
vt 1.9635 0.3143
vt 1.4899 0.2988
vt 0.8070 0.3164
vt 0.2440 0.3469
vt -0.1731 0.3631
vt -0.6390 0.3554
vt -0.9040 0.3648
vt -1.0373 0.3748
vt -1.1910 0.3744
vt -1.1659 0.3799
vt -1.2383 0.3709
vt -1.1305 0.3672
vt -0.8203 0.3728
vt -0.5411 0.3679
vt -0.2205 0.3535
vt 0.2378 0.3432
vt 0.7697 0.3387
vt 1.1966 0.3584
vt 1.6154 0.3584
vt 2.1909 0.3371
vt 2.6793 0.3226
vt 2.5789 0.3456
vt 2.3625 0.0887
vt 2.2811 0.0949
vt 2.5659 -0.0153
vt 2.1550 0.0117
vt 1.7822 0.0015
vt 1.3742 -0.0445
vt 0.7767 -0.0069
vt 0.2416 0.0266
vt -0.2892 0.0085
vt -0.7618 0.0094
vt -0.8269 0.1085
vt -0.9572 0.1365
vt -1.2156 0.1098
vt -1.1857 0.1277
vt -1.2728 0.0968
vt -1.0298 0.1185
vt -0.8096 0.1136
vt -0.5315 0.0990
vt -0.1587 0.0898
vt 0.2701 0.0788
vt 0.7430 0.0547
vt 1.1795 0.0768
vt 1.5832 0.0789
vt 1.9618 0.0687
vt 2.2381 0.0665
vt 2.3271 0.0844
vt 2.2330 -0.1663
vt 2.1281 -0.1447
vt 2.3328 -0.2959
vt 2.1166 -0.3304
vt 1.7168 -0.3236
vt 1.2387 -0.3009
vt 0.7482 -0.2918
vt 0.2454 -0.3122
vt -0.2698 -0.3347
vt -0.6268 -0.2627
vt -0.7758 -0.1554
vt -1.1295 -0.2076
vt -1.3868 -0.2472
vt -1.1778 -0.1451
vt -1.0867 -0.1284
vt -0.7827 -0.0570
vt -0.7036 -0.1183
vt -0.4844 -0.1663
vt -0.0876 -0.1372
vt 0.3041 -0.1250
vt 0.7102 -0.1706
vt 1.1513 -0.2062
vt 1.4988 -0.1760
vt 1.7930 -0.1642
vt 2.0433 -0.1702
vt 2.2390 -0.1887
vt 2.0889 -0.4181
vt 1.9971 -0.3910
vt 2.0348 -0.5016
vt 1.9961 -0.6550
vt 1.6739 -0.6941
vt 1.1683 -0.5890
vt 0.7210 -0.5594
vt 0.2780 -0.5643
vt -0.1351 -0.5350
vt -0.4321 -0.4481
vt -0.7102 -0.4343
vt -1.0443 -0.5078
vt -1.0861 -0.4440
vt -0.7902 -0.2455
vt -0.6763 -0.2001
vt -0.5587 -0.1909
vt -0.4938 -0.2672
vt -0.3632 -0.3780
vt -0.0683 -0.4261
vt 0.3233 -0.3471
vt 0.6845 -0.3844
vt 1.1061 -0.4877
vt 1.3837 -0.3989
vt 1.6473 -0.3857
vt 1.9734 -0.4615
vt 2.1357 -0.4734
vt 1.9175 -0.6713
vt 1.8410 -0.6413
vt 1.7163 -0.6351
vt 1.6395 -0.7580
vt 1.4355 -0.8609
vt 1.0622 -0.8101
vt 0.6870 -0.7822
vt 0.3087 -0.8115
vt -0.0582 -0.8008
vt -0.3352 -0.7149
vt -0.5742 -0.6859
vt -0.7744 -0.6893
vt -0.7737 -0.5840
vt -0.6591 -0.4578
vt -0.6418 -0.4717
vt -0.5614 -0.4906
vt -0.3541 -0.4429
vt -0.1798 -0.4889
vt 0.0206 -0.6172
vt 0.3390 -0.6037
vt 0.6655 -0.6346
vt 1.0175 -0.7060
vt 1.2680 -0.6172
vt 1.4810 -0.5830
vt 1.7205 -0.6390
vt 1.8724 -0.6680
vt 1.7380 -0.9644
vt 1.6566 -0.9091
vt 1.4951 -0.8293
vt 1.3757 -0.8838
vt 1.2269 -1.0136
vt 0.9710 -1.0710
vt 0.6615 -1.0846
vt 0.3366 -1.1037
vt 0.0271 -1.0776
vt -0.2076 -0.9734
vt -0.3758 -0.8840
vt -0.5226 -0.8661
vt -0.6285 -0.8748
vt -0.6731 -0.8876
vt -0.6397 -0.8884
vt -0.4753 -0.8030
vt -0.2199 -0.6377
vt -0.0151 -0.5727
vt 0.1474 -0.6761
vt 0.3676 -0.7990
vt 0.6411 -0.8849
vt 0.9183 -0.8953
vt 1.1301 -0.8120
vt 1.2977 -0.7606
vt 1.4776 -0.8060
vt 1.6533 -0.9051
vt 1.3561 -1.0276
vt 1.3230 -1.0125
vt 1.2490 -1.0094
vt 1.1620 -1.0781
vt 1.0350 -1.1806
vt 0.8467 -1.2444
vt 0.6190 -1.2618
vt 0.3814 -1.2561
vt 0.1589 -1.2162
vt -0.0175 -1.1253
vt -0.1385 -1.0221
vt -0.2282 -0.9673
vt -0.2995 -0.9692
vt -0.3300 -0.9810
vt -0.2917 -0.9548
vt -0.1860 -0.8823
vt -0.0498 -0.8106
vt 0.0801 -0.8189
vt 0.2163 -0.9276
vt 0.3949 -1.0560
vt 0.6086 -1.1071
vt 0.8083 -1.0512
vt 0.9604 -0.9461
vt 1.0817 -0.8866
vt 1.2021 -0.9148
vt 1.3096 -0.9879
vt 0.9583 -0.9394
vt 0.9494 -0.9537
vt 0.9181 -0.9830
vt 0.8637 -1.0260
vt 0.7840 -1.0702
vt 0.6809 -1.1020
vt 0.5621 -1.1188
vt 0.4377 -1.1229
vt 0.3179 -1.1125
vt 0.2135 -1.0841
vt 0.1323 -1.0429
vt 0.0766 -1.0019
vt 0.0454 -0.9705
vt 0.0383 -0.9500
vt 0.0547 -0.9404
vt 0.0915 -0.9489
vt 0.1455 -0.9873
vt 0.2183 -1.0575
vt 0.3148 -1.1399
vt 0.4349 -1.1972
vt 0.5652 -1.1985
vt 0.6855 -1.1429
vt 0.7822 -1.0602
vt 0.8547 -0.9884
vt 0.9083 -0.9482
vt 0.9440 -0.9360
vt 0.6441 -0.9735
vt 0.6392 -0.9663
vt 0.6267 -0.9633
vt 0.6071 -0.9638
vt 0.5815 -0.9666
vt 0.5510 -0.9708
vt 0.5174 -0.9754
vt 0.4826 -0.9798
vt 0.4486 -0.9835
vt 0.4174 -0.9864
vt 0.3910 -0.9888
vt 0.3709 -0.9916
vt 0.3580 -0.9957
vt 0.3531 -1.0022
vt 0.3565 -1.0116
vt 0.3681 -1.0239
vt 0.3874 -1.0380
vt 0.4138 -1.0517
vt 0.4458 -1.0621
vt 0.4815 -1.0666
vt 0.5184 -1.0637
vt 0.5539 -1.0534
vt 0.5854 -1.0376
vt 0.6112 -1.0191
vt 0.6299 -1.0009
vt 0.6410 -0.9852
vt 0.5000 2.1701
vt 0.5000 -1.1400
f 1/1/1 2/2/2 28/28/28
f 1/1/1 28/28/28 27/27/27
f 2/2/2 3/3/3 29/29/29
f 2/2/2 29/29/29 28/28/28
f 3/3/3 4/4/4 30/30/30
f 3/3/3 30/30/30 29/29/29
f 4/4/4 5/5/5 31/31/31
f 4/4/4 31/31/31 30/30/30
f 5/5/5 6/6/6 32/32/32
f 5/5/5 32/32/32 31/31/31
f 6/6/6 7/7/7 33/33/33
f 6/6/6 33/33/33 32/32/32
f 7/7/7 8/8/8 34/34/34
f 7/7/7 34/34/34 33/33/33
f 8/8/8 9/9/9 35/35/35
f 8/8/8 35/35/35 34/34/34
f 9/9/9 10/10/10 36/36/36
f 9/9/9 36/36/36 35/35/35
f 10/10/10 11/11/11 37/37/37
f 10/10/10 37/37/37 36/36/36
f 11/11/11 12/12/12 38/38/38
f 11/11/11 38/38/38 37/37/37
f 12/12/12 13/13/13 39/39/39
f 12/12/12 39/39/39 38/38/38
f 13/13/13 14/14/14 40/40/40
f 13/13/13 40/40/40 39/39/39
f 14/14/14 15/15/15 41/41/41
f 14/14/14 41/41/41 40/40/40
f 15/15/15 16/16/16 42/42/42
f 15/15/15 42/42/42 41/41/41
f 16/16/16 17/17/17 43/43/43
f 16/16/16 43/43/43 42/42/42
f 17/17/17 18/18/18 44/44/44
f 17/17/17 44/44/44 43/43/43
f 18/18/18 19/19/19 45/45/45
f 18/18/18 45/45/45 44/44/44
f 19/19/19 20/20/20 46/46/46
f 19/19/19 46/46/46 45/45/45
f 20/20/20 21/21/21 47/47/47
f 20/20/20 47/47/47 46/46/46
f 21/21/21 22/22/22 48/48/48
f 21/21/21 48/48/48 47/47/47
f 22/22/22 23/23/23 49/49/49
f 22/22/22 49/49/49 48/48/48
f 23/23/23 24/24/24 50/50/50
f 23/23/23 50/50/50 49/49/49
f 24/24/24 25/25/25 51/51/51
f 24/24/24 51/51/51 50/50/50
f 25/25/25 26/26/26 52/52/52
f 25/25/25 52/52/52 51/51/51
f 26/26/26 1/1/1 27/27/27
f 26/26/26 27/27/27 52/52/52
f 27/27/27 28/28/28 54/54/54
f 27/27/27 54/54/54 53/53/53
f 28/28/28 29/29/29 55/55/55
f 28/28/28 55/55/55 54/54/54
f 29/29/29 30/30/30 56/56/56
f 29/29/29 56/56/56 55/55/55
f 30/30/30 31/31/31 57/57/57
f 30/30/30 57/57/57 56/56/56
f 31/31/31 32/32/32 58/58/58
f 31/31/31 58/58/58 57/57/57
f 32/32/32 33/33/33 59/59/59
f 32/32/32 59/59/59 58/58/58
f 33/33/33 34/34/34 60/60/60
f 33/33/33 60/60/60 59/59/59
f 34/34/34 35/35/35 61/61/61
f 34/34/34 61/61/61 60/60/60
f 35/35/35 36/36/36 62/62/62
f 35/35/35 62/62/62 61/61/61
f 36/36/36 37/37/37 63/63/63
f 36/36/36 63/63/63 62/62/62
f 37/37/37 38/38/38 64/64/64
f 37/37/37 64/64/64 63/63/63
f 38/38/38 39/39/39 65/65/65
f 38/38/38 65/65/65 64/64/64
f 39/39/39 40/40/40 66/66/66
f 39/39/39 66/66/66 65/65/65
f 40/40/40 41/41/41 67/67/67
f 40/40/40 67/67/67 66/66/66
f 41/41/41 42/42/42 68/68/68
f 41/41/41 68/68/68 67/67/67
f 42/42/42 43/43/43 69/69/69
f 42/42/42 69/69/69 68/68/68
f 43/43/43 44/44/44 70/70/70
f 43/43/43 70/70/70 69/69/69
f 44/44/44 45/45/45 71/71/71
f 44/44/44 71/71/71 70/70/70
f 45/45/45 46/46/46 72/72/72
f 45/45/45 72/72/72 71/71/71
f 46/46/46 47/47/47 73/73/73
f 46/46/46 73/73/73 72/72/72
f 47/47/47 48/48/48 74/74/74
f 47/47/47 74/74/74 73/73/73
f 48/48/48 49/49/49 75/75/75
f 48/48/48 75/75/75 74/74/74
f 49/49/49 50/50/50 76/76/76
f 49/49/49 76/76/76 75/75/75
f 50/50/50 51/51/51 77/77/77
f 50/50/50 77/77/77 76/76/76
f 51/51/51 52/52/52 78/78/78
f 51/51/51 78/78/78 77/77/77
f 52/52/52 27/27/27 53/53/53
f 52/52/52 53/53/53 78/78/78
f 53/53/53 54/54/54 80/80/80
f 53/53/53 80/80/80 79/79/79
f 54/54/54 55/55/55 81/81/81
f 54/54/54 81/81/81 80/80/80
f 55/55/55 56/56/56 82/82/82
f 55/55/55 82/82/82 81/81/81
f 56/56/56 57/57/57 83/83/83
f 56/56/56 83/83/83 82/82/82
f 57/57/57 58/58/58 84/84/84
f 57/57/57 84/84/84 83/83/83
f 58/58/58 59/59/59 85/85/85
f 58/58/58 85/85/85 84/84/84
f 59/59/59 60/60/60 86/86/86
f 59/59/59 86/86/86 85/85/85
f 60/60/60 61/61/61 87/87/87
f 60/60/60 87/87/87 86/86/86
f 61/61/61 62/62/62 88/88/88
f 61/61/61 88/88/88 87/87/87
f 62/62/62 63/63/63 89/89/89
f 62/62/62 89/89/89 88/88/88
f 63/63/63 64/64/64 90/90/90
f 63/63/63 90/90/90 89/89/89
f 64/64/64 65/65/65 91/91/91
f 64/64/64 91/91/91 90/90/90
f 65/65/65 66/66/66 92/92/92
f 65/65/65 92/92/92 91/91/91
f 66/66/66 67/67/67 93/93/93
f 66/66/66 93/93/93 92/92/92
f 67/67/67 68/68/68 94/94/94
f 67/67/67 94/94/94 93/93/93
f 68/68/68 69/69/69 95/95/95
f 68/68/68 95/95/95 94/94/94
f 69/69/69 70/70/70 96/96/96
f 69/69/69 96/96/96 95/95/95
f 70/70/70 71/71/71 97/97/97
f 70/70/70 97/97/97 96/96/96
f 71/71/71 72/72/72 98/98/98
f 71/71/71 98/98/98 97/97/97
f 72/72/72 73/73/73 99/99/99
f 72/72/72 99/99/99 98/98/98
f 73/73/73 74/74/74 100/100/100
f 73/73/73 100/100/100 99/99/99
f 74/74/74 75/75/75 101/101/101
f 74/74/74 101/101/101 100/100/100
f 75/75/75 76/76/76 102/102/102
f 75/75/75 102/102/102 101/101/101
f 76/76/76 77/77/77 103/103/103
f 76/76/76 103/103/103 102/102/102
f 77/77/77 78/78/78 104/104/104
f 77/77/77 104/104/104 103/103/103
f 78/78/78 53/53/53 79/79/79
f 78/78/78 79/79/79 104/104/104
f 79/79/79 80/80/80 106/106/106
f 79/79/79 106/106/106 105/105/105
f 80/80/80 81/81/81 107/107/107
f 80/80/80 107/107/107 106/106/106
f 81/81/81 82/82/82 108/108/108
f 81/81/81 108/108/108 107/107/107
f 82/82/82 83/83/83 109/109/109
f 82/82/82 109/109/109 108/108/108
f 83/83/83 84/84/84 110/110/110
f 83/83/83 110/110/110 109/109/109
f 84/84/84 85/85/85 111/111/111
f 84/84/84 111/111/111 110/110/110
f 85/85/85 86/86/86 112/112/112
f 85/85/85 112/112/112 111/111/111
f 86/86/86 87/87/87 113/113/113
f 86/86/86 113/113/113 112/112/112
f 87/87/87 88/88/88 114/114/114
f 87/87/87 114/114/114 113/113/113
f 88/88/88 89/89/89 115/115/115
f 88/88/88 115/115/115 114/114/114
f 89/89/89 90/90/90 116/116/116
f 89/89/89 116/116/116 115/115/115
f 90/90/90 91/91/91 117/117/117
f 90/90/90 117/117/117 116/116/116
f 91/91/91 92/92/92 118/118/118
f 91/91/91 118/118/118 117/117/117
f 92/92/92 93/93/93 119/119/119
f 92/92/92 119/119/119 118/118/118
f 93/93/93 94/94/94 120/120/120
f 93/93/93 120/120/120 119/119/119
f 94/94/94 95/95/95 121/121/121
f 94/94/94 121/121/121 120/120/120
f 95/95/95 96/96/96 122/122/122
f 95/95/95 122/122/122 121/121/121
f 96/96/96 97/97/97 123/123/123
f 96/96/96 123/123/123 122/122/122
f 97/97/97 98/98/98 124/124/124
f 97/97/97 124/124/124 123/123/123
f 98/98/98 99/99/99 125/125/125
f 98/98/98 125/125/125 124/124/124
f 99/99/99 100/100/100 126/126/126
f 99/99/99 126/126/126 125/125/125
f 100/100/100 101/101/101 127/127/127
f 100/100/100 127/127/127 126/126/126
f 101/101/101 102/102/102 128/128/128
f 101/101/101 128/128/128 127/127/127
f 102/102/102 103/103/103 129/129/129
f 102/102/102 129/129/129 128/128/128
f 103/103/103 104/104/104 130/130/130
f 103/103/103 130/130/130 129/129/129
f 104/104/104 79/79/79 105/105/105
f 104/104/104 105/105/105 130/130/130
f 105/105/105 106/106/106 132/132/132
f 105/105/105 132/132/132 131/131/131
f 106/106/106 107/107/107 133/133/133
f 106/106/106 133/133/133 132/132/132
f 107/107/107 108/108/108 134/134/134
f 107/107/107 134/134/134 133/133/133
f 108/108/108 109/109/109 135/135/135
f 108/108/108 135/135/135 134/134/134
f 109/109/109 110/110/110 136/136/136
f 109/109/109 136/136/136 135/135/135
f 110/110/110 111/111/111 137/137/137
f 110/110/110 137/137/137 136/136/136
f 111/111/111 112/112/112 138/138/138
f 111/111/111 138/138/138 137/137/137
f 112/112/112 113/113/113 139/139/139
f 112/112/112 139/139/139 138/138/138
f 113/113/113 114/114/114 140/140/140
f 113/113/113 140/140/140 139/139/139
f 114/114/114 115/115/115 141/141/141
f 114/114/114 141/141/141 140/140/140
f 115/115/115 116/116/116 142/142/142
f 115/115/115 142/142/142 141/141/141
f 116/116/116 117/117/117 143/143/143
f 116/116/116 143/143/143 142/142/142
f 117/117/117 118/118/118 144/144/144
f 117/117/117 144/144/144 143/143/143
f 118/118/118 119/119/119 145/145/145
f 118/118/118 145/145/145 144/144/144
f 119/119/119 120/120/120 146/146/146
f 119/119/119 146/146/146 145/145/145
f 120/120/120 121/121/121 147/147/147
f 120/120/120 147/147/147 146/146/146
f 121/121/121 122/122/122 148/148/148
f 121/121/121 148/148/148 147/147/147
f 122/122/122 123/123/123 149/149/149
f 122/122/122 149/149/149 148/148/148
f 123/123/123 124/124/124 150/150/150
f 123/123/123 150/150/150 149/149/149
f 124/124/124 125/125/125 151/151/151
f 124/124/124 151/151/151 150/150/150
f 125/125/125 126/126/126 152/152/152
f 125/125/125 152/152/152 151/151/151
f 126/126/126 127/127/127 153/153/153
f 126/126/126 153/153/153 152/152/152
f 127/127/127 128/128/128 154/154/154
f 127/127/127 154/154/154 153/153/153
f 128/128/128 129/129/129 155/155/155
f 128/128/128 155/155/155 154/154/154
f 129/129/129 130/130/130 156/156/156
f 129/129/129 156/156/156 155/155/155
f 130/130/130 105/105/105 131/131/131
f 130/130/130 131/131/131 156/156/156
f 131/131/131 132/132/132 158/158/158
f 131/131/131 158/158/158 157/157/157
f 132/132/132 133/133/133 159/159/159
f 132/132/132 159/159/159 158/158/158
f 133/133/133 134/134/134 160/160/160
f 133/133/133 160/160/160 159/159/159
f 134/134/134 135/135/135 161/161/161
f 134/134/134 161/161/161 160/160/160
f 135/135/135 136/136/136 162/162/162
f 135/135/135 162/162/162 161/161/161
f 136/136/136 137/137/137 163/163/163
f 136/136/136 163/163/163 162/162/162
f 137/137/137 138/138/138 164/164/164
f 137/137/137 164/164/164 163/163/163
f 138/138/138 139/139/139 165/165/165
f 138/138/138 165/165/165 164/164/164
f 139/139/139 140/140/140 166/166/166
f 139/139/139 166/166/166 165/165/165
f 140/140/140 141/141/141 167/167/167
f 140/140/140 167/167/167 166/166/166
f 141/141/141 142/142/142 168/168/168
f 141/141/141 168/168/168 167/167/167
f 142/142/142 143/143/143 169/169/169
f 142/142/142 169/169/169 168/168/168
f 143/143/143 144/144/144 170/170/170
f 143/143/143 170/170/170 169/169/169
f 144/144/144 145/145/145 171/171/171
f 144/144/144 171/171/171 170/170/170
f 145/145/145 146/146/146 172/172/172
f 145/145/145 172/172/172 171/171/171
f 146/146/146 147/147/147 173/173/173
f 146/146/146 173/173/173 172/172/172
f 147/147/147 148/148/148 174/174/174
f 147/147/147 174/174/174 173/173/173
f 148/148/148 149/149/149 175/175/175
f 148/148/148 175/175/175 174/174/174
f 149/149/149 150/150/150 176/176/176
f 149/149/149 176/176/176 175/175/175
f 150/150/150 151/151/151 177/177/177
f 150/150/150 177/177/177 176/176/176
f 151/151/151 152/152/152 178/178/178
f 151/151/151 178/178/178 177/177/177
f 152/152/152 153/153/153 179/179/179
f 152/152/152 179/179/179 178/178/178
f 153/153/153 154/154/154 180/180/180
f 153/153/153 180/180/180 179/179/179
f 154/154/154 155/155/155 181/181/181
f 154/154/154 181/181/181 180/180/180
f 155/155/155 156/156/156 182/182/182
f 155/155/155 182/182/182 181/181/181
f 156/156/156 131/131/131 157/157/157
f 156/156/156 157/157/157 182/182/182
f 157/157/157 158/158/158 184/184/184
f 157/157/157 184/184/184 183/183/183
f 158/158/158 159/159/159 185/185/185
f 158/158/158 185/185/185 184/184/184
f 159/159/159 160/160/160 186/186/186
f 159/159/159 186/186/186 185/185/185
f 160/160/160 161/161/161 187/187/187
f 160/160/160 187/187/187 186/186/186
f 161/161/161 162/162/162 188/188/188
f 161/161/161 188/188/188 187/187/187
f 162/162/162 163/163/163 189/189/189
f 162/162/162 189/189/189 188/188/188
f 163/163/163 164/164/164 190/190/190
f 163/163/163 190/190/190 189/189/189
f 164/164/164 165/165/165 191/191/191
f 164/164/164 191/191/191 190/190/190
f 165/165/165 166/166/166 192/192/192
f 165/165/165 192/192/192 191/191/191
f 166/166/166 167/167/167 193/193/193
f 166/166/166 193/193/193 192/192/192
f 167/167/167 168/168/168 194/194/194
f 167/167/167 194/194/194 193/193/193
f 168/168/168 169/169/169 195/195/195
f 168/168/168 195/195/195 194/194/194
f 169/169/169 170/170/170 196/196/196
f 169/169/169 196/196/196 195/195/195
f 170/170/170 171/171/171 197/197/197
f 170/170/170 197/197/197 196/196/196
f 171/171/171 172/172/172 198/198/198
f 171/171/171 198/198/198 197/197/197
f 172/172/172 173/173/173 199/199/199
f 172/172/172 199/199/199 198/198/198
f 173/173/173 174/174/174 200/200/200
f 173/173/173 200/200/200 199/199/199
f 174/174/174 175/175/175 201/201/201
f 174/174/174 201/201/201 200/200/200
f 175/175/175 176/176/176 202/202/202
f 175/175/175 202/202/202 201/201/201
f 176/176/176 177/177/177 203/203/203
f 176/176/176 203/203/203 202/202/202
f 177/177/177 178/178/178 204/204/204
f 177/177/177 204/204/204 203/203/203
f 178/178/178 179/179/179 205/205/205
f 178/178/178 205/205/205 204/204/204
f 179/179/179 180/180/180 206/206/206
f 179/179/179 206/206/206 205/205/205
f 180/180/180 181/181/181 207/207/207
f 180/180/180 207/207/207 206/206/206
f 181/181/181 182/182/182 208/208/208
f 181/181/181 208/208/208 207/207/207
f 182/182/182 157/157/157 183/183/183
f 182/182/182 183/183/183 208/208/208
f 183/183/183 184/184/184 210/210/210
f 183/183/183 210/210/210 209/209/209
f 184/184/184 185/185/185 211/211/211
f 184/184/184 211/211/211 210/210/210
f 185/185/185 186/186/186 212/212/212
f 185/185/185 212/212/212 211/211/211
f 186/186/186 187/187/187 213/213/213
f 186/186/186 213/213/213 212/212/212
f 187/187/187 188/188/188 214/214/214
f 187/187/187 214/214/214 213/213/213
f 188/188/188 189/189/189 215/215/215
f 188/188/188 215/215/215 214/214/214
f 189/189/189 190/190/190 216/216/216
f 189/189/189 216/216/216 215/215/215
f 190/190/190 191/191/191 217/217/217
f 190/190/190 217/217/217 216/216/216
f 191/191/191 192/192/192 218/218/218
f 191/191/191 218/218/218 217/217/217
f 192/192/192 193/193/193 219/219/219
f 192/192/192 219/219/219 218/218/218
f 193/193/193 194/194/194 220/220/220
f 193/193/193 220/220/220 219/219/219
f 194/194/194 195/195/195 221/221/221
f 194/194/194 221/221/221 220/220/220
f 195/195/195 196/196/196 222/222/222
f 195/195/195 222/222/222 221/221/221
f 196/196/196 197/197/197 223/223/223
f 196/196/196 223/223/223 222/222/222
f 197/197/197 198/198/198 224/224/224
f 197/197/197 224/224/224 223/223/223
f 198/198/198 199/199/199 225/225/225
f 198/198/198 225/225/225 224/224/224
f 199/199/199 200/200/200 226/226/226
f 199/199/199 226/226/226 225/225/225
f 200/200/200 201/201/201 227/227/227
f 200/200/200 227/227/227 226/226/226
f 201/201/201 202/202/202 228/228/228
f 201/201/201 228/228/228 227/227/227
f 202/202/202 203/203/203 229/229/229
f 202/202/202 229/229/229 228/228/228
f 203/203/203 204/204/204 230/230/230
f 203/203/203 230/230/230 229/229/229
f 204/204/204 205/205/205 231/231/231
f 204/204/204 231/231/231 230/230/230
f 205/205/205 206/206/206 232/232/232
f 205/205/205 232/232/232 231/231/231
f 206/206/206 207/207/207 233/233/233
f 206/206/206 233/233/233 232/232/232
f 207/207/207 208/208/208 234/234/234
f 207/207/207 234/234/234 233/233/233
f 208/208/208 183/183/183 209/209/209
f 208/208/208 209/209/209 234/234/234
f 209/209/209 210/210/210 236/236/236
f 209/209/209 236/236/236 235/235/235
f 210/210/210 211/211/211 237/237/237
f 210/210/210 237/237/237 236/236/236
f 211/211/211 212/212/212 238/238/238
f 211/211/211 238/238/238 237/237/237
f 212/212/212 213/213/213 239/239/239
f 212/212/212 239/239/239 238/238/238
f 213/213/213 214/214/214 240/240/240
f 213/213/213 240/240/240 239/239/239
f 214/214/214 215/215/215 241/241/241
f 214/214/214 241/241/241 240/240/240
f 215/215/215 216/216/216 242/242/242
f 215/215/215 242/242/242 241/241/241
f 216/216/216 217/217/217 243/243/243
f 216/216/216 243/243/243 242/242/242
f 217/217/217 218/218/218 244/244/244
f 217/217/217 244/244/244 243/243/243
f 218/218/218 219/219/219 245/245/245
f 218/218/218 245/245/245 244/244/244
f 219/219/219 220/220/220 246/246/246
f 219/219/219 246/246/246 245/245/245
f 220/220/220 221/221/221 247/247/247
f 220/220/220 247/247/247 246/246/246
f 221/221/221 222/222/222 248/248/248
f 221/221/221 248/248/248 247/247/247
f 222/222/222 223/223/223 249/249/249
f 222/222/222 249/249/249 248/248/248
f 223/223/223 224/224/224 250/250/250
f 223/223/223 250/250/250 249/249/249
f 224/224/224 225/225/225 251/251/251
f 224/224/224 251/251/251 250/250/250
f 225/225/225 226/226/226 252/252/252
f 225/225/225 252/252/252 251/251/251
f 226/226/226 227/227/227 253/253/253
f 226/226/226 253/253/253 252/252/252
f 227/227/227 228/228/228 254/254/254
f 227/227/227 254/254/254 253/253/253
f 228/228/228 229/229/229 255/255/255
f 228/228/228 255/255/255 254/254/254
f 229/229/229 230/230/230 256/256/256
f 229/229/229 256/256/256 255/255/255
f 230/230/230 231/231/231 257/257/257
f 230/230/230 257/257/257 256/256/256
f 231/231/231 232/232/232 258/258/258
f 231/231/231 258/258/258 257/257/257
f 232/232/232 233/233/233 259/259/259
f 232/232/232 259/259/259 258/258/258
f 233/233/233 234/234/234 260/260/260
f 233/233/233 260/260/260 259/259/259
f 234/234/234 209/209/209 235/235/235
f 234/234/234 235/235/235 260/260/260
f 235/235/235 236/236/236 262/262/262
f 235/235/235 262/262/262 261/261/261
f 236/236/236 237/237/237 263/263/263
f 236/236/236 263/263/263 262/262/262
f 237/237/237 238/238/238 264/264/264
f 237/237/237 264/264/264 263/263/263
f 238/238/238 239/239/239 265/265/265
f 238/238/238 265/265/265 264/264/264
f 239/239/239 240/240/240 266/266/266
f 239/239/239 266/266/266 265/265/265
f 240/240/240 241/241/241 267/267/267
f 240/240/240 267/267/267 266/266/266
f 241/241/241 242/242/242 268/268/268
f 241/241/241 268/268/268 267/267/267
f 242/242/242 243/243/243 269/269/269
f 242/242/242 269/269/269 268/268/268
f 243/243/243 244/244/244 270/270/270
f 243/243/243 270/270/270 269/269/269
f 244/244/244 245/245/245 271/271/271
f 244/244/244 271/271/271 270/270/270
f 245/245/245 246/246/246 272/272/272
f 245/245/245 272/272/272 271/271/271
f 246/246/246 247/247/247 273/273/273
f 246/246/246 273/273/273 272/272/272
f 247/247/247 248/248/248 274/274/274
f 247/247/247 274/274/274 273/273/273
f 248/248/248 249/249/249 275/275/275
f 248/248/248 275/275/275 274/274/274
f 249/249/249 250/250/250 276/276/276
f 249/249/249 276/276/276 275/275/275
f 250/250/250 251/251/251 277/277/277
f 250/250/250 277/277/277 276/276/276
f 251/251/251 252/252/252 278/278/278
f 251/251/251 278/278/278 277/277/277
f 252/252/252 253/253/253 279/279/279
f 252/252/252 279/279/279 278/278/278
f 253/253/253 254/254/254 280/280/280
f 253/253/253 280/280/280 279/279/279
f 254/254/254 255/255/255 281/281/281
f 254/254/254 281/281/281 280/280/280
f 255/255/255 256/256/256 282/282/282
f 255/255/255 282/282/282 281/281/281
f 256/256/256 257/257/257 283/283/283
f 256/256/256 283/283/283 282/282/282
f 257/257/257 258/258/258 284/284/284
f 257/257/257 284/284/284 283/283/283
f 258/258/258 259/259/259 285/285/285
f 258/258/258 285/285/285 284/284/284
f 259/259/259 260/260/260 286/286/286
f 259/259/259 286/286/286 285/285/285
f 260/260/260 235/235/235 261/261/261
f 260/260/260 261/261/261 286/286/286
f 261/261/261 262/262/262 288/288/288
f 261/261/261 288/288/288 287/287/287
f 262/262/262 263/263/263 289/289/289
f 262/262/262 289/289/289 288/288/288
f 263/263/263 264/264/264 290/290/290
f 263/263/263 290/290/290 289/289/289
f 264/264/264 265/265/265 291/291/291
f 264/264/264 291/291/291 290/290/290
f 265/265/265 266/266/266 292/292/292
f 265/265/265 292/292/292 291/291/291
f 266/266/266 267/267/267 293/293/293
f 266/266/266 293/293/293 292/292/292
f 267/267/267 268/268/268 294/294/294
f 267/267/267 294/294/294 293/293/293
f 268/268/268 269/269/269 295/295/295
f 268/268/268 295/295/295 294/294/294
f 269/269/269 270/270/270 296/296/296
f 269/269/269 296/296/296 295/295/295
f 270/270/270 271/271/271 297/297/297
f 270/270/270 297/297/297 296/296/296
f 271/271/271 272/272/272 298/298/298
f 271/271/271 298/298/298 297/297/297
f 272/272/272 273/273/273 299/299/299
f 272/272/272 299/299/299 298/298/298
f 273/273/273 274/274/274 300/300/300
f 273/273/273 300/300/300 299/299/299
f 274/274/274 275/275/275 301/301/301
f 274/274/274 301/301/301 300/300/300
f 275/275/275 276/276/276 302/302/302
f 275/275/275 302/302/302 301/301/301
f 276/276/276 277/277/277 303/303/303
f 276/276/276 303/303/303 302/302/302
f 277/277/277 278/278/278 304/304/304
f 277/277/277 304/304/304 303/303/303
f 278/278/278 279/279/279 305/305/305
f 278/278/278 305/305/305 304/304/304
f 279/279/279 280/280/280 306/306/306
f 279/279/279 306/306/306 305/305/305
f 280/280/280 281/281/281 307/307/307
f 280/280/280 307/307/307 306/306/306
f 281/281/281 282/282/282 308/308/308
f 281/281/281 308/308/308 307/307/307
f 282/282/282 283/283/283 309/309/309
f 282/282/282 309/309/309 308/308/308
f 283/283/283 284/284/284 310/310/310
f 283/283/283 310/310/310 309/309/309
f 284/284/284 285/285/285 311/311/311
f 284/284/284 311/311/311 310/310/310
f 285/285/285 286/286/286 312/312/312
f 285/285/285 312/312/312 311/311/311
f 286/286/286 261/261/261 287/287/287
f 286/286/286 287/287/287 312/312/312
f 287/287/287 288/288/288 314/314/314
f 287/287/287 314/314/314 313/313/313
f 288/288/288 289/289/289 315/315/315
f 288/288/288 315/315/315 314/314/314
f 289/289/289 290/290/290 316/316/316
f 289/289/289 316/316/316 315/315/315
f 290/290/290 291/291/291 317/317/317
f 290/290/290 317/317/317 316/316/316
f 291/291/291 292/292/292 318/318/318
f 291/291/291 318/318/318 317/317/317
f 292/292/292 293/293/293 319/319/319
f 292/292/292 319/319/319 318/318/318
f 293/293/293 294/294/294 320/320/320
f 293/293/293 320/320/320 319/319/319
f 294/294/294 295/295/295 321/321/321
f 294/294/294 321/321/321 320/320/320
f 295/295/295 296/296/296 322/322/322
f 295/295/295 322/322/322 321/321/321
f 296/296/296 297/297/297 323/323/323
f 296/296/296 323/323/323 322/322/322
f 297/297/297 298/298/298 324/324/324
f 297/297/297 324/324/324 323/323/323
f 298/298/298 299/299/299 325/325/325
f 298/298/298 325/325/325 324/324/324
f 299/299/299 300/300/300 326/326/326
f 299/299/299 326/326/326 325/325/325
f 300/300/300 301/301/301 327/327/327
f 300/300/300 327/327/327 326/326/326
f 301/301/301 302/302/302 328/328/328
f 301/301/301 328/328/328 327/327/327
f 302/302/302 303/303/303 329/329/329
f 302/302/302 329/329/329 328/328/328
f 303/303/303 304/304/304 330/330/330
f 303/303/303 330/330/330 329/329/329
f 304/304/304 305/305/305 331/331/331
f 304/304/304 331/331/331 330/330/330
f 305/305/305 306/306/306 332/332/332
f 305/305/305 332/332/332 331/331/331
f 306/306/306 307/307/307 333/333/333
f 306/306/306 333/333/333 332/332/332
f 307/307/307 308/308/308 334/334/334
f 307/307/307 334/334/334 333/333/333
f 308/308/308 309/309/309 335/335/335
f 308/308/308 335/335/335 334/334/334
f 309/309/309 310/310/310 336/336/336
f 309/309/309 336/336/336 335/335/335
f 310/310/310 311/311/311 337/337/337
f 310/310/310 337/337/337 336/336/336
f 311/311/311 312/312/312 338/338/338
f 311/311/311 338/338/338 337/337/337
f 312/312/312 287/287/287 313/313/313
f 312/312/312 313/313/313 338/338/338
f 313/313/313 314/314/314 340/340/340
f 313/313/313 340/340/340 339/339/339
f 314/314/314 315/315/315 341/341/341
f 314/314/314 341/341/341 340/340/340
f 315/315/315 316/316/316 342/342/342
f 315/315/315 342/342/342 341/341/341
f 316/316/316 317/317/317 343/343/343
f 316/316/316 343/343/343 342/342/342
f 317/317/317 318/318/318 344/344/344
f 317/317/317 344/344/344 343/343/343
f 318/318/318 319/319/319 345/345/345
f 318/318/318 345/345/345 344/344/344
f 319/319/319 320/320/320 346/346/346
f 319/319/319 346/346/346 345/345/345
f 320/320/320 321/321/321 347/347/347
f 320/320/320 347/347/347 346/346/346
f 321/321/321 322/322/322 348/348/348
f 321/321/321 348/348/348 347/347/347
f 322/322/322 323/323/323 349/349/349
f 322/322/322 349/349/349 348/348/348
f 323/323/323 324/324/324 350/350/350
f 323/323/323 350/350/350 349/349/349
f 324/324/324 325/325/325 351/351/351
f 324/324/324 351/351/351 350/350/350
f 325/325/325 326/326/326 352/352/352
f 325/325/325 352/352/352 351/351/351
f 326/326/326 327/327/327 353/353/353
f 326/326/326 353/353/353 352/352/352
f 327/327/327 328/328/328 354/354/354
f 327/327/327 354/354/354 353/353/353
f 328/328/328 329/329/329 355/355/355
f 328/328/328 355/355/355 354/354/354
f 329/329/329 330/330/330 356/356/356
f 329/329/329 356/356/356 355/355/355
f 330/330/330 331/331/331 357/357/357
f 330/330/330 357/357/357 356/356/356
f 331/331/331 332/332/332 358/358/358
f 331/331/331 358/358/358 357/357/357
f 332/332/332 333/333/333 359/359/359
f 332/332/332 359/359/359 358/358/358
f 333/333/333 334/334/334 360/360/360
f 333/333/333 360/360/360 359/359/359
f 334/334/334 335/335/335 361/361/361
f 334/334/334 361/361/361 360/360/360
f 335/335/335 336/336/336 362/362/362
f 335/335/335 362/362/362 361/361/361
f 336/336/336 337/337/337 363/363/363
f 336/336/336 363/363/363 362/362/362
f 337/337/337 338/338/338 364/364/364
f 337/337/337 364/364/364 363/363/363
f 338/338/338 313/313/313 339/339/339
f 338/338/338 339/339/339 364/364/364
f 339/339/339 340/340/340 366/366/366
f 339/339/339 366/366/366 365/365/365
f 340/340/340 341/341/341 367/367/367
f 340/340/340 367/367/367 366/366/366
f 341/341/341 342/342/342 368/368/368
f 341/341/341 368/368/368 367/367/367
f 342/342/342 343/343/343 369/369/369
f 342/342/342 369/369/369 368/368/368
f 343/343/343 344/344/344 370/370/370
f 343/343/343 370/370/370 369/369/369
f 344/344/344 345/345/345 371/371/371
f 344/344/344 371/371/371 370/370/370
f 345/345/345 346/346/346 372/372/372
f 345/345/345 372/372/372 371/371/371
f 346/346/346 347/347/347 373/373/373
f 346/346/346 373/373/373 372/372/372
f 347/347/347 348/348/348 374/374/374
f 347/347/347 374/374/374 373/373/373
f 348/348/348 349/349/349 375/375/375
f 348/348/348 375/375/375 374/374/374
f 349/349/349 350/350/350 376/376/376
f 349/349/349 376/376/376 375/375/375
f 350/350/350 351/351/351 377/377/377
f 350/350/350 377/377/377 376/376/376
f 351/351/351 352/352/352 378/378/378
f 351/351/351 378/378/378 377/377/377
f 352/352/352 353/353/353 379/379/379
f 352/352/352 379/379/379 378/378/378
f 353/353/353 354/354/354 380/380/380
f 353/353/353 380/380/380 379/379/379
f 354/354/354 355/355/355 381/381/381
f 354/354/354 381/381/381 380/380/380
f 355/355/355 356/356/356 382/382/382
f 355/355/355 382/382/382 381/381/381
f 356/356/356 357/357/357 383/383/383
f 356/356/356 383/383/383 382/382/382
f 357/357/357 358/358/358 384/384/384
f 357/357/357 384/384/384 383/383/383
f 358/358/358 359/359/359 385/385/385
f 358/358/358 385/385/385 384/384/384
f 359/359/359 360/360/360 386/386/386
f 359/359/359 386/386/386 385/385/385
f 360/360/360 361/361/361 387/387/387
f 360/360/360 387/387/387 386/386/386
f 361/361/361 362/362/362 388/388/388
f 361/361/361 388/388/388 387/387/387
f 362/362/362 363/363/363 389/389/389
f 362/362/362 389/389/389 388/388/388
f 363/363/363 364/364/364 390/390/390
f 363/363/363 390/390/390 389/389/389
f 364/364/364 339/339/339 365/365/365
f 364/364/364 365/365/365 390/390/390
f 365/365/365 366/366/366 392/392/392
f 365/365/365 392/392/392 391/391/391
f 366/366/366 367/367/367 393/393/393
f 366/366/366 393/393/393 392/392/392
f 367/367/367 368/368/368 394/394/394
f 367/367/367 394/394/394 393/393/393
f 368/368/368 369/369/369 395/395/395
f 368/368/368 395/395/395 394/394/394
f 369/369/369 370/370/370 396/396/396
f 369/369/369 396/396/396 395/395/395
f 370/370/370 371/371/371 397/397/397
f 370/370/370 397/397/397 396/396/396
f 371/371/371 372/372/372 398/398/398
f 371/371/371 398/398/398 397/397/397
f 372/372/372 373/373/373 399/399/399
f 372/372/372 399/399/399 398/398/398
f 373/373/373 374/374/374 400/400/400
f 373/373/373 400/400/400 399/399/399
f 374/374/374 375/375/375 401/401/401
f 374/374/374 401/401/401 400/400/400
f 375/375/375 376/376/376 402/402/402
f 375/375/375 402/402/402 401/401/401
f 376/376/376 377/377/377 403/403/403
f 376/376/376 403/403/403 402/402/402
f 377/377/377 378/378/378 404/404/404
f 377/377/377 404/404/404 403/403/403
f 378/378/378 379/379/379 405/405/405
f 378/378/378 405/405/405 404/404/404
f 379/379/379 380/380/380 406/406/406
f 379/379/379 406/406/406 405/405/405
f 380/380/380 381/381/381 407/407/407
f 380/380/380 407/407/407 406/406/406
f 381/381/381 382/382/382 408/408/408
f 381/381/381 408/408/408 407/407/407
f 382/382/382 383/383/383 409/409/409
f 382/382/382 409/409/409 408/408/408
f 383/383/383 384/384/384 410/410/410
f 383/383/383 410/410/410 409/409/409
f 384/384/384 385/385/385 411/411/411
f 384/384/384 411/411/411 410/410/410
f 385/385/385 386/386/386 412/412/412
f 385/385/385 412/412/412 411/411/411
f 386/386/386 387/387/387 413/413/413
f 386/386/386 413/413/413 412/412/412
f 387/387/387 388/388/388 414/414/414
f 387/387/387 414/414/414 413/413/413
f 388/388/388 389/389/389 415/415/415
f 388/388/388 415/415/415 414/414/414
f 389/389/389 390/390/390 416/416/416
f 389/389/389 416/416/416 415/415/415
f 390/390/390 365/365/365 391/391/391
f 390/390/390 391/391/391 416/416/416
f 391/391/391 392/392/392 418/418/418
f 391/391/391 418/418/418 417/417/417
f 392/392/392 393/393/393 419/419/419
f 392/392/392 419/419/419 418/418/418
f 393/393/393 394/394/394 420/420/420
f 393/393/393 420/420/420 419/419/419
f 394/394/394 395/395/395 421/421/421
f 394/394/394 421/421/421 420/420/420
f 395/395/395 396/396/396 422/422/422
f 395/395/395 422/422/422 421/421/421
f 396/396/396 397/397/397 423/423/423
f 396/396/396 423/423/423 422/422/422
f 397/397/397 398/398/398 424/424/424
f 397/397/397 424/424/424 423/423/423
f 398/398/398 399/399/399 425/425/425
f 398/398/398 425/425/425 424/424/424
f 399/399/399 400/400/400 426/426/426
f 399/399/399 426/426/426 425/425/425
f 400/400/400 401/401/401 427/427/427
f 400/400/400 427/427/427 426/426/426
f 401/401/401 402/402/402 428/428/428
f 401/401/401 428/428/428 427/427/427
f 402/402/402 403/403/403 429/429/429
f 402/402/402 429/429/429 428/428/428
f 403/403/403 404/404/404 430/430/430
f 403/403/403 430/430/430 429/429/429
f 404/404/404 405/405/405 431/431/431
f 404/404/404 431/431/431 430/430/430
f 405/405/405 406/406/406 432/432/432
f 405/405/405 432/432/432 431/431/431
f 406/406/406 407/407/407 433/433/433
f 406/406/406 433/433/433 432/432/432
f 407/407/407 408/408/408 434/434/434
f 407/407/407 434/434/434 433/433/433
f 408/408/408 409/409/409 435/435/435
f 408/408/408 435/435/435 434/434/434
f 409/409/409 410/410/410 436/436/436
f 409/409/409 436/436/436 435/435/435
f 410/410/410 411/411/411 437/437/437
f 410/410/410 437/437/437 436/436/436
f 411/411/411 412/412/412 438/438/438
f 411/411/411 438/438/438 437/437/437
f 412/412/412 413/413/413 439/439/439
f 412/412/412 439/439/439 438/438/438
f 413/413/413 414/414/414 440/440/440
f 413/413/413 440/440/440 439/439/439
f 414/414/414 415/415/415 441/441/441
f 414/414/414 441/441/441 440/440/440
f 415/415/415 416/416/416 442/442/442
f 415/415/415 442/442/442 441/441/441
f 416/416/416 391/391/391 417/417/417
f 416/416/416 417/417/417 442/442/442
f 417/417/417 418/418/418 444/444/444
f 417/417/417 444/444/444 443/443/443
f 418/418/418 419/419/419 445/445/445
f 418/418/418 445/445/445 444/444/444
f 419/419/419 420/420/420 446/446/446
f 419/419/419 446/446/446 445/445/445
f 420/420/420 421/421/421 447/447/447
f 420/420/420 447/447/447 446/446/446
f 421/421/421 422/422/422 448/448/448
f 421/421/421 448/448/448 447/447/447
f 422/422/422 423/423/423 449/449/449
f 422/422/422 449/449/449 448/448/448
f 423/423/423 424/424/424 450/450/450
f 423/423/423 450/450/450 449/449/449
f 424/424/424 425/425/425 451/451/451
f 424/424/424 451/451/451 450/450/450
f 425/425/425 426/426/426 452/452/452
f 425/425/425 452/452/452 451/451/451
f 426/426/426 427/427/427 453/453/453
f 426/426/426 453/453/453 452/452/452
f 427/427/427 428/428/428 454/454/454
f 427/427/427 454/454/454 453/453/453
f 428/428/428 429/429/429 455/455/455
f 428/428/428 455/455/455 454/454/454
f 429/429/429 430/430/430 456/456/456
f 429/429/429 456/456/456 455/455/455
f 430/430/430 431/431/431 457/457/457
f 430/430/430 457/457/457 456/456/456
f 431/431/431 432/432/432 458/458/458
f 431/431/431 458/458/458 457/457/457
f 432/432/432 433/433/433 459/459/459
f 432/432/432 459/459/459 458/458/458
f 433/433/433 434/434/434 460/460/460
f 433/433/433 460/460/460 459/459/459
f 434/434/434 435/435/435 461/461/461
f 434/434/434 461/461/461 460/460/460
f 435/435/435 436/436/436 462/462/462
f 435/435/435 462/462/462 461/461/461
f 436/436/436 437/437/437 463/463/463
f 436/436/436 463/463/463 462/462/462
f 437/437/437 438/438/438 464/464/464
f 437/437/437 464/464/464 463/463/463
f 438/438/438 439/439/439 465/465/465
f 438/438/438 465/465/465 464/464/464
f 439/439/439 440/440/440 466/466/466
f 439/439/439 466/466/466 465/465/465
f 440/440/440 441/441/441 467/467/467
f 440/440/440 467/467/467 466/466/466
f 441/441/441 442/442/442 468/468/468
f 441/441/441 468/468/468 467/467/467
f 442/442/442 417/417/417 443/443/443
f 442/442/442 443/443/443 468/468/468
f 469/469/469 2/2/2 1/1/1
f 469/469/469 3/3/3 2/2/2
f 469/469/469 4/4/4 3/3/3
f 469/469/469 5/5/5 4/4/4
f 469/469/469 6/6/6 5/5/5
f 469/469/469 7/7/7 6/6/6
f 469/469/469 8/8/8 7/7/7
f 469/469/469 9/9/9 8/8/8
f 469/469/469 10/10/10 9/9/9
f 469/469/469 11/11/11 10/10/10
f 469/469/469 12/12/12 11/11/11
f 469/469/469 13/13/13 12/12/12
f 469/469/469 14/14/14 13/13/13
f 469/469/469 15/15/15 14/14/14
f 469/469/469 16/16/16 15/15/15
f 469/469/469 17/17/17 16/16/16
f 469/469/469 18/18/18 17/17/17
f 469/469/469 19/19/19 18/18/18
f 469/469/469 20/20/20 19/19/19
f 469/469/469 21/21/21 20/20/20
f 469/469/469 22/22/22 21/21/21
f 469/469/469 23/23/23 22/22/22
f 469/469/469 24/24/24 23/23/23
f 469/469/469 25/25/25 24/24/24
f 469/469/469 26/26/26 25/25/25
f 469/469/469 1/1/1 26/26/26
f 470/470/470 443/443/443 444/444/444
f 470/470/470 444/444/444 445/445/445
f 470/470/470 445/445/445 446/446/446
f 470/470/470 446/446/446 447/447/447
f 470/470/470 447/447/447 448/448/448
f 470/470/470 448/448/448 449/449/449
f 470/470/470 449/449/449 450/450/450
f 470/470/470 450/450/450 451/451/451
f 470/470/470 451/451/451 452/452/452
f 470/470/470 452/452/452 453/453/453
f 470/470/470 453/453/453 454/454/454
f 470/470/470 454/454/454 455/455/455
f 470/470/470 455/455/455 456/456/456
f 470/470/470 456/456/456 457/457/457
f 470/470/470 457/457/457 458/458/458
f 470/470/470 458/458/458 459/459/459
f 470/470/470 459/459/459 460/460/460
f 470/470/470 460/460/460 461/461/461
f 470/470/470 461/461/461 462/462/462
f 470/470/470 462/462/462 463/463/463
f 470/470/470 463/463/463 464/464/464
f 470/470/470 464/464/464 465/465/465
f 470/470/470 465/465/465 466/466/466
f 470/470/470 466/466/466 467/467/467
f 470/470/470 467/467/467 468/468/468
f 470/470/470 468/468/468 443/443/443
