# procedural placeholder mesh: canopy_blob_1
v 0.07816 0.79947 0.00000
v 0.07558 0.79616 0.01863
v 0.06840 0.79014 0.03590
v 0.05722 0.78193 0.05069
v 0.04289 0.77232 0.06214
v 0.02643 0.76226 0.06968
v 0.00887 0.75261 0.07305
v -0.00877 0.74403 0.07221
v -0.02554 0.73680 0.06736
v -0.04060 0.73096 0.05882
v -0.05317 0.72657 0.04711
v -0.06267 0.72388 0.03289
v -0.06867 0.72335 0.01692
v -0.07092 0.72537 0.00000
v -0.06928 0.72984 -0.01708
v -0.06373 0.73617 -0.03345
v -0.05440 0.74340 -0.04820
v -0.04169 0.75069 -0.06040
v -0.02627 0.75766 -0.06926
v -0.00901 0.76443 -0.07419
v 0.00909 0.77136 -0.07487
v 0.02699 0.77860 -0.07118
v 0.04365 0.78585 -0.06323
v 0.05799 0.79238 -0.05137
v 0.06902 0.79729 -0.03623
v 0.07592 0.79981 -0.01871
v 0.29191 0.91681 0.00000
v 0.28322 0.91614 0.06981
v 0.25512 0.90489 0.13390
v 0.21012 0.88163 0.18615
v 0.15307 0.84631 0.22177
v 0.09059 0.80235 0.23887
v 0.02920 0.76089 0.24050
v -0.02826 0.73622 0.23271
v -0.08257 0.73128 0.21771
v -0.13243 0.73220 0.19186
v -0.17208 0.72205 0.15245
v -0.19680 0.69804 0.10329
v -0.20840 0.67410 0.05137
v -0.21265 0.66788 0.00000
v -0.21192 0.68550 -0.05223
v -0.20202 0.71656 -0.10603
v -0.17678 0.74174 -0.15661
v -0.13515 0.74723 -0.19580
v -0.08305 0.73558 -0.21899
v -0.02778 0.72383 -0.22879
v 0.02804 0.73051 -0.23090
v 0.08610 0.76261 -0.22704
v 0.14670 0.81106 -0.21253
v 0.20449 0.85801 -0.18116
v 0.25114 0.89080 -0.13181
v 0.28097 0.90884 -0.06925
v 0.46800 0.83506 0.00000
v 0.46752 0.85917 0.11523
v 0.43152 0.86956 0.22648
v 0.36411 0.86798 0.32257
v 0.27304 0.85762 0.39556
v 0.16133 0.81179 0.42539
v 0.04929 0.72968 0.40596
v -0.04565 0.67576 0.37596
v -0.13668 0.68778 0.36041
v -0.23078 0.72490 0.33435
v -0.30741 0.73280 0.27234
v -0.34812 0.70150 0.18271
v -0.36183 0.66494 0.08918
v -0.36697 0.65478 0.00000
v -0.36411 0.66913 -0.08975
v -0.33971 0.68457 -0.17829
v -0.28355 0.67594 -0.25121
v -0.20212 0.63487 -0.29282
v -0.11658 0.58660 -0.30739
v -0.03840 0.56849 -0.31628
v 0.03969 0.58748 -0.32685
v 0.12646 0.63634 -0.33345
v 0.22560 0.70863 -0.32684
v 0.32444 0.77341 -0.28743
v 0.39859 0.80322 -0.20920
v 0.44345 0.81494 -0.10930
v 0.59702 0.70621 0.00000
v 0.59316 0.72263 0.14620
v 0.55585 0.74256 0.29173
v 0.47350 0.74828 0.41949
v 0.37089 0.77231 0.53733
v 0.23576 0.78646 0.62166
v 0.07417 0.72782 0.61081
v -0.06809 0.66824 0.56081
v -0.19715 0.65764 0.51984
v -0.31541 0.65677 0.45695
v -0.41212 0.65128 0.36511
v -0.47528 0.63492 0.24945
v -0.51805 0.63113 0.12769
v -0.54396 0.64344 0.00000
v -0.52365 0.63796 -0.12907
v -0.44490 0.59434 -0.23350
v -0.34019 0.53760 -0.30138
v -0.24007 0.49990 -0.34780
v -0.14871 0.49605 -0.39211
v -0.05618 0.55134 -0.46270
v 0.05998 0.58863 -0.49400
v 0.16820 0.56107 -0.44350
v 0.26984 0.56189 -0.39093
v 0.39174 0.61907 -0.34705
v 0.50207 0.67071 -0.26351
v 0.57121 0.69589 -0.14079
v 0.81843 0.67629 0.00000
v 0.76681 0.65260 0.18900
v 0.72721 0.67865 0.38167
v 0.61906 0.68342 0.54844
v 0.45730 0.66520 0.66251
v 0.29405 0.68521 0.77534
v 0.10275 0.70439 0.84621
v -0.10455 0.71675 0.86106
v -0.29433 0.68587 0.77608
v -0.42016 0.61119 0.60871
v -0.52000 0.57406 0.46068
v -0.58999 0.55060 0.30965
v -0.64279 0.54705 0.15843
v -0.66396 0.54865 0.00000
v -0.63757 0.54262 -0.15715
v -0.52306 0.48814 -0.27452
v -0.40142 0.44315 -0.35563
v -0.33601 0.48877 -0.48679
v -0.21787 0.50769 -0.57447
v -0.08016 0.54951 -0.66015
v 0.08274 0.56722 -0.68142
v 0.21845 0.50904 -0.57599
v 0.32980 0.47974 -0.47780
v 0.47084 0.51979 -0.41713
v 0.63843 0.59580 -0.33508
v 0.78657 0.66942 -0.19387
v 0.98128 0.56702 0.00000
v 0.91706 0.54577 0.22603
v 0.86968 0.56754 0.45644
v 0.76364 0.58952 0.67653
v 0.55966 0.56929 0.81081
v 0.34127 0.55610 0.89984
v 0.11896 0.57026 0.97970
v -0.12899 0.61834 1.06229
v -0.36657 0.59734 0.96657
v -0.51634 0.52522 0.74805
v -0.64769 0.50000 0.57380
v -0.72047 0.47017 0.37813
v -0.76503 0.45529 0.18856
v -0.73366 0.42393 0.00000
v -0.72604 0.43209 -0.17895
v -0.63715 0.41580 -0.33440
v -0.50292 0.38824 -0.44555
v -0.45140 0.45917 -0.65397
v -0.26321 0.42891 -0.69403
v -0.08730 0.41852 -0.71902
v 0.09105 0.43646 -0.74983
v 0.28054 0.45714 -0.73972
v 0.44805 0.45575 -0.64911
v 0.57105 0.44084 -0.50590
v 0.70511 0.46014 -0.37007
v 0.88456 0.52642 -0.21802
v 1.01346 0.38968 0.00000
v 0.97709 0.38694 0.24083
v 0.97821 0.42478 0.51340
v 0.88356 0.45388 0.78277
v 0.66540 0.45039 0.96400
v 0.41695 0.45211 1.09941
v 0.13220 0.42171 1.08875
v -0.13384 0.42695 1.10229
v -0.37557 0.40724 0.99029
v -0.51656 0.34965 0.74837
v -0.67057 0.34447 0.59407
v -0.77338 0.33584 0.40590
v -0.86452 0.34236 0.21309
v -0.78435 0.30159 0.00000
v -0.74294 0.29422 -0.18312
v -0.72460 0.31466 -0.38030
v -0.60229 0.30939 -0.53358
v -0.50401 0.34115 -0.73019
v -0.27975 0.30334 -0.73765
v -0.09254 0.29519 -0.76211
v 0.09549 0.30461 -0.78642
v 0.31338 0.33981 -0.82632
v 0.49748 0.33673 -0.72072
v 0.66468 0.34145 -0.58886
v 0.81017 0.35181 -0.42521
v 0.91817 0.36361 -0.22631
v 0.96471 0.21305 0.00000
v 0.99112 0.22544 0.24429
v 1.05368 0.26280 0.55301
v 0.97667 0.28816 0.86525
v 0.68708 0.26712 0.99541
v 0.45192 0.28145 1.19161
v 0.15434 0.28278 1.27111
v -0.14439 0.26456 1.18920
v -0.40902 0.25473 1.07848
v -0.55420 0.21545 0.80289
v -0.71251 0.21022 0.63123
v -0.84250 0.21013 0.44218
v -0.99022 0.22523 0.24407
v -0.90121 0.19903 0.00000
v -0.79273 0.18031 -0.19539
v -0.76561 0.19095 -0.40182
v -0.61095 0.18026 -0.54125
v -0.50668 0.19698 -0.73405
v -0.32798 0.20426 -0.86481
v -0.10716 0.19634 -0.88254
v 0.10208 0.18704 -0.84073
v 0.30050 0.18715 -0.79236
v 0.44557 0.17323 -0.64553
v 0.66928 0.19747 -0.59293
v 0.84418 0.21055 -0.44306
v 0.87720 0.19952 -0.21621
v 0.91475 0.06595 0.00000
v 0.99423 0.07382 0.24505
v 0.94883 0.07725 0.49799
v 0.92778 0.08936 0.82194
v 0.68943 0.08750 0.99882
v 0.43034 0.08749 1.13470
v 0.16133 0.09650 1.32871
v -0.15031 0.08990 1.23794
v -0.43717 0.08888 1.15273
v -0.63588 0.08070 0.92123
v -0.81345 0.07835 0.72065
v -0.91773 0.07472 0.48166
v -1.03130 0.07658 0.25419
v -0.94622 0.06822 0.00000
v -0.94836 0.07042 -0.23375
v -0.88253 0.07186 -0.46318
v -0.64039 0.06168 -0.56734
v -0.54176 0.06876 -0.78487
v -0.36294 0.07379 -0.95699
v -0.12319 0.07368 -1.01455
v 0.11949 0.07147 -0.98411
v 0.32178 0.06542 -0.84848
v 0.44599 0.05660 -0.64613
v 0.63363 0.06103 -0.56135
v 0.78870 0.06422 -0.41394
v 0.79131 0.05876 -0.19504
v 0.83452 -0.06016 0.00000
v 0.92755 -0.06887 0.22862
v 0.81842 -0.06664 0.42954
v 0.84165 -0.08106 0.74564
v 0.71604 -0.09087 1.03736
v 0.40678 -0.08270 1.07258
v 0.14104 -0.08436 1.16156
v -0.14260 -0.08529 1.17440
v -0.41324 -0.08401 1.08961
v -0.60231 -0.07644 0.87260
v -0.79989 -0.07704 0.70864
v -0.89230 -0.07265 0.46831
v -0.99736 -0.07406 0.24583
v -0.92042 -0.06636 0.00000
v -1.02321 -0.07598 -0.25220
v -0.93183 -0.07587 -0.48906
v -0.75825 -0.07303 -0.67175
v -0.61461 -0.07800 -0.89041
v -0.35314 -0.07180 -0.93115
v -0.12441 -0.07441 -1.02463
v 0.12267 -0.07337 -1.01024
v 0.34996 -0.07115 -0.92278
v 0.48217 -0.06119 -0.69854
v 0.62171 -0.05988 -0.55079
v 0.76251 -0.06208 -0.40019
v 0.72540 -0.05386 -0.17879
v 0.76317 -0.16854 0.00000
v 0.84870 -0.19304 0.20919
v 0.76933 -0.19188 0.40377
v 0.74211 -0.21896 0.65746
v 0.60512 -0.23525 0.87666
v 0.36150 -0.22514 0.95319
v 0.12201 -0.22355 1.00487
v -0.12774 -0.23404 1.05202
v -0.39113 -0.24359 1.03131
v -0.57489 -0.22350 0.83287
v -0.75979 -0.22417 0.67311
v -0.82672 -0.20620 0.43390
v -0.97399 -0.22154 0.24007
v -0.94649 -0.20903 0.00000
v -0.96277 -0.21899 -0.23730
v -0.86217 -0.21504 -0.45250
v -0.78871 -0.23271 -0.69873
v -0.58999 -0.22937 -0.85475
v -0.36184 -0.22535 -0.95409
v -0.12590 -0.23068 -1.03690
v 0.11355 -0.20805 -0.93518
v 0.34479 -0.21473 -0.90914
v 0.48308 -0.18780 -0.69986
v 0.58652 -0.17305 -0.51961
v 0.66566 -0.16603 -0.34937
v 0.62006 -0.14104 -0.15283
v 0.80091 -0.30796 0.00000
v 0.78194 -0.30966 0.19273
v 0.64964 -0.28210 0.34096
v 0.57936 -0.29761 0.51327
v 0.43643 -0.29541 0.63228
v 0.29824 -0.32339 0.78639
v 0.11587 -0.36964 0.95431
v -0.11237 -0.35846 0.92547
v -0.35677 -0.38685 0.94071
v -0.56557 -0.38282 0.81937
v -0.70508 -0.36220 0.62464
v -0.79294 -0.34433 0.41617
v -0.96956 -0.38396 0.23898
v -0.95016 -0.36534 0.00000
v -0.88617 -0.35094 -0.21842
v -0.82896 -0.35997 -0.43507
v -0.72535 -0.37261 -0.64260
v -0.51142 -0.34616 -0.74092
v -0.36918 -0.40031 -0.97344
v -0.13332 -0.42528 -1.09797
v 0.11699 -0.37320 -0.96352
v 0.32317 -0.35042 -0.85213
v 0.43952 -0.29750 -0.63675
v 0.53324 -0.27392 -0.47241
v 0.62512 -0.27146 -0.32809
v 0.66407 -0.26298 -0.16368
v 0.71809 -0.41494 0.00000
v 0.67539 -0.40194 0.16647
v 0.57293 -0.37389 0.30070
v 0.49856 -0.38487 0.44168
v 0.36594 -0.37224 0.53016
v 0.25367 -0.41337 0.66888
v 0.10451 -0.50103 0.86075
v -0.09708 -0.46538 0.79952
v -0.29816 -0.48586 0.78619
v -0.49616 -0.50470 0.71882
v -0.62295 -0.48091 0.55189
v -0.80291 -0.52397 0.42140
v -0.95074 -0.56581 0.23434
v -0.88586 -0.51188 0.00000
v -0.84024 -0.50005 -0.20710
v -0.80823 -0.52744 -0.42419
v -0.66814 -0.51579 -0.59192
v -0.46280 -0.47076 -0.67049
v -0.31199 -0.50838 -0.82264
v -0.11323 -0.54280 -0.93252
v 0.10420 -0.49951 -0.85815
v 0.28159 -0.45886 -0.74250
v 0.40266 -0.40959 -0.58336
v 0.49964 -0.38571 -0.44264
v 0.61801 -0.40330 -0.32435
v 0.67612 -0.40238 -0.16665
v 0.52059 -0.43018 0.00000
v 0.52811 -0.44945 0.13017
v 0.52181 -0.48697 0.27387
v 0.45117 -0.49808 0.39970
v 0.32730 -0.47611 0.47418
v 0.21899 -0.51031 0.57743
v 0.08331 -0.57113 0.68612
v -0.07847 -0.53794 0.64626
v -0.23825 -0.55519 0.62821
v -0.40156 -0.58412 0.58176
v -0.53457 -0.59015 0.47359
v -0.71023 -0.66281 0.37276
v -0.78373 -0.66701 0.19317
v -0.73766 -0.60956 0.00000
v -0.76022 -0.64699 -0.18738
v -0.74424 -0.69455 -0.39061
v -0.59174 -0.65326 -0.52424
v -0.39009 -0.56745 -0.56515
v -0.23355 -0.54424 -0.61583
v -0.08145 -0.55836 -0.67078
v 0.07785 -0.53370 -0.64116
v 0.22619 -0.52708 -0.59641
v 0.34986 -0.50892 -0.50686
v 0.42685 -0.47123 -0.37815
v 0.51060 -0.47651 -0.26798
v 0.53832 -0.45815 -0.13268
v 0.37504 -0.44363 0.00000
v 0.36587 -0.44573 0.09018
v 0.37893 -0.50621 0.19888
v 0.34256 -0.54135 0.30348
v 0.25777 -0.53675 0.37344
v 0.16565 -0.55257 0.43679
v 0.05948 -0.58369 0.48985
v -0.06114 -0.60003 0.50356
v -0.19075 -0.63629 0.50296
v -0.31374 -0.65330 0.45453
v -0.41262 -0.65206 0.36555
v -0.50950 -0.68063 0.26740
v -0.55888 -0.68087 0.13775
v -0.57016 -0.67444 0.00000
v -0.59064 -0.71957 -0.14558
v -0.55290 -0.73862 -0.29018
v -0.43281 -0.68397 -0.38344
v -0.30159 -0.62801 -0.43693
v -0.18822 -0.62784 -0.49628
v -0.06405 -0.62852 -0.52747
v 0.06068 -0.59549 -0.49975
v 0.17458 -0.58235 -0.46033
v 0.27283 -0.56811 -0.39526
v 0.34099 -0.53887 -0.30209
v 0.39899 -0.53301 -0.20940
v 0.41187 -0.50177 -0.10152
v 0.31325 -0.55894 0.00000
v 0.28239 -0.51895 0.06960
v 0.26349 -0.53096 0.13829
v 0.23515 -0.56057 0.20833
v 0.18350 -0.57638 0.26584
v 0.11716 -0.58954 0.30893
v 0.04212 -0.62357 0.34693
v -0.04626 -0.68478 0.38098
v -0.14925 -0.75101 0.39354
v -0.24952 -0.78376 0.36150
v -0.32731 -0.78025 0.28997
v -0.37947 -0.76469 0.19916
v -0.40388 -0.74222 0.09955
v -0.40231 -0.71785 0.00000
v -0.38028 -0.69885 -0.09373
v -0.33710 -0.67929 -0.17692
v -0.28034 -0.66827 -0.24836
v -0.21832 -0.68575 -0.31629
v -0.14187 -0.71385 -0.37407
v -0.04796 -0.70993 -0.39497
v 0.04577 -0.67751 -0.37694
v 0.13060 -0.65715 -0.34436
v 0.20930 -0.65743 -0.30323
v 0.27873 -0.66445 -0.24693
v 0.32885 -0.66268 -0.17260
v 0.34020 -0.62519 -0.08385
v 0.21155 -0.66441 0.00000
v 0.19708 -0.63749 0.04858
v 0.17548 -0.62241 0.09210
v 0.14770 -0.61974 0.13085
v 0.11309 -0.62523 0.16383
v 0.07221 -0.63956 0.19040
v 0.02564 -0.66804 0.21115
v -0.02730 -0.71123 0.22481
v -0.08569 -0.75895 0.22595
v -0.14389 -0.79556 0.20847
v -0.19324 -0.81084 0.17120
v -0.22668 -0.80402 0.11897
v -0.24127 -0.78044 0.05947
v -0.23836 -0.74863 0.00000
v -0.22221 -0.71878 -0.05477
v -0.19736 -0.70003 -0.10358
v -0.16598 -0.69643 -0.14704
v -0.12714 -0.70291 -0.18419
v -0.07987 -0.70740 -0.21060
v -0.02693 -0.70181 -0.22183
v 0.02652 -0.69088 -0.21837
v 0.07747 -0.68614 -0.20427
v 0.12525 -0.69246 -0.18145
v 0.16760 -0.70326 -0.14848
v 0.19903 -0.70596 -0.10446
v 0.21388 -0.69184 -0.05272
v 0.06090 -0.62292 0.00000
v 0.05892 -0.62069 0.01452
v 0.05360 -0.61919 0.02813
v 0.04531 -0.61916 0.04014
v 0.03450 -0.62115 0.04998
v 0.02168 -0.62544 0.05718
v 0.00745 -0.63185 0.06133
v -0.00754 -0.63974 0.06209
v -0.02247 -0.64802 0.05924
v -0.03640 -0.65541 0.05274
v -0.04835 -0.66075 0.04284
v -0.05743 -0.66336 0.03014
v -0.06296 -0.66319 0.01552
v -0.06460 -0.66074 0.00000
v -0.06235 -0.65682 -0.01537
v -0.05646 -0.65224 -0.02964
v -0.04739 -0.64761 -0.04199
v -0.03572 -0.64323 -0.05176
v -0.02216 -0.63923 -0.05844
v -0.00749 -0.63575 -0.06170
v 0.00746 -0.63293 -0.06143
v 0.02187 -0.63086 -0.05767
v 0.03496 -0.62945 -0.05065
v 0.04598 -0.62832 -0.04074
v 0.05428 -0.62700 -0.02849
v 0.05935 -0.62518 -0.01463
v 0.00000 0.75336 0.00000
v 0.00000 -0.82000 0.00000
vn -0.4897 0.8719 0.0035
vn -0.5048 0.8633 -0.0025
vn -0.5219 0.8530 -0.0027
vn -0.5403 0.8415 0.0051
vn -0.5541 0.8323 0.0180
vn -0.5317 0.8467 0.0198
vn -0.4254 0.9049 0.0119
vn -0.2587 0.9659 0.0091
vn -0.1726 0.9848 -0.0204
vn -0.2101 0.9722 -0.1038
vn -0.2829 0.9419 -0.1814
vn -0.3299 0.9310 -0.1561
vn -0.3524 0.9356 0.0211
vn -0.3584 0.9022 0.2401
vn -0.3452 0.8779 0.3318
vn -0.2933 0.9128 0.2843
vn -0.1919 0.9701 0.1484
vn -0.0962 0.9954 -0.0033
vn -0.1065 0.9882 -0.1105
vn -0.2495 0.9528 -0.1730
vn -0.4097 0.8892 -0.2036
vn -0.4841 0.8534 -0.1934
vn -0.4883 0.8625 -0.1326
vn -0.4723 0.8801 -0.0483
vn -0.4683 0.8835 0.0055
vn -0.4772 0.8787 0.0134
vn 0.0086 0.9962 -0.0861
vn -0.0826 0.9962 0.0263
vn -0.1983 0.9754 0.0960
vn -0.3235 0.9399 0.1092
vn -0.4698 0.8753 0.1144
vn -0.5685 0.8132 0.1243
vn -0.5028 0.8509 0.1520
vn -0.2031 0.9569 0.2075
vn 0.0132 0.9863 0.1647
vn -0.0391 0.9990 -0.0211
vn -0.1671 0.9555 -0.2430
vn -0.2133 0.9194 -0.3304
vn -0.1980 0.9620 -0.1879
vn -0.2086 0.9697 0.1273
vn -0.2812 0.9134 0.2942
vn -0.3435 0.9215 0.1814
vn -0.2744 0.9464 -0.1705
vn -0.0904 0.8566 -0.5081
vn -0.0167 0.7660 -0.6427
vn -0.1103 0.7430 -0.6602
vn -0.2936 0.7177 -0.6315
vn -0.3934 0.6925 -0.6047
vn -0.3403 0.7526 -0.5637
vn -0.1834 0.8738 -0.4504
vn -0.0289 0.9542 -0.2978
vn 0.0353 0.9818 -0.1867
vn 0.5900 0.7874 -0.1789
vn 0.5623 0.8269 -0.0042
vn 0.4196 0.8831 0.2100
vn 0.2521 0.9267 0.2786
vn -0.0694 0.9630 0.2605
vn -0.4510 0.8728 0.1869
vn -0.5281 0.8418 0.1117
vn -0.2419 0.9560 0.1657
vn 0.0615 0.9439 0.3245
vn -0.0394 0.9442 0.3270
vn -0.2801 0.9590 0.0438
vn -0.2948 0.9364 -0.1902
vn -0.1589 0.9740 -0.1617
vn -0.0997 0.9950 -0.0110
vn -0.2221 0.9750 -0.0120
vn -0.3828 0.8805 -0.2797
vn -0.3098 0.7114 -0.6308
vn -0.0905 0.6189 -0.7802
vn -0.0678 0.7088 -0.7021
vn -0.1419 0.8518 -0.5044
vn -0.1901 0.8170 -0.5445
vn -0.2290 0.5939 -0.7713
vn -0.1125 0.5058 -0.8553
vn 0.1581 0.6351 -0.7561
vn 0.4168 0.7698 -0.4833
vn 0.5373 0.7946 -0.2828
vn 0.4221 0.9043 -0.0639
vn 0.5457 0.8369 -0.0434
vn 0.4731 0.8693 0.1434
vn 0.4196 0.8542 0.3070
vn 0.4005 0.8377 0.3712
vn -0.0213 0.9459 0.3238
vn -0.3006 0.9519 0.0597
vn -0.2145 0.9715 -0.1010
vn -0.1252 0.9920 -0.0142
vn -0.2124 0.9490 0.2331
vn -0.4299 0.8716 0.2355
vn -0.5027 0.8555 0.1240
vn -0.4404 0.8947 0.0751
vn -0.3849 0.9228 -0.0169
vn -0.3281 0.8778 -0.3490
vn -0.3080 0.7133 -0.6295
vn -0.3194 0.7014 -0.6372
vn -0.1190 0.8761 -0.4672
vn -0.2981 0.9302 -0.2141
vn -0.3083 0.9463 -0.0976
vn 0.0618 0.9943 -0.0872
vn 0.2240 0.9169 -0.3303
vn 0.0824 0.6323 -0.7703
vn 0.1450 0.5648 -0.8124
vn 0.2781 0.7719 -0.5716
vn 0.3216 0.9225 -0.2132
vn 0.3470 0.9352 0.0711
vn 0.4444 0.8936 0.0627
vn 0.4377 0.8941 0.0944
vn 0.2456 0.9221 0.2990
vn 0.2960 0.8528 0.4303
vn 0.3415 0.7718 0.5365
vn 0.1317 0.8941 0.4281
vn -0.1378 0.9795 0.1472
vn -0.3283 0.9446 0.0016
vn -0.3989 0.9158 0.0466
vn -0.4467 0.8896 0.0953
vn -0.5193 0.8460 0.1208
vn -0.6235 0.7789 0.0675
vn -0.7323 0.6809 0.0118
vn -0.5555 0.7391 -0.3809
vn -0.2787 0.7339 -0.6194
vn -0.4450 0.8442 -0.2988
vn -0.2180 0.9635 -0.1555
vn -0.2444 0.9341 -0.2604
vn -0.3264 0.8466 -0.4204
vn 0.0884 0.9227 -0.3751
vn 0.3320 0.9346 -0.1274
vn 0.2033 0.9343 -0.2927
vn 0.1553 0.6744 -0.7219
vn 0.2923 0.5888 -0.7536
vn 0.3884 0.8362 -0.3871
vn 0.8453 0.5315 -0.0542
vn 0.7412 0.6564 0.1408
vn 0.6545 0.7438 0.1358
vn 0.4068 0.8386 0.3623
vn 0.1949 0.8697 0.4534
vn 0.1710 0.8109 0.5597
vn 0.2798 0.5813 0.7641
vn -0.0583 0.5769 0.8147
vn -0.6234 0.5639 0.5417
vn -0.7441 0.5262 0.4115
vn -0.7054 0.6440 0.2960
vn -0.6747 0.7192 0.1660
vn -0.7031 0.7050 -0.0929
vn -0.8829 0.4568 -0.1091
vn -0.8616 0.4665 -0.1999
vn -0.4252 0.7599 -0.4917
vn -0.4993 0.8290 -0.2519
vn -0.3759 0.8495 -0.3702
vn -0.1046 0.7037 -0.7027
vn -0.2122 0.4484 -0.8683
vn -0.1311 0.4089 -0.9031
vn 0.2541 0.7573 -0.6016
vn 0.3309 0.8841 -0.3299
vn 0.3356 0.8548 -0.3958
vn 0.4876 0.5590 -0.6706
vn 0.7163 0.3424 -0.6080
vn 0.9849 0.0153 -0.1724
vn 0.9674 0.2516 0.0295
vn 0.8508 0.5146 0.1064
vn 0.6170 0.6182 0.4870
vn 0.4555 0.6006 0.6571
vn 0.1311 0.7690 0.6257
vn -0.0310 0.7191 0.6942
vn -0.1294 0.4246 0.8961
vn -0.6679 0.3056 0.6786
vn -0.7959 0.2056 0.5695
vn -0.7760 0.2754 0.5675
vn -0.7776 0.4795 0.4067
vn -0.7413 0.6683 -0.0618
vn -0.7701 0.5518 -0.3201
vn -0.9488 0.2937 -0.1163
vn -0.8095 0.4070 -0.4232
vn -0.7302 0.4886 -0.4775
vn -0.5531 0.5642 -0.6129
vn -0.0139 0.6337 -0.7735
vn -0.0539 0.5326 -0.8447
vn -0.1084 0.2304 -0.9670
vn 0.2415 0.0666 -0.9681
vn 0.4892 0.0963 -0.8668
vn 0.6122 0.4486 -0.6512
vn 0.7527 0.4538 -0.4769
vn 0.8694 0.0541 -0.4911
vn 0.9387 -0.2308 -0.2559
vn 0.9915 -0.1195 -0.0515
vn 0.9947 -0.0967 0.0337
vn 0.7680 0.1912 0.6112
vn 0.5276 0.1311 0.8393
vn 0.4841 0.1491 0.8622
vn -0.0729 0.5247 0.8482
vn -0.2478 0.4705 0.8469
vn -0.5950 0.5039 0.6262
vn -0.6985 0.5772 0.4230
vn -0.6704 0.5551 0.4924
vn -0.7408 0.4609 0.4886
vn -0.8574 0.5100 0.0693
vn -0.7224 0.6158 -0.3146
vn -0.6744 0.7040 -0.2226
vn -0.7154 0.5368 -0.4472
vn -0.7881 0.2613 -0.5574
vn -0.7451 0.2842 -0.6033
vn -0.2018 0.6423 -0.7394
vn 0.0549 0.7612 -0.6462
vn 0.1941 0.6443 -0.7397
vn 0.4619 0.1368 -0.8763
vn 0.4541 -0.2925 -0.8416
vn 0.5174 -0.2519 -0.8178
vn 0.8834 -0.1518 -0.4433
vn 0.9001 -0.2865 -0.3281
vn 0.8362 -0.4161 -0.3572
vn 0.9393 -0.3427 0.0152
vn 0.8642 -0.5021 0.0320
vn 0.8460 -0.3566 0.3964
vn 0.4481 -0.0280 0.8936
vn 0.4843 -0.3481 0.8027
vn 0.1622 -0.2979 0.9407
vn -0.2841 -0.0358 0.9581
vn -0.5585 0.0132 0.8294
vn -0.7559 0.2293 0.6132
vn -0.7922 0.3648 0.4893
vn -0.8708 0.2342 0.4323
vn -0.9918 0.0872 0.0929
vn -0.9794 0.1714 -0.1068
vn -0.7878 0.5848 -0.1932
vn -0.5847 0.6658 -0.4635
vn -0.5483 0.6341 -0.5452
vn -0.6722 0.4219 -0.6084
vn -0.4676 0.2451 -0.8493
vn -0.0300 0.4423 -0.8963
vn 0.2825 0.5631 -0.7766
vn 0.6012 0.5162 -0.6100
vn 0.6782 0.2286 -0.6984
vn 0.5325 -0.1951 -0.8237
vn 0.8580 -0.3623 -0.3642
vn 0.8285 -0.4931 -0.2655
vn 0.7718 -0.4899 -0.4053
vn 0.8743 -0.4849 0.0204
vn 0.8204 -0.5611 0.1102
vn 0.7695 -0.6229 0.1407
vn 0.4875 -0.4907 0.7222
vn 0.2279 -0.4563 0.8601
vn 0.2082 -0.6542 0.7271
vn -0.1260 -0.5191 0.8453
vn -0.5041 -0.3493 0.7899
vn -0.6686 -0.3295 0.6667
vn -0.7972 -0.2944 0.5271
vn -0.8682 -0.2724 0.4148
vn -0.9858 -0.1344 0.1003
vn -0.9946 -0.1035 -0.0115
vn -0.9948 -0.0868 -0.0534
vn -0.8891 0.0761 -0.4514
vn -0.6364 0.4135 -0.6512
vn -0.5480 0.3697 -0.7504
vn -0.3485 0.1453 -0.9260
vn -0.0799 -0.0696 -0.9944
vn 0.1782 -0.1196 -0.9767
vn 0.6583 0.1738 -0.7324
vn 0.8111 0.1963 -0.5510
vn 0.6944 -0.2374 -0.6793
vn 0.8255 -0.5114 -0.2390
vn 0.7977 -0.5669 -0.2056
vn 0.8431 -0.3105 -0.4391
vn 0.7998 -0.6003 -0.0021
vn 0.6920 -0.7003 0.1751
vn 0.5622 -0.8204 0.1044
vn 0.3544 -0.8862 0.2983
vn 0.1983 -0.7369 0.6463
vn 0.1411 -0.6290 0.7645
vn 0.0650 -0.6649 0.7441
vn -0.3862 -0.4526 0.8037
vn -0.7077 -0.2689 0.6533
vn -0.7767 -0.3686 0.5108
vn -0.8325 -0.3114 0.4583
vn -0.9622 -0.1443 0.2309
vn -0.9923 -0.0433 -0.1164
vn -0.9422 -0.3260 -0.0781
vn -0.8557 -0.4006 -0.3275
vn -0.7158 -0.3346 -0.6129
vn -0.6187 -0.3280 -0.7139
vn -0.3459 0.1078 -0.9321
vn 0.0475 0.1945 -0.9797
vn 0.2651 -0.1556 -0.9516
vn 0.5560 -0.3512 -0.7533
vn 0.8351 -0.2754 -0.4762
vn 0.7991 -0.3812 -0.4649
vn 0.8890 -0.4202 -0.1820
vn 0.9244 -0.2811 -0.2579
vn 0.9256 -0.2025 -0.3197
vn 0.8069 -0.5265 0.2676
vn 0.5903 -0.7301 0.3444
vn 0.4232 -0.8787 0.2208
vn 0.3247 -0.9265 0.1901
vn 0.4518 -0.8263 0.3364
vn 0.1793 -0.6284 0.7569
vn 0.0445 -0.7003 0.7125
vn -0.1102 -0.7202 0.6850
vn -0.6350 -0.4913 0.5962
vn -0.7416 -0.3983 0.5397
vn -0.8355 -0.1452 0.5299
vn -0.9437 -0.1610 0.2891
vn -0.9667 -0.1801 -0.1816
vn -0.9397 -0.2924 -0.1775
vn -0.8711 -0.2946 -0.3929
vn -0.6176 -0.4765 -0.6257
vn -0.5356 -0.6666 -0.5185
vn -0.5678 -0.5483 -0.6140
vn 0.0238 -0.3000 -0.9536
vn 0.4875 -0.2067 -0.8483
vn 0.6226 -0.4249 -0.6572
vn 0.8081 -0.4346 -0.3977
vn 0.7729 -0.4224 -0.4735
vn 0.9009 -0.2290 -0.3686
vn 0.9445 0.0002 -0.3286
vn 0.5330 -0.8303 -0.1626
vn 0.5637 -0.7936 0.2288
vn 0.6502 -0.5901 0.4786
vn 0.5687 -0.6516 0.5019
vn 0.5121 -0.7196 0.4689
vn 0.6479 -0.7020 0.2957
vn 0.2822 -0.8160 0.5045
vn -0.1052 -0.8138 0.5715
vn 0.0187 -0.8590 0.5116
vn -0.3377 -0.8170 0.4673
vn -0.4773 -0.6723 0.5658
vn -0.6601 -0.4526 0.5995
vn -0.8293 -0.5248 0.1921
vn -0.8333 -0.5231 -0.1787
vn -0.9087 -0.3915 -0.1453
vn -0.8420 -0.3387 -0.4199
vn -0.4559 -0.5114 -0.7284
vn -0.3039 -0.7324 -0.6092
vn -0.4004 -0.8874 -0.2286
vn -0.0435 -0.9491 -0.3120
vn 0.3618 -0.8313 -0.4220
vn 0.5186 -0.7403 -0.4278
vn 0.7370 -0.5823 -0.3433
vn 0.6390 -0.6093 -0.4695
vn 0.6896 -0.5983 -0.4079
vn 0.7595 -0.6258 -0.1777
vn 0.1237 -0.9923 -0.0090
vn 0.1867 -0.9675 -0.1707
vn 0.4790 -0.8753 0.0667
vn 0.4739 -0.7674 0.4319
vn 0.4187 -0.7511 0.5105
vn 0.5468 -0.7945 0.2642
vn 0.2804 -0.9238 0.2608
vn -0.1129 -0.8979 0.4254
vn 0.0258 -0.8849 0.4651
vn -0.1174 -0.9103 0.3969
vn -0.1928 -0.8725 0.4489
vn -0.2208 -0.8788 0.4231
vn -0.3809 -0.9242 0.0299
vn -0.4841 -0.8713 -0.0800
vn -0.5976 -0.7965 0.0922
vn -0.5152 -0.8190 -0.2528
vn -0.1331 -0.7615 -0.6343
vn -0.0092 -0.7600 -0.6498
vn -0.1777 -0.9235 -0.3398
vn -0.0129 -0.9808 -0.1948
vn 0.1806 -0.9630 -0.2000
vn 0.2618 -0.9309 -0.2546
vn 0.5440 -0.8027 -0.2443
vn 0.5532 -0.7882 -0.2696
vn 0.4369 -0.8816 -0.1785
vn 0.3681 -0.9194 0.1386
vn 0.4630 -0.8114 0.3569
vn 0.2656 -0.9344 -0.2374
vn 0.2710 -0.9079 -0.3198
vn 0.2472 -0.9688 0.0167
vn 0.2171 -0.9359 0.2776
vn 0.3668 -0.9148 0.1695
vn 0.3465 -0.9230 0.1674
vn 0.1434 -0.8783 0.4561
vn 0.0246 -0.7764 0.6298
vn -0.2568 -0.7992 0.5434
vn -0.3360 -0.8518 0.4019
vn -0.1510 -0.9509 0.2703
vn -0.1633 -0.9866 0.0012
vn -0.2097 -0.9778 -0.0042
vn -0.1527 -0.9730 0.1732
vn -0.0157 -0.9994 -0.0324
vn 0.1148 -0.9447 -0.3071
vn 0.0214 -0.8940 -0.4476
vn -0.1394 -0.8576 -0.4950
vn 0.0648 -0.8655 -0.4967
vn 0.2799 -0.8570 -0.4328
vn 0.2596 -0.8865 -0.3830
vn 0.4533 -0.8286 -0.3284
vn 0.6386 -0.7168 -0.2800
vn 0.6667 -0.7345 -0.1264
vn 0.6427 -0.6927 0.3272
vn 0.6843 -0.4702 0.5573
vn 0.6957 -0.6382 0.3296
vn 0.5518 -0.8248 -0.1231
vn 0.3868 -0.9196 -0.0693
vn 0.2931 -0.9440 0.1515
vn 0.3928 -0.9038 0.1698
vn 0.5266 -0.8319 0.1752
vn 0.5153 -0.7885 0.3357
vn 0.3308 -0.8075 0.4884
vn -0.1047 -0.8697 0.4824
vn -0.4324 -0.8532 0.2916
vn -0.4226 -0.9006 0.1015
vn -0.3529 -0.9261 -0.1338
vn -0.2291 -0.9495 -0.2143
vn -0.0221 -0.9962 -0.0844
vn 0.1116 -0.9933 -0.0307
vn 0.0646 -0.9970 -0.0417
vn -0.1401 -0.9861 -0.0889
vn -0.1757 -0.9650 -0.1946
vn 0.1136 -0.9469 -0.3009
vn 0.3215 -0.8917 -0.3187
vn 0.2263 -0.9136 -0.3377
vn 0.2273 -0.8957 -0.3821
vn 0.4485 -0.8199 -0.3559
vn 0.6539 -0.7469 -0.1209
vn 0.7347 -0.5873 0.3395
vn 0.2928 -0.7926 0.5349
vn 0.3535 -0.7846 0.5093
vn 0.3901 -0.8819 0.2649
vn 0.3510 -0.9329 0.0807
vn 0.3148 -0.9481 0.0445
vn 0.3982 -0.9171 0.0175
vn 0.5478 -0.8366 -0.0069
vn 0.6220 -0.7830 0.0046
vn 0.5804 -0.8141 0.0205
vn 0.4154 -0.9096 -0.0121
vn 0.1929 -0.9748 -0.1124
vn 0.0485 -0.9707 -0.2352
vn 0.0060 -0.9372 -0.3487
vn 0.0458 -0.9199 -0.3896
vn 0.1101 -0.9434 -0.3127
vn 0.1139 -0.9792 -0.1677
vn 0.0313 -0.9995 -0.0060
vn -0.0549 -0.9902 0.1287
vn -0.0141 -0.9847 0.1734
vn 0.1303 -0.9797 0.1522
vn 0.1833 -0.9760 0.1177
vn 0.0406 -0.9977 0.0539
vn -0.1105 -0.9932 -0.0371
vn -0.1082 -0.9927 -0.0540
vn 0.0089 -0.9971 0.0751
vn 0.1789 -0.9233 0.3398
vn 0.1355 -0.9327 0.3343
vn 0.2009 -0.9039 0.3777
vn 0.2656 -0.9029 0.3380
vn 0.3209 -0.9050 0.2792
vn 0.3539 -0.9032 0.2428
vn 0.3956 -0.8967 0.1986
vn 0.4688 -0.8740 0.1276
vn 0.5306 -0.8457 0.0562
vn 0.5354 -0.8446 -0.0064
vn 0.4834 -0.8719 -0.0788
vn 0.4015 -0.9013 -0.1625
vn 0.3161 -0.9174 -0.2419
vn 0.2380 -0.9209 -0.3087
vn 0.1735 -0.9186 -0.3550
vn 0.1272 -0.9236 -0.3617
vn 0.0926 -0.9469 -0.3080
vn 0.0604 -0.9784 -0.1979
vn 0.0489 -0.9949 -0.0884
vn 0.0927 -0.9951 -0.0352
vn 0.1708 -0.9850 -0.0247
vn 0.2028 -0.9790 -0.0224
vn 0.1399 -0.9899 -0.0248
vn 0.0293 -0.9991 -0.0316
vn -0.0356 -0.9993 -0.0099
vn -0.0185 -0.9971 0.0733
vn 0.0553 -0.9762 0.2099
vn -0.4307 0.8945 0.1201
vn 0.3018 -0.9532 -0.0175
vt 0.6563 2.0989
vt 0.6512 2.0923
vt 0.6368 2.0803
vt 0.6144 2.0639
vt 0.5858 2.0446
vt 0.5529 2.0245
vt 0.5177 2.0052
vt 0.4825 1.9881
vt 0.4489 1.9736
vt 0.4188 1.9619
vt 0.3937 1.9531
vt 0.3747 1.9478
vt 0.3627 1.9467
vt 0.3582 1.9507
vt 0.3614 1.9597
vt 0.3725 1.9723
vt 0.3912 1.9868
vt 0.4166 2.0014
vt 0.4475 2.0153
vt 0.4820 2.0289
vt 0.5182 2.0427
vt 0.5540 2.0572
vt 0.5873 2.0717
vt 0.6160 2.0848
vt 0.6380 2.0946
vt 0.6518 2.0996
vt 1.0838 2.3336
vt 1.0664 2.3323
vt 1.0102 2.3098
vt 0.9202 2.2633
vt 0.8061 2.1926
vt 0.6812 2.1047
vt 0.5584 2.0218
vt 0.4435 1.9724
vt 0.3349 1.9626
vt 0.2351 1.9644
vt 0.1558 1.9441
vt 0.1064 1.8961
vt 0.0832 1.8482
vt 0.0747 1.8358
vt 0.0762 1.8710
vt 0.0960 1.9331
vt 0.1464 1.9835
vt 0.2297 1.9945
vt 0.3339 1.9712
vt 0.4444 1.9477
vt 0.5561 1.9610
vt 0.6722 2.0252
vt 0.7934 2.1221
vt 0.9090 2.2160
vt 1.0023 2.2816
vt 1.0619 2.3177
vt 1.4360 2.1701
vt 1.4350 2.2183
vt 1.3630 2.2391
vt 1.2282 2.2360
vt 1.0461 2.2152
vt 0.8227 2.1236
vt 0.5986 1.9594
vt 0.4087 1.8515
vt 0.2266 1.8756
vt 0.0384 1.9498
vt -0.1148 1.9656
vt -0.1962 1.9030
vt -0.2237 1.8299
vt -0.2339 1.8096
vt -0.2282 1.8383
vt -0.1794 1.8691
vt -0.0671 1.8519
vt 0.0958 1.7697
vt 0.2668 1.6732
vt 0.4232 1.6370
vt 0.5794 1.6750
vt 0.7529 1.7727
vt 0.9512 1.9173
vt 1.1489 2.0468
vt 1.2972 2.1064
vt 1.3869 2.1299
vt 1.6940 1.9124
vt 1.6863 1.9453
vt 1.6117 1.9851
vt 1.4470 1.9966
vt 1.2418 2.0446
vt 0.9715 2.0729
vt 0.6483 1.9556
vt 0.3638 1.8365
vt 0.1057 1.8153
vt -0.1308 1.8135
vt -0.3242 1.8026
vt -0.4506 1.7698
vt -0.5361 1.7623
vt -0.5879 1.7869
vt -0.5473 1.7759
vt -0.3898 1.6887
vt -0.1804 1.5752
vt 0.0199 1.4998
vt 0.2026 1.4921
vt 0.3876 1.6027
vt 0.6200 1.6773
vt 0.8364 1.6221
vt 1.0397 1.6238
vt 1.2835 1.7381
vt 1.5041 1.8414
vt 1.6424 1.8918
vt 2.1369 1.8526
vt 2.0336 1.8052
vt 1.9544 1.8573
vt 1.7381 1.8668
vt 1.4146 1.8304
vt 1.0881 1.8704
vt 0.7055 1.9088
vt 0.2909 1.9335
vt -0.0887 1.8717
vt -0.3403 1.7224
vt -0.5400 1.6481
vt -0.6800 1.6012
vt -0.7856 1.5941
vt -0.8279 1.5973
vt -0.7751 1.5852
vt -0.5461 1.4763
vt -0.3028 1.3863
vt -0.1720 1.4775
vt 0.0643 1.5154
vt 0.3397 1.5990
vt 0.6655 1.6344
vt 0.9369 1.5181
vt 1.1596 1.4595
vt 1.4417 1.5396
vt 1.7769 1.6916
vt 2.0731 1.8388
vt 2.4626 1.6340
vt 2.3341 1.5915
vt 2.2394 1.6351
vt 2.0273 1.6790
vt 1.6193 1.6386
vt 1.1825 1.6122
vt 0.7379 1.6405
vt 0.2420 1.7367
vt -0.2331 1.6947
vt -0.5327 1.5504
vt -0.7954 1.5000
vt -0.9409 1.4403
vt -1.0301 1.4106
vt -0.9673 1.3479
vt -0.9521 1.3642
vt -0.7743 1.3316
vt -0.5058 1.2765
vt -0.4028 1.4183
vt -0.0264 1.3578
vt 0.3254 1.3370
vt 0.6821 1.3729
vt 1.0611 1.4143
vt 1.3961 1.4115
vt 1.6421 1.3817
vt 1.9102 1.4203
vt 2.2691 1.5528
vt 2.5269 1.2794
vt 2.4542 1.2739
vt 2.4564 1.3496
vt 2.2671 1.4078
vt 1.8308 1.4008
vt 1.3339 1.4042
vt 0.7644 1.3434
vt 0.2323 1.3539
vt -0.2511 1.3145
vt -0.5331 1.1993
vt -0.8411 1.1889
vt -1.0468 1.1717
vt -1.2290 1.1847
vt -1.0687 1.1032
vt -0.9859 1.0884
vt -0.9492 1.1293
vt -0.7046 1.1188
vt -0.5080 1.1823
vt -0.0595 1.1067
vt 0.3149 1.0904
vt 0.6910 1.1092
vt 1.1268 1.1796
vt 1.4950 1.1735
vt 1.8294 1.1829
vt 2.1203 1.2036
vt 2.3363 1.2272
vt 2.4294 0.9261
vt 2.4822 0.9509
vt 2.6074 1.0256
vt 2.4533 1.0763
vt 1.8742 1.0342
vt 1.4038 1.0629
vt 0.8087 1.0656
vt 0.2112 1.0291
vt -0.3180 1.0095
vt -0.6084 0.9309
vt -0.9250 0.9204
vt -1.1850 0.9203
vt -1.4804 0.9505
vt -1.3024 0.8981
vt -1.0855 0.8606
vt -1.0312 0.8819
vt -0.7219 0.8605
vt -0.5134 0.8940
vt -0.1560 0.9085
vt 0.2857 0.8927
vt 0.7042 0.8741
vt 1.1010 0.8743
vt 1.3911 0.8465
vt 1.8386 0.8949
vt 2.1884 0.9211
vt 2.2544 0.8990
vt 2.3295 0.6319
vt 2.4885 0.6476
vt 2.3977 0.6545
vt 2.3556 0.6787
vt 1.8789 0.6750
vt 1.3607 0.6750
vt 0.8227 0.6930
vt 0.1994 0.6798
vt -0.3743 0.6778
vt -0.7718 0.6614
vt -1.1269 0.6567
vt -1.3355 0.6494
vt -1.5626 0.6532
vt -1.3924 0.6364
vt -1.3967 0.6408
vt -1.2651 0.6437
vt -0.7808 0.6234
vt -0.5835 0.6375
vt -0.2259 0.6476
vt 0.2536 0.6474
vt 0.7390 0.6429
vt 1.1436 0.6308
vt 1.3920 0.6132
vt 1.7673 0.6221
vt 2.0774 0.6284
vt 2.0826 0.6175
vt 2.1690 0.3797
vt 2.3551 0.3623
vt 2.1368 0.3667
vt 2.1833 0.3379
vt 1.9321 0.3183
vt 1.3136 0.3346
vt 0.7821 0.3313
vt 0.2148 0.3294
vt -0.3265 0.3320
vt -0.7046 0.3471
vt -1.0998 0.3459
vt -1.2846 0.3547
vt -1.4947 0.3519
vt -1.3408 0.3673
vt -1.5464 0.3480
vt -1.3637 0.3483
vt -1.0165 0.3539
vt -0.7292 0.3440
vt -0.2063 0.3564
vt 0.2512 0.3512
vt 0.7453 0.3533
vt 1.1999 0.3577
vt 1.4643 0.3776
vt 1.7434 0.3802
vt 2.0250 0.3758
vt 1.9508 0.3923
vt 2.0263 0.1629
vt 2.1974 0.1139
vt 2.0387 0.1162
vt 1.9842 0.0621
vt 1.7102 0.0295
vt 1.2230 0.0497
vt 0.7440 0.0529
vt 0.2445 0.0319
vt -0.2823 0.0128
vt -0.6498 0.0530
vt -1.0196 0.0517
vt -1.1534 0.0876
vt -1.4480 0.0569
vt -1.3930 0.0819
vt -1.4255 0.0620
vt -1.2243 0.0699
vt -1.0774 0.0346
vt -0.6800 0.0413
vt -0.2237 0.0493
vt 0.2482 0.0386
vt 0.7271 0.0839
vt 1.1896 0.0705
vt 1.4662 0.1244
vt 1.6730 0.1539
vt 1.8313 0.1679
vt 1.7401 0.2179
vt 2.1018 -0.1159
vt 2.0639 -0.1193
vt 1.7993 -0.0642
vt 1.6587 -0.0952
vt 1.3729 -0.0908
vt 1.0965 -0.1468
vt 0.7317 -0.2393
vt 0.2753 -0.2169
vt -0.2135 -0.2737
vt -0.6311 -0.2656
vt -0.9102 -0.2244
vt -1.0859 -0.1887
vt -1.4391 -0.2679
vt -1.4003 -0.2307
vt -1.2723 -0.2019
vt -1.1579 -0.2199
vt -0.9507 -0.2452
vt -0.5228 -0.1923
vt -0.2384 -0.3006
vt 0.2334 -0.3506
vt 0.7340 -0.2464
vt 1.1463 -0.2008
vt 1.3790 -0.0950
vt 1.5665 -0.0478
vt 1.7502 -0.0429
vt 1.8281 -0.0260
vt 1.9362 -0.3299
vt 1.8508 -0.3039
vt 1.6459 -0.2478
vt 1.4971 -0.2697
vt 1.2319 -0.2445
vt 1.0073 -0.3267
vt 0.7090 -0.5021
vt 0.3058 -0.4308
vt -0.0963 -0.4717
vt -0.4923 -0.5094
vt -0.7459 -0.4618
vt -1.1058 -0.5479
vt -1.4015 -0.6316
vt -1.2717 -0.5238
vt -1.1805 -0.5001
vt -1.1165 -0.5549
vt -0.8363 -0.5316
vt -0.4256 -0.4415
vt -0.1240 -0.5168
vt 0.2735 -0.5856
vt 0.7084 -0.4990
vt 1.0632 -0.4177
vt 1.3053 -0.3192
vt 1.4993 -0.2714
vt 1.7360 -0.3066
vt 1.8522 -0.3048
vt 1.5412 -0.3604
vt 1.5562 -0.3989
vt 1.5436 -0.4739
vt 1.4023 -0.4962
vt 1.1546 -0.4522
vt 0.9380 -0.5206
vt 0.6666 -0.6423
vt 0.3431 -0.5759
vt 0.0235 -0.6104
vt -0.3031 -0.6682
vt -0.5691 -0.6803
vt -0.9205 -0.8256
vt -1.0675 -0.8340
vt -0.9753 -0.7191
vt -1.0204 -0.7940
vt -0.9885 -0.8891
vt -0.6835 -0.8065
vt -0.2802 -0.6349
vt 0.0329 -0.5885
vt 0.3371 -0.6167
vt 0.6557 -0.5674
vt 0.9524 -0.5542
vt 1.1997 -0.5178
vt 1.3537 -0.4425
vt 1.5212 -0.4530
vt 1.5766 -0.4163
vt 1.2501 -0.3873
vt 1.2317 -0.3915
vt 1.2579 -0.5124
vt 1.1851 -0.5827
vt 1.0155 -0.5735
vt 0.8313 -0.6051
vt 0.6190 -0.6674
vt 0.3777 -0.7001
vt 0.1185 -0.7726
vt -0.1275 -0.8066
vt -0.3252 -0.8041
vt -0.5190 -0.8613
vt -0.6178 -0.8617
vt -0.6403 -0.8489
vt -0.6813 -0.9391
vt -0.6058 -0.9772
vt -0.3656 -0.8679
vt -0.1032 -0.7560
vt 0.1236 -0.7557
vt 0.3719 -0.7570
vt 0.6214 -0.6910
vt 0.8492 -0.6647
vt 1.0457 -0.6362
vt 1.1820 -0.5777
vt 1.2980 -0.5660
vt 1.3237 -0.5035
vt 1.1265 -0.6179
vt 1.0648 -0.5379
vt 1.0270 -0.5619
vt 0.9703 -0.6211
vt 0.8670 -0.6528
vt 0.7343 -0.6791
vt 0.5842 -0.7471
vt 0.4075 -0.8696
vt 0.2015 -1.0020
vt 0.0010 -1.0675
vt -0.1546 -1.0605
vt -0.2589 -1.0294
vt -0.3078 -0.9844
vt -0.3046 -0.9357
vt -0.2606 -0.8977
vt -0.1742 -0.8586
vt -0.0607 -0.8365
vt 0.0634 -0.8715
vt 0.2163 -0.9277
vt 0.4041 -0.9199
vt 0.5915 -0.8550
vt 0.7612 -0.8143
vt 0.9186 -0.8149
vt 1.0575 -0.8289
vt 1.1577 -0.8254
vt 1.1804 -0.7504
vt 0.9231 -0.8288
vt 0.8942 -0.7750
vt 0.8510 -0.7448
vt 0.7954 -0.7395
vt 0.7262 -0.7505
vt 0.6444 -0.7791
vt 0.5513 -0.8361
vt 0.4454 -0.9225
vt 0.3286 -1.0179
vt 0.2122 -1.0911
vt 0.1135 -1.1217
vt 0.0466 -1.1080
vt 0.0175 -1.0609
vt 0.0233 -0.9973
vt 0.0556 -0.9376
vt 0.1053 -0.9001
vt 0.1680 -0.8929
vt 0.2457 -0.9058
vt 0.3403 -0.9148
vt 0.4461 -0.9036
vt 0.5530 -0.8818
vt 0.6549 -0.8723
vt 0.7505 -0.8849
vt 0.8352 -0.9065
vt 0.8981 -0.9119
vt 0.9278 -0.8837
vt 0.6218 -0.7458
vt 0.6178 -0.7414
vt 0.6072 -0.7384
vt 0.5906 -0.7383
vt 0.5690 -0.7423
vt 0.5434 -0.7509
vt 0.5149 -0.7637
vt 0.4849 -0.7795
vt 0.4551 -0.7960
vt 0.4272 -0.8108
vt 0.4033 -0.8215
vt 0.3851 -0.8267
vt 0.3741 -0.8264
vt 0.3708 -0.8215
vt 0.3753 -0.8136
vt 0.3871 -0.8045
vt 0.4052 -0.7952
vt 0.4286 -0.7865
vt 0.4557 -0.7785
vt 0.4850 -0.7715
vt 0.5149 -0.7659
vt 0.5437 -0.7617
vt 0.5699 -0.7589
vt 0.5920 -0.7566
vt 0.6086 -0.7540
vt 0.6187 -0.7504
vt 0.5000 2.0067
vt 0.5000 -1.1400
f 1/1/1 2/2/2 28/28/28
f 1/1/1 28/28/28 27/27/27
f 2/2/2 3/3/3 29/29/29
f 2/2/2 29/29/29 28/28/28
f 3/3/3 4/4/4 30/30/30
f 3/3/3 30/30/30 29/29/29
f 4/4/4 5/5/5 31/31/31
f 4/4/4 31/31/31 30/30/30
f 5/5/5 6/6/6 32/32/32
f 5/5/5 32/32/32 31/31/31
f 6/6/6 7/7/7 33/33/33
f 6/6/6 33/33/33 32/32/32
f 7/7/7 8/8/8 34/34/34
f 7/7/7 34/34/34 33/33/33
f 8/8/8 9/9/9 35/35/35
f 8/8/8 35/35/35 34/34/34
f 9/9/9 10/10/10 36/36/36
f 9/9/9 36/36/36 35/35/35
f 10/10/10 11/11/11 37/37/37
f 10/10/10 37/37/37 36/36/36
f 11/11/11 12/12/12 38/38/38
f 11/11/11 38/38/38 37/37/37
f 12/12/12 13/13/13 39/39/39
f 12/12/12 39/39/39 38/38/38
f 13/13/13 14/14/14 40/40/40
f 13/13/13 40/40/40 39/39/39
f 14/14/14 15/15/15 41/41/41
f 14/14/14 41/41/41 40/40/40
f 15/15/15 16/16/16 42/42/42
f 15/15/15 42/42/42 41/41/41
f 16/16/16 17/17/17 43/43/43
f 16/16/16 43/43/43 42/42/42
f 17/17/17 18/18/18 44/44/44
f 17/17/17 44/44/44 43/43/43
f 18/18/18 19/19/19 45/45/45
f 18/18/18 45/45/45 44/44/44
f 19/19/19 20/20/20 46/46/46
f 19/19/19 46/46/46 45/45/45
f 20/20/20 21/21/21 47/47/47
f 20/20/20 47/47/47 46/46/46
f 21/21/21 22/22/22 48/48/48
f 21/21/21 48/48/48 47/47/47
f 22/22/22 23/23/23 49/49/49
f 22/22/22 49/49/49 48/48/48
f 23/23/23 24/24/24 50/50/50
f 23/23/23 50/50/50 49/49/49
f 24/24/24 25/25/25 51/51/51
f 24/24/24 51/51/51 50/50/50
f 25/25/25 26/26/26 52/52/52
f 25/25/25 52/52/52 51/51/51
f 26/26/26 1/1/1 27/27/27
f 26/26/26 27/27/27 52/52/52
f 27/27/27 28/28/28 54/54/54
f 27/27/27 54/54/54 53/53/53
f 28/28/28 29/29/29 55/55/55
f 28/28/28 55/55/55 54/54/54
f 29/29/29 30/30/30 56/56/56
f 29/29/29 56/56/56 55/55/55
f 30/30/30 31/31/31 57/57/57
f 30/30/30 57/57/57 56/56/56
f 31/31/31 32/32/32 58/58/58
f 31/31/31 58/58/58 57/57/57
f 32/32/32 33/33/33 59/59/59
f 32/32/32 59/59/59 58/58/58
f 33/33/33 34/34/34 60/60/60
f 33/33/33 60/60/60 59/59/59
f 34/34/34 35/35/35 61/61/61
f 34/34/34 61/61/61 60/60/60
f 35/35/35 36/36/36 62/62/62
f 35/35/35 62/62/62 61/61/61
f 36/36/36 37/37/37 63/63/63
f 36/36/36 63/63/63 62/62/62
f 37/37/37 38/38/38 64/64/64
f 37/37/37 64/64/64 63/63/63
f 38/38/38 39/39/39 65/65/65
f 38/38/38 65/65/65 64/64/64
f 39/39/39 40/40/40 66/66/66
f 39/39/39 66/66/66 65/65/65
f 40/40/40 41/41/41 67/67/67
f 40/40/40 67/67/67 66/66/66
f 41/41/41 42/42/42 68/68/68
f 41/41/41 68/68/68 67/67/67
f 42/42/42 43/43/43 69/69/69
f 42/42/42 69/69/69 68/68/68
f 43/43/43 44/44/44 70/70/70
f 43/43/43 70/70/70 69/69/69
f 44/44/44 45/45/45 71/71/71
f 44/44/44 71/71/71 70/70/70
f 45/45/45 46/46/46 72/72/72
f 45/45/45 72/72/72 71/71/71
f 46/46/46 47/47/47 73/73/73
f 46/46/46 73/73/73 72/72/72
f 47/47/47 48/48/48 74/74/74
f 47/47/47 74/74/74 73/73/73
f 48/48/48 49/49/49 75/75/75
f 48/48/48 75/75/75 74/74/74
f 49/49/49 50/50/50 76/76/76
f 49/49/49 76/76/76 75/75/75
f 50/50/50 51/51/51 77/77/77
f 50/50/50 77/77/77 76/76/76
f 51/51/51 52/52/52 78/78/78
f 51/51/51 78/78/78 77/77/77
f 52/52/52 27/27/27 53/53/53
f 52/52/52 53/53/53 78/78/78
f 53/53/53 54/54/54 80/80/80
f 53/53/53 80/80/80 79/79/79
f 54/54/54 55/55/55 81/81/81
f 54/54/54 81/81/81 80/80/80
f 55/55/55 56/56/56 82/82/82
f 55/55/55 82/82/82 81/81/81
f 56/56/56 57/57/57 83/83/83
f 56/56/56 83/83/83 82/82/82
f 57/57/57 58/58/58 84/84/84
f 57/57/57 84/84/84 83/83/83
f 58/58/58 59/59/59 85/85/85
f 58/58/58 85/85/85 84/84/84
f 59/59/59 60/60/60 86/86/86
f 59/59/59 86/86/86 85/85/85
f 60/60/60 61/61/61 87/87/87
f 60/60/60 87/87/87 86/86/86
f 61/61/61 62/62/62 88/88/88
f 61/61/61 88/88/88 87/87/87
f 62/62/62 63/63/63 89/89/89
f 62/62/62 89/89/89 88/88/88
f 63/63/63 64/64/64 90/90/90
f 63/63/63 90/90/90 89/89/89
f 64/64/64 65/65/65 91/91/91
f 64/64/64 91/91/91 90/90/90
f 65/65/65 66/66/66 92/92/92
f 65/65/65 92/92/92 91/91/91
f 66/66/66 67/67/67 93/93/93
f 66/66/66 93/93/93 92/92/92
f 67/67/67 68/68/68 94/94/94
f 67/67/67 94/94/94 93/93/93
f 68/68/68 69/69/69 95/95/95
f 68/68/68 95/95/95 94/94/94
f 69/69/69 70/70/70 96/96/96
f 69/69/69 96/96/96 95/95/95
f 70/70/70 71/71/71 97/97/97
f 70/70/70 97/97/97 96/96/96
f 71/71/71 72/72/72 98/98/98
f 71/71/71 98/98/98 97/97/97
f 72/72/72 73/73/73 99/99/99
f 72/72/72 99/99/99 98/98/98
f 73/73/73 74/74/74 100/100/100
f 73/73/73 100/100/100 99/99/99
f 74/74/74 75/75/75 101/101/101
f 74/74/74 101/101/101 100/100/100
f 75/75/75 76/76/76 102/102/102
f 75/75/75 102/102/102 101/101/101
f 76/76/76 77/77/77 103/103/103
f 76/76/76 103/103/103 102/102/102
f 77/77/77 78/78/78 104/104/104
f 77/77/77 104/104/104 103/103/103
f 78/78/78 53/53/53 79/79/79
f 78/78/78 79/79/79 104/104/104
f 79/79/79 80/80/80 106/106/106
f 79/79/79 106/106/106 105/105/105
f 80/80/80 81/81/81 107/107/107
f 80/80/80 107/107/107 106/106/106
f 81/81/81 82/82/82 108/108/108
f 81/81/81 108/108/108 107/107/107
f 82/82/82 83/83/83 109/109/109
f 82/82/82 109/109/109 108/108/108
f 83/83/83 84/84/84 110/110/110
f 83/83/83 110/110/110 109/109/109
f 84/84/84 85/85/85 111/111/111
f 84/84/84 111/111/111 110/110/110
f 85/85/85 86/86/86 112/112/112
f 85/85/85 112/112/112 111/111/111
f 86/86/86 87/87/87 113/113/113
f 86/86/86 113/113/113 112/112/112
f 87/87/87 88/88/88 114/114/114
f 87/87/87 114/114/114 113/113/113
f 88/88/88 89/89/89 115/115/115
f 88/88/88 115/115/115 114/114/114
f 89/89/89 90/90/90 116/116/116
f 89/89/89 116/116/116 115/115/115
f 90/90/90 91/91/91 117/117/117
f 90/90/90 117/117/117 116/116/116
f 91/91/91 92/92/92 118/118/118
f 91/91/91 118/118/118 117/117/117
f 92/92/92 93/93/93 119/119/119
f 92/92/92 119/119/119 118/118/118
f 93/93/93 94/94/94 120/120/120
f 93/93/93 120/120/120 119/119/119
f 94/94/94 95/95/95 121/121/121
f 94/94/94 121/121/121 120/120/120
f 95/95/95 96/96/96 122/122/122
f 95/95/95 122/122/122 121/121/121
f 96/96/96 97/97/97 123/123/123
f 96/96/96 123/123/123 122/122/122
f 97/97/97 98/98/98 124/124/124
f 97/97/97 124/124/124 123/123/123
f 98/98/98 99/99/99 125/125/125
f 98/98/98 125/125/125 124/124/124
f 99/99/99 100/100/100 126/126/126
f 99/99/99 126/126/126 125/125/125
f 100/100/100 101/101/101 127/127/127
f 100/100/100 127/127/127 126/126/126
f 101/101/101 102/102/102 128/128/128
f 101/101/101 128/128/128 127/127/127
f 102/102/102 103/103/103 129/129/129
f 102/102/102 129/129/129 128/128/128
f 103/103/103 104/104/104 130/130/130
f 103/103/103 130/130/130 129/129/129
f 104/104/104 79/79/79 105/105/105
f 104/104/104 105/105/105 130/130/130
f 105/105/105 106/106/106 132/132/132
f 105/105/105 132/132/132 131/131/131
f 106/106/106 107/107/107 133/133/133
f 106/106/106 133/133/133 132/132/132
f 107/107/107 108/108/108 134/134/134
f 107/107/107 134/134/134 133/133/133
f 108/108/108 109/109/109 135/135/135
f 108/108/108 135/135/135 134/134/134
f 109/109/109 110/110/110 136/136/136
f 109/109/109 136/136/136 135/135/135
f 110/110/110 111/111/111 137/137/137
f 110/110/110 137/137/137 136/136/136
f 111/111/111 112/112/112 138/138/138
f 111/111/111 138/138/138 137/137/137
f 112/112/112 113/113/113 139/139/139
f 112/112/112 139/139/139 138/138/138
f 113/113/113 114/114/114 140/140/140
f 113/113/113 140/140/140 139/139/139
f 114/114/114 115/115/115 141/141/141
f 114/114/114 141/141/141 140/140/140
f 115/115/115 116/116/116 142/142/142
f 115/115/115 142/142/142 141/141/141
f 116/116/116 117/117/117 143/143/143
f 116/116/116 143/143/143 142/142/142
f 117/117/117 118/118/118 144/144/144
f 117/117/117 144/144/144 143/143/143
f 118/118/118 119/119/119 145/145/145
f 118/118/118 145/145/145 144/144/144
f 119/119/119 120/120/120 146/146/146
f 119/119/119 146/146/146 145/145/145
f 120/120/120 121/121/121 147/147/147
f 120/120/120 147/147/147 146/146/146
f 121/121/121 122/122/122 148/148/148
f 121/121/121 148/148/148 147/147/147
f 122/122/122 123/123/123 149/149/149
f 122/122/122 149/149/149 148/148/148
f 123/123/123 124/124/124 150/150/150
f 123/123/123 150/150/150 149/149/149
f 124/124/124 125/125/125 151/151/151
f 124/124/124 151/151/151 150/150/150
f 125/125/125 126/126/126 152/152/152
f 125/125/125 152/152/152 151/151/151
f 126/126/126 127/127/127 153/153/153
f 126/126/126 153/153/153 152/152/152
f 127/127/127 128/128/128 154/154/154
f 127/127/127 154/154/154 153/153/153
f 128/128/128 129/129/129 155/155/155
f 128/128/128 155/155/155 154/154/154
f 129/129/129 130/130/130 156/156/156
f 129/129/129 156/156/156 155/155/155
f 130/130/130 105/105/105 131/131/131
f 130/130/130 131/131/131 156/156/156
f 131/131/131 132/132/132 158/158/158
f 131/131/131 158/158/158 157/157/157
f 132/132/132 133/133/133 159/159/159
f 132/132/132 159/159/159 158/158/158
f 133/133/133 134/134/134 160/160/160
f 133/133/133 160/160/160 159/159/159
f 134/134/134 135/135/135 161/161/161
f 134/134/134 161/161/161 160/160/160
f 135/135/135 136/136/136 162/162/162
f 135/135/135 162/162/162 161/161/161
f 136/136/136 137/137/137 163/163/163
f 136/136/136 163/163/163 162/162/162
f 137/137/137 138/138/138 164/164/164
f 137/137/137 164/164/164 163/163/163
f 138/138/138 139/139/139 165/165/165
f 138/138/138 165/165/165 164/164/164
f 139/139/139 140/140/140 166/166/166
f 139/139/139 166/166/166 165/165/165
f 140/140/140 141/141/141 167/167/167
f 140/140/140 167/167/167 166/166/166
f 141/141/141 142/142/142 168/168/168
f 141/141/141 168/168/168 167/167/167
f 142/142/142 143/143/143 169/169/169
f 142/142/142 169/169/169 168/168/168
f 143/143/143 144/144/144 170/170/170
f 143/143/143 170/170/170 169/169/169
f 144/144/144 145/145/145 171/171/171
f 144/144/144 171/171/171 170/170/170
f 145/145/145 146/146/146 172/172/172
f 145/145/145 172/172/172 171/171/171
f 146/146/146 147/147/147 173/173/173
f 146/146/146 173/173/173 172/172/172
f 147/147/147 148/148/148 174/174/174
f 147/147/147 174/174/174 173/173/173
f 148/148/148 149/149/149 175/175/175
f 148/148/148 175/175/175 174/174/174
f 149/149/149 150/150/150 176/176/176
f 149/149/149 176/176/176 175/175/175
f 150/150/150 151/151/151 177/177/177
f 150/150/150 177/177/177 176/176/176
f 151/151/151 152/152/152 178/178/178
f 151/151/151 178/178/178 177/177/177
f 152/152/152 153/153/153 179/179/179
f 152/152/152 179/179/179 178/178/178
f 153/153/153 154/154/154 180/180/180
f 153/153/153 180/180/180 179/179/179
f 154/154/154 155/155/155 181/181/181
f 154/154/154 181/181/181 180/180/180
f 155/155/155 156/156/156 182/182/182
f 155/155/155 182/182/182 181/181/181
f 156/156/156 131/131/131 157/157/157
f 156/156/156 157/157/157 182/182/182
f 157/157/157 158/158/158 184/184/184
f 157/157/157 184/184/184 183/183/183
f 158/158/158 159/159/159 185/185/185
f 158/158/158 185/185/185 184/184/184
f 159/159/159 160/160/160 186/186/186
f 159/159/159 186/186/186 185/185/185
f 160/160/160 161/161/161 187/187/187
f 160/160/160 187/187/187 186/186/186
f 161/161/161 162/162/162 188/188/188
f 161/161/161 188/188/188 187/187/187
f 162/162/162 163/163/163 189/189/189
f 162/162/162 189/189/189 188/188/188
f 163/163/163 164/164/164 190/190/190
f 163/163/163 190/190/190 189/189/189
f 164/164/164 165/165/165 191/191/191
f 164/164/164 191/191/191 190/190/190
f 165/165/165 166/166/166 192/192/192
f 165/165/165 192/192/192 191/191/191
f 166/166/166 167/167/167 193/193/193
f 166/166/166 193/193/193 192/192/192
f 167/167/167 168/168/168 194/194/194
f 167/167/167 194/194/194 193/193/193
f 168/168/168 169/169/169 195/195/195
f 168/168/168 195/195/195 194/194/194
f 169/169/169 170/170/170 196/196/196
f 169/169/169 196/196/196 195/195/195
f 170/170/170 171/171/171 197/197/197
f 170/170/170 197/197/197 196/196/196
f 171/171/171 172/172/172 198/198/198
f 171/171/171 198/198/198 197/197/197
f 172/172/172 173/173/173 199/199/199
f 172/172/172 199/199/199 198/198/198
f 173/173/173 174/174/174 200/200/200
f 173/173/173 200/200/200 199/199/199
f 174/174/174 175/175/175 201/201/201
f 174/174/174 201/201/201 200/200/200
f 175/175/175 176/176/176 202/202/202
f 175/175/175 202/202/202 201/201/201
f 176/176/176 177/177/177 203/203/203
f 176/176/176 203/203/203 202/202/202
f 177/177/177 178/178/178 204/204/204
f 177/177/177 204/204/204 203/203/203
f 178/178/178 179/179/179 205/205/205
f 178/178/178 205/205/205 204/204/204
f 179/179/179 180/180/180 206/206/206
f 179/179/179 206/206/206 205/205/205
f 180/180/180 181/181/181 207/207/207
f 180/180/180 207/207/207 206/206/206
f 181/181/181 182/182/182 208/208/208
f 181/181/181 208/208/208 207/207/207
f 182/182/182 157/157/157 183/183/183
f 182/182/182 183/183/183 208/208/208
f 183/183/183 184/184/184 210/210/210
f 183/183/183 210/210/210 209/209/209
f 184/184/184 185/185/185 211/211/211
f 184/184/184 211/211/211 210/210/210
f 185/185/185 186/186/186 212/212/212
f 185/185/185 212/212/212 211/211/211
f 186/186/186 187/187/187 213/213/213
f 186/186/186 213/213/213 212/212/212
f 187/187/187 188/188/188 214/214/214
f 187/187/187 214/214/214 213/213/213
f 188/188/188 189/189/189 215/215/215
f 188/188/188 215/215/215 214/214/214
f 189/189/189 190/190/190 216/216/216
f 189/189/189 216/216/216 215/215/215
f 190/190/190 191/191/191 217/217/217
f 190/190/190 217/217/217 216/216/216
f 191/191/191 192/192/192 218/218/218
f 191/191/191 218/218/218 217/217/217
f 192/192/192 193/193/193 219/219/219
f 192/192/192 219/219/219 218/218/218
f 193/193/193 194/194/194 220/220/220
f 193/193/193 220/220/220 219/219/219
f 194/194/194 195/195/195 221/221/221
f 194/194/194 221/221/221 220/220/220
f 195/195/195 196/196/196 222/222/222
f 195/195/195 222/222/222 221/221/221
f 196/196/196 197/197/197 223/223/223
f 196/196/196 223/223/223 222/222/222
f 197/197/197 198/198/198 224/224/224
f 197/197/197 224/224/224 223/223/223
f 198/198/198 199/199/199 225/225/225
f 198/198/198 225/225/225 224/224/224
f 199/199/199 200/200/200 226/226/226
f 199/199/199 226/226/226 225/225/225
f 200/200/200 201/201/201 227/227/227
f 200/200/200 227/227/227 226/226/226
f 201/201/201 202/202/202 228/228/228
f 201/201/201 228/228/228 227/227/227
f 202/202/202 203/203/203 229/229/229
f 202/202/202 229/229/229 228/228/228
f 203/203/203 204/204/204 230/230/230
f 203/203/203 230/230/230 229/229/229
f 204/204/204 205/205/205 231/231/231
f 204/204/204 231/231/231 230/230/230
f 205/205/205 206/206/206 232/232/232
f 205/205/205 232/232/232 231/231/231
f 206/206/206 207/207/207 233/233/233
f 206/206/206 233/233/233 232/232/232
f 207/207/207 208/208/208 234/234/234
f 207/207/207 234/234/234 233/233/233
f 208/208/208 183/183/183 209/209/209
f 208/208/208 209/209/209 234/234/234
f 209/209/209 210/210/210 236/236/236
f 209/209/209 236/236/236 235/235/235
f 210/210/210 211/211/211 237/237/237
f 210/210/210 237/237/237 236/236/236
f 211/211/211 212/212/212 238/238/238
f 211/211/211 238/238/238 237/237/237
f 212/212/212 213/213/213 239/239/239
f 212/212/212 239/239/239 238/238/238
f 213/213/213 214/214/214 240/240/240
f 213/213/213 240/240/240 239/239/239
f 214/214/214 215/215/215 241/241/241
f 214/214/214 241/241/241 240/240/240
f 215/215/215 216/216/216 242/242/242
f 215/215/215 242/242/242 241/241/241
f 216/216/216 217/217/217 243/243/243
f 216/216/216 243/243/243 242/242/242
f 217/217/217 218/218/218 244/244/244
f 217/217/217 244/244/244 243/243/243
f 218/218/218 219/219/219 245/245/245
f 218/218/218 245/245/245 244/244/244
f 219/219/219 220/220/220 246/246/246
f 219/219/219 246/246/246 245/245/245
f 220/220/220 221/221/221 247/247/247
f 220/220/220 247/247/247 246/246/246
f 221/221/221 222/222/222 248/248/248
f 221/221/221 248/248/248 247/247/247
f 222/222/222 223/223/223 249/249/249
f 222/222/222 249/249/249 248/248/248
f 223/223/223 224/224/224 250/250/250
f 223/223/223 250/250/250 249/249/249
f 224/224/224 225/225/225 251/251/251
f 224/224/224 251/251/251 250/250/250
f 225/225/225 226/226/226 252/252/252
f 225/225/225 252/252/252 251/251/251
f 226/226/226 227/227/227 253/253/253
f 226/226/226 253/253/253 252/252/252
f 227/227/227 228/228/228 254/254/254
f 227/227/227 254/254/254 253/253/253
f 228/228/228 229/229/229 255/255/255
f 228/228/228 255/255/255 254/254/254
f 229/229/229 230/230/230 256/256/256
f 229/229/229 256/256/256 255/255/255
f 230/230/230 231/231/231 257/257/257
f 230/230/230 257/257/257 256/256/256
f 231/231/231 232/232/232 258/258/258
f 231/231/231 258/258/258 257/257/257
f 232/232/232 233/233/233 259/259/259
f 232/232/232 259/259/259 258/258/258
f 233/233/233 234/234/234 260/260/260
f 233/233/233 260/260/260 259/259/259
f 234/234/234 209/209/209 235/235/235
f 234/234/234 235/235/235 260/260/260
f 235/235/235 236/236/236 262/262/262
f 235/235/235 262/262/262 261/261/261
f 236/236/236 237/237/237 263/263/263
f 236/236/236 263/263/263 262/262/262
f 237/237/237 238/238/238 264/264/264
f 237/237/237 264/264/264 263/263/263
f 238/238/238 239/239/239 265/265/265
f 238/238/238 265/265/265 264/264/264
f 239/239/239 240/240/240 266/266/266
f 239/239/239 266/266/266 265/265/265
f 240/240/240 241/241/241 267/267/267
f 240/240/240 267/267/267 266/266/266
f 241/241/241 242/242/242 268/268/268
f 241/241/241 268/268/268 267/267/267
f 242/242/242 243/243/243 269/269/269
f 242/242/242 269/269/269 268/268/268
f 243/243/243 244/244/244 270/270/270
f 243/243/243 270/270/270 269/269/269
f 244/244/244 245/245/245 271/271/271
f 244/244/244 271/271/271 270/270/270
f 245/245/245 246/246/246 272/272/272
f 245/245/245 272/272/272 271/271/271
f 246/246/246 247/247/247 273/273/273
f 246/246/246 273/273/273 272/272/272
f 247/247/247 248/248/248 274/274/274
f 247/247/247 274/274/274 273/273/273
f 248/248/248 249/249/249 275/275/275
f 248/248/248 275/275/275 274/274/274
f 249/249/249 250/250/250 276/276/276
f 249/249/249 276/276/276 275/275/275
f 250/250/250 251/251/251 277/277/277
f 250/250/250 277/277/277 276/276/276
f 251/251/251 252/252/252 278/278/278
f 251/251/251 278/278/278 277/277/277
f 252/252/252 253/253/253 279/279/279
f 252/252/252 279/279/279 278/278/278
f 253/253/253 254/254/254 280/280/280
f 253/253/253 280/280/280 279/279/279
f 254/254/254 255/255/255 281/281/281
f 254/254/254 281/281/281 280/280/280
f 255/255/255 256/256/256 282/282/282
f 255/255/255 282/282/282 281/281/281
f 256/256/256 257/257/257 283/283/283
f 256/256/256 283/283/283 282/282/282
f 257/257/257 258/258/258 284/284/284
f 257/257/257 284/284/284 283/283/283
f 258/258/258 259/259/259 285/285/285
f 258/258/258 285/285/285 284/284/284
f 259/259/259 260/260/260 286/286/286
f 259/259/259 286/286/286 285/285/285
f 260/260/260 235/235/235 261/261/261
f 260/260/260 261/261/261 286/286/286
f 261/261/261 262/262/262 288/288/288
f 261/261/261 288/288/288 287/287/287
f 262/262/262 263/263/263 289/289/289
f 262/262/262 289/289/289 288/288/288
f 263/263/263 264/264/264 290/290/290
f 263/263/263 290/290/290 289/289/289
f 264/264/264 265/265/265 291/291/291
f 264/264/264 291/291/291 290/290/290
f 265/265/265 266/266/266 292/292/292
f 265/265/265 292/292/292 291/291/291
f 266/266/266 267/267/267 293/293/293
f 266/266/266 293/293/293 292/292/292
f 267/267/267 268/268/268 294/294/294
f 267/267/267 294/294/294 293/293/293
f 268/268/268 269/269/269 295/295/295
f 268/268/268 295/295/295 294/294/294
f 269/269/269 270/270/270 296/296/296
f 269/269/269 296/296/296 295/295/295
f 270/270/270 271/271/271 297/297/297
f 270/270/270 297/297/297 296/296/296
f 271/271/271 272/272/272 298/298/298
f 271/271/271 298/298/298 297/297/297
f 272/272/272 273/273/273 299/299/299
f 272/272/272 299/299/299 298/298/298
f 273/273/273 274/274/274 300/300/300
f 273/273/273 300/300/300 299/299/299
f 274/274/274 275/275/275 301/301/301
f 274/274/274 301/301/301 300/300/300
f 275/275/275 276/276/276 302/302/302
f 275/275/275 302/302/302 301/301/301
f 276/276/276 277/277/277 303/303/303
f 276/276/276 303/303/303 302/302/302
f 277/277/277 278/278/278 304/304/304
f 277/277/277 304/304/304 303/303/303
f 278/278/278 279/279/279 305/305/305
f 278/278/278 305/305/305 304/304/304
f 279/279/279 280/280/280 306/306/306
f 279/279/279 306/306/306 305/305/305
f 280/280/280 281/281/281 307/307/307
f 280/280/280 307/307/307 306/306/306
f 281/281/281 282/282/282 308/308/308
f 281/281/281 308/308/308 307/307/307
f 282/282/282 283/283/283 309/309/309
f 282/282/282 309/309/309 308/308/308
f 283/283/283 284/284/284 310/310/310
f 283/283/283 310/310/310 309/309/309
f 284/284/284 285/285/285 311/311/311
f 284/284/284 311/311/311 310/310/310
f 285/285/285 286/286/286 312/312/312
f 285/285/285 312/312/312 311/311/311
f 286/286/286 261/261/261 287/287/287
f 286/286/286 287/287/287 312/312/312
f 287/287/287 288/288/288 314/314/314
f 287/287/287 314/314/314 313/313/313
f 288/288/288 289/289/289 315/315/315
f 288/288/288 315/315/315 314/314/314
f 289/289/289 290/290/290 316/316/316
f 289/289/289 316/316/316 315/315/315
f 290/290/290 291/291/291 317/317/317
f 290/290/290 317/317/317 316/316/316
f 291/291/291 292/292/292 318/318/318
f 291/291/291 318/318/318 317/317/317
f 292/292/292 293/293/293 319/319/319
f 292/292/292 319/319/319 318/318/318
f 293/293/293 294/294/294 320/320/320
f 293/293/293 320/320/320 319/319/319
f 294/294/294 295/295/295 321/321/321
f 294/294/294 321/321/321 320/320/320
f 295/295/295 296/296/296 322/322/322
f 295/295/295 322/322/322 321/321/321
f 296/296/296 297/297/297 323/323/323
f 296/296/296 323/323/323 322/322/322
f 297/297/297 298/298/298 324/324/324
f 297/297/297 324/324/324 323/323/323
f 298/298/298 299/299/299 325/325/325
f 298/298/298 325/325/325 324/324/324
f 299/299/299 300/300/300 326/326/326
f 299/299/299 326/326/326 325/325/325
f 300/300/300 301/301/301 327/327/327
f 300/300/300 327/327/327 326/326/326
f 301/301/301 302/302/302 328/328/328
f 301/301/301 328/328/328 327/327/327
f 302/302/302 303/303/303 329/329/329
f 302/302/302 329/329/329 328/328/328
f 303/303/303 304/304/304 330/330/330
f 303/303/303 330/330/330 329/329/329
f 304/304/304 305/305/305 331/331/331
f 304/304/304 331/331/331 330/330/330
f 305/305/305 306/306/306 332/332/332
f 305/305/305 332/332/332 331/331/331
f 306/306/306 307/307/307 333/333/333
f 306/306/306 333/333/333 332/332/332
f 307/307/307 308/308/308 334/334/334
f 307/307/307 334/334/334 333/333/333
f 308/308/308 309/309/309 335/335/335
f 308/308/308 335/335/335 334/334/334
f 309/309/309 310/310/310 336/336/336
f 309/309/309 336/336/336 335/335/335
f 310/310/310 311/311/311 337/337/337
f 310/310/310 337/337/337 336/336/336
f 311/311/311 312/312/312 338/338/338
f 311/311/311 338/338/338 337/337/337
f 312/312/312 287/287/287 313/313/313
f 312/312/312 313/313/313 338/338/338
f 313/313/313 314/314/314 340/340/340
f 313/313/313 340/340/340 339/339/339
f 314/314/314 315/315/315 341/341/341
f 314/314/314 341/341/341 340/340/340
f 315/315/315 316/316/316 342/342/342
f 315/315/315 342/342/342 341/341/341
f 316/316/316 317/317/317 343/343/343
f 316/316/316 343/343/343 342/342/342
f 317/317/317 318/318/318 344/344/344
f 317/317/317 344/344/344 343/343/343
f 318/318/318 319/319/319 345/345/345
f 318/318/318 345/345/345 344/344/344
f 319/319/319 320/320/320 346/346/346
f 319/319/319 346/346/346 345/345/345
f 320/320/320 321/321/321 347/347/347
f 320/320/320 347/347/347 346/346/346
f 321/321/321 322/322/322 348/348/348
f 321/321/321 348/348/348 347/347/347
f 322/322/322 323/323/323 349/349/349
f 322/322/322 349/349/349 348/348/348
f 323/323/323 324/324/324 350/350/350
f 323/323/323 350/350/350 349/349/349
f 324/324/324 325/325/325 351/351/351
f 324/324/324 351/351/351 350/350/350
f 325/325/325 326/326/326 352/352/352
f 325/325/325 352/352/352 351/351/351
f 326/326/326 327/327/327 353/353/353
f 326/326/326 353/353/353 352/352/352
f 327/327/327 328/328/328 354/354/354
f 327/327/327 354/354/354 353/353/353
f 328/328/328 329/329/329 355/355/355
f 328/328/328 355/355/355 354/354/354
f 329/329/329 330/330/330 356/356/356
f 329/329/329 356/356/356 355/355/355
f 330/330/330 331/331/331 357/357/357
f 330/330/330 357/357/357 356/356/356
f 331/331/331 332/332/332 358/358/358
f 331/331/331 358/358/358 357/357/357
f 332/332/332 333/333/333 359/359/359
f 332/332/332 359/359/359 358/358/358
f 333/333/333 334/334/334 360/360/360
f 333/333/333 360/360/360 359/359/359
f 334/334/334 335/335/335 361/361/361
f 334/334/334 361/361/361 360/360/360
f 335/335/335 336/336/336 362/362/362
f 335/335/335 362/362/362 361/361/361
f 336/336/336 337/337/337 363/363/363
f 336/336/336 363/363/363 362/362/362
f 337/337/337 338/338/338 364/364/364
f 337/337/337 364/364/364 363/363/363
f 338/338/338 313/313/313 339/339/339
f 338/338/338 339/339/339 364/364/364
f 339/339/339 340/340/340 366/366/366
f 339/339/339 366/366/366 365/365/365
f 340/340/340 341/341/341 367/367/367
f 340/340/340 367/367/367 366/366/366
f 341/341/341 342/342/342 368/368/368
f 341/341/341 368/368/368 367/367/367
f 342/342/342 343/343/343 369/369/369
f 342/342/342 369/369/369 368/368/368
f 343/343/343 344/344/344 370/370/370
f 343/343/343 370/370/370 369/369/369
f 344/344/344 345/345/345 371/371/371
f 344/344/344 371/371/371 370/370/370
f 345/345/345 346/346/346 372/372/372
f 345/345/345 372/372/372 371/371/371
f 346/346/346 347/347/347 373/373/373
f 346/346/346 373/373/373 372/372/372
f 347/347/347 348/348/348 374/374/374
f 347/347/347 374/374/374 373/373/373
f 348/348/348 349/349/349 375/375/375
f 348/348/348 375/375/375 374/374/374
f 349/349/349 350/350/350 376/376/376
f 349/349/349 376/376/376 375/375/375
f 350/350/350 351/351/351 377/377/377
f 350/350/350 377/377/377 376/376/376
f 351/351/351 352/352/352 378/378/378
f 351/351/351 378/378/378 377/377/377
f 352/352/352 353/353/353 379/379/379
f 352/352/352 379/379/379 378/378/378
f 353/353/353 354/354/354 380/380/380
f 353/353/353 380/380/380 379/379/379
f 354/354/354 355/355/355 381/381/381
f 354/354/354 381/381/381 380/380/380
f 355/355/355 356/356/356 382/382/382
f 355/355/355 382/382/382 381/381/381
f 356/356/356 357/357/357 383/383/383
f 356/356/356 383/383/383 382/382/382
f 357/357/357 358/358/358 384/384/384
f 357/357/357 384/384/384 383/383/383
f 358/358/358 359/359/359 385/385/385
f 358/358/358 385/385/385 384/384/384
f 359/359/359 360/360/360 386/386/386
f 359/359/359 386/386/386 385/385/385
f 360/360/360 361/361/361 387/387/387
f 360/360/360 387/387/387 386/386/386
f 361/361/361 362/362/362 388/388/388
f 361/361/361 388/388/388 387/387/387
f 362/362/362 363/363/363 389/389/389
f 362/362/362 389/389/389 388/388/388
f 363/363/363 364/364/364 390/390/390
f 363/363/363 390/390/390 389/389/389
f 364/364/364 339/339/339 365/365/365
f 364/364/364 365/365/365 390/390/390
f 365/365/365 366/366/366 392/392/392
f 365/365/365 392/392/392 391/391/391
f 366/366/366 367/367/367 393/393/393
f 366/366/366 393/393/393 392/392/392
f 367/367/367 368/368/368 394/394/394
f 367/367/367 394/394/394 393/393/393
f 368/368/368 369/369/369 395/395/395
f 368/368/368 395/395/395 394/394/394
f 369/369/369 370/370/370 396/396/396
f 369/369/369 396/396/396 395/395/395
f 370/370/370 371/371/371 397/397/397
f 370/370/370 397/397/397 396/396/396
f 371/371/371 372/372/372 398/398/398
f 371/371/371 398/398/398 397/397/397
f 372/372/372 373/373/373 399/399/399
f 372/372/372 399/399/399 398/398/398
f 373/373/373 374/374/374 400/400/400
f 373/373/373 400/400/400 399/399/399
f 374/374/374 375/375/375 401/401/401
f 374/374/374 401/401/401 400/400/400
f 375/375/375 376/376/376 402/402/402
f 375/375/375 402/402/402 401/401/401
f 376/376/376 377/377/377 403/403/403
f 376/376/376 403/403/403 402/402/402
f 377/377/377 378/378/378 404/404/404
f 377/377/377 404/404/404 403/403/403
f 378/378/378 379/379/379 405/405/405
f 378/378/378 405/405/405 404/404/404
f 379/379/379 380/380/380 406/406/406
f 379/379/379 406/406/406 405/405/405
f 380/380/380 381/381/381 407/407/407
f 380/380/380 407/407/407 406/406/406
f 381/381/381 382/382/382 408/408/408
f 381/381/381 408/408/408 407/407/407
f 382/382/382 383/383/383 409/409/409
f 382/382/382 409/409/409 408/408/408
f 383/383/383 384/384/384 410/410/410
f 383/383/383 410/410/410 409/409/409
f 384/384/384 385/385/385 411/411/411
f 384/384/384 411/411/411 410/410/410
f 385/385/385 386/386/386 412/412/412
f 385/385/385 412/412/412 411/411/411
f 386/386/386 387/387/387 413/413/413
f 386/386/386 413/413/413 412/412/412
f 387/387/387 388/388/388 414/414/414
f 387/387/387 414/414/414 413/413/413
f 388/388/388 389/389/389 415/415/415
f 388/388/388 415/415/415 414/414/414
f 389/389/389 390/390/390 416/416/416
f 389/389/389 416/416/416 415/415/415
f 390/390/390 365/365/365 391/391/391
f 390/390/390 391/391/391 416/416/416
f 391/391/391 392/392/392 418/418/418
f 391/391/391 418/418/418 417/417/417
f 392/392/392 393/393/393 419/419/419
f 392/392/392 419/419/419 418/418/418
f 393/393/393 394/394/394 420/420/420
f 393/393/393 420/420/420 419/419/419
f 394/394/394 395/395/395 421/421/421
f 394/394/394 421/421/421 420/420/420
f 395/395/395 396/396/396 422/422/422
f 395/395/395 422/422/422 421/421/421
f 396/396/396 397/397/397 423/423/423
f 396/396/396 423/423/423 422/422/422
f 397/397/397 398/398/398 424/424/424
f 397/397/397 424/424/424 423/423/423
f 398/398/398 399/399/399 425/425/425
f 398/398/398 425/425/425 424/424/424
f 399/399/399 400/400/400 426/426/426
f 399/399/399 426/426/426 425/425/425
f 400/400/400 401/401/401 427/427/427
f 400/400/400 427/427/427 426/426/426
f 401/401/401 402/402/402 428/428/428
f 401/401/401 428/428/428 427/427/427
f 402/402/402 403/403/403 429/429/429
f 402/402/402 429/429/429 428/428/428
f 403/403/403 404/404/404 430/430/430
f 403/403/403 430/430/430 429/429/429
f 404/404/404 405/405/405 431/431/431
f 404/404/404 431/431/431 430/430/430
f 405/405/405 406/406/406 432/432/432
f 405/405/405 432/432/432 431/431/431
f 406/406/406 407/407/407 433/433/433
f 406/406/406 433/433/433 432/432/432
f 407/407/407 408/408/408 434/434/434
f 407/407/407 434/434/434 433/433/433
f 408/408/408 409/409/409 435/435/435
f 408/408/408 435/435/435 434/434/434
f 409/409/409 410/410/410 436/436/436
f 409/409/409 436/436/436 435/435/435
f 410/410/410 411/411/411 437/437/437
f 410/410/410 437/437/437 436/436/436
f 411/411/411 412/412/412 438/438/438
f 411/411/411 438/438/438 437/437/437
f 412/412/412 413/413/413 439/439/439
f 412/412/412 439/439/439 438/438/438
f 413/413/413 414/414/414 440/440/440
f 413/413/413 440/440/440 439/439/439
f 414/414/414 415/415/415 441/441/441
f 414/414/414 441/441/441 440/440/440
f 415/415/415 416/416/416 442/442/442
f 415/415/415 442/442/442 441/441/441
f 416/416/416 391/391/391 417/417/417
f 416/416/416 417/417/417 442/442/442
f 417/417/417 418/418/418 444/444/444
f 417/417/417 444/444/444 443/443/443
f 418/418/418 419/419/419 445/445/445
f 418/418/418 445/445/445 444/444/444
f 419/419/419 420/420/420 446/446/446
f 419/419/419 446/446/446 445/445/445
f 420/420/420 421/421/421 447/447/447
f 420/420/420 447/447/447 446/446/446
f 421/421/421 422/422/422 448/448/448
f 421/421/421 448/448/448 447/447/447
f 422/422/422 423/423/423 449/449/449
f 422/422/422 449/449/449 448/448/448
f 423/423/423 424/424/424 450/450/450
f 423/423/423 450/450/450 449/449/449
f 424/424/424 425/425/425 451/451/451
f 424/424/424 451/451/451 450/450/450
f 425/425/425 426/426/426 452/452/452
f 425/425/425 452/452/452 451/451/451
f 426/426/426 427/427/427 453/453/453
f 426/426/426 453/453/453 452/452/452
f 427/427/427 428/428/428 454/454/454
f 427/427/427 454/454/454 453/453/453
f 428/428/428 429/429/429 455/455/455
f 428/428/428 455/455/455 454/454/454
f 429/429/429 430/430/430 456/456/456
f 429/429/429 456/456/456 455/455/455
f 430/430/430 431/431/431 457/457/457
f 430/430/430 457/457/457 456/456/456
f 431/431/431 432/432/432 458/458/458
f 431/431/431 458/458/458 457/457/457
f 432/432/432 433/433/433 459/459/459
f 432/432/432 459/459/459 458/458/458
f 433/433/433 434/434/434 460/460/460
f 433/433/433 460/460/460 459/459/459
f 434/434/434 435/435/435 461/461/461
f 434/434/434 461/461/461 460/460/460
f 435/435/435 436/436/436 462/462/462
f 435/435/435 462/462/462 461/461/461
f 436/436/436 437/437/437 463/463/463
f 436/436/436 463/463/463 462/462/462
f 437/437/437 438/438/438 464/464/464
f 437/437/437 464/464/464 463/463/463
f 438/438/438 439/439/439 465/465/465
f 438/438/438 465/465/465 464/464/464
f 439/439/439 440/440/440 466/466/466
f 439/439/439 466/466/466 465/465/465
f 440/440/440 441/441/441 467/467/467
f 440/440/440 467/467/467 466/466/466
f 441/441/441 442/442/442 468/468/468
f 441/441/441 468/468/468 467/467/467
f 442/442/442 417/417/417 443/443/443
f 442/442/442 443/443/443 468/468/468
f 469/469/469 2/2/2 1/1/1
f 469/469/469 3/3/3 2/2/2
f 469/469/469 4/4/4 3/3/3
f 469/469/469 5/5/5 4/4/4
f 469/469/469 6/6/6 5/5/5
f 469/469/469 7/7/7 6/6/6
f 469/469/469 8/8/8 7/7/7
f 469/469/469 9/9/9 8/8/8
f 469/469/469 10/10/10 9/9/9
f 469/469/469 11/11/11 10/10/10
f 469/469/469 12/12/12 11/11/11
f 469/469/469 13/13/13 12/12/12
f 469/469/469 14/14/14 13/13/13
f 469/469/469 15/15/15 14/14/14
f 469/469/469 16/16/16 15/15/15
f 469/469/469 17/17/17 16/16/16
f 469/469/469 18/18/18 17/17/17
f 469/469/469 19/19/19 18/18/18
f 469/469/469 20/20/20 19/19/19
f 469/469/469 21/21/21 20/20/20
f 469/469/469 22/22/22 21/21/21
f 469/469/469 23/23/23 22/22/22
f 469/469/469 24/24/24 23/23/23
f 469/469/469 25/25/25 24/24/24
f 469/469/469 26/26/26 25/25/25
f 469/469/469 1/1/1 26/26/26
f 470/470/470 443/443/443 444/444/444
f 470/470/470 444/444/444 445/445/445
f 470/470/470 445/445/445 446/446/446
f 470/470/470 446/446/446 447/447/447
f 470/470/470 447/447/447 448/448/448
f 470/470/470 448/448/448 449/449/449
f 470/470/470 449/449/449 450/450/450
f 470/470/470 450/450/450 451/451/451
f 470/470/470 451/451/451 452/452/452
f 470/470/470 452/452/452 453/453/453
f 470/470/470 453/453/453 454/454/454
f 470/470/470 454/454/454 455/455/455
f 470/470/470 455/455/455 456/456/456
f 470/470/470 456/456/456 457/457/457
f 470/470/470 457/457/457 458/458/458
f 470/470/470 458/458/458 459/459/459
f 470/470/470 459/459/459 460/460/460
f 470/470/470 460/460/460 461/461/461
f 470/470/470 461/461/461 462/462/462
f 470/470/470 462/462/462 463/463/463
f 470/470/470 463/463/463 464/464/464
f 470/470/470 464/464/464 465/465/465
f 470/470/470 465/465/465 466/466/466
f 470/470/470 466/466/466 467/467/467
f 470/470/470 467/467/467 468/468/468
f 470/470/470 468/468/468 443/443/443
