# procedural placeholder mesh: canopy_blob_4
v 0.08336 0.85264 0.00000
v 0.08200 0.86383 0.02021
v 0.07584 0.87607 0.03980
v 0.06496 0.88762 0.05755
v 0.04980 0.89675 0.07215
v 0.03128 0.90222 0.08248
v 0.01065 0.90354 0.08769
v -0.01062 0.90102 0.08745
v -0.03105 0.89563 0.08188
v -0.04936 0.88871 0.07151
v -0.06452 0.88161 0.05716
v -0.07578 0.87532 0.03977
v -0.08262 0.87029 0.02036
v -0.08471 0.86639 0.00000
v -0.08193 0.86308 -0.02019
v -0.07443 0.85976 -0.03906
v -0.06264 0.85601 -0.05550
v -0.04730 0.85174 -0.06853
v -0.02937 0.84719 -0.07745
v -0.00993 0.84279 -0.08180
v 0.00989 0.83897 -0.08143
v 0.02899 0.83615 -0.07644
v 0.04636 0.83470 -0.06716
v 0.06112 0.83513 -0.05414
v 0.07255 0.83802 -0.03808
v 0.08010 0.84383 -0.01974
v 0.23399 0.73488 0.00000
v 0.23798 0.76979 0.05866
v 0.23109 0.81965 0.12128
v 0.20657 0.86676 0.18301
v 0.16252 0.89855 0.23546
v 0.10304 0.91261 0.27169
v 0.03501 0.91233 0.28837
v -0.03459 0.90119 0.28485
v -0.09959 0.88205 0.26259
v -0.15549 0.85969 0.22527
v -0.20040 0.84085 0.17754
v -0.23445 0.83159 0.12305
v -0.25778 0.83384 0.06354
v -0.26846 0.84315 0.00000
v -0.26302 0.85078 -0.06483
v -0.23953 0.84959 -0.12571
v -0.19953 0.83722 -0.17677
v -0.14754 0.81570 -0.21374
v -0.08935 0.79135 -0.23559
v -0.02967 0.77319 -0.24439
v 0.02942 0.76655 -0.24229
v 0.08668 0.76768 -0.22854
v 0.13861 0.76635 -0.20081
v 0.17998 0.75519 -0.15945
v 0.20784 0.73719 -0.10908
v 0.22429 0.72550 -0.05528
v 0.34845 0.62174 0.00000
v 0.36022 0.66198 0.08879
v 0.36133 0.72812 0.18964
v 0.32613 0.77743 0.28892
v 0.25345 0.79611 0.36719
v 0.15915 0.80082 0.41965
v 0.05494 0.81330 0.45248
v -0.05627 0.83291 0.46339
v -0.16918 0.85126 0.44608
v -0.27569 0.86594 0.39940
v -0.36307 0.86550 0.32165
v -0.41849 0.84332 0.21964
v -0.44746 0.82230 0.11029
v -0.45922 0.81940 0.00000
v -0.44387 0.81570 -0.10940
v -0.39615 0.79830 -0.20792
v -0.32554 0.77603 -0.28840
v -0.23797 0.74747 -0.34476
v -0.14081 0.70855 -0.37129
v -0.04582 0.67828 -0.37736
v 0.04583 0.67842 -0.37744
v 0.13955 0.70218 -0.36796
v 0.22981 0.72185 -0.33294
v 0.30033 0.71593 -0.26607
v 0.33814 0.68139 -0.17747
v 0.34623 0.63627 -0.08534
v 0.46454 0.54949 0.00000
v 0.47622 0.58017 0.11738
v 0.45948 0.61381 0.24115
v 0.40945 0.64705 0.36274
v 0.33110 0.68945 0.47968
v 0.21624 0.72133 0.57018
v 0.07735 0.75906 0.63702
v -0.08030 0.78798 0.66130
v -0.24356 0.81247 0.64223
v -0.41622 0.86670 0.60300
v -0.57135 0.90291 0.50617
v -0.63732 0.85140 0.33449
v -0.63615 0.77501 0.15680
v -0.63826 0.75498 0.00000
v -0.61467 0.74884 -0.15150
v -0.54076 0.72240 -0.28381
v -0.44157 0.69782 -0.39120
v -0.32874 0.68454 -0.47626
v -0.20076 0.66970 -0.52937
v -0.06689 0.65642 -0.55089
v 0.06655 0.65306 -0.54807
v 0.19089 0.63675 -0.50333
v 0.29239 0.60884 -0.42360
v 0.37370 0.59057 -0.33107
v 0.43873 0.58611 -0.23027
v 0.46365 0.56486 -0.11428
v 0.58767 0.48561 0.00000
v 0.57564 0.48990 0.14188
v 0.47945 0.44744 0.25163
v 0.40957 0.45215 0.36285
v 0.38321 0.55743 0.55517
v 0.26717 0.62257 0.70446
v 0.09827 0.67366 0.80930
v -0.10495 0.71949 0.86435
v -0.30907 0.72023 0.81495
v -0.49601 0.72152 0.71859
v -0.67971 0.75038 0.60217
v -0.78322 0.73092 0.41106
v -0.78974 0.67212 0.19465
v -0.78660 0.65000 0.00000
v -0.76142 0.64802 -0.18767
v -0.69984 0.65311 -0.36730
v -0.55820 0.61624 -0.49453
v -0.38768 0.56394 -0.56166
v -0.24005 0.55938 -0.63295
v -0.08380 0.57448 -0.69014
v 0.08719 0.59771 -0.71805
v 0.23822 0.55512 -0.62813
v 0.33760 0.49108 -0.48909
v 0.40897 0.45149 -0.36232
v 0.50165 0.46815 -0.26328
v 0.58160 0.49498 -0.14335
v 0.62979 0.36391 0.00000
v 0.62192 0.37012 0.15329
v 0.53686 0.35035 0.28177
v 0.44877 0.34644 0.39757
v 0.42693 0.43427 0.61852
v 0.28159 0.45886 0.74250
v 0.10158 0.48697 0.83660
v -0.12268 0.58809 1.01033
v -0.38172 0.62202 1.00651
v -0.54010 0.54939 0.78247
v -0.67114 0.51811 0.59458
v -0.83684 0.54611 0.43921
v -0.90537 0.53881 0.22315
v -0.92820 0.53634 0.00000
v -0.88811 0.52854 -0.21890
v -0.84756 0.55310 -0.44483
v -0.69864 0.53934 -0.61894
v -0.44882 0.45653 -0.65022
v -0.26101 0.42531 -0.68821
v -0.08711 0.41757 -0.71738
v 0.09398 0.45054 -0.77403
v 0.28078 0.45753 -0.74034
v 0.45725 0.46511 -0.66244
v 0.53580 0.41363 -0.47468
v 0.57825 0.37736 -0.30349
v 0.67368 0.40093 -0.16605
v 0.66074 0.25406 0.00000
v 0.67796 0.26848 0.16710
v 0.67119 0.29146 0.35227
v 0.55885 0.28708 0.49510
v 0.46544 0.31504 0.67430
v 0.29273 0.31741 0.77185
v 0.10527 0.33581 0.86699
v -0.12556 0.40053 1.03407
v -0.41028 0.44488 1.08182
v -0.59235 0.40095 0.85817
v -0.69721 0.35815 0.61767
v -0.90128 0.39138 0.47303
v -0.95832 0.37951 0.23621
v -1.05451 0.40547 0.00000
v -1.00313 0.39726 -0.24725
v -0.88740 0.38535 -0.46574
v -0.81597 0.41916 -0.72289
v -0.56468 0.38222 -0.81808
v -0.31227 0.33861 -0.82340
v -0.10003 0.31909 -0.82382
v 0.09695 0.30925 -0.79842
v 0.29938 0.32462 -0.78940
v 0.56772 0.38428 -0.82249
v 0.68393 0.35133 -0.60591
v 0.67716 0.29405 -0.35540
v 0.75257 0.29803 -0.18549
v 0.84580 0.18679 0.00000
v 0.82196 0.18696 0.20260
v 0.72178 0.18002 0.37882
v 0.58303 0.17202 0.51652
v 0.49914 0.19405 0.72313
v 0.33947 0.21142 0.89511
v 0.13073 0.23952 1.07664
v -0.12784 0.23423 1.05285
v -0.38310 0.23859 1.01014
v -0.56712 0.22048 0.82161
v -0.69356 0.20463 0.61444
v -0.98829 0.24649 0.51870
v -1.01412 0.23067 0.24996
v -1.04404 0.23057 0.00000
v -0.93449 0.21255 -0.23033
v -0.76355 0.19044 -0.40074
v -0.76984 0.22714 -0.68202
v -0.57232 0.22250 -0.82915
v -0.32334 0.20138 -0.85258
v -0.10772 0.19736 -0.88712
v 0.10517 0.19269 -0.86613
v 0.31298 0.19492 -0.82526
v 0.55877 0.21723 -0.80952
v 0.72530 0.21400 -0.64256
v 0.84631 0.21108 -0.44418
v 0.92560 0.21053 -0.22814
v 1.01430 0.07313 0.00000
v 0.94090 0.06986 0.23191
v 0.72957 0.05940 0.38291
v 0.61655 0.05938 0.54622
v 0.56392 0.07157 0.81698
v 0.35907 0.07300 0.94679
v 0.13551 0.08105 1.11602
v -0.12922 0.07728 1.06418
v -0.37179 0.07559 0.98034
v -0.55951 0.07101 0.81059
v -0.71591 0.06895 0.63424
v -0.96788 0.07881 0.50798
v -1.01202 0.07514 0.24944
v -0.97507 0.07030 0.00000
v -0.89096 0.06615 -0.21960
v -0.80162 0.06527 -0.42072
v -0.72995 0.07031 -0.64668
v -0.49266 0.06252 -0.71374
v -0.31231 0.06349 -0.82349
v -0.09789 0.05855 -0.80622
v 0.11152 0.06670 -0.91841
v 0.36096 0.07339 -0.95178
v 0.56079 0.07117 -0.81244
v 0.72962 0.07027 -0.64639
v 1.02809 0.08371 -0.53958
v 1.11409 0.08272 -0.27460
v 0.99222 -0.07153 0.00000
v 0.97851 -0.07266 0.24118
v 0.81409 -0.06628 0.42727
v 0.74275 -0.07154 0.65802
v 0.60375 -0.07662 0.87468
v 0.31539 -0.06412 0.83162
v 0.11003 -0.06581 0.90619
v -0.12401 -0.07417 1.02131
v -0.35011 -0.07118 0.92317
v -0.56053 -0.07114 0.81207
v -0.78420 -0.07553 0.69474
v -0.90478 -0.07367 0.47486
v -0.95607 -0.07099 0.23565
v -0.93992 -0.06776 0.00000
v -0.93015 -0.06906 -0.22926
v -0.94259 -0.07675 -0.49471
v -0.77580 -0.07472 -0.68729
v -0.48318 -0.06132 -0.70000
v -0.34086 -0.06930 -0.89877
v -0.10177 -0.06087 -0.83814
v 0.11526 -0.06894 -0.94923
v 0.39142 -0.07958 -1.03208
v 0.63627 -0.08075 -0.92180
v 0.81690 -0.07868 -0.72371
v 1.11099 -0.09046 -0.58309
v 1.13676 -0.08441 -0.28019
v 0.99444 -0.21962 0.00000
v 1.02467 -0.23307 0.25256
v 0.89261 -0.22263 0.46848
v 0.77202 -0.22778 0.68395
v 0.56014 -0.21776 0.81150
v 0.27937 -0.17399 0.73665
v 0.10414 -0.19081 0.85768
v -0.12426 -0.22768 1.02341
v -0.31652 -0.19713 0.83460
v -0.47225 -0.18360 0.68418
v -0.69776 -0.20587 0.61816
v -0.85417 -0.21304 0.44831
v -0.95140 -0.21640 0.23450
v -0.97065 -0.21436 0.00000
v -0.85310 -0.19404 -0.21027
v -0.77802 -0.19405 -0.40834
v -0.68770 -0.20290 -0.60925
v -0.46950 -0.18253 -0.68019
v -0.31842 -0.19831 -0.83961
v -0.10588 -0.19400 -0.87203
v 0.11276 -0.20661 -0.92870
v 0.39112 -0.24359 -1.03130
v 0.70153 -0.27273 -1.01634
v 0.89141 -0.26301 -0.78972
v 1.07022 -0.26693 -0.56170
v 1.13028 -0.25709 -0.27859
v 1.09488 -0.42099 0.00000
v 1.10351 -0.43701 0.27199
v 0.92867 -0.40328 0.48741
v 0.72500 -0.37243 0.64230
v 0.54857 -0.37131 0.79473
v 0.30122 -0.32662 0.79424
v 0.10892 -0.34746 0.89707
v -0.10871 -0.34677 0.89529
v -0.28754 -0.31178 0.75817
v -0.42375 -0.28682 0.61390
v -0.55246 -0.28380 0.48944
v -0.71265 -0.30947 0.37403
v -0.85333 -0.33793 0.21033
v -0.98508 -0.37877 0.00000
v -0.81194 -0.32154 -0.20013
v -0.61870 -0.26867 -0.32472
v -0.60268 -0.30959 -0.53392
v -0.44109 -0.29856 -0.63903
v -0.26560 -0.28800 -0.70033
v -0.10225 -0.32619 -0.84214
v 0.10652 -0.33979 -0.87726
v 0.35715 -0.38726 -0.94172
v 0.66605 -0.45083 -0.96494
v 0.87821 -0.45114 -0.77803
v 1.02391 -0.44463 -0.53739
v 1.18062 -0.46754 -0.29100
v 1.05404 -0.60906 0.00000
v 1.04470 -0.62173 0.25750
v 0.87841 -0.57324 0.46103
v 0.67774 -0.52320 0.60043
v 0.53525 -0.54446 0.77545
v 0.30362 -0.49476 0.80059
v 0.09724 -0.46614 0.80082
v -0.08830 -0.42329 0.72721
v -0.27003 -0.44002 0.71201
v -0.42255 -0.42982 0.61217
v -0.49329 -0.38081 0.43701
v -0.60839 -0.39703 0.31931
v -0.69899 -0.41599 0.17229
v -0.77953 -0.45044 0.00000
v -0.71215 -0.42382 -0.17553
v -0.65970 -0.43051 -0.34624
v -0.64784 -0.50012 -0.57393
v -0.45546 -0.46329 -0.65984
v -0.25765 -0.41984 -0.67936
v -0.09752 -0.46747 -0.80311
v 0.10059 -0.48223 -0.82846
v 0.30752 -0.50111 -0.81087
v 0.55844 -0.56804 -0.80904
v 0.80456 -0.62111 -0.71278
v 0.99178 -0.64722 -0.52052
v 1.11741 -0.66500 -0.27542
v 0.87895 -0.72630 0.00000
v 0.84085 -0.71561 0.20725
v 0.73106 -0.68225 0.38369
v 0.58443 -0.64519 0.51776
v 0.44437 -0.64640 0.64378
v 0.25963 -0.60502 0.68460
v 0.08255 -0.56592 0.67986
v -0.07677 -0.52627 0.63224
v -0.22398 -0.52195 0.59060
v -0.34618 -0.50357 0.50153
v -0.43993 -0.48567 0.38975
v -0.56114 -0.52368 0.29451
v -0.62827 -0.53470 0.15486
v -0.61985 -0.51220 0.00000
v -0.59182 -0.50368 -0.14587
v -0.60499 -0.56460 -0.31752
v -0.55627 -0.61410 -0.49281
v -0.39476 -0.57423 -0.57190
v -0.23718 -0.55269 -0.62538
v -0.08732 -0.59865 -0.71918
v 0.09503 -0.65145 -0.78261
v 0.28860 -0.67253 -0.76098
v 0.47556 -0.69177 -0.68897
v 0.67344 -0.74346 -0.59662
v 0.85543 -0.79831 -0.44897
v 0.93128 -0.79258 -0.22954
v 0.72445 -0.85694 0.00000
v 0.64239 -0.78261 0.15833
v 0.55363 -0.73960 0.29057
v 0.45328 -0.71633 0.40157
v 0.33895 -0.70579 0.49105
v 0.20667 -0.68940 0.54494
v 0.06791 -0.66639 0.55925
v -0.06265 -0.61483 0.51599
v -0.16430 -0.54807 0.43323
v -0.24743 -0.51523 0.35847
v -0.34605 -0.54687 0.30657
v -0.46095 -0.61579 0.24193
v -0.54333 -0.66193 0.13392
v -0.56166 -0.66438 0.00000
v -0.53169 -0.64775 -0.13105
v -0.48120 -0.64283 -0.25255
v -0.40507 -0.64014 -0.35886
v -0.31082 -0.64723 -0.45031
v -0.20716 -0.69102 -0.54623
v -0.07732 -0.75877 -0.63678
v 0.08413 -0.82561 -0.69287
v 0.25529 -0.85158 -0.67314
v 0.40752 -0.84857 -0.59039
v 0.56145 -0.88727 -0.49740
v 0.71328 -0.95286 -0.37436
v 0.77582 -0.94517 -0.19122
v 0.56500 -1.00813 0.00000
v 0.50552 -0.92901 0.12460
v 0.43591 -0.87841 0.22878
v 0.35947 -0.85691 0.31846
v 0.26882 -0.84439 0.38946
v 0.16377 -0.82407 0.43183
v 0.05312 -0.78634 0.43748
v -0.04912 -0.72710 0.40452
v -0.13207 -0.66454 0.34823
v -0.20134 -0.63241 0.29169
v -0.26895 -0.64112 0.23827
v -0.33359 -0.67222 0.17508
v -0.38441 -0.70644 0.09475
v -0.40905 -0.72988 0.00000
v -0.39905 -0.73334 -0.09836
v -0.36039 -0.72623 -0.18915
v -0.30840 -0.73518 -0.27322
v -0.24853 -0.78066 -0.36006
v -0.16940 -0.85238 -0.44666
v -0.06203 -0.91829 -0.51089
v 0.06459 -0.95617 -0.53197
v 0.19198 -0.96600 -0.50620
v 0.31087 -0.97645 -0.45037
v 0.42769 -1.01953 -0.37890
v 0.53218 -1.07241 -0.27931
v 0.58387 -1.07299 -0.14391
v 0.33401 -1.04901 0.00000
v 0.31793 -1.02840 0.07836
v 0.28391 -1.00703 0.14901
v 0.23499 -0.98601 0.20818
v 0.17374 -0.96056 0.25170
v 0.10461 -0.92655 0.27584
v 0.03395 -0.88465 0.27962
v -0.03225 -0.84034 0.26561
v -0.09048 -0.80134 0.23857
v -0.13991 -0.77353 0.20270
v -0.18067 -0.75806 0.16006
v -0.21229 -0.75300 0.11142
v -0.23378 -0.75619 0.05762
v -0.24373 -0.76548 0.00000
v -0.24090 -0.77923 -0.05938
v -0.22534 -0.79928 -0.11827
v -0.19794 -0.83054 -0.17536
v -0.15821 -0.87471 -0.22921
v -0.10442 -0.92487 -0.27534
v -0.03717 -0.96858 -0.30615
v 0.03828 -0.99734 -0.31524
v 0.11439 -1.01317 -0.30163
v 0.18554 -1.02579 -0.26880
v 0.24832 -1.04193 -0.21999
v 0.29804 -1.05714 -0.15642
v 0.32794 -1.06079 -0.08083
v 0.09500 -0.97163 0.00000
v 0.09174 -0.96646 0.02261
v 0.08299 -0.95867 0.04356
v 0.06941 -0.94845 0.06149
v 0.05199 -0.93617 0.07533
v 0.03198 -0.92243 0.08432
v 0.01070 -0.90808 0.08813
v -0.01054 -0.89412 0.08678
v -0.03056 -0.88159 0.08059
v -0.04840 -0.87136 0.07011
v -0.06324 -0.86411 0.05602
v -0.07447 -0.86023 0.03909
v -0.08163 -0.85994 0.02012
v -0.08440 -0.86327 0.00000
v -0.08259 -0.87006 -0.02036
v -0.07618 -0.87998 -0.03998
v -0.06531 -0.89242 -0.05786
v -0.05035 -0.90650 -0.07294
v -0.03193 -0.92109 -0.08420
v -0.01102 -0.93508 -0.09076
v 0.01117 -0.94752 -0.09196
v 0.03321 -0.95780 -0.08756
v 0.05363 -0.96567 -0.07770
v 0.07106 -0.97105 -0.06296
v 0.08431 -0.97388 -0.04425
v 0.09247 -0.97410 -0.02279
v 0.00000 0.86272 0.00000
v 0.00000 -0.82000 0.00000
vn 0.4905 0.7520 -0.4403
vn 0.4728 0.7538 -0.4563
vn 0.4233 0.8151 -0.3955
vn 0.3208 0.9001 -0.2948
vn 0.1802 0.9642 -0.1943
vn 0.0328 0.9919 -0.1224
vn -0.1061 0.9905 -0.0879
vn -0.2218 0.9711 -0.0883
vn -0.2911 0.9507 -0.1065
vn -0.3028 0.9462 -0.1142
vn -0.2653 0.9601 -0.0889
vn -0.2024 0.9786 -0.0371
vn -0.1405 0.9901 -0.0038
vn -0.0841 0.9961 -0.0276
vn -0.0239 0.9948 -0.0994
vn 0.0418 0.9810 -0.1896
vn 0.1072 0.9553 -0.2755
vn 0.1550 0.9286 -0.3371
vn 0.1615 0.9158 -0.3678
vn 0.1366 0.9164 -0.3763
vn 0.1396 0.9211 -0.3635
vn 0.2135 0.9244 -0.3162
vn 0.3315 0.9126 -0.2394
vn 0.4340 0.8821 -0.1834
vn 0.4888 0.8456 -0.2145
vn 0.4998 0.7988 -0.3348
vn 0.6221 0.6944 -0.3617
vn 0.6115 0.6591 -0.4378
vn 0.6044 0.7241 -0.3322
vn 0.5449 0.8316 -0.1069
vn 0.3979 0.9074 0.1356
vn 0.2120 0.9393 0.2697
vn 0.0189 0.9637 0.2663
vn -0.1357 0.9784 0.1558
vn -0.1944 0.9809 0.0073
vn -0.1795 0.9772 -0.1136
vn -0.1422 0.9784 -0.1499
vn -0.1136 0.9917 -0.0609
vn -0.1193 0.9904 0.0692
vn -0.1452 0.9872 0.0653
vn -0.1474 0.9868 -0.0677
vn -0.1005 0.9686 -0.2274
vn 0.0130 0.9303 -0.3666
vn 0.1451 0.8776 -0.4569
vn 0.1880 0.8482 -0.4952
vn 0.1119 0.8578 -0.5016
vn 0.0363 0.8838 -0.4664
vn 0.0912 0.9254 -0.3678
vn 0.2566 0.9472 -0.1921
vn 0.4242 0.9056 0.0011
vn 0.5376 0.8396 0.0775
vn 0.6118 0.7859 -0.0894
vn 0.6056 0.7722 -0.1922
vn 0.6664 0.6604 -0.3462
vn 0.7385 0.6470 -0.1896
vn 0.6784 0.7282 0.0972
vn 0.4561 0.8265 0.3300
vn 0.3054 0.8705 0.3860
vn 0.2036 0.9100 0.3611
vn 0.1127 0.9443 0.3091
vn 0.0952 0.9728 0.2112
vn 0.0674 0.9974 0.0254
vn -0.0216 0.9834 -0.1803
vn -0.1087 0.9669 -0.2310
vn -0.1860 0.9796 -0.0762
vn -0.2377 0.9709 -0.0281
vn -0.2387 0.9541 -0.1810
vn -0.2096 0.9200 -0.3312
vn -0.1195 0.9011 -0.4167
vn 0.0667 0.8942 -0.4427
vn 0.1919 0.9005 -0.3902
vn 0.1147 0.9342 -0.3377
vn -0.0003 0.9233 -0.3841
vn 0.0730 0.8698 -0.4881
vn 0.3193 0.8309 -0.4556
vn 0.5284 0.8271 -0.1916
vn 0.5690 0.8082 0.1515
vn 0.5543 0.8108 0.1879
vn 0.5374 0.8427 -0.0334
vn 0.7247 0.6889 -0.0173
vn 0.9098 0.3889 0.1449
vn 0.9026 0.3666 0.2258
vn 0.6624 0.6607 0.3531
vn 0.4356 0.8211 0.3689
vn 0.2906 0.8987 0.3286
vn 0.1093 0.9416 0.3184
vn 0.0510 0.9015 0.4298
vn -0.0218 0.8769 0.4803
vn -0.2693 0.9535 0.1357
vn -0.3855 0.8918 -0.2370
vn -0.4160 0.8839 -0.2139
vn -0.4504 0.8884 -0.0886
vn -0.3878 0.9020 -0.1899
vn -0.2355 0.8956 -0.3773
vn -0.2092 0.8370 -0.5057
vn -0.2109 0.7992 -0.5628
vn -0.0544 0.8702 -0.4896
vn 0.0171 0.9461 -0.3235
vn 0.1719 0.9555 -0.2397
vn 0.3962 0.8510 -0.3448
vn 0.6062 0.6282 -0.4877
vn 0.6795 0.5148 -0.5228
vn 0.6873 0.6794 -0.2569
vn 0.5495 0.8301 0.0950
vn 0.7613 0.6471 0.0415
vn 0.6969 0.6387 0.3262
vn 0.7558 0.4131 0.5081
vn 0.9610 0.1896 0.2014
vn 0.8794 0.3399 0.3334
vn 0.6437 0.4545 0.6156
vn 0.5035 0.5832 0.6375
vn 0.1203 0.8641 0.4888
vn -0.2643 0.8586 0.4392
vn -0.4277 0.5258 0.7353
vn -0.6255 0.3815 0.6806
vn -0.7933 0.5955 0.1265
vn -0.6718 0.7292 -0.1301
vn -0.6071 0.7877 -0.1048
vn -0.5890 0.8010 -0.1070
vn -0.3284 0.8891 -0.3190
vn -0.0578 0.8274 -0.5586
vn -0.1922 0.6578 -0.7283
vn -0.2926 0.5148 -0.8058
vn -0.2541 0.5410 -0.8017
vn 0.1339 0.7677 -0.6267
vn 0.4350 0.8542 -0.2849
vn 0.5391 0.8395 -0.0682
vn 0.6202 0.7243 -0.3012
vn 0.6135 0.5649 -0.5519
vn 0.7115 0.6931 -0.1155
vn 0.9114 0.3982 0.1041
vn 0.8129 0.5532 0.1820
vn 0.4556 0.7841 0.4214
vn 0.7516 0.6384 0.1659
vn 0.8513 0.3970 0.3430
vn 0.5942 0.2620 0.7605
vn 0.5818 0.1480 0.7997
vn 0.3514 0.3650 0.8621
vn -0.4201 0.6904 0.5889
vn -0.7427 0.5006 0.4446
vn -0.6794 0.1705 0.7137
vn -0.8396 0.2808 0.4651
vn -0.8485 0.5031 0.1643
vn -0.6971 0.7132 -0.0736
vn -0.7394 0.6514 -0.1702
vn -0.7009 0.6656 -0.2562
vn -0.1074 0.8361 -0.5379
vn 0.0979 0.7918 -0.6029
vn -0.0761 0.6861 -0.7235
vn -0.1927 0.4088 -0.8920
vn -0.0862 0.2645 -0.9605
vn 0.1500 0.6375 -0.7557
vn 0.3588 0.9261 -0.1164
vn 0.4497 0.8871 0.1040
vn 0.5572 0.7865 -0.2664
vn 0.7808 0.6228 -0.0493
vn 0.6217 0.7608 0.1860
vn 0.7654 0.6432 0.0208
vn 0.6646 0.6704 0.3300
vn 0.6353 0.6973 0.3318
vn 0.6711 0.6127 0.4174
vn 0.4536 0.6394 0.6208
vn 0.4167 0.5238 0.7430
vn 0.3509 0.0307 0.9359
vn -0.3596 -0.0121 0.9330
vn -0.8515 0.1496 0.5025
vn -0.6916 0.2387 0.6817
vn -0.7607 0.4373 0.4798
vn -0.9209 0.2859 0.2650
vn -0.9760 0.2177 0.0012
vn -0.9153 0.0825 -0.3942
vn -0.9538 -0.1267 -0.2726
vn -0.6931 0.2513 -0.6756
vn -0.0279 0.5687 -0.8221
vn 0.0382 0.6398 -0.7676
vn 0.0690 0.6366 -0.7681
vn 0.0279 0.4042 -0.9142
vn -0.0262 0.2051 -0.9784
vn 0.3927 0.5176 -0.7602
vn 0.6258 0.7774 -0.0630
vn 0.4991 0.8665 -0.0055
vn 0.5384 0.8396 0.0713
vn 0.4943 0.8441 0.2077
vn 0.5741 0.7746 0.2653
vn 0.7632 0.4390 0.4742
vn 0.8100 0.4008 0.4280
vn 0.7228 0.4825 0.4947
vn 0.5952 0.4873 0.6390
vn 0.2086 0.6327 0.7458
vn -0.0234 0.2570 0.9661
vn -0.3812 -0.1956 0.9035
vn -0.7586 -0.1544 0.6330
vn -0.6318 -0.0107 0.7750
vn -0.7731 0.1486 0.6166
vn -0.9863 0.1465 0.0752
vn -0.9847 -0.1473 -0.0934
vn -0.8641 -0.1960 -0.4636
vn -0.8879 -0.3017 -0.3473
vn -0.7654 -0.4471 -0.4629
vn -0.3762 -0.3267 -0.8671
vn -0.0719 -0.0718 -0.9948
vn -0.1052 0.0526 -0.9931
vn 0.0771 0.5114 -0.8559
vn 0.1576 0.4727 -0.8670
vn 0.3683 0.0252 -0.9294
vn 0.6900 0.3325 -0.6429
vn 0.5331 0.8302 -0.1631
vn 0.5070 0.8603 0.0530
vn 0.8169 0.5126 0.2645
vn 0.6688 0.5885 0.4543
vn 0.6514 0.5424 0.5306
vn 0.7568 0.5394 0.3691
vn 0.6960 0.3232 0.6412
vn 0.5516 -0.2537 0.7946
vn 0.3294 -0.3347 0.8829
vn -0.2517 -0.0899 0.9636
vn -0.4352 -0.1837 0.8814
vn -0.6733 0.0380 0.7384
vn -0.6863 0.1820 0.7042
vn -0.7478 -0.2245 0.6248
vn -0.9823 -0.1859 0.0212
vn -0.9713 -0.1865 -0.1477
vn -0.9443 0.0912 -0.3161
vn -0.7828 0.4572 -0.4221
vn -0.7013 0.0547 -0.7108
vn -0.4851 -0.3207 -0.8135
vn -0.1373 -0.0191 -0.9903
vn -0.2509 -0.1237 -0.9601
vn -0.2411 0.1950 -0.9507
vn 0.2058 0.6060 -0.7684
vn 0.4937 0.5282 -0.6909
vn 0.4869 0.3348 -0.8067
vn 0.6640 0.5611 -0.4942
vn 0.8270 0.5586 0.0635
vn 0.9703 0.0269 0.2405
vn 0.8896 0.2559 0.3783
vn 0.7409 0.4516 0.4971
vn 0.7510 0.4480 0.4851
vn 0.4184 0.0734 0.9053
vn 0.1991 -0.4808 0.8539
vn 0.3909 -0.5843 0.7112
vn -0.1236 -0.4264 0.8961
vn -0.3906 -0.5245 0.7565
vn -0.4012 -0.5048 0.7643
vn -0.7073 -0.1202 0.6966
vn -0.8604 -0.1867 0.4743
vn -0.9787 -0.1839 0.0910
vn -0.9749 -0.1700 -0.1441
vn -0.9365 -0.3364 -0.0988
vn -0.9283 -0.1546 -0.3380
vn -0.5094 0.0318 -0.8600
vn -0.4545 -0.1062 -0.8844
vn -0.3382 0.0675 -0.9387
vn -0.1010 0.2321 -0.9674
vn -0.3754 0.0530 -0.9254
vn 0.0392 0.2982 -0.9537
vn 0.5176 0.5525 -0.6533
vn 0.5745 0.4498 -0.6838
vn 0.7783 0.1995 -0.5954
vn 0.9804 0.1212 0.1552
vn 0.9502 0.2439 0.1938
vn 0.9246 0.2757 0.2628
vn 0.7885 0.2377 0.5672
vn 0.7600 0.0235 0.6496
vn 0.2228 -0.0851 0.9711
vn 0.1005 -0.1337 0.9859
vn 0.4633 -0.2806 0.8406
vn -0.0496 -0.4523 0.8905
vn -0.6027 -0.4734 0.6424
vn -0.3242 -0.7615 0.5612
vn -0.2619 -0.8077 0.5283
vn -0.6149 -0.6577 0.4353
vn -0.9128 -0.2892 0.2885
vn -0.9607 0.0438 -0.2741
vn -0.7830 -0.4601 -0.4185
vn -0.5682 -0.8163 -0.1036
vn -0.4554 -0.7103 -0.5367
vn -0.3355 -0.4770 -0.8123
vn -0.5013 -0.5533 -0.6652
vn -0.1175 -0.1224 -0.9855
vn -0.3397 -0.2128 -0.9162
vn -0.1778 -0.2420 -0.9538
vn 0.4752 0.0782 -0.8764
vn 0.7686 0.1945 -0.6095
vn 0.8377 -0.0360 -0.5450
vn 0.9869 0.1212 0.1064
vn 0.9813 0.0924 0.1687
vn 0.9472 0.0738 0.3122
vn 0.7073 -0.0128 0.7068
vn 0.6778 -0.2397 0.6950
vn 0.3158 -0.1448 0.9377
vn 0.0924 0.0328 0.9952
vn 0.2066 -0.2699 0.9405
vn -0.0789 -0.6640 0.7436
vn -0.6330 -0.4332 0.6415
vn -0.7076 -0.4189 0.5690
vn -0.3012 -0.7970 0.5235
vn -0.3186 -0.8426 0.4341
vn -0.4455 -0.7965 0.4088
vn -0.7582 -0.6431 -0.1079
vn -0.6987 -0.2490 -0.6706
vn -0.8662 -0.3046 -0.3961
vn -0.7725 -0.3280 -0.5438
vn -0.3371 -0.2247 -0.9143
vn -0.5296 -0.5074 -0.6798
vn -0.3370 -0.3909 -0.8565
vn -0.2076 -0.3940 -0.8954
vn -0.2491 -0.5779 -0.7772
vn 0.1500 -0.5772 -0.8027
vn 0.7272 -0.2865 -0.6238
vn 0.8225 -0.2185 -0.5251
vn 0.9919 -0.1017 -0.0761
vn 0.7912 -0.5817 0.1886
vn 0.7099 -0.6518 0.2670
vn 0.5153 -0.5437 0.6624
vn 0.5225 -0.5627 0.6406
vn 0.3557 -0.5580 0.7498
vn -0.0381 -0.3730 0.9270
vn -0.1367 -0.5773 0.8050
vn -0.1536 -0.7968 0.5843
vn -0.3089 -0.7488 0.5864
vn -0.7170 -0.4778 0.5075
vn -0.7071 -0.4597 0.5373
vn -0.5826 -0.6015 0.5467
vn -0.4993 -0.7947 0.3454
vn -0.3677 -0.9255 0.0908
vn -0.5844 -0.7681 -0.2618
vn -0.9283 -0.2601 -0.2657
vn -0.8281 -0.2025 -0.5228
vn -0.2895 -0.1703 -0.9419
vn -0.4005 -0.2469 -0.8824
vn -0.4509 -0.3277 -0.8303
vn -0.0426 -0.2859 -0.9573
vn -0.0637 -0.5323 -0.8442
vn -0.0483 -0.7349 -0.6765
vn 0.3427 -0.6965 -0.6304
vn 0.6926 -0.5434 -0.4744
vn 0.7998 -0.5946 -0.0821
vn 0.5317 -0.7917 0.3008
vn 0.3406 -0.9190 0.1986
vn 0.2457 -0.8811 0.4042
vn 0.2731 -0.8379 0.4725
vn 0.2047 -0.8746 0.4395
vn -0.0993 -0.7665 0.6345
vn -0.2594 -0.7268 0.6359
vn -0.3620 -0.7674 0.5292
vn -0.1920 -0.9277 0.3201
vn -0.2683 -0.9318 0.2447
vn -0.4342 -0.7640 0.4772
vn -0.5674 -0.5665 0.5976
vn -0.8439 -0.4930 0.2117
vn -0.7605 -0.6467 -0.0583
vn -0.6665 -0.7439 -0.0488
vn -0.6610 -0.7492 0.0421
vn -0.4794 -0.8563 -0.1921
vn -0.2134 -0.7341 -0.6447
vn -0.3818 -0.4866 -0.7858
vn -0.5037 -0.4335 -0.7473
vn -0.1337 -0.4003 -0.9066
vn 0.1963 -0.4028 -0.8940
vn 0.1529 -0.6064 -0.7803
vn 0.2088 -0.7117 -0.6708
vn 0.5206 -0.7373 -0.4306
vn 0.6454 -0.7617 0.0568
vn 0.5930 -0.6354 0.4946
vn 0.4350 -0.7679 0.4702
vn 0.3134 -0.8377 0.4472
vn 0.2876 -0.8270 0.4830
vn 0.2138 -0.8438 0.4921
vn -0.0186 -0.7952 0.6061
vn -0.2889 -0.7166 0.6348
vn -0.5650 -0.6421 0.5182
vn -0.5439 -0.7689 0.3361
vn -0.2651 -0.9070 0.3272
vn -0.0775 -0.8384 0.5395
vn -0.1367 -0.7858 0.6032
vn -0.4758 -0.8083 0.3468
vn -0.7224 -0.6874 -0.0745
vn -0.7300 -0.6295 -0.2663
vn -0.5867 -0.7909 -0.1741
vn -0.4205 -0.8924 -0.1636
vn -0.4708 -0.7982 -0.3758
vn -0.5915 -0.5722 -0.5680
vn -0.5302 -0.5231 -0.6673
vn -0.2414 -0.6136 -0.7518
vn 0.1587 -0.6588 -0.7354
vn 0.2659 -0.6719 -0.6913
vn 0.2160 -0.7040 -0.6766
vn 0.4223 -0.7816 -0.4591
vn 0.6583 -0.7420 0.1263
vn 0.4271 -0.7586 0.4920
vn 0.4293 -0.6856 0.5879
vn 0.4271 -0.7033 0.5683
vn 0.3815 -0.7243 0.5744
vn 0.2315 -0.7408 0.6306
vn -0.0375 -0.7345 0.6776
vn -0.3430 -0.6971 0.6296
vn -0.5971 -0.6123 0.5183
vn -0.6932 -0.5545 0.4604
vn -0.5969 -0.5949 0.5383
vn -0.3414 -0.7020 0.6251
vn -0.1694 -0.8124 0.5579
vn -0.1755 -0.9073 0.3821
vn -0.2920 -0.9468 0.1354
vn -0.4038 -0.9085 -0.1078
vn -0.4763 -0.8599 -0.1834
vn -0.5886 -0.7933 -0.1559
vn -0.6964 -0.6942 -0.1821
vn -0.6888 -0.6618 -0.2959
vn -0.5201 -0.7346 -0.4358
vn -0.2351 -0.8471 -0.4766
vn 0.0206 -0.9023 -0.4306
vn 0.0808 -0.8951 -0.4386
vn 0.0183 -0.8784 -0.4775
vn 0.1009 -0.9353 -0.3391
vn 0.3286 -0.9383 0.1076
vn -0.0429 -0.9625 0.2677
vn 0.0419 -0.9250 0.3776
vn 0.0862 -0.9116 0.4020
vn 0.0525 -0.9083 0.4150
vn -0.0832 -0.8933 0.4417
vn -0.2755 -0.8540 0.4414
vn -0.4537 -0.7955 0.4016
vn -0.5852 -0.7275 0.3581
vn -0.6509 -0.6777 0.3420
vn -0.6342 -0.6839 0.3605
vn -0.5514 -0.7431 0.3792
vn -0.4548 -0.8178 0.3526
vn -0.3769 -0.8775 0.2965
vn -0.3474 -0.9098 0.2272
vn -0.3841 -0.9117 0.1458
vn -0.4749 -0.8754 0.0900
vn -0.5790 -0.8110 0.0837
vn -0.6363 -0.7667 0.0850
vn -0.6101 -0.7909 0.0480
vn -0.4861 -0.8738 -0.0140
vn -0.2991 -0.9524 -0.0591
vn -0.1486 -0.9854 -0.0829
vn -0.1221 -0.9860 -0.1136
vn -0.1880 -0.9717 -0.1431
vn -0.2105 -0.9730 -0.0946
vn -0.1455 -0.9868 0.0711
vn -0.4310 -0.8904 0.1465
vn -0.4299 -0.8918 0.1411
vn -0.4315 -0.8963 0.1018
vn -0.4361 -0.8980 0.0580
vn -0.4550 -0.8898 0.0353
vn -0.4907 -0.8708 0.0310
vn -0.5298 -0.8476 0.0317
vn -0.5542 -0.8318 0.0313
vn -0.5492 -0.8349 0.0361
vn -0.5119 -0.8570 0.0588
vn -0.4591 -0.8827 0.1006
vn -0.4118 -0.8989 0.1496
vn -0.3801 -0.9036 0.1977
vn -0.3706 -0.8987 0.2347
vn -0.3824 -0.8883 0.2544
vn -0.4074 -0.8710 0.2747
vn -0.4407 -0.8427 0.3093
vn -0.4711 -0.8153 0.3368
vn -0.4768 -0.8120 0.3367
vn -0.4449 -0.8377 0.3169
vn -0.3893 -0.8733 0.2930
vn -0.3511 -0.8973 0.2677
vn -0.3637 -0.9031 0.2282
vn -0.4082 -0.8966 0.1717
vn -0.4372 -0.8900 0.1293
vn -0.4381 -0.8898 0.1280
vn 0.0628 0.9395 -0.3368
vn -0.5072 -0.8418 0.1848
vt 0.6667 2.2053
vt 0.6640 2.2277
vt 0.6517 2.2521
vt 0.6299 2.2752
vt 0.5996 2.2935
vt 0.5626 2.3044
vt 0.5213 2.3071
vt 0.4788 2.3020
vt 0.4379 2.2913
vt 0.4013 2.2774
vt 0.3710 2.2632
vt 0.3484 2.2506
vt 0.3348 2.2406
vt 0.3306 2.2328
vt 0.3361 2.2262
vt 0.3511 2.2195
vt 0.3747 2.2120
vt 0.4054 2.2035
vt 0.4413 2.1944
vt 0.4801 2.1856
vt 0.5198 2.1779
vt 0.5580 2.1723
vt 0.5927 2.1694
vt 0.6222 2.1703
vt 0.6451 2.1760
vt 0.6602 2.1877
vt 0.9680 1.9698
vt 0.9760 2.0396
vt 0.9622 2.1393
vt 0.9131 2.2335
vt 0.8250 2.2971
vt 0.7061 2.3252
vt 0.5700 2.3247
vt 0.4308 2.3024
vt 0.3008 2.2641
vt 0.1890 2.2194
vt 0.0992 2.1817
vt 0.0311 2.1632
vt -0.0156 2.1677
vt -0.0369 2.1863
vt -0.0260 2.2016
vt 0.0209 2.1992
vt 0.1009 2.1744
vt 0.2049 2.1314
vt 0.3213 2.0827
vt 0.4407 2.0464
vt 0.5588 2.0331
vt 0.6734 2.0354
vt 0.7772 2.0327
vt 0.8600 2.0104
vt 0.9157 1.9744
vt 0.9486 1.9510
vt 1.1969 1.7435
vt 1.2204 1.8240
vt 1.2227 1.9562
vt 1.1523 2.0549
vt 1.0069 2.0922
vt 0.8183 2.1016
vt 0.6099 2.1266
vt 0.3875 2.1658
vt 0.1616 2.2025
vt -0.0514 2.2319
vt -0.2261 2.2310
vt -0.3370 2.1866
vt -0.3949 2.1446
vt -0.4184 2.1388
vt -0.3877 2.1314
vt -0.2923 2.0966
vt -0.1511 2.0521
vt 0.0241 1.9949
vt 0.2184 1.9171
vt 0.4084 1.8566
vt 0.5917 1.8568
vt 0.7791 1.9044
vt 0.9596 1.9437
vt 1.1007 1.9319
vt 1.1763 1.8628
vt 1.1925 1.7725
vt 1.4291 1.5990
vt 1.4524 1.6603
vt 1.4190 1.7276
vt 1.3189 1.7941
vt 1.1622 1.8789
vt 0.9325 1.9427
vt 0.6547 2.0181
vt 0.3394 2.0760
vt 0.0129 2.1249
vt -0.3324 2.2334
vt -0.6427 2.3058
vt -0.7746 2.2028
vt -0.7723 2.0500
vt -0.7765 2.0100
vt -0.7293 1.9977
vt -0.5815 1.9448
vt -0.3831 1.8956
vt -0.1575 1.8691
vt 0.0985 1.8394
vt 0.3662 1.8128
vt 0.6331 1.8061
vt 0.8818 1.7735
vt 1.0848 1.7177
vt 1.2474 1.6811
vt 1.3775 1.6722
vt 1.4273 1.6297
vt 1.6753 1.4712
vt 1.6513 1.4798
vt 1.4589 1.3949
vt 1.3191 1.4043
vt 1.2664 1.6149
vt 1.0343 1.7451
vt 0.6965 1.8473
vt 0.2901 1.9390
vt -0.1181 1.9405
vt -0.4920 1.9430
vt -0.8594 2.0008
vt -1.0664 1.9618
vt -1.0795 1.8442
vt -1.0732 1.8000
vt -1.0228 1.7960
vt -0.8997 1.8062
vt -0.6164 1.7325
vt -0.2754 1.6279
vt 0.0199 1.6188
vt 0.3324 1.6490
vt 0.6744 1.6954
vt 0.9764 1.6102
vt 1.1752 1.4822
vt 1.3179 1.4030
vt 1.5033 1.4363
vt 1.6632 1.4900
vt 1.7596 1.2278
vt 1.7438 1.2402
vt 1.5737 1.2007
vt 1.3975 1.1929
vt 1.3539 1.3685
vt 1.0632 1.4177
vt 0.7032 1.4739
vt 0.2546 1.6762
vt -0.2634 1.7440
vt -0.5802 1.5988
vt -0.8423 1.5362
vt -1.1737 1.5922
vt -1.3107 1.5776
vt -1.3564 1.5727
vt -1.2762 1.5571
vt -1.1951 1.6062
vt -0.8973 1.5787
vt -0.3976 1.4131
vt -0.0220 1.3506
vt 0.3258 1.3351
vt 0.6880 1.4011
vt 1.0616 1.4151
vt 1.4145 1.4302
vt 1.5716 1.3273
vt 1.6565 1.2547
vt 1.8474 1.3019
vt 1.8215 1.0081
vt 1.8559 1.0370
vt 1.8424 1.0829
vt 1.6177 1.0742
vt 1.4309 1.1301
vt 1.0855 1.1348
vt 0.7105 1.1716
vt 0.2489 1.3011
vt -0.3206 1.3898
vt -0.6847 1.3019
vt -0.8944 1.2163
vt -1.3026 1.2828
vt -1.4166 1.2590
vt -1.6090 1.3109
vt -1.5063 1.2945
vt -1.2748 1.2707
vt -1.1319 1.3383
vt -0.6294 1.2644
vt -0.1245 1.1772
vt 0.2999 1.1382
vt 0.6939 1.1185
vt 1.0988 1.1492
vt 1.6354 1.2686
vt 1.8679 1.2027
vt 1.8543 1.0881
vt 2.0051 1.0961
vt 2.1916 0.8736
vt 2.1439 0.8739
vt 1.9436 0.8600
vt 1.6661 0.8440
vt 1.4983 0.8881
vt 1.1789 0.9228
vt 0.7615 0.9790
vt 0.2443 0.9685
vt -0.2662 0.9772
vt -0.6342 0.9410
vt -0.8871 0.9093
vt -1.4766 0.9930
vt -1.5282 0.9613
vt -1.5881 0.9611
vt -1.3690 0.9251
vt -1.0271 0.8809
vt -1.0397 0.9543
vt -0.6446 0.9450
vt -0.1467 0.9028
vt 0.2846 0.8947
vt 0.7103 0.8854
vt 1.1260 0.8898
vt 1.6175 0.9345
vt 1.9506 0.9280
vt 2.1926 0.9222
vt 2.3512 0.9211
vt 2.5286 0.6463
vt 2.3818 0.6397
vt 1.9591 0.6188
vt 1.7331 0.6188
vt 1.6278 0.6431
vt 1.2181 0.6460
vt 0.7710 0.6621
vt 0.2416 0.6546
vt -0.2436 0.6512
vt -0.6190 0.6420
vt -0.9318 0.6379
vt -1.4358 0.6576
vt -1.5240 0.6503
vt -1.4501 0.6406
vt -1.2819 0.6323
vt -1.1032 0.6305
vt -0.9599 0.6406
vt -0.4853 0.6250
vt -0.1246 0.6270
vt 0.3042 0.6171
vt 0.7230 0.6334
vt 1.2219 0.6468
vt 1.6216 0.6423
vt 1.9592 0.6405
vt 2.5562 0.6674
vt 2.7282 0.6654
vt 2.4844 0.3569
vt 2.4570 0.3547
vt 2.1282 0.3674
vt 1.9855 0.3569
vt 1.7075 0.3468
vt 1.1308 0.3718
vt 0.7201 0.3684
vt 0.2520 0.3517
vt -0.2002 0.3576
vt -0.6211 0.3577
vt -1.0684 0.3489
vt -1.3096 0.3527
vt -1.4121 0.3580
vt -1.3798 0.3645
vt -1.3603 0.3619
vt -1.3852 0.3465
vt -1.0516 0.3506
vt -0.4664 0.3774
vt -0.1817 0.3614
vt 0.2965 0.3783
vt 0.7305 0.3621
vt 1.2828 0.3408
vt 1.7725 0.3385
vt 2.1338 0.3426
vt 2.7220 0.3191
vt 2.7735 0.3312
vt 2.4889 0.0608
vt 2.5493 0.0339
vt 2.2852 0.0547
vt 2.0440 0.0444
vt 1.6203 0.0645
vt 1.0587 0.1520
vt 0.7083 0.1184
vt 0.2515 0.0446
vt -0.1330 0.1057
vt -0.4445 0.1328
vt -0.8955 0.0883
vt -1.2083 0.0739
vt -1.4028 0.0672
vt -1.4413 0.0713
vt -1.2062 0.1119
vt -1.0560 0.1119
vt -0.8754 0.0942
vt -0.4390 0.1349
vt -0.1368 0.1034
vt 0.2882 0.1120
vt 0.7255 0.0868
vt 1.2822 0.0128
vt 1.9031 -0.0455
vt 2.2828 -0.0260
vt 2.6404 -0.0339
vt 2.7606 -0.0142
vt 2.6898 -0.3420
vt 2.7070 -0.3740
vt 2.3573 -0.3066
vt 1.9500 -0.2449
vt 1.5971 -0.2426
vt 1.1024 -0.1532
vt 0.7178 -0.1949
vt 0.2826 -0.1935
vt -0.0751 -0.1236
vt -0.3475 -0.0736
vt -0.6049 -0.0676
vt -0.9253 -0.1189
vt -1.2067 -0.1759
vt -1.4702 -0.2575
vt -1.1239 -0.1431
vt -0.7374 -0.0373
vt -0.7054 -0.1192
vt -0.3822 -0.0971
vt -0.0312 -0.0760
vt 0.2955 -0.1524
vt 0.7130 -0.1796
vt 1.2143 -0.2745
vt 1.8321 -0.4017
vt 2.2564 -0.4023
vt 2.5478 -0.3893
vt 2.8612 -0.4351
vt 2.6081 -0.7181
vt 2.5894 -0.7435
vt 2.2568 -0.6465
vt 1.8555 -0.5464
vt 1.5705 -0.5889
vt 1.1072 -0.4895
vt 0.6945 -0.4323
vt 0.3234 -0.3466
vt -0.0401 -0.3800
vt -0.3451 -0.3596
vt -0.4866 -0.2616
vt -0.7168 -0.2941
vt -0.8980 -0.3320
vt -1.0591 -0.4009
vt -0.9243 -0.3476
vt -0.8194 -0.3610
vt -0.7957 -0.5002
vt -0.4109 -0.4266
vt -0.0153 -0.3397
vt 0.3050 -0.4349
vt 0.7012 -0.4645
vt 1.1150 -0.5022
vt 1.6169 -0.6361
vt 2.1091 -0.7422
vt 2.4836 -0.7944
vt 2.7348 -0.8300
vt 2.2579 -0.9526
vt 2.1817 -0.9312
vt 1.9621 -0.8645
vt 1.6689 -0.7904
vt 1.3887 -0.7928
vt 1.0193 -0.7100
vt 0.6651 -0.6318
vt 0.3465 -0.5525
vt 0.0520 -0.5439
vt -0.1924 -0.5071
vt -0.3799 -0.4713
vt -0.6223 -0.5474
vt -0.7565 -0.5694
vt -0.7397 -0.5244
vt -0.6836 -0.5074
vt -0.7100 -0.6292
vt -0.6125 -0.7282
vt -0.2895 -0.6485
vt 0.0256 -0.6054
vt 0.3254 -0.6973
vt 0.6901 -0.8029
vt 1.0772 -0.8451
vt 1.4511 -0.8835
vt 1.8469 -0.9869
vt 2.2109 -1.0966
vt 2.3626 -1.0852
vt 1.9489 -1.2139
vt 1.7848 -1.0652
vt 1.6073 -0.9792
vt 1.4066 -0.9327
vt 1.1779 -0.9116
vt 0.9133 -0.8788
vt 0.6358 -0.8328
vt 0.3747 -0.7297
vt 0.1714 -0.5961
vt 0.0051 -0.5305
vt -0.1921 -0.5937
vt -0.4219 -0.7316
vt -0.5867 -0.8239
vt -0.6233 -0.8288
vt -0.5634 -0.7955
vt -0.4624 -0.7857
vt -0.3101 -0.7803
vt -0.1216 -0.7945
vt 0.0857 -0.8820
vt 0.3454 -1.0175
vt 0.6683 -1.1512
vt 1.0106 -1.2032
vt 1.3150 -1.1971
vt 1.6229 -1.2745
vt 1.9266 -1.4057
vt 2.0516 -1.3903
vt 1.6300 -1.5163
vt 1.5110 -1.3580
vt 1.3718 -1.2568
vt 1.2189 -1.2138
vt 1.0376 -1.1888
vt 0.8275 -1.1481
vt 0.6062 -1.0727
vt 0.4018 -0.9542
vt 0.2359 -0.8291
vt 0.0973 -0.7648
vt -0.0379 -0.7822
vt -0.1672 -0.8444
vt -0.2688 -0.9129
vt -0.3181 -0.9598
vt -0.2981 -0.9667
vt -0.2208 -0.9525
vt -0.1168 -0.9704
vt 0.0029 -1.0613
vt 0.1612 -1.2048
vt 0.3759 -1.3366
vt 0.6292 -1.4123
vt 0.8840 -1.4320
vt 1.1217 -1.4529
vt 1.3554 -1.5391
vt 1.5644 -1.6448
vt 1.6677 -1.6460
vt 1.1680 -1.5980
vt 1.1359 -1.5568
vt 1.0678 -1.5141
vt 0.9700 -1.4720
vt 0.8475 -1.4211
vt 0.7092 -1.3531
vt 0.5679 -1.2693
vt 0.4355 -1.1807
vt 0.3190 -1.1027
vt 0.2202 -1.0471
vt 0.1387 -1.0161
vt 0.0754 -1.0060
vt 0.0324 -1.0124
vt 0.0125 -1.0310
vt 0.0182 -1.0585
vt 0.0493 -1.0986
vt 0.1041 -1.1611
vt 0.1836 -1.2494
vt 0.2912 -1.3497
vt 0.4257 -1.4372
vt 0.5766 -1.4947
vt 0.7288 -1.5263
vt 0.8711 -1.5516
vt 0.9966 -1.5839
vt 1.0961 -1.6143
vt 1.1559 -1.6216
vt 0.6900 -1.4433
vt 0.6835 -1.4329
vt 0.6660 -1.4173
vt 0.6388 -1.3969
vt 0.6040 -1.3723
vt 0.5640 -1.3449
vt 0.5214 -1.3162
vt 0.4789 -1.2882
vt 0.4389 -1.2632
vt 0.4032 -1.2427
vt 0.3735 -1.2282
vt 0.3511 -1.2205
vt 0.3367 -1.2199
vt 0.3312 -1.2265
vt 0.3348 -1.2401
vt 0.3476 -1.2600
vt 0.3694 -1.2848
vt 0.3993 -1.3130
vt 0.4361 -1.3422
vt 0.4780 -1.3702
vt 0.5223 -1.3950
vt 0.5664 -1.4156
vt 0.6073 -1.4313
vt 0.6421 -1.4421
vt 0.6686 -1.4478
vt 0.6849 -1.4482
vt 0.5000 2.2254
vt 0.5000 -1.1400
f 1/1/1 2/2/2 28/28/28
f 1/1/1 28/28/28 27/27/27
f 2/2/2 3/3/3 29/29/29
f 2/2/2 29/29/29 28/28/28
f 3/3/3 4/4/4 30/30/30
f 3/3/3 30/30/30 29/29/29
f 4/4/4 5/5/5 31/31/31
f 4/4/4 31/31/31 30/30/30
f 5/5/5 6/6/6 32/32/32
f 5/5/5 32/32/32 31/31/31
f 6/6/6 7/7/7 33/33/33
f 6/6/6 33/33/33 32/32/32
f 7/7/7 8/8/8 34/34/34
f 7/7/7 34/34/34 33/33/33
f 8/8/8 9/9/9 35/35/35
f 8/8/8 35/35/35 34/34/34
f 9/9/9 10/10/10 36/36/36
f 9/9/9 36/36/36 35/35/35
f 10/10/10 11/11/11 37/37/37
f 10/10/10 37/37/37 36/36/36
f 11/11/11 12/12/12 38/38/38
f 11/11/11 38/38/38 37/37/37
f 12/12/12 13/13/13 39/39/39
f 12/12/12 39/39/39 38/38/38
f 13/13/13 14/14/14 40/40/40
f 13/13/13 40/40/40 39/39/39
f 14/14/14 15/15/15 41/41/41
f 14/14/14 41/41/41 40/40/40
f 15/15/15 16/16/16 42/42/42
f 15/15/15 42/42/42 41/41/41
f 16/16/16 17/17/17 43/43/43
f 16/16/16 43/43/43 42/42/42
f 17/17/17 18/18/18 44/44/44
f 17/17/17 44/44/44 43/43/43
f 18/18/18 19/19/19 45/45/45
f 18/18/18 45/45/45 44/44/44
f 19/19/19 20/20/20 46/46/46
f 19/19/19 46/46/46 45/45/45
f 20/20/20 21/21/21 47/47/47
f 20/20/20 47/47/47 46/46/46
f 21/21/21 22/22/22 48/48/48
f 21/21/21 48/48/48 47/47/47
f 22/22/22 23/23/23 49/49/49
f 22/22/22 49/49/49 48/48/48
f 23/23/23 24/24/24 50/50/50
f 23/23/23 50/50/50 49/49/49
f 24/24/24 25/25/25 51/51/51
f 24/24/24 51/51/51 50/50/50
f 25/25/25 26/26/26 52/52/52
f 25/25/25 52/52/52 51/51/51
f 26/26/26 1/1/1 27/27/27
f 26/26/26 27/27/27 52/52/52
f 27/27/27 28/28/28 54/54/54
f 27/27/27 54/54/54 53/53/53
f 28/28/28 29/29/29 55/55/55
f 28/28/28 55/55/55 54/54/54
f 29/29/29 30/30/30 56/56/56
f 29/29/29 56/56/56 55/55/55
f 30/30/30 31/31/31 57/57/57
f 30/30/30 57/57/57 56/56/56
f 31/31/31 32/32/32 58/58/58
f 31/31/31 58/58/58 57/57/57
f 32/32/32 33/33/33 59/59/59
f 32/32/32 59/59/59 58/58/58
f 33/33/33 34/34/34 60/60/60
f 33/33/33 60/60/60 59/59/59
f 34/34/34 35/35/35 61/61/61
f 34/34/34 61/61/61 60/60/60
f 35/35/35 36/36/36 62/62/62
f 35/35/35 62/62/62 61/61/61
f 36/36/36 37/37/37 63/63/63
f 36/36/36 63/63/63 62/62/62
f 37/37/37 38/38/38 64/64/64
f 37/37/37 64/64/64 63/63/63
f 38/38/38 39/39/39 65/65/65
f 38/38/38 65/65/65 64/64/64
f 39/39/39 40/40/40 66/66/66
f 39/39/39 66/66/66 65/65/65
f 40/40/40 41/41/41 67/67/67
f 40/40/40 67/67/67 66/66/66
f 41/41/41 42/42/42 68/68/68
f 41/41/41 68/68/68 67/67/67
f 42/42/42 43/43/43 69/69/69
f 42/42/42 69/69/69 68/68/68
f 43/43/43 44/44/44 70/70/70
f 43/43/43 70/70/70 69/69/69
f 44/44/44 45/45/45 71/71/71
f 44/44/44 71/71/71 70/70/70
f 45/45/45 46/46/46 72/72/72
f 45/45/45 72/72/72 71/71/71
f 46/46/46 47/47/47 73/73/73
f 46/46/46 73/73/73 72/72/72
f 47/47/47 48/48/48 74/74/74
f 47/47/47 74/74/74 73/73/73
f 48/48/48 49/49/49 75/75/75
f 48/48/48 75/75/75 74/74/74
f 49/49/49 50/50/50 76/76/76
f 49/49/49 76/76/76 75/75/75
f 50/50/50 51/51/51 77/77/77
f 50/50/50 77/77/77 76/76/76
f 51/51/51 52/52/52 78/78/78
f 51/51/51 78/78/78 77/77/77
f 52/52/52 27/27/27 53/53/53
f 52/52/52 53/53/53 78/78/78
f 53/53/53 54/54/54 80/80/80
f 53/53/53 80/80/80 79/79/79
f 54/54/54 55/55/55 81/81/81
f 54/54/54 81/81/81 80/80/80
f 55/55/55 56/56/56 82/82/82
f 55/55/55 82/82/82 81/81/81
f 56/56/56 57/57/57 83/83/83
f 56/56/56 83/83/83 82/82/82
f 57/57/57 58/58/58 84/84/84
f 57/57/57 84/84/84 83/83/83
f 58/58/58 59/59/59 85/85/85
f 58/58/58 85/85/85 84/84/84
f 59/59/59 60/60/60 86/86/86
f 59/59/59 86/86/86 85/85/85
f 60/60/60 61/61/61 87/87/87
f 60/60/60 87/87/87 86/86/86
f 61/61/61 62/62/62 88/88/88
f 61/61/61 88/88/88 87/87/87
f 62/62/62 63/63/63 89/89/89
f 62/62/62 89/89/89 88/88/88
f 63/63/63 64/64/64 90/90/90
f 63/63/63 90/90/90 89/89/89
f 64/64/64 65/65/65 91/91/91
f 64/64/64 91/91/91 90/90/90
f 65/65/65 66/66/66 92/92/92
f 65/65/65 92/92/92 91/91/91
f 66/66/66 67/67/67 93/93/93
f 66/66/66 93/93/93 92/92/92
f 67/67/67 68/68/68 94/94/94
f 67/67/67 94/94/94 93/93/93
f 68/68/68 69/69/69 95/95/95
f 68/68/68 95/95/95 94/94/94
f 69/69/69 70/70/70 96/96/96
f 69/69/69 96/96/96 95/95/95
f 70/70/70 71/71/71 97/97/97
f 70/70/70 97/97/97 96/96/96
f 71/71/71 72/72/72 98/98/98
f 71/71/71 98/98/98 97/97/97
f 72/72/72 73/73/73 99/99/99
f 72/72/72 99/99/99 98/98/98
f 73/73/73 74/74/74 100/100/100
f 73/73/73 100/100/100 99/99/99
f 74/74/74 75/75/75 101/101/101
f 74/74/74 101/101/101 100/100/100
f 75/75/75 76/76/76 102/102/102
f 75/75/75 102/102/102 101/101/101
f 76/76/76 77/77/77 103/103/103
f 76/76/76 103/103/103 102/102/102
f 77/77/77 78/78/78 104/104/104
f 77/77/77 104/104/104 103/103/103
f 78/78/78 53/53/53 79/79/79
f 78/78/78 79/79/79 104/104/104
f 79/79/79 80/80/80 106/106/106
f 79/79/79 106/106/106 105/105/105
f 80/80/80 81/81/81 107/107/107
f 80/80/80 107/107/107 106/106/106
f 81/81/81 82/82/82 108/108/108
f 81/81/81 108/108/108 107/107/107
f 82/82/82 83/83/83 109/109/109
f 82/82/82 109/109/109 108/108/108
f 83/83/83 84/84/84 110/110/110
f 83/83/83 110/110/110 109/109/109
f 84/84/84 85/85/85 111/111/111
f 84/84/84 111/111/111 110/110/110
f 85/85/85 86/86/86 112/112/112
f 85/85/85 112/112/112 111/111/111
f 86/86/86 87/87/87 113/113/113
f 86/86/86 113/113/113 112/112/112
f 87/87/87 88/88/88 114/114/114
f 87/87/87 114/114/114 113/113/113
f 88/88/88 89/89/89 115/115/115
f 88/88/88 115/115/115 114/114/114
f 89/89/89 90/90/90 116/116/116
f 89/89/89 116/116/116 115/115/115
f 90/90/90 91/91/91 117/117/117
f 90/90/90 117/117/117 116/116/116
f 91/91/91 92/92/92 118/118/118
f 91/91/91 118/118/118 117/117/117
f 92/92/92 93/93/93 119/119/119
f 92/92/92 119/119/119 118/118/118
f 93/93/93 94/94/94 120/120/120
f 93/93/93 120/120/120 119/119/119
f 94/94/94 95/95/95 121/121/121
f 94/94/94 121/121/121 120/120/120
f 95/95/95 96/96/96 122/122/122
f 95/95/95 122/122/122 121/121/121
f 96/96/96 97/97/97 123/123/123
f 96/96/96 123/123/123 122/122/122
f 97/97/97 98/98/98 124/124/124
f 97/97/97 124/124/124 123/123/123
f 98/98/98 99/99/99 125/125/125
f 98/98/98 125/125/125 124/124/124
f 99/99/99 100/100/100 126/126/126
f 99/99/99 126/126/126 125/125/125
f 100/100/100 101/101/101 127/127/127
f 100/100/100 127/127/127 126/126/126
f 101/101/101 102/102/102 128/128/128
f 101/101/101 128/128/128 127/127/127
f 102/102/102 103/103/103 129/129/129
f 102/102/102 129/129/129 128/128/128
f 103/103/103 104/104/104 130/130/130
f 103/103/103 130/130/130 129/129/129
f 104/104/104 79/79/79 105/105/105
f 104/104/104 105/105/105 130/130/130
f 105/105/105 106/106/106 132/132/132
f 105/105/105 132/132/132 131/131/131
f 106/106/106 107/107/107 133/133/133
f 106/106/106 133/133/133 132/132/132
f 107/107/107 108/108/108 134/134/134
f 107/107/107 134/134/134 133/133/133
f 108/108/108 109/109/109 135/135/135
f 108/108/108 135/135/135 134/134/134
f 109/109/109 110/110/110 136/136/136
f 109/109/109 136/136/136 135/135/135
f 110/110/110 111/111/111 137/137/137
f 110/110/110 137/137/137 136/136/136
f 111/111/111 112/112/112 138/138/138
f 111/111/111 138/138/138 137/137/137
f 112/112/112 113/113/113 139/139/139
f 112/112/112 139/139/139 138/138/138
f 113/113/113 114/114/114 140/140/140
f 113/113/113 140/140/140 139/139/139
f 114/114/114 115/115/115 141/141/141
f 114/114/114 141/141/141 140/140/140
f 115/115/115 116/116/116 142/142/142
f 115/115/115 142/142/142 141/141/141
f 116/116/116 117/117/117 143/143/143
f 116/116/116 143/143/143 142/142/142
f 117/117/117 118/118/118 144/144/144
f 117/117/117 144/144/144 143/143/143
f 118/118/118 119/119/119 145/145/145
f 118/118/118 145/145/145 144/144/144
f 119/119/119 120/120/120 146/146/146
f 119/119/119 146/146/146 145/145/145
f 120/120/120 121/121/121 147/147/147
f 120/120/120 147/147/147 146/146/146
f 121/121/121 122/122/122 148/148/148
f 121/121/121 148/148/148 147/147/147
f 122/122/122 123/123/123 149/149/149
f 122/122/122 149/149/149 148/148/148
f 123/123/123 124/124/124 150/150/150
f 123/123/123 150/150/150 149/149/149
f 124/124/124 125/125/125 151/151/151
f 124/124/124 151/151/151 150/150/150
f 125/125/125 126/126/126 152/152/152
f 125/125/125 152/152/152 151/151/151
f 126/126/126 127/127/127 153/153/153
f 126/126/126 153/153/153 152/152/152
f 127/127/127 128/128/128 154/154/154
f 127/127/127 154/154/154 153/153/153
f 128/128/128 129/129/129 155/155/155
f 128/128/128 155/155/155 154/154/154
f 129/129/129 130/130/130 156/156/156
f 129/129/129 156/156/156 155/155/155
f 130/130/130 105/105/105 131/131/131
f 130/130/130 131/131/131 156/156/156
f 131/131/131 132/132/132 158/158/158
f 131/131/131 158/158/158 157/157/157
f 132/132/132 133/133/133 159/159/159
f 132/132/132 159/159/159 158/158/158
f 133/133/133 134/134/134 160/160/160
f 133/133/133 160/160/160 159/159/159
f 134/134/134 135/135/135 161/161/161
f 134/134/134 161/161/161 160/160/160
f 135/135/135 136/136/136 162/162/162
f 135/135/135 162/162/162 161/161/161
f 136/136/136 137/137/137 163/163/163
f 136/136/136 163/163/163 162/162/162
f 137/137/137 138/138/138 164/164/164
f 137/137/137 164/164/164 163/163/163
f 138/138/138 139/139/139 165/165/165
f 138/138/138 165/165/165 164/164/164
f 139/139/139 140/140/140 166/166/166
f 139/139/139 166/166/166 165/165/165
f 140/140/140 141/141/141 167/167/167
f 140/140/140 167/167/167 166/166/166
f 141/141/141 142/142/142 168/168/168
f 141/141/141 168/168/168 167/167/167
f 142/142/142 143/143/143 169/169/169
f 142/142/142 169/169/169 168/168/168
f 143/143/143 144/144/144 170/170/170
f 143/143/143 170/170/170 169/169/169
f 144/144/144 145/145/145 171/171/171
f 144/144/144 171/171/171 170/170/170
f 145/145/145 146/146/146 172/172/172
f 145/145/145 172/172/172 171/171/171
f 146/146/146 147/147/147 173/173/173
f 146/146/146 173/173/173 172/172/172
f 147/147/147 148/148/148 174/174/174
f 147/147/147 174/174/174 173/173/173
f 148/148/148 149/149/149 175/175/175
f 148/148/148 175/175/175 174/174/174
f 149/149/149 150/150/150 176/176/176
f 149/149/149 176/176/176 175/175/175
f 150/150/150 151/151/151 177/177/177
f 150/150/150 177/177/177 176/176/176
f 151/151/151 152/152/152 178/178/178
f 151/151/151 178/178/178 177/177/177
f 152/152/152 153/153/153 179/179/179
f 152/152/152 179/179/179 178/178/178
f 153/153/153 154/154/154 180/180/180
f 153/153/153 180/180/180 179/179/179
f 154/154/154 155/155/155 181/181/181
f 154/154/154 181/181/181 180/180/180
f 155/155/155 156/156/156 182/182/182
f 155/155/155 182/182/182 181/181/181
f 156/156/156 131/131/131 157/157/157
f 156/156/156 157/157/157 182/182/182
f 157/157/157 158/158/158 184/184/184
f 157/157/157 184/184/184 183/183/183
f 158/158/158 159/159/159 185/185/185
f 158/158/158 185/185/185 184/184/184
f 159/159/159 160/160/160 186/186/186
f 159/159/159 186/186/186 185/185/185
f 160/160/160 161/161/161 187/187/187
f 160/160/160 187/187/187 186/186/186
f 161/161/161 162/162/162 188/188/188
f 161/161/161 188/188/188 187/187/187
f 162/162/162 163/163/163 189/189/189
f 162/162/162 189/189/189 188/188/188
f 163/163/163 164/164/164 190/190/190
f 163/163/163 190/190/190 189/189/189
f 164/164/164 165/165/165 191/191/191
f 164/164/164 191/191/191 190/190/190
f 165/165/165 166/166/166 192/192/192
f 165/165/165 192/192/192 191/191/191
f 166/166/166 167/167/167 193/193/193
f 166/166/166 193/193/193 192/192/192
f 167/167/167 168/168/168 194/194/194
f 167/167/167 194/194/194 193/193/193
f 168/168/168 169/169/169 195/195/195
f 168/168/168 195/195/195 194/194/194
f 169/169/169 170/170/170 196/196/196
f 169/169/169 196/196/196 195/195/195
f 170/170/170 171/171/171 197/197/197
f 170/170/170 197/197/197 196/196/196
f 171/171/171 172/172/172 198/198/198
f 171/171/171 198/198/198 197/197/197
f 172/172/172 173/173/173 199/199/199
f 172/172/172 199/199/199 198/198/198
f 173/173/173 174/174/174 200/200/200
f 173/173/173 200/200/200 199/199/199
f 174/174/174 175/175/175 201/201/201
f 174/174/174 201/201/201 200/200/200
f 175/175/175 176/176/176 202/202/202
f 175/175/175 202/202/202 201/201/201
f 176/176/176 177/177/177 203/203/203
f 176/176/176 203/203/203 202/202/202
f 177/177/177 178/178/178 204/204/204
f 177/177/177 204/204/204 203/203/203
f 178/178/178 179/179/179 205/205/205
f 178/178/178 205/205/205 204/204/204
f 179/179/179 180/180/180 206/206/206
f 179/179/179 206/206/206 205/205/205
f 180/180/180 181/181/181 207/207/207
f 180/180/180 207/207/207 206/206/206
f 181/181/181 182/182/182 208/208/208
f 181/181/181 208/208/208 207/207/207
f 182/182/182 157/157/157 183/183/183
f 182/182/182 183/183/183 208/208/208
f 183/183/183 184/184/184 210/210/210
f 183/183/183 210/210/210 209/209/209
f 184/184/184 185/185/185 211/211/211
f 184/184/184 211/211/211 210/210/210
f 185/185/185 186/186/186 212/212/212
f 185/185/185 212/212/212 211/211/211
f 186/186/186 187/187/187 213/213/213
f 186/186/186 213/213/213 212/212/212
f 187/187/187 188/188/188 214/214/214
f 187/187/187 214/214/214 213/213/213
f 188/188/188 189/189/189 215/215/215
f 188/188/188 215/215/215 214/214/214
f 189/189/189 190/190/190 216/216/216
f 189/189/189 216/216/216 215/215/215
f 190/190/190 191/191/191 217/217/217
f 190/190/190 217/217/217 216/216/216
f 191/191/191 192/192/192 218/218/218
f 191/191/191 218/218/218 217/217/217
f 192/192/192 193/193/193 219/219/219
f 192/192/192 219/219/219 218/218/218
f 193/193/193 194/194/194 220/220/220
f 193/193/193 220/220/220 219/219/219
f 194/194/194 195/195/195 221/221/221
f 194/194/194 221/221/221 220/220/220
f 195/195/195 196/196/196 222/222/222
f 195/195/195 222/222/222 221/221/221
f 196/196/196 197/197/197 223/223/223
f 196/196/196 223/223/223 222/222/222
f 197/197/197 198/198/198 224/224/224
f 197/197/197 224/224/224 223/223/223
f 198/198/198 199/199/199 225/225/225
f 198/198/198 225/225/225 224/224/224
f 199/199/199 200/200/200 226/226/226
f 199/199/199 226/226/226 225/225/225
f 200/200/200 201/201/201 227/227/227
f 200/200/200 227/227/227 226/226/226
f 201/201/201 202/202/202 228/228/228
f 201/201/201 228/228/228 227/227/227
f 202/202/202 203/203/203 229/229/229
f 202/202/202 229/229/229 228/228/228
f 203/203/203 204/204/204 230/230/230
f 203/203/203 230/230/230 229/229/229
f 204/204/204 205/205/205 231/231/231
f 204/204/204 231/231/231 230/230/230
f 205/205/205 206/206/206 232/232/232
f 205/205/205 232/232/232 231/231/231
f 206/206/206 207/207/207 233/233/233
f 206/206/206 233/233/233 232/232/232
f 207/207/207 208/208/208 234/234/234
f 207/207/207 234/234/234 233/233/233
f 208/208/208 183/183/183 209/209/209
f 208/208/208 209/209/209 234/234/234
f 209/209/209 210/210/210 236/236/236
f 209/209/209 236/236/236 235/235/235
f 210/210/210 211/211/211 237/237/237
f 210/210/210 237/237/237 236/236/236
f 211/211/211 212/212/212 238/238/238
f 211/211/211 238/238/238 237/237/237
f 212/212/212 213/213/213 239/239/239
f 212/212/212 239/239/239 238/238/238
f 213/213/213 214/214/214 240/240/240
f 213/213/213 240/240/240 239/239/239
f 214/214/214 215/215/215 241/241/241
f 214/214/214 241/241/241 240/240/240
f 215/215/215 216/216/216 242/242/242
f 215/215/215 242/242/242 241/241/241
f 216/216/216 217/217/217 243/243/243
f 216/216/216 243/243/243 242/242/242
f 217/217/217 218/218/218 244/244/244
f 217/217/217 244/244/244 243/243/243
f 218/218/218 219/219/219 245/245/245
f 218/218/218 245/245/245 244/244/244
f 219/219/219 220/220/220 246/246/246
f 219/219/219 246/246/246 245/245/245
f 220/220/220 221/221/221 247/247/247
f 220/220/220 247/247/247 246/246/246
f 221/221/221 222/222/222 248/248/248
f 221/221/221 248/248/248 247/247/247
f 222/222/222 223/223/223 249/249/249
f 222/222/222 249/249/249 248/248/248
f 223/223/223 224/224/224 250/250/250
f 223/223/223 250/250/250 249/249/249
f 224/224/224 225/225/225 251/251/251
f 224/224/224 251/251/251 250/250/250
f 225/225/225 226/226/226 252/252/252
f 225/225/225 252/252/252 251/251/251
f 226/226/226 227/227/227 253/253/253
f 226/226/226 253/253/253 252/252/252
f 227/227/227 228/228/228 254/254/254
f 227/227/227 254/254/254 253/253/253
f 228/228/228 229/229/229 255/255/255
f 228/228/228 255/255/255 254/254/254
f 229/229/229 230/230/230 256/256/256
f 229/229/229 256/256/256 255/255/255
f 230/230/230 231/231/231 257/257/257
f 230/230/230 257/257/257 256/256/256
f 231/231/231 232/232/232 258/258/258
f 231/231/231 258/258/258 257/257/257
f 232/232/232 233/233/233 259/259/259
f 232/232/232 259/259/259 258/258/258
f 233/233/233 234/234/234 260/260/260
f 233/233/233 260/260/260 259/259/259
f 234/234/234 209/209/209 235/235/235
f 234/234/234 235/235/235 260/260/260
f 235/235/235 236/236/236 262/262/262
f 235/235/235 262/262/262 261/261/261
f 236/236/236 237/237/237 263/263/263
f 236/236/236 263/263/263 262/262/262
f 237/237/237 238/238/238 264/264/264
f 237/237/237 264/264/264 263/263/263
f 238/238/238 239/239/239 265/265/265
f 238/238/238 265/265/265 264/264/264
f 239/239/239 240/240/240 266/266/266
f 239/239/239 266/266/266 265/265/265
f 240/240/240 241/241/241 267/267/267
f 240/240/240 267/267/267 266/266/266
f 241/241/241 242/242/242 268/268/268
f 241/241/241 268/268/268 267/267/267
f 242/242/242 243/243/243 269/269/269
f 242/242/242 269/269/269 268/268/268
f 243/243/243 244/244/244 270/270/270
f 243/243/243 270/270/270 269/269/269
f 244/244/244 245/245/245 271/271/271
f 244/244/244 271/271/271 270/270/270
f 245/245/245 246/246/246 272/272/272
f 245/245/245 272/272/272 271/271/271
f 246/246/246 247/247/247 273/273/273
f 246/246/246 273/273/273 272/272/272
f 247/247/247 248/248/248 274/274/274
f 247/247/247 274/274/274 273/273/273
f 248/248/248 249/249/249 275/275/275
f 248/248/248 275/275/275 274/274/274
f 249/249/249 250/250/250 276/276/276
f 249/249/249 276/276/276 275/275/275
f 250/250/250 251/251/251 277/277/277
f 250/250/250 277/277/277 276/276/276
f 251/251/251 252/252/252 278/278/278
f 251/251/251 278/278/278 277/277/277
f 252/252/252 253/253/253 279/279/279
f 252/252/252 279/279/279 278/278/278
f 253/253/253 254/254/254 280/280/280
f 253/253/253 280/280/280 279/279/279
f 254/254/254 255/255/255 281/281/281
f 254/254/254 281/281/281 280/280/280
f 255/255/255 256/256/256 282/282/282
f 255/255/255 282/282/282 281/281/281
f 256/256/256 257/257/257 283/283/283
f 256/256/256 283/283/283 282/282/282
f 257/257/257 258/258/258 284/284/284
f 257/257/257 284/284/284 283/283/283
f 258/258/258 259/259/259 285/285/285
f 258/258/258 285/285/285 284/284/284
f 259/259/259 260/260/260 286/286/286
f 259/259/259 286/286/286 285/285/285
f 260/260/260 235/235/235 261/261/261
f 260/260/260 261/261/261 286/286/286
f 261/261/261 262/262/262 288/288/288
f 261/261/261 288/288/288 287/287/287
f 262/262/262 263/263/263 289/289/289
f 262/262/262 289/289/289 288/288/288
f 263/263/263 264/264/264 290/290/290
f 263/263/263 290/290/290 289/289/289
f 264/264/264 265/265/265 291/291/291
f 264/264/264 291/291/291 290/290/290
f 265/265/265 266/266/266 292/292/292
f 265/265/265 292/292/292 291/291/291
f 266/266/266 267/267/267 293/293/293
f 266/266/266 293/293/293 292/292/292
f 267/267/267 268/268/268 294/294/294
f 267/267/267 294/294/294 293/293/293
f 268/268/268 269/269/269 295/295/295
f 268/268/268 295/295/295 294/294/294
f 269/269/269 270/270/270 296/296/296
f 269/269/269 296/296/296 295/295/295
f 270/270/270 271/271/271 297/297/297
f 270/270/270 297/297/297 296/296/296
f 271/271/271 272/272/272 298/298/298
f 271/271/271 298/298/298 297/297/297
f 272/272/272 273/273/273 299/299/299
f 272/272/272 299/299/299 298/298/298
f 273/273/273 274/274/274 300/300/300
f 273/273/273 300/300/300 299/299/299
f 274/274/274 275/275/275 301/301/301
f 274/274/274 301/301/301 300/300/300
f 275/275/275 276/276/276 302/302/302
f 275/275/275 302/302/302 301/301/301
f 276/276/276 277/277/277 303/303/303
f 276/276/276 303/303/303 302/302/302
f 277/277/277 278/278/278 304/304/304
f 277/277/277 304/304/304 303/303/303
f 278/278/278 279/279/279 305/305/305
f 278/278/278 305/305/305 304/304/304
f 279/279/279 280/280/280 306/306/306
f 279/279/279 306/306/306 305/305/305
f 280/280/280 281/281/281 307/307/307
f 280/280/280 307/307/307 306/306/306
f 281/281/281 282/282/282 308/308/308
f 281/281/281 308/308/308 307/307/307
f 282/282/282 283/283/283 309/309/309
f 282/282/282 309/309/309 308/308/308
f 283/283/283 284/284/284 310/310/310
f 283/283/283 310/310/310 309/309/309
f 284/284/284 285/285/285 311/311/311
f 284/284/284 311/311/311 310/310/310
f 285/285/285 286/286/286 312/312/312
f 285/285/285 312/312/312 311/311/311
f 286/286/286 261/261/261 287/287/287
f 286/286/286 287/287/287 312/312/312
f 287/287/287 288/288/288 314/314/314
f 287/287/287 314/314/314 313/313/313
f 288/288/288 289/289/289 315/315/315
f 288/288/288 315/315/315 314/314/314
f 289/289/289 290/290/290 316/316/316
f 289/289/289 316/316/316 315/315/315
f 290/290/290 291/291/291 317/317/317
f 290/290/290 317/317/317 316/316/316
f 291/291/291 292/292/292 318/318/318
f 291/291/291 318/318/318 317/317/317
f 292/292/292 293/293/293 319/319/319
f 292/292/292 319/319/319 318/318/318
f 293/293/293 294/294/294 320/320/320
f 293/293/293 320/320/320 319/319/319
f 294/294/294 295/295/295 321/321/321
f 294/294/294 321/321/321 320/320/320
f 295/295/295 296/296/296 322/322/322
f 295/295/295 322/322/322 321/321/321
f 296/296/296 297/297/297 323/323/323
f 296/296/296 323/323/323 322/322/322
f 297/297/297 298/298/298 324/324/324
f 297/297/297 324/324/324 323/323/323
f 298/298/298 299/299/299 325/325/325
f 298/298/298 325/325/325 324/324/324
f 299/299/299 300/300/300 326/326/326
f 299/299/299 326/326/326 325/325/325
f 300/300/300 301/301/301 327/327/327
f 300/300/300 327/327/327 326/326/326
f 301/301/301 302/302/302 328/328/328
f 301/301/301 328/328/328 327/327/327
f 302/302/302 303/303/303 329/329/329
f 302/302/302 329/329/329 328/328/328
f 303/303/303 304/304/304 330/330/330
f 303/303/303 330/330/330 329/329/329
f 304/304/304 305/305/305 331/331/331
f 304/304/304 331/331/331 330/330/330
f 305/305/305 306/306/306 332/332/332
f 305/305/305 332/332/332 331/331/331
f 306/306/306 307/307/307 333/333/333
f 306/306/306 333/333/333 332/332/332
f 307/307/307 308/308/308 334/334/334
f 307/307/307 334/334/334 333/333/333
f 308/308/308 309/309/309 335/335/335
f 308/308/308 335/335/335 334/334/334
f 309/309/309 310/310/310 336/336/336
f 309/309/309 336/336/336 335/335/335
f 310/310/310 311/311/311 337/337/337
f 310/310/310 337/337/337 336/336/336
f 311/311/311 312/312/312 338/338/338
f 311/311/311 338/338/338 337/337/337
f 312/312/312 287/287/287 313/313/313
f 312/312/312 313/313/313 338/338/338
f 313/313/313 314/314/314 340/340/340
f 313/313/313 340/340/340 339/339/339
f 314/314/314 315/315/315 341/341/341
f 314/314/314 341/341/341 340/340/340
f 315/315/315 316/316/316 342/342/342
f 315/315/315 342/342/342 341/341/341
f 316/316/316 317/317/317 343/343/343
f 316/316/316 343/343/343 342/342/342
f 317/317/317 318/318/318 344/344/344
f 317/317/317 344/344/344 343/343/343
f 318/318/318 319/319/319 345/345/345
f 318/318/318 345/345/345 344/344/344
f 319/319/319 320/320/320 346/346/346
f 319/319/319 346/346/346 345/345/345
f 320/320/320 321/321/321 347/347/347
f 320/320/320 347/347/347 346/346/346
f 321/321/321 322/322/322 348/348/348
f 321/321/321 348/348/348 347/347/347
f 322/322/322 323/323/323 349/349/349
f 322/322/322 349/349/349 348/348/348
f 323/323/323 324/324/324 350/350/350
f 323/323/323 350/350/350 349/349/349
f 324/324/324 325/325/325 351/351/351
f 324/324/324 351/351/351 350/350/350
f 325/325/325 326/326/326 352/352/352
f 325/325/325 352/352/352 351/351/351
f 326/326/326 327/327/327 353/353/353
f 326/326/326 353/353/353 352/352/352
f 327/327/327 328/328/328 354/354/354
f 327/327/327 354/354/354 353/353/353
f 328/328/328 329/329/329 355/355/355
f 328/328/328 355/355/355 354/354/354
f 329/329/329 330/330/330 356/356/356
f 329/329/329 356/356/356 355/355/355
f 330/330/330 331/331/331 357/357/357
f 330/330/330 357/357/357 356/356/356
f 331/331/331 332/332/332 358/358/358
f 331/331/331 358/358/358 357/357/357
f 332/332/332 333/333/333 359/359/359
f 332/332/332 359/359/359 358/358/358
f 333/333/333 334/334/334 360/360/360
f 333/333/333 360/360/360 359/359/359
f 334/334/334 335/335/335 361/361/361
f 334/334/334 361/361/361 360/360/360
f 335/335/335 336/336/336 362/362/362
f 335/335/335 362/362/362 361/361/361
f 336/336/336 337/337/337 363/363/363
f 336/336/336 363/363/363 362/362/362
f 337/337/337 338/338/338 364/364/364
f 337/337/337 364/364/364 363/363/363
f 338/338/338 313/313/313 339/339/339
f 338/338/338 339/339/339 364/364/364
f 339/339/339 340/340/340 366/366/366
f 339/339/339 366/366/366 365/365/365
f 340/340/340 341/341/341 367/367/367
f 340/340/340 367/367/367 366/366/366
f 341/341/341 342/342/342 368/368/368
f 341/341/341 368/368/368 367/367/367
f 342/342/342 343/343/343 369/369/369
f 342/342/342 369/369/369 368/368/368
f 343/343/343 344/344/344 370/370/370
f 343/343/343 370/370/370 369/369/369
f 344/344/344 345/345/345 371/371/371
f 344/344/344 371/371/371 370/370/370
f 345/345/345 346/346/346 372/372/372
f 345/345/345 372/372/372 371/371/371
f 346/346/346 347/347/347 373/373/373
f 346/346/346 373/373/373 372/372/372
f 347/347/347 348/348/348 374/374/374
f 347/347/347 374/374/374 373/373/373
f 348/348/348 349/349/349 375/375/375
f 348/348/348 375/375/375 374/374/374
f 349/349/349 350/350/350 376/376/376
f 349/349/349 376/376/376 375/375/375
f 350/350/350 351/351/351 377/377/377
f 350/350/350 377/377/377 376/376/376
f 351/351/351 352/352/352 378/378/378
f 351/351/351 378/378/378 377/377/377
f 352/352/352 353/353/353 379/379/379
f 352/352/352 379/379/379 378/378/378
f 353/353/353 354/354/354 380/380/380
f 353/353/353 380/380/380 379/379/379
f 354/354/354 355/355/355 381/381/381
f 354/354/354 381/381/381 380/380/380
f 355/355/355 356/356/356 382/382/382
f 355/355/355 382/382/382 381/381/381
f 356/356/356 357/357/357 383/383/383
f 356/356/356 383/383/383 382/382/382
f 357/357/357 358/358/358 384/384/384
f 357/357/357 384/384/384 383/383/383
f 358/358/358 359/359/359 385/385/385
f 358/358/358 385/385/385 384/384/384
f 359/359/359 360/360/360 386/386/386
f 359/359/359 386/386/386 385/385/385
f 360/360/360 361/361/361 387/387/387
f 360/360/360 387/387/387 386/386/386
f 361/361/361 362/362/362 388/388/388
f 361/361/361 388/388/388 387/387/387
f 362/362/362 363/363/363 389/389/389
f 362/362/362 389/389/389 388/388/388
f 363/363/363 364/364/364 390/390/390
f 363/363/363 390/390/390 389/389/389
f 364/364/364 339/339/339 365/365/365
f 364/364/364 365/365/365 390/390/390
f 365/365/365 366/366/366 392/392/392
f 365/365/365 392/392/392 391/391/391
f 366/366/366 367/367/367 393/393/393
f 366/366/366 393/393/393 392/392/392
f 367/367/367 368/368/368 394/394/394
f 367/367/367 394/394/394 393/393/393
f 368/368/368 369/369/369 395/395/395
f 368/368/368 395/395/395 394/394/394
f 369/369/369 370/370/370 396/396/396
f 369/369/369 396/396/396 395/395/395
f 370/370/370 371/371/371 397/397/397
f 370/370/370 397/397/397 396/396/396
f 371/371/371 372/372/372 398/398/398
f 371/371/371 398/398/398 397/397/397
f 372/372/372 373/373/373 399/399/399
f 372/372/372 399/399/399 398/398/398
f 373/373/373 374/374/374 400/400/400
f 373/373/373 400/400/400 399/399/399
f 374/374/374 375/375/375 401/401/401
f 374/374/374 401/401/401 400/400/400
f 375/375/375 376/376/376 402/402/402
f 375/375/375 402/402/402 401/401/401
f 376/376/376 377/377/377 403/403/403
f 376/376/376 403/403/403 402/402/402
f 377/377/377 378/378/378 404/404/404
f 377/377/377 404/404/404 403/403/403
f 378/378/378 379/379/379 405/405/405
f 378/378/378 405/405/405 404/404/404
f 379/379/379 380/380/380 406/406/406
f 379/379/379 406/406/406 405/405/405
f 380/380/380 381/381/381 407/407/407
f 380/380/380 407/407/407 406/406/406
f 381/381/381 382/382/382 408/408/408
f 381/381/381 408/408/408 407/407/407
f 382/382/382 383/383/383 409/409/409
f 382/382/382 409/409/409 408/408/408
f 383/383/383 384/384/384 410/410/410
f 383/383/383 410/410/410 409/409/409
f 384/384/384 385/385/385 411/411/411
f 384/384/384 411/411/411 410/410/410
f 385/385/385 386/386/386 412/412/412
f 385/385/385 412/412/412 411/411/411
f 386/386/386 387/387/387 413/413/413
f 386/386/386 413/413/413 412/412/412
f 387/387/387 388/388/388 414/414/414
f 387/387/387 414/414/414 413/413/413
f 388/388/388 389/389/389 415/415/415
f 388/388/388 415/415/415 414/414/414
f 389/389/389 390/390/390 416/416/416
f 389/389/389 416/416/416 415/415/415
f 390/390/390 365/365/365 391/391/391
f 390/390/390 391/391/391 416/416/416
f 391/391/391 392/392/392 418/418/418
f 391/391/391 418/418/418 417/417/417
f 392/392/392 393/393/393 419/419/419
f 392/392/392 419/419/419 418/418/418
f 393/393/393 394/394/394 420/420/420
f 393/393/393 420/420/420 419/419/419
f 394/394/394 395/395/395 421/421/421
f 394/394/394 421/421/421 420/420/420
f 395/395/395 396/396/396 422/422/422
f 395/395/395 422/422/422 421/421/421
f 396/396/396 397/397/397 423/423/423
f 396/396/396 423/423/423 422/422/422
f 397/397/397 398/398/398 424/424/424
f 397/397/397 424/424/424 423/423/423
f 398/398/398 399/399/399 425/425/425
f 398/398/398 425/425/425 424/424/424
f 399/399/399 400/400/400 426/426/426
f 399/399/399 426/426/426 425/425/425
f 400/400/400 401/401/401 427/427/427
f 400/400/400 427/427/427 426/426/426
f 401/401/401 402/402/402 428/428/428
f 401/401/401 428/428/428 427/427/427
f 402/402/402 403/403/403 429/429/429
f 402/402/402 429/429/429 428/428/428
f 403/403/403 404/404/404 430/430/430
f 403/403/403 430/430/430 429/429/429
f 404/404/404 405/405/405 431/431/431
f 404/404/404 431/431/431 430/430/430
f 405/405/405 406/406/406 432/432/432
f 405/405/405 432/432/432 431/431/431
f 406/406/406 407/407/407 433/433/433
f 406/406/406 433/433/433 432/432/432
f 407/407/407 408/408/408 434/434/434
f 407/407/407 434/434/434 433/433/433
f 408/408/408 409/409/409 435/435/435
f 408/408/408 435/435/435 434/434/434
f 409/409/409 410/410/410 436/436/436
f 409/409/409 436/436/436 435/435/435
f 410/410/410 411/411/411 437/437/437
f 410/410/410 437/437/437 436/436/436
f 411/411/411 412/412/412 438/438/438
f 411/411/411 438/438/438 437/437/437
f 412/412/412 413/413/413 439/439/439
f 412/412/412 439/439/439 438/438/438
f 413/413/413 414/414/414 440/440/440
f 413/413/413 440/440/440 439/439/439
f 414/414/414 415/415/415 441/441/441
f 414/414/414 441/441/441 440/440/440
f 415/415/415 416/416/416 442/442/442
f 415/415/415 442/442/442 441/441/441
f 416/416/416 391/391/391 417/417/417
f 416/416/416 417/417/417 442/442/442
f 417/417/417 418/418/418 444/444/444
f 417/417/417 444/444/444 443/443/443
f 418/418/418 419/419/419 445/445/445
f 418/418/418 445/445/445 444/444/444
f 419/419/419 420/420/420 446/446/446
f 419/419/419 446/446/446 445/445/445
f 420/420/420 421/421/421 447/447/447
f 420/420/420 447/447/447 446/446/446
f 421/421/421 422/422/422 448/448/448
f 421/421/421 448/448/448 447/447/447
f 422/422/422 423/423/423 449/449/449
f 422/422/422 449/449/449 448/448/448
f 423/423/423 424/424/424 450/450/450
f 423/423/423 450/450/450 449/449/449
f 424/424/424 425/425/425 451/451/451
f 424/424/424 451/451/451 450/450/450
f 425/425/425 426/426/426 452/452/452
f 425/425/425 452/452/452 451/451/451
f 426/426/426 427/427/427 453/453/453
f 426/426/426 453/453/453 452/452/452
f 427/427/427 428/428/428 454/454/454
f 427/427/427 454/454/454 453/453/453
f 428/428/428 429/429/429 455/455/455
f 428/428/428 455/455/455 454/454/454
f 429/429/429 430/430/430 456/456/456
f 429/429/429 456/456/456 455/455/455
f 430/430/430 431/431/431 457/457/457
f 430/430/430 457/457/457 456/456/456
f 431/431/431 432/432/432 458/458/458
f 431/431/431 458/458/458 457/457/457
f 432/432/432 433/433/433 459/459/459
f 432/432/432 459/459/459 458/458/458
f 433/433/433 434/434/434 460/460/460
f 433/433/433 460/460/460 459/459/459
f 434/434/434 435/435/435 461/461/461
f 434/434/434 461/461/461 460/460/460
f 435/435/435 436/436/436 462/462/462
f 435/435/435 462/462/462 461/461/461
f 436/436/436 437/437/437 463/463/463
f 436/436/436 463/463/463 462/462/462
f 437/437/437 438/438/438 464/464/464
f 437/437/437 464/464/464 463/463/463
f 438/438/438 439/439/439 465/465/465
f 438/438/438 465/465/465 464/464/464
f 439/439/439 440/440/440 466/466/466
f 439/439/439 466/466/466 465/465/465
f 440/440/440 441/441/441 467/467/467
f 440/440/440 467/467/467 466/466/466
f 441/441/441 442/442/442 468/468/468
f 441/441/441 468/468/468 467/467/467
f 442/442/442 417/417/417 443/443/443
f 442/442/442 443/443/443 468/468/468
f 469/469/469 2/2/2 1/1/1
f 469/469/469 3/3/3 2/2/2
f 469/469/469 4/4/4 3/3/3
f 469/469/469 5/5/5 4/4/4
f 469/469/469 6/6/6 5/5/5
f 469/469/469 7/7/7 6/6/6
f 469/469/469 8/8/8 7/7/7
f 469/469/469 9/9/9 8/8/8
f 469/469/469 10/10/10 9/9/9
f 469/469/469 11/11/11 10/10/10
f 469/469/469 12/12/12 11/11/11
f 469/469/469 13/13/13 12/12/12
f 469/469/469 14/14/14 13/13/13
f 469/469/469 15/15/15 14/14/14
f 469/469/469 16/16/16 15/15/15
f 469/469/469 17/17/17 16/16/16
f 469/469/469 18/18/18 17/17/17
f 469/469/469 19/19/19 18/18/18
f 469/469/469 20/20/20 19/19/19
f 469/469/469 21/21/21 20/20/20
f 469/469/469 22/22/22 21/21/21
f 469/469/469 23/23/23 22/22/22
f 469/469/469 24/24/24 23/23/23
f 469/469/469 25/25/25 24/24/24
f 469/469/469 26/26/26 25/25/25
f 469/469/469 1/1/1 26/26/26
f 470/470/470 443/443/443 444/444/444
f 470/470/470 444/444/444 445/445/445
f 470/470/470 445/445/445 446/446/446
f 470/470/470 446/446/446 447/447/447
f 470/470/470 447/447/447 448/448/448
f 470/470/470 448/448/448 449/449/449
f 470/470/470 449/449/449 450/450/450
f 470/470/470 450/450/450 451/451/451
f 470/470/470 451/451/451 452/452/452
f 470/470/470 452/452/452 453/453/453
f 470/470/470 453/453/453 454/454/454
f 470/470/470 454/454/454 455/455/455
f 470/470/470 455/455/455 456/456/456
f 470/470/470 456/456/456 457/457/457
f 470/470/470 457/457/457 458/458/458
f 470/470/470 458/458/458 459/459/459
f 470/470/470 459/459/459 460/460/460
f 470/470/470 460/460/460 461/461/461
f 470/470/470 461/461/461 462/462/462
f 470/470/470 462/462/462 463/463/463
f 470/470/470 463/463/463 464/464/464
f 470/470/470 464/464/464 465/465/465
f 470/470/470 465/465/465 466/466/466
f 470/470/470 466/466/466 467/467/467
f 470/470/470 467/467/467 468/468/468
f 470/470/470 468/468/468 443/443/443
