# procedural placeholder mesh: farmer_boot_shaft
v 0.06000 -0.86000 -0.01000
v 0.05796 -0.86000 0.00656
v 0.05196 -0.86000 0.02200
v 0.04243 -0.86000 0.03525
v 0.03000 -0.86000 0.04543
v 0.01553 -0.86000 0.05182
v 0.00000 -0.86000 0.05400
v -0.01553 -0.86000 0.05182
v -0.03000 -0.86000 0.04543
v -0.04243 -0.86000 0.03525
v -0.05196 -0.86000 0.02200
v -0.05796 -0.86000 0.00656
v -0.06000 -0.86000 -0.01000
v -0.05796 -0.86000 -0.02656
v -0.05196 -0.86000 -0.04200
v -0.04243 -0.86000 -0.05525
v -0.03000 -0.86000 -0.06543
v -0.01553 -0.86000 -0.07182
v -0.00000 -0.86000 -0.07400
v 0.01553 -0.86000 -0.07182
v 0.03000 -0.86000 -0.06543
v 0.04243 -0.86000 -0.05525
v 0.05196 -0.86000 -0.04200
v 0.05796 -0.86000 -0.02656
v 0.06107 -0.83586 -0.00786
v 0.05899 -0.83586 0.00898
v 0.05289 -0.83586 0.02468
v 0.04318 -0.83586 0.03815
v 0.03053 -0.83586 0.04849
v 0.01581 -0.83586 0.05499
v 0.00000 -0.83586 0.05721
v -0.01581 -0.83586 0.05499
v -0.03053 -0.83586 0.04849
v -0.04318 -0.83586 0.03815
v -0.05289 -0.83586 0.02468
v -0.05899 -0.83586 0.00898
v -0.06107 -0.83586 -0.00786
v -0.05899 -0.83586 -0.02470
v -0.05289 -0.83586 -0.04039
v -0.04318 -0.83586 -0.05387
v -0.03053 -0.83586 -0.06421
v -0.01581 -0.83586 -0.07071
v -0.00000 -0.83586 -0.07292
v 0.01581 -0.83586 -0.07071
v 0.03053 -0.83586 -0.06421
v 0.04318 -0.83586 -0.05387
v 0.05289 -0.83586 -0.04039
v 0.05899 -0.83586 -0.02470
v 0.06192 -0.81015 -0.00571
v 0.05981 -0.81015 0.01135
v 0.05363 -0.81015 0.02725
v 0.04379 -0.81015 0.04090
v 0.03096 -0.81015 0.05138
v 0.01603 -0.81015 0.05796
v 0.00000 -0.81015 0.06021
v -0.01603 -0.81015 0.05796
v -0.03096 -0.81015 0.05138
v -0.04379 -0.81015 0.04090
v -0.05363 -0.81015 0.02725
v -0.05981 -0.81015 0.01135
v -0.06192 -0.81015 -0.00571
v -0.05981 -0.81015 -0.02278
v -0.05363 -0.81015 -0.03868
v -0.04379 -0.81015 -0.05233
v -0.03096 -0.81015 -0.06281
v -0.01603 -0.81015 -0.06939
v -0.00000 -0.81015 -0.07164
v 0.01603 -0.81015 -0.06939
v 0.03096 -0.81015 -0.06281
v 0.04379 -0.81015 -0.05233
v 0.05363 -0.81015 -0.03868
v 0.05981 -0.81015 -0.02278
v 0.06172 -0.77119 -0.00328
v 0.05962 -0.77119 0.01373
v 0.05345 -0.77119 0.02958
v 0.04364 -0.77119 0.04319
v 0.03086 -0.77119 0.05364
v 0.01597 -0.77119 0.06020
v 0.00000 -0.77119 0.06244
v -0.01597 -0.77119 0.06020
v -0.03086 -0.77119 0.05364
v -0.04364 -0.77119 0.04319
v -0.05345 -0.77119 0.02958
v -0.05962 -0.77119 0.01373
v -0.06172 -0.77119 -0.00328
v -0.05962 -0.77119 -0.02029
v -0.05345 -0.77119 -0.03614
v -0.04364 -0.77119 -0.04975
v -0.03086 -0.77119 -0.06020
v -0.01597 -0.77119 -0.06676
v -0.00000 -0.77119 -0.06900
v 0.01597 -0.77119 -0.06676
v 0.03086 -0.77119 -0.06020
v 0.04364 -0.77119 -0.04975
v 0.05345 -0.77119 -0.03614
v 0.05962 -0.77119 -0.02029
v 0.06069 -0.72031 -0.00070
v 0.05862 -0.72031 0.01604
v 0.05256 -0.72031 0.03164
v 0.04291 -0.72031 0.04504
v 0.03034 -0.72031 0.05532
v 0.01571 -0.72031 0.06178
v 0.00000 -0.72031 0.06399
v -0.01571 -0.72031 0.06178
v -0.03034 -0.72031 0.05532
v -0.04291 -0.72031 0.04504
v -0.05256 -0.72031 0.03164
v -0.05862 -0.72031 0.01604
v -0.06069 -0.72031 -0.00070
v -0.05862 -0.72031 -0.01744
v -0.05256 -0.72031 -0.03304
v -0.04291 -0.72031 -0.04644
v -0.03034 -0.72031 -0.05672
v -0.01571 -0.72031 -0.06318
v -0.00000 -0.72031 -0.06539
v 0.01571 -0.72031 -0.06318
v 0.03034 -0.72031 -0.05672
v 0.04291 -0.72031 -0.04644
v 0.05256 -0.72031 -0.03304
v 0.05862 -0.72031 -0.01744
v 0.05971 -0.69574 0.00000
v 0.05768 -0.69574 0.01649
v 0.05171 -0.69574 0.03186
v 0.04222 -0.69574 0.04505
v 0.02986 -0.69574 0.05518
v 0.01546 -0.69574 0.06154
v 0.00000 -0.69574 0.06371
v -0.01546 -0.69574 0.06154
v -0.02986 -0.69574 0.05518
v -0.04222 -0.69574 0.04505
v -0.05171 -0.69574 0.03186
v -0.05768 -0.69574 0.01649
v -0.05971 -0.69574 0.00000
v -0.05768 -0.69574 -0.01649
v -0.05171 -0.69574 -0.03186
v -0.04222 -0.69574 -0.04505
v -0.02986 -0.69574 -0.05518
v -0.01546 -0.69574 -0.06154
v -0.00000 -0.69574 -0.06371
v 0.01546 -0.69574 -0.06154
v 0.02986 -0.69574 -0.05518
v 0.04222 -0.69574 -0.04505
v 0.05171 -0.69574 -0.03186
v 0.05768 -0.69574 -0.01649
v 0.05886 -0.68717 0.00000
v 0.05685 -0.68717 0.01627
v 0.05097 -0.68717 0.03143
v 0.04162 -0.68717 0.04445
v 0.02943 -0.68717 0.05444
v 0.01523 -0.68717 0.06072
v 0.00000 -0.68717 0.06286
v -0.01523 -0.68717 0.06072
v -0.02943 -0.68717 0.05444
v -0.04162 -0.68717 0.04445
v -0.05097 -0.68717 0.03143
v -0.05685 -0.68717 0.01627
v -0.05886 -0.68717 0.00000
v -0.05685 -0.68717 -0.01627
v -0.05097 -0.68717 -0.03143
v -0.04162 -0.68717 -0.04445
v -0.02943 -0.68717 -0.05444
v -0.01523 -0.68717 -0.06072
v -0.00000 -0.68717 -0.06286
v 0.01523 -0.68717 -0.06072
v 0.02943 -0.68717 -0.05444
v 0.04162 -0.68717 -0.04445
v 0.05097 -0.68717 -0.03143
v 0.05685 -0.68717 -0.01627
v 0.05800 -0.68000 0.00000
v 0.05602 -0.68000 0.01605
v 0.05023 -0.68000 0.03100
v 0.04101 -0.68000 0.04384
v 0.02900 -0.68000 0.05369
v 0.01501 -0.68000 0.05989
v 0.00000 -0.68000 0.06200
v -0.01501 -0.68000 0.05989
v -0.02900 -0.68000 0.05369
v -0.04101 -0.68000 0.04384
v -0.05023 -0.68000 0.03100
v -0.05602 -0.68000 0.01605
v -0.05800 -0.68000 0.00000
v -0.05602 -0.68000 -0.01605
v -0.05023 -0.68000 -0.03100
v -0.04101 -0.68000 -0.04384
v -0.02900 -0.68000 -0.05369
v -0.01501 -0.68000 -0.05989
v -0.00000 -0.68000 -0.06200
v 0.01501 -0.68000 -0.05989
v 0.02900 -0.68000 -0.05369
v 0.04101 -0.68000 -0.04384
v 0.05023 -0.68000 -0.03100
v 0.05602 -0.68000 -0.01605
vn 0.9980 -0.0478 0.0416
vn 0.9565 -0.0692 0.2836
vn 0.8547 -0.0893 0.5115
vn 0.6943 -0.1070 0.7117
vn 0.4811 -0.1209 0.8683
vn 0.2274 -0.1295 0.9652
vn -0.0468 -0.1317 0.9902
vn -0.3168 -0.1273 0.9399
vn -0.5587 -0.1168 0.8211
vn -0.7550 -0.1015 0.6479
vn -0.8958 -0.0828 0.4366
vn -0.9773 -0.0621 0.2025
vn -0.9983 -0.0404 -0.0416
vn -0.9586 -0.0189 -0.2842
vn -0.8581 0.0015 -0.5135
vn -0.6982 0.0195 -0.7156
vn -0.4844 0.0335 -0.8742
vn -0.2291 0.0422 -0.9725
vn 0.0472 0.0444 -0.9979
vn 0.3191 0.0399 -0.9469
vn 0.5623 0.0292 -0.8264
vn 0.7588 0.0136 -0.6512
vn 0.8989 -0.0053 -0.4381
vn 0.9789 -0.0261 -0.2028
vn 0.9993 -0.0386 0.0019
vn 0.9676 -0.0595 0.2453
vn 0.8755 -0.0793 0.4767
vn 0.7243 -0.0970 0.6826
vn 0.5189 -0.1111 0.8476
vn 0.2705 -0.1204 0.9552
vn -0.0021 -0.1236 0.9923
vn -0.2746 -0.1203 0.9540
vn -0.5225 -0.1110 0.8454
vn -0.7271 -0.0968 0.6796
vn -0.8774 -0.0792 0.4732
vn -0.9686 -0.0593 0.2415
vn -0.9993 -0.0385 -0.0019
vn -0.9692 -0.0175 -0.2457
vn -0.8783 0.0024 -0.4782
vn -0.7276 0.0203 -0.6857
vn -0.5219 0.0346 -0.8523
vn -0.2722 0.0440 -0.9612
vn 0.0022 0.0473 -0.9989
vn 0.2763 0.0440 -0.9601
vn 0.5255 0.0346 -0.8501
vn 0.7304 0.0202 -0.6827
vn 0.8802 0.0024 -0.4746
vn 0.9701 -0.0176 -0.2419
vn 0.9999 -0.0103 0.0086
vn 0.9672 -0.0275 0.2524
vn 0.8740 -0.0440 0.4840
vn 0.7214 -0.0586 0.6900
vn 0.5144 -0.0704 0.8547
vn 0.2642 -0.0780 0.9613
vn -0.0097 -0.0806 0.9967
vn -0.2828 -0.0778 0.9560
vn -0.5304 -0.0700 0.8449
vn -0.7339 -0.0582 0.6768
vn -0.8824 -0.0435 0.4684
vn -0.9715 -0.0271 0.2355
vn -0.9999 -0.0099 -0.0086
vn -0.9676 0.0074 -0.2524
vn -0.8746 0.0238 -0.4843
vn -0.7221 0.0384 -0.6907
vn -0.5150 0.0502 -0.8557
vn -0.2646 0.0579 -0.9626
vn 0.0097 0.0606 -0.9981
vn 0.2832 0.0578 -0.9573
vn 0.5310 0.0501 -0.8459
vn 0.7346 0.0382 -0.6774
vn 0.8830 0.0235 -0.4687
vn 0.9718 0.0070 -0.2356
vn 0.9999 0.0137 0.0050
vn 0.9685 0.0000 0.2489
vn 0.8766 -0.0130 0.4811
vn 0.7251 -0.0246 0.6882
vn 0.5188 -0.0339 0.8543
vn 0.2687 -0.0400 0.9624
vn -0.0057 -0.0421 0.9991
vn -0.2796 -0.0399 0.9593
vn -0.5282 -0.0337 0.8485
vn -0.7324 -0.0244 0.6804
vn -0.8815 -0.0128 0.4720
vn -0.9710 0.0002 0.2391
vn -0.9999 0.0138 -0.0050
vn -0.9682 0.0274 -0.2488
vn -0.8759 0.0403 -0.4808
vn -0.7243 0.0519 -0.6875
vn -0.5181 0.0612 -0.8531
vn -0.2683 0.0673 -0.9610
vn 0.0057 0.0694 -0.9976
vn 0.2792 0.0673 -0.9579
vn 0.5275 0.0612 -0.8474
vn 0.7317 0.0519 -0.6797
vn 0.8809 0.0403 -0.4716
vn 0.9706 0.0273 -0.2390
vn 0.9995 0.0276 -0.0150
vn 0.9733 0.0169 0.2291
vn 0.8865 0.0067 0.4627
vn 0.7401 -0.0025 0.6725
vn 0.5380 -0.0100 0.8429
vn 0.2907 -0.0150 0.9567
vn 0.0170 -0.0170 0.9997
vn -0.2583 -0.0156 0.9659
vn -0.5099 -0.0111 0.8601
vn -0.7182 -0.0040 0.6958
vn -0.8718 0.0049 0.4899
vn -0.9659 0.0149 0.2584
vn -0.9996 0.0255 0.0150
vn -0.9728 0.0361 -0.2290
vn -0.8856 0.0462 -0.4622
vn -0.7389 0.0554 -0.6715
vn -0.5369 0.0629 -0.8413
vn -0.2901 0.0679 -0.9546
vn -0.0170 0.0699 -0.9974
vn 0.2577 0.0686 -0.9638
vn 0.5089 0.0641 -0.8584
vn 0.7171 0.0570 -0.6947
vn 0.8708 0.0482 -0.4893
vn 0.9653 0.0381 -0.2583
vn 0.9982 0.0559 -0.0204
vn 0.9734 0.0507 0.2233
vn 0.8884 0.0457 0.4569
vn 0.7436 0.0412 0.6673
vn 0.5430 0.0375 0.8389
vn 0.2967 0.0350 0.9543
vn 0.0232 0.0340 0.9992
vn -0.2525 0.0346 0.9670
vn -0.5048 0.0366 0.8625
vn -0.7139 0.0400 0.6991
vn -0.8684 0.0442 0.4939
vn -0.9635 0.0490 0.2632
vn -0.9983 0.0541 0.0204
vn -0.9730 0.0593 -0.2232
vn -0.8875 0.0642 -0.4564
vn -0.7425 0.0687 -0.6663
vn -0.5420 0.0724 -0.8373
vn -0.2960 0.0750 -0.9522
vn -0.0232 0.0761 -0.9968
vn 0.2519 0.0756 -0.9648
vn 0.5038 0.0735 -0.8607
vn 0.7128 0.0701 -0.6979
vn 0.8673 0.0659 -0.4933
vn 0.9628 0.0610 -0.2631
vn 0.9941 0.1081 -0.0042
vn 0.9653 0.1081 0.2378
vn 0.8766 0.1081 0.4690
vn 0.7287 0.1081 0.6762
vn 0.5257 0.1082 0.8438
vn 0.2780 0.1082 0.9545
vn 0.0048 0.1083 0.9941
vn -0.2689 0.1083 0.9571
vn -0.5178 0.1082 0.8486
vn -0.7226 0.1082 0.6828
vn -0.8724 0.1081 0.4766
vn -0.9632 0.1081 0.2461
vn -0.9941 0.1081 0.0042
vn -0.9653 0.1081 -0.2378
vn -0.8766 0.1081 -0.4690
vn -0.7287 0.1081 -0.6762
vn -0.5257 0.1082 -0.8438
vn -0.2780 0.1082 -0.9545
vn -0.0048 0.1083 -0.9941
vn 0.2689 0.1083 -0.9571
vn 0.5178 0.1082 -0.8486
vn 0.7226 0.1082 -0.6828
vn 0.8724 0.1081 -0.4766
vn 0.9632 0.1081 -0.2461
vn 0.9921 0.1185 -0.0411
vn 0.9724 0.1186 0.2011
vn 0.8929 0.1186 0.4343
vn 0.7542 0.1186 0.6459
vn 0.5593 0.1187 0.8204
vn 0.3177 0.1187 0.9407
vn 0.0469 0.1186 0.9918
vn -0.2283 0.1185 0.9664
vn -0.4821 0.1184 0.8681
vn -0.6943 0.1183 0.7099
vn -0.8526 0.1183 0.5090
vn -0.9522 0.1184 0.2816
vn -0.9921 0.1185 0.0411
vn -0.9724 0.1186 -0.2011
vn -0.8929 0.1186 -0.4343
vn -0.7542 0.1186 -0.6459
vn -0.5593 0.1187 -0.8204
vn -0.3177 0.1187 -0.9407
vn -0.0469 0.1186 -0.9918
vn 0.2283 0.1185 -0.9664
vn 0.4821 0.1184 -0.8681
vn 0.6943 0.1183 -0.7099
vn 0.8526 0.1183 -0.5090
vn 0.9522 0.1184 -0.2816
vt 0.6200 -1.2200
vt 0.6159 -1.2200
vt 0.6039 -1.2200
vt 0.5849 -1.2200
vt 0.5600 -1.2200
vt 0.5311 -1.2200
vt 0.5000 -1.2200
vt 0.4689 -1.2200
vt 0.4400 -1.2200
vt 0.4151 -1.2200
vt 0.3961 -1.2200
vt 0.3841 -1.2200
vt 0.3800 -1.2200
vt 0.3841 -1.2200
vt 0.3961 -1.2200
vt 0.4151 -1.2200
vt 0.4400 -1.2200
vt 0.4689 -1.2200
vt 0.5000 -1.2200
vt 0.5311 -1.2200
vt 0.5600 -1.2200
vt 0.5849 -1.2200
vt 0.6039 -1.2200
vt 0.6159 -1.2200
vt 0.6221 -1.1717
vt 0.6180 -1.1717
vt 0.6058 -1.1717
vt 0.5864 -1.1717
vt 0.5611 -1.1717
vt 0.5316 -1.1717
vt 0.5000 -1.1717
vt 0.4684 -1.1717
vt 0.4389 -1.1717
vt 0.4136 -1.1717
vt 0.3942 -1.1717
vt 0.3820 -1.1717
vt 0.3779 -1.1717
vt 0.3820 -1.1717
vt 0.3942 -1.1717
vt 0.4136 -1.1717
vt 0.4389 -1.1717
vt 0.4684 -1.1717
vt 0.5000 -1.1717
vt 0.5316 -1.1717
vt 0.5611 -1.1717
vt 0.5864 -1.1717
vt 0.6058 -1.1717
vt 0.6180 -1.1717
vt 0.6238 -1.1203
vt 0.6196 -1.1203
vt 0.6073 -1.1203
vt 0.5876 -1.1203
vt 0.5619 -1.1203
vt 0.5321 -1.1203
vt 0.5000 -1.1203
vt 0.4679 -1.1203
vt 0.4381 -1.1203
vt 0.4124 -1.1203
vt 0.3927 -1.1203
vt 0.3804 -1.1203
vt 0.3762 -1.1203
vt 0.3804 -1.1203
vt 0.3927 -1.1203
vt 0.4124 -1.1203
vt 0.4381 -1.1203
vt 0.4679 -1.1203
vt 0.5000 -1.1203
vt 0.5321 -1.1203
vt 0.5619 -1.1203
vt 0.5876 -1.1203
vt 0.6073 -1.1203
vt 0.6196 -1.1203
vt 0.6234 -1.0424
vt 0.6192 -1.0424
vt 0.6069 -1.0424
vt 0.5873 -1.0424
vt 0.5617 -1.0424
vt 0.5319 -1.0424
vt 0.5000 -1.0424
vt 0.4681 -1.0424
vt 0.4383 -1.0424
vt 0.4127 -1.0424
vt 0.3931 -1.0424
vt 0.3808 -1.0424
vt 0.3766 -1.0424
vt 0.3808 -1.0424
vt 0.3931 -1.0424
vt 0.4127 -1.0424
vt 0.4383 -1.0424
vt 0.4681 -1.0424
vt 0.5000 -1.0424
vt 0.5319 -1.0424
vt 0.5617 -1.0424
vt 0.5873 -1.0424
vt 0.6069 -1.0424
vt 0.6192 -1.0424
vt 0.6214 -0.9406
vt 0.6172 -0.9406
vt 0.6051 -0.9406
vt 0.5858 -0.9406
vt 0.5607 -0.9406
vt 0.5314 -0.9406
vt 0.5000 -0.9406
vt 0.4686 -0.9406
vt 0.4393 -0.9406
vt 0.4142 -0.9406
vt 0.3949 -0.9406
vt 0.3828 -0.9406
vt 0.3786 -0.9406
vt 0.3828 -0.9406
vt 0.3949 -0.9406
vt 0.4142 -0.9406
vt 0.4393 -0.9406
vt 0.4686 -0.9406
vt 0.5000 -0.9406
vt 0.5314 -0.9406
vt 0.5607 -0.9406
vt 0.5858 -0.9406
vt 0.6051 -0.9406
vt 0.6172 -0.9406
vt 0.6194 -0.8915
vt 0.6154 -0.8915
vt 0.6034 -0.8915
vt 0.5844 -0.8915
vt 0.5597 -0.8915
vt 0.5309 -0.8915
vt 0.5000 -0.8915
vt 0.4691 -0.8915
vt 0.4403 -0.8915
vt 0.4156 -0.8915
vt 0.3966 -0.8915
vt 0.3846 -0.8915
vt 0.3806 -0.8915
vt 0.3846 -0.8915
vt 0.3966 -0.8915
vt 0.4156 -0.8915
vt 0.4403 -0.8915
vt 0.4691 -0.8915
vt 0.5000 -0.8915
vt 0.5309 -0.8915
vt 0.5597 -0.8915
vt 0.5844 -0.8915
vt 0.6034 -0.8915
vt 0.6154 -0.8915
vt 0.6177 -0.8743
vt 0.6137 -0.8743
vt 0.6019 -0.8743
vt 0.5832 -0.8743
vt 0.5589 -0.8743
vt 0.5305 -0.8743
vt 0.5000 -0.8743
vt 0.4695 -0.8743
vt 0.4411 -0.8743
vt 0.4168 -0.8743
vt 0.3981 -0.8743
vt 0.3863 -0.8743
vt 0.3823 -0.8743
vt 0.3863 -0.8743
vt 0.3981 -0.8743
vt 0.4168 -0.8743
vt 0.4411 -0.8743
vt 0.4695 -0.8743
vt 0.5000 -0.8743
vt 0.5305 -0.8743
vt 0.5589 -0.8743
vt 0.5832 -0.8743
vt 0.6019 -0.8743
vt 0.6137 -0.8743
vt 0.6160 -0.8600
vt 0.6120 -0.8600
vt 0.6005 -0.8600
vt 0.5820 -0.8600
vt 0.5580 -0.8600
vt 0.5300 -0.8600
vt 0.5000 -0.8600
vt 0.4700 -0.8600
vt 0.4420 -0.8600
vt 0.4180 -0.8600
vt 0.3995 -0.8600
vt 0.3880 -0.8600
vt 0.3840 -0.8600
vt 0.3880 -0.8600
vt 0.3995 -0.8600
vt 0.4180 -0.8600
vt 0.4420 -0.8600
vt 0.4700 -0.8600
vt 0.5000 -0.8600
vt 0.5300 -0.8600
vt 0.5580 -0.8600
vt 0.5820 -0.8600
vt 0.6005 -0.8600
vt 0.6120 -0.8600
f 1/1/1 26/26/26 2/2/2
f 1/1/1 25/25/25 26/26/26
f 2/2/2 27/27/27 3/3/3
f 2/2/2 26/26/26 27/27/27
f 3/3/3 28/28/28 4/4/4
f 3/3/3 27/27/27 28/28/28
f 4/4/4 29/29/29 5/5/5
f 4/4/4 28/28/28 29/29/29
f 5/5/5 30/30/30 6/6/6
f 5/5/5 29/29/29 30/30/30
f 6/6/6 31/31/31 7/7/7
f 6/6/6 30/30/30 31/31/31
f 7/7/7 32/32/32 8/8/8
f 7/7/7 31/31/31 32/32/32
f 8/8/8 33/33/33 9/9/9
f 8/8/8 32/32/32 33/33/33
f 9/9/9 34/34/34 10/10/10
f 9/9/9 33/33/33 34/34/34
f 10/10/10 35/35/35 11/11/11
f 10/10/10 34/34/34 35/35/35
f 11/11/11 36/36/36 12/12/12
f 11/11/11 35/35/35 36/36/36
f 12/12/12 37/37/37 13/13/13
f 12/12/12 36/36/36 37/37/37
f 13/13/13 38/38/38 14/14/14
f 13/13/13 37/37/37 38/38/38
f 14/14/14 39/39/39 15/15/15
f 14/14/14 38/38/38 39/39/39
f 15/15/15 40/40/40 16/16/16
f 15/15/15 39/39/39 40/40/40
f 16/16/16 41/41/41 17/17/17
f 16/16/16 40/40/40 41/41/41
f 17/17/17 42/42/42 18/18/18
f 17/17/17 41/41/41 42/42/42
f 18/18/18 43/43/43 19/19/19
f 18/18/18 42/42/42 43/43/43
f 19/19/19 44/44/44 20/20/20
f 19/19/19 43/43/43 44/44/44
f 20/20/20 45/45/45 21/21/21
f 20/20/20 44/44/44 45/45/45
f 21/21/21 46/46/46 22/22/22
f 21/21/21 45/45/45 46/46/46
f 22/22/22 47/47/47 23/23/23
f 22/22/22 46/46/46 47/47/47
f 23/23/23 48/48/48 24/24/24
f 23/23/23 47/47/47 48/48/48
f 24/24/24 25/25/25 1/1/1
f 24/24/24 48/48/48 25/25/25
f 25/25/25 50/50/50 26/26/26
f 25/25/25 49/49/49 50/50/50
f 26/26/26 51/51/51 27/27/27
f 26/26/26 50/50/50 51/51/51
f 27/27/27 52/52/52 28/28/28
f 27/27/27 51/51/51 52/52/52
f 28/28/28 53/53/53 29/29/29
f 28/28/28 52/52/52 53/53/53
f 29/29/29 54/54/54 30/30/30
f 29/29/29 53/53/53 54/54/54
f 30/30/30 55/55/55 31/31/31
f 30/30/30 54/54/54 55/55/55
f 31/31/31 56/56/56 32/32/32
f 31/31/31 55/55/55 56/56/56
f 32/32/32 57/57/57 33/33/33
f 32/32/32 56/56/56 57/57/57
f 33/33/33 58/58/58 34/34/34
f 33/33/33 57/57/57 58/58/58
f 34/34/34 59/59/59 35/35/35
f 34/34/34 58/58/58 59/59/59
f 35/35/35 60/60/60 36/36/36
f 35/35/35 59/59/59 60/60/60
f 36/36/36 61/61/61 37/37/37
f 36/36/36 60/60/60 61/61/61
f 37/37/37 62/62/62 38/38/38
f 37/37/37 61/61/61 62/62/62
f 38/38/38 63/63/63 39/39/39
f 38/38/38 62/62/62 63/63/63
f 39/39/39 64/64/64 40/40/40
f 39/39/39 63/63/63 64/64/64
f 40/40/40 65/65/65 41/41/41
f 40/40/40 64/64/64 65/65/65
f 41/41/41 66/66/66 42/42/42
f 41/41/41 65/65/65 66/66/66
f 42/42/42 67/67/67 43/43/43
f 42/42/42 66/66/66 67/67/67
f 43/43/43 68/68/68 44/44/44
f 43/43/43 67/67/67 68/68/68
f 44/44/44 69/69/69 45/45/45
f 44/44/44 68/68/68 69/69/69
f 45/45/45 70/70/70 46/46/46
f 45/45/45 69/69/69 70/70/70
f 46/46/46 71/71/71 47/47/47
f 46/46/46 70/70/70 71/71/71
f 47/47/47 72/72/72 48/48/48
f 47/47/47 71/71/71 72/72/72
f 48/48/48 49/49/49 25/25/25
f 48/48/48 72/72/72 49/49/49
f 49/49/49 74/74/74 50/50/50
f 49/49/49 73/73/73 74/74/74
f 50/50/50 75/75/75 51/51/51
f 50/50/50 74/74/74 75/75/75
f 51/51/51 76/76/76 52/52/52
f 51/51/51 75/75/75 76/76/76
f 52/52/52 77/77/77 53/53/53
f 52/52/52 76/76/76 77/77/77
f 53/53/53 78/78/78 54/54/54
f 53/53/53 77/77/77 78/78/78
f 54/54/54 79/79/79 55/55/55
f 54/54/54 78/78/78 79/79/79
f 55/55/55 80/80/80 56/56/56
f 55/55/55 79/79/79 80/80/80
f 56/56/56 81/81/81 57/57/57
f 56/56/56 80/80/80 81/81/81
f 57/57/57 82/82/82 58/58/58
f 57/57/57 81/81/81 82/82/82
f 58/58/58 83/83/83 59/59/59
f 58/58/58 82/82/82 83/83/83
f 59/59/59 84/84/84 60/60/60
f 59/59/59 83/83/83 84/84/84
f 60/60/60 85/85/85 61/61/61
f 60/60/60 84/84/84 85/85/85
f 61/61/61 86/86/86 62/62/62
f 61/61/61 85/85/85 86/86/86
f 62/62/62 87/87/87 63/63/63
f 62/62/62 86/86/86 87/87/87
f 63/63/63 88/88/88 64/64/64
f 63/63/63 87/87/87 88/88/88
f 64/64/64 89/89/89 65/65/65
f 64/64/64 88/88/88 89/89/89
f 65/65/65 90/90/90 66/66/66
f 65/65/65 89/89/89 90/90/90
f 66/66/66 91/91/91 67/67/67
f 66/66/66 90/90/90 91/91/91
f 67/67/67 92/92/92 68/68/68
f 67/67/67 91/91/91 92/92/92
f 68/68/68 93/93/93 69/69/69
f 68/68/68 92/92/92 93/93/93
f 69/69/69 94/94/94 70/70/70
f 69/69/69 93/93/93 94/94/94
f 70/70/70 95/95/95 71/71/71
f 70/70/70 94/94/94 95/95/95
f 71/71/71 96/96/96 72/72/72
f 71/71/71 95/95/95 96/96/96
f 72/72/72 73/73/73 49/49/49
f 72/72/72 96/96/96 73/73/73
f 73/73/73 98/98/98 74/74/74
f 73/73/73 97/97/97 98/98/98
f 74/74/74 99/99/99 75/75/75
f 74/74/74 98/98/98 99/99/99
f 75/75/75 100/100/100 76/76/76
f 75/75/75 99/99/99 100/100/100
f 76/76/76 101/101/101 77/77/77
f 76/76/76 100/100/100 101/101/101
f 77/77/77 102/102/102 78/78/78
f 77/77/77 101/101/101 102/102/102
f 78/78/78 103/103/103 79/79/79
f 78/78/78 102/102/102 103/103/103
f 79/79/79 104/104/104 80/80/80
f 79/79/79 103/103/103 104/104/104
f 80/80/80 105/105/105 81/81/81
f 80/80/80 104/104/104 105/105/105
f 81/81/81 106/106/106 82/82/82
f 81/81/81 105/105/105 106/106/106
f 82/82/82 107/107/107 83/83/83
f 82/82/82 106/106/106 107/107/107
f 83/83/83 108/108/108 84/84/84
f 83/83/83 107/107/107 108/108/108
f 84/84/84 109/109/109 85/85/85
f 84/84/84 108/108/108 109/109/109
f 85/85/85 110/110/110 86/86/86
f 85/85/85 109/109/109 110/110/110
f 86/86/86 111/111/111 87/87/87
f 86/86/86 110/110/110 111/111/111
f 87/87/87 112/112/112 88/88/88
f 87/87/87 111/111/111 112/112/112
f 88/88/88 113/113/113 89/89/89
f 88/88/88 112/112/112 113/113/113
f 89/89/89 114/114/114 90/90/90
f 89/89/89 113/113/113 114/114/114
f 90/90/90 115/115/115 91/91/91
f 90/90/90 114/114/114 115/115/115
f 91/91/91 116/116/116 92/92/92
f 91/91/91 115/115/115 116/116/116
f 92/92/92 117/117/117 93/93/93
f 92/92/92 116/116/116 117/117/117
f 93/93/93 118/118/118 94/94/94
f 93/93/93 117/117/117 118/118/118
f 94/94/94 119/119/119 95/95/95
f 94/94/94 118/118/118 119/119/119
f 95/95/95 120/120/120 96/96/96
f 95/95/95 119/119/119 120/120/120
f 96/96/96 97/97/97 73/73/73
f 96/96/96 120/120/120 97/97/97
f 97/97/97 122/122/122 98/98/98
f 97/97/97 121/121/121 122/122/122
f 98/98/98 123/123/123 99/99/99
f 98/98/98 122/122/122 123/123/123
f 99/99/99 124/124/124 100/100/100
f 99/99/99 123/123/123 124/124/124
f 100/100/100 125/125/125 101/101/101
f 100/100/100 124/124/124 125/125/125
f 101/101/101 126/126/126 102/102/102
f 101/101/101 125/125/125 126/126/126
f 102/102/102 127/127/127 103/103/103
f 102/102/102 126/126/126 127/127/127
f 103/103/103 128/128/128 104/104/104
f 103/103/103 127/127/127 128/128/128
f 104/104/104 129/129/129 105/105/105
f 104/104/104 128/128/128 129/129/129
f 105/105/105 130/130/130 106/106/106
f 105/105/105 129/129/129 130/130/130
f 106/106/106 131/131/131 107/107/107
f 106/106/106 130/130/130 131/131/131
f 107/107/107 132/132/132 108/108/108
f 107/107/107 131/131/131 132/132/132
f 108/108/108 133/133/133 109/109/109
f 108/108/108 132/132/132 133/133/133
f 109/109/109 134/134/134 110/110/110
f 109/109/109 133/133/133 134/134/134
f 110/110/110 135/135/135 111/111/111
f 110/110/110 134/134/134 135/135/135
f 111/111/111 136/136/136 112/112/112
f 111/111/111 135/135/135 136/136/136
f 112/112/112 137/137/137 113/113/113
f 112/112/112 136/136/136 137/137/137
f 113/113/113 138/138/138 114/114/114
f 113/113/113 137/137/137 138/138/138
f 114/114/114 139/139/139 115/115/115
f 114/114/114 138/138/138 139/139/139
f 115/115/115 140/140/140 116/116/116
f 115/115/115 139/139/139 140/140/140
f 116/116/116 141/141/141 117/117/117
f 116/116/116 140/140/140 141/141/141
f 117/117/117 142/142/142 118/118/118
f 117/117/117 141/141/141 142/142/142
f 118/118/118 143/143/143 119/119/119
f 118/118/118 142/142/142 143/143/143
f 119/119/119 144/144/144 120/120/120
f 119/119/119 143/143/143 144/144/144
f 120/120/120 121/121/121 97/97/97
f 120/120/120 144/144/144 121/121/121
f 121/121/121 146/146/146 122/122/122
f 121/121/121 145/145/145 146/146/146
f 122/122/122 147/147/147 123/123/123
f 122/122/122 146/146/146 147/147/147
f 123/123/123 148/148/148 124/124/124
f 123/123/123 147/147/147 148/148/148
f 124/124/124 149/149/149 125/125/125
f 124/124/124 148/148/148 149/149/149
f 125/125/125 150/150/150 126/126/126
f 125/125/125 149/149/149 150/150/150
f 126/126/126 151/151/151 127/127/127
f 126/126/126 150/150/150 151/151/151
f 127/127/127 152/152/152 128/128/128
f 127/127/127 151/151/151 152/152/152
f 128/128/128 153/153/153 129/129/129
f 128/128/128 152/152/152 153/153/153
f 129/129/129 154/154/154 130/130/130
f 129/129/129 153/153/153 154/154/154
f 130/130/130 155/155/155 131/131/131
f 130/130/130 154/154/154 155/155/155
f 131/131/131 156/156/156 132/132/132
f 131/131/131 155/155/155 156/156/156
f 132/132/132 157/157/157 133/133/133
f 132/132/132 156/156/156 157/157/157
f 133/133/133 158/158/158 134/134/134
f 133/133/133 157/157/157 158/158/158
f 134/134/134 159/159/159 135/135/135
f 134/134/134 158/158/158 159/159/159
f 135/135/135 160/160/160 136/136/136
f 135/135/135 159/159/159 160/160/160
f 136/136/136 161/161/161 137/137/137
f 136/136/136 160/160/160 161/161/161
f 137/137/137 162/162/162 138/138/138
f 137/137/137 161/161/161 162/162/162
f 138/138/138 163/163/163 139/139/139
f 138/138/138 162/162/162 163/163/163
f 139/139/139 164/164/164 140/140/140
f 139/139/139 163/163/163 164/164/164
f 140/140/140 165/165/165 141/141/141
f 140/140/140 164/164/164 165/165/165
f 141/141/141 166/166/166 142/142/142
f 141/141/141 165/165/165 166/166/166
f 142/142/142 167/167/167 143/143/143
f 142/142/142 166/166/166 167/167/167
f 143/143/143 168/168/168 144/144/144
f 143/143/143 167/167/167 168/168/168
f 144/144/144 145/145/145 121/121/121
f 144/144/144 168/168/168 145/145/145
f 145/145/145 170/170/170 146/146/146
f 145/145/145 169/169/169 170/170/170
f 146/146/146 171/171/171 147/147/147
f 146/146/146 170/170/170 171/171/171
f 147/147/147 172/172/172 148/148/148
f 147/147/147 171/171/171 172/172/172
f 148/148/148 173/173/173 149/149/149
f 148/148/148 172/172/172 173/173/173
f 149/149/149 174/174/174 150/150/150
f 149/149/149 173/173/173 174/174/174
f 150/150/150 175/175/175 151/151/151
f 150/150/150 174/174/174 175/175/175
f 151/151/151 176/176/176 152/152/152
f 151/151/151 175/175/175 176/176/176
f 152/152/152 177/177/177 153/153/153
f 152/152/152 176/176/176 177/177/177
f 153/153/153 178/178/178 154/154/154
f 153/153/153 177/177/177 178/178/178
f 154/154/154 179/179/179 155/155/155
f 154/154/154 178/178/178 179/179/179
f 155/155/155 180/180/180 156/156/156
f 155/155/155 179/179/179 180/180/180
f 156/156/156 181/181/181 157/157/157
f 156/156/156 180/180/180 181/181/181
f 157/157/157 182/182/182 158/158/158
f 157/157/157 181/181/181 182/182/182
f 158/158/158 183/183/183 159/159/159
f 158/158/158 182/182/182 183/183/183
f 159/159/159 184/184/184 160/160/160
f 159/159/159 183/183/183 184/184/184
f 160/160/160 185/185/185 161/161/161
f 160/160/160 184/184/184 185/185/185
f 161/161/161 186/186/186 162/162/162
f 161/161/161 185/185/185 186/186/186
f 162/162/162 187/187/187 163/163/163
f 162/162/162 186/186/186 187/187/187
f 163/163/163 188/188/188 164/164/164
f 163/163/163 187/187/187 188/188/188
f 164/164/164 189/189/189 165/165/165
f 164/164/164 188/188/188 189/189/189
f 165/165/165 190/190/190 166/166/166
f 165/165/165 189/189/189 190/190/190
f 166/166/166 191/191/191 167/167/167
f 166/166/166 190/190/190 191/191/191
f 167/167/167 192/192/192 168/168/168
f 167/167/167 191/191/191 192/192/192
f 168/168/168 169/169/169 145/145/145
f 168/168/168 192/192/192 169/169/169
