# procedural placeholder mesh: farmer_forearm
v 0.04000 -0.25000 0.00000
v 0.03804 -0.25000 0.01236
v 0.03236 -0.25000 0.02351
v 0.02351 -0.25000 0.03236
v 0.01236 -0.25000 0.03804
v 0.00000 -0.25000 0.04000
v -0.01236 -0.25000 0.03804
v -0.02351 -0.25000 0.03236
v -0.03236 -0.25000 0.02351
v -0.03804 -0.25000 0.01236
v -0.04000 -0.25000 0.00000
v -0.03804 -0.25000 -0.01236
v -0.03236 -0.25000 -0.02351
v -0.02351 -0.25000 -0.03236
v -0.01236 -0.25000 -0.03804
v -0.00000 -0.25000 -0.04000
v 0.01236 -0.25000 -0.03804
v 0.02351 -0.25000 -0.03236
v 0.03236 -0.25000 -0.02351
v 0.03804 -0.25000 -0.01236
v 0.04285 -0.26253 0.00067
v 0.04075 -0.26253 0.01403
v 0.03467 -0.26253 0.02609
v 0.02519 -0.26253 0.03566
v 0.01324 -0.26253 0.04181
v 0.00000 -0.26253 0.04393
v -0.01324 -0.26253 0.04181
v -0.02519 -0.26253 0.03566
v -0.03467 -0.26253 0.02609
v -0.04075 -0.26253 0.01403
v -0.04285 -0.26253 0.00067
v -0.04075 -0.26253 -0.01270
v -0.03467 -0.26253 -0.02476
v -0.02519 -0.26253 -0.03433
v -0.01324 -0.26253 -0.04048
v -0.00000 -0.26253 -0.04259
v 0.01324 -0.26253 -0.04048
v 0.02519 -0.26253 -0.03433
v 0.03467 -0.26253 -0.02476
v 0.04075 -0.26253 -0.01270
v 0.04570 -0.27505 0.00133
v 0.04347 -0.27505 0.01571
v 0.03698 -0.27505 0.02868
v 0.02686 -0.27505 0.03897
v 0.01412 -0.27505 0.04558
v 0.00000 -0.27505 0.04785
v -0.01412 -0.27505 0.04558
v -0.02686 -0.27505 0.03897
v -0.03698 -0.27505 0.02868
v -0.04347 -0.27505 0.01571
v -0.04570 -0.27505 0.00133
v -0.04347 -0.27505 -0.01304
v -0.03698 -0.27505 -0.02601
v -0.02686 -0.27505 -0.03630
v -0.01412 -0.27505 -0.04291
v -0.00000 -0.27505 -0.04519
v 0.01412 -0.27505 -0.04291
v 0.02686 -0.27505 -0.03630
v 0.03698 -0.27505 -0.02601
v 0.04347 -0.27505 -0.01304
v 0.04700 -0.29000 0.00200
v 0.04470 -0.29000 0.01683
v 0.03802 -0.29000 0.03021
v 0.02763 -0.29000 0.04083
v 0.01452 -0.29000 0.04765
v 0.00000 -0.29000 0.05000
v -0.01452 -0.29000 0.04765
v -0.02763 -0.29000 0.04083
v -0.03802 -0.29000 0.03021
v -0.04470 -0.29000 0.01683
v -0.04700 -0.29000 0.00200
v -0.04470 -0.29000 -0.01283
v -0.03802 -0.29000 -0.02621
v -0.02763 -0.29000 -0.03683
v -0.01452 -0.29000 -0.04365
v -0.00000 -0.29000 -0.04600
v 0.01452 -0.29000 -0.04365
v 0.02763 -0.29000 -0.03683
v 0.03802 -0.29000 -0.02621
v 0.04470 -0.29000 -0.01283
v 0.04688 -0.30959 0.00281
v 0.04458 -0.30959 0.01746
v 0.03792 -0.30959 0.03068
v 0.02755 -0.30959 0.04117
v 0.01449 -0.30959 0.04790
v 0.00000 -0.30959 0.05022
v -0.01449 -0.30959 0.04790
v -0.02755 -0.30959 0.04117
v -0.03792 -0.30959 0.03068
v -0.04458 -0.30959 0.01746
v -0.04688 -0.30959 0.00281
v -0.04458 -0.30959 -0.01183
v -0.03792 -0.30959 -0.02505
v -0.02755 -0.30959 -0.03554
v -0.01449 -0.30959 -0.04227
v -0.00000 -0.30959 -0.04459
v 0.01449 -0.30959 -0.04227
v 0.02755 -0.30959 -0.03554
v 0.03792 -0.30959 -0.02505
v 0.04458 -0.30959 -0.01183
v 0.04653 -0.33342 0.00363
v 0.04425 -0.33342 0.01782
v 0.03764 -0.33342 0.03062
v 0.02735 -0.33342 0.04078
v 0.01438 -0.33342 0.04731
v 0.00000 -0.33342 0.04956
v -0.01438 -0.33342 0.04731
v -0.02735 -0.33342 0.04078
v -0.03764 -0.33342 0.03062
v -0.04425 -0.33342 0.01782
v -0.04653 -0.33342 0.00363
v -0.04425 -0.33342 -0.01056
v -0.03764 -0.33342 -0.02336
v -0.02735 -0.33342 -0.03353
v -0.01438 -0.33342 -0.04005
v -0.00000 -0.33342 -0.04230
v 0.01438 -0.33342 -0.04005
v 0.02735 -0.33342 -0.03353
v 0.03764 -0.33342 -0.02336
v 0.04425 -0.33342 -0.01056
v 0.04600 -0.36000 0.00400
v 0.04375 -0.36000 0.01760
v 0.03721 -0.36000 0.02986
v 0.02704 -0.36000 0.03960
v 0.01421 -0.36000 0.04585
v 0.00000 -0.36000 0.04800
v -0.01421 -0.36000 0.04585
v -0.02704 -0.36000 0.03960
v -0.03721 -0.36000 0.02986
v -0.04375 -0.36000 0.01760
v -0.04600 -0.36000 0.00400
v -0.04375 -0.36000 -0.00960
v -0.03721 -0.36000 -0.02186
v -0.02704 -0.36000 -0.03160
v -0.01421 -0.36000 -0.03785
v -0.00000 -0.36000 -0.04000
v 0.01421 -0.36000 -0.03785
v 0.02704 -0.36000 -0.03160
v 0.03721 -0.36000 -0.02186
v 0.04375 -0.36000 -0.00960
v 0.04380 -0.39178 0.00400
v 0.04165 -0.39178 0.01656
v 0.03543 -0.39178 0.02790
v 0.02574 -0.39178 0.03689
v 0.01353 -0.39178 0.04267
v 0.00000 -0.39178 0.04465
v -0.01353 -0.39178 0.04267
v -0.02574 -0.39178 0.03689
v -0.03543 -0.39178 0.02790
v -0.04165 -0.39178 0.01656
v -0.04380 -0.39178 0.00400
v -0.04165 -0.39178 -0.00856
v -0.03543 -0.39178 -0.01990
v -0.02574 -0.39178 -0.02889
v -0.01353 -0.39178 -0.03467
v -0.00000 -0.39178 -0.03665
v 0.01353 -0.39178 -0.03467
v 0.02574 -0.39178 -0.02889
v 0.03543 -0.39178 -0.01990
v 0.04165 -0.39178 -0.00856
v 0.03977 -0.42748 0.00400
v 0.03783 -0.42748 0.01512
v 0.03218 -0.42748 0.02515
v 0.02338 -0.42748 0.03311
v 0.01229 -0.42748 0.03822
v 0.00000 -0.42748 0.03998
v -0.01229 -0.42748 0.03822
v -0.02338 -0.42748 0.03311
v -0.03218 -0.42748 0.02515
v -0.03783 -0.42748 0.01512
v -0.03977 -0.42748 0.00400
v -0.03783 -0.42748 -0.00712
v -0.03218 -0.42748 -0.01715
v -0.02338 -0.42748 -0.02511
v -0.01229 -0.42748 -0.03022
v -0.00000 -0.42748 -0.03198
v 0.01229 -0.42748 -0.03022
v 0.02338 -0.42748 -0.02511
v 0.03218 -0.42748 -0.01715
v 0.03783 -0.42748 -0.00712
v 0.03600 -0.46000 0.00400
v 0.03424 -0.46000 0.01389
v 0.02912 -0.46000 0.02281
v 0.02116 -0.46000 0.02989
v 0.01112 -0.46000 0.03443
v 0.00000 -0.46000 0.03600
v -0.01112 -0.46000 0.03443
v -0.02116 -0.46000 0.02989
v -0.02912 -0.46000 0.02281
v -0.03424 -0.46000 0.01389
v -0.03600 -0.46000 0.00400
v -0.03424 -0.46000 -0.00589
v -0.02912 -0.46000 -0.01481
v -0.02116 -0.46000 -0.02189
v -0.01112 -0.46000 -0.02643
v -0.00000 -0.46000 -0.02800
v 0.01112 -0.46000 -0.02643
v 0.02116 -0.46000 -0.02189
v 0.02912 -0.46000 -0.01481
v 0.03424 -0.46000 -0.00589
v 0.03312 -0.48937 0.00400
v 0.03150 -0.48937 0.01306
v 0.02679 -0.48937 0.02123
v 0.01947 -0.48937 0.02771
v 0.01023 -0.48937 0.03187
v 0.00000 -0.48937 0.03331
v -0.01023 -0.48937 0.03187
v -0.01947 -0.48937 0.02771
v -0.02679 -0.48937 0.02123
v -0.03150 -0.48937 0.01306
v -0.03312 -0.48937 0.00400
v -0.03150 -0.48937 -0.00506
v -0.02679 -0.48937 -0.01323
v -0.01947 -0.48937 -0.01971
v -0.01023 -0.48937 -0.02387
v -0.00000 -0.48937 -0.02531
v 0.01023 -0.48937 -0.02387
v 0.01947 -0.48937 -0.01971
v 0.02679 -0.48937 -0.01323
v 0.03150 -0.48937 -0.00506
v 0.03043 -0.51635 0.00400
v 0.02894 -0.51635 0.01235
v 0.02462 -0.51635 0.01988
v 0.01789 -0.51635 0.02586
v 0.00940 -0.51635 0.02970
v 0.00000 -0.51635 0.03102
v -0.00940 -0.51635 0.02970
v -0.01789 -0.51635 0.02586
v -0.02462 -0.51635 0.01988
v -0.02894 -0.51635 0.01235
v -0.03043 -0.51635 0.00400
v -0.02894 -0.51635 -0.00435
v -0.02462 -0.51635 -0.01188
v -0.01789 -0.51635 -0.01786
v -0.00940 -0.51635 -0.02170
v -0.00000 -0.51635 -0.02302
v 0.00940 -0.51635 -0.02170
v 0.01789 -0.51635 -0.01786
v 0.02462 -0.51635 -0.01188
v 0.02894 -0.51635 -0.00435
v 0.02800 -0.53500 0.00400
v 0.02663 -0.53500 0.01173
v 0.02265 -0.53500 0.01869
v 0.01646 -0.53500 0.02423
v 0.00865 -0.53500 0.02778
v 0.00000 -0.53500 0.02900
v -0.00865 -0.53500 0.02778
v -0.01646 -0.53500 0.02423
v -0.02265 -0.53500 0.01869
v -0.02663 -0.53500 0.01173
v -0.02800 -0.53500 0.00400
v -0.02663 -0.53500 -0.00373
v -0.02265 -0.53500 -0.01069
v -0.01646 -0.53500 -0.01623
v -0.00865 -0.53500 -0.01978
v -0.00000 -0.53500 -0.02100
v 0.00865 -0.53500 -0.01978
v 0.01646 -0.53500 -0.01623
v 0.02265 -0.53500 -0.01069
v 0.02663 -0.53500 -0.00373
v 0.02587 -0.54519 0.00400
v 0.02461 -0.54519 0.01117
v 0.02093 -0.54519 0.01764
v 0.01521 -0.54519 0.02278
v 0.00800 -0.54519 0.02607
v 0.00000 -0.54519 0.02721
v -0.00800 -0.54519 0.02607
v -0.01521 -0.54519 0.02278
v -0.02093 -0.54519 0.01764
v -0.02461 -0.54519 0.01117
v -0.02587 -0.54519 0.00400
v -0.02461 -0.54519 -0.00317
v -0.02093 -0.54519 -0.00964
v -0.01521 -0.54519 -0.01478
v -0.00800 -0.54519 -0.01807
v -0.00000 -0.54519 -0.01921
v 0.00800 -0.54519 -0.01807
v 0.01521 -0.54519 -0.01478
v 0.02093 -0.54519 -0.00964
v 0.02461 -0.54519 -0.00317
v 0.02394 -0.55259 0.00400
v 0.02276 -0.55259 0.01068
v 0.01937 -0.55259 0.01670
v 0.01407 -0.55259 0.02148
v 0.00740 -0.55259 0.02455
v 0.00000 -0.55259 0.02560
v -0.00740 -0.55259 0.02455
v -0.01407 -0.55259 0.02148
v -0.01937 -0.55259 0.01670
v -0.02276 -0.55259 0.01068
v -0.02394 -0.55259 0.00400
v -0.02276 -0.55259 -0.00268
v -0.01937 -0.55259 -0.00870
v -0.01407 -0.55259 -0.01348
v -0.00740 -0.55259 -0.01655
v -0.00000 -0.55259 -0.01760
v 0.00740 -0.55259 -0.01655
v 0.01407 -0.55259 -0.01348
v 0.01937 -0.55259 -0.00870
v 0.02276 -0.55259 -0.00268
v 0.02200 -0.56000 0.00400
v 0.02092 -0.56000 0.01018
v 0.01780 -0.56000 0.01576
v 0.01293 -0.56000 0.02018
v 0.00680 -0.56000 0.02302
v 0.00000 -0.56000 0.02400
v -0.00680 -0.56000 0.02302
v -0.01293 -0.56000 0.02018
v -0.01780 -0.56000 0.01576
v -0.02092 -0.56000 0.01018
v -0.02200 -0.56000 0.00400
v -0.02092 -0.56000 -0.00218
v -0.01780 -0.56000 -0.00776
v -0.01293 -0.56000 -0.01218
v -0.00680 -0.56000 -0.01502
v -0.00000 -0.56000 -0.01600
v 0.00680 -0.56000 -0.01502
v 0.01293 -0.56000 -0.01218
v 0.01780 -0.56000 -0.00776
v 0.02092 -0.56000 -0.00218
v 0.00000 -0.25000 0.00000
v 0.00000 -0.56000 0.00400
vn 0.3981 0.9171 0.0219
vn 0.3690 0.9185 0.1424
vn 0.3043 0.9200 0.2471
vn 0.2112 0.9214 0.3263
vn 0.0992 0.9222 0.3737
vn -0.0215 0.9224 0.3855
vn -0.1404 0.9219 0.3611
vn -0.2469 0.9208 0.3020
vn -0.3310 0.9193 0.2128
vn -0.3837 0.9179 0.1013
vn -0.3989 0.9167 -0.0220
vn -0.3742 0.9160 -0.1444
vn -0.3118 0.9158 -0.2532
vn -0.2182 0.9158 -0.3371
vn -0.1030 0.9159 -0.3879
vn 0.0223 0.9160 -0.4007
vn 0.1455 0.9158 -0.3743
vn 0.2544 0.9157 -0.3112
vn 0.3380 0.9157 -0.2174
vn 0.3876 0.9162 -0.1023
vn 0.9749 0.2226 0.0034
vn 0.9229 0.2404 0.3007
vn 0.7815 0.2609 0.5668
vn 0.5648 0.2802 0.7762
vn 0.2943 0.2938 0.9094
vn -0.0038 0.2987 0.9544
vn -0.3015 0.2936 0.9071
vn -0.5708 0.2798 0.7720
vn -0.7857 0.2606 0.5611
vn -0.9251 0.2400 0.2942
vn -0.9750 0.2223 -0.0034
vn -0.9296 0.2099 -0.3028
vn -0.7926 0.2035 -0.5748
vn -0.5763 0.2016 -0.7920
vn -0.3016 0.2018 -0.9318
vn 0.0039 0.2022 -0.9793
vn 0.3089 0.2019 -0.9294
vn 0.5823 0.2017 -0.7876
vn 0.7967 0.2037 -0.5690
vn 0.9317 0.2102 -0.2962
vn 0.9889 0.1485 0.0068
vn 0.9375 0.1644 0.3066
vn 0.7961 0.1819 0.5771
vn 0.5769 0.1983 0.7924
vn 0.3000 0.2100 0.9305
vn -0.0072 0.2144 0.9767
vn -0.3136 0.2104 0.9259
vn -0.5882 0.1990 0.7839
vn -0.8041 0.1826 0.5657
vn -0.9416 0.1647 0.2936
vn -0.9889 0.1483 -0.0068
vn -0.9417 0.1356 -0.3080
vn -0.8030 0.1274 -0.5821
vn -0.5841 0.1232 -0.8023
vn -0.3045 0.1217 -0.9447
vn 0.0074 0.1216 -0.9925
vn 0.3184 0.1224 -0.9400
vn 0.5955 0.1243 -0.7937
vn 0.8111 0.1286 -0.5707
vn 0.9458 0.1364 -0.2949
vn 0.9994 0.0339 0.0075
vn 0.9494 0.0453 0.3107
vn 0.8086 0.0546 0.5858
vn 0.5878 0.0616 0.8067
vn 0.3064 0.0662 0.9496
vn -0.0076 0.0683 0.9976
vn -0.3208 0.0677 0.9447
vn -0.5998 0.0639 0.7976
vn -0.8173 0.0568 0.5735
vn -0.9540 0.0464 0.2963
vn -0.9994 0.0334 -0.0075
vn -0.9502 0.0188 -0.3109
vn -0.8098 0.0045 -0.5867
vn -0.5889 -0.0075 -0.8082
vn -0.3070 -0.0152 -0.9516
vn 0.0076 -0.0173 -0.9998
vn 0.3215 -0.0134 -0.9468
vn 0.6011 -0.0046 -0.7992
vn 0.8186 0.0075 -0.5744
vn 0.9548 0.0209 -0.2966
vn 0.9999 -0.0114 0.0048
vn 0.9503 -0.0040 0.3112
vn 0.8087 -0.0029 0.5882
vn 0.5875 -0.0056 0.8092
vn 0.3075 -0.0087 0.9515
vn -0.0040 -0.0096 0.9999
vn -0.3152 -0.0073 0.9490
vn -0.5945 -0.0033 0.8041
vn -0.8140 -0.0006 0.5809
vn -0.9533 -0.0026 0.3021
vn -0.9999 -0.0114 -0.0048
vn -0.9500 -0.0270 -0.3111
vn -0.8078 -0.0467 -0.5876
vn -0.5863 -0.0659 -0.8074
vn -0.3065 -0.0798 -0.9485
vn 0.0040 -0.0844 -0.9964
vn 0.3143 -0.0785 -0.9461
vn 0.5933 -0.0638 -0.8025
vn 0.8132 -0.0445 -0.5803
vn 0.9530 -0.0256 -0.3020
vn 0.9998 -0.0186 0.0024
vn 0.9489 -0.0162 0.3152
vn 0.8036 -0.0219 0.5947
vn 0.5808 -0.0316 0.8135
vn 0.3038 -0.0401 0.9519
vn -0.0009 -0.0432 0.9991
vn -0.3057 -0.0394 0.9513
vn -0.5831 -0.0303 0.8118
vn -0.8059 -0.0204 0.5917
vn -0.9503 -0.0148 0.3109
vn -0.9998 -0.0177 -0.0024
vn -0.9486 -0.0300 -0.3151
vn -0.8029 -0.0490 -0.5942
vn -0.5797 -0.0692 -0.8119
vn -0.3029 -0.0843 -0.9493
vn 0.0009 -0.0899 -0.9959
vn 0.3049 -0.0842 -0.9487
vn 0.5820 -0.0690 -0.8103
vn 0.8051 -0.0491 -0.5911
vn 0.9500 -0.0305 -0.3108
vn 0.9989 -0.0474 0.0032
vn 0.9447 -0.0493 0.3242
vn 0.7934 -0.0582 0.6059
vn 0.5676 -0.0697 0.8204
vn 0.2943 -0.0791 0.9524
vn -0.0014 -0.0827 0.9966
vn -0.2973 -0.0792 0.9515
vn -0.5708 -0.0699 0.8181
vn -0.7965 -0.0582 0.6019
vn -0.9467 -0.0490 0.3184
vn -0.9989 -0.0467 -0.0032
vn -0.9445 -0.0528 -0.3241
vn -0.7930 -0.0653 -0.6057
vn -0.5671 -0.0797 -0.8197
vn -0.2940 -0.0910 -0.9515
vn 0.0014 -0.0954 -0.9954
vn 0.2970 -0.0916 -0.9505
vn 0.5704 -0.0807 -0.8174
vn 0.7960 -0.0665 -0.6016
vn 0.9464 -0.0538 -0.3184
vn 0.9958 -0.0917 -0.0008
vn 0.9401 -0.0940 0.3277
vn 0.7846 -0.1005 0.6119
vn 0.5576 -0.1084 0.8230
vn 0.2890 -0.1147 0.9505
vn 0.0020 -0.1172 0.9931
vn -0.2852 -0.1152 0.9515
vn -0.5548 -0.1093 0.8248
vn -0.7829 -0.1014 0.6138
vn -0.9394 -0.0946 0.3295
vn -0.9958 -0.0917 0.0008
vn -0.9401 -0.0940 -0.3277
vn -0.7846 -0.1005 -0.6119
vn -0.5576 -0.1084 -0.8230
vn -0.2890 -0.1147 -0.9505
vn -0.0020 -0.1172 -0.9931
vn 0.2852 -0.1152 -0.9515
vn 0.5548 -0.1093 -0.8248
vn 0.7829 -0.1014 -0.6138
vn 0.9394 -0.0946 -0.3295
vn 0.9935 -0.1139 -0.0083
vn 0.9379 -0.1147 0.3273
vn 0.7801 -0.1176 0.6145
vn 0.5528 -0.1212 0.8244
vn 0.2880 -0.1243 0.9495
vn 0.0079 -0.1256 0.9920
vn -0.2728 -0.1248 0.9539
vn -0.5393 -0.1222 0.8332
vn -0.7698 -0.1186 0.6272
vn -0.9323 -0.1154 0.3429
vn -0.9935 -0.1139 0.0083
vn -0.9379 -0.1147 -0.3273
vn -0.7801 -0.1176 -0.6145
vn -0.5528 -0.1212 -0.8244
vn -0.2880 -0.1243 -0.9495
vn -0.0079 -0.1256 -0.9920
vn 0.2728 -0.1248 -0.9539
vn 0.5393 -0.1222 -0.8332
vn 0.7698 -0.1186 -0.6272
vn 0.9323 -0.1154 -0.3429
vn 0.9942 -0.1075 -0.0084
vn 0.9369 -0.1071 0.3327
vn 0.7757 -0.1067 0.6220
vn 0.5468 -0.1067 0.8304
vn 0.2836 -0.1070 0.9529
vn 0.0072 -0.1074 0.9942
vn -0.2695 -0.1077 0.9570
vn -0.5340 -0.1078 0.8386
vn -0.7655 -0.1078 0.6343
vn -0.9312 -0.1077 0.3483
vn -0.9942 -0.1075 0.0084
vn -0.9369 -0.1071 -0.3327
vn -0.7757 -0.1067 -0.6220
vn -0.5468 -0.1067 -0.8304
vn -0.2836 -0.1070 -0.9529
vn -0.0072 -0.1074 -0.9942
vn 0.2695 -0.1077 -0.9570
vn 0.5340 -0.1078 -0.8386
vn 0.7655 -0.1078 -0.6343
vn 0.9312 -0.1077 -0.3483
vn 0.9951 -0.0983 -0.0075
vn 0.9369 -0.0970 0.3358
vn 0.7742 -0.0941 0.6259
vn 0.5444 -0.0909 0.8339
vn 0.2814 -0.0887 0.9555
vn 0.0059 -0.0880 0.9961
vn -0.2698 -0.0890 0.9588
vn -0.5337 -0.0914 0.8407
vn -0.7655 -0.0946 0.6365
vn -0.9319 -0.0973 0.3495
vn -0.9951 -0.0983 0.0075
vn -0.9369 -0.0970 -0.3358
vn -0.7742 -0.0941 -0.6259
vn -0.5444 -0.0909 -0.8339
vn -0.2814 -0.0887 -0.9555
vn -0.0059 -0.0880 -0.9961
vn 0.2698 -0.0890 -0.9588
vn 0.5337 -0.0914 -0.8407
vn 0.7655 -0.0946 -0.6365
vn 0.9319 -0.0973 -0.3495
vn 0.9937 -0.1109 -0.0157
vn 0.9386 -0.1091 0.3272
vn 0.7787 -0.1045 0.6186
vn 0.5505 -0.0992 0.8289
vn 0.2879 -0.0952 0.9529
vn 0.0122 -0.0937 0.9955
vn -0.2640 -0.0951 0.9598
vn -0.5283 -0.0990 0.8433
vn -0.7606 -0.1042 0.6408
vn -0.9282 -0.1090 0.3559
vn -0.9937 -0.1109 0.0157
vn -0.9386 -0.1091 -0.3272
vn -0.7787 -0.1045 -0.6186
vn -0.5505 -0.0992 -0.8289
vn -0.2879 -0.0952 -0.9529
vn -0.0122 -0.0937 -0.9955
vn 0.2640 -0.0951 -0.9598
vn 0.5283 -0.0990 -0.8433
vn 0.7606 -0.1042 -0.6408
vn 0.9282 -0.1090 -0.3559
vn 0.9877 -0.1551 -0.0218
vn 0.9357 -0.1527 0.3181
vn 0.7796 -0.1462 0.6090
vn 0.5542 -0.1386 0.8208
vn 0.2928 -0.1327 0.9469
vn 0.0172 -0.1304 0.9913
vn -0.2591 -0.1323 0.9567
vn -0.5231 -0.1378 0.8410
vn -0.7545 -0.1453 0.6401
vn -0.9212 -0.1521 0.3581
vn -0.9877 -0.1551 0.0218
vn -0.9357 -0.1527 -0.3181
vn -0.7796 -0.1462 -0.6090
vn -0.5542 -0.1386 -0.8208
vn -0.2928 -0.1327 -0.9469
vn -0.0172 -0.1304 -0.9913
vn 0.2591 -0.1323 -0.9567
vn 0.5231 -0.1378 -0.8410
vn 0.7545 -0.1453 -0.6401
vn 0.9212 -0.1521 -0.3581
vn 0.9744 -0.2242 -0.0135
vn 0.9215 -0.2206 0.3198
vn 0.7673 -0.2113 0.6055
vn 0.5445 -0.2005 0.8144
vn 0.2851 -0.1923 0.9390
vn 0.0107 -0.1892 0.9819
vn -0.2641 -0.1921 0.9452
vn -0.5252 -0.2001 0.8271
vn -0.7517 -0.2108 0.6249
vn -0.9125 -0.2203 0.3446
vn -0.9744 -0.2242 0.0135
vn -0.9215 -0.2206 -0.3198
vn -0.7673 -0.2113 -0.6055
vn -0.5445 -0.2005 -0.8144
vn -0.2851 -0.1923 -0.9390
vn -0.0107 -0.1892 -0.9819
vn 0.2641 -0.1921 -0.9452
vn 0.5252 -0.2001 -0.8271
vn 0.7517 -0.2108 -0.6249
vn 0.9125 -0.2203 -0.3446
vn 0.9676 -0.2526 -0.0046
vn 0.9129 -0.2484 0.3239
vn 0.7593 -0.2376 0.6058
vn 0.5375 -0.2251 0.8127
vn 0.2782 -0.2156 0.9360
vn 0.0035 -0.2120 0.9773
vn -0.2714 -0.2155 0.9380
vn -0.5311 -0.2249 0.8169
vn -0.7541 -0.2374 0.6123
vn -0.9099 -0.2482 0.3323
vn -0.9676 -0.2526 0.0046
vn -0.9129 -0.2484 -0.3239
vn -0.7593 -0.2376 -0.6058
vn -0.5375 -0.2251 -0.8127
vn -0.2782 -0.2156 -0.9360
vn -0.0035 -0.2120 -0.9773
vn 0.2714 -0.2155 -0.9380
vn 0.5311 -0.2249 -0.8169
vn 0.7541 -0.2374 -0.6123
vn 0.9099 -0.2482 -0.3323
vn 0.4153 -0.9093 -0.0256
vn 0.4018 -0.9082 0.1171
vn 0.3484 -0.9040 0.2477
vn 0.2611 -0.8984 0.3533
vn 0.1489 -0.8934 0.4238
vn 0.0228 -0.8911 0.4533
vn -0.1054 -0.8922 0.4393
vn -0.2238 -0.8963 0.3828
vn -0.3212 -0.9019 0.2887
vn -0.3874 -0.9069 0.1656
vn -0.4153 -0.9093 0.0256
vn -0.4018 -0.9082 -0.1171
vn -0.3484 -0.9040 -0.2477
vn -0.2611 -0.8984 -0.3533
vn -0.1489 -0.8934 -0.4238
vn -0.0228 -0.8911 -0.4533
vn 0.1054 -0.8922 -0.4393
vn 0.2238 -0.8963 -0.3828
vn 0.3212 -0.9019 -0.2887
vn 0.3874 -0.9069 -0.1656
vn 0.0000 1.0000 0.0000
vn 0.0000 -1.0000 0.0000
vt 0.5800 0.0000
vt 0.5761 0.0000
vt 0.5647 0.0000
vt 0.5470 0.0000
vt 0.5247 0.0000
vt 0.5000 0.0000
vt 0.4753 0.0000
vt 0.4530 0.0000
vt 0.4353 0.0000
vt 0.4239 0.0000
vt 0.4200 0.0000
vt 0.4239 0.0000
vt 0.4353 0.0000
vt 0.4530 0.0000
vt 0.4753 0.0000
vt 0.5000 0.0000
vt 0.5247 0.0000
vt 0.5470 0.0000
vt 0.5647 0.0000
vt 0.5761 0.0000
vt 0.5857 -0.0251
vt 0.5815 -0.0251
vt 0.5693 -0.0251
vt 0.5504 -0.0251
vt 0.5265 -0.0251
vt 0.5000 -0.0251
vt 0.4735 -0.0251
vt 0.4496 -0.0251
vt 0.4307 -0.0251
vt 0.4185 -0.0251
vt 0.4143 -0.0251
vt 0.4185 -0.0251
vt 0.4307 -0.0251
vt 0.4496 -0.0251
vt 0.4735 -0.0251
vt 0.5000 -0.0251
vt 0.5265 -0.0251
vt 0.5504 -0.0251
vt 0.5693 -0.0251
vt 0.5815 -0.0251
vt 0.5914 -0.0501
vt 0.5869 -0.0501
vt 0.5740 -0.0501
vt 0.5537 -0.0501
vt 0.5282 -0.0501
vt 0.5000 -0.0501
vt 0.4718 -0.0501
vt 0.4463 -0.0501
vt 0.4260 -0.0501
vt 0.4131 -0.0501
vt 0.4086 -0.0501
vt 0.4131 -0.0501
vt 0.4260 -0.0501
vt 0.4463 -0.0501
vt 0.4718 -0.0501
vt 0.5000 -0.0501
vt 0.5282 -0.0501
vt 0.5537 -0.0501
vt 0.5740 -0.0501
vt 0.5869 -0.0501
vt 0.5940 -0.0800
vt 0.5894 -0.0800
vt 0.5760 -0.0800
vt 0.5553 -0.0800
vt 0.5290 -0.0800
vt 0.5000 -0.0800
vt 0.4710 -0.0800
vt 0.4447 -0.0800
vt 0.4240 -0.0800
vt 0.4106 -0.0800
vt 0.4060 -0.0800
vt 0.4106 -0.0800
vt 0.4240 -0.0800
vt 0.4447 -0.0800
vt 0.4710 -0.0800
vt 0.5000 -0.0800
vt 0.5290 -0.0800
vt 0.5553 -0.0800
vt 0.5760 -0.0800
vt 0.5894 -0.0800
vt 0.5938 -0.1192
vt 0.5892 -0.1192
vt 0.5758 -0.1192
vt 0.5551 -0.1192
vt 0.5290 -0.1192
vt 0.5000 -0.1192
vt 0.4710 -0.1192
vt 0.4449 -0.1192
vt 0.4242 -0.1192
vt 0.4108 -0.1192
vt 0.4062 -0.1192
vt 0.4108 -0.1192
vt 0.4242 -0.1192
vt 0.4449 -0.1192
vt 0.4710 -0.1192
vt 0.5000 -0.1192
vt 0.5290 -0.1192
vt 0.5551 -0.1192
vt 0.5758 -0.1192
vt 0.5892 -0.1192
vt 0.5931 -0.1668
vt 0.5885 -0.1668
vt 0.5753 -0.1668
vt 0.5547 -0.1668
vt 0.5288 -0.1668
vt 0.5000 -0.1668
vt 0.4712 -0.1668
vt 0.4453 -0.1668
vt 0.4247 -0.1668
vt 0.4115 -0.1668
vt 0.4069 -0.1668
vt 0.4115 -0.1668
vt 0.4247 -0.1668
vt 0.4453 -0.1668
vt 0.4712 -0.1668
vt 0.5000 -0.1668
vt 0.5288 -0.1668
vt 0.5547 -0.1668
vt 0.5753 -0.1668
vt 0.5885 -0.1668
vt 0.5920 -0.2200
vt 0.5875 -0.2200
vt 0.5744 -0.2200
vt 0.5541 -0.2200
vt 0.5284 -0.2200
vt 0.5000 -0.2200
vt 0.4716 -0.2200
vt 0.4459 -0.2200
vt 0.4256 -0.2200
vt 0.4125 -0.2200
vt 0.4080 -0.2200
vt 0.4125 -0.2200
vt 0.4256 -0.2200
vt 0.4459 -0.2200
vt 0.4716 -0.2200
vt 0.5000 -0.2200
vt 0.5284 -0.2200
vt 0.5541 -0.2200
vt 0.5744 -0.2200
vt 0.5875 -0.2200
vt 0.5876 -0.2836
vt 0.5833 -0.2836
vt 0.5709 -0.2836
vt 0.5515 -0.2836
vt 0.5271 -0.2836
vt 0.5000 -0.2836
vt 0.4729 -0.2836
vt 0.4485 -0.2836
vt 0.4291 -0.2836
vt 0.4167 -0.2836
vt 0.4124 -0.2836
vt 0.4167 -0.2836
vt 0.4291 -0.2836
vt 0.4485 -0.2836
vt 0.4729 -0.2836
vt 0.5000 -0.2836
vt 0.5271 -0.2836
vt 0.5515 -0.2836
vt 0.5709 -0.2836
vt 0.5833 -0.2836
vt 0.5795 -0.3550
vt 0.5757 -0.3550
vt 0.5644 -0.3550
vt 0.5468 -0.3550
vt 0.5246 -0.3550
vt 0.5000 -0.3550
vt 0.4754 -0.3550
vt 0.4532 -0.3550
vt 0.4356 -0.3550
vt 0.4243 -0.3550
vt 0.4205 -0.3550
vt 0.4243 -0.3550
vt 0.4356 -0.3550
vt 0.4532 -0.3550
vt 0.4754 -0.3550
vt 0.5000 -0.3550
vt 0.5246 -0.3550
vt 0.5468 -0.3550
vt 0.5644 -0.3550
vt 0.5757 -0.3550
vt 0.5720 -0.4200
vt 0.5685 -0.4200
vt 0.5582 -0.4200
vt 0.5423 -0.4200
vt 0.5222 -0.4200
vt 0.5000 -0.4200
vt 0.4778 -0.4200
vt 0.4577 -0.4200
vt 0.4418 -0.4200
vt 0.4315 -0.4200
vt 0.4280 -0.4200
vt 0.4315 -0.4200
vt 0.4418 -0.4200
vt 0.4577 -0.4200
vt 0.4778 -0.4200
vt 0.5000 -0.4200
vt 0.5222 -0.4200
vt 0.5423 -0.4200
vt 0.5582 -0.4200
vt 0.5685 -0.4200
vt 0.5662 -0.4787
vt 0.5630 -0.4787
vt 0.5536 -0.4787
vt 0.5389 -0.4787
vt 0.5205 -0.4787
vt 0.5000 -0.4787
vt 0.4795 -0.4787
vt 0.4611 -0.4787
vt 0.4464 -0.4787
vt 0.4370 -0.4787
vt 0.4338 -0.4787
vt 0.4370 -0.4787
vt 0.4464 -0.4787
vt 0.4611 -0.4787
vt 0.4795 -0.4787
vt 0.5000 -0.4787
vt 0.5205 -0.4787
vt 0.5389 -0.4787
vt 0.5536 -0.4787
vt 0.5630 -0.4787
vt 0.5609 -0.5327
vt 0.5579 -0.5327
vt 0.5492 -0.5327
vt 0.5358 -0.5327
vt 0.5188 -0.5327
vt 0.5000 -0.5327
vt 0.4812 -0.5327
vt 0.4642 -0.5327
vt 0.4508 -0.5327
vt 0.4421 -0.5327
vt 0.4391 -0.5327
vt 0.4421 -0.5327
vt 0.4508 -0.5327
vt 0.4642 -0.5327
vt 0.4812 -0.5327
vt 0.5000 -0.5327
vt 0.5188 -0.5327
vt 0.5358 -0.5327
vt 0.5492 -0.5327
vt 0.5579 -0.5327
vt 0.5560 -0.5700
vt 0.5533 -0.5700
vt 0.5453 -0.5700
vt 0.5329 -0.5700
vt 0.5173 -0.5700
vt 0.5000 -0.5700
vt 0.4827 -0.5700
vt 0.4671 -0.5700
vt 0.4547 -0.5700
vt 0.4467 -0.5700
vt 0.4440 -0.5700
vt 0.4467 -0.5700
vt 0.4547 -0.5700
vt 0.4671 -0.5700
vt 0.4827 -0.5700
vt 0.5000 -0.5700
vt 0.5173 -0.5700
vt 0.5329 -0.5700
vt 0.5453 -0.5700
vt 0.5533 -0.5700
vt 0.5517 -0.5904
vt 0.5492 -0.5904
vt 0.5419 -0.5904
vt 0.5304 -0.5904
vt 0.5160 -0.5904
vt 0.5000 -0.5904
vt 0.4840 -0.5904
vt 0.4696 -0.5904
vt 0.4581 -0.5904
vt 0.4508 -0.5904
vt 0.4483 -0.5904
vt 0.4508 -0.5904
vt 0.4581 -0.5904
vt 0.4696 -0.5904
vt 0.4840 -0.5904
vt 0.5000 -0.5904
vt 0.5160 -0.5904
vt 0.5304 -0.5904
vt 0.5419 -0.5904
vt 0.5492 -0.5904
vt 0.5479 -0.6052
vt 0.5455 -0.6052
vt 0.5387 -0.6052
vt 0.5281 -0.6052
vt 0.5148 -0.6052
vt 0.5000 -0.6052
vt 0.4852 -0.6052
vt 0.4719 -0.6052
vt 0.4613 -0.6052
vt 0.4545 -0.6052
vt 0.4521 -0.6052
vt 0.4545 -0.6052
vt 0.4613 -0.6052
vt 0.4719 -0.6052
vt 0.4852 -0.6052
vt 0.5000 -0.6052
vt 0.5148 -0.6052
vt 0.5281 -0.6052
vt 0.5387 -0.6052
vt 0.5455 -0.6052
vt 0.5440 -0.6200
vt 0.5418 -0.6200
vt 0.5356 -0.6200
vt 0.5259 -0.6200
vt 0.5136 -0.6200
vt 0.5000 -0.6200
vt 0.4864 -0.6200
vt 0.4741 -0.6200
vt 0.4644 -0.6200
vt 0.4582 -0.6200
vt 0.4560 -0.6200
vt 0.4582 -0.6200
vt 0.4644 -0.6200
vt 0.4741 -0.6200
vt 0.4864 -0.6200
vt 0.5000 -0.6200
vt 0.5136 -0.6200
vt 0.5259 -0.6200
vt 0.5356 -0.6200
vt 0.5418 -0.6200
vt 0.5000 0.0000
vt 0.5000 -0.6200
f 1/1/1 2/2/2 22/22/22
f 1/1/1 22/22/22 21/21/21
f 2/2/2 3/3/3 23/23/23
f 2/2/2 23/23/23 22/22/22
f 3/3/3 4/4/4 24/24/24
f 3/3/3 24/24/24 23/23/23
f 4/4/4 5/5/5 25/25/25
f 4/4/4 25/25/25 24/24/24
f 5/5/5 6/6/6 26/26/26
f 5/5/5 26/26/26 25/25/25
f 6/6/6 7/7/7 27/27/27
f 6/6/6 27/27/27 26/26/26
f 7/7/7 8/8/8 28/28/28
f 7/7/7 28/28/28 27/27/27
f 8/8/8 9/9/9 29/29/29
f 8/8/8 29/29/29 28/28/28
f 9/9/9 10/10/10 30/30/30
f 9/9/9 30/30/30 29/29/29
f 10/10/10 11/11/11 31/31/31
f 10/10/10 31/31/31 30/30/30
f 11/11/11 12/12/12 32/32/32
f 11/11/11 32/32/32 31/31/31
f 12/12/12 13/13/13 33/33/33
f 12/12/12 33/33/33 32/32/32
f 13/13/13 14/14/14 34/34/34
f 13/13/13 34/34/34 33/33/33
f 14/14/14 15/15/15 35/35/35
f 14/14/14 35/35/35 34/34/34
f 15/15/15 16/16/16 36/36/36
f 15/15/15 36/36/36 35/35/35
f 16/16/16 17/17/17 37/37/37
f 16/16/16 37/37/37 36/36/36
f 17/17/17 18/18/18 38/38/38
f 17/17/17 38/38/38 37/37/37
f 18/18/18 19/19/19 39/39/39
f 18/18/18 39/39/39 38/38/38
f 19/19/19 20/20/20 40/40/40
f 19/19/19 40/40/40 39/39/39
f 20/20/20 1/1/1 21/21/21
f 20/20/20 21/21/21 40/40/40
f 21/21/21 22/22/22 42/42/42
f 21/21/21 42/42/42 41/41/41
f 22/22/22 23/23/23 43/43/43
f 22/22/22 43/43/43 42/42/42
f 23/23/23 24/24/24 44/44/44
f 23/23/23 44/44/44 43/43/43
f 24/24/24 25/25/25 45/45/45
f 24/24/24 45/45/45 44/44/44
f 25/25/25 26/26/26 46/46/46
f 25/25/25 46/46/46 45/45/45
f 26/26/26 27/27/27 47/47/47
f 26/26/26 47/47/47 46/46/46
f 27/27/27 28/28/28 48/48/48
f 27/27/27 48/48/48 47/47/47
f 28/28/28 29/29/29 49/49/49
f 28/28/28 49/49/49 48/48/48
f 29/29/29 30/30/30 50/50/50
f 29/29/29 50/50/50 49/49/49
f 30/30/30 31/31/31 51/51/51
f 30/30/30 51/51/51 50/50/50
f 31/31/31 32/32/32 52/52/52
f 31/31/31 52/52/52 51/51/51
f 32/32/32 33/33/33 53/53/53
f 32/32/32 53/53/53 52/52/52
f 33/33/33 34/34/34 54/54/54
f 33/33/33 54/54/54 53/53/53
f 34/34/34 35/35/35 55/55/55
f 34/34/34 55/55/55 54/54/54
f 35/35/35 36/36/36 56/56/56
f 35/35/35 56/56/56 55/55/55
f 36/36/36 37/37/37 57/57/57
f 36/36/36 57/57/57 56/56/56
f 37/37/37 38/38/38 58/58/58
f 37/37/37 58/58/58 57/57/57
f 38/38/38 39/39/39 59/59/59
f 38/38/38 59/59/59 58/58/58
f 39/39/39 40/40/40 60/60/60
f 39/39/39 60/60/60 59/59/59
f 40/40/40 21/21/21 41/41/41
f 40/40/40 41/41/41 60/60/60
f 41/41/41 42/42/42 62/62/62
f 41/41/41 62/62/62 61/61/61
f 42/42/42 43/43/43 63/63/63
f 42/42/42 63/63/63 62/62/62
f 43/43/43 44/44/44 64/64/64
f 43/43/43 64/64/64 63/63/63
f 44/44/44 45/45/45 65/65/65
f 44/44/44 65/65/65 64/64/64
f 45/45/45 46/46/46 66/66/66
f 45/45/45 66/66/66 65/65/65
f 46/46/46 47/47/47 67/67/67
f 46/46/46 67/67/67 66/66/66
f 47/47/47 48/48/48 68/68/68
f 47/47/47 68/68/68 67/67/67
f 48/48/48 49/49/49 69/69/69
f 48/48/48 69/69/69 68/68/68
f 49/49/49 50/50/50 70/70/70
f 49/49/49 70/70/70 69/69/69
f 50/50/50 51/51/51 71/71/71
f 50/50/50 71/71/71 70/70/70
f 51/51/51 52/52/52 72/72/72
f 51/51/51 72/72/72 71/71/71
f 52/52/52 53/53/53 73/73/73
f 52/52/52 73/73/73 72/72/72
f 53/53/53 54/54/54 74/74/74
f 53/53/53 74/74/74 73/73/73
f 54/54/54 55/55/55 75/75/75
f 54/54/54 75/75/75 74/74/74
f 55/55/55 56/56/56 76/76/76
f 55/55/55 76/76/76 75/75/75
f 56/56/56 57/57/57 77/77/77
f 56/56/56 77/77/77 76/76/76
f 57/57/57 58/58/58 78/78/78
f 57/57/57 78/78/78 77/77/77
f 58/58/58 59/59/59 79/79/79
f 58/58/58 79/79/79 78/78/78
f 59/59/59 60/60/60 80/80/80
f 59/59/59 80/80/80 79/79/79
f 60/60/60 41/41/41 61/61/61
f 60/60/60 61/61/61 80/80/80
f 61/61/61 62/62/62 82/82/82
f 61/61/61 82/82/82 81/81/81
f 62/62/62 63/63/63 83/83/83
f 62/62/62 83/83/83 82/82/82
f 63/63/63 64/64/64 84/84/84
f 63/63/63 84/84/84 83/83/83
f 64/64/64 65/65/65 85/85/85
f 64/64/64 85/85/85 84/84/84
f 65/65/65 66/66/66 86/86/86
f 65/65/65 86/86/86 85/85/85
f 66/66/66 67/67/67 87/87/87
f 66/66/66 87/87/87 86/86/86
f 67/67/67 68/68/68 88/88/88
f 67/67/67 88/88/88 87/87/87
f 68/68/68 69/69/69 89/89/89
f 68/68/68 89/89/89 88/88/88
f 69/69/69 70/70/70 90/90/90
f 69/69/69 90/90/90 89/89/89
f 70/70/70 71/71/71 91/91/91
f 70/70/70 91/91/91 90/90/90
f 71/71/71 72/72/72 92/92/92
f 71/71/71 92/92/92 91/91/91
f 72/72/72 73/73/73 93/93/93
f 72/72/72 93/93/93 92/92/92
f 73/73/73 74/74/74 94/94/94
f 73/73/73 94/94/94 93/93/93
f 74/74/74 75/75/75 95/95/95
f 74/74/74 95/95/95 94/94/94
f 75/75/75 76/76/76 96/96/96
f 75/75/75 96/96/96 95/95/95
f 76/76/76 77/77/77 97/97/97
f 76/76/76 97/97/97 96/96/96
f 77/77/77 78/78/78 98/98/98
f 77/77/77 98/98/98 97/97/97
f 78/78/78 79/79/79 99/99/99
f 78/78/78 99/99/99 98/98/98
f 79/79/79 80/80/80 100/100/100
f 79/79/79 100/100/100 99/99/99
f 80/80/80 61/61/61 81/81/81
f 80/80/80 81/81/81 100/100/100
f 81/81/81 82/82/82 102/102/102
f 81/81/81 102/102/102 101/101/101
f 82/82/82 83/83/83 103/103/103
f 82/82/82 103/103/103 102/102/102
f 83/83/83 84/84/84 104/104/104
f 83/83/83 104/104/104 103/103/103
f 84/84/84 85/85/85 105/105/105
f 84/84/84 105/105/105 104/104/104
f 85/85/85 86/86/86 106/106/106
f 85/85/85 106/106/106 105/105/105
f 86/86/86 87/87/87 107/107/107
f 86/86/86 107/107/107 106/106/106
f 87/87/87 88/88/88 108/108/108
f 87/87/87 108/108/108 107/107/107
f 88/88/88 89/89/89 109/109/109
f 88/88/88 109/109/109 108/108/108
f 89/89/89 90/90/90 110/110/110
f 89/89/89 110/110/110 109/109/109
f 90/90/90 91/91/91 111/111/111
f 90/90/90 111/111/111 110/110/110
f 91/91/91 92/92/92 112/112/112
f 91/91/91 112/112/112 111/111/111
f 92/92/92 93/93/93 113/113/113
f 92/92/92 113/113/113 112/112/112
f 93/93/93 94/94/94 114/114/114
f 93/93/93 114/114/114 113/113/113
f 94/94/94 95/95/95 115/115/115
f 94/94/94 115/115/115 114/114/114
f 95/95/95 96/96/96 116/116/116
f 95/95/95 116/116/116 115/115/115
f 96/96/96 97/97/97 117/117/117
f 96/96/96 117/117/117 116/116/116
f 97/97/97 98/98/98 118/118/118
f 97/97/97 118/118/118 117/117/117
f 98/98/98 99/99/99 119/119/119
f 98/98/98 119/119/119 118/118/118
f 99/99/99 100/100/100 120/120/120
f 99/99/99 120/120/120 119/119/119
f 100/100/100 81/81/81 101/101/101
f 100/100/100 101/101/101 120/120/120
f 101/101/101 102/102/102 122/122/122
f 101/101/101 122/122/122 121/121/121
f 102/102/102 103/103/103 123/123/123
f 102/102/102 123/123/123 122/122/122
f 103/103/103 104/104/104 124/124/124
f 103/103/103 124/124/124 123/123/123
f 104/104/104 105/105/105 125/125/125
f 104/104/104 125/125/125 124/124/124
f 105/105/105 106/106/106 126/126/126
f 105/105/105 126/126/126 125/125/125
f 106/106/106 107/107/107 127/127/127
f 106/106/106 127/127/127 126/126/126
f 107/107/107 108/108/108 128/128/128
f 107/107/107 128/128/128 127/127/127
f 108/108/108 109/109/109 129/129/129
f 108/108/108 129/129/129 128/128/128
f 109/109/109 110/110/110 130/130/130
f 109/109/109 130/130/130 129/129/129
f 110/110/110 111/111/111 131/131/131
f 110/110/110 131/131/131 130/130/130
f 111/111/111 112/112/112 132/132/132
f 111/111/111 132/132/132 131/131/131
f 112/112/112 113/113/113 133/133/133
f 112/112/112 133/133/133 132/132/132
f 113/113/113 114/114/114 134/134/134
f 113/113/113 134/134/134 133/133/133
f 114/114/114 115/115/115 135/135/135
f 114/114/114 135/135/135 134/134/134
f 115/115/115 116/116/116 136/136/136
f 115/115/115 136/136/136 135/135/135
f 116/116/116 117/117/117 137/137/137
f 116/116/116 137/137/137 136/136/136
f 117/117/117 118/118/118 138/138/138
f 117/117/117 138/138/138 137/137/137
f 118/118/118 119/119/119 139/139/139
f 118/118/118 139/139/139 138/138/138
f 119/119/119 120/120/120 140/140/140
f 119/119/119 140/140/140 139/139/139
f 120/120/120 101/101/101 121/121/121
f 120/120/120 121/121/121 140/140/140
f 121/121/121 122/122/122 142/142/142
f 121/121/121 142/142/142 141/141/141
f 122/122/122 123/123/123 143/143/143
f 122/122/122 143/143/143 142/142/142
f 123/123/123 124/124/124 144/144/144
f 123/123/123 144/144/144 143/143/143
f 124/124/124 125/125/125 145/145/145
f 124/124/124 145/145/145 144/144/144
f 125/125/125 126/126/126 146/146/146
f 125/125/125 146/146/146 145/145/145
f 126/126/126 127/127/127 147/147/147
f 126/126/126 147/147/147 146/146/146
f 127/127/127 128/128/128 148/148/148
f 127/127/127 148/148/148 147/147/147
f 128/128/128 129/129/129 149/149/149
f 128/128/128 149/149/149 148/148/148
f 129/129/129 130/130/130 150/150/150
f 129/129/129 150/150/150 149/149/149
f 130/130/130 131/131/131 151/151/151
f 130/130/130 151/151/151 150/150/150
f 131/131/131 132/132/132 152/152/152
f 131/131/131 152/152/152 151/151/151
f 132/132/132 133/133/133 153/153/153
f 132/132/132 153/153/153 152/152/152
f 133/133/133 134/134/134 154/154/154
f 133/133/133 154/154/154 153/153/153
f 134/134/134 135/135/135 155/155/155
f 134/134/134 155/155/155 154/154/154
f 135/135/135 136/136/136 156/156/156
f 135/135/135 156/156/156 155/155/155
f 136/136/136 137/137/137 157/157/157
f 136/136/136 157/157/157 156/156/156
f 137/137/137 138/138/138 158/158/158
f 137/137/137 158/158/158 157/157/157
f 138/138/138 139/139/139 159/159/159
f 138/138/138 159/159/159 158/158/158
f 139/139/139 140/140/140 160/160/160
f 139/139/139 160/160/160 159/159/159
f 140/140/140 121/121/121 141/141/141
f 140/140/140 141/141/141 160/160/160
f 141/141/141 142/142/142 162/162/162
f 141/141/141 162/162/162 161/161/161
f 142/142/142 143/143/143 163/163/163
f 142/142/142 163/163/163 162/162/162
f 143/143/143 144/144/144 164/164/164
f 143/143/143 164/164/164 163/163/163
f 144/144/144 145/145/145 165/165/165
f 144/144/144 165/165/165 164/164/164
f 145/145/145 146/146/146 166/166/166
f 145/145/145 166/166/166 165/165/165
f 146/146/146 147/147/147 167/167/167
f 146/146/146 167/167/167 166/166/166
f 147/147/147 148/148/148 168/168/168
f 147/147/147 168/168/168 167/167/167
f 148/148/148 149/149/149 169/169/169
f 148/148/148 169/169/169 168/168/168
f 149/149/149 150/150/150 170/170/170
f 149/149/149 170/170/170 169/169/169
f 150/150/150 151/151/151 171/171/171
f 150/150/150 171/171/171 170/170/170
f 151/151/151 152/152/152 172/172/172
f 151/151/151 172/172/172 171/171/171
f 152/152/152 153/153/153 173/173/173
f 152/152/152 173/173/173 172/172/172
f 153/153/153 154/154/154 174/174/174
f 153/153/153 174/174/174 173/173/173
f 154/154/154 155/155/155 175/175/175
f 154/154/154 175/175/175 174/174/174
f 155/155/155 156/156/156 176/176/176
f 155/155/155 176/176/176 175/175/175
f 156/156/156 157/157/157 177/177/177
f 156/156/156 177/177/177 176/176/176
f 157/157/157 158/158/158 178/178/178
f 157/157/157 178/178/178 177/177/177
f 158/158/158 159/159/159 179/179/179
f 158/158/158 179/179/179 178/178/178
f 159/159/159 160/160/160 180/180/180
f 159/159/159 180/180/180 179/179/179
f 160/160/160 141/141/141 161/161/161
f 160/160/160 161/161/161 180/180/180
f 161/161/161 162/162/162 182/182/182
f 161/161/161 182/182/182 181/181/181
f 162/162/162 163/163/163 183/183/183
f 162/162/162 183/183/183 182/182/182
f 163/163/163 164/164/164 184/184/184
f 163/163/163 184/184/184 183/183/183
f 164/164/164 165/165/165 185/185/185
f 164/164/164 185/185/185 184/184/184
f 165/165/165 166/166/166 186/186/186
f 165/165/165 186/186/186 185/185/185
f 166/166/166 167/167/167 187/187/187
f 166/166/166 187/187/187 186/186/186
f 167/167/167 168/168/168 188/188/188
f 167/167/167 188/188/188 187/187/187
f 168/168/168 169/169/169 189/189/189
f 168/168/168 189/189/189 188/188/188
f 169/169/169 170/170/170 190/190/190
f 169/169/169 190/190/190 189/189/189
f 170/170/170 171/171/171 191/191/191
f 170/170/170 191/191/191 190/190/190
f 171/171/171 172/172/172 192/192/192
f 171/171/171 192/192/192 191/191/191
f 172/172/172 173/173/173 193/193/193
f 172/172/172 193/193/193 192/192/192
f 173/173/173 174/174/174 194/194/194
f 173/173/173 194/194/194 193/193/193
f 174/174/174 175/175/175 195/195/195
f 174/174/174 195/195/195 194/194/194
f 175/175/175 176/176/176 196/196/196
f 175/175/175 196/196/196 195/195/195
f 176/176/176 177/177/177 197/197/197
f 176/176/176 197/197/197 196/196/196
f 177/177/177 178/178/178 198/198/198
f 177/177/177 198/198/198 197/197/197
f 178/178/178 179/179/179 199/199/199
f 178/178/178 199/199/199 198/198/198
f 179/179/179 180/180/180 200/200/200
f 179/179/179 200/200/200 199/199/199
f 180/180/180 161/161/161 181/181/181
f 180/180/180 181/181/181 200/200/200
f 181/181/181 182/182/182 202/202/202
f 181/181/181 202/202/202 201/201/201
f 182/182/182 183/183/183 203/203/203
f 182/182/182 203/203/203 202/202/202
f 183/183/183 184/184/184 204/204/204
f 183/183/183 204/204/204 203/203/203
f 184/184/184 185/185/185 205/205/205
f 184/184/184 205/205/205 204/204/204
f 185/185/185 186/186/186 206/206/206
f 185/185/185 206/206/206 205/205/205
f 186/186/186 187/187/187 207/207/207
f 186/186/186 207/207/207 206/206/206
f 187/187/187 188/188/188 208/208/208
f 187/187/187 208/208/208 207/207/207
f 188/188/188 189/189/189 209/209/209
f 188/188/188 209/209/209 208/208/208
f 189/189/189 190/190/190 210/210/210
f 189/189/189 210/210/210 209/209/209
f 190/190/190 191/191/191 211/211/211
f 190/190/190 211/211/211 210/210/210
f 191/191/191 192/192/192 212/212/212
f 191/191/191 212/212/212 211/211/211
f 192/192/192 193/193/193 213/213/213
f 192/192/192 213/213/213 212/212/212
f 193/193/193 194/194/194 214/214/214
f 193/193/193 214/214/214 213/213/213
f 194/194/194 195/195/195 215/215/215
f 194/194/194 215/215/215 214/214/214
f 195/195/195 196/196/196 216/216/216
f 195/195/195 216/216/216 215/215/215
f 196/196/196 197/197/197 217/217/217
f 196/196/196 217/217/217 216/216/216
f 197/197/197 198/198/198 218/218/218
f 197/197/197 218/218/218 217/217/217
f 198/198/198 199/199/199 219/219/219
f 198/198/198 219/219/219 218/218/218
f 199/199/199 200/200/200 220/220/220
f 199/199/199 220/220/220 219/219/219
f 200/200/200 181/181/181 201/201/201
f 200/200/200 201/201/201 220/220/220
f 201/201/201 202/202/202 222/222/222
f 201/201/201 222/222/222 221/221/221
f 202/202/202 203/203/203 223/223/223
f 202/202/202 223/223/223 222/222/222
f 203/203/203 204/204/204 224/224/224
f 203/203/203 224/224/224 223/223/223
f 204/204/204 205/205/205 225/225/225
f 204/204/204 225/225/225 224/224/224
f 205/205/205 206/206/206 226/226/226
f 205/205/205 226/226/226 225/225/225
f 206/206/206 207/207/207 227/227/227
f 206/206/206 227/227/227 226/226/226
f 207/207/207 208/208/208 228/228/228
f 207/207/207 228/228/228 227/227/227
f 208/208/208 209/209/209 229/229/229
f 208/208/208 229/229/229 228/228/228
f 209/209/209 210/210/210 230/230/230
f 209/209/209 230/230/230 229/229/229
f 210/210/210 211/211/211 231/231/231
f 210/210/210 231/231/231 230/230/230
f 211/211/211 212/212/212 232/232/232
f 211/211/211 232/232/232 231/231/231
f 212/212/212 213/213/213 233/233/233
f 212/212/212 233/233/233 232/232/232
f 213/213/213 214/214/214 234/234/234
f 213/213/213 234/234/234 233/233/233
f 214/214/214 215/215/215 235/235/235
f 214/214/214 235/235/235 234/234/234
f 215/215/215 216/216/216 236/236/236
f 215/215/215 236/236/236 235/235/235
f 216/216/216 217/217/217 237/237/237
f 216/216/216 237/237/237 236/236/236
f 217/217/217 218/218/218 238/238/238
f 217/217/217 238/238/238 237/237/237
f 218/218/218 219/219/219 239/239/239
f 218/218/218 239/239/239 238/238/238
f 219/219/219 220/220/220 240/240/240
f 219/219/219 240/240/240 239/239/239
f 220/220/220 201/201/201 221/221/221
f 220/220/220 221/221/221 240/240/240
f 221/221/221 222/222/222 242/242/242
f 221/221/221 242/242/242 241/241/241
f 222/222/222 223/223/223 243/243/243
f 222/222/222 243/243/243 242/242/242
f 223/223/223 224/224/224 244/244/244
f 223/223/223 244/244/244 243/243/243
f 224/224/224 225/225/225 245/245/245
f 224/224/224 245/245/245 244/244/244
f 225/225/225 226/226/226 246/246/246
f 225/225/225 246/246/246 245/245/245
f 226/226/226 227/227/227 247/247/247
f 226/226/226 247/247/247 246/246/246
f 227/227/227 228/228/228 248/248/248
f 227/227/227 248/248/248 247/247/247
f 228/228/228 229/229/229 249/249/249
f 228/228/228 249/249/249 248/248/248
f 229/229/229 230/230/230 250/250/250
f 229/229/229 250/250/250 249/249/249
f 230/230/230 231/231/231 251/251/251
f 230/230/230 251/251/251 250/250/250
f 231/231/231 232/232/232 252/252/252
f 231/231/231 252/252/252 251/251/251
f 232/232/232 233/233/233 253/253/253
f 232/232/232 253/253/253 252/252/252
f 233/233/233 234/234/234 254/254/254
f 233/233/233 254/254/254 253/253/253
f 234/234/234 235/235/235 255/255/255
f 234/234/234 255/255/255 254/254/254
f 235/235/235 236/236/236 256/256/256
f 235/235/235 256/256/256 255/255/255
f 236/236/236 237/237/237 257/257/257
f 236/236/236 257/257/257 256/256/256
f 237/237/237 238/238/238 258/258/258
f 237/237/237 258/258/258 257/257/257
f 238/238/238 239/239/239 259/259/259
f 238/238/238 259/259/259 258/258/258
f 239/239/239 240/240/240 260/260/260
f 239/239/239 260/260/260 259/259/259
f 240/240/240 221/221/221 241/241/241
f 240/240/240 241/241/241 260/260/260
f 241/241/241 242/242/242 262/262/262
f 241/241/241 262/262/262 261/261/261
f 242/242/242 243/243/243 263/263/263
f 242/242/242 263/263/263 262/262/262
f 243/243/243 244/244/244 264/264/264
f 243/243/243 264/264/264 263/263/263
f 244/244/244 245/245/245 265/265/265
f 244/244/244 265/265/265 264/264/264
f 245/245/245 246/246/246 266/266/266
f 245/245/245 266/266/266 265/265/265
f 246/246/246 247/247/247 267/267/267
f 246/246/246 267/267/267 266/266/266
f 247/247/247 248/248/248 268/268/268
f 247/247/247 268/268/268 267/267/267
f 248/248/248 249/249/249 269/269/269
f 248/248/248 269/269/269 268/268/268
f 249/249/249 250/250/250 270/270/270
f 249/249/249 270/270/270 269/269/269
f 250/250/250 251/251/251 271/271/271
f 250/250/250 271/271/271 270/270/270
f 251/251/251 252/252/252 272/272/272
f 251/251/251 272/272/272 271/271/271
f 252/252/252 253/253/253 273/273/273
f 252/252/252 273/273/273 272/272/272
f 253/253/253 254/254/254 274/274/274
f 253/253/253 274/274/274 273/273/273
f 254/254/254 255/255/255 275/275/275
f 254/254/254 275/275/275 274/274/274
f 255/255/255 256/256/256 276/276/276
f 255/255/255 276/276/276 275/275/275
f 256/256/256 257/257/257 277/277/277
f 256/256/256 277/277/277 276/276/276
f 257/257/257 258/258/258 278/278/278
f 257/257/257 278/278/278 277/277/277
f 258/258/258 259/259/259 279/279/279
f 258/258/258 279/279/279 278/278/278
f 259/259/259 260/260/260 280/280/280
f 259/259/259 280/280/280 279/279/279
f 260/260/260 241/241/241 261/261/261
f 260/260/260 261/261/261 280/280/280
f 261/261/261 262/262/262 282/282/282
f 261/261/261 282/282/282 281/281/281
f 262/262/262 263/263/263 283/283/283
f 262/262/262 283/283/283 282/282/282
f 263/263/263 264/264/264 284/284/284
f 263/263/263 284/284/284 283/283/283
f 264/264/264 265/265/265 285/285/285
f 264/264/264 285/285/285 284/284/284
f 265/265/265 266/266/266 286/286/286
f 265/265/265 286/286/286 285/285/285
f 266/266/266 267/267/267 287/287/287
f 266/266/266 287/287/287 286/286/286
f 267/267/267 268/268/268 288/288/288
f 267/267/267 288/288/288 287/287/287
f 268/268/268 269/269/269 289/289/289
f 268/268/268 289/289/289 288/288/288
f 269/269/269 270/270/270 290/290/290
f 269/269/269 290/290/290 289/289/289
f 270/270/270 271/271/271 291/291/291
f 270/270/270 291/291/291 290/290/290
f 271/271/271 272/272/272 292/292/292
f 271/271/271 292/292/292 291/291/291
f 272/272/272 273/273/273 293/293/293
f 272/272/272 293/293/293 292/292/292
f 273/273/273 274/274/274 294/294/294
f 273/273/273 294/294/294 293/293/293
f 274/274/274 275/275/275 295/295/295
f 274/274/274 295/295/295 294/294/294
f 275/275/275 276/276/276 296/296/296
f 275/275/275 296/296/296 295/295/295
f 276/276/276 277/277/277 297/297/297
f 276/276/276 297/297/297 296/296/296
f 277/277/277 278/278/278 298/298/298
f 277/277/277 298/298/298 297/297/297
f 278/278/278 279/279/279 299/299/299
f 278/278/278 299/299/299 298/298/298
f 279/279/279 280/280/280 300/300/300
f 279/279/279 300/300/300 299/299/299
f 280/280/280 261/261/261 281/281/281
f 280/280/280 281/281/281 300/300/300
f 281/281/281 282/282/282 302/302/302
f 281/281/281 302/302/302 301/301/301
f 282/282/282 283/283/283 303/303/303
f 282/282/282 303/303/303 302/302/302
f 283/283/283 284/284/284 304/304/304
f 283/283/283 304/304/304 303/303/303
f 284/284/284 285/285/285 305/305/305
f 284/284/284 305/305/305 304/304/304
f 285/285/285 286/286/286 306/306/306
f 285/285/285 306/306/306 305/305/305
f 286/286/286 287/287/287 307/307/307
f 286/286/286 307/307/307 306/306/306
f 287/287/287 288/288/288 308/308/308
f 287/287/287 308/308/308 307/307/307
f 288/288/288 289/289/289 309/309/309
f 288/288/288 309/309/309 308/308/308
f 289/289/289 290/290/290 310/310/310
f 289/289/289 310/310/310 309/309/309
f 290/290/290 291/291/291 311/311/311
f 290/290/290 311/311/311 310/310/310
f 291/291/291 292/292/292 312/312/312
f 291/291/291 312/312/312 311/311/311
f 292/292/292 293/293/293 313/313/313
f 292/292/292 313/313/313 312/312/312
f 293/293/293 294/294/294 314/314/314
f 293/293/293 314/314/314 313/313/313
f 294/294/294 295/295/295 315/315/315
f 294/294/294 315/315/315 314/314/314
f 295/295/295 296/296/296 316/316/316
f 295/295/295 316/316/316 315/315/315
f 296/296/296 297/297/297 317/317/317
f 296/296/296 317/317/317 316/316/316
f 297/297/297 298/298/298 318/318/318
f 297/297/297 318/318/318 317/317/317
f 298/298/298 299/299/299 319/319/319
f 298/298/298 319/319/319 318/318/318
f 299/299/299 300/300/300 320/320/320
f 299/299/299 320/320/320 319/319/319
f 300/300/300 281/281/281 301/301/301
f 300/300/300 301/301/301 320/320/320
f 321/321/321 2/2/2 1/1/1
f 321/321/321 3/3/3 2/2/2
f 321/321/321 4/4/4 3/3/3
f 321/321/321 5/5/5 4/4/4
f 321/321/321 6/6/6 5/5/5
f 321/321/321 7/7/7 6/6/6
f 321/321/321 8/8/8 7/7/7
f 321/321/321 9/9/9 8/8/8
f 321/321/321 10/10/10 9/9/9
f 321/321/321 11/11/11 10/10/10
f 321/321/321 12/12/12 11/11/11
f 321/321/321 13/13/13 12/12/12
f 321/321/321 14/14/14 13/13/13
f 321/321/321 15/15/15 14/14/14
f 321/321/321 16/16/16 15/15/15
f 321/321/321 17/17/17 16/16/16
f 321/321/321 18/18/18 17/17/17
f 321/321/321 19/19/19 18/18/18
f 321/321/321 20/20/20 19/19/19
f 321/321/321 1/1/1 20/20/20
f 322/322/322 301/301/301 302/302/302
f 322/322/322 302/302/302 303/303/303
f 322/322/322 303/303/303 304/304/304
f 322/322/322 304/304/304 305/305/305
f 322/322/322 305/305/305 306/306/306
f 322/322/322 306/306/306 307/307/307
f 322/322/322 307/307/307 308/308/308
f 322/322/322 308/308/308 309/309/309
f 322/322/322 309/309/309 310/310/310
f 322/322/322 310/310/310 311/311/311
f 322/322/322 311/311/311 312/312/312
f 322/322/322 312/312/312 313/313/313
f 322/322/322 313/313/313 314/314/314
f 322/322/322 314/314/314 315/315/315
f 322/322/322 315/315/315 316/316/316
f 322/322/322 316/316/316 317/317/317
f 322/322/322 317/317/317 318/318/318
f 322/322/322 318/318/318 319/319/319
f 322/322/322 319/319/319 320/320/320
f 322/322/322 320/320/320 301/301/301
