# procedural placeholder mesh: farmer_leg
v 0.05000 0.06000 0.00000
v 0.04830 0.06000 0.01294
v 0.04330 0.06000 0.02500
v 0.03536 0.06000 0.03536
v 0.02500 0.06000 0.04330
v 0.01294 0.06000 0.04830
v 0.00000 0.06000 0.05000
v -0.01294 0.06000 0.04830
v -0.02500 0.06000 0.04330
v -0.03536 0.06000 0.03536
v -0.04330 0.06000 0.02500
v -0.04830 0.06000 0.01294
v -0.05000 0.06000 0.00000
v -0.04830 0.06000 -0.01294
v -0.04330 0.06000 -0.02500
v -0.03536 0.06000 -0.03536
v -0.02500 0.06000 -0.04330
v -0.01294 0.06000 -0.04830
v -0.00000 0.06000 -0.05000
v 0.01294 0.06000 -0.04830
v 0.02500 0.06000 -0.04330
v 0.03536 0.06000 -0.03536
v 0.04330 0.06000 -0.02500
v 0.04830 0.06000 -0.01294
v 0.06622 0.04784 0.00000
v 0.06396 0.04784 0.01758
v 0.05734 0.04784 0.03396
v 0.04682 0.04784 0.04803
v 0.03311 0.04784 0.05882
v 0.01714 0.04784 0.06561
v 0.00000 0.04784 0.06792
v -0.01714 0.04784 0.06561
v -0.03311 0.04784 0.05882
v -0.04682 0.04784 0.04803
v -0.05734 0.04784 0.03396
v -0.06396 0.04784 0.01758
v -0.06622 0.04784 0.00000
v -0.06396 0.04784 -0.01758
v -0.05734 0.04784 -0.03396
v -0.04682 0.04784 -0.04803
v -0.03311 0.04784 -0.05882
v -0.01714 0.04784 -0.06561
v -0.00000 0.04784 -0.06792
v 0.01714 0.04784 -0.06561
v 0.03311 0.04784 -0.05882
v 0.04682 0.04784 -0.04803
v 0.05734 0.04784 -0.03396
v 0.06396 0.04784 -0.01758
v 0.08203 0.03545 0.00000
v 0.07924 0.03545 0.02210
v 0.07104 0.03545 0.04270
v 0.05801 0.03545 0.06039
v 0.04102 0.03545 0.07396
v 0.02123 0.03545 0.08249
v 0.00000 0.03545 0.08540
v -0.02123 0.03545 0.08249
v -0.04102 0.03545 0.07396
v -0.05801 0.03545 0.06039
v -0.07104 0.03545 0.04270
v -0.07924 0.03545 0.02210
v -0.08203 0.03545 0.00000
v -0.07924 0.03545 -0.02210
v -0.07104 0.03545 -0.04270
v -0.05801 0.03545 -0.06039
v -0.04102 0.03545 -0.07396
v -0.02123 0.03545 -0.08249
v -0.00000 0.03545 -0.08540
v 0.02123 0.03545 -0.08249
v 0.04102 0.03545 -0.07396
v 0.05801 0.03545 -0.06039
v 0.07104 0.03545 -0.04270
v 0.07924 0.03545 -0.02210
v 0.08799 0.01704 0.00002
v 0.08499 0.01704 0.02383
v 0.07620 0.01704 0.04602
v 0.06222 0.01704 0.06507
v 0.04399 0.01704 0.07969
v 0.02277 0.01704 0.08888
v 0.00000 0.01704 0.09201
v -0.02277 0.01704 0.08888
v -0.04399 0.01704 0.07969
v -0.06222 0.01704 0.06507
v -0.07620 0.01704 0.04602
v -0.08499 0.01704 0.02383
v -0.08799 0.01704 0.00002
v -0.08499 0.01704 -0.02379
v -0.07620 0.01704 -0.04597
v -0.06222 0.01704 -0.06502
v -0.04399 0.01704 -0.07964
v -0.02277 0.01704 -0.08883
v -0.00000 0.01704 -0.09197
v 0.02277 0.01704 -0.08883
v 0.04399 0.01704 -0.07964
v 0.06222 0.01704 -0.06502
v 0.07620 0.01704 -0.04597
v 0.08499 0.01704 -0.02379
v 0.08724 -0.02188 0.00136
v 0.08427 -0.02188 0.02498
v 0.07555 -0.02188 0.04698
v 0.06169 -0.02188 0.06588
v 0.04362 -0.02188 0.08038
v 0.02258 -0.02188 0.08950
v 0.00000 -0.02188 0.09261
v -0.02258 -0.02188 0.08950
v -0.04362 -0.02188 0.08038
v -0.06169 -0.02188 0.06588
v -0.07555 -0.02188 0.04698
v -0.08427 -0.02188 0.02498
v -0.08724 -0.02188 0.00136
v -0.08427 -0.02188 -0.02226
v -0.07555 -0.02188 -0.04427
v -0.06169 -0.02188 -0.06317
v -0.04362 -0.02188 -0.07767
v -0.02258 -0.02188 -0.08678
v -0.00000 -0.02188 -0.08989
v 0.02258 -0.02188 -0.08678
v 0.04362 -0.02188 -0.07767
v 0.06169 -0.02188 -0.06317
v 0.07555 -0.02188 -0.04427
v 0.08427 -0.02188 -0.02226
v 0.08559 -0.07707 0.00333
v 0.08267 -0.07707 0.02652
v 0.07412 -0.07707 0.04813
v 0.06052 -0.07707 0.06669
v 0.04279 -0.07707 0.08093
v 0.02215 -0.07707 0.08988
v 0.00000 -0.07707 0.09293
v -0.02215 -0.07707 0.08988
v -0.04279 -0.07707 0.08093
v -0.06052 -0.07707 0.06669
v -0.07412 -0.07707 0.04813
v -0.08267 -0.07707 0.02652
v -0.08559 -0.07707 0.00333
v -0.08267 -0.07707 -0.01987
v -0.07412 -0.07707 -0.04148
v -0.06052 -0.07707 -0.06004
v -0.04279 -0.07707 -0.07428
v -0.02215 -0.07707 -0.08323
v -0.00000 -0.07707 -0.08628
v 0.02215 -0.07707 -0.08323
v 0.04279 -0.07707 -0.07428
v 0.06052 -0.07707 -0.06004
v 0.07412 -0.07707 -0.04148
v 0.08267 -0.07707 -0.01987
v 0.08327 -0.13427 0.00400
v 0.08043 -0.13427 0.02657
v 0.07211 -0.13427 0.04761
v 0.05888 -0.13427 0.06567
v 0.04163 -0.13427 0.07953
v 0.02155 -0.13427 0.08824
v 0.00000 -0.13427 0.09121
v -0.02155 -0.13427 0.08824
v -0.04163 -0.13427 0.07953
v -0.05888 -0.13427 0.06567
v -0.07211 -0.13427 0.04761
v -0.08043 -0.13427 0.02657
v -0.08327 -0.13427 0.00400
v -0.08043 -0.13427 -0.01857
v -0.07211 -0.13427 -0.03961
v -0.05888 -0.13427 -0.05767
v -0.04163 -0.13427 -0.07153
v -0.02155 -0.13427 -0.08024
v -0.00000 -0.13427 -0.08321
v 0.02155 -0.13427 -0.08024
v 0.04163 -0.13427 -0.07153
v 0.05888 -0.13427 -0.05767
v 0.07211 -0.13427 -0.03961
v 0.08043 -0.13427 -0.01857
v 0.07781 -0.19898 0.00400
v 0.07516 -0.19898 0.02494
v 0.06738 -0.19898 0.04446
v 0.05502 -0.19898 0.06122
v 0.03890 -0.19898 0.07408
v 0.02014 -0.19898 0.08216
v 0.00000 -0.19898 0.08492
v -0.02014 -0.19898 0.08216
v -0.03890 -0.19898 0.07408
v -0.05502 -0.19898 0.06122
v -0.06738 -0.19898 0.04446
v -0.07516 -0.19898 0.02494
v -0.07781 -0.19898 0.00400
v -0.07516 -0.19898 -0.01694
v -0.06738 -0.19898 -0.03646
v -0.05502 -0.19898 -0.05322
v -0.03890 -0.19898 -0.06608
v -0.02014 -0.19898 -0.07416
v -0.00000 -0.19898 -0.07692
v 0.02014 -0.19898 -0.07416
v 0.03890 -0.19898 -0.06608
v 0.05502 -0.19898 -0.05322
v 0.06738 -0.19898 -0.03646
v 0.07516 -0.19898 -0.01694
v 0.07112 -0.26483 0.00400
v 0.06870 -0.26483 0.02297
v 0.06159 -0.26483 0.04064
v 0.05029 -0.26483 0.05582
v 0.03556 -0.26483 0.06746
v 0.01841 -0.26483 0.07479
v 0.00000 -0.26483 0.07728
v -0.01841 -0.26483 0.07479
v -0.03556 -0.26483 0.06746
v -0.05029 -0.26483 0.05582
v -0.06159 -0.26483 0.04064
v -0.06870 -0.26483 0.02297
v -0.07112 -0.26483 0.00400
v -0.06870 -0.26483 -0.01497
v -0.06159 -0.26483 -0.03264
v -0.05029 -0.26483 -0.04782
v -0.03556 -0.26483 -0.05946
v -0.01841 -0.26483 -0.06679
v -0.00000 -0.26483 -0.06928
v 0.01841 -0.26483 -0.06679
v 0.03556 -0.26483 -0.05946
v 0.05029 -0.26483 -0.04782
v 0.06159 -0.26483 -0.03264
v 0.06870 -0.26483 -0.01497
v 0.06658 -0.31818 0.00388
v 0.06431 -0.31818 0.02166
v 0.05766 -0.31818 0.03822
v 0.04708 -0.31818 0.05245
v 0.03329 -0.31818 0.06336
v 0.01723 -0.31818 0.07022
v 0.00000 -0.31818 0.07256
v -0.01723 -0.31818 0.07022
v -0.03329 -0.31818 0.06336
v -0.04708 -0.31818 0.05245
v -0.05766 -0.31818 0.03822
v -0.06431 -0.31818 0.02166
v -0.06658 -0.31818 0.00388
v -0.06431 -0.31818 -0.01389
v -0.05766 -0.31818 -0.03046
v -0.04708 -0.31818 -0.04468
v -0.03329 -0.31818 -0.05559
v -0.01723 -0.31818 -0.06245
v -0.00000 -0.31818 -0.06480
v 0.01723 -0.31818 -0.06245
v 0.03329 -0.31818 -0.05559
v 0.04708 -0.31818 -0.04468
v 0.05766 -0.31818 -0.03046
v 0.06431 -0.31818 -0.01389
v 0.06287 -0.36182 0.00270
v 0.06073 -0.36182 0.01963
v 0.05445 -0.36182 0.03541
v 0.04446 -0.36182 0.04896
v 0.03144 -0.36182 0.05935
v 0.01627 -0.36182 0.06589
v 0.00000 -0.36182 0.06812
v -0.01627 -0.36182 0.06589
v -0.03144 -0.36182 0.05935
v -0.04446 -0.36182 0.04896
v -0.05445 -0.36182 0.03541
v -0.06073 -0.36182 0.01963
v -0.06287 -0.36182 0.00270
v -0.06073 -0.36182 -0.01423
v -0.05445 -0.36182 -0.03000
v -0.04446 -0.36182 -0.04355
v -0.03144 -0.36182 -0.05395
v -0.01627 -0.36182 -0.06048
v -0.00000 -0.36182 -0.06271
v 0.01627 -0.36182 -0.06048
v 0.03144 -0.36182 -0.05395
v 0.04446 -0.36182 -0.04355
v 0.05445 -0.36182 -0.03000
v 0.06073 -0.36182 -0.01423
v 0.06038 -0.40102 0.00089
v 0.05832 -0.40102 0.01728
v 0.05229 -0.40102 0.03255
v 0.04269 -0.40102 0.04566
v 0.03019 -0.40102 0.05572
v 0.01563 -0.40102 0.06204
v 0.00000 -0.40102 0.06420
v -0.01563 -0.40102 0.06204
v -0.03019 -0.40102 0.05572
v -0.04269 -0.40102 0.04566
v -0.05229 -0.40102 0.03255
v -0.05832 -0.40102 0.01728
v -0.06038 -0.40102 0.00089
v -0.05832 -0.40102 -0.01550
v -0.05229 -0.40102 -0.03076
v -0.04269 -0.40102 -0.04388
v -0.03019 -0.40102 -0.05394
v -0.01563 -0.40102 -0.06026
v -0.00000 -0.40102 -0.06242
v 0.01563 -0.40102 -0.06026
v 0.03019 -0.40102 -0.05394
v 0.04269 -0.40102 -0.04388
v 0.05229 -0.40102 -0.03076
v 0.05832 -0.40102 -0.01550
v 0.06032 -0.43789 -0.00105
v 0.05827 -0.43789 0.01536
v 0.05224 -0.43789 0.03065
v 0.04265 -0.43789 0.04378
v 0.03016 -0.43789 0.05386
v 0.01561 -0.43789 0.06019
v 0.00000 -0.43789 0.06235
v -0.01561 -0.43789 0.06019
v -0.03016 -0.43789 0.05386
v -0.04265 -0.43789 0.04378
v -0.05224 -0.43789 0.03065
v -0.05827 -0.43789 0.01536
v -0.06032 -0.43789 -0.00105
v -0.05827 -0.43789 -0.01746
v -0.05224 -0.43789 -0.03275
v -0.04265 -0.43789 -0.04588
v -0.03016 -0.43789 -0.05596
v -0.01561 -0.43789 -0.06229
v -0.00000 -0.43789 -0.06445
v 0.01561 -0.43789 -0.06229
v 0.03016 -0.43789 -0.05596
v 0.04265 -0.43789 -0.04588
v 0.05224 -0.43789 -0.03275
v 0.05827 -0.43789 -0.01746
v 0.06213 -0.47025 -0.00377
v 0.06001 -0.47025 0.01323
v 0.05381 -0.47025 0.02906
v 0.04393 -0.47025 0.04266
v 0.03107 -0.47025 0.05310
v 0.01608 -0.47025 0.05966
v 0.00000 -0.47025 0.06189
v -0.01608 -0.47025 0.05966
v -0.03107 -0.47025 0.05310
v -0.04393 -0.47025 0.04266
v -0.05381 -0.47025 0.02906
v -0.06001 -0.47025 0.01323
v -0.06213 -0.47025 -0.00377
v -0.06001 -0.47025 -0.02076
v -0.05381 -0.47025 -0.03660
v -0.04393 -0.47025 -0.05020
v -0.03107 -0.47025 -0.06063
v -0.01608 -0.47025 -0.06719
v -0.00000 -0.47025 -0.06943
v 0.01608 -0.47025 -0.06719
v 0.03107 -0.47025 -0.06063
v 0.04393 -0.47025 -0.05020
v 0.05381 -0.47025 -0.03660
v 0.06001 -0.47025 -0.02076
v 0.06381 -0.50481 -0.00579
v 0.06164 -0.50481 0.01175
v 0.05526 -0.50481 0.02809
v 0.04512 -0.50481 0.04213
v 0.03191 -0.50481 0.05290
v 0.01652 -0.50481 0.05967
v 0.00000 -0.50481 0.06198
v -0.01652 -0.50481 0.05967
v -0.03191 -0.50481 0.05290
v -0.04512 -0.50481 0.04213
v -0.05526 -0.50481 0.02809
v -0.06164 -0.50481 0.01175
v -0.06381 -0.50481 -0.00579
v -0.06164 -0.50481 -0.02333
v -0.05526 -0.50481 -0.03967
v -0.04512 -0.50481 -0.05371
v -0.03191 -0.50481 -0.06448
v -0.01652 -0.50481 -0.07125
v -0.00000 -0.50481 -0.07356
v 0.01652 -0.50481 -0.07125
v 0.03191 -0.50481 -0.06448
v 0.04512 -0.50481 -0.05371
v 0.05526 -0.50481 -0.03967
v 0.06164 -0.50481 -0.02333
v 0.06291 -0.55184 -0.00527
v 0.06077 -0.55184 0.01198
v 0.05448 -0.55184 0.02806
v 0.04448 -0.55184 0.04187
v 0.03146 -0.55184 0.05247
v 0.01628 -0.55184 0.05913
v 0.00000 -0.55184 0.06140
v -0.01628 -0.55184 0.05913
v -0.03146 -0.55184 0.05247
v -0.04448 -0.55184 0.04187
v -0.05448 -0.55184 0.02806
v -0.06077 -0.55184 0.01198
v -0.06291 -0.55184 -0.00527
v -0.06077 -0.55184 -0.02253
v -0.05448 -0.55184 -0.03861
v -0.04448 -0.55184 -0.05242
v -0.03146 -0.55184 -0.06301
v -0.01628 -0.55184 -0.06967
v -0.00000 -0.55184 -0.07194
v 0.01628 -0.55184 -0.06967
v 0.03146 -0.55184 -0.06301
v 0.04448 -0.55184 -0.05242
v 0.05448 -0.55184 -0.03861
v 0.06077 -0.55184 -0.02253
v 0.05849 -0.61390 -0.00242
v 0.05650 -0.61390 0.01345
v 0.05065 -0.61390 0.02824
v 0.04136 -0.61390 0.04094
v 0.02925 -0.61390 0.05068
v 0.01514 -0.61390 0.05680
v 0.00000 -0.61390 0.05889
v -0.01514 -0.61390 0.05680
v -0.02925 -0.61390 0.05068
v -0.04136 -0.61390 0.04094
v -0.05065 -0.61390 0.02824
v -0.05650 -0.61390 0.01345
v -0.05849 -0.61390 -0.00242
v -0.05650 -0.61390 -0.01828
v -0.05065 -0.61390 -0.03307
v -0.04136 -0.61390 -0.04577
v -0.02925 -0.61390 -0.05551
v -0.01514 -0.61390 -0.06164
v -0.00000 -0.61390 -0.06373
v 0.01514 -0.61390 -0.06164
v 0.02925 -0.61390 -0.05551
v 0.04136 -0.61390 -0.04577
v 0.05065 -0.61390 -0.03307
v 0.05650 -0.61390 -0.01828
v 0.05446 -0.66970 -0.00013
v 0.05260 -0.66970 0.01450
v 0.04716 -0.66970 0.02812
v 0.03851 -0.66970 0.03983
v 0.02723 -0.66970 0.04881
v 0.01409 -0.66970 0.05445
v 0.00000 -0.66970 0.05638
v -0.01409 -0.66970 0.05445
v -0.02723 -0.66970 0.04881
v -0.03851 -0.66970 0.03983
v -0.04716 -0.66970 0.02812
v -0.05260 -0.66970 0.01450
v -0.05446 -0.66970 -0.00013
v -0.05260 -0.66970 -0.01475
v -0.04716 -0.66970 -0.02838
v -0.03851 -0.66970 -0.04008
v -0.02723 -0.66970 -0.04906
v -0.01409 -0.66970 -0.05471
v -0.00000 -0.66970 -0.05663
v 0.01409 -0.66970 -0.05471
v 0.02723 -0.66970 -0.04906
v 0.03851 -0.66970 -0.04008
v 0.04716 -0.66970 -0.02838
v 0.05260 -0.66970 -0.01475
v 0.05337 -0.70650 0.00000
v 0.05155 -0.70650 0.01433
v 0.04622 -0.70650 0.02768
v 0.03774 -0.70650 0.03915
v 0.02669 -0.70650 0.04794
v 0.01381 -0.70650 0.05347
v 0.00000 -0.70650 0.05536
v -0.01381 -0.70650 0.05347
v -0.02669 -0.70650 0.04794
v -0.03774 -0.70650 0.03915
v -0.04622 -0.70650 0.02768
v -0.05155 -0.70650 0.01433
v -0.05337 -0.70650 0.00000
v -0.05155 -0.70650 -0.01433
v -0.04622 -0.70650 -0.02768
v -0.03774 -0.70650 -0.03915
v -0.02669 -0.70650 -0.04794
v -0.01381 -0.70650 -0.05347
v -0.00000 -0.70650 -0.05536
v 0.01381 -0.70650 -0.05347
v 0.02669 -0.70650 -0.04794
v 0.03774 -0.70650 -0.03915
v 0.04622 -0.70650 -0.02768
v 0.05155 -0.70650 -0.01433
v 0.05290 -0.73645 0.00000
v 0.05110 -0.73645 0.01421
v 0.04581 -0.73645 0.02745
v 0.03741 -0.73645 0.03882
v 0.02645 -0.73645 0.04754
v 0.01369 -0.73645 0.05302
v 0.00000 -0.73645 0.05489
v -0.01369 -0.73645 0.05302
v -0.02645 -0.73645 0.04754
v -0.03741 -0.73645 0.03882
v -0.04581 -0.73645 0.02745
v -0.05110 -0.73645 0.01421
v -0.05290 -0.73645 0.00000
v -0.05110 -0.73645 -0.01421
v -0.04581 -0.73645 -0.02745
v -0.03741 -0.73645 -0.03882
v -0.02645 -0.73645 -0.04754
v -0.01369 -0.73645 -0.05302
v -0.00000 -0.73645 -0.05489
v 0.01369 -0.73645 -0.05302
v 0.02645 -0.73645 -0.04754
v 0.03741 -0.73645 -0.03882
v 0.04581 -0.73645 -0.02745
v 0.05110 -0.73645 -0.01421
v 0.05215 -0.75802 0.00000
v 0.05037 -0.75802 0.01402
v 0.04516 -0.75802 0.02708
v 0.03688 -0.75802 0.03829
v 0.02608 -0.75802 0.04690
v 0.01350 -0.75802 0.05231
v 0.00000 -0.75802 0.05415
v -0.01350 -0.75802 0.05231
v -0.02608 -0.75802 0.04690
v -0.03688 -0.75802 0.03829
v -0.04516 -0.75802 0.02708
v -0.05037 -0.75802 0.01402
v -0.05215 -0.75802 0.00000
v -0.05037 -0.75802 -0.01402
v -0.04516 -0.75802 -0.02708
v -0.03688 -0.75802 -0.03829
v -0.02608 -0.75802 -0.04690
v -0.01350 -0.75802 -0.05231
v -0.00000 -0.75802 -0.05415
v 0.01350 -0.75802 -0.05231
v 0.02608 -0.75802 -0.04690
v 0.03688 -0.75802 -0.03829
v 0.04516 -0.75802 -0.02708
v 0.05037 -0.75802 -0.01402
v 0.04800 -0.77114 0.00000
v 0.04637 -0.77114 0.01286
v 0.04157 -0.77114 0.02484
v 0.03394 -0.77114 0.03513
v 0.02400 -0.77114 0.04303
v 0.01242 -0.77114 0.04799
v 0.00000 -0.77114 0.04969
v -0.01242 -0.77114 0.04799
v -0.02400 -0.77114 0.04303
v -0.03394 -0.77114 0.03513
v -0.04157 -0.77114 0.02484
v -0.04637 -0.77114 0.01286
v -0.04800 -0.77114 0.00000
v -0.04637 -0.77114 -0.01286
v -0.04157 -0.77114 -0.02484
v -0.03394 -0.77114 -0.03513
v -0.02400 -0.77114 -0.04303
v -0.01242 -0.77114 -0.04799
v -0.00000 -0.77114 -0.04969
v 0.01242 -0.77114 -0.04799
v 0.02400 -0.77114 -0.04303
v 0.03394 -0.77114 -0.03513
v 0.04157 -0.77114 -0.02484
v 0.04637 -0.77114 -0.01286
v 0.03910 -0.78064 0.00000
v 0.03777 -0.78064 0.01034
v 0.03386 -0.78064 0.01998
v 0.02765 -0.78064 0.02825
v 0.01955 -0.78064 0.03460
v 0.01012 -0.78064 0.03859
v 0.00000 -0.78064 0.03995
v -0.01012 -0.78064 0.03859
v -0.01955 -0.78064 0.03460
v -0.02765 -0.78064 0.02825
v -0.03386 -0.78064 0.01998
v -0.03777 -0.78064 0.01034
v -0.03910 -0.78064 0.00000
v -0.03777 -0.78064 -0.01034
v -0.03386 -0.78064 -0.01998
v -0.02765 -0.78064 -0.02825
v -0.01955 -0.78064 -0.03460
v -0.01012 -0.78064 -0.03859
v -0.00000 -0.78064 -0.03995
v 0.01012 -0.78064 -0.03859
v 0.01955 -0.78064 -0.03460
v 0.02765 -0.78064 -0.02825
v 0.03386 -0.78064 -0.01998
v 0.03777 -0.78064 -0.01034
v 0.03000 -0.79000 0.00000
v 0.02898 -0.79000 0.00776
v 0.02598 -0.79000 0.01500
v 0.02121 -0.79000 0.02121
v 0.01500 -0.79000 0.02598
v 0.00776 -0.79000 0.02898
v 0.00000 -0.79000 0.03000
v -0.00776 -0.79000 0.02898
v -0.01500 -0.79000 0.02598
v -0.02121 -0.79000 0.02121
v -0.02598 -0.79000 0.01500
v -0.02898 -0.79000 0.00776
v -0.03000 -0.79000 0.00000
v -0.02898 -0.79000 -0.00776
v -0.02598 -0.79000 -0.01500
v -0.02121 -0.79000 -0.02121
v -0.01500 -0.79000 -0.02598
v -0.00776 -0.79000 -0.02898
v -0.00000 -0.79000 -0.03000
v 0.00776 -0.79000 -0.02898
v 0.01500 -0.79000 -0.02598
v 0.02121 -0.79000 -0.02121
v 0.02598 -0.79000 -0.01500
v 0.02898 -0.79000 -0.00776
v 0.00000 0.06000 0.00000
v 0.00000 -0.79000 0.00000
vn 0.2555 0.9667 0.0133
vn 0.2426 0.9670 0.0780
vn 0.2125 0.9675 0.1367
vn 0.1682 0.9682 0.1851
vn 0.1133 0.9688 0.2204
vn 0.0515 0.9692 0.2408
vn -0.0132 0.9693 0.2456
vn -0.0772 0.9690 0.2346
vn -0.1367 0.9685 0.2081
vn -0.1879 0.9678 0.1673
vn -0.2268 0.9672 0.1143
vn -0.2501 0.9668 0.0526
vn -0.2555 0.9667 -0.0133
vn -0.2426 0.9670 -0.0780
vn -0.2125 0.9675 -0.1367
vn -0.1682 0.9682 -0.1851
vn -0.1133 0.9688 -0.2204
vn -0.0515 0.9692 -0.2408
vn 0.0132 0.9693 -0.2456
vn 0.0772 0.9690 -0.2346
vn 0.1367 0.9685 -0.2081
vn 0.1879 0.9678 -0.1673
vn 0.2268 0.9672 -0.1143
vn 0.2501 0.9668 -0.0526
vn 0.6087 0.7933 0.0065
vn 0.5847 0.7954 0.1595
vn 0.5187 0.8008 0.2996
vn 0.4173 0.8078 0.4163
vn 0.2897 0.8146 0.5025
vn 0.1453 0.8194 0.5546
vn -0.0069 0.8210 0.5709
vn -0.1587 0.8192 0.5512
vn -0.3017 0.8143 0.4959
vn -0.4271 0.8075 0.4069
vn -0.5256 0.8005 0.2882
vn -0.5883 0.7952 0.1469
vn -0.6087 0.7933 -0.0065
vn -0.5847 0.7954 -0.1595
vn -0.5187 0.8008 -0.2996
vn -0.4173 0.8078 -0.4163
vn -0.2897 0.8146 -0.5025
vn -0.1453 0.8194 -0.5546
vn 0.0069 0.8210 -0.5709
vn 0.1587 0.8192 -0.5512
vn 0.3017 0.8143 -0.4959
vn 0.4271 0.8075 -0.4069
vn 0.5256 0.8005 -0.2882
vn 0.5883 0.7952 -0.1469
vn 0.8247 0.5655 0.0111
vn 0.7942 0.5679 0.2161
vn 0.7098 0.5750 0.4069
vn 0.5768 0.5847 0.5704
vn 0.4040 0.5945 0.6953
vn 0.2030 0.6017 0.7725
vn -0.0119 0.6045 0.7965
vn -0.2258 0.6021 0.7658
vn -0.4238 0.5952 0.6828
vn -0.5924 0.5855 0.5534
vn -0.7204 0.5757 0.3868
vn -0.7995 0.5684 0.1944
vn -0.8247 0.5654 -0.0111
vn -0.7944 0.5677 -0.2161
vn -0.7101 0.5746 -0.4070
vn -0.5771 0.5841 -0.5707
vn -0.4042 0.5938 -0.6957
vn -0.2032 0.6010 -0.7730
vn 0.0119 0.6037 -0.7971
vn 0.2259 0.6014 -0.7664
vn 0.4240 0.5945 -0.6832
vn 0.5926 0.5850 -0.5537
vn 0.7206 0.5753 -0.3870
vn 0.7996 0.5682 -0.1944
vn 0.9958 0.0899 0.0158
vn 0.9601 0.0963 0.2625
vn 0.8627 0.1035 0.4950
vn 0.7066 0.1109 0.6989
vn 0.4986 0.1173 0.8589
vn 0.2511 0.1217 0.9603
vn -0.0172 0.1232 0.9922
vn -0.2841 0.1214 0.9511
vn -0.5275 0.1168 0.8415
vn -0.7294 0.1100 0.6751
vn -0.8784 0.1023 0.4668
vn -0.9681 0.0947 0.2318
vn -0.9960 0.0880 -0.0158
vn -0.9613 0.0827 -0.2628
vn -0.8647 0.0791 -0.4961
vn -0.7089 0.0770 -0.7011
vn -0.5006 0.0761 -0.8623
vn -0.2523 0.0760 -0.9647
vn 0.0173 0.0762 -0.9969
vn 0.2854 0.0768 -0.9553
vn 0.5295 0.0775 -0.8448
vn 0.7316 0.0789 -0.6772
vn 0.8801 0.0812 -0.4678
vn 0.9690 0.0848 -0.2320
vn 0.9997 -0.0252 0.0067
vn 0.9669 -0.0165 0.2546
vn 0.8722 -0.0082 0.4891
vn 0.7180 -0.0009 0.6960
vn 0.5109 0.0049 0.8597
vn 0.2629 0.0086 0.9648
vn -0.0073 0.0098 0.9999
vn -0.2769 0.0084 0.9609
vn -0.5231 0.0045 0.8523
vn -0.7277 -0.0014 0.6859
vn -0.8788 -0.0087 0.4772
vn -0.9702 -0.0170 0.2416
vn -0.9996 -0.0257 -0.0067
vn -0.9665 -0.0344 -0.2545
vn -0.8714 -0.0426 -0.4887
vn -0.7171 -0.0498 -0.6952
vn -0.5101 -0.0554 -0.8583
vn -0.2624 -0.0591 -0.9631
vn 0.0073 -0.0603 -0.9982
vn 0.2764 -0.0589 -0.9592
vn 0.5223 -0.0552 -0.8510
vn 0.7268 -0.0494 -0.6851
vn 0.8780 -0.0421 -0.4768
vn 0.9698 -0.0339 -0.2415
vn 0.9994 -0.0358 -0.0002
vn 0.9684 -0.0300 0.2476
vn 0.8755 -0.0245 0.4826
vn 0.7231 -0.0197 0.6904
vn 0.5174 -0.0158 0.8556
vn 0.2703 -0.0133 0.9627
vn 0.0002 -0.0123 0.9999
vn -0.2698 -0.0130 0.9628
vn -0.5170 -0.0153 0.8558
vn -0.7228 -0.0189 0.6908
vn -0.8753 -0.0236 0.4830
vn -0.9683 -0.0289 0.2481
vn -0.9994 -0.0348 0.0002
vn -0.9680 -0.0407 -0.2475
vn -0.8748 -0.0464 -0.4822
vn -0.7223 -0.0515 -0.6897
vn -0.5167 -0.0556 -0.8544
vn -0.2698 -0.0584 -0.9611
vn -0.0002 -0.0594 -0.9982
vn 0.2694 -0.0586 -0.9612
vn 0.5163 -0.0561 -0.8546
vn 0.7220 -0.0521 -0.6900
vn 0.8746 -0.0472 -0.4826
vn 0.9679 -0.0416 -0.2480
vn 0.9980 -0.0636 0.0006
vn 0.9667 -0.0628 0.2482
vn 0.8735 -0.0629 0.4827
vn 0.7210 -0.0635 0.6900
vn 0.5155 -0.0643 0.8545
vn 0.2688 -0.0649 0.9610
vn -0.0005 -0.0650 0.9979
vn -0.2698 -0.0645 0.9608
vn -0.5164 -0.0635 0.8540
vn -0.7218 -0.0625 0.6893
vn -0.8741 -0.0619 0.4818
vn -0.9670 -0.0621 0.2471
vn -0.9980 -0.0631 -0.0006
vn -0.9665 -0.0651 -0.2482
vn -0.8732 -0.0679 -0.4826
vn -0.7207 -0.0709 -0.6897
vn -0.5151 -0.0737 -0.8539
vn -0.2686 -0.0756 -0.9603
vn 0.0005 -0.0762 -0.9971
vn 0.2696 -0.0754 -0.9600
vn 0.5160 -0.0734 -0.8534
vn 0.7214 -0.0706 -0.6889
vn 0.8738 -0.0678 -0.4816
vn 0.9668 -0.0653 -0.2471
vn 0.9957 -0.0925 -0.0029
vn 0.9649 -0.0933 0.2456
vn 0.8717 -0.0957 0.4805
vn 0.7195 -0.0990 0.6875
vn 0.5149 -0.1023 0.8511
vn 0.2703 -0.1048 0.9571
vn 0.0035 -0.1057 0.9944
vn -0.2636 -0.1048 0.9589
vn -0.5091 -0.1023 0.8546
vn -0.7150 -0.0990 0.6921
vn -0.8688 -0.0957 0.4859
vn -0.9634 -0.0933 0.2513
vn -0.9957 -0.0925 0.0029
vn -0.9649 -0.0933 -0.2456
vn -0.8717 -0.0957 -0.4805
vn -0.7195 -0.0990 -0.6875
vn -0.5149 -0.1023 -0.8511
vn -0.2703 -0.1048 -0.9571
vn -0.0035 -0.1057 -0.9944
vn 0.2636 -0.1048 -0.9589
vn 0.5091 -0.1023 -0.8546
vn 0.7150 -0.0990 -0.6921
vn 0.8688 -0.0957 -0.4859
vn 0.9634 -0.0933 -0.2513
vn 0.9955 -0.0941 -0.0078
vn 0.9655 -0.0947 0.2425
vn 0.8726 -0.0962 0.4789
vn 0.7205 -0.0984 0.6865
vn 0.5165 -0.1007 0.8503
vn 0.2734 -0.1025 0.9564
vn 0.0085 -0.1034 0.9946
vn -0.2571 -0.1030 0.9609
vn -0.5022 -0.1015 0.8588
vn -0.7091 -0.0993 0.6981
vn -0.8648 -0.0969 0.4927
vn -0.9616 -0.0951 0.2576
vn -0.9955 -0.0941 0.0078
vn -0.9656 -0.0941 -0.2425
vn -0.8727 -0.0952 -0.4789
vn -0.7205 -0.0971 -0.6866
vn -0.5166 -0.0991 -0.8505
vn -0.2734 -0.1007 -0.9566
vn -0.0085 -0.1015 -0.9948
vn 0.2571 -0.1012 -0.9611
vn 0.5023 -0.0999 -0.8589
vn 0.7092 -0.0980 -0.6982
vn 0.8649 -0.0961 -0.4927
vn 0.9616 -0.0947 -0.2576
vn 0.9963 -0.0851 -0.0069
vn 0.9659 -0.0880 0.2435
vn 0.8726 -0.0902 0.4800
vn 0.7202 -0.0919 0.6877
vn 0.5159 -0.0930 0.8516
vn 0.2723 -0.0937 0.9576
vn 0.0071 -0.0940 0.9955
vn -0.2587 -0.0938 0.9614
vn -0.5038 -0.0932 0.8588
vn -0.7104 -0.0919 0.6977
vn -0.8659 -0.0900 0.4921
vn -0.9625 -0.0875 0.2569
vn -0.9964 -0.0843 0.0069
vn -0.9665 -0.0806 -0.2437
vn -0.8736 -0.0768 -0.4805
vn -0.7213 -0.0732 -0.6888
vn -0.5169 -0.0703 -0.8532
vn -0.2729 -0.0685 -0.9596
vn -0.0071 -0.0680 -0.9977
vn 0.2592 -0.0690 -0.9634
vn 0.5047 -0.0713 -0.8603
vn 0.7115 -0.0745 -0.6987
vn 0.8668 -0.0781 -0.4926
vn 0.9630 -0.0818 -0.2570
vn 0.9972 -0.0749 -0.0043
vn 0.9661 -0.0832 0.2444
vn 0.8729 -0.0899 0.4796
vn 0.7206 -0.0948 0.6869
vn 0.5160 -0.0982 0.8509
vn 0.2712 -0.1001 0.9573
vn 0.0043 -0.1006 0.9949
vn -0.2630 -0.0999 0.9596
vn -0.5086 -0.0978 0.8554
vn -0.7146 -0.0943 0.6931
vn -0.8687 -0.0893 0.4872
vn -0.9640 -0.0826 0.2528
vn -0.9972 -0.0744 0.0043
vn -0.9674 -0.0649 -0.2448
vn -0.8751 -0.0548 -0.4808
vn -0.7231 -0.0450 -0.6893
vn -0.5181 -0.0367 -0.8545
vn -0.2725 -0.0311 -0.9617
vn -0.0043 -0.0291 -0.9996
vn 0.2642 -0.0312 -0.9640
vn 0.5107 -0.0368 -0.8589
vn 0.7171 -0.0452 -0.6955
vn 0.8709 -0.0551 -0.4884
vn 0.9652 -0.0653 -0.2531
vn 0.9994 -0.0336 -0.0022
vn 0.9683 -0.0455 0.2454
vn 0.8755 -0.0560 0.4800
vn 0.7233 -0.0645 0.6875
vn 0.5181 -0.0708 0.8524
vn 0.2716 -0.0747 0.9595
vn 0.0021 -0.0759 0.9971
vn -0.2674 -0.0744 0.9607
vn -0.5144 -0.0703 0.8547
vn -0.7204 -0.0639 0.6907
vn -0.8734 -0.0554 0.4838
vn -0.9673 -0.0452 0.2497
vn -0.9994 -0.0336 0.0022
vn -0.9691 -0.0211 -0.2456
vn -0.8768 -0.0084 -0.4808
vn -0.7248 0.0035 -0.6889
vn -0.5193 0.0134 -0.8545
vn -0.2723 0.0201 -0.9620
vn -0.0022 0.0225 -0.9997
vn 0.2681 0.0204 -0.9632
vn 0.5156 0.0139 -0.8567
vn 0.7218 0.0041 -0.6921
vn 0.8747 -0.0079 -0.4846
vn 0.9681 -0.0208 -0.2499
vn 0.9997 0.0251 -0.0021
vn 0.9695 0.0091 0.2448
vn 0.8776 -0.0051 0.4794
vn 0.7260 -0.0169 0.6875
vn 0.5206 -0.0258 0.8534
vn 0.2732 -0.0314 0.9615
vn 0.0022 -0.0333 0.9994
vn -0.2690 -0.0313 0.9626
vn -0.5169 -0.0256 0.8556
vn -0.7231 -0.0165 0.6906
vn -0.8755 -0.0045 0.4832
vn -0.9685 0.0099 0.2490
vn -0.9997 0.0261 0.0021
vn -0.9687 0.0433 -0.2446
vn -0.8760 0.0606 -0.4785
vn -0.7240 0.0765 -0.6855
vn -0.5187 0.0895 -0.8502
vn -0.2720 0.0981 -0.9573
vn -0.0022 0.1009 -0.9949
vn 0.2678 0.0976 -0.9585
vn 0.5151 0.0887 -0.8526
vn 0.7211 0.0754 -0.6887
vn 0.8740 0.0593 -0.4823
vn 0.9676 0.0422 -0.2488
vn 0.9986 0.0525 0.0025
vn 0.9681 0.0360 0.2481
vn 0.8761 0.0217 0.4816
vn 0.7244 0.0101 0.6893
vn 0.5184 0.0015 0.8552
vn 0.2696 -0.0038 0.9630
vn -0.0031 -0.0056 1.0000
vn -0.2754 -0.0040 0.9613
vn -0.5234 0.0012 0.8521
vn -0.7282 0.0096 0.6852
vn -0.8787 0.0211 0.4770
vn -0.9694 0.0353 0.2431
vn -0.9987 0.0518 -0.0025
vn -0.9663 0.0699 -0.2476
vn -0.8729 0.0886 -0.4799
vn -0.7204 0.1062 -0.6854
vn -0.5146 0.1210 -0.8489
vn -0.2672 0.1310 -0.9547
vn 0.0030 0.1346 -0.9909
vn 0.2730 0.1312 -0.9530
vn 0.5195 0.1214 -0.8458
vn 0.7241 0.1067 -0.6814
vn 0.8754 0.0892 -0.4752
vn 0.9675 0.0706 -0.2427
vn 0.9999 0.0108 0.0065
vn 0.9679 0.0062 0.2512
vn 0.8751 0.0022 0.4839
vn 0.7229 -0.0012 0.6909
vn 0.5162 -0.0038 0.8565
vn 0.2664 -0.0054 0.9638
vn -0.0073 -0.0061 1.0000
vn -0.2804 -0.0058 0.9599
vn -0.5283 -0.0045 0.8490
vn -0.7324 -0.0023 0.6809
vn -0.8815 0.0006 0.4722
vn -0.9711 0.0041 0.2385
vn -0.9999 0.0082 -0.0065
vn -0.9678 0.0128 -0.2512
vn -0.8750 0.0175 -0.4838
vn -0.7227 0.0222 -0.6908
vn -0.5160 0.0262 -0.8562
vn -0.2663 0.0292 -0.9634
vn 0.0073 0.0306 -0.9995
vn 0.2803 0.0302 -0.9594
vn 0.5281 0.0281 -0.8487
vn 0.7321 0.0247 -0.6807
vn 0.8813 0.0203 -0.4721
vn 0.9710 0.0156 -0.2385
vn 0.9989 -0.0476 0.0038
vn 0.9676 -0.0409 0.2490
vn 0.8754 -0.0357 0.4821
vn 0.7237 -0.0320 0.6894
vn 0.5177 -0.0296 0.8551
vn 0.2688 -0.0283 0.9628
vn -0.0040 -0.0280 0.9996
vn -0.2765 -0.0285 0.9606
vn -0.5244 -0.0299 0.8509
vn -0.7291 -0.0326 0.6837
vn -0.8791 -0.0366 0.4753
vn -0.9695 -0.0422 0.2415
vn -0.9988 -0.0492 -0.0038
vn -0.9668 -0.0575 -0.2488
vn -0.8740 -0.0664 -0.4813
vn -0.7220 -0.0752 -0.6878
vn -0.5161 -0.0826 -0.8525
vn -0.2679 -0.0875 -0.9595
vn 0.0040 -0.0890 -0.9960
vn 0.2755 -0.0868 -0.9574
vn 0.5229 -0.0812 -0.8485
vn 0.7275 -0.0734 -0.6822
vn 0.8778 -0.0645 -0.4746
vn 0.9688 -0.0556 -0.2414
vn 0.9974 -0.0720 -0.0052
vn 0.9683 -0.0621 0.2419
vn 0.8774 -0.0543 0.4767
vn 0.7268 -0.0487 0.6851
vn 0.5225 -0.0451 0.8514
vn 0.2762 -0.0431 0.9601
vn 0.0062 -0.0424 0.9991
vn -0.2644 -0.0430 0.9635
vn -0.5123 -0.0449 0.8576
vn -0.7189 -0.0484 0.6934
vn -0.8721 -0.0539 0.4863
vn -0.9657 -0.0616 0.2522
vn -0.9974 -0.0713 0.0052
vn -0.9668 -0.0829 -0.2416
vn -0.8747 -0.0955 -0.4753
vn -0.7234 -0.1079 -0.6819
vn -0.5194 -0.1187 -0.8463
vn -0.2743 -0.1260 -0.9534
vn -0.0062 -0.1288 -0.9917
vn 0.2625 -0.1264 -0.9566
vn 0.5092 -0.1193 -0.8524
vn 0.7155 -0.1087 -0.6901
vn 0.8693 -0.0963 -0.4848
vn 0.9642 -0.0837 -0.2518
vn 0.9983 -0.0567 -0.0107
vn 0.9698 -0.0504 0.2387
vn 0.8787 -0.0455 0.4753
vn 0.7279 -0.0421 0.6844
vn 0.5242 -0.0398 0.8507
vn 0.2795 -0.0386 0.9594
vn 0.0119 -0.0382 0.9992
vn -0.2568 -0.0385 0.9657
vn -0.5043 -0.0395 0.8626
vn -0.7123 -0.0414 0.7007
vn -0.8680 -0.0444 0.4945
vn -0.9645 -0.0488 0.2597
vn -0.9985 -0.0546 0.0107
vn -0.9692 -0.0615 -0.2386
vn -0.8775 -0.0692 -0.4746
vn -0.7264 -0.0769 -0.6830
vn -0.5228 -0.0837 -0.8484
vn -0.2787 -0.0885 -0.9563
vn -0.0118 -0.0906 -0.9958
vn 0.2560 -0.0895 -0.9625
vn 0.5029 -0.0855 -0.8601
vn 0.7107 -0.0793 -0.6991
vn 0.8666 -0.0718 -0.4938
vn 0.9636 -0.0639 -0.2595
vn 0.9997 -0.0234 -0.0050
vn 0.9692 -0.0230 0.2452
vn 0.8760 -0.0226 0.4818
vn 0.7233 -0.0224 0.6901
vn 0.5182 -0.0223 0.8550
vn 0.2729 -0.0222 0.9618
vn 0.0053 -0.0222 0.9997
vn -0.2626 -0.0222 0.9646
vn -0.5092 -0.0223 0.8604
vn -0.7162 -0.0224 0.6975
vn -0.8711 -0.0226 0.4906
vn -0.9667 -0.0228 0.2548
vn -0.9997 -0.0232 0.0050
vn -0.9692 -0.0238 -0.2452
vn -0.8760 -0.0243 -0.4817
vn -0.7233 -0.0250 -0.6901
vn -0.5181 -0.0255 -0.8549
vn -0.2728 -0.0259 -0.9617
vn -0.0053 -0.0261 -0.9996
vn 0.2626 -0.0260 -0.9646
vn 0.5091 -0.0257 -0.8603
vn 0.7161 -0.0252 -0.6975
vn 0.8711 -0.0246 -0.4906
vn 0.9667 -0.0240 -0.2548
vn 0.9997 -0.0237 -0.0074
vn 0.9698 -0.0236 0.2428
vn 0.8772 -0.0236 0.4795
vn 0.7251 -0.0235 0.6882
vn 0.5204 -0.0235 0.8536
vn 0.2754 -0.0234 0.9610
vn 0.0079 -0.0234 0.9997
vn -0.2602 -0.0234 0.9653
vn -0.5071 -0.0235 0.8615
vn -0.7146 -0.0236 0.6992
vn -0.8699 -0.0236 0.4926
vn -0.9661 -0.0236 0.2571
vn -0.9997 -0.0237 0.0074
vn -0.9698 -0.0236 -0.2428
vn -0.8772 -0.0236 -0.4795
vn -0.7251 -0.0235 -0.6882
vn -0.5204 -0.0235 -0.8536
vn -0.2754 -0.0234 -0.9610
vn -0.0079 -0.0234 -0.9997
vn 0.2602 -0.0234 -0.9653
vn 0.5071 -0.0235 -0.8615
vn 0.7146 -0.0236 -0.6992
vn 0.8699 -0.0236 -0.4926
vn 0.9661 -0.0236 -0.2571
vn 0.9904 -0.1377 -0.0119
vn 0.9619 -0.1384 0.2360
vn 0.8711 -0.1400 0.4707
vn 0.7213 -0.1422 0.6779
vn 0.5194 -0.1443 0.8423
vn 0.2773 -0.1458 0.9496
vn 0.0129 -0.1462 0.9892
vn -0.2527 -0.1455 0.9565
vn -0.4978 -0.1438 0.8553
vn -0.7042 -0.1416 0.6957
vn -0.8594 -0.1395 0.4920
vn -0.9559 -0.1381 0.2592
vn -0.9904 -0.1377 0.0119
vn -0.9619 -0.1384 -0.2360
vn -0.8711 -0.1400 -0.4707
vn -0.7213 -0.1422 -0.6779
vn -0.5194 -0.1443 -0.8423
vn -0.2773 -0.1458 -0.9496
vn -0.0129 -0.1462 -0.9892
vn 0.2527 -0.1455 -0.9565
vn 0.4978 -0.1438 -0.8553
vn 0.7042 -0.1416 -0.6957
vn 0.8594 -0.1395 -0.4920
vn 0.9559 -0.1381 -0.2592
vn 0.8715 -0.4903 -0.0108
vn 0.8450 -0.4927 0.2078
vn 0.7622 -0.4986 0.4130
vn 0.6275 -0.5065 0.5913
vn 0.4493 -0.5144 0.7304
vn 0.2391 -0.5201 0.8200
vn 0.0115 -0.5220 0.8528
vn -0.2171 -0.5197 0.8263
vn -0.4301 -0.5137 0.7424
vn -0.6124 -0.5057 0.6076
vn -0.7519 -0.4979 0.4323
vn -0.8399 -0.4922 0.2288
vn -0.8715 -0.4903 0.0108
vn -0.8450 -0.4927 -0.2078
vn -0.7622 -0.4986 -0.4130
vn -0.6275 -0.5065 -0.5913
vn -0.4493 -0.5144 -0.7304
vn -0.2391 -0.5201 -0.8200
vn -0.0115 -0.5220 -0.8528
vn 0.2171 -0.5197 -0.8263
vn 0.4301 -0.5137 -0.7424
vn 0.6124 -0.5057 -0.6076
vn 0.7519 -0.4979 -0.4323
vn 0.8399 -0.4922 -0.2288
vn 0.7236 -0.6902 -0.0074
vn 0.6999 -0.6923 0.1759
vn 0.6271 -0.6981 0.3457
vn 0.5115 -0.7059 0.4899
vn 0.3626 -0.7136 0.5994
vn 0.1910 -0.7192 0.6680
vn 0.0079 -0.7213 0.6926
vn -0.1758 -0.7194 0.6720
vn -0.3491 -0.7139 0.6070
vn -0.5006 -0.7063 0.5006
vn -0.6194 -0.6984 0.3586
vn -0.6959 -0.6925 0.1902
vn -0.7236 -0.6902 0.0074
vn -0.6999 -0.6923 -0.1759
vn -0.6271 -0.6981 -0.3457
vn -0.5115 -0.7059 -0.4899
vn -0.3626 -0.7136 -0.5994
vn -0.1910 -0.7192 -0.6680
vn -0.0079 -0.7213 -0.6926
vn 0.1758 -0.7194 -0.6720
vn 0.3491 -0.7139 -0.6070
vn 0.5006 -0.7063 -0.5006
vn 0.6194 -0.6984 -0.3586
vn 0.6959 -0.6925 -0.1902
vn 0.3262 -0.9451 -0.0168
vn 0.3193 -0.9453 0.0674
vn 0.2897 -0.9458 0.1465
vn 0.2403 -0.9467 0.2146
vn 0.1751 -0.9476 0.2673
vn 0.0989 -0.9483 0.3016
vn 0.0168 -0.9486 0.3159
vn -0.0663 -0.9485 0.3096
vn -0.1454 -0.9480 0.2831
vn -0.2156 -0.9472 0.2374
vn -0.2719 -0.9463 0.1750
vn -0.3099 -0.9455 0.0997
vn -0.3262 -0.9451 0.0168
vn -0.3193 -0.9453 -0.0674
vn -0.2897 -0.9458 -0.1465
vn -0.2403 -0.9467 -0.2146
vn -0.1751 -0.9476 -0.2673
vn -0.0989 -0.9483 -0.3016
vn -0.0168 -0.9486 -0.3159
vn 0.0663 -0.9485 -0.3096
vn 0.1454 -0.9480 -0.2831
vn 0.2156 -0.9472 -0.2374
vn 0.2719 -0.9463 -0.1750
vn 0.3099 -0.9455 -0.0997
vn 0.0000 1.0000 0.0000
vn 0.0000 -1.0000 0.0000
vt 0.6000 0.6200
vt 0.5966 0.6200
vt 0.5866 0.6200
vt 0.5707 0.6200
vt 0.5500 0.6200
vt 0.5259 0.6200
vt 0.5000 0.6200
vt 0.4741 0.6200
vt 0.4500 0.6200
vt 0.4293 0.6200
vt 0.4134 0.6200
vt 0.4034 0.6200
vt 0.4000 0.6200
vt 0.4034 0.6200
vt 0.4134 0.6200
vt 0.4293 0.6200
vt 0.4500 0.6200
vt 0.4741 0.6200
vt 0.5000 0.6200
vt 0.5259 0.6200
vt 0.5500 0.6200
vt 0.5707 0.6200
vt 0.5866 0.6200
vt 0.5966 0.6200
vt 0.6324 0.5957
vt 0.6279 0.5957
vt 0.6147 0.5957
vt 0.5936 0.5957
vt 0.5662 0.5957
vt 0.5343 0.5957
vt 0.5000 0.5957
vt 0.4657 0.5957
vt 0.4338 0.5957
vt 0.4064 0.5957
vt 0.3853 0.5957
vt 0.3721 0.5957
vt 0.3676 0.5957
vt 0.3721 0.5957
vt 0.3853 0.5957
vt 0.4064 0.5957
vt 0.4338 0.5957
vt 0.4657 0.5957
vt 0.5000 0.5957
vt 0.5343 0.5957
vt 0.5662 0.5957
vt 0.5936 0.5957
vt 0.6147 0.5957
vt 0.6279 0.5957
vt 0.6641 0.5709
vt 0.6585 0.5709
vt 0.6421 0.5709
vt 0.6160 0.5709
vt 0.5820 0.5709
vt 0.5425 0.5709
vt 0.5000 0.5709
vt 0.4575 0.5709
vt 0.4180 0.5709
vt 0.3840 0.5709
vt 0.3579 0.5709
vt 0.3415 0.5709
vt 0.3359 0.5709
vt 0.3415 0.5709
vt 0.3579 0.5709
vt 0.3840 0.5709
vt 0.4180 0.5709
vt 0.4575 0.5709
vt 0.5000 0.5709
vt 0.5425 0.5709
vt 0.5820 0.5709
vt 0.6160 0.5709
vt 0.6421 0.5709
vt 0.6585 0.5709
vt 0.6760 0.5341
vt 0.6700 0.5341
vt 0.6524 0.5341
vt 0.6244 0.5341
vt 0.5880 0.5341
vt 0.5455 0.5341
vt 0.5000 0.5341
vt 0.4545 0.5341
vt 0.4120 0.5341
vt 0.3756 0.5341
vt 0.3476 0.5341
vt 0.3300 0.5341
vt 0.3240 0.5341
vt 0.3300 0.5341
vt 0.3476 0.5341
vt 0.3756 0.5341
vt 0.4120 0.5341
vt 0.4545 0.5341
vt 0.5000 0.5341
vt 0.5455 0.5341
vt 0.5880 0.5341
vt 0.6244 0.5341
vt 0.6524 0.5341
vt 0.6700 0.5341
vt 0.6745 0.4562
vt 0.6685 0.4562
vt 0.6511 0.4562
vt 0.6234 0.4562
vt 0.5872 0.4562
vt 0.5452 0.4562
vt 0.5000 0.4562
vt 0.4548 0.4562
vt 0.4128 0.4562
vt 0.3766 0.4562
vt 0.3489 0.4562
vt 0.3315 0.4562
vt 0.3255 0.4562
vt 0.3315 0.4562
vt 0.3489 0.4562
vt 0.3766 0.4562
vt 0.4128 0.4562
vt 0.4548 0.4562
vt 0.5000 0.4562
vt 0.5452 0.4562
vt 0.5872 0.4562
vt 0.6234 0.4562
vt 0.6511 0.4562
vt 0.6685 0.4562
vt 0.6712 0.3459
vt 0.6653 0.3459
vt 0.6482 0.3459
vt 0.6210 0.3459
vt 0.5856 0.3459
vt 0.5443 0.3459
vt 0.5000 0.3459
vt 0.4557 0.3459
vt 0.4144 0.3459
vt 0.3790 0.3459
vt 0.3518 0.3459
vt 0.3347 0.3459
vt 0.3288 0.3459
vt 0.3347 0.3459
vt 0.3518 0.3459
vt 0.3790 0.3459
vt 0.4144 0.3459
vt 0.4557 0.3459
vt 0.5000 0.3459
vt 0.5443 0.3459
vt 0.5856 0.3459
vt 0.6210 0.3459
vt 0.6482 0.3459
vt 0.6653 0.3459
vt 0.6665 0.2315
vt 0.6609 0.2315
vt 0.6442 0.2315
vt 0.6178 0.2315
vt 0.5833 0.2315
vt 0.5431 0.2315
vt 0.5000 0.2315
vt 0.4569 0.2315
vt 0.4167 0.2315
vt 0.3822 0.2315
vt 0.3558 0.2315
vt 0.3391 0.2315
vt 0.3335 0.2315
vt 0.3391 0.2315
vt 0.3558 0.2315
vt 0.3822 0.2315
vt 0.4167 0.2315
vt 0.4569 0.2315
vt 0.5000 0.2315
vt 0.5431 0.2315
vt 0.5833 0.2315
vt 0.6178 0.2315
vt 0.6442 0.2315
vt 0.6609 0.2315
vt 0.6556 0.1020
vt 0.6503 0.1020
vt 0.6348 0.1020
vt 0.6100 0.1020
vt 0.5778 0.1020
vt 0.5403 0.1020
vt 0.5000 0.1020
vt 0.4597 0.1020
vt 0.4222 0.1020
vt 0.3900 0.1020
vt 0.3652 0.1020
vt 0.3497 0.1020
vt 0.3444 0.1020
vt 0.3497 0.1020
vt 0.3652 0.1020
vt 0.3900 0.1020
vt 0.4222 0.1020
vt 0.4597 0.1020
vt 0.5000 0.1020
vt 0.5403 0.1020
vt 0.5778 0.1020
vt 0.6100 0.1020
vt 0.6348 0.1020
vt 0.6503 0.1020
vt 0.6422 -0.0297
vt 0.6374 -0.0297
vt 0.6232 -0.0297
vt 0.6006 -0.0297
vt 0.5711 -0.0297
vt 0.5368 -0.0297
vt 0.5000 -0.0297
vt 0.4632 -0.0297
vt 0.4289 -0.0297
vt 0.3994 -0.0297
vt 0.3768 -0.0297
vt 0.3626 -0.0297
vt 0.3578 -0.0297
vt 0.3626 -0.0297
vt 0.3768 -0.0297
vt 0.3994 -0.0297
vt 0.4289 -0.0297
vt 0.4632 -0.0297
vt 0.5000 -0.0297
vt 0.5368 -0.0297
vt 0.5711 -0.0297
vt 0.6006 -0.0297
vt 0.6232 -0.0297
vt 0.6374 -0.0297
vt 0.6332 -0.1364
vt 0.6286 -0.1364
vt 0.6153 -0.1364
vt 0.5942 -0.1364
vt 0.5666 -0.1364
vt 0.5345 -0.1364
vt 0.5000 -0.1364
vt 0.4655 -0.1364
vt 0.4334 -0.1364
vt 0.4058 -0.1364
vt 0.3847 -0.1364
vt 0.3714 -0.1364
vt 0.3668 -0.1364
vt 0.3714 -0.1364
vt 0.3847 -0.1364
vt 0.4058 -0.1364
vt 0.4334 -0.1364
vt 0.4655 -0.1364
vt 0.5000 -0.1364
vt 0.5345 -0.1364
vt 0.5666 -0.1364
vt 0.5942 -0.1364
vt 0.6153 -0.1364
vt 0.6286 -0.1364
vt 0.6257 -0.2236
vt 0.6215 -0.2236
vt 0.6089 -0.2236
vt 0.5889 -0.2236
vt 0.5629 -0.2236
vt 0.5325 -0.2236
vt 0.5000 -0.2236
vt 0.4675 -0.2236
vt 0.4371 -0.2236
vt 0.4111 -0.2236
vt 0.3911 -0.2236
vt 0.3785 -0.2236
vt 0.3743 -0.2236
vt 0.3785 -0.2236
vt 0.3911 -0.2236
vt 0.4111 -0.2236
vt 0.4371 -0.2236
vt 0.4675 -0.2236
vt 0.5000 -0.2236
vt 0.5325 -0.2236
vt 0.5629 -0.2236
vt 0.5889 -0.2236
vt 0.6089 -0.2236
vt 0.6215 -0.2236
vt 0.6208 -0.3020
vt 0.6166 -0.3020
vt 0.6046 -0.3020
vt 0.5854 -0.3020
vt 0.5604 -0.3020
vt 0.5313 -0.3020
vt 0.5000 -0.3020
vt 0.4687 -0.3020
vt 0.4396 -0.3020
vt 0.4146 -0.3020
vt 0.3954 -0.3020
vt 0.3834 -0.3020
vt 0.3792 -0.3020
vt 0.3834 -0.3020
vt 0.3954 -0.3020
vt 0.4146 -0.3020
vt 0.4396 -0.3020
vt 0.4687 -0.3020
vt 0.5000 -0.3020
vt 0.5313 -0.3020
vt 0.5604 -0.3020
vt 0.5854 -0.3020
vt 0.6046 -0.3020
vt 0.6166 -0.3020
vt 0.6206 -0.3758
vt 0.6165 -0.3758
vt 0.6045 -0.3758
vt 0.5853 -0.3758
vt 0.5603 -0.3758
vt 0.5312 -0.3758
vt 0.5000 -0.3758
vt 0.4688 -0.3758
vt 0.4397 -0.3758
vt 0.4147 -0.3758
vt 0.3955 -0.3758
vt 0.3835 -0.3758
vt 0.3794 -0.3758
vt 0.3835 -0.3758
vt 0.3955 -0.3758
vt 0.4147 -0.3758
vt 0.4397 -0.3758
vt 0.4688 -0.3758
vt 0.5000 -0.3758
vt 0.5312 -0.3758
vt 0.5603 -0.3758
vt 0.5853 -0.3758
vt 0.6045 -0.3758
vt 0.6165 -0.3758
vt 0.6243 -0.4405
vt 0.6200 -0.4405
vt 0.6076 -0.4405
vt 0.5879 -0.4405
vt 0.5621 -0.4405
vt 0.5322 -0.4405
vt 0.5000 -0.4405
vt 0.4678 -0.4405
vt 0.4379 -0.4405
vt 0.4121 -0.4405
vt 0.3924 -0.4405
vt 0.3800 -0.4405
vt 0.3757 -0.4405
vt 0.3800 -0.4405
vt 0.3924 -0.4405
vt 0.4121 -0.4405
vt 0.4379 -0.4405
vt 0.4678 -0.4405
vt 0.5000 -0.4405
vt 0.5322 -0.4405
vt 0.5621 -0.4405
vt 0.5879 -0.4405
vt 0.6076 -0.4405
vt 0.6200 -0.4405
vt 0.6276 -0.5096
vt 0.6233 -0.5096
vt 0.6105 -0.5096
vt 0.5902 -0.5096
vt 0.5638 -0.5096
vt 0.5330 -0.5096
vt 0.5000 -0.5096
vt 0.4670 -0.5096
vt 0.4362 -0.5096
vt 0.4098 -0.5096
vt 0.3895 -0.5096
vt 0.3767 -0.5096
vt 0.3724 -0.5096
vt 0.3767 -0.5096
vt 0.3895 -0.5096
vt 0.4098 -0.5096
vt 0.4362 -0.5096
vt 0.4670 -0.5096
vt 0.5000 -0.5096
vt 0.5330 -0.5096
vt 0.5638 -0.5096
vt 0.5902 -0.5096
vt 0.6105 -0.5096
vt 0.6233 -0.5096
vt 0.6258 -0.6037
vt 0.6215 -0.6037
vt 0.6090 -0.6037
vt 0.5890 -0.6037
vt 0.5629 -0.6037
vt 0.5326 -0.6037
vt 0.5000 -0.6037
vt 0.4674 -0.6037
vt 0.4371 -0.6037
vt 0.4110 -0.6037
vt 0.3910 -0.6037
vt 0.3785 -0.6037
vt 0.3742 -0.6037
vt 0.3785 -0.6037
vt 0.3910 -0.6037
vt 0.4110 -0.6037
vt 0.4371 -0.6037
vt 0.4674 -0.6037
vt 0.5000 -0.6037
vt 0.5326 -0.6037
vt 0.5629 -0.6037
vt 0.5890 -0.6037
vt 0.6090 -0.6037
vt 0.6215 -0.6037
vt 0.6170 -0.7278
vt 0.6130 -0.7278
vt 0.6013 -0.7278
vt 0.5827 -0.7278
vt 0.5585 -0.7278
vt 0.5303 -0.7278
vt 0.5000 -0.7278
vt 0.4697 -0.7278
vt 0.4415 -0.7278
vt 0.4173 -0.7278
vt 0.3987 -0.7278
vt 0.3870 -0.7278
vt 0.3830 -0.7278
vt 0.3870 -0.7278
vt 0.3987 -0.7278
vt 0.4173 -0.7278
vt 0.4415 -0.7278
vt 0.4697 -0.7278
vt 0.5000 -0.7278
vt 0.5303 -0.7278
vt 0.5585 -0.7278
vt 0.5827 -0.7278
vt 0.6013 -0.7278
vt 0.6130 -0.7278
vt 0.6089 -0.8394
vt 0.6052 -0.8394
vt 0.5943 -0.8394
vt 0.5770 -0.8394
vt 0.5545 -0.8394
vt 0.5282 -0.8394
vt 0.5000 -0.8394
vt 0.4718 -0.8394
vt 0.4455 -0.8394
vt 0.4230 -0.8394
vt 0.4057 -0.8394
vt 0.3948 -0.8394
vt 0.3911 -0.8394
vt 0.3948 -0.8394
vt 0.4057 -0.8394
vt 0.4230 -0.8394
vt 0.4455 -0.8394
vt 0.4718 -0.8394
vt 0.5000 -0.8394
vt 0.5282 -0.8394
vt 0.5545 -0.8394
vt 0.5770 -0.8394
vt 0.5943 -0.8394
vt 0.6052 -0.8394
vt 0.6067 -0.9130
vt 0.6031 -0.9130
vt 0.5924 -0.9130
vt 0.5755 -0.9130
vt 0.5534 -0.9130
vt 0.5276 -0.9130
vt 0.5000 -0.9130
vt 0.4724 -0.9130
vt 0.4466 -0.9130
vt 0.4245 -0.9130
vt 0.4076 -0.9130
vt 0.3969 -0.9130
vt 0.3933 -0.9130
vt 0.3969 -0.9130
vt 0.4076 -0.9130
vt 0.4245 -0.9130
vt 0.4466 -0.9130
vt 0.4724 -0.9130
vt 0.5000 -0.9130
vt 0.5276 -0.9130
vt 0.5534 -0.9130
vt 0.5755 -0.9130
vt 0.5924 -0.9130
vt 0.6031 -0.9130
vt 0.6058 -0.9729
vt 0.6022 -0.9729
vt 0.5916 -0.9729
vt 0.5748 -0.9729
vt 0.5529 -0.9729
vt 0.5274 -0.9729
vt 0.5000 -0.9729
vt 0.4726 -0.9729
vt 0.4471 -0.9729
vt 0.4252 -0.9729
vt 0.4084 -0.9729
vt 0.3978 -0.9729
vt 0.3942 -0.9729
vt 0.3978 -0.9729
vt 0.4084 -0.9729
vt 0.4252 -0.9729
vt 0.4471 -0.9729
vt 0.4726 -0.9729
vt 0.5000 -0.9729
vt 0.5274 -0.9729
vt 0.5529 -0.9729
vt 0.5748 -0.9729
vt 0.5916 -0.9729
vt 0.6022 -0.9729
vt 0.6043 -1.0160
vt 0.6007 -1.0160
vt 0.5903 -1.0160
vt 0.5738 -1.0160
vt 0.5522 -1.0160
vt 0.5270 -1.0160
vt 0.5000 -1.0160
vt 0.4730 -1.0160
vt 0.4478 -1.0160
vt 0.4262 -1.0160
vt 0.4097 -1.0160
vt 0.3993 -1.0160
vt 0.3957 -1.0160
vt 0.3993 -1.0160
vt 0.4097 -1.0160
vt 0.4262 -1.0160
vt 0.4478 -1.0160
vt 0.4730 -1.0160
vt 0.5000 -1.0160
vt 0.5270 -1.0160
vt 0.5522 -1.0160
vt 0.5738 -1.0160
vt 0.5903 -1.0160
vt 0.6007 -1.0160
vt 0.5960 -1.0423
vt 0.5927 -1.0423
vt 0.5831 -1.0423
vt 0.5679 -1.0423
vt 0.5480 -1.0423
vt 0.5248 -1.0423
vt 0.5000 -1.0423
vt 0.4752 -1.0423
vt 0.4520 -1.0423
vt 0.4321 -1.0423
vt 0.4169 -1.0423
vt 0.4073 -1.0423
vt 0.4040 -1.0423
vt 0.4073 -1.0423
vt 0.4169 -1.0423
vt 0.4321 -1.0423
vt 0.4520 -1.0423
vt 0.4752 -1.0423
vt 0.5000 -1.0423
vt 0.5248 -1.0423
vt 0.5480 -1.0423
vt 0.5679 -1.0423
vt 0.5831 -1.0423
vt 0.5927 -1.0423
vt 0.5782 -1.0613
vt 0.5755 -1.0613
vt 0.5677 -1.0613
vt 0.5553 -1.0613
vt 0.5391 -1.0613
vt 0.5202 -1.0613
vt 0.5000 -1.0613
vt 0.4798 -1.0613
vt 0.4609 -1.0613
vt 0.4447 -1.0613
vt 0.4323 -1.0613
vt 0.4245 -1.0613
vt 0.4218 -1.0613
vt 0.4245 -1.0613
vt 0.4323 -1.0613
vt 0.4447 -1.0613
vt 0.4609 -1.0613
vt 0.4798 -1.0613
vt 0.5000 -1.0613
vt 0.5202 -1.0613
vt 0.5391 -1.0613
vt 0.5553 -1.0613
vt 0.5677 -1.0613
vt 0.5755 -1.0613
vt 0.5600 -1.0800
vt 0.5580 -1.0800
vt 0.5520 -1.0800
vt 0.5424 -1.0800
vt 0.5300 -1.0800
vt 0.5155 -1.0800
vt 0.5000 -1.0800
vt 0.4845 -1.0800
vt 0.4700 -1.0800
vt 0.4576 -1.0800
vt 0.4480 -1.0800
vt 0.4420 -1.0800
vt 0.4400 -1.0800
vt 0.4420 -1.0800
vt 0.4480 -1.0800
vt 0.4576 -1.0800
vt 0.4700 -1.0800
vt 0.4845 -1.0800
vt 0.5000 -1.0800
vt 0.5155 -1.0800
vt 0.5300 -1.0800
vt 0.5424 -1.0800
vt 0.5520 -1.0800
vt 0.5580 -1.0800
vt 0.5000 0.6200
vt 0.5000 -1.0800
f 1/1/1 2/2/2 26/26/26
f 1/1/1 26/26/26 25/25/25
f 2/2/2 3/3/3 27/27/27
f 2/2/2 27/27/27 26/26/26
f 3/3/3 4/4/4 28/28/28
f 3/3/3 28/28/28 27/27/27
f 4/4/4 5/5/5 29/29/29
f 4/4/4 29/29/29 28/28/28
f 5/5/5 6/6/6 30/30/30
f 5/5/5 30/30/30 29/29/29
f 6/6/6 7/7/7 31/31/31
f 6/6/6 31/31/31 30/30/30
f 7/7/7 8/8/8 32/32/32
f 7/7/7 32/32/32 31/31/31
f 8/8/8 9/9/9 33/33/33
f 8/8/8 33/33/33 32/32/32
f 9/9/9 10/10/10 34/34/34
f 9/9/9 34/34/34 33/33/33
f 10/10/10 11/11/11 35/35/35
f 10/10/10 35/35/35 34/34/34
f 11/11/11 12/12/12 36/36/36
f 11/11/11 36/36/36 35/35/35
f 12/12/12 13/13/13 37/37/37
f 12/12/12 37/37/37 36/36/36
f 13/13/13 14/14/14 38/38/38
f 13/13/13 38/38/38 37/37/37
f 14/14/14 15/15/15 39/39/39
f 14/14/14 39/39/39 38/38/38
f 15/15/15 16/16/16 40/40/40
f 15/15/15 40/40/40 39/39/39
f 16/16/16 17/17/17 41/41/41
f 16/16/16 41/41/41 40/40/40
f 17/17/17 18/18/18 42/42/42
f 17/17/17 42/42/42 41/41/41
f 18/18/18 19/19/19 43/43/43
f 18/18/18 43/43/43 42/42/42
f 19/19/19 20/20/20 44/44/44
f 19/19/19 44/44/44 43/43/43
f 20/20/20 21/21/21 45/45/45
f 20/20/20 45/45/45 44/44/44
f 21/21/21 22/22/22 46/46/46
f 21/21/21 46/46/46 45/45/45
f 22/22/22 23/23/23 47/47/47
f 22/22/22 47/47/47 46/46/46
f 23/23/23 24/24/24 48/48/48
f 23/23/23 48/48/48 47/47/47
f 24/24/24 1/1/1 25/25/25
f 24/24/24 25/25/25 48/48/48
f 25/25/25 26/26/26 50/50/50
f 25/25/25 50/50/50 49/49/49
f 26/26/26 27/27/27 51/51/51
f 26/26/26 51/51/51 50/50/50
f 27/27/27 28/28/28 52/52/52
f 27/27/27 52/52/52 51/51/51
f 28/28/28 29/29/29 53/53/53
f 28/28/28 53/53/53 52/52/52
f 29/29/29 30/30/30 54/54/54
f 29/29/29 54/54/54 53/53/53
f 30/30/30 31/31/31 55/55/55
f 30/30/30 55/55/55 54/54/54
f 31/31/31 32/32/32 56/56/56
f 31/31/31 56/56/56 55/55/55
f 32/32/32 33/33/33 57/57/57
f 32/32/32 57/57/57 56/56/56
f 33/33/33 34/34/34 58/58/58
f 33/33/33 58/58/58 57/57/57
f 34/34/34 35/35/35 59/59/59
f 34/34/34 59/59/59 58/58/58
f 35/35/35 36/36/36 60/60/60
f 35/35/35 60/60/60 59/59/59
f 36/36/36 37/37/37 61/61/61
f 36/36/36 61/61/61 60/60/60
f 37/37/37 38/38/38 62/62/62
f 37/37/37 62/62/62 61/61/61
f 38/38/38 39/39/39 63/63/63
f 38/38/38 63/63/63 62/62/62
f 39/39/39 40/40/40 64/64/64
f 39/39/39 64/64/64 63/63/63
f 40/40/40 41/41/41 65/65/65
f 40/40/40 65/65/65 64/64/64
f 41/41/41 42/42/42 66/66/66
f 41/41/41 66/66/66 65/65/65
f 42/42/42 43/43/43 67/67/67
f 42/42/42 67/67/67 66/66/66
f 43/43/43 44/44/44 68/68/68
f 43/43/43 68/68/68 67/67/67
f 44/44/44 45/45/45 69/69/69
f 44/44/44 69/69/69 68/68/68
f 45/45/45 46/46/46 70/70/70
f 45/45/45 70/70/70 69/69/69
f 46/46/46 47/47/47 71/71/71
f 46/46/46 71/71/71 70/70/70
f 47/47/47 48/48/48 72/72/72
f 47/47/47 72/72/72 71/71/71
f 48/48/48 25/25/25 49/49/49
f 48/48/48 49/49/49 72/72/72
f 49/49/49 50/50/50 74/74/74
f 49/49/49 74/74/74 73/73/73
f 50/50/50 51/51/51 75/75/75
f 50/50/50 75/75/75 74/74/74
f 51/51/51 52/52/52 76/76/76
f 51/51/51 76/76/76 75/75/75
f 52/52/52 53/53/53 77/77/77
f 52/52/52 77/77/77 76/76/76
f 53/53/53 54/54/54 78/78/78
f 53/53/53 78/78/78 77/77/77
f 54/54/54 55/55/55 79/79/79
f 54/54/54 79/79/79 78/78/78
f 55/55/55 56/56/56 80/80/80
f 55/55/55 80/80/80 79/79/79
f 56/56/56 57/57/57 81/81/81
f 56/56/56 81/81/81 80/80/80
f 57/57/57 58/58/58 82/82/82
f 57/57/57 82/82/82 81/81/81
f 58/58/58 59/59/59 83/83/83
f 58/58/58 83/83/83 82/82/82
f 59/59/59 60/60/60 84/84/84
f 59/59/59 84/84/84 83/83/83
f 60/60/60 61/61/61 85/85/85
f 60/60/60 85/85/85 84/84/84
f 61/61/61 62/62/62 86/86/86
f 61/61/61 86/86/86 85/85/85
f 62/62/62 63/63/63 87/87/87
f 62/62/62 87/87/87 86/86/86
f 63/63/63 64/64/64 88/88/88
f 63/63/63 88/88/88 87/87/87
f 64/64/64 65/65/65 89/89/89
f 64/64/64 89/89/89 88/88/88
f 65/65/65 66/66/66 90/90/90
f 65/65/65 90/90/90 89/89/89
f 66/66/66 67/67/67 91/91/91
f 66/66/66 91/91/91 90/90/90
f 67/67/67 68/68/68 92/92/92
f 67/67/67 92/92/92 91/91/91
f 68/68/68 69/69/69 93/93/93
f 68/68/68 93/93/93 92/92/92
f 69/69/69 70/70/70 94/94/94
f 69/69/69 94/94/94 93/93/93
f 70/70/70 71/71/71 95/95/95
f 70/70/70 95/95/95 94/94/94
f 71/71/71 72/72/72 96/96/96
f 71/71/71 96/96/96 95/95/95
f 72/72/72 49/49/49 73/73/73
f 72/72/72 73/73/73 96/96/96
f 73/73/73 74/74/74 98/98/98
f 73/73/73 98/98/98 97/97/97
f 74/74/74 75/75/75 99/99/99
f 74/74/74 99/99/99 98/98/98
f 75/75/75 76/76/76 100/100/100
f 75/75/75 100/100/100 99/99/99
f 76/76/76 77/77/77 101/101/101
f 76/76/76 101/101/101 100/100/100
f 77/77/77 78/78/78 102/102/102
f 77/77/77 102/102/102 101/101/101
f 78/78/78 79/79/79 103/103/103
f 78/78/78 103/103/103 102/102/102
f 79/79/79 80/80/80 104/104/104
f 79/79/79 104/104/104 103/103/103
f 80/80/80 81/81/81 105/105/105
f 80/80/80 105/105/105 104/104/104
f 81/81/81 82/82/82 106/106/106
f 81/81/81 106/106/106 105/105/105
f 82/82/82 83/83/83 107/107/107
f 82/82/82 107/107/107 106/106/106
f 83/83/83 84/84/84 108/108/108
f 83/83/83 108/108/108 107/107/107
f 84/84/84 85/85/85 109/109/109
f 84/84/84 109/109/109 108/108/108
f 85/85/85 86/86/86 110/110/110
f 85/85/85 110/110/110 109/109/109
f 86/86/86 87/87/87 111/111/111
f 86/86/86 111/111/111 110/110/110
f 87/87/87 88/88/88 112/112/112
f 87/87/87 112/112/112 111/111/111
f 88/88/88 89/89/89 113/113/113
f 88/88/88 113/113/113 112/112/112
f 89/89/89 90/90/90 114/114/114
f 89/89/89 114/114/114 113/113/113
f 90/90/90 91/91/91 115/115/115
f 90/90/90 115/115/115 114/114/114
f 91/91/91 92/92/92 116/116/116
f 91/91/91 116/116/116 115/115/115
f 92/92/92 93/93/93 117/117/117
f 92/92/92 117/117/117 116/116/116
f 93/93/93 94/94/94 118/118/118
f 93/93/93 118/118/118 117/117/117
f 94/94/94 95/95/95 119/119/119
f 94/94/94 119/119/119 118/118/118
f 95/95/95 96/96/96 120/120/120
f 95/95/95 120/120/120 119/119/119
f 96/96/96 73/73/73 97/97/97
f 96/96/96 97/97/97 120/120/120
f 97/97/97 98/98/98 122/122/122
f 97/97/97 122/122/122 121/121/121
f 98/98/98 99/99/99 123/123/123
f 98/98/98 123/123/123 122/122/122
f 99/99/99 100/100/100 124/124/124
f 99/99/99 124/124/124 123/123/123
f 100/100/100 101/101/101 125/125/125
f 100/100/100 125/125/125 124/124/124
f 101/101/101 102/102/102 126/126/126
f 101/101/101 126/126/126 125/125/125
f 102/102/102 103/103/103 127/127/127
f 102/102/102 127/127/127 126/126/126
f 103/103/103 104/104/104 128/128/128
f 103/103/103 128/128/128 127/127/127
f 104/104/104 105/105/105 129/129/129
f 104/104/104 129/129/129 128/128/128
f 105/105/105 106/106/106 130/130/130
f 105/105/105 130/130/130 129/129/129
f 106/106/106 107/107/107 131/131/131
f 106/106/106 131/131/131 130/130/130
f 107/107/107 108/108/108 132/132/132
f 107/107/107 132/132/132 131/131/131
f 108/108/108 109/109/109 133/133/133
f 108/108/108 133/133/133 132/132/132
f 109/109/109 110/110/110 134/134/134
f 109/109/109 134/134/134 133/133/133
f 110/110/110 111/111/111 135/135/135
f 110/110/110 135/135/135 134/134/134
f 111/111/111 112/112/112 136/136/136
f 111/111/111 136/136/136 135/135/135
f 112/112/112 113/113/113 137/137/137
f 112/112/112 137/137/137 136/136/136
f 113/113/113 114/114/114 138/138/138
f 113/113/113 138/138/138 137/137/137
f 114/114/114 115/115/115 139/139/139
f 114/114/114 139/139/139 138/138/138
f 115/115/115 116/116/116 140/140/140
f 115/115/115 140/140/140 139/139/139
f 116/116/116 117/117/117 141/141/141
f 116/116/116 141/141/141 140/140/140
f 117/117/117 118/118/118 142/142/142
f 117/117/117 142/142/142 141/141/141
f 118/118/118 119/119/119 143/143/143
f 118/118/118 143/143/143 142/142/142
f 119/119/119 120/120/120 144/144/144
f 119/119/119 144/144/144 143/143/143
f 120/120/120 97/97/97 121/121/121
f 120/120/120 121/121/121 144/144/144
f 121/121/121 122/122/122 146/146/146
f 121/121/121 146/146/146 145/145/145
f 122/122/122 123/123/123 147/147/147
f 122/122/122 147/147/147 146/146/146
f 123/123/123 124/124/124 148/148/148
f 123/123/123 148/148/148 147/147/147
f 124/124/124 125/125/125 149/149/149
f 124/124/124 149/149/149 148/148/148
f 125/125/125 126/126/126 150/150/150
f 125/125/125 150/150/150 149/149/149
f 126/126/126 127/127/127 151/151/151
f 126/126/126 151/151/151 150/150/150
f 127/127/127 128/128/128 152/152/152
f 127/127/127 152/152/152 151/151/151
f 128/128/128 129/129/129 153/153/153
f 128/128/128 153/153/153 152/152/152
f 129/129/129 130/130/130 154/154/154
f 129/129/129 154/154/154 153/153/153
f 130/130/130 131/131/131 155/155/155
f 130/130/130 155/155/155 154/154/154
f 131/131/131 132/132/132 156/156/156
f 131/131/131 156/156/156 155/155/155
f 132/132/132 133/133/133 157/157/157
f 132/132/132 157/157/157 156/156/156
f 133/133/133 134/134/134 158/158/158
f 133/133/133 158/158/158 157/157/157
f 134/134/134 135/135/135 159/159/159
f 134/134/134 159/159/159 158/158/158
f 135/135/135 136/136/136 160/160/160
f 135/135/135 160/160/160 159/159/159
f 136/136/136 137/137/137 161/161/161
f 136/136/136 161/161/161 160/160/160
f 137/137/137 138/138/138 162/162/162
f 137/137/137 162/162/162 161/161/161
f 138/138/138 139/139/139 163/163/163
f 138/138/138 163/163/163 162/162/162
f 139/139/139 140/140/140 164/164/164
f 139/139/139 164/164/164 163/163/163
f 140/140/140 141/141/141 165/165/165
f 140/140/140 165/165/165 164/164/164
f 141/141/141 142/142/142 166/166/166
f 141/141/141 166/166/166 165/165/165
f 142/142/142 143/143/143 167/167/167
f 142/142/142 167/167/167 166/166/166
f 143/143/143 144/144/144 168/168/168
f 143/143/143 168/168/168 167/167/167
f 144/144/144 121/121/121 145/145/145
f 144/144/144 145/145/145 168/168/168
f 145/145/145 146/146/146 170/170/170
f 145/145/145 170/170/170 169/169/169
f 146/146/146 147/147/147 171/171/171
f 146/146/146 171/171/171 170/170/170
f 147/147/147 148/148/148 172/172/172
f 147/147/147 172/172/172 171/171/171
f 148/148/148 149/149/149 173/173/173
f 148/148/148 173/173/173 172/172/172
f 149/149/149 150/150/150 174/174/174
f 149/149/149 174/174/174 173/173/173
f 150/150/150 151/151/151 175/175/175
f 150/150/150 175/175/175 174/174/174
f 151/151/151 152/152/152 176/176/176
f 151/151/151 176/176/176 175/175/175
f 152/152/152 153/153/153 177/177/177
f 152/152/152 177/177/177 176/176/176
f 153/153/153 154/154/154 178/178/178
f 153/153/153 178/178/178 177/177/177
f 154/154/154 155/155/155 179/179/179
f 154/154/154 179/179/179 178/178/178
f 155/155/155 156/156/156 180/180/180
f 155/155/155 180/180/180 179/179/179
f 156/156/156 157/157/157 181/181/181
f 156/156/156 181/181/181 180/180/180
f 157/157/157 158/158/158 182/182/182
f 157/157/157 182/182/182 181/181/181
f 158/158/158 159/159/159 183/183/183
f 158/158/158 183/183/183 182/182/182
f 159/159/159 160/160/160 184/184/184
f 159/159/159 184/184/184 183/183/183
f 160/160/160 161/161/161 185/185/185
f 160/160/160 185/185/185 184/184/184
f 161/161/161 162/162/162 186/186/186
f 161/161/161 186/186/186 185/185/185
f 162/162/162 163/163/163 187/187/187
f 162/162/162 187/187/187 186/186/186
f 163/163/163 164/164/164 188/188/188
f 163/163/163 188/188/188 187/187/187
f 164/164/164 165/165/165 189/189/189
f 164/164/164 189/189/189 188/188/188
f 165/165/165 166/166/166 190/190/190
f 165/165/165 190/190/190 189/189/189
f 166/166/166 167/167/167 191/191/191
f 166/166/166 191/191/191 190/190/190
f 167/167/167 168/168/168 192/192/192
f 167/167/167 192/192/192 191/191/191
f 168/168/168 145/145/145 169/169/169
f 168/168/168 169/169/169 192/192/192
f 169/169/169 170/170/170 194/194/194
f 169/169/169 194/194/194 193/193/193
f 170/170/170 171/171/171 195/195/195
f 170/170/170 195/195/195 194/194/194
f 171/171/171 172/172/172 196/196/196
f 171/171/171 196/196/196 195/195/195
f 172/172/172 173/173/173 197/197/197
f 172/172/172 197/197/197 196/196/196
f 173/173/173 174/174/174 198/198/198
f 173/173/173 198/198/198 197/197/197
f 174/174/174 175/175/175 199/199/199
f 174/174/174 199/199/199 198/198/198
f 175/175/175 176/176/176 200/200/200
f 175/175/175 200/200/200 199/199/199
f 176/176/176 177/177/177 201/201/201
f 176/176/176 201/201/201 200/200/200
f 177/177/177 178/178/178 202/202/202
f 177/177/177 202/202/202 201/201/201
f 178/178/178 179/179/179 203/203/203
f 178/178/178 203/203/203 202/202/202
f 179/179/179 180/180/180 204/204/204
f 179/179/179 204/204/204 203/203/203
f 180/180/180 181/181/181 205/205/205
f 180/180/180 205/205/205 204/204/204
f 181/181/181 182/182/182 206/206/206
f 181/181/181 206/206/206 205/205/205
f 182/182/182 183/183/183 207/207/207
f 182/182/182 207/207/207 206/206/206
f 183/183/183 184/184/184 208/208/208
f 183/183/183 208/208/208 207/207/207
f 184/184/184 185/185/185 209/209/209
f 184/184/184 209/209/209 208/208/208
f 185/185/185 186/186/186 210/210/210
f 185/185/185 210/210/210 209/209/209
f 186/186/186 187/187/187 211/211/211
f 186/186/186 211/211/211 210/210/210
f 187/187/187 188/188/188 212/212/212
f 187/187/187 212/212/212 211/211/211
f 188/188/188 189/189/189 213/213/213
f 188/188/188 213/213/213 212/212/212
f 189/189/189 190/190/190 214/214/214
f 189/189/189 214/214/214 213/213/213
f 190/190/190 191/191/191 215/215/215
f 190/190/190 215/215/215 214/214/214
f 191/191/191 192/192/192 216/216/216
f 191/191/191 216/216/216 215/215/215
f 192/192/192 169/169/169 193/193/193
f 192/192/192 193/193/193 216/216/216
f 193/193/193 194/194/194 218/218/218
f 193/193/193 218/218/218 217/217/217
f 194/194/194 195/195/195 219/219/219
f 194/194/194 219/219/219 218/218/218
f 195/195/195 196/196/196 220/220/220
f 195/195/195 220/220/220 219/219/219
f 196/196/196 197/197/197 221/221/221
f 196/196/196 221/221/221 220/220/220
f 197/197/197 198/198/198 222/222/222
f 197/197/197 222/222/222 221/221/221
f 198/198/198 199/199/199 223/223/223
f 198/198/198 223/223/223 222/222/222
f 199/199/199 200/200/200 224/224/224
f 199/199/199 224/224/224 223/223/223
f 200/200/200 201/201/201 225/225/225
f 200/200/200 225/225/225 224/224/224
f 201/201/201 202/202/202 226/226/226
f 201/201/201 226/226/226 225/225/225
f 202/202/202 203/203/203 227/227/227
f 202/202/202 227/227/227 226/226/226
f 203/203/203 204/204/204 228/228/228
f 203/203/203 228/228/228 227/227/227
f 204/204/204 205/205/205 229/229/229
f 204/204/204 229/229/229 228/228/228
f 205/205/205 206/206/206 230/230/230
f 205/205/205 230/230/230 229/229/229
f 206/206/206 207/207/207 231/231/231
f 206/206/206 231/231/231 230/230/230
f 207/207/207 208/208/208 232/232/232
f 207/207/207 232/232/232 231/231/231
f 208/208/208 209/209/209 233/233/233
f 208/208/208 233/233/233 232/232/232
f 209/209/209 210/210/210 234/234/234
f 209/209/209 234/234/234 233/233/233
f 210/210/210 211/211/211 235/235/235
f 210/210/210 235/235/235 234/234/234
f 211/211/211 212/212/212 236/236/236
f 211/211/211 236/236/236 235/235/235
f 212/212/212 213/213/213 237/237/237
f 212/212/212 237/237/237 236/236/236
f 213/213/213 214/214/214 238/238/238
f 213/213/213 238/238/238 237/237/237
f 214/214/214 215/215/215 239/239/239
f 214/214/214 239/239/239 238/238/238
f 215/215/215 216/216/216 240/240/240
f 215/215/215 240/240/240 239/239/239
f 216/216/216 193/193/193 217/217/217
f 216/216/216 217/217/217 240/240/240
f 217/217/217 218/218/218 242/242/242
f 217/217/217 242/242/242 241/241/241
f 218/218/218 219/219/219 243/243/243
f 218/218/218 243/243/243 242/242/242
f 219/219/219 220/220/220 244/244/244
f 219/219/219 244/244/244 243/243/243
f 220/220/220 221/221/221 245/245/245
f 220/220/220 245/245/245 244/244/244
f 221/221/221 222/222/222 246/246/246
f 221/221/221 246/246/246 245/245/245
f 222/222/222 223/223/223 247/247/247
f 222/222/222 247/247/247 246/246/246
f 223/223/223 224/224/224 248/248/248
f 223/223/223 248/248/248 247/247/247
f 224/224/224 225/225/225 249/249/249
f 224/224/224 249/249/249 248/248/248
f 225/225/225 226/226/226 250/250/250
f 225/225/225 250/250/250 249/249/249
f 226/226/226 227/227/227 251/251/251
f 226/226/226 251/251/251 250/250/250
f 227/227/227 228/228/228 252/252/252
f 227/227/227 252/252/252 251/251/251
f 228/228/228 229/229/229 253/253/253
f 228/228/228 253/253/253 252/252/252
f 229/229/229 230/230/230 254/254/254
f 229/229/229 254/254/254 253/253/253
f 230/230/230 231/231/231 255/255/255
f 230/230/230 255/255/255 254/254/254
f 231/231/231 232/232/232 256/256/256
f 231/231/231 256/256/256 255/255/255
f 232/232/232 233/233/233 257/257/257
f 232/232/232 257/257/257 256/256/256
f 233/233/233 234/234/234 258/258/258
f 233/233/233 258/258/258 257/257/257
f 234/234/234 235/235/235 259/259/259
f 234/234/234 259/259/259 258/258/258
f 235/235/235 236/236/236 260/260/260
f 235/235/235 260/260/260 259/259/259
f 236/236/236 237/237/237 261/261/261
f 236/236/236 261/261/261 260/260/260
f 237/237/237 238/238/238 262/262/262
f 237/237/237 262/262/262 261/261/261
f 238/238/238 239/239/239 263/263/263
f 238/238/238 263/263/263 262/262/262
f 239/239/239 240/240/240 264/264/264
f 239/239/239 264/264/264 263/263/263
f 240/240/240 217/217/217 241/241/241
f 240/240/240 241/241/241 264/264/264
f 241/241/241 242/242/242 266/266/266
f 241/241/241 266/266/266 265/265/265
f 242/242/242 243/243/243 267/267/267
f 242/242/242 267/267/267 266/266/266
f 243/243/243 244/244/244 268/268/268
f 243/243/243 268/268/268 267/267/267
f 244/244/244 245/245/245 269/269/269
f 244/244/244 269/269/269 268/268/268
f 245/245/245 246/246/246 270/270/270
f 245/245/245 270/270/270 269/269/269
f 246/246/246 247/247/247 271/271/271
f 246/246/246 271/271/271 270/270/270
f 247/247/247 248/248/248 272/272/272
f 247/247/247 272/272/272 271/271/271
f 248/248/248 249/249/249 273/273/273
f 248/248/248 273/273/273 272/272/272
f 249/249/249 250/250/250 274/274/274
f 249/249/249 274/274/274 273/273/273
f 250/250/250 251/251/251 275/275/275
f 250/250/250 275/275/275 274/274/274
f 251/251/251 252/252/252 276/276/276
f 251/251/251 276/276/276 275/275/275
f 252/252/252 253/253/253 277/277/277
f 252/252/252 277/277/277 276/276/276
f 253/253/253 254/254/254 278/278/278
f 253/253/253 278/278/278 277/277/277
f 254/254/254 255/255/255 279/279/279
f 254/254/254 279/279/279 278/278/278
f 255/255/255 256/256/256 280/280/280
f 255/255/255 280/280/280 279/279/279
f 256/256/256 257/257/257 281/281/281
f 256/256/256 281/281/281 280/280/280
f 257/257/257 258/258/258 282/282/282
f 257/257/257 282/282/282 281/281/281
f 258/258/258 259/259/259 283/283/283
f 258/258/258 283/283/283 282/282/282
f 259/259/259 260/260/260 284/284/284
f 259/259/259 284/284/284 283/283/283
f 260/260/260 261/261/261 285/285/285
f 260/260/260 285/285/285 284/284/284
f 261/261/261 262/262/262 286/286/286
f 261/261/261 286/286/286 285/285/285
f 262/262/262 263/263/263 287/287/287
f 262/262/262 287/287/287 286/286/286
f 263/263/263 264/264/264 288/288/288
f 263/263/263 288/288/288 287/287/287
f 264/264/264 241/241/241 265/265/265
f 264/264/264 265/265/265 288/288/288
f 265/265/265 266/266/266 290/290/290
f 265/265/265 290/290/290 289/289/289
f 266/266/266 267/267/267 291/291/291
f 266/266/266 291/291/291 290/290/290
f 267/267/267 268/268/268 292/292/292
f 267/267/267 292/292/292 291/291/291
f 268/268/268 269/269/269 293/293/293
f 268/268/268 293/293/293 292/292/292
f 269/269/269 270/270/270 294/294/294
f 269/269/269 294/294/294 293/293/293
f 270/270/270 271/271/271 295/295/295
f 270/270/270 295/295/295 294/294/294
f 271/271/271 272/272/272 296/296/296
f 271/271/271 296/296/296 295/295/295
f 272/272/272 273/273/273 297/297/297
f 272/272/272 297/297/297 296/296/296
f 273/273/273 274/274/274 298/298/298
f 273/273/273 298/298/298 297/297/297
f 274/274/274 275/275/275 299/299/299
f 274/274/274 299/299/299 298/298/298
f 275/275/275 276/276/276 300/300/300
f 275/275/275 300/300/300 299/299/299
f 276/276/276 277/277/277 301/301/301
f 276/276/276 301/301/301 300/300/300
f 277/277/277 278/278/278 302/302/302
f 277/277/277 302/302/302 301/301/301
f 278/278/278 279/279/279 303/303/303
f 278/278/278 303/303/303 302/302/302
f 279/279/279 280/280/280 304/304/304
f 279/279/279 304/304/304 303/303/303
f 280/280/280 281/281/281 305/305/305
f 280/280/280 305/305/305 304/304/304
f 281/281/281 282/282/282 306/306/306
f 281/281/281 306/306/306 305/305/305
f 282/282/282 283/283/283 307/307/307
f 282/282/282 307/307/307 306/306/306
f 283/283/283 284/284/284 308/308/308
f 283/283/283 308/308/308 307/307/307
f 284/284/284 285/285/285 309/309/309
f 284/284/284 309/309/309 308/308/308
f 285/285/285 286/286/286 310/310/310
f 285/285/285 310/310/310 309/309/309
f 286/286/286 287/287/287 311/311/311
f 286/286/286 311/311/311 310/310/310
f 287/287/287 288/288/288 312/312/312
f 287/287/287 312/312/312 311/311/311
f 288/288/288 265/265/265 289/289/289
f 288/288/288 289/289/289 312/312/312
f 289/289/289 290/290/290 314/314/314
f 289/289/289 314/314/314 313/313/313
f 290/290/290 291/291/291 315/315/315
f 290/290/290 315/315/315 314/314/314
f 291/291/291 292/292/292 316/316/316
f 291/291/291 316/316/316 315/315/315
f 292/292/292 293/293/293 317/317/317
f 292/292/292 317/317/317 316/316/316
f 293/293/293 294/294/294 318/318/318
f 293/293/293 318/318/318 317/317/317
f 294/294/294 295/295/295 319/319/319
f 294/294/294 319/319/319 318/318/318
f 295/295/295 296/296/296 320/320/320
f 295/295/295 320/320/320 319/319/319
f 296/296/296 297/297/297 321/321/321
f 296/296/296 321/321/321 320/320/320
f 297/297/297 298/298/298 322/322/322
f 297/297/297 322/322/322 321/321/321
f 298/298/298 299/299/299 323/323/323
f 298/298/298 323/323/323 322/322/322
f 299/299/299 300/300/300 324/324/324
f 299/299/299 324/324/324 323/323/323
f 300/300/300 301/301/301 325/325/325
f 300/300/300 325/325/325 324/324/324
f 301/301/301 302/302/302 326/326/326
f 301/301/301 326/326/326 325/325/325
f 302/302/302 303/303/303 327/327/327
f 302/302/302 327/327/327 326/326/326
f 303/303/303 304/304/304 328/328/328
f 303/303/303 328/328/328 327/327/327
f 304/304/304 305/305/305 329/329/329
f 304/304/304 329/329/329 328/328/328
f 305/305/305 306/306/306 330/330/330
f 305/305/305 330/330/330 329/329/329
f 306/306/306 307/307/307 331/331/331
f 306/306/306 331/331/331 330/330/330
f 307/307/307 308/308/308 332/332/332
f 307/307/307 332/332/332 331/331/331
f 308/308/308 309/309/309 333/333/333
f 308/308/308 333/333/333 332/332/332
f 309/309/309 310/310/310 334/334/334
f 309/309/309 334/334/334 333/333/333
f 310/310/310 311/311/311 335/335/335
f 310/310/310 335/335/335 334/334/334
f 311/311/311 312/312/312 336/336/336
f 311/311/311 336/336/336 335/335/335
f 312/312/312 289/289/289 313/313/313
f 312/312/312 313/313/313 336/336/336
f 313/313/313 314/314/314 338/338/338
f 313/313/313 338/338/338 337/337/337
f 314/314/314 315/315/315 339/339/339
f 314/314/314 339/339/339 338/338/338
f 315/315/315 316/316/316 340/340/340
f 315/315/315 340/340/340 339/339/339
f 316/316/316 317/317/317 341/341/341
f 316/316/316 341/341/341 340/340/340
f 317/317/317 318/318/318 342/342/342
f 317/317/317 342/342/342 341/341/341
f 318/318/318 319/319/319 343/343/343
f 318/318/318 343/343/343 342/342/342
f 319/319/319 320/320/320 344/344/344
f 319/319/319 344/344/344 343/343/343
f 320/320/320 321/321/321 345/345/345
f 320/320/320 345/345/345 344/344/344
f 321/321/321 322/322/322 346/346/346
f 321/321/321 346/346/346 345/345/345
f 322/322/322 323/323/323 347/347/347
f 322/322/322 347/347/347 346/346/346
f 323/323/323 324/324/324 348/348/348
f 323/323/323 348/348/348 347/347/347
f 324/324/324 325/325/325 349/349/349
f 324/324/324 349/349/349 348/348/348
f 325/325/325 326/326/326 350/350/350
f 325/325/325 350/350/350 349/349/349
f 326/326/326 327/327/327 351/351/351
f 326/326/326 351/351/351 350/350/350
f 327/327/327 328/328/328 352/352/352
f 327/327/327 352/352/352 351/351/351
f 328/328/328 329/329/329 353/353/353
f 328/328/328 353/353/353 352/352/352
f 329/329/329 330/330/330 354/354/354
f 329/329/329 354/354/354 353/353/353
f 330/330/330 331/331/331 355/355/355
f 330/330/330 355/355/355 354/354/354
f 331/331/331 332/332/332 356/356/356
f 331/331/331 356/356/356 355/355/355
f 332/332/332 333/333/333 357/357/357
f 332/332/332 357/357/357 356/356/356
f 333/333/333 334/334/334 358/358/358
f 333/333/333 358/358/358 357/357/357
f 334/334/334 335/335/335 359/359/359
f 334/334/334 359/359/359 358/358/358
f 335/335/335 336/336/336 360/360/360
f 335/335/335 360/360/360 359/359/359
f 336/336/336 313/313/313 337/337/337
f 336/336/336 337/337/337 360/360/360
f 337/337/337 338/338/338 362/362/362
f 337/337/337 362/362/362 361/361/361
f 338/338/338 339/339/339 363/363/363
f 338/338/338 363/363/363 362/362/362
f 339/339/339 340/340/340 364/364/364
f 339/339/339 364/364/364 363/363/363
f 340/340/340 341/341/341 365/365/365
f 340/340/340 365/365/365 364/364/364
f 341/341/341 342/342/342 366/366/366
f 341/341/341 366/366/366 365/365/365
f 342/342/342 343/343/343 367/367/367
f 342/342/342 367/367/367 366/366/366
f 343/343/343 344/344/344 368/368/368
f 343/343/343 368/368/368 367/367/367
f 344/344/344 345/345/345 369/369/369
f 344/344/344 369/369/369 368/368/368
f 345/345/345 346/346/346 370/370/370
f 345/345/345 370/370/370 369/369/369
f 346/346/346 347/347/347 371/371/371
f 346/346/346 371/371/371 370/370/370
f 347/347/347 348/348/348 372/372/372
f 347/347/347 372/372/372 371/371/371
f 348/348/348 349/349/349 373/373/373
f 348/348/348 373/373/373 372/372/372
f 349/349/349 350/350/350 374/374/374
f 349/349/349 374/374/374 373/373/373
f 350/350/350 351/351/351 375/375/375
f 350/350/350 375/375/375 374/374/374
f 351/351/351 352/352/352 376/376/376
f 351/351/351 376/376/376 375/375/375
f 352/352/352 353/353/353 377/377/377
f 352/352/352 377/377/377 376/376/376
f 353/353/353 354/354/354 378/378/378
f 353/353/353 378/378/378 377/377/377
f 354/354/354 355/355/355 379/379/379
f 354/354/354 379/379/379 378/378/378
f 355/355/355 356/356/356 380/380/380
f 355/355/355 380/380/380 379/379/379
f 356/356/356 357/357/357 381/381/381
f 356/356/356 381/381/381 380/380/380
f 357/357/357 358/358/358 382/382/382
f 357/357/357 382/382/382 381/381/381
f 358/358/358 359/359/359 383/383/383
f 358/358/358 383/383/383 382/382/382
f 359/359/359 360/360/360 384/384/384
f 359/359/359 384/384/384 383/383/383
f 360/360/360 337/337/337 361/361/361
f 360/360/360 361/361/361 384/384/384
f 361/361/361 362/362/362 386/386/386
f 361/361/361 386/386/386 385/385/385
f 362/362/362 363/363/363 387/387/387
f 362/362/362 387/387/387 386/386/386
f 363/363/363 364/364/364 388/388/388
f 363/363/363 388/388/388 387/387/387
f 364/364/364 365/365/365 389/389/389
f 364/364/364 389/389/389 388/388/388
f 365/365/365 366/366/366 390/390/390
f 365/365/365 390/390/390 389/389/389
f 366/366/366 367/367/367 391/391/391
f 366/366/366 391/391/391 390/390/390
f 367/367/367 368/368/368 392/392/392
f 367/367/367 392/392/392 391/391/391
f 368/368/368 369/369/369 393/393/393
f 368/368/368 393/393/393 392/392/392
f 369/369/369 370/370/370 394/394/394
f 369/369/369 394/394/394 393/393/393
f 370/370/370 371/371/371 395/395/395
f 370/370/370 395/395/395 394/394/394
f 371/371/371 372/372/372 396/396/396
f 371/371/371 396/396/396 395/395/395
f 372/372/372 373/373/373 397/397/397
f 372/372/372 397/397/397 396/396/396
f 373/373/373 374/374/374 398/398/398
f 373/373/373 398/398/398 397/397/397
f 374/374/374 375/375/375 399/399/399
f 374/374/374 399/399/399 398/398/398
f 375/375/375 376/376/376 400/400/400
f 375/375/375 400/400/400 399/399/399
f 376/376/376 377/377/377 401/401/401
f 376/376/376 401/401/401 400/400/400
f 377/377/377 378/378/378 402/402/402
f 377/377/377 402/402/402 401/401/401
f 378/378/378 379/379/379 403/403/403
f 378/378/378 403/403/403 402/402/402
f 379/379/379 380/380/380 404/404/404
f 379/379/379 404/404/404 403/403/403
f 380/380/380 381/381/381 405/405/405
f 380/380/380 405/405/405 404/404/404
f 381/381/381 382/382/382 406/406/406
f 381/381/381 406/406/406 405/405/405
f 382/382/382 383/383/383 407/407/407
f 382/382/382 407/407/407 406/406/406
f 383/383/383 384/384/384 408/408/408
f 383/383/383 408/408/408 407/407/407
f 384/384/384 361/361/361 385/385/385
f 384/384/384 385/385/385 408/408/408
f 385/385/385 386/386/386 410/410/410
f 385/385/385 410/410/410 409/409/409
f 386/386/386 387/387/387 411/411/411
f 386/386/386 411/411/411 410/410/410
f 387/387/387 388/388/388 412/412/412
f 387/387/387 412/412/412 411/411/411
f 388/388/388 389/389/389 413/413/413
f 388/388/388 413/413/413 412/412/412
f 389/389/389 390/390/390 414/414/414
f 389/389/389 414/414/414 413/413/413
f 390/390/390 391/391/391 415/415/415
f 390/390/390 415/415/415 414/414/414
f 391/391/391 392/392/392 416/416/416
f 391/391/391 416/416/416 415/415/415
f 392/392/392 393/393/393 417/417/417
f 392/392/392 417/417/417 416/416/416
f 393/393/393 394/394/394 418/418/418
f 393/393/393 418/418/418 417/417/417
f 394/394/394 395/395/395 419/419/419
f 394/394/394 419/419/419 418/418/418
f 395/395/395 396/396/396 420/420/420
f 395/395/395 420/420/420 419/419/419
f 396/396/396 397/397/397 421/421/421
f 396/396/396 421/421/421 420/420/420
f 397/397/397 398/398/398 422/422/422
f 397/397/397 422/422/422 421/421/421
f 398/398/398 399/399/399 423/423/423
f 398/398/398 423/423/423 422/422/422
f 399/399/399 400/400/400 424/424/424
f 399/399/399 424/424/424 423/423/423
f 400/400/400 401/401/401 425/425/425
f 400/400/400 425/425/425 424/424/424
f 401/401/401 402/402/402 426/426/426
f 401/401/401 426/426/426 425/425/425
f 402/402/402 403/403/403 427/427/427
f 402/402/402 427/427/427 426/426/426
f 403/403/403 404/404/404 428/428/428
f 403/403/403 428/428/428 427/427/427
f 404/404/404 405/405/405 429/429/429
f 404/404/404 429/429/429 428/428/428
f 405/405/405 406/406/406 430/430/430
f 405/405/405 430/430/430 429/429/429
f 406/406/406 407/407/407 431/431/431
f 406/406/406 431/431/431 430/430/430
f 407/407/407 408/408/408 432/432/432
f 407/407/407 432/432/432 431/431/431
f 408/408/408 385/385/385 409/409/409
f 408/408/408 409/409/409 432/432/432
f 409/409/409 410/410/410 434/434/434
f 409/409/409 434/434/434 433/433/433
f 410/410/410 411/411/411 435/435/435
f 410/410/410 435/435/435 434/434/434
f 411/411/411 412/412/412 436/436/436
f 411/411/411 436/436/436 435/435/435
f 412/412/412 413/413/413 437/437/437
f 412/412/412 437/437/437 436/436/436
f 413/413/413 414/414/414 438/438/438
f 413/413/413 438/438/438 437/437/437
f 414/414/414 415/415/415 439/439/439
f 414/414/414 439/439/439 438/438/438
f 415/415/415 416/416/416 440/440/440
f 415/415/415 440/440/440 439/439/439
f 416/416/416 417/417/417 441/441/441
f 416/416/416 441/441/441 440/440/440
f 417/417/417 418/418/418 442/442/442
f 417/417/417 442/442/442 441/441/441
f 418/418/418 419/419/419 443/443/443
f 418/418/418 443/443/443 442/442/442
f 419/419/419 420/420/420 444/444/444
f 419/419/419 444/444/444 443/443/443
f 420/420/420 421/421/421 445/445/445
f 420/420/420 445/445/445 444/444/444
f 421/421/421 422/422/422 446/446/446
f 421/421/421 446/446/446 445/445/445
f 422/422/422 423/423/423 447/447/447
f 422/422/422 447/447/447 446/446/446
f 423/423/423 424/424/424 448/448/448
f 423/423/423 448/448/448 447/447/447
f 424/424/424 425/425/425 449/449/449
f 424/424/424 449/449/449 448/448/448
f 425/425/425 426/426/426 450/450/450
f 425/425/425 450/450/450 449/449/449
f 426/426/426 427/427/427 451/451/451
f 426/426/426 451/451/451 450/450/450
f 427/427/427 428/428/428 452/452/452
f 427/427/427 452/452/452 451/451/451
f 428/428/428 429/429/429 453/453/453
f 428/428/428 453/453/453 452/452/452
f 429/429/429 430/430/430 454/454/454
f 429/429/429 454/454/454 453/453/453
f 430/430/430 431/431/431 455/455/455
f 430/430/430 455/455/455 454/454/454
f 431/431/431 432/432/432 456/456/456
f 431/431/431 456/456/456 455/455/455
f 432/432/432 409/409/409 433/433/433
f 432/432/432 433/433/433 456/456/456
f 433/433/433 434/434/434 458/458/458
f 433/433/433 458/458/458 457/457/457
f 434/434/434 435/435/435 459/459/459
f 434/434/434 459/459/459 458/458/458
f 435/435/435 436/436/436 460/460/460
f 435/435/435 460/460/460 459/459/459
f 436/436/436 437/437/437 461/461/461
f 436/436/436 461/461/461 460/460/460
f 437/437/437 438/438/438 462/462/462
f 437/437/437 462/462/462 461/461/461
f 438/438/438 439/439/439 463/463/463
f 438/438/438 463/463/463 462/462/462
f 439/439/439 440/440/440 464/464/464
f 439/439/439 464/464/464 463/463/463
f 440/440/440 441/441/441 465/465/465
f 440/440/440 465/465/465 464/464/464
f 441/441/441 442/442/442 466/466/466
f 441/441/441 466/466/466 465/465/465
f 442/442/442 443/443/443 467/467/467
f 442/442/442 467/467/467 466/466/466
f 443/443/443 444/444/444 468/468/468
f 443/443/443 468/468/468 467/467/467
f 444/444/444 445/445/445 469/469/469
f 444/444/444 469/469/469 468/468/468
f 445/445/445 446/446/446 470/470/470
f 445/445/445 470/470/470 469/469/469
f 446/446/446 447/447/447 471/471/471
f 446/446/446 471/471/471 470/470/470
f 447/447/447 448/448/448 472/472/472
f 447/447/447 472/472/472 471/471/471
f 448/448/448 449/449/449 473/473/473
f 448/448/448 473/473/473 472/472/472
f 449/449/449 450/450/450 474/474/474
f 449/449/449 474/474/474 473/473/473
f 450/450/450 451/451/451 475/475/475
f 450/450/450 475/475/475 474/474/474
f 451/451/451 452/452/452 476/476/476
f 451/451/451 476/476/476 475/475/475
f 452/452/452 453/453/453 477/477/477
f 452/452/452 477/477/477 476/476/476
f 453/453/453 454/454/454 478/478/478
f 453/453/453 478/478/478 477/477/477
f 454/454/454 455/455/455 479/479/479
f 454/454/454 479/479/479 478/478/478
f 455/455/455 456/456/456 480/480/480
f 455/455/455 480/480/480 479/479/479
f 456/456/456 433/433/433 457/457/457
f 456/456/456 457/457/457 480/480/480
f 457/457/457 458/458/458 482/482/482
f 457/457/457 482/482/482 481/481/481
f 458/458/458 459/459/459 483/483/483
f 458/458/458 483/483/483 482/482/482
f 459/459/459 460/460/460 484/484/484
f 459/459/459 484/484/484 483/483/483
f 460/460/460 461/461/461 485/485/485
f 460/460/460 485/485/485 484/484/484
f 461/461/461 462/462/462 486/486/486
f 461/461/461 486/486/486 485/485/485
f 462/462/462 463/463/463 487/487/487
f 462/462/462 487/487/487 486/486/486
f 463/463/463 464/464/464 488/488/488
f 463/463/463 488/488/488 487/487/487
f 464/464/464 465/465/465 489/489/489
f 464/464/464 489/489/489 488/488/488
f 465/465/465 466/466/466 490/490/490
f 465/465/465 490/490/490 489/489/489
f 466/466/466 467/467/467 491/491/491
f 466/466/466 491/491/491 490/490/490
f 467/467/467 468/468/468 492/492/492
f 467/467/467 492/492/492 491/491/491
f 468/468/468 469/469/469 493/493/493
f 468/468/468 493/493/493 492/492/492
f 469/469/469 470/470/470 494/494/494
f 469/469/469 494/494/494 493/493/493
f 470/470/470 471/471/471 495/495/495
f 470/470/470 495/495/495 494/494/494
f 471/471/471 472/472/472 496/496/496
f 471/471/471 496/496/496 495/495/495
f 472/472/472 473/473/473 497/497/497
f 472/472/472 497/497/497 496/496/496
f 473/473/473 474/474/474 498/498/498
f 473/473/473 498/498/498 497/497/497
f 474/474/474 475/475/475 499/499/499
f 474/474/474 499/499/499 498/498/498
f 475/475/475 476/476/476 500/500/500
f 475/475/475 500/500/500 499/499/499
f 476/476/476 477/477/477 501/501/501
f 476/476/476 501/501/501 500/500/500
f 477/477/477 478/478/478 502/502/502
f 477/477/477 502/502/502 501/501/501
f 478/478/478 479/479/479 503/503/503
f 478/478/478 503/503/503 502/502/502
f 479/479/479 480/480/480 504/504/504
f 479/479/479 504/504/504 503/503/503
f 480/480/480 457/457/457 481/481/481
f 480/480/480 481/481/481 504/504/504
f 481/481/481 482/482/482 506/506/506
f 481/481/481 506/506/506 505/505/505
f 482/482/482 483/483/483 507/507/507
f 482/482/482 507/507/507 506/506/506
f 483/483/483 484/484/484 508/508/508
f 483/483/483 508/508/508 507/507/507
f 484/484/484 485/485/485 509/509/509
f 484/484/484 509/509/509 508/508/508
f 485/485/485 486/486/486 510/510/510
f 485/485/485 510/510/510 509/509/509
f 486/486/486 487/487/487 511/511/511
f 486/486/486 511/511/511 510/510/510
f 487/487/487 488/488/488 512/512/512
f 487/487/487 512/512/512 511/511/511
f 488/488/488 489/489/489 513/513/513
f 488/488/488 513/513/513 512/512/512
f 489/489/489 490/490/490 514/514/514
f 489/489/489 514/514/514 513/513/513
f 490/490/490 491/491/491 515/515/515
f 490/490/490 515/515/515 514/514/514
f 491/491/491 492/492/492 516/516/516
f 491/491/491 516/516/516 515/515/515
f 492/492/492 493/493/493 517/517/517
f 492/492/492 517/517/517 516/516/516
f 493/493/493 494/494/494 518/518/518
f 493/493/493 518/518/518 517/517/517
f 494/494/494 495/495/495 519/519/519
f 494/494/494 519/519/519 518/518/518
f 495/495/495 496/496/496 520/520/520
f 495/495/495 520/520/520 519/519/519
f 496/496/496 497/497/497 521/521/521
f 496/496/496 521/521/521 520/520/520
f 497/497/497 498/498/498 522/522/522
f 497/497/497 522/522/522 521/521/521
f 498/498/498 499/499/499 523/523/523
f 498/498/498 523/523/523 522/522/522
f 499/499/499 500/500/500 524/524/524
f 499/499/499 524/524/524 523/523/523
f 500/500/500 501/501/501 525/525/525
f 500/500/500 525/525/525 524/524/524
f 501/501/501 502/502/502 526/526/526
f 501/501/501 526/526/526 525/525/525
f 502/502/502 503/503/503 527/527/527
f 502/502/502 527/527/527 526/526/526
f 503/503/503 504/504/504 528/528/528
f 503/503/503 528/528/528 527/527/527
f 504/504/504 481/481/481 505/505/505
f 504/504/504 505/505/505 528/528/528
f 505/505/505 506/506/506 530/530/530
f 505/505/505 530/530/530 529/529/529
f 506/506/506 507/507/507 531/531/531
f 506/506/506 531/531/531 530/530/530
f 507/507/507 508/508/508 532/532/532
f 507/507/507 532/532/532 531/531/531
f 508/508/508 509/509/509 533/533/533
f 508/508/508 533/533/533 532/532/532
f 509/509/509 510/510/510 534/534/534
f 509/509/509 534/534/534 533/533/533
f 510/510/510 511/511/511 535/535/535
f 510/510/510 535/535/535 534/534/534
f 511/511/511 512/512/512 536/536/536
f 511/511/511 536/536/536 535/535/535
f 512/512/512 513/513/513 537/537/537
f 512/512/512 537/537/537 536/536/536
f 513/513/513 514/514/514 538/538/538
f 513/513/513 538/538/538 537/537/537
f 514/514/514 515/515/515 539/539/539
f 514/514/514 539/539/539 538/538/538
f 515/515/515 516/516/516 540/540/540
f 515/515/515 540/540/540 539/539/539
f 516/516/516 517/517/517 541/541/541
f 516/516/516 541/541/541 540/540/540
f 517/517/517 518/518/518 542/542/542
f 517/517/517 542/542/542 541/541/541
f 518/518/518 519/519/519 543/543/543
f 518/518/518 543/543/543 542/542/542
f 519/519/519 520/520/520 544/544/544
f 519/519/519 544/544/544 543/543/543
f 520/520/520 521/521/521 545/545/545
f 520/520/520 545/545/545 544/544/544
f 521/521/521 522/522/522 546/546/546
f 521/521/521 546/546/546 545/545/545
f 522/522/522 523/523/523 547/547/547
f 522/522/522 547/547/547 546/546/546
f 523/523/523 524/524/524 548/548/548
f 523/523/523 548/548/548 547/547/547
f 524/524/524 525/525/525 549/549/549
f 524/524/524 549/549/549 548/548/548
f 525/525/525 526/526/526 550/550/550
f 525/525/525 550/550/550 549/549/549
f 526/526/526 527/527/527 551/551/551
f 526/526/526 551/551/551 550/550/550
f 527/527/527 528/528/528 552/552/552
f 527/527/527 552/552/552 551/551/551
f 528/528/528 505/505/505 529/529/529
f 528/528/528 529/529/529 552/552/552
f 529/529/529 530/530/530 554/554/554
f 529/529/529 554/554/554 553/553/553
f 530/530/530 531/531/531 555/555/555
f 530/530/530 555/555/555 554/554/554
f 531/531/531 532/532/532 556/556/556
f 531/531/531 556/556/556 555/555/555
f 532/532/532 533/533/533 557/557/557
f 532/532/532 557/557/557 556/556/556
f 533/533/533 534/534/534 558/558/558
f 533/533/533 558/558/558 557/557/557
f 534/534/534 535/535/535 559/559/559
f 534/534/534 559/559/559 558/558/558
f 535/535/535 536/536/536 560/560/560
f 535/535/535 560/560/560 559/559/559
f 536/536/536 537/537/537 561/561/561
f 536/536/536 561/561/561 560/560/560
f 537/537/537 538/538/538 562/562/562
f 537/537/537 562/562/562 561/561/561
f 538/538/538 539/539/539 563/563/563
f 538/538/538 563/563/563 562/562/562
f 539/539/539 540/540/540 564/564/564
f 539/539/539 564/564/564 563/563/563
f 540/540/540 541/541/541 565/565/565
f 540/540/540 565/565/565 564/564/564
f 541/541/541 542/542/542 566/566/566
f 541/541/541 566/566/566 565/565/565
f 542/542/542 543/543/543 567/567/567
f 542/542/542 567/567/567 566/566/566
f 543/543/543 544/544/544 568/568/568
f 543/543/543 568/568/568 567/567/567
f 544/544/544 545/545/545 569/569/569
f 544/544/544 569/569/569 568/568/568
f 545/545/545 546/546/546 570/570/570
f 545/545/545 570/570/570 569/569/569
f 546/546/546 547/547/547 571/571/571
f 546/546/546 571/571/571 570/570/570
f 547/547/547 548/548/548 572/572/572
f 547/547/547 572/572/572 571/571/571
f 548/548/548 549/549/549 573/573/573
f 548/548/548 573/573/573 572/572/572
f 549/549/549 550/550/550 574/574/574
f 549/549/549 574/574/574 573/573/573
f 550/550/550 551/551/551 575/575/575
f 550/550/550 575/575/575 574/574/574
f 551/551/551 552/552/552 576/576/576
f 551/551/551 576/576/576 575/575/575
f 552/552/552 529/529/529 553/553/553
f 552/552/552 553/553/553 576/576/576
f 577/577/577 2/2/2 1/1/1
f 577/577/577 3/3/3 2/2/2
f 577/577/577 4/4/4 3/3/3
f 577/577/577 5/5/5 4/4/4
f 577/577/577 6/6/6 5/5/5
f 577/577/577 7/7/7 6/6/6
f 577/577/577 8/8/8 7/7/7
f 577/577/577 9/9/9 8/8/8
f 577/577/577 10/10/10 9/9/9
f 577/577/577 11/11/11 10/10/10
f 577/577/577 12/12/12 11/11/11
f 577/577/577 13/13/13 12/12/12
f 577/577/577 14/14/14 13/13/13
f 577/577/577 15/15/15 14/14/14
f 577/577/577 16/16/16 15/15/15
f 577/577/577 17/17/17 16/16/16
f 577/577/577 18/18/18 17/17/17
f 577/577/577 19/19/19 18/18/18
f 577/577/577 20/20/20 19/19/19
f 577/577/577 21/21/21 20/20/20
f 577/577/577 22/22/22 21/21/21
f 577/577/577 23/23/23 22/22/22
f 577/577/577 24/24/24 23/23/23
f 577/577/577 1/1/1 24/24/24
f 578/578/578 553/553/553 554/554/554
f 578/578/578 554/554/554 555/555/555
f 578/578/578 555/555/555 556/556/556
f 578/578/578 556/556/556 557/557/557
f 578/578/578 557/557/557 558/558/558
f 578/578/578 558/558/558 559/559/559
f 578/578/578 559/559/559 560/560/560
f 578/578/578 560/560/560 561/561/561
f 578/578/578 561/561/561 562/562/562
f 578/578/578 562/562/562 563/563/563
f 578/578/578 563/563/563 564/564/564
f 578/578/578 564/564/564 565/565/565
f 578/578/578 565/565/565 566/566/566
f 578/578/578 566/566/566 567/567/567
f 578/578/578 567/567/567 568/568/568
f 578/578/578 568/568/568 569/569/569
f 578/578/578 569/569/569 570/570/570
f 578/578/578 570/570/570 571/571/571
f 578/578/578 571/571/571 572/572/572
f 578/578/578 572/572/572 573/573/573
f 578/578/578 573/573/573 574/574/574
f 578/578/578 574/574/574 575/575/575
f 578/578/578 575/575/575 576/576/576
f 578/578/578 576/576/576 553/553/553
