# procedural placeholder mesh: farmer_overalls_hips
v 0.09000 -0.15000 0.00000
v 0.08886 -0.15000 0.01860
v 0.08545 -0.15000 0.03272
v 0.07983 -0.15000 0.04490
v 0.07208 -0.15000 0.05535
v 0.06227 -0.15000 0.06407
v 0.05051 -0.15000 0.07096
v 0.03681 -0.15000 0.07596
v 0.02092 -0.15000 0.07899
v 0.00000 -0.15000 0.08000
v -0.02092 -0.15000 0.07899
v -0.03681 -0.15000 0.07596
v -0.05051 -0.15000 0.07096
v -0.06227 -0.15000 0.06407
v -0.07208 -0.15000 0.05535
v -0.07983 -0.15000 0.04490
v -0.08545 -0.15000 0.03272
v -0.08886 -0.15000 0.01860
v -0.09000 -0.15000 0.00000
v -0.08886 -0.15000 -0.01860
v -0.08545 -0.15000 -0.03272
v -0.07983 -0.15000 -0.04490
v -0.07208 -0.15000 -0.05535
v -0.06227 -0.15000 -0.06407
v -0.05051 -0.15000 -0.07096
v -0.03681 -0.15000 -0.07596
v -0.02092 -0.15000 -0.07899
v -0.00000 -0.15000 -0.08000
v 0.02092 -0.15000 -0.07899
v 0.03681 -0.15000 -0.07596
v 0.05051 -0.15000 -0.07096
v 0.06227 -0.15000 -0.06407
v 0.07208 -0.15000 -0.05535
v 0.07983 -0.15000 -0.04490
v 0.08545 -0.15000 -0.03272
v 0.08886 -0.15000 -0.01860
v 0.11477 -0.13596 0.00000
v 0.11331 -0.13596 0.02184
v 0.10897 -0.13596 0.03842
v 0.10180 -0.13596 0.05272
v 0.09191 -0.13596 0.06499
v 0.07941 -0.13596 0.07523
v 0.06441 -0.13596 0.08332
v 0.04694 -0.13596 0.08919
v 0.02668 -0.13596 0.09274
v 0.00000 -0.13596 0.09393
v -0.02668 -0.13596 0.09274
v -0.04694 -0.13596 0.08919
v -0.06441 -0.13596 0.08332
v -0.07941 -0.13596 0.07523
v -0.09191 -0.13596 0.06499
v -0.10180 -0.13596 0.05272
v -0.10897 -0.13596 0.03842
v -0.11331 -0.13596 0.02184
v -0.11477 -0.13596 0.00000
v -0.11331 -0.13596 -0.02184
v -0.10897 -0.13596 -0.03842
v -0.10180 -0.13596 -0.05272
v -0.09191 -0.13596 -0.06499
v -0.07941 -0.13596 -0.07523
v -0.06441 -0.13596 -0.08332
v -0.04694 -0.13596 -0.08919
v -0.02668 -0.13596 -0.09274
v -0.00000 -0.13596 -0.09393
v 0.02668 -0.13596 -0.09274
v 0.04694 -0.13596 -0.08919
v 0.06441 -0.13596 -0.08332
v 0.07941 -0.13596 -0.07523
v 0.09191 -0.13596 -0.06499
v 0.10180 -0.13596 -0.05272
v 0.10897 -0.13596 -0.03842
v 0.11331 -0.13596 -0.02184
v 0.14039 -0.12223 0.00000
v 0.13861 -0.12223 0.02519
v 0.13330 -0.12223 0.04432
v 0.12453 -0.12223 0.06082
v 0.11243 -0.12223 0.07498
v 0.09714 -0.12223 0.08678
v 0.07879 -0.12223 0.09612
v 0.05742 -0.12223 0.10289
v 0.03264 -0.12223 0.10699
v 0.00000 -0.12223 0.10837
v -0.03264 -0.12223 0.10699
v -0.05742 -0.12223 0.10289
v -0.07879 -0.12223 0.09612
v -0.09714 -0.12223 0.08678
v -0.11243 -0.12223 0.07498
v -0.12453 -0.12223 0.06082
v -0.13330 -0.12223 0.04432
v -0.13861 -0.12223 0.02519
v -0.14039 -0.12223 0.00000
v -0.13861 -0.12223 -0.02519
v -0.13330 -0.12223 -0.04432
v -0.12453 -0.12223 -0.06082
v -0.11243 -0.12223 -0.07498
v -0.09714 -0.12223 -0.08678
v -0.07879 -0.12223 -0.09612
v -0.05742 -0.12223 -0.10289
v -0.03264 -0.12223 -0.10699
v -0.00000 -0.12223 -0.10837
v 0.03264 -0.12223 -0.10699
v 0.05742 -0.12223 -0.10289
v 0.07879 -0.12223 -0.09612
v 0.09714 -0.12223 -0.08678
v 0.11243 -0.12223 -0.07498
v 0.12453 -0.12223 -0.06082
v 0.13330 -0.12223 -0.04432
v 0.13861 -0.12223 -0.02519
v 0.15662 -0.10520 0.00000
v 0.15463 -0.10520 0.02727
v 0.14870 -0.10520 0.04798
v 0.13892 -0.10520 0.06584
v 0.12542 -0.10520 0.08118
v 0.10837 -0.10520 0.09395
v 0.08790 -0.10520 0.10407
v 0.06405 -0.10520 0.11139
v 0.03641 -0.10520 0.11583
v 0.00000 -0.10520 0.11732
v -0.03641 -0.10520 0.11583
v -0.06405 -0.10520 0.11139
v -0.08790 -0.10520 0.10407
v -0.10837 -0.10520 0.09395
v -0.12542 -0.10520 0.08118
v -0.13892 -0.10520 0.06584
v -0.14870 -0.10520 0.04798
v -0.15463 -0.10520 0.02727
v -0.15662 -0.10520 0.00000
v -0.15463 -0.10520 -0.02727
v -0.14870 -0.10520 -0.04798
v -0.13892 -0.10520 -0.06584
v -0.12542 -0.10520 -0.08118
v -0.10837 -0.10520 -0.09395
v -0.08790 -0.10520 -0.10407
v -0.06405 -0.10520 -0.11139
v -0.03641 -0.10520 -0.11583
v -0.00000 -0.10520 -0.11732
v 0.03641 -0.10520 -0.11583
v 0.06405 -0.10520 -0.11139
v 0.08790 -0.10520 -0.10407
v 0.10837 -0.10520 -0.09395
v 0.12542 -0.10520 -0.08118
v 0.13892 -0.10520 -0.06584
v 0.14870 -0.10520 -0.04798
v 0.15463 -0.10520 -0.02727
v 0.15995 -0.07861 0.00000
v 0.15792 -0.07861 0.02762
v 0.15187 -0.07861 0.04858
v 0.14188 -0.07861 0.06667
v 0.12809 -0.07861 0.08219
v 0.11067 -0.07861 0.09513
v 0.08977 -0.07861 0.10537
v 0.06542 -0.07861 0.11279
v 0.03719 -0.07861 0.11728
v 0.00000 -0.07861 0.11879
v -0.03719 -0.07861 0.11728
v -0.06542 -0.07861 0.11279
v -0.08977 -0.07861 0.10537
v -0.11067 -0.07861 0.09513
v -0.12809 -0.07861 0.08219
v -0.14188 -0.07861 0.06667
v -0.15187 -0.07861 0.04858
v -0.15792 -0.07861 0.02762
v -0.15995 -0.07861 0.00000
v -0.15792 -0.07861 -0.02762
v -0.15187 -0.07861 -0.04858
v -0.14188 -0.07861 -0.06667
v -0.12809 -0.07861 -0.08219
v -0.11067 -0.07861 -0.09513
v -0.08977 -0.07861 -0.10537
v -0.06542 -0.07861 -0.11279
v -0.03719 -0.07861 -0.11728
v -0.00000 -0.07861 -0.11879
v 0.03719 -0.07861 -0.11728
v 0.06542 -0.07861 -0.11279
v 0.08977 -0.07861 -0.10537
v 0.11067 -0.07861 -0.09513
v 0.12809 -0.07861 -0.08219
v 0.14188 -0.07861 -0.06667
v 0.15187 -0.07861 -0.04858
v 0.15792 -0.07861 -0.02762
v 0.16186 -0.03959 0.00000
v 0.15980 -0.03959 0.02779
v 0.15368 -0.03959 0.04889
v 0.14357 -0.03959 0.06710
v 0.12962 -0.03959 0.08272
v 0.11199 -0.03959 0.09574
v 0.09084 -0.03959 0.10605
v 0.06620 -0.03959 0.11351
v 0.03763 -0.03959 0.11804
v 0.00000 -0.03959 0.11955
v -0.03763 -0.03959 0.11804
v -0.06620 -0.03959 0.11351
v -0.09084 -0.03959 0.10605
v -0.11199 -0.03959 0.09574
v -0.12962 -0.03959 0.08272
v -0.14357 -0.03959 0.06710
v -0.15368 -0.03959 0.04889
v -0.15980 -0.03959 0.02779
v -0.16186 -0.03959 0.00000
v -0.15980 -0.03959 -0.02779
v -0.15368 -0.03959 -0.04889
v -0.14357 -0.03959 -0.06710
v -0.12962 -0.03959 -0.08272
v -0.11199 -0.03959 -0.09574
v -0.09084 -0.03959 -0.10605
v -0.06620 -0.03959 -0.11351
v -0.03763 -0.03959 -0.11804
v -0.00000 -0.03959 -0.11955
v 0.03763 -0.03959 -0.11804
v 0.06620 -0.03959 -0.11351
v 0.09084 -0.03959 -0.10605
v 0.11199 -0.03959 -0.09574
v 0.12962 -0.03959 -0.08272
v 0.14357 -0.03959 -0.06710
v 0.15368 -0.03959 -0.04889
v 0.15980 -0.03959 -0.02779
v 0.16287 0.00175 0.00000
v 0.16080 0.00175 0.02789
v 0.15464 0.00175 0.04906
v 0.14447 0.00175 0.06732
v 0.13043 0.00175 0.08299
v 0.11269 0.00175 0.09606
v 0.09141 0.00175 0.10640
v 0.06661 0.00175 0.11389
v 0.03786 0.00175 0.11843
v 0.00000 0.00175 0.11995
v -0.03786 0.00175 0.11843
v -0.06661 0.00175 0.11389
v -0.09141 0.00175 0.10640
v -0.11269 0.00175 0.09606
v -0.13043 0.00175 0.08299
v -0.14447 0.00175 0.06732
v -0.15464 0.00175 0.04906
v -0.16080 0.00175 0.02789
v -0.16287 0.00175 0.00000
v -0.16080 0.00175 -0.02789
v -0.15464 0.00175 -0.04906
v -0.14447 0.00175 -0.06732
v -0.13043 0.00175 -0.08299
v -0.11269 0.00175 -0.09606
v -0.09141 0.00175 -0.10640
v -0.06661 0.00175 -0.11389
v -0.03786 0.00175 -0.11843
v -0.00000 0.00175 -0.11995
v 0.03786 0.00175 -0.11843
v 0.06661 0.00175 -0.11389
v 0.09141 0.00175 -0.10640
v 0.11269 0.00175 -0.09606
v 0.13043 0.00175 -0.08299
v 0.14447 0.00175 -0.06732
v 0.15464 0.00175 -0.04906
v 0.16080 0.00175 -0.02789
v 0.16271 0.03705 0.00022
v 0.16065 0.03705 0.02804
v 0.15450 0.03705 0.04916
v 0.14433 0.03705 0.06738
v 0.13031 0.03705 0.08301
v 0.11259 0.03705 0.09604
v 0.09132 0.03705 0.10636
v 0.06655 0.03705 0.11383
v 0.03783 0.03705 0.11836
v 0.00000 0.03705 0.11987
v -0.03783 0.03705 0.11836
v -0.06655 0.03705 0.11383
v -0.09132 0.03705 0.10636
v -0.11259 0.03705 0.09604
v -0.13031 0.03705 0.08301
v -0.14433 0.03705 0.06738
v -0.15450 0.03705 0.04916
v -0.16065 0.03705 0.02804
v -0.16271 0.03705 0.00022
v -0.16065 0.03705 -0.02759
v -0.15450 0.03705 -0.04871
v -0.14433 0.03705 -0.06693
v -0.13031 0.03705 -0.08257
v -0.11259 0.03705 -0.09560
v -0.09132 0.03705 -0.10591
v -0.06655 0.03705 -0.11338
v -0.03783 0.03705 -0.11791
v -0.00000 0.03705 -0.11943
v 0.03783 0.03705 -0.11791
v 0.06655 0.03705 -0.11338
v 0.09132 0.03705 -0.10591
v 0.11259 0.03705 -0.09560
v 0.13031 0.03705 -0.08257
v 0.14433 0.03705 -0.06693
v 0.15450 0.03705 -0.04871
v 0.16065 0.03705 -0.02759
v 0.16098 0.07119 0.00159
v 0.15894 0.07119 0.02891
v 0.15285 0.07119 0.04966
v 0.14279 0.07119 0.06755
v 0.12892 0.07119 0.08292
v 0.11138 0.07119 0.09572
v 0.09035 0.07119 0.10585
v 0.06584 0.07119 0.11319
v 0.03742 0.07119 0.11764
v 0.00000 0.07119 0.11913
v -0.03742 0.07119 0.11764
v -0.06584 0.07119 0.11319
v -0.09035 0.07119 0.10585
v -0.11138 0.07119 0.09572
v -0.12892 0.07119 0.08292
v -0.14279 0.07119 0.06755
v -0.15285 0.07119 0.04966
v -0.15894 0.07119 0.02891
v -0.16098 0.07119 0.00159
v -0.15894 0.07119 -0.02574
v -0.15285 0.07119 -0.04649
v -0.14279 0.07119 -0.06438
v -0.12892 0.07119 -0.07974
v -0.11138 0.07119 -0.09255
v -0.09035 0.07119 -0.10268
v -0.06584 0.07119 -0.11002
v -0.03742 0.07119 -0.11447
v -0.00000 0.07119 -0.11596
v 0.03742 0.07119 -0.11447
v 0.06584 0.07119 -0.11002
v 0.09035 0.07119 -0.10268
v 0.11138 0.07119 -0.09255
v 0.12892 0.07119 -0.07974
v 0.14279 0.07119 -0.06438
v 0.15285 0.07119 -0.04649
v 0.15894 0.07119 -0.02574
v 0.15890 0.10185 0.00324
v 0.15689 0.10185 0.02999
v 0.15088 0.10185 0.05029
v 0.14095 0.10185 0.06781
v 0.12726 0.10185 0.08284
v 0.10995 0.10185 0.09537
v 0.08918 0.10185 0.10529
v 0.06499 0.10185 0.11247
v 0.03694 0.10185 0.11683
v 0.00000 0.10185 0.11829
v -0.03694 0.10185 0.11683
v -0.06499 0.10185 0.11247
v -0.08918 0.10185 0.10529
v -0.10995 0.10185 0.09537
v -0.12726 0.10185 0.08284
v -0.14095 0.10185 0.06781
v -0.15088 0.10185 0.05029
v -0.15689 0.10185 0.02999
v -0.15890 0.10185 0.00324
v -0.15689 0.10185 -0.02351
v -0.15088 0.10185 -0.04381
v -0.14095 0.10185 -0.06133
v -0.12726 0.10185 -0.07636
v -0.10995 0.10185 -0.08889
v -0.08918 0.10185 -0.09881
v -0.06499 0.10185 -0.10599
v -0.03694 0.10185 -0.11035
v -0.00000 0.10185 -0.11180
v 0.03694 0.10185 -0.11035
v 0.06499 0.10185 -0.10599
v 0.08918 0.10185 -0.09881
v 0.10995 0.10185 -0.08889
v 0.12726 0.10185 -0.07636
v 0.14095 0.10185 -0.06133
v 0.15088 0.10185 -0.04381
v 0.15689 0.10185 -0.02351
v 0.15788 0.12494 0.00412
v 0.15588 0.12494 0.03059
v 0.14990 0.12494 0.05069
v 0.14005 0.12494 0.06803
v 0.12644 0.12494 0.08291
v 0.10924 0.12494 0.09531
v 0.08861 0.12494 0.10513
v 0.06457 0.12494 0.11224
v 0.03670 0.12494 0.11655
v 0.00000 0.12494 0.11799
v -0.03670 0.12494 0.11655
v -0.06457 0.12494 0.11224
v -0.08861 0.12494 0.10513
v -0.10924 0.12494 0.09531
v -0.12644 0.12494 0.08291
v -0.14005 0.12494 0.06803
v -0.14990 0.12494 0.05069
v -0.15588 0.12494 0.03059
v -0.15788 0.12494 0.00412
v -0.15588 0.12494 -0.02236
v -0.14990 0.12494 -0.04246
v -0.14005 0.12494 -0.05979
v -0.12644 0.12494 -0.07468
v -0.10924 0.12494 -0.08708
v -0.08861 0.12494 -0.09690
v -0.06457 0.12494 -0.10401
v -0.03670 0.12494 -0.10832
v -0.00000 0.12494 -0.10976
v 0.03670 0.12494 -0.10832
v 0.06457 0.12494 -0.10401
v 0.08861 0.12494 -0.09690
v 0.10924 0.12494 -0.08708
v 0.12644 0.12494 -0.07468
v 0.14005 0.12494 -0.05979
v 0.14990 0.12494 -0.04246
v 0.15588 0.12494 -0.02236
v 0.15752 0.14166 0.00447
v 0.15552 0.14166 0.03086
v 0.14956 0.14166 0.05090
v 0.13972 0.14166 0.06818
v 0.12615 0.14166 0.08301
v 0.10899 0.14166 0.09538
v 0.08840 0.14166 0.10516
v 0.06442 0.14166 0.11225
v 0.03662 0.14166 0.11654
v 0.00000 0.14166 0.11798
v -0.03662 0.14166 0.11654
v -0.06442 0.14166 0.11225
v -0.08840 0.14166 0.10516
v -0.10899 0.14166 0.09538
v -0.12615 0.14166 0.08301
v -0.13972 0.14166 0.06818
v -0.14956 0.14166 0.05090
v -0.15552 0.14166 0.03086
v -0.15752 0.14166 0.00447
v -0.15552 0.14166 -0.02192
v -0.14956 0.14166 -0.04195
v -0.13972 0.14166 -0.05923
v -0.12615 0.14166 -0.07407
v -0.10899 0.14166 -0.08643
v -0.08840 0.14166 -0.09622
v -0.06442 0.14166 -0.10331
v -0.03662 0.14166 -0.10760
v -0.00000 0.14166 -0.10904
v 0.03662 0.14166 -0.10760
v 0.06442 0.14166 -0.10331
v 0.08840 0.14166 -0.09622
v 0.10899 0.14166 -0.08643
v 0.12615 0.14166 -0.07407
v 0.13972 0.14166 -0.05923
v 0.14956 0.14166 -0.04195
v 0.15552 0.14166 -0.02192
v 0.15726 0.15571 0.00473
v 0.15527 0.15571 0.03106
v 0.14932 0.15571 0.05105
v 0.13950 0.15571 0.06830
v 0.12594 0.15571 0.08310
v 0.10881 0.15571 0.09544
v 0.08826 0.15571 0.10520
v 0.06432 0.15571 0.11227
v 0.03656 0.15571 0.11656
v 0.00000 0.15571 0.11799
v -0.03656 0.15571 0.11656
v -0.06432 0.15571 0.11227
v -0.08826 0.15571 0.10520
v -0.10881 0.15571 0.09544
v -0.12594 0.15571 0.08310
v -0.13950 0.15571 0.06830
v -0.14932 0.15571 0.05105
v -0.15527 0.15571 0.03106
v -0.15726 0.15571 0.00473
v -0.15527 0.15571 -0.02160
v -0.14932 0.15571 -0.04159
v -0.13950 0.15571 -0.05883
v -0.12594 0.15571 -0.07364
v -0.10881 0.15571 -0.08597
v -0.08826 0.15571 -0.09574
v -0.06432 0.15571 -0.10281
v -0.03656 0.15571 -0.10709
v -0.00000 0.15571 -0.10853
v 0.03656 0.15571 -0.10709
v 0.06432 0.15571 -0.10281
v 0.08826 0.15571 -0.09574
v 0.10881 0.15571 -0.08597
v 0.12594 0.15571 -0.07364
v 0.13950 0.15571 -0.05883
v 0.14932 0.15571 -0.04159
v 0.15527 0.15571 -0.02160
v 0.15700 0.17000 0.00500
v 0.15501 0.17000 0.03127
v 0.14907 0.17000 0.05122
v 0.13926 0.17000 0.06842
v 0.12573 0.17000 0.08319
v 0.10863 0.17000 0.09549
v 0.08811 0.17000 0.10524
v 0.06421 0.17000 0.11229
v 0.03650 0.17000 0.11657
v 0.00000 0.17000 0.11800
v -0.03650 0.17000 0.11657
v -0.06421 0.17000 0.11229
v -0.08811 0.17000 0.10524
v -0.10863 0.17000 0.09549
v -0.12573 0.17000 0.08319
v -0.13926 0.17000 0.06842
v -0.14907 0.17000 0.05122
v -0.15501 0.17000 0.03127
v -0.15700 0.17000 0.00500
v -0.15501 0.17000 -0.02127
v -0.14907 0.17000 -0.04122
v -0.13926 0.17000 -0.05842
v -0.12573 0.17000 -0.07319
v -0.10863 0.17000 -0.08549
v -0.08811 0.17000 -0.09524
v -0.06421 0.17000 -0.10229
v -0.03650 0.17000 -0.10657
v -0.00000 0.17000 -0.10800
v 0.03650 0.17000 -0.10657
v 0.06421 0.17000 -0.10229
v 0.08811 0.17000 -0.09524
v 0.10863 0.17000 -0.08549
v 0.12573 0.17000 -0.07319
v 0.13926 0.17000 -0.05842
v 0.14907 0.17000 -0.04122
v 0.15501 0.17000 -0.02127
v 0.00000 -0.15000 0.00000
vn 0.1698 -0.9855 0.0042
vn 0.1617 -0.9864 0.0292
vn 0.1568 -0.9857 0.0625
vn 0.1441 -0.9849 0.0961
vn 0.1261 -0.9836 0.1290
vn 0.1034 -0.9818 0.1595
vn 0.0768 -0.9796 0.1857
vn 0.0479 -0.9773 0.2063
vn 0.0184 -0.9746 0.2231
vn -0.0038 -0.9759 0.2181
vn -0.0273 -0.9784 0.2048
vn -0.0576 -0.9791 0.1952
vn -0.0862 -0.9809 0.1744
vn -0.1119 -0.9827 0.1475
vn -0.1336 -0.9841 0.1167
vn -0.1508 -0.9850 0.0839
vn -0.1632 -0.9853 0.0509
vn -0.1734 -0.9847 0.0191
vn -0.1698 -0.9855 -0.0042
vn -0.1617 -0.9864 -0.0292
vn -0.1568 -0.9857 -0.0625
vn -0.1441 -0.9849 -0.0961
vn -0.1261 -0.9836 -0.1290
vn -0.1034 -0.9818 -0.1595
vn -0.0768 -0.9796 -0.1857
vn -0.0479 -0.9773 -0.2063
vn -0.0184 -0.9746 -0.2231
vn 0.0038 -0.9759 -0.2181
vn 0.0273 -0.9784 -0.2048
vn 0.0576 -0.9791 -0.1952
vn 0.0862 -0.9809 -0.1744
vn 0.1119 -0.9827 -0.1475
vn 0.1336 -0.9841 -0.1167
vn 0.1508 -0.9850 -0.0839
vn 0.1632 -0.9853 -0.0509
vn 0.1734 -0.9847 -0.0191
vn 0.4826 -0.8758 0.0022
vn 0.4786 -0.8748 0.0752
vn 0.4619 -0.8693 0.1757
vn 0.4319 -0.8569 0.2813
vn 0.3860 -0.8366 0.3888
vn 0.3233 -0.8090 0.4909
vn 0.2459 -0.7772 0.5793
vn 0.1586 -0.7467 0.6460
vn 0.0671 -0.7239 0.6866
vn -0.0015 -0.7160 0.6981
vn -0.0716 -0.7239 0.6861
vn -0.1634 -0.7477 0.6436
vn -0.2506 -0.7786 0.5754
vn -0.3275 -0.8104 0.4858
vn -0.3894 -0.8378 0.3827
vn -0.4343 -0.8578 0.2748
vn -0.4633 -0.8699 0.1692
vn -0.4786 -0.8753 0.0693
vn -0.4826 -0.8758 -0.0022
vn -0.4786 -0.8748 -0.0752
vn -0.4619 -0.8693 -0.1757
vn -0.4319 -0.8569 -0.2813
vn -0.3860 -0.8366 -0.3888
vn -0.3233 -0.8090 -0.4909
vn -0.2459 -0.7772 -0.5793
vn -0.1586 -0.7467 -0.6460
vn -0.0671 -0.7239 -0.6866
vn 0.0015 -0.7160 -0.6981
vn 0.0716 -0.7239 -0.6861
vn 0.1634 -0.7477 -0.6436
vn 0.2506 -0.7786 -0.5754
vn 0.3275 -0.8104 -0.4858
vn 0.3894 -0.8378 -0.3827
vn 0.4343 -0.8578 -0.2748
vn 0.4633 -0.8699 -0.1692
vn 0.4786 -0.8753 -0.0693
vn 0.5975 -0.8019 0.0036
vn 0.5857 -0.8045 0.0985
vn 0.5641 -0.7935 0.2285
vn 0.5202 -0.7743 0.3604
vn 0.4554 -0.7448 0.4877
vn 0.3721 -0.7075 0.6008
vn 0.2759 -0.6675 0.6916
vn 0.1740 -0.6313 0.7558
vn 0.0724 -0.6024 0.7949
vn -0.0024 -0.5991 0.8007
vn -0.0786 -0.6126 0.7865
vn -0.1814 -0.6344 0.7514
vn -0.2839 -0.6689 0.6869
vn -0.3805 -0.7079 0.5950
vn -0.4636 -0.7444 0.4806
vn -0.5279 -0.7729 0.3521
vn -0.5713 -0.7908 0.2197
vn -0.5976 -0.7967 0.0906
vn -0.5975 -0.8019 -0.0036
vn -0.5857 -0.8045 -0.0985
vn -0.5641 -0.7935 -0.2285
vn -0.5202 -0.7743 -0.3604
vn -0.4554 -0.7448 -0.4877
vn -0.3721 -0.7075 -0.6008
vn -0.2759 -0.6675 -0.6916
vn -0.1740 -0.6313 -0.7558
vn -0.0724 -0.6024 -0.7949
vn 0.0024 -0.5991 -0.8007
vn 0.0786 -0.6126 -0.7865
vn 0.1814 -0.6344 -0.7514
vn 0.2839 -0.6689 -0.6869
vn 0.3805 -0.7079 -0.5950
vn 0.4636 -0.7444 -0.4806
vn 0.5279 -0.7729 -0.3521
vn 0.5713 -0.7908 -0.2197
vn 0.5976 -0.7967 -0.0906
vn 0.9147 -0.4041 0.0061
vn 0.8965 -0.4146 0.1561
vn 0.8473 -0.3956 0.3544
vn 0.7552 -0.3715 0.5400
vn 0.6310 -0.3398 0.6974
vn 0.4899 -0.3054 0.8165
vn 0.3465 -0.2734 0.8973
vn 0.2105 -0.2475 0.9457
vn 0.0850 -0.2259 0.9704
vn -0.0034 -0.2285 0.9735
vn -0.0945 -0.2412 0.9659
vn -0.2217 -0.2512 0.9422
vn -0.3591 -0.2739 0.8922
vn -0.5034 -0.3037 0.8089
vn -0.6446 -0.3363 0.6866
vn -0.7677 -0.3658 0.5261
vn -0.8579 -0.3864 0.3387
vn -0.9099 -0.3900 0.1413
vn -0.9147 -0.4041 -0.0061
vn -0.8965 -0.4146 -0.1561
vn -0.8473 -0.3956 -0.3544
vn -0.7552 -0.3715 -0.5400
vn -0.6310 -0.3398 -0.6974
vn -0.4899 -0.3054 -0.8165
vn -0.3465 -0.2734 -0.8973
vn -0.2105 -0.2475 -0.9457
vn -0.0850 -0.2259 -0.9704
vn 0.0034 -0.2285 -0.9735
vn 0.0945 -0.2412 -0.9659
vn 0.2217 -0.2512 -0.9422
vn 0.3591 -0.2739 -0.8922
vn 0.5034 -0.3037 -0.8089
vn 0.6446 -0.3363 -0.6866
vn 0.7677 -0.3658 -0.5261
vn 0.8579 -0.3864 -0.3387
vn 0.9099 -0.3900 -0.1413
vn 0.9968 -0.0794 0.0050
vn 0.9821 -0.0802 0.1704
vn 0.9195 -0.0756 0.3859
vn 0.8101 -0.0689 0.5822
vn 0.6675 -0.0605 0.7421
vn 0.5116 -0.0519 0.8577
vn 0.3582 -0.0443 0.9326
vn 0.2164 -0.0385 0.9756
vn 0.0875 -0.0345 0.9956
vn -0.0027 -0.0340 0.9994
vn -0.0952 -0.0358 0.9948
vn -0.2253 -0.0388 0.9735
vn -0.3681 -0.0443 0.9287
vn -0.5221 -0.0517 0.8513
vn -0.6778 -0.0601 0.7328
vn -0.8188 -0.0682 0.5700
vn -0.9253 -0.0745 0.3719
vn -0.9846 -0.0771 0.1567
vn -0.9968 -0.0794 -0.0050
vn -0.9821 -0.0802 -0.1704
vn -0.9195 -0.0756 -0.3859
vn -0.8101 -0.0689 -0.5822
vn -0.6675 -0.0605 -0.7421
vn -0.5116 -0.0519 -0.8577
vn -0.3582 -0.0443 -0.9326
vn -0.2164 -0.0385 -0.9756
vn -0.0875 -0.0345 -0.9956
vn 0.0027 -0.0340 -0.9994
vn 0.0952 -0.0358 -0.9948
vn 0.2253 -0.0388 -0.9735
vn 0.3681 -0.0443 -0.9287
vn 0.5221 -0.0517 -0.8513
vn 0.6778 -0.0601 -0.7328
vn 0.8188 -0.0682 -0.5700
vn 0.9253 -0.0745 -0.3719
vn 0.9846 -0.0771 -0.1567
vn 0.9993 -0.0362 0.0009
vn 0.9855 -0.0364 0.1660
vn 0.9233 -0.0343 0.3827
vn 0.8138 -0.0311 0.5803
vn 0.6708 -0.0271 0.7411
vn 0.5145 -0.0230 0.8572
vn 0.3610 -0.0194 0.9324
vn 0.2191 -0.0167 0.9756
vn 0.0902 -0.0148 0.9958
vn -0.0005 -0.0145 0.9999
vn -0.0915 -0.0151 0.9957
vn -0.2206 -0.0166 0.9752
vn -0.3627 -0.0192 0.9317
vn -0.5164 -0.0227 0.8561
vn -0.6727 -0.0267 0.7395
vn -0.8154 -0.0307 0.5781
vn -0.9243 -0.0338 0.3801
vn -0.9859 -0.0353 0.1635
vn -0.9993 -0.0362 -0.0009
vn -0.9855 -0.0364 -0.1660
vn -0.9233 -0.0343 -0.3827
vn -0.8138 -0.0311 -0.5803
vn -0.6708 -0.0271 -0.7411
vn -0.5145 -0.0230 -0.8572
vn -0.3610 -0.0194 -0.9324
vn -0.2191 -0.0167 -0.9756
vn -0.0902 -0.0148 -0.9958
vn 0.0005 -0.0145 -0.9999
vn 0.0915 -0.0151 -0.9957
vn 0.2206 -0.0166 -0.9752
vn 0.3627 -0.0192 -0.9317
vn 0.5164 -0.0227 -0.8561
vn 0.6727 -0.0267 -0.7395
vn 0.8154 -0.0307 -0.5781
vn 0.9243 -0.0338 -0.3801
vn 0.9859 -0.0353 -0.1635
vn 0.9999 -0.0112 -0.0019
vn 0.9866 -0.0121 0.1627
vn 0.9250 -0.0115 0.3799
vn 0.8158 -0.0105 0.5783
vn 0.6728 -0.0091 0.7398
vn 0.5164 -0.0075 0.8563
vn 0.3629 -0.0062 0.9318
vn 0.2210 -0.0051 0.9753
vn 0.0921 -0.0043 0.9957
vn 0.0010 -0.0042 1.0000
vn -0.0891 -0.0046 0.9960
vn -0.2175 -0.0051 0.9760
vn -0.3590 -0.0060 0.9333
vn -0.5124 -0.0072 0.8587
vn -0.6689 -0.0086 0.7433
vn -0.8125 -0.0099 0.5829
vn -0.9228 -0.0108 0.3852
vn -0.9857 -0.0107 0.1680
vn -0.9999 -0.0111 0.0019
vn -0.9866 -0.0110 -0.1627
vn -0.9250 -0.0090 -0.3799
vn -0.8158 -0.0069 -0.5783
vn -0.6728 -0.0046 -0.7398
vn -0.5165 -0.0024 -0.8563
vn -0.3629 -0.0006 -0.9318
vn -0.2210 0.0007 -0.9753
vn -0.0921 0.0018 -0.9957
vn -0.0010 0.0016 -1.0000
vn 0.0891 0.0009 -0.9960
vn 0.2175 0.0005 -0.9761
vn 0.3590 -0.0007 -0.9333
vn 0.5124 -0.0024 -0.8587
vn 0.6689 -0.0045 -0.7433
vn 0.8125 -0.0067 -0.5829
vn 0.9228 -0.0087 -0.3852
vn 0.9857 -0.0099 -0.1680
vn 0.9996 0.0268 -0.0006
vn 0.9860 0.0228 0.1649
vn 0.9237 0.0200 0.3826
vn 0.8138 0.0174 0.5809
vn 0.6704 0.0154 0.7418
vn 0.5140 0.0139 0.8577
vn 0.3607 0.0129 0.9326
vn 0.2193 0.0124 0.9756
vn 0.0909 0.0123 0.9958
vn 0.0004 0.0117 0.9999
vn -0.0899 0.0114 0.9959
vn -0.2181 0.0120 0.9759
vn -0.3594 0.0127 0.9331
vn -0.5127 0.0138 0.8585
vn -0.6692 0.0154 0.7429
vn -0.8128 0.0178 0.5823
vn -0.9230 0.0210 0.3842
vn -0.9857 0.0252 0.1665
vn -0.9996 0.0276 0.0006
vn -0.9858 0.0312 -0.1649
vn -0.9232 0.0385 -0.3824
vn -0.8131 0.0449 -0.5804
vn -0.6697 0.0501 -0.7410
vn -0.5133 0.0538 -0.8565
vn -0.3602 0.0562 -0.9312
vn -0.2189 0.0576 -0.9740
vn -0.0907 0.0591 -0.9941
vn -0.0004 0.0573 -0.9984
vn 0.0897 0.0552 -0.9944
vn 0.2178 0.0556 -0.9744
vn 0.3589 0.0544 -0.9318
vn 0.5121 0.0520 -0.8574
vn 0.6685 0.0483 -0.7422
vn 0.8121 0.0433 -0.5818
vn 0.9226 0.0374 -0.3840
vn 0.9855 0.0319 -0.1665
vn 0.9983 0.0587 -0.0016
vn 0.9851 0.0519 0.1643
vn 0.9228 0.0447 0.3828
vn 0.8126 0.0384 0.5816
vn 0.6690 0.0334 0.7425
vn 0.5127 0.0297 0.8581
vn 0.3598 0.0272 0.9327
vn 0.2189 0.0256 0.9754
vn 0.0911 0.0248 0.9955
vn 0.0010 0.0244 0.9997
vn -0.0884 0.0245 0.9958
vn -0.2158 0.0255 0.9761
vn -0.3563 0.0271 0.9340
vn -0.5090 0.0296 0.8603
vn -0.6654 0.0334 0.7457
vn -0.8096 0.0385 0.5857
vn -0.9208 0.0449 0.3875
vn -0.9842 0.0526 0.1689
vn -0.9983 0.0589 0.0016
vn -0.9841 0.0675 -0.1641
vn -0.9207 0.0806 -0.3819
vn -0.8097 0.0927 -0.5795
vn -0.6658 0.1024 -0.7391
vn -0.5098 0.1093 -0.8533
vn -0.3576 0.1136 -0.9270
vn -0.2175 0.1160 -0.9691
vn -0.0905 0.1173 -0.9890
vn -0.0010 0.1167 -0.9932
vn 0.0879 0.1158 -0.9894
vn 0.2144 0.1153 -0.9699
vn 0.3541 0.1130 -0.9283
vn 0.5062 0.1087 -0.8555
vn 0.6623 0.1019 -0.7422
vn 0.8068 0.0923 -0.5836
vn 0.9187 0.0804 -0.3866
vn 0.9833 0.0679 -0.1687
vn 0.9983 0.0582 -0.0038
vn 0.9853 0.0517 0.1625
vn 0.9230 0.0434 0.3822
vn 0.8125 0.0365 0.5819
vn 0.6685 0.0308 0.7431
vn 0.5121 0.0267 0.8585
vn 0.3596 0.0239 0.9328
vn 0.2192 0.0221 0.9754
vn 0.0921 0.0210 0.9955
vn 0.0021 0.0210 0.9998
vn -0.0862 0.0216 0.9960
vn -0.2124 0.0225 0.9769
vn -0.3520 0.0242 0.9357
vn -0.5041 0.0269 0.8632
vn -0.6606 0.0309 0.7501
vn -0.8058 0.0362 0.5911
vn -0.9186 0.0428 0.3929
vn -0.9836 0.0503 0.1731
vn -0.9983 0.0574 0.0038
vn -0.9845 0.0665 -0.1624
vn -0.9210 0.0788 -0.3814
vn -0.8097 0.0905 -0.5799
vn -0.6654 0.0999 -0.7397
vn -0.5094 0.1066 -0.8539
vn -0.3574 0.1107 -0.9273
vn -0.2179 0.1129 -0.9694
vn -0.0915 0.1133 -0.9893
vn -0.0021 0.1145 -0.9934
vn 0.0857 0.1154 -0.9896
vn 0.2111 0.1142 -0.9708
vn 0.3499 0.1120 -0.9301
vn 0.5013 0.1080 -0.8585
vn 0.6575 0.1015 -0.7466
vn 0.8029 0.0921 -0.5890
vn 0.9165 0.0802 -0.3920
vn 0.9827 0.0669 -0.1729
vn 0.9994 0.0352 -0.0041
vn 0.9862 0.0309 0.1629
vn 0.9232 0.0249 0.3834
vn 0.8119 0.0197 0.5834
vn 0.6674 0.0153 0.7445
vn 0.5110 0.0121 0.8595
vn 0.3586 0.0098 0.9334
vn 0.2186 0.0084 0.9758
vn 0.0919 0.0075 0.9957
vn 0.0022 0.0076 1.0000
vn -0.0857 0.0080 0.9963
vn -0.2114 0.0087 0.9774
vn -0.3505 0.0100 0.9365
vn -0.5023 0.0122 0.8646
vn -0.6589 0.0153 0.7520
vn -0.8047 0.0194 0.5934
vn -0.9184 0.0243 0.3950
vn -0.9842 0.0295 0.1744
vn -0.9994 0.0345 0.0041
vn -0.9858 0.0405 -0.1629
vn -0.9225 0.0481 -0.3831
vn -0.8109 0.0552 -0.5826
vn -0.6663 0.0608 -0.7432
vn -0.5099 0.0647 -0.8578
vn -0.3578 0.0671 -0.9314
vn -0.2181 0.0683 -0.9735
vn -0.0917 0.0682 -0.9934
vn -0.0022 0.0693 -0.9976
vn 0.0855 0.0702 -0.9939
vn 0.2109 0.0694 -0.9750
vn 0.3497 0.0682 -0.9344
vn 0.5013 0.0660 -0.8628
vn 0.6577 0.0622 -0.7507
vn 0.8035 0.0565 -0.5926
vn 0.9175 0.0492 -0.3947
vn 0.9838 0.0407 -0.1743
vn 0.9998 0.0201 -0.0022
vn 0.9860 0.0170 0.1658
vn 0.9221 0.0130 0.3866
vn 0.8100 0.0092 0.5864
vn 0.6650 0.0060 0.7468
vn 0.5085 0.0036 0.8611
vn 0.3563 0.0019 0.9344
vn 0.2167 0.0008 0.9762
vn 0.0903 0.0001 0.9959
vn 0.0012 -0.0000 1.0000
vn -0.0870 0.0002 0.9962
vn -0.2128 0.0008 0.9771
vn -0.3519 0.0018 0.9360
vn -0.5038 0.0035 0.8638
vn -0.6604 0.0060 0.7509
vn -0.8061 0.0091 0.5918
vn -0.9195 0.0128 0.3929
vn -0.9850 0.0167 0.1720
vn -0.9998 0.0200 0.0022
vn -0.9859 0.0236 -0.1658
vn -0.9218 0.0284 -0.3865
vn -0.8096 0.0326 -0.5861
vn -0.6646 0.0358 -0.7463
vn -0.5081 0.0379 -0.8605
vn -0.3560 0.0391 -0.9337
vn -0.2165 0.0397 -0.9755
vn -0.0903 0.0398 -0.9951
vn -0.0012 0.0399 -0.9992
vn 0.0869 0.0401 -0.9954
vn 0.2126 0.0399 -0.9763
vn 0.3517 0.0393 -0.9353
vn 0.5035 0.0381 -0.8632
vn 0.6600 0.0361 -0.7504
vn 0.8057 0.0329 -0.5915
vn 0.9192 0.0286 -0.3928
vn 0.9848 0.0237 -0.1720
vn 0.9998 0.0183 0.0002
vn 0.9855 0.0154 0.1692
vn 0.9206 0.0116 0.3902
vn 0.8077 0.0081 0.5895
vn 0.6623 0.0051 0.7492
vn 0.5057 0.0028 0.8627
vn 0.3537 0.0012 0.9353
vn 0.2144 0.0001 0.9767
vn 0.0885 -0.0004 0.9961
vn -0.0001 -0.0006 1.0000
vn -0.0887 -0.0005 0.9961
vn -0.2147 0.0001 0.9767
vn -0.3540 0.0012 0.9352
vn -0.5061 0.0028 0.8625
vn -0.6626 0.0051 0.7489
vn -0.8080 0.0081 0.5891
vn -0.9208 0.0116 0.3898
vn -0.9855 0.0154 0.1688
vn -0.9998 0.0183 -0.0002
vn -0.9853 0.0217 -0.1692
vn -0.9204 0.0262 -0.3901
vn -0.8074 0.0301 -0.5893
vn -0.6620 0.0330 -0.7488
vn -0.5054 0.0349 -0.8622
vn -0.3535 0.0360 -0.9347
vn -0.2143 0.0365 -0.9761
vn -0.0884 0.0367 -0.9954
vn 0.0001 0.0366 -0.9993
vn 0.0887 0.0366 -0.9954
vn 0.2146 0.0365 -0.9760
vn 0.3538 0.0360 -0.9346
vn 0.5057 0.0349 -0.8620
vn 0.6623 0.0330 -0.7485
vn 0.8077 0.0300 -0.5889
vn 0.9206 0.0261 -0.3897
vn 0.9854 0.0217 -0.1688
vn 0.9995 0.0190 -0.0253
vn 0.9906 0.0161 0.1355
vn 0.9348 0.0123 0.3549
vn 0.8293 0.0087 0.5587
vn 0.6879 0.0056 0.7258
vn 0.5319 0.0031 0.8468
vn 0.3784 0.0014 0.9256
vn 0.2367 0.0003 0.9716
vn 0.1080 -0.0003 0.9941
vn 0.0131 -0.0005 0.9999
vn -0.0707 -0.0004 0.9975
vn -0.1931 0.0001 0.9812
vn -0.3296 0.0011 0.9441
vn -0.4798 0.0026 0.8774
vn -0.6365 0.0048 0.7713
vn -0.7851 0.0077 0.6193
vn -0.9050 0.0112 0.4254
vn -0.9786 0.0149 0.2052
vn -0.9995 0.0180 0.0253
vn -0.9906 0.0212 -0.1355
vn -0.9346 0.0256 -0.3549
vn -0.8290 0.0297 -0.5585
vn -0.6875 0.0328 -0.7254
vn -0.5315 0.0349 -0.8463
vn -0.3781 0.0361 -0.9250
vn -0.2365 0.0368 -0.9709
vn -0.1080 0.0370 -0.9935
vn -0.0131 0.0370 -0.9992
vn 0.0707 0.0370 -0.9968
vn 0.1929 0.0369 -0.9805
vn 0.3294 0.0365 -0.9435
vn 0.4795 0.0355 -0.8768
vn 0.6361 0.0338 -0.7709
vn 0.7848 0.0310 -0.6190
vn 0.9047 0.0271 -0.4252
vn 0.9785 0.0226 -0.2052
vn 0.0000 -1.0000 0.0000
vt 0.6800 0.2000
vt 0.6777 0.2000
vt 0.6709 0.2000
vt 0.6597 0.2000
vt 0.6442 0.2000
vt 0.6245 0.2000
vt 0.6010 0.2000
vt 0.5736 0.2000
vt 0.5418 0.2000
vt 0.5000 0.2000
vt 0.4582 0.2000
vt 0.4264 0.2000
vt 0.3990 0.2000
vt 0.3755 0.2000
vt 0.3558 0.2000
vt 0.3403 0.2000
vt 0.3291 0.2000
vt 0.3223 0.2000
vt 0.3200 0.2000
vt 0.3223 0.2000
vt 0.3291 0.2000
vt 0.3403 0.2000
vt 0.3558 0.2000
vt 0.3755 0.2000
vt 0.3990 0.2000
vt 0.4264 0.2000
vt 0.4582 0.2000
vt 0.5000 0.2000
vt 0.5418 0.2000
vt 0.5736 0.2000
vt 0.6010 0.2000
vt 0.6245 0.2000
vt 0.6442 0.2000
vt 0.6597 0.2000
vt 0.6709 0.2000
vt 0.6777 0.2000
vt 0.7295 0.2281
vt 0.7266 0.2281
vt 0.7179 0.2281
vt 0.7036 0.2281
vt 0.6838 0.2281
vt 0.6588 0.2281
vt 0.6288 0.2281
vt 0.5939 0.2281
vt 0.5534 0.2281
vt 0.5000 0.2281
vt 0.4466 0.2281
vt 0.4061 0.2281
vt 0.3712 0.2281
vt 0.3412 0.2281
vt 0.3162 0.2281
vt 0.2964 0.2281
vt 0.2821 0.2281
vt 0.2734 0.2281
vt 0.2705 0.2281
vt 0.2734 0.2281
vt 0.2821 0.2281
vt 0.2964 0.2281
vt 0.3162 0.2281
vt 0.3412 0.2281
vt 0.3712 0.2281
vt 0.4061 0.2281
vt 0.4466 0.2281
vt 0.5000 0.2281
vt 0.5534 0.2281
vt 0.5939 0.2281
vt 0.6288 0.2281
vt 0.6588 0.2281
vt 0.6838 0.2281
vt 0.7036 0.2281
vt 0.7179 0.2281
vt 0.7266 0.2281
vt 0.7808 0.2555
vt 0.7772 0.2555
vt 0.7666 0.2555
vt 0.7491 0.2555
vt 0.7249 0.2555
vt 0.6943 0.2555
vt 0.6576 0.2555
vt 0.6148 0.2555
vt 0.5653 0.2555
vt 0.5000 0.2555
vt 0.4347 0.2555
vt 0.3852 0.2555
vt 0.3424 0.2555
vt 0.3057 0.2555
vt 0.2751 0.2555
vt 0.2509 0.2555
vt 0.2334 0.2555
vt 0.2228 0.2555
vt 0.2192 0.2555
vt 0.2228 0.2555
vt 0.2334 0.2555
vt 0.2509 0.2555
vt 0.2751 0.2555
vt 0.3057 0.2555
vt 0.3424 0.2555
vt 0.3852 0.2555
vt 0.4347 0.2555
vt 0.5000 0.2555
vt 0.5653 0.2555
vt 0.6148 0.2555
vt 0.6576 0.2555
vt 0.6943 0.2555
vt 0.7249 0.2555
vt 0.7491 0.2555
vt 0.7666 0.2555
vt 0.7772 0.2555
vt 0.8132 0.2896
vt 0.8093 0.2896
vt 0.7974 0.2896
vt 0.7778 0.2896
vt 0.7508 0.2896
vt 0.7167 0.2896
vt 0.6758 0.2896
vt 0.6281 0.2896
vt 0.5728 0.2896
vt 0.5000 0.2896
vt 0.4272 0.2896
vt 0.3719 0.2896
vt 0.3242 0.2896
vt 0.2833 0.2896
vt 0.2492 0.2896
vt 0.2222 0.2896
vt 0.2026 0.2896
vt 0.1907 0.2896
vt 0.1868 0.2896
vt 0.1907 0.2896
vt 0.2026 0.2896
vt 0.2222 0.2896
vt 0.2492 0.2896
vt 0.2833 0.2896
vt 0.3242 0.2896
vt 0.3719 0.2896
vt 0.4272 0.2896
vt 0.5000 0.2896
vt 0.5728 0.2896
vt 0.6281 0.2896
vt 0.6758 0.2896
vt 0.7167 0.2896
vt 0.7508 0.2896
vt 0.7778 0.2896
vt 0.7974 0.2896
vt 0.8093 0.2896
vt 0.8199 0.3428
vt 0.8158 0.3428
vt 0.8037 0.3428
vt 0.7838 0.3428
vt 0.7562 0.3428
vt 0.7213 0.3428
vt 0.6795 0.3428
vt 0.6308 0.3428
vt 0.5744 0.3428
vt 0.5000 0.3428
vt 0.4256 0.3428
vt 0.3692 0.3428
vt 0.3205 0.3428
vt 0.2787 0.3428
vt 0.2438 0.3428
vt 0.2162 0.3428
vt 0.1963 0.3428
vt 0.1842 0.3428
vt 0.1801 0.3428
vt 0.1842 0.3428
vt 0.1963 0.3428
vt 0.2162 0.3428
vt 0.2438 0.3428
vt 0.2787 0.3428
vt 0.3205 0.3428
vt 0.3692 0.3428
vt 0.4256 0.3428
vt 0.5000 0.3428
vt 0.5744 0.3428
vt 0.6308 0.3428
vt 0.6795 0.3428
vt 0.7213 0.3428
vt 0.7562 0.3428
vt 0.7838 0.3428
vt 0.8037 0.3428
vt 0.8158 0.3428
vt 0.8237 0.4208
vt 0.8196 0.4208
vt 0.8074 0.4208
vt 0.7871 0.4208
vt 0.7592 0.4208
vt 0.7240 0.4208
vt 0.6817 0.4208
vt 0.6324 0.4208
vt 0.5753 0.4208
vt 0.5000 0.4208
vt 0.4247 0.4208
vt 0.3676 0.4208
vt 0.3183 0.4208
vt 0.2760 0.4208
vt 0.2408 0.4208
vt 0.2129 0.4208
vt 0.1926 0.4208
vt 0.1804 0.4208
vt 0.1763 0.4208
vt 0.1804 0.4208
vt 0.1926 0.4208
vt 0.2129 0.4208
vt 0.2408 0.4208
vt 0.2760 0.4208
vt 0.3183 0.4208
vt 0.3676 0.4208
vt 0.4247 0.4208
vt 0.5000 0.4208
vt 0.5753 0.4208
vt 0.6324 0.4208
vt 0.6817 0.4208
vt 0.7240 0.4208
vt 0.7592 0.4208
vt 0.7871 0.4208
vt 0.8074 0.4208
vt 0.8196 0.4208
vt 0.8257 0.5035
vt 0.8216 0.5035
vt 0.8093 0.5035
vt 0.7889 0.5035
vt 0.7609 0.5035
vt 0.7254 0.5035
vt 0.6828 0.5035
vt 0.6332 0.5035
vt 0.5757 0.5035
vt 0.5000 0.5035
vt 0.4243 0.5035
vt 0.3668 0.5035
vt 0.3172 0.5035
vt 0.2746 0.5035
vt 0.2391 0.5035
vt 0.2111 0.5035
vt 0.1907 0.5035
vt 0.1784 0.5035
vt 0.1743 0.5035
vt 0.1784 0.5035
vt 0.1907 0.5035
vt 0.2111 0.5035
vt 0.2391 0.5035
vt 0.2746 0.5035
vt 0.3172 0.5035
vt 0.3668 0.5035
vt 0.4243 0.5035
vt 0.5000 0.5035
vt 0.5757 0.5035
vt 0.6332 0.5035
vt 0.6828 0.5035
vt 0.7254 0.5035
vt 0.7609 0.5035
vt 0.7889 0.5035
vt 0.8093 0.5035
vt 0.8216 0.5035
vt 0.8254 0.5741
vt 0.8213 0.5741
vt 0.8090 0.5741
vt 0.7887 0.5741
vt 0.7606 0.5741
vt 0.7252 0.5741
vt 0.6826 0.5741
vt 0.6331 0.5741
vt 0.5757 0.5741
vt 0.5000 0.5741
vt 0.4243 0.5741
vt 0.3669 0.5741
vt 0.3174 0.5741
vt 0.2748 0.5741
vt 0.2394 0.5741
vt 0.2113 0.5741
vt 0.1910 0.5741
vt 0.1787 0.5741
vt 0.1746 0.5741
vt 0.1787 0.5741
vt 0.1910 0.5741
vt 0.2113 0.5741
vt 0.2394 0.5741
vt 0.2748 0.5741
vt 0.3174 0.5741
vt 0.3669 0.5741
vt 0.4243 0.5741
vt 0.5000 0.5741
vt 0.5757 0.5741
vt 0.6331 0.5741
vt 0.6826 0.5741
vt 0.7252 0.5741
vt 0.7606 0.5741
vt 0.7887 0.5741
vt 0.8090 0.5741
vt 0.8213 0.5741
vt 0.8220 0.6424
vt 0.8179 0.6424
vt 0.8057 0.6424
vt 0.7856 0.6424
vt 0.7578 0.6424
vt 0.7228 0.6424
vt 0.6807 0.6424
vt 0.6317 0.6424
vt 0.5748 0.6424
vt 0.5000 0.6424
vt 0.4252 0.6424
vt 0.3683 0.6424
vt 0.3193 0.6424
vt 0.2772 0.6424
vt 0.2422 0.6424
vt 0.2144 0.6424
vt 0.1943 0.6424
vt 0.1821 0.6424
vt 0.1780 0.6424
vt 0.1821 0.6424
vt 0.1943 0.6424
vt 0.2144 0.6424
vt 0.2422 0.6424
vt 0.2772 0.6424
vt 0.3193 0.6424
vt 0.3683 0.6424
vt 0.4252 0.6424
vt 0.5000 0.6424
vt 0.5748 0.6424
vt 0.6317 0.6424
vt 0.6807 0.6424
vt 0.7228 0.6424
vt 0.7578 0.6424
vt 0.7856 0.6424
vt 0.8057 0.6424
vt 0.8179 0.6424
vt 0.8178 0.7037
vt 0.8138 0.7037
vt 0.8018 0.7037
vt 0.7819 0.7037
vt 0.7545 0.7037
vt 0.7199 0.7037
vt 0.6784 0.7037
vt 0.6300 0.7037
vt 0.5739 0.7037
vt 0.5000 0.7037
vt 0.4261 0.7037
vt 0.3700 0.7037
vt 0.3216 0.7037
vt 0.2801 0.7037
vt 0.2455 0.7037
vt 0.2181 0.7037
vt 0.1982 0.7037
vt 0.1862 0.7037
vt 0.1822 0.7037
vt 0.1862 0.7037
vt 0.1982 0.7037
vt 0.2181 0.7037
vt 0.2455 0.7037
vt 0.2801 0.7037
vt 0.3216 0.7037
vt 0.3700 0.7037
vt 0.4261 0.7037
vt 0.5000 0.7037
vt 0.5739 0.7037
vt 0.6300 0.7037
vt 0.6784 0.7037
vt 0.7199 0.7037
vt 0.7545 0.7037
vt 0.7819 0.7037
vt 0.8018 0.7037
vt 0.8138 0.7037
vt 0.8158 0.7499
vt 0.8118 0.7499
vt 0.7998 0.7499
vt 0.7801 0.7499
vt 0.7529 0.7499
vt 0.7185 0.7499
vt 0.6772 0.7499
vt 0.6291 0.7499
vt 0.5734 0.7499
vt 0.5000 0.7499
vt 0.4266 0.7499
vt 0.3709 0.7499
vt 0.3228 0.7499
vt 0.2815 0.7499
vt 0.2471 0.7499
vt 0.2199 0.7499
vt 0.2002 0.7499
vt 0.1882 0.7499
vt 0.1842 0.7499
vt 0.1882 0.7499
vt 0.2002 0.7499
vt 0.2199 0.7499
vt 0.2471 0.7499
vt 0.2815 0.7499
vt 0.3228 0.7499
vt 0.3709 0.7499
vt 0.4266 0.7499
vt 0.5000 0.7499
vt 0.5734 0.7499
vt 0.6291 0.7499
vt 0.6772 0.7499
vt 0.7185 0.7499
vt 0.7529 0.7499
vt 0.7801 0.7499
vt 0.7998 0.7499
vt 0.8118 0.7499
vt 0.8150 0.7833
vt 0.8110 0.7833
vt 0.7991 0.7833
vt 0.7794 0.7833
vt 0.7523 0.7833
vt 0.7180 0.7833
vt 0.6768 0.7833
vt 0.6288 0.7833
vt 0.5732 0.7833
vt 0.5000 0.7833
vt 0.4268 0.7833
vt 0.3712 0.7833
vt 0.3232 0.7833
vt 0.2820 0.7833
vt 0.2477 0.7833
vt 0.2206 0.7833
vt 0.2009 0.7833
vt 0.1890 0.7833
vt 0.1850 0.7833
vt 0.1890 0.7833
vt 0.2009 0.7833
vt 0.2206 0.7833
vt 0.2477 0.7833
vt 0.2820 0.7833
vt 0.3232 0.7833
vt 0.3712 0.7833
vt 0.4268 0.7833
vt 0.5000 0.7833
vt 0.5732 0.7833
vt 0.6288 0.7833
vt 0.6768 0.7833
vt 0.7180 0.7833
vt 0.7523 0.7833
vt 0.7794 0.7833
vt 0.7991 0.7833
vt 0.8110 0.7833
vt 0.8145 0.8114
vt 0.8105 0.8114
vt 0.7986 0.8114
vt 0.7790 0.8114
vt 0.7519 0.8114
vt 0.7176 0.8114
vt 0.6765 0.8114
vt 0.6286 0.8114
vt 0.5731 0.8114
vt 0.5000 0.8114
vt 0.4269 0.8114
vt 0.3714 0.8114
vt 0.3235 0.8114
vt 0.2824 0.8114
vt 0.2481 0.8114
vt 0.2210 0.8114
vt 0.2014 0.8114
vt 0.1895 0.8114
vt 0.1855 0.8114
vt 0.1895 0.8114
vt 0.2014 0.8114
vt 0.2210 0.8114
vt 0.2481 0.8114
vt 0.2824 0.8114
vt 0.3235 0.8114
vt 0.3714 0.8114
vt 0.4269 0.8114
vt 0.5000 0.8114
vt 0.5731 0.8114
vt 0.6286 0.8114
vt 0.6765 0.8114
vt 0.7176 0.8114
vt 0.7519 0.8114
vt 0.7790 0.8114
vt 0.7986 0.8114
vt 0.8105 0.8114
vt 0.8140 0.8400
vt 0.8100 0.8400
vt 0.7981 0.8400
vt 0.7785 0.8400
vt 0.7515 0.8400
vt 0.7173 0.8400
vt 0.6762 0.8400
vt 0.6284 0.8400
vt 0.5730 0.8400
vt 0.5000 0.8400
vt 0.4270 0.8400
vt 0.3716 0.8400
vt 0.3238 0.8400
vt 0.2827 0.8400
vt 0.2485 0.8400
vt 0.2215 0.8400
vt 0.2019 0.8400
vt 0.1900 0.8400
vt 0.1860 0.8400
vt 0.1900 0.8400
vt 0.2019 0.8400
vt 0.2215 0.8400
vt 0.2485 0.8400
vt 0.2827 0.8400
vt 0.3238 0.8400
vt 0.3716 0.8400
vt 0.4270 0.8400
vt 0.5000 0.8400
vt 0.5730 0.8400
vt 0.6284 0.8400
vt 0.6762 0.8400
vt 0.7173 0.8400
vt 0.7515 0.8400
vt 0.7785 0.8400
vt 0.7981 0.8400
vt 0.8100 0.8400
vt 0.5000 0.2000
f 1/1/1 38/38/38 2/2/2
f 1/1/1 37/37/37 38/38/38
f 2/2/2 39/39/39 3/3/3
f 2/2/2 38/38/38 39/39/39
f 3/3/3 40/40/40 4/4/4
f 3/3/3 39/39/39 40/40/40
f 4/4/4 41/41/41 5/5/5
f 4/4/4 40/40/40 41/41/41
f 5/5/5 42/42/42 6/6/6
f 5/5/5 41/41/41 42/42/42
f 6/6/6 43/43/43 7/7/7
f 6/6/6 42/42/42 43/43/43
f 7/7/7 44/44/44 8/8/8
f 7/7/7 43/43/43 44/44/44
f 8/8/8 45/45/45 9/9/9
f 8/8/8 44/44/44 45/45/45
f 9/9/9 46/46/46 10/10/10
f 9/9/9 45/45/45 46/46/46
f 10/10/10 47/47/47 11/11/11
f 10/10/10 46/46/46 47/47/47
f 11/11/11 48/48/48 12/12/12
f 11/11/11 47/47/47 48/48/48
f 12/12/12 49/49/49 13/13/13
f 12/12/12 48/48/48 49/49/49
f 13/13/13 50/50/50 14/14/14
f 13/13/13 49/49/49 50/50/50
f 14/14/14 51/51/51 15/15/15
f 14/14/14 50/50/50 51/51/51
f 15/15/15 52/52/52 16/16/16
f 15/15/15 51/51/51 52/52/52
f 16/16/16 53/53/53 17/17/17
f 16/16/16 52/52/52 53/53/53
f 17/17/17 54/54/54 18/18/18
f 17/17/17 53/53/53 54/54/54
f 18/18/18 55/55/55 19/19/19
f 18/18/18 54/54/54 55/55/55
f 19/19/19 56/56/56 20/20/20
f 19/19/19 55/55/55 56/56/56
f 20/20/20 57/57/57 21/21/21
f 20/20/20 56/56/56 57/57/57
f 21/21/21 58/58/58 22/22/22
f 21/21/21 57/57/57 58/58/58
f 22/22/22 59/59/59 23/23/23
f 22/22/22 58/58/58 59/59/59
f 23/23/23 60/60/60 24/24/24
f 23/23/23 59/59/59 60/60/60
f 24/24/24 61/61/61 25/25/25
f 24/24/24 60/60/60 61/61/61
f 25/25/25 62/62/62 26/26/26
f 25/25/25 61/61/61 62/62/62
f 26/26/26 63/63/63 27/27/27
f 26/26/26 62/62/62 63/63/63
f 27/27/27 64/64/64 28/28/28
f 27/27/27 63/63/63 64/64/64
f 28/28/28 65/65/65 29/29/29
f 28/28/28 64/64/64 65/65/65
f 29/29/29 66/66/66 30/30/30
f 29/29/29 65/65/65 66/66/66
f 30/30/30 67/67/67 31/31/31
f 30/30/30 66/66/66 67/67/67
f 31/31/31 68/68/68 32/32/32
f 31/31/31 67/67/67 68/68/68
f 32/32/32 69/69/69 33/33/33
f 32/32/32 68/68/68 69/69/69
f 33/33/33 70/70/70 34/34/34
f 33/33/33 69/69/69 70/70/70
f 34/34/34 71/71/71 35/35/35
f 34/34/34 70/70/70 71/71/71
f 35/35/35 72/72/72 36/36/36
f 35/35/35 71/71/71 72/72/72
f 36/36/36 37/37/37 1/1/1
f 36/36/36 72/72/72 37/37/37
f 37/37/37 74/74/74 38/38/38
f 37/37/37 73/73/73 74/74/74
f 38/38/38 75/75/75 39/39/39
f 38/38/38 74/74/74 75/75/75
f 39/39/39 76/76/76 40/40/40
f 39/39/39 75/75/75 76/76/76
f 40/40/40 77/77/77 41/41/41
f 40/40/40 76/76/76 77/77/77
f 41/41/41 78/78/78 42/42/42
f 41/41/41 77/77/77 78/78/78
f 42/42/42 79/79/79 43/43/43
f 42/42/42 78/78/78 79/79/79
f 43/43/43 80/80/80 44/44/44
f 43/43/43 79/79/79 80/80/80
f 44/44/44 81/81/81 45/45/45
f 44/44/44 80/80/80 81/81/81
f 45/45/45 82/82/82 46/46/46
f 45/45/45 81/81/81 82/82/82
f 46/46/46 83/83/83 47/47/47
f 46/46/46 82/82/82 83/83/83
f 47/47/47 84/84/84 48/48/48
f 47/47/47 83/83/83 84/84/84
f 48/48/48 85/85/85 49/49/49
f 48/48/48 84/84/84 85/85/85
f 49/49/49 86/86/86 50/50/50
f 49/49/49 85/85/85 86/86/86
f 50/50/50 87/87/87 51/51/51
f 50/50/50 86/86/86 87/87/87
f 51/51/51 88/88/88 52/52/52
f 51/51/51 87/87/87 88/88/88
f 52/52/52 89/89/89 53/53/53
f 52/52/52 88/88/88 89/89/89
f 53/53/53 90/90/90 54/54/54
f 53/53/53 89/89/89 90/90/90
f 54/54/54 91/91/91 55/55/55
f 54/54/54 90/90/90 91/91/91
f 55/55/55 92/92/92 56/56/56
f 55/55/55 91/91/91 92/92/92
f 56/56/56 93/93/93 57/57/57
f 56/56/56 92/92/92 93/93/93
f 57/57/57 94/94/94 58/58/58
f 57/57/57 93/93/93 94/94/94
f 58/58/58 95/95/95 59/59/59
f 58/58/58 94/94/94 95/95/95
f 59/59/59 96/96/96 60/60/60
f 59/59/59 95/95/95 96/96/96
f 60/60/60 97/97/97 61/61/61
f 60/60/60 96/96/96 97/97/97
f 61/61/61 98/98/98 62/62/62
f 61/61/61 97/97/97 98/98/98
f 62/62/62 99/99/99 63/63/63
f 62/62/62 98/98/98 99/99/99
f 63/63/63 100/100/100 64/64/64
f 63/63/63 99/99/99 100/100/100
f 64/64/64 101/101/101 65/65/65
f 64/64/64 100/100/100 101/101/101
f 65/65/65 102/102/102 66/66/66
f 65/65/65 101/101/101 102/102/102
f 66/66/66 103/103/103 67/67/67
f 66/66/66 102/102/102 103/103/103
f 67/67/67 104/104/104 68/68/68
f 67/67/67 103/103/103 104/104/104
f 68/68/68 105/105/105 69/69/69
f 68/68/68 104/104/104 105/105/105
f 69/69/69 106/106/106 70/70/70
f 69/69/69 105/105/105 106/106/106
f 70/70/70 107/107/107 71/71/71
f 70/70/70 106/106/106 107/107/107
f 71/71/71 108/108/108 72/72/72
f 71/71/71 107/107/107 108/108/108
f 72/72/72 73/73/73 37/37/37
f 72/72/72 108/108/108 73/73/73
f 73/73/73 110/110/110 74/74/74
f 73/73/73 109/109/109 110/110/110
f 74/74/74 111/111/111 75/75/75
f 74/74/74 110/110/110 111/111/111
f 75/75/75 112/112/112 76/76/76
f 75/75/75 111/111/111 112/112/112
f 76/76/76 113/113/113 77/77/77
f 76/76/76 112/112/112 113/113/113
f 77/77/77 114/114/114 78/78/78
f 77/77/77 113/113/113 114/114/114
f 78/78/78 115/115/115 79/79/79
f 78/78/78 114/114/114 115/115/115
f 79/79/79 116/116/116 80/80/80
f 79/79/79 115/115/115 116/116/116
f 80/80/80 117/117/117 81/81/81
f 80/80/80 116/116/116 117/117/117
f 81/81/81 118/118/118 82/82/82
f 81/81/81 117/117/117 118/118/118
f 82/82/82 119/119/119 83/83/83
f 82/82/82 118/118/118 119/119/119
f 83/83/83 120/120/120 84/84/84
f 83/83/83 119/119/119 120/120/120
f 84/84/84 121/121/121 85/85/85
f 84/84/84 120/120/120 121/121/121
f 85/85/85 122/122/122 86/86/86
f 85/85/85 121/121/121 122/122/122
f 86/86/86 123/123/123 87/87/87
f 86/86/86 122/122/122 123/123/123
f 87/87/87 124/124/124 88/88/88
f 87/87/87 123/123/123 124/124/124
f 88/88/88 125/125/125 89/89/89
f 88/88/88 124/124/124 125/125/125
f 89/89/89 126/126/126 90/90/90
f 89/89/89 125/125/125 126/126/126
f 90/90/90 127/127/127 91/91/91
f 90/90/90 126/126/126 127/127/127
f 91/91/91 128/128/128 92/92/92
f 91/91/91 127/127/127 128/128/128
f 92/92/92 129/129/129 93/93/93
f 92/92/92 128/128/128 129/129/129
f 93/93/93 130/130/130 94/94/94
f 93/93/93 129/129/129 130/130/130
f 94/94/94 131/131/131 95/95/95
f 94/94/94 130/130/130 131/131/131
f 95/95/95 132/132/132 96/96/96
f 95/95/95 131/131/131 132/132/132
f 96/96/96 133/133/133 97/97/97
f 96/96/96 132/132/132 133/133/133
f 97/97/97 134/134/134 98/98/98
f 97/97/97 133/133/133 134/134/134
f 98/98/98 135/135/135 99/99/99
f 98/98/98 134/134/134 135/135/135
f 99/99/99 136/136/136 100/100/100
f 99/99/99 135/135/135 136/136/136
f 100/100/100 137/137/137 101/101/101
f 100/100/100 136/136/136 137/137/137
f 101/101/101 138/138/138 102/102/102
f 101/101/101 137/137/137 138/138/138
f 102/102/102 139/139/139 103/103/103
f 102/102/102 138/138/138 139/139/139
f 103/103/103 140/140/140 104/104/104
f 103/103/103 139/139/139 140/140/140
f 104/104/104 141/141/141 105/105/105
f 104/104/104 140/140/140 141/141/141
f 105/105/105 142/142/142 106/106/106
f 105/105/105 141/141/141 142/142/142
f 106/106/106 143/143/143 107/107/107
f 106/106/106 142/142/142 143/143/143
f 107/107/107 144/144/144 108/108/108
f 107/107/107 143/143/143 144/144/144
f 108/108/108 109/109/109 73/73/73
f 108/108/108 144/144/144 109/109/109
f 109/109/109 146/146/146 110/110/110
f 109/109/109 145/145/145 146/146/146
f 110/110/110 147/147/147 111/111/111
f 110/110/110 146/146/146 147/147/147
f 111/111/111 148/148/148 112/112/112
f 111/111/111 147/147/147 148/148/148
f 112/112/112 149/149/149 113/113/113
f 112/112/112 148/148/148 149/149/149
f 113/113/113 150/150/150 114/114/114
f 113/113/113 149/149/149 150/150/150
f 114/114/114 151/151/151 115/115/115
f 114/114/114 150/150/150 151/151/151
f 115/115/115 152/152/152 116/116/116
f 115/115/115 151/151/151 152/152/152
f 116/116/116 153/153/153 117/117/117
f 116/116/116 152/152/152 153/153/153
f 117/117/117 154/154/154 118/118/118
f 117/117/117 153/153/153 154/154/154
f 118/118/118 155/155/155 119/119/119
f 118/118/118 154/154/154 155/155/155
f 119/119/119 156/156/156 120/120/120
f 119/119/119 155/155/155 156/156/156
f 120/120/120 157/157/157 121/121/121
f 120/120/120 156/156/156 157/157/157
f 121/121/121 158/158/158 122/122/122
f 121/121/121 157/157/157 158/158/158
f 122/122/122 159/159/159 123/123/123
f 122/122/122 158/158/158 159/159/159
f 123/123/123 160/160/160 124/124/124
f 123/123/123 159/159/159 160/160/160
f 124/124/124 161/161/161 125/125/125
f 124/124/124 160/160/160 161/161/161
f 125/125/125 162/162/162 126/126/126
f 125/125/125 161/161/161 162/162/162
f 126/126/126 163/163/163 127/127/127
f 126/126/126 162/162/162 163/163/163
f 127/127/127 164/164/164 128/128/128
f 127/127/127 163/163/163 164/164/164
f 128/128/128 165/165/165 129/129/129
f 128/128/128 164/164/164 165/165/165
f 129/129/129 166/166/166 130/130/130
f 129/129/129 165/165/165 166/166/166
f 130/130/130 167/167/167 131/131/131
f 130/130/130 166/166/166 167/167/167
f 131/131/131 168/168/168 132/132/132
f 131/131/131 167/167/167 168/168/168
f 132/132/132 169/169/169 133/133/133
f 132/132/132 168/168/168 169/169/169
f 133/133/133 170/170/170 134/134/134
f 133/133/133 169/169/169 170/170/170
f 134/134/134 171/171/171 135/135/135
f 134/134/134 170/170/170 171/171/171
f 135/135/135 172/172/172 136/136/136
f 135/135/135 171/171/171 172/172/172
f 136/136/136 173/173/173 137/137/137
f 136/136/136 172/172/172 173/173/173
f 137/137/137 174/174/174 138/138/138
f 137/137/137 173/173/173 174/174/174
f 138/138/138 175/175/175 139/139/139
f 138/138/138 174/174/174 175/175/175
f 139/139/139 176/176/176 140/140/140
f 139/139/139 175/175/175 176/176/176
f 140/140/140 177/177/177 141/141/141
f 140/140/140 176/176/176 177/177/177
f 141/141/141 178/178/178 142/142/142
f 141/141/141 177/177/177 178/178/178
f 142/142/142 179/179/179 143/143/143
f 142/142/142 178/178/178 179/179/179
f 143/143/143 180/180/180 144/144/144
f 143/143/143 179/179/179 180/180/180
f 144/144/144 145/145/145 109/109/109
f 144/144/144 180/180/180 145/145/145
f 145/145/145 182/182/182 146/146/146
f 145/145/145 181/181/181 182/182/182
f 146/146/146 183/183/183 147/147/147
f 146/146/146 182/182/182 183/183/183
f 147/147/147 184/184/184 148/148/148
f 147/147/147 183/183/183 184/184/184
f 148/148/148 185/185/185 149/149/149
f 148/148/148 184/184/184 185/185/185
f 149/149/149 186/186/186 150/150/150
f 149/149/149 185/185/185 186/186/186
f 150/150/150 187/187/187 151/151/151
f 150/150/150 186/186/186 187/187/187
f 151/151/151 188/188/188 152/152/152
f 151/151/151 187/187/187 188/188/188
f 152/152/152 189/189/189 153/153/153
f 152/152/152 188/188/188 189/189/189
f 153/153/153 190/190/190 154/154/154
f 153/153/153 189/189/189 190/190/190
f 154/154/154 191/191/191 155/155/155
f 154/154/154 190/190/190 191/191/191
f 155/155/155 192/192/192 156/156/156
f 155/155/155 191/191/191 192/192/192
f 156/156/156 193/193/193 157/157/157
f 156/156/156 192/192/192 193/193/193
f 157/157/157 194/194/194 158/158/158
f 157/157/157 193/193/193 194/194/194
f 158/158/158 195/195/195 159/159/159
f 158/158/158 194/194/194 195/195/195
f 159/159/159 196/196/196 160/160/160
f 159/159/159 195/195/195 196/196/196
f 160/160/160 197/197/197 161/161/161
f 160/160/160 196/196/196 197/197/197
f 161/161/161 198/198/198 162/162/162
f 161/161/161 197/197/197 198/198/198
f 162/162/162 199/199/199 163/163/163
f 162/162/162 198/198/198 199/199/199
f 163/163/163 200/200/200 164/164/164
f 163/163/163 199/199/199 200/200/200
f 164/164/164 201/201/201 165/165/165
f 164/164/164 200/200/200 201/201/201
f 165/165/165 202/202/202 166/166/166
f 165/165/165 201/201/201 202/202/202
f 166/166/166 203/203/203 167/167/167
f 166/166/166 202/202/202 203/203/203
f 167/167/167 204/204/204 168/168/168
f 167/167/167 203/203/203 204/204/204
f 168/168/168 205/205/205 169/169/169
f 168/168/168 204/204/204 205/205/205
f 169/169/169 206/206/206 170/170/170
f 169/169/169 205/205/205 206/206/206
f 170/170/170 207/207/207 171/171/171
f 170/170/170 206/206/206 207/207/207
f 171/171/171 208/208/208 172/172/172
f 171/171/171 207/207/207 208/208/208
f 172/172/172 209/209/209 173/173/173
f 172/172/172 208/208/208 209/209/209
f 173/173/173 210/210/210 174/174/174
f 173/173/173 209/209/209 210/210/210
f 174/174/174 211/211/211 175/175/175
f 174/174/174 210/210/210 211/211/211
f 175/175/175 212/212/212 176/176/176
f 175/175/175 211/211/211 212/212/212
f 176/176/176 213/213/213 177/177/177
f 176/176/176 212/212/212 213/213/213
f 177/177/177 214/214/214 178/178/178
f 177/177/177 213/213/213 214/214/214
f 178/178/178 215/215/215 179/179/179
f 178/178/178 214/214/214 215/215/215
f 179/179/179 216/216/216 180/180/180
f 179/179/179 215/215/215 216/216/216
f 180/180/180 181/181/181 145/145/145
f 180/180/180 216/216/216 181/181/181
f 181/181/181 218/218/218 182/182/182
f 181/181/181 217/217/217 218/218/218
f 182/182/182 219/219/219 183/183/183
f 182/182/182 218/218/218 219/219/219
f 183/183/183 220/220/220 184/184/184
f 183/183/183 219/219/219 220/220/220
f 184/184/184 221/221/221 185/185/185
f 184/184/184 220/220/220 221/221/221
f 185/185/185 222/222/222 186/186/186
f 185/185/185 221/221/221 222/222/222
f 186/186/186 223/223/223 187/187/187
f 186/186/186 222/222/222 223/223/223
f 187/187/187 224/224/224 188/188/188
f 187/187/187 223/223/223 224/224/224
f 188/188/188 225/225/225 189/189/189
f 188/188/188 224/224/224 225/225/225
f 189/189/189 226/226/226 190/190/190
f 189/189/189 225/225/225 226/226/226
f 190/190/190 227/227/227 191/191/191
f 190/190/190 226/226/226 227/227/227
f 191/191/191 228/228/228 192/192/192
f 191/191/191 227/227/227 228/228/228
f 192/192/192 229/229/229 193/193/193
f 192/192/192 228/228/228 229/229/229
f 193/193/193 230/230/230 194/194/194
f 193/193/193 229/229/229 230/230/230
f 194/194/194 231/231/231 195/195/195
f 194/194/194 230/230/230 231/231/231
f 195/195/195 232/232/232 196/196/196
f 195/195/195 231/231/231 232/232/232
f 196/196/196 233/233/233 197/197/197
f 196/196/196 232/232/232 233/233/233
f 197/197/197 234/234/234 198/198/198
f 197/197/197 233/233/233 234/234/234
f 198/198/198 235/235/235 199/199/199
f 198/198/198 234/234/234 235/235/235
f 199/199/199 236/236/236 200/200/200
f 199/199/199 235/235/235 236/236/236
f 200/200/200 237/237/237 201/201/201
f 200/200/200 236/236/236 237/237/237
f 201/201/201 238/238/238 202/202/202
f 201/201/201 237/237/237 238/238/238
f 202/202/202 239/239/239 203/203/203
f 202/202/202 238/238/238 239/239/239
f 203/203/203 240/240/240 204/204/204
f 203/203/203 239/239/239 240/240/240
f 204/204/204 241/241/241 205/205/205
f 204/204/204 240/240/240 241/241/241
f 205/205/205 242/242/242 206/206/206
f 205/205/205 241/241/241 242/242/242
f 206/206/206 243/243/243 207/207/207
f 206/206/206 242/242/242 243/243/243
f 207/207/207 244/244/244 208/208/208
f 207/207/207 243/243/243 244/244/244
f 208/208/208 245/245/245 209/209/209
f 208/208/208 244/244/244 245/245/245
f 209/209/209 246/246/246 210/210/210
f 209/209/209 245/245/245 246/246/246
f 210/210/210 247/247/247 211/211/211
f 210/210/210 246/246/246 247/247/247
f 211/211/211 248/248/248 212/212/212
f 211/211/211 247/247/247 248/248/248
f 212/212/212 249/249/249 213/213/213
f 212/212/212 248/248/248 249/249/249
f 213/213/213 250/250/250 214/214/214
f 213/213/213 249/249/249 250/250/250
f 214/214/214 251/251/251 215/215/215
f 214/214/214 250/250/250 251/251/251
f 215/215/215 252/252/252 216/216/216
f 215/215/215 251/251/251 252/252/252
f 216/216/216 217/217/217 181/181/181
f 216/216/216 252/252/252 217/217/217
f 217/217/217 254/254/254 218/218/218
f 217/217/217 253/253/253 254/254/254
f 218/218/218 255/255/255 219/219/219
f 218/218/218 254/254/254 255/255/255
f 219/219/219 256/256/256 220/220/220
f 219/219/219 255/255/255 256/256/256
f 220/220/220 257/257/257 221/221/221
f 220/220/220 256/256/256 257/257/257
f 221/221/221 258/258/258 222/222/222
f 221/221/221 257/257/257 258/258/258
f 222/222/222 259/259/259 223/223/223
f 222/222/222 258/258/258 259/259/259
f 223/223/223 260/260/260 224/224/224
f 223/223/223 259/259/259 260/260/260
f 224/224/224 261/261/261 225/225/225
f 224/224/224 260/260/260 261/261/261
f 225/225/225 262/262/262 226/226/226
f 225/225/225 261/261/261 262/262/262
f 226/226/226 263/263/263 227/227/227
f 226/226/226 262/262/262 263/263/263
f 227/227/227 264/264/264 228/228/228
f 227/227/227 263/263/263 264/264/264
f 228/228/228 265/265/265 229/229/229
f 228/228/228 264/264/264 265/265/265
f 229/229/229 266/266/266 230/230/230
f 229/229/229 265/265/265 266/266/266
f 230/230/230 267/267/267 231/231/231
f 230/230/230 266/266/266 267/267/267
f 231/231/231 268/268/268 232/232/232
f 231/231/231 267/267/267 268/268/268
f 232/232/232 269/269/269 233/233/233
f 232/232/232 268/268/268 269/269/269
f 233/233/233 270/270/270 234/234/234
f 233/233/233 269/269/269 270/270/270
f 234/234/234 271/271/271 235/235/235
f 234/234/234 270/270/270 271/271/271
f 235/235/235 272/272/272 236/236/236
f 235/235/235 271/271/271 272/272/272
f 236/236/236 273/273/273 237/237/237
f 236/236/236 272/272/272 273/273/273
f 237/237/237 274/274/274 238/238/238
f 237/237/237 273/273/273 274/274/274
f 238/238/238 275/275/275 239/239/239
f 238/238/238 274/274/274 275/275/275
f 239/239/239 276/276/276 240/240/240
f 239/239/239 275/275/275 276/276/276
f 240/240/240 277/277/277 241/241/241
f 240/240/240 276/276/276 277/277/277
f 241/241/241 278/278/278 242/242/242
f 241/241/241 277/277/277 278/278/278
f 242/242/242 279/279/279 243/243/243
f 242/242/242 278/278/278 279/279/279
f 243/243/243 280/280/280 244/244/244
f 243/243/243 279/279/279 280/280/280
f 244/244/244 281/281/281 245/245/245
f 244/244/244 280/280/280 281/281/281
f 245/245/245 282/282/282 246/246/246
f 245/245/245 281/281/281 282/282/282
f 246/246/246 283/283/283 247/247/247
f 246/246/246 282/282/282 283/283/283
f 247/247/247 284/284/284 248/248/248
f 247/247/247 283/283/283 284/284/284
f 248/248/248 285/285/285 249/249/249
f 248/248/248 284/284/284 285/285/285
f 249/249/249 286/286/286 250/250/250
f 249/249/249 285/285/285 286/286/286
f 250/250/250 287/287/287 251/251/251
f 250/250/250 286/286/286 287/287/287
f 251/251/251 288/288/288 252/252/252
f 251/251/251 287/287/287 288/288/288
f 252/252/252 253/253/253 217/217/217
f 252/252/252 288/288/288 253/253/253
f 253/253/253 290/290/290 254/254/254
f 253/253/253 289/289/289 290/290/290
f 254/254/254 291/291/291 255/255/255
f 254/254/254 290/290/290 291/291/291
f 255/255/255 292/292/292 256/256/256
f 255/255/255 291/291/291 292/292/292
f 256/256/256 293/293/293 257/257/257
f 256/256/256 292/292/292 293/293/293
f 257/257/257 294/294/294 258/258/258
f 257/257/257 293/293/293 294/294/294
f 258/258/258 295/295/295 259/259/259
f 258/258/258 294/294/294 295/295/295
f 259/259/259 296/296/296 260/260/260
f 259/259/259 295/295/295 296/296/296
f 260/260/260 297/297/297 261/261/261
f 260/260/260 296/296/296 297/297/297
f 261/261/261 298/298/298 262/262/262
f 261/261/261 297/297/297 298/298/298
f 262/262/262 299/299/299 263/263/263
f 262/262/262 298/298/298 299/299/299
f 263/263/263 300/300/300 264/264/264
f 263/263/263 299/299/299 300/300/300
f 264/264/264 301/301/301 265/265/265
f 264/264/264 300/300/300 301/301/301
f 265/265/265 302/302/302 266/266/266
f 265/265/265 301/301/301 302/302/302
f 266/266/266 303/303/303 267/267/267
f 266/266/266 302/302/302 303/303/303
f 267/267/267 304/304/304 268/268/268
f 267/267/267 303/303/303 304/304/304
f 268/268/268 305/305/305 269/269/269
f 268/268/268 304/304/304 305/305/305
f 269/269/269 306/306/306 270/270/270
f 269/269/269 305/305/305 306/306/306
f 270/270/270 307/307/307 271/271/271
f 270/270/270 306/306/306 307/307/307
f 271/271/271 308/308/308 272/272/272
f 271/271/271 307/307/307 308/308/308
f 272/272/272 309/309/309 273/273/273
f 272/272/272 308/308/308 309/309/309
f 273/273/273 310/310/310 274/274/274
f 273/273/273 309/309/309 310/310/310
f 274/274/274 311/311/311 275/275/275
f 274/274/274 310/310/310 311/311/311
f 275/275/275 312/312/312 276/276/276
f 275/275/275 311/311/311 312/312/312
f 276/276/276 313/313/313 277/277/277
f 276/276/276 312/312/312 313/313/313
f 277/277/277 314/314/314 278/278/278
f 277/277/277 313/313/313 314/314/314
f 278/278/278 315/315/315 279/279/279
f 278/278/278 314/314/314 315/315/315
f 279/279/279 316/316/316 280/280/280
f 279/279/279 315/315/315 316/316/316
f 280/280/280 317/317/317 281/281/281
f 280/280/280 316/316/316 317/317/317
f 281/281/281 318/318/318 282/282/282
f 281/281/281 317/317/317 318/318/318
f 282/282/282 319/319/319 283/283/283
f 282/282/282 318/318/318 319/319/319
f 283/283/283 320/320/320 284/284/284
f 283/283/283 319/319/319 320/320/320
f 284/284/284 321/321/321 285/285/285
f 284/284/284 320/320/320 321/321/321
f 285/285/285 322/322/322 286/286/286
f 285/285/285 321/321/321 322/322/322
f 286/286/286 323/323/323 287/287/287
f 286/286/286 322/322/322 323/323/323
f 287/287/287 324/324/324 288/288/288
f 287/287/287 323/323/323 324/324/324
f 288/288/288 289/289/289 253/253/253
f 288/288/288 324/324/324 289/289/289
f 289/289/289 326/326/326 290/290/290
f 289/289/289 325/325/325 326/326/326
f 290/290/290 327/327/327 291/291/291
f 290/290/290 326/326/326 327/327/327
f 291/291/291 328/328/328 292/292/292
f 291/291/291 327/327/327 328/328/328
f 292/292/292 329/329/329 293/293/293
f 292/292/292 328/328/328 329/329/329
f 293/293/293 330/330/330 294/294/294
f 293/293/293 329/329/329 330/330/330
f 294/294/294 331/331/331 295/295/295
f 294/294/294 330/330/330 331/331/331
f 295/295/295 332/332/332 296/296/296
f 295/295/295 331/331/331 332/332/332
f 296/296/296 333/333/333 297/297/297
f 296/296/296 332/332/332 333/333/333
f 297/297/297 334/334/334 298/298/298
f 297/297/297 333/333/333 334/334/334
f 298/298/298 335/335/335 299/299/299
f 298/298/298 334/334/334 335/335/335
f 299/299/299 336/336/336 300/300/300
f 299/299/299 335/335/335 336/336/336
f 300/300/300 337/337/337 301/301/301
f 300/300/300 336/336/336 337/337/337
f 301/301/301 338/338/338 302/302/302
f 301/301/301 337/337/337 338/338/338
f 302/302/302 339/339/339 303/303/303
f 302/302/302 338/338/338 339/339/339
f 303/303/303 340/340/340 304/304/304
f 303/303/303 339/339/339 340/340/340
f 304/304/304 341/341/341 305/305/305
f 304/304/304 340/340/340 341/341/341
f 305/305/305 342/342/342 306/306/306
f 305/305/305 341/341/341 342/342/342
f 306/306/306 343/343/343 307/307/307
f 306/306/306 342/342/342 343/343/343
f 307/307/307 344/344/344 308/308/308
f 307/307/307 343/343/343 344/344/344
f 308/308/308 345/345/345 309/309/309
f 308/308/308 344/344/344 345/345/345
f 309/309/309 346/346/346 310/310/310
f 309/309/309 345/345/345 346/346/346
f 310/310/310 347/347/347 311/311/311
f 310/310/310 346/346/346 347/347/347
f 311/311/311 348/348/348 312/312/312
f 311/311/311 347/347/347 348/348/348
f 312/312/312 349/349/349 313/313/313
f 312/312/312 348/348/348 349/349/349
f 313/313/313 350/350/350 314/314/314
f 313/313/313 349/349/349 350/350/350
f 314/314/314 351/351/351 315/315/315
f 314/314/314 350/350/350 351/351/351
f 315/315/315 352/352/352 316/316/316
f 315/315/315 351/351/351 352/352/352
f 316/316/316 353/353/353 317/317/317
f 316/316/316 352/352/352 353/353/353
f 317/317/317 354/354/354 318/318/318
f 317/317/317 353/353/353 354/354/354
f 318/318/318 355/355/355 319/319/319
f 318/318/318 354/354/354 355/355/355
f 319/319/319 356/356/356 320/320/320
f 319/319/319 355/355/355 356/356/356
f 320/320/320 357/357/357 321/321/321
f 320/320/320 356/356/356 357/357/357
f 321/321/321 358/358/358 322/322/322
f 321/321/321 357/357/357 358/358/358
f 322/322/322 359/359/359 323/323/323
f 322/322/322 358/358/358 359/359/359
f 323/323/323 360/360/360 324/324/324
f 323/323/323 359/359/359 360/360/360
f 324/324/324 325/325/325 289/289/289
f 324/324/324 360/360/360 325/325/325
f 325/325/325 362/362/362 326/326/326
f 325/325/325 361/361/361 362/362/362
f 326/326/326 363/363/363 327/327/327
f 326/326/326 362/362/362 363/363/363
f 327/327/327 364/364/364 328/328/328
f 327/327/327 363/363/363 364/364/364
f 328/328/328 365/365/365 329/329/329
f 328/328/328 364/364/364 365/365/365
f 329/329/329 366/366/366 330/330/330
f 329/329/329 365/365/365 366/366/366
f 330/330/330 367/367/367 331/331/331
f 330/330/330 366/366/366 367/367/367
f 331/331/331 368/368/368 332/332/332
f 331/331/331 367/367/367 368/368/368
f 332/332/332 369/369/369 333/333/333
f 332/332/332 368/368/368 369/369/369
f 333/333/333 370/370/370 334/334/334
f 333/333/333 369/369/369 370/370/370
f 334/334/334 371/371/371 335/335/335
f 334/334/334 370/370/370 371/371/371
f 335/335/335 372/372/372 336/336/336
f 335/335/335 371/371/371 372/372/372
f 336/336/336 373/373/373 337/337/337
f 336/336/336 372/372/372 373/373/373
f 337/337/337 374/374/374 338/338/338
f 337/337/337 373/373/373 374/374/374
f 338/338/338 375/375/375 339/339/339
f 338/338/338 374/374/374 375/375/375
f 339/339/339 376/376/376 340/340/340
f 339/339/339 375/375/375 376/376/376
f 340/340/340 377/377/377 341/341/341
f 340/340/340 376/376/376 377/377/377
f 341/341/341 378/378/378 342/342/342
f 341/341/341 377/377/377 378/378/378
f 342/342/342 379/379/379 343/343/343
f 342/342/342 378/378/378 379/379/379
f 343/343/343 380/380/380 344/344/344
f 343/343/343 379/379/379 380/380/380
f 344/344/344 381/381/381 345/345/345
f 344/344/344 380/380/380 381/381/381
f 345/345/345 382/382/382 346/346/346
f 345/345/345 381/381/381 382/382/382
f 346/346/346 383/383/383 347/347/347
f 346/346/346 382/382/382 383/383/383
f 347/347/347 384/384/384 348/348/348
f 347/347/347 383/383/383 384/384/384
f 348/348/348 385/385/385 349/349/349
f 348/348/348 384/384/384 385/385/385
f 349/349/349 386/386/386 350/350/350
f 349/349/349 385/385/385 386/386/386
f 350/350/350 387/387/387 351/351/351
f 350/350/350 386/386/386 387/387/387
f 351/351/351 388/388/388 352/352/352
f 351/351/351 387/387/387 388/388/388
f 352/352/352 389/389/389 353/353/353
f 352/352/352 388/388/388 389/389/389
f 353/353/353 390/390/390 354/354/354
f 353/353/353 389/389/389 390/390/390
f 354/354/354 391/391/391 355/355/355
f 354/354/354 390/390/390 391/391/391
f 355/355/355 392/392/392 356/356/356
f 355/355/355 391/391/391 392/392/392
f 356/356/356 393/393/393 357/357/357
f 356/356/356 392/392/392 393/393/393
f 357/357/357 394/394/394 358/358/358
f 357/357/357 393/393/393 394/394/394
f 358/358/358 395/395/395 359/359/359
f 358/358/358 394/394/394 395/395/395
f 359/359/359 396/396/396 360/360/360
f 359/359/359 395/395/395 396/396/396
f 360/360/360 361/361/361 325/325/325
f 360/360/360 396/396/396 361/361/361
f 361/361/361 398/398/398 362/362/362
f 361/361/361 397/397/397 398/398/398
f 362/362/362 399/399/399 363/363/363
f 362/362/362 398/398/398 399/399/399
f 363/363/363 400/400/400 364/364/364
f 363/363/363 399/399/399 400/400/400
f 364/364/364 401/401/401 365/365/365
f 364/364/364 400/400/400 401/401/401
f 365/365/365 402/402/402 366/366/366
f 365/365/365 401/401/401 402/402/402
f 366/366/366 403/403/403 367/367/367
f 366/366/366 402/402/402 403/403/403
f 367/367/367 404/404/404 368/368/368
f 367/367/367 403/403/403 404/404/404
f 368/368/368 405/405/405 369/369/369
f 368/368/368 404/404/404 405/405/405
f 369/369/369 406/406/406 370/370/370
f 369/369/369 405/405/405 406/406/406
f 370/370/370 407/407/407 371/371/371
f 370/370/370 406/406/406 407/407/407
f 371/371/371 408/408/408 372/372/372
f 371/371/371 407/407/407 408/408/408
f 372/372/372 409/409/409 373/373/373
f 372/372/372 408/408/408 409/409/409
f 373/373/373 410/410/410 374/374/374
f 373/373/373 409/409/409 410/410/410
f 374/374/374 411/411/411 375/375/375
f 374/374/374 410/410/410 411/411/411
f 375/375/375 412/412/412 376/376/376
f 375/375/375 411/411/411 412/412/412
f 376/376/376 413/413/413 377/377/377
f 376/376/376 412/412/412 413/413/413
f 377/377/377 414/414/414 378/378/378
f 377/377/377 413/413/413 414/414/414
f 378/378/378 415/415/415 379/379/379
f 378/378/378 414/414/414 415/415/415
f 379/379/379 416/416/416 380/380/380
f 379/379/379 415/415/415 416/416/416
f 380/380/380 417/417/417 381/381/381
f 380/380/380 416/416/416 417/417/417
f 381/381/381 418/418/418 382/382/382
f 381/381/381 417/417/417 418/418/418
f 382/382/382 419/419/419 383/383/383
f 382/382/382 418/418/418 419/419/419
f 383/383/383 420/420/420 384/384/384
f 383/383/383 419/419/419 420/420/420
f 384/384/384 421/421/421 385/385/385
f 384/384/384 420/420/420 421/421/421
f 385/385/385 422/422/422 386/386/386
f 385/385/385 421/421/421 422/422/422
f 386/386/386 423/423/423 387/387/387
f 386/386/386 422/422/422 423/423/423
f 387/387/387 424/424/424 388/388/388
f 387/387/387 423/423/423 424/424/424
f 388/388/388 425/425/425 389/389/389
f 388/388/388 424/424/424 425/425/425
f 389/389/389 426/426/426 390/390/390
f 389/389/389 425/425/425 426/426/426
f 390/390/390 427/427/427 391/391/391
f 390/390/390 426/426/426 427/427/427
f 391/391/391 428/428/428 392/392/392
f 391/391/391 427/427/427 428/428/428
f 392/392/392 429/429/429 393/393/393
f 392/392/392 428/428/428 429/429/429
f 393/393/393 430/430/430 394/394/394
f 393/393/393 429/429/429 430/430/430
f 394/394/394 431/431/431 395/395/395
f 394/394/394 430/430/430 431/431/431
f 395/395/395 432/432/432 396/396/396
f 395/395/395 431/431/431 432/432/432
f 396/396/396 397/397/397 361/361/361
f 396/396/396 432/432/432 397/397/397
f 397/397/397 434/434/434 398/398/398
f 397/397/397 433/433/433 434/434/434
f 398/398/398 435/435/435 399/399/399
f 398/398/398 434/434/434 435/435/435
f 399/399/399 436/436/436 400/400/400
f 399/399/399 435/435/435 436/436/436
f 400/400/400 437/437/437 401/401/401
f 400/400/400 436/436/436 437/437/437
f 401/401/401 438/438/438 402/402/402
f 401/401/401 437/437/437 438/438/438
f 402/402/402 439/439/439 403/403/403
f 402/402/402 438/438/438 439/439/439
f 403/403/403 440/440/440 404/404/404
f 403/403/403 439/439/439 440/440/440
f 404/404/404 441/441/441 405/405/405
f 404/404/404 440/440/440 441/441/441
f 405/405/405 442/442/442 406/406/406
f 405/405/405 441/441/441 442/442/442
f 406/406/406 443/443/443 407/407/407
f 406/406/406 442/442/442 443/443/443
f 407/407/407 444/444/444 408/408/408
f 407/407/407 443/443/443 444/444/444
f 408/408/408 445/445/445 409/409/409
f 408/408/408 444/444/444 445/445/445
f 409/409/409 446/446/446 410/410/410
f 409/409/409 445/445/445 446/446/446
f 410/410/410 447/447/447 411/411/411
f 410/410/410 446/446/446 447/447/447
f 411/411/411 448/448/448 412/412/412
f 411/411/411 447/447/447 448/448/448
f 412/412/412 449/449/449 413/413/413
f 412/412/412 448/448/448 449/449/449
f 413/413/413 450/450/450 414/414/414
f 413/413/413 449/449/449 450/450/450
f 414/414/414 451/451/451 415/415/415
f 414/414/414 450/450/450 451/451/451
f 415/415/415 452/452/452 416/416/416
f 415/415/415 451/451/451 452/452/452
f 416/416/416 453/453/453 417/417/417
f 416/416/416 452/452/452 453/453/453
f 417/417/417 454/454/454 418/418/418
f 417/417/417 453/453/453 454/454/454
f 418/418/418 455/455/455 419/419/419
f 418/418/418 454/454/454 455/455/455
f 419/419/419 456/456/456 420/420/420
f 419/419/419 455/455/455 456/456/456
f 420/420/420 457/457/457 421/421/421
f 420/420/420 456/456/456 457/457/457
f 421/421/421 458/458/458 422/422/422
f 421/421/421 457/457/457 458/458/458
f 422/422/422 459/459/459 423/423/423
f 422/422/422 458/458/458 459/459/459
f 423/423/423 460/460/460 424/424/424
f 423/423/423 459/459/459 460/460/460
f 424/424/424 461/461/461 425/425/425
f 424/424/424 460/460/460 461/461/461
f 425/425/425 462/462/462 426/426/426
f 425/425/425 461/461/461 462/462/462
f 426/426/426 463/463/463 427/427/427
f 426/426/426 462/462/462 463/463/463
f 427/427/427 464/464/464 428/428/428
f 427/427/427 463/463/463 464/464/464
f 428/428/428 465/465/465 429/429/429
f 428/428/428 464/464/464 465/465/465
f 429/429/429 466/466/466 430/430/430
f 429/429/429 465/465/465 466/466/466
f 430/430/430 467/467/467 431/431/431
f 430/430/430 466/466/466 467/467/467
f 431/431/431 468/468/468 432/432/432
f 431/431/431 467/467/467 468/468/468
f 432/432/432 433/433/433 397/397/397
f 432/432/432 468/468/468 433/433/433
f 433/433/433 470/470/470 434/434/434
f 433/433/433 469/469/469 470/470/470
f 434/434/434 471/471/471 435/435/435
f 434/434/434 470/470/470 471/471/471
f 435/435/435 472/472/472 436/436/436
f 435/435/435 471/471/471 472/472/472
f 436/436/436 473/473/473 437/437/437
f 436/436/436 472/472/472 473/473/473
f 437/437/437 474/474/474 438/438/438
f 437/437/437 473/473/473 474/474/474
f 438/438/438 475/475/475 439/439/439
f 438/438/438 474/474/474 475/475/475
f 439/439/439 476/476/476 440/440/440
f 439/439/439 475/475/475 476/476/476
f 440/440/440 477/477/477 441/441/441
f 440/440/440 476/476/476 477/477/477
f 441/441/441 478/478/478 442/442/442
f 441/441/441 477/477/477 478/478/478
f 442/442/442 479/479/479 443/443/443
f 442/442/442 478/478/478 479/479/479
f 443/443/443 480/480/480 444/444/444
f 443/443/443 479/479/479 480/480/480
f 444/444/444 481/481/481 445/445/445
f 444/444/444 480/480/480 481/481/481
f 445/445/445 482/482/482 446/446/446
f 445/445/445 481/481/481 482/482/482
f 446/446/446 483/483/483 447/447/447
f 446/446/446 482/482/482 483/483/483
f 447/447/447 484/484/484 448/448/448
f 447/447/447 483/483/483 484/484/484
f 448/448/448 485/485/485 449/449/449
f 448/448/448 484/484/484 485/485/485
f 449/449/449 486/486/486 450/450/450
f 449/449/449 485/485/485 486/486/486
f 450/450/450 487/487/487 451/451/451
f 450/450/450 486/486/486 487/487/487
f 451/451/451 488/488/488 452/452/452
f 451/451/451 487/487/487 488/488/488
f 452/452/452 489/489/489 453/453/453
f 452/452/452 488/488/488 489/489/489
f 453/453/453 490/490/490 454/454/454
f 453/453/453 489/489/489 490/490/490
f 454/454/454 491/491/491 455/455/455
f 454/454/454 490/490/490 491/491/491
f 455/455/455 492/492/492 456/456/456
f 455/455/455 491/491/491 492/492/492
f 456/456/456 493/493/493 457/457/457
f 456/456/456 492/492/492 493/493/493
f 457/457/457 494/494/494 458/458/458
f 457/457/457 493/493/493 494/494/494
f 458/458/458 495/495/495 459/459/459
f 458/458/458 494/494/494 495/495/495
f 459/459/459 496/496/496 460/460/460
f 459/459/459 495/495/495 496/496/496
f 460/460/460 497/497/497 461/461/461
f 460/460/460 496/496/496 497/497/497
f 461/461/461 498/498/498 462/462/462
f 461/461/461 497/497/497 498/498/498
f 462/462/462 499/499/499 463/463/463
f 462/462/462 498/498/498 499/499/499
f 463/463/463 500/500/500 464/464/464
f 463/463/463 499/499/499 500/500/500
f 464/464/464 501/501/501 465/465/465
f 464/464/464 500/500/500 501/501/501
f 465/465/465 502/502/502 466/466/466
f 465/465/465 501/501/501 502/502/502
f 466/466/466 503/503/503 467/467/467
f 466/466/466 502/502/502 503/503/503
f 467/467/467 504/504/504 468/468/468
f 467/467/467 503/503/503 504/504/504
f 468/468/468 469/469/469 433/433/433
f 468/468/468 504/504/504 469/469/469
f 505/505/505 1/1/1 2/2/2
f 505/505/505 2/2/2 3/3/3
f 505/505/505 3/3/3 4/4/4
f 505/505/505 4/4/4 5/5/5
f 505/505/505 5/5/5 6/6/6
f 505/505/505 6/6/6 7/7/7
f 505/505/505 7/7/7 8/8/8
f 505/505/505 8/8/8 9/9/9
f 505/505/505 9/9/9 10/10/10
f 505/505/505 10/10/10 11/11/11
f 505/505/505 11/11/11 12/12/12
f 505/505/505 12/12/12 13/13/13
f 505/505/505 13/13/13 14/14/14
f 505/505/505 14/14/14 15/15/15
f 505/505/505 15/15/15 16/16/16
f 505/505/505 16/16/16 17/17/17
f 505/505/505 17/17/17 18/18/18
f 505/505/505 18/18/18 19/19/19
f 505/505/505 19/19/19 20/20/20
f 505/505/505 20/20/20 21/21/21
f 505/505/505 21/21/21 22/22/22
f 505/505/505 22/22/22 23/23/23
f 505/505/505 23/23/23 24/24/24
f 505/505/505 24/24/24 25/25/25
f 505/505/505 25/25/25 26/26/26
f 505/505/505 26/26/26 27/27/27
f 505/505/505 27/27/27 28/28/28
f 505/505/505 28/28/28 29/29/29
f 505/505/505 29/29/29 30/30/30
f 505/505/505 30/30/30 31/31/31
f 505/505/505 31/31/31 32/32/32
f 505/505/505 32/32/32 33/33/33
f 505/505/505 33/33/33 34/34/34
f 505/505/505 34/34/34 35/35/35
f 505/505/505 35/35/35 36/36/36
f 505/505/505 36/36/36 1/1/1
