# procedural placeholder mesh: farmer_upper_arm
v 0.01800 0.05000 0.00000
v 0.01725 0.05000 0.00569
v 0.01505 0.05000 0.01100
v 0.01156 0.05000 0.01556
v 0.00700 0.05000 0.01905
v 0.00169 0.05000 0.02125
v -0.00400 0.05000 0.02200
v -0.00969 0.05000 0.02125
v -0.01500 0.05000 0.01905
v -0.01956 0.05000 0.01556
v -0.02305 0.05000 0.01100
v -0.02525 0.05000 0.00569
v -0.02600 0.05000 0.00000
v -0.02525 0.05000 -0.00569
v -0.02305 0.05000 -0.01100
v -0.01956 0.05000 -0.01556
v -0.01500 0.05000 -0.01905
v -0.00969 0.05000 -0.02125
v -0.00400 0.05000 -0.02200
v 0.00169 0.05000 -0.02125
v 0.00700 0.05000 -0.01905
v 0.01156 0.05000 -0.01556
v 0.01505 0.05000 -0.01100
v 0.01725 0.05000 -0.00569
v 0.02942 0.04534 0.00000
v 0.02828 0.04534 0.00909
v 0.02494 0.04534 0.01756
v 0.01963 0.04534 0.02484
v 0.01271 0.04534 0.03042
v 0.00465 0.04534 0.03393
v -0.00400 0.04534 0.03512
v -0.01265 0.04534 0.03393
v -0.02071 0.04534 0.03042
v -0.02763 0.04534 0.02484
v -0.03294 0.04534 0.01756
v -0.03628 0.04534 0.00909
v -0.03742 0.04534 0.00000
v -0.03628 0.04534 -0.00909
v -0.03294 0.04534 -0.01756
v -0.02763 0.04534 -0.02484
v -0.02071 0.04534 -0.03042
v -0.01265 0.04534 -0.03393
v -0.00400 0.04534 -0.03512
v 0.00465 0.04534 -0.03393
v 0.01271 0.04534 -0.03042
v 0.01963 0.04534 -0.02484
v 0.02494 0.04534 -0.01756
v 0.02828 0.04534 -0.00909
v 0.04103 0.04074 0.00000
v 0.03950 0.04074 0.01256
v 0.03500 0.04074 0.02426
v 0.02784 0.04074 0.03431
v 0.01852 0.04074 0.04202
v 0.00766 0.04074 0.04686
v -0.00400 0.04074 0.04852
v -0.01566 0.04074 0.04686
v -0.02652 0.04074 0.04202
v -0.03584 0.04074 0.03431
v -0.04300 0.04074 0.02426
v -0.04750 0.04074 0.01256
v -0.04903 0.04074 0.00000
v -0.04750 0.04074 -0.01256
v -0.04300 0.04074 -0.02426
v -0.03584 0.04074 -0.03431
v -0.02652 0.04074 -0.04202
v -0.01566 0.04074 -0.04686
v -0.00400 0.04074 -0.04852
v 0.00766 0.04074 -0.04686
v 0.01852 0.04074 -0.04202
v 0.02784 0.04074 -0.03431
v 0.03500 0.04074 -0.02426
v 0.03950 0.04074 -0.01256
v 0.04922 0.03511 0.00000
v 0.04741 0.03511 0.01484
v 0.04209 0.03511 0.02866
v 0.03363 0.03511 0.04053
v 0.02261 0.03511 0.04964
v 0.00978 0.03511 0.05537
v -0.00400 0.03511 0.05732
v -0.01778 0.03511 0.05537
v -0.03061 0.03511 0.04964
v -0.04163 0.03511 0.04053
v -0.05009 0.03511 0.02866
v -0.05541 0.03511 0.01484
v -0.05722 0.03511 0.00000
v -0.05541 0.03511 -0.01484
v -0.05009 0.03511 -0.02866
v -0.04163 0.03511 -0.04053
v -0.03061 0.03511 -0.04964
v -0.01778 0.03511 -0.05537
v -0.00400 0.03511 -0.05732
v 0.00978 0.03511 -0.05537
v 0.02261 0.03511 -0.04964
v 0.03363 0.03511 -0.04053
v 0.04209 0.03511 -0.02866
v 0.04741 0.03511 -0.01484
v 0.05388 0.02750 0.00000
v 0.05194 0.02750 0.01566
v 0.04622 0.02750 0.03025
v 0.03713 0.02750 0.04278
v 0.02528 0.02750 0.05239
v 0.01149 0.02750 0.05844
v -0.00331 0.02750 0.06050
v -0.01812 0.02750 0.05844
v -0.03191 0.02750 0.05239
v -0.04376 0.02750 0.04278
v -0.05285 0.02750 0.03025
v -0.05857 0.02750 0.01566
v -0.06051 0.02750 0.00000
v -0.05857 0.02750 -0.01566
v -0.05285 0.02750 -0.03025
v -0.04376 0.02750 -0.04278
v -0.03191 0.02750 -0.05239
v -0.01812 0.02750 -0.05844
v -0.00331 0.02750 -0.06050
v 0.01149 0.02750 -0.05844
v 0.02528 0.02750 -0.05239
v 0.03713 0.02750 -0.04278
v 0.04622 0.02750 -0.03025
v 0.05194 0.02750 -0.01566
v 0.05872 0.01751 0.00000
v 0.05667 0.01751 0.01624
v 0.05065 0.01751 0.03138
v 0.04108 0.01751 0.04438
v 0.02860 0.01751 0.05435
v 0.01406 0.01751 0.06062
v -0.00153 0.01751 0.06276
v -0.01712 0.01751 0.06062
v -0.03166 0.01751 0.05435
v -0.04414 0.01751 0.04438
v -0.05371 0.01751 0.03138
v -0.05973 0.01751 0.01624
v -0.06178 0.01751 0.00000
v -0.05973 0.01751 -0.01624
v -0.05371 0.01751 -0.03138
v -0.04414 0.01751 -0.04438
v -0.03166 0.01751 -0.05435
v -0.01712 0.01751 -0.06062
v -0.00153 0.01751 -0.06276
v 0.01406 0.01751 -0.06062
v 0.02860 0.01751 -0.05435
v 0.04108 0.01751 -0.04438
v 0.05065 0.01751 -0.03138
v 0.05667 0.01751 -0.01624
v 0.06176 0.00486 0.00000
v 0.05965 0.00486 0.01654
v 0.05347 0.00486 0.03196
v 0.04363 0.00486 0.04520
v 0.03082 0.00486 0.05535
v 0.01589 0.00486 0.06174
v -0.00012 0.00486 0.06392
v -0.01614 0.00486 0.06174
v -0.03106 0.00486 0.05535
v -0.04388 0.00486 0.04520
v -0.05371 0.00486 0.03196
v -0.05989 0.00486 0.01654
v -0.06200 0.00486 0.00000
v -0.05989 0.00486 -0.01654
v -0.05371 0.00486 -0.03196
v -0.04388 0.00486 -0.04520
v -0.03106 0.00486 -0.05535
v -0.01614 0.00486 -0.06174
v -0.00012 0.00486 -0.06392
v 0.01589 0.00486 -0.06174
v 0.03082 0.00486 -0.05535
v 0.04363 0.00486 -0.04520
v 0.05347 0.00486 -0.03196
v 0.05965 0.00486 -0.01654
v 0.06152 -0.01205 0.00000
v 0.05943 -0.01205 0.01644
v 0.05328 -0.01205 0.03176
v 0.04350 -0.01205 0.04492
v 0.03076 -0.01205 0.05501
v 0.01592 -0.01205 0.06136
v 0.00000 -0.01205 0.06352
v -0.01592 -0.01205 0.06136
v -0.03076 -0.01205 0.05501
v -0.04350 -0.01205 0.04492
v -0.05328 -0.01205 0.03176
v -0.05943 -0.01205 0.01644
v -0.06152 -0.01205 0.00000
v -0.05943 -0.01205 -0.01644
v -0.05328 -0.01205 -0.03176
v -0.04350 -0.01205 -0.04492
v -0.03076 -0.01205 -0.05501
v -0.01592 -0.01205 -0.06136
v -0.00000 -0.01205 -0.06352
v 0.01592 -0.01205 -0.06136
v 0.03076 -0.01205 -0.05501
v 0.04350 -0.01205 -0.04492
v 0.05328 -0.01205 -0.03176
v 0.05943 -0.01205 -0.01644
v 0.05955 -0.03619 0.00000
v 0.05752 -0.03619 0.01593
v 0.05157 -0.03619 0.03078
v 0.04211 -0.03619 0.04352
v 0.02978 -0.03619 0.05330
v 0.01541 -0.03619 0.05945
v 0.00000 -0.03619 0.06155
v -0.01541 -0.03619 0.05945
v -0.02978 -0.03619 0.05330
v -0.04211 -0.03619 0.04352
v -0.05157 -0.03619 0.03078
v -0.05752 -0.03619 0.01593
v -0.05955 -0.03619 0.00000
v -0.05752 -0.03619 -0.01593
v -0.05157 -0.03619 -0.03078
v -0.04211 -0.03619 -0.04352
v -0.02978 -0.03619 -0.05330
v -0.01541 -0.03619 -0.05945
v -0.00000 -0.03619 -0.06155
v 0.01541 -0.03619 -0.05945
v 0.02978 -0.03619 -0.05330
v 0.04211 -0.03619 -0.04352
v 0.05157 -0.03619 -0.03078
v 0.05752 -0.03619 -0.01593
v 0.05707 -0.06490 0.00000
v 0.05513 -0.06490 0.01529
v 0.04943 -0.06490 0.02954
v 0.04036 -0.06490 0.04177
v 0.02854 -0.06490 0.05116
v 0.01477 -0.06490 0.05706
v 0.00000 -0.06490 0.05907
v -0.01477 -0.06490 0.05706
v -0.02854 -0.06490 0.05116
v -0.04036 -0.06490 0.04177
v -0.04943 -0.06490 0.02954
v -0.05513 -0.06490 0.01529
v -0.05707 -0.06490 0.00000
v -0.05513 -0.06490 -0.01529
v -0.04943 -0.06490 -0.02954
v -0.04036 -0.06490 -0.04177
v -0.02854 -0.06490 -0.05116
v -0.01477 -0.06490 -0.05706
v -0.00000 -0.06490 -0.05907
v 0.01477 -0.06490 -0.05706
v 0.02854 -0.06490 -0.05116
v 0.04036 -0.06490 -0.04177
v 0.04943 -0.06490 -0.02954
v 0.05513 -0.06490 -0.01529
v 0.05496 -0.09662 0.00000
v 0.05309 -0.09662 0.01475
v 0.04760 -0.09662 0.02849
v 0.03886 -0.09662 0.04030
v 0.02748 -0.09662 0.04935
v 0.01423 -0.09662 0.05505
v 0.00000 -0.09662 0.05699
v -0.01423 -0.09662 0.05505
v -0.02748 -0.09662 0.04935
v -0.03886 -0.09662 0.04030
v -0.04760 -0.09662 0.02849
v -0.05309 -0.09662 0.01475
v -0.05496 -0.09662 0.00000
v -0.05309 -0.09662 -0.01475
v -0.04760 -0.09662 -0.02849
v -0.03886 -0.09662 -0.04030
v -0.02748 -0.09662 -0.04935
v -0.01423 -0.09662 -0.05505
v -0.00000 -0.09662 -0.05699
v 0.01423 -0.09662 -0.05505
v 0.02748 -0.09662 -0.04935
v 0.03886 -0.09662 -0.04030
v 0.04760 -0.09662 -0.02849
v 0.05309 -0.09662 -0.01475
v 0.05265 -0.13572 0.00000
v 0.05086 -0.13572 0.01418
v 0.04560 -0.13572 0.02740
v 0.03723 -0.13572 0.03875
v 0.02633 -0.13572 0.04746
v 0.01363 -0.13572 0.05294
v 0.00000 -0.13572 0.05480
v -0.01363 -0.13572 0.05294
v -0.02633 -0.13572 0.04746
v -0.03723 -0.13572 0.03875
v -0.04560 -0.13572 0.02740
v -0.05086 -0.13572 0.01418
v -0.05265 -0.13572 0.00000
v -0.05086 -0.13572 -0.01418
v -0.04560 -0.13572 -0.02740
v -0.03723 -0.13572 -0.03875
v -0.02633 -0.13572 -0.04746
v -0.01363 -0.13572 -0.05294
v -0.00000 -0.13572 -0.05480
v 0.01363 -0.13572 -0.05294
v 0.02633 -0.13572 -0.04746
v 0.03723 -0.13572 -0.03875
v 0.04560 -0.13572 -0.02740
v 0.05086 -0.13572 -0.01418
v 0.05070 -0.17615 0.00000
v 0.04897 -0.17615 0.01368
v 0.04391 -0.17615 0.02643
v 0.03585 -0.17615 0.03738
v 0.02535 -0.17615 0.04579
v 0.01312 -0.17615 0.05107
v 0.00000 -0.17615 0.05287
v -0.01312 -0.17615 0.05107
v -0.02535 -0.17615 0.04579
v -0.03585 -0.17615 0.03738
v -0.04391 -0.17615 0.02643
v -0.04897 -0.17615 0.01368
v -0.05070 -0.17615 0.00000
v -0.04897 -0.17615 -0.01368
v -0.04391 -0.17615 -0.02643
v -0.03585 -0.17615 -0.03738
v -0.02535 -0.17615 -0.04579
v -0.01312 -0.17615 -0.05107
v -0.00000 -0.17615 -0.05287
v 0.01312 -0.17615 -0.05107
v 0.02535 -0.17615 -0.04579
v 0.03585 -0.17615 -0.03738
v 0.04391 -0.17615 -0.02643
v 0.04897 -0.17615 -0.01368
v 0.04984 -0.21112 0.00000
v 0.04814 -0.21112 0.01339
v 0.04317 -0.21112 0.02586
v 0.03524 -0.21112 0.03657
v 0.02492 -0.21112 0.04479
v 0.01290 -0.21112 0.04996
v 0.00000 -0.21112 0.05172
v -0.01290 -0.21112 0.04996
v -0.02492 -0.21112 0.04479
v -0.03524 -0.21112 0.03657
v -0.04317 -0.21112 0.02586
v -0.04814 -0.21112 0.01339
v -0.04984 -0.21112 0.00000
v -0.04814 -0.21112 -0.01339
v -0.04317 -0.21112 -0.02586
v -0.03524 -0.21112 -0.03657
v -0.02492 -0.21112 -0.04479
v -0.01290 -0.21112 -0.04996
v -0.00000 -0.21112 -0.05172
v 0.01290 -0.21112 -0.04996
v 0.02492 -0.21112 -0.04479
v 0.03524 -0.21112 -0.03657
v 0.04317 -0.21112 -0.02586
v 0.04814 -0.21112 -0.01339
v 0.04957 -0.24559 0.00000
v 0.04788 -0.24559 0.01324
v 0.04293 -0.24559 0.02559
v 0.03505 -0.24559 0.03618
v 0.02478 -0.24559 0.04432
v 0.01283 -0.24559 0.04943
v 0.00000 -0.24559 0.05117
v -0.01283 -0.24559 0.04943
v -0.02478 -0.24559 0.04432
v -0.03505 -0.24559 0.03618
v -0.04293 -0.24559 0.02559
v -0.04788 -0.24559 0.01324
v -0.04957 -0.24559 0.00000
v -0.04788 -0.24559 -0.01324
v -0.04293 -0.24559 -0.02559
v -0.03505 -0.24559 -0.03618
v -0.02478 -0.24559 -0.04432
v -0.01283 -0.24559 -0.04943
v -0.00000 -0.24559 -0.05117
v 0.01283 -0.24559 -0.04943
v 0.02478 -0.24559 -0.04432
v 0.03505 -0.24559 -0.03618
v 0.04293 -0.24559 -0.02559
v 0.04788 -0.24559 -0.01324
v 0.04935 -0.27515 0.00000
v 0.04767 -0.27515 0.01312
v 0.04274 -0.27515 0.02534
v 0.03490 -0.27515 0.03584
v 0.02467 -0.27515 0.04390
v 0.01277 -0.27515 0.04896
v 0.00000 -0.27515 0.05069
v -0.01277 -0.27515 0.04896
v -0.02467 -0.27515 0.04390
v -0.03490 -0.27515 0.03584
v -0.04274 -0.27515 0.02534
v -0.04767 -0.27515 0.01312
v -0.04935 -0.27515 0.00000
v -0.04767 -0.27515 -0.01312
v -0.04274 -0.27515 -0.02534
v -0.03490 -0.27515 -0.03584
v -0.02467 -0.27515 -0.04390
v -0.01277 -0.27515 -0.04896
v -0.00000 -0.27515 -0.05069
v 0.01277 -0.27515 -0.04896
v 0.02467 -0.27515 -0.04390
v 0.03490 -0.27515 -0.03584
v 0.04274 -0.27515 -0.02534
v 0.04767 -0.27515 -0.01312
v 0.04884 -0.29165 0.00000
v 0.04718 -0.29165 0.01288
v 0.04230 -0.29165 0.02488
v 0.03454 -0.29165 0.03519
v 0.02442 -0.29165 0.04309
v 0.01264 -0.29165 0.04806
v 0.00000 -0.29165 0.04976
v -0.01264 -0.29165 0.04806
v -0.02442 -0.29165 0.04309
v -0.03454 -0.29165 0.03519
v -0.04230 -0.29165 0.02488
v -0.04718 -0.29165 0.01288
v -0.04884 -0.29165 0.00000
v -0.04718 -0.29165 -0.01288
v -0.04230 -0.29165 -0.02488
v -0.03454 -0.29165 -0.03519
v -0.02442 -0.29165 -0.04309
v -0.01264 -0.29165 -0.04806
v -0.00000 -0.29165 -0.04976
v 0.01264 -0.29165 -0.04806
v 0.02442 -0.29165 -0.04309
v 0.03454 -0.29165 -0.03519
v 0.04230 -0.29165 -0.02488
v 0.04718 -0.29165 -0.01288
v 0.04585 -0.29924 0.00000
v 0.04429 -0.29924 0.01201
v 0.03971 -0.29924 0.02319
v 0.03242 -0.29924 0.03280
v 0.02292 -0.29924 0.04017
v 0.01187 -0.29924 0.04480
v 0.00000 -0.29924 0.04639
v -0.01187 -0.29924 0.04480
v -0.02292 -0.29924 0.04017
v -0.03242 -0.29924 0.03280
v -0.03971 -0.29924 0.02319
v -0.04429 -0.29924 0.01201
v -0.04585 -0.29924 0.00000
v -0.04429 -0.29924 -0.01201
v -0.03971 -0.29924 -0.02319
v -0.03242 -0.29924 -0.03280
v -0.02292 -0.29924 -0.04017
v -0.01187 -0.29924 -0.04480
v -0.00000 -0.29924 -0.04639
v 0.01187 -0.29924 -0.04480
v 0.02292 -0.29924 -0.04017
v 0.03242 -0.29924 -0.03280
v 0.03971 -0.29924 -0.02319
v 0.04429 -0.29924 -0.01201
v 0.04087 -0.30455 0.00000
v 0.03947 -0.30455 0.01065
v 0.03539 -0.30455 0.02057
v 0.02890 -0.30455 0.02909
v 0.02043 -0.30455 0.03563
v 0.01058 -0.30455 0.03974
v 0.00000 -0.30455 0.04114
v -0.01058 -0.30455 0.03974
v -0.02043 -0.30455 0.03563
v -0.02890 -0.30455 0.02909
v -0.03539 -0.30455 0.02057
v -0.03947 -0.30455 0.01065
v -0.04087 -0.30455 0.00000
v -0.03947 -0.30455 -0.01065
v -0.03539 -0.30455 -0.02057
v -0.02890 -0.30455 -0.02909
v -0.02043 -0.30455 -0.03563
v -0.01058 -0.30455 -0.03974
v -0.00000 -0.30455 -0.04114
v 0.01058 -0.30455 -0.03974
v 0.02043 -0.30455 -0.03563
v 0.02890 -0.30455 -0.02909
v 0.03539 -0.30455 -0.02057
v 0.03947 -0.30455 -0.01065
v 0.03600 -0.31000 0.00000
v 0.03477 -0.31000 0.00932
v 0.03118 -0.31000 0.01800
v 0.02546 -0.31000 0.02546
v 0.01800 -0.31000 0.03118
v 0.00932 -0.31000 0.03477
v 0.00000 -0.31000 0.03600
v -0.00932 -0.31000 0.03477
v -0.01800 -0.31000 0.03118
v -0.02546 -0.31000 0.02546
v -0.03118 -0.31000 0.01800
v -0.03477 -0.31000 0.00932
v -0.03600 -0.31000 0.00000
v -0.03477 -0.31000 -0.00932
v -0.03118 -0.31000 -0.01800
v -0.02546 -0.31000 -0.02546
v -0.01800 -0.31000 -0.03118
v -0.00932 -0.31000 -0.03477
v -0.00000 -0.31000 -0.03600
v 0.00932 -0.31000 -0.03477
v 0.01800 -0.31000 -0.03118
v 0.02546 -0.31000 -0.02546
v 0.03118 -0.31000 -0.01800
v 0.03477 -0.31000 -0.00932
v -0.00400 0.05000 0.00000
v 0.00000 -0.31000 0.00000
vn 0.1932 0.9811 0.0107
vn 0.1827 0.9814 0.0590
vn 0.1589 0.9820 0.1021
vn 0.1247 0.9827 0.1369
vn 0.0831 0.9833 0.1618
vn 0.0371 0.9837 0.1758
vn -0.0107 0.9838 0.1790
vn -0.0580 0.9835 0.1712
vn -0.1024 0.9830 0.1524
vn -0.1411 0.9823 0.1231
vn -0.1711 0.9816 0.0843
vn -0.1892 0.9812 0.0385
vn -0.1932 0.9811 -0.0107
vn -0.1827 0.9814 -0.0590
vn -0.1589 0.9820 -0.1021
vn -0.1247 0.9827 -0.1369
vn -0.0831 0.9833 -0.1618
vn -0.0371 0.9837 -0.1758
vn 0.0107 0.9838 -0.1790
vn 0.0580 0.9835 -0.1712
vn 0.1024 0.9830 -0.1524
vn 0.1411 0.9823 -0.1231
vn 0.1711 0.9816 -0.0843
vn 0.1892 0.9812 -0.0385
vn 0.3720 0.9282 0.0052
vn 0.3560 0.9295 0.0962
vn 0.3134 0.9328 0.1782
vn 0.2496 0.9369 0.2449
vn 0.1713 0.9407 0.2928
vn 0.0846 0.9433 0.3209
vn -0.0056 0.9442 0.3294
vn -0.0955 0.9431 0.3184
vn -0.1812 0.9404 0.2878
vn -0.2578 0.9365 0.2377
vn -0.3193 0.9324 0.1693
vn -0.3591 0.9293 0.0861
vn -0.3720 0.9282 -0.0052
vn -0.3560 0.9295 -0.0962
vn -0.3134 0.9328 -0.1782
vn -0.2496 0.9369 -0.2449
vn -0.1713 0.9407 -0.2928
vn -0.0846 0.9433 -0.3209
vn 0.0056 0.9442 -0.3294
vn 0.0955 0.9431 -0.3184
vn 0.1812 0.9404 -0.2878
vn 0.2578 0.9365 -0.2377
vn 0.3193 0.9324 -0.1693
vn 0.3591 0.9293 -0.0861
vn 0.4663 0.8846 0.0061
vn 0.4487 0.8858 0.1182
vn 0.3996 0.8895 0.2218
vn 0.3230 0.8945 0.3093
vn 0.2249 0.8994 0.3748
vn 0.1125 0.9031 0.4145
vn -0.0066 0.9045 0.4265
vn -0.1250 0.9033 0.4104
vn -0.2354 0.8998 0.3673
vn -0.3308 0.8950 0.2993
vn -0.4046 0.8900 0.2104
vn -0.4511 0.8861 0.1062
vn -0.4663 0.8846 -0.0061
vn -0.4487 0.8858 -0.1182
vn -0.3996 0.8895 -0.2218
vn -0.3230 0.8945 -0.3093
vn -0.2249 0.8994 -0.3748
vn -0.1125 0.9031 -0.4145
vn 0.0066 0.9045 -0.4265
vn 0.1250 0.9033 -0.4104
vn 0.2354 0.8998 -0.3673
vn 0.3308 0.8950 -0.2993
vn 0.4046 0.8900 -0.2104
vn 0.4511 0.8861 -0.1062
vn 0.7231 0.6907 0.0077
vn 0.7016 0.6886 0.1832
vn 0.6381 0.6846 0.3524
vn 0.5313 0.6792 0.5063
vn 0.3822 0.6732 0.6330
vn 0.1975 0.6670 0.7184
vn -0.0088 0.6614 0.7500
vn -0.2169 0.6566 0.7224
vn -0.4062 0.6531 0.6392
vn -0.5613 0.6506 0.5115
vn -0.6738 0.6491 0.3531
vn -0.7409 0.6479 0.1766
vn -0.7624 0.6471 -0.0081
vn -0.7382 0.6465 -0.1928
vn -0.6678 0.6466 -0.3687
vn -0.5513 0.6481 -0.5254
vn -0.3921 0.6514 -0.6495
vn -0.1999 0.6567 -0.7271
vn 0.0088 0.6636 -0.7481
vn 0.2132 0.6710 -0.7101
vn 0.3941 0.6782 -0.6202
vn 0.5390 0.6843 -0.4912
vn 0.6423 0.6886 -0.3366
vn 0.7034 0.6908 -0.1677
vn 0.8808 0.4734 0.0072
vn 0.8558 0.4661 0.2244
vn 0.7822 0.4455 0.4355
vn 0.6563 0.4134 0.6312
vn 0.4768 0.3731 0.7959
vn 0.2497 0.3304 0.9102
vn -0.0080 0.2919 0.9564
vn -0.2706 0.2633 0.9260
vn -0.5116 0.2470 0.8229
vn -0.7104 0.2414 0.6611
vn -0.8552 0.2424 0.4581
vn -0.9416 0.2456 0.2305
vn -0.9688 0.2476 -0.0079
vn -0.9373 0.2472 -0.2457
vn -0.8469 0.2456 -0.4716
vn -0.6987 0.2458 -0.6719
vn -0.4972 0.2523 -0.8301
vn -0.2548 0.2690 -0.9288
vn 0.0079 0.2974 -0.9547
vn 0.2643 0.3353 -0.9043
vn 0.4890 0.3771 -0.7866
vn 0.6656 0.4163 -0.6194
vn 0.7884 0.4474 -0.4223
vn 0.8589 0.4670 -0.2103
vn 0.9451 0.3268 0.0062
vn 0.9158 0.3206 0.2418
vn 0.8310 0.3015 0.4675
vn 0.6902 0.2709 0.6710
vn 0.4960 0.2322 0.8367
vn 0.2578 0.1900 0.9473
vn -0.0065 0.1497 0.9887
vn -0.2734 0.1160 0.9549
vn -0.5190 0.0915 0.8499
vn -0.7240 0.0762 0.6856
vn -0.8759 0.0682 0.4777
vn -0.9681 0.0650 0.2422
vn -0.9979 0.0644 -0.0065
vn -0.9648 0.0657 -0.2548
vn -0.8694 0.0694 -0.4891
vn -0.7148 0.0775 -0.6950
vn -0.5078 0.0924 -0.8565
vn -0.2609 0.1160 -0.9584
vn 0.0065 0.1486 -0.9889
vn 0.2704 0.1879 -0.9442
vn 0.5073 0.2296 -0.8306
vn 0.6995 0.2683 -0.6624
vn 0.8376 0.2994 -0.4569
vn 0.9193 0.3195 -0.2299
vn 0.9956 0.0939 0.0064
vn 0.9623 0.0922 0.2560
vn 0.8668 0.0852 0.4914
vn 0.7123 0.0738 0.6980
vn 0.5060 0.0592 0.8605
vn 0.2603 0.0432 0.9646
vn -0.0067 0.0278 0.9996
vn -0.2735 0.0145 0.9618
vn -0.5183 0.0044 0.8552
vn -0.7234 -0.0025 0.6904
vn -0.8763 -0.0065 0.4818
vn -0.9696 -0.0085 0.2445
vn -0.9999 -0.0090 -0.0065
vn -0.9663 -0.0084 -0.2571
vn -0.8699 -0.0066 -0.4932
vn -0.7142 -0.0030 -0.6999
vn -0.5069 0.0029 -0.8620
vn -0.2605 0.0119 -0.9654
vn 0.0067 0.0239 -0.9997
vn 0.2733 0.0384 -0.9612
vn 0.5176 0.0540 -0.8539
vn 0.7217 0.0689 -0.6888
vn 0.8734 0.0815 -0.4802
vn 0.9657 0.0902 -0.2436
vn 0.9985 -0.0534 0.0066
vn 0.9649 -0.0535 0.2572
vn 0.8683 -0.0539 0.4931
vn 0.7126 -0.0545 0.6995
vn 0.5054 -0.0554 0.8611
vn 0.2595 -0.0563 0.9641
vn -0.0071 -0.0572 0.9983
vn -0.2730 -0.0580 0.9603
vn -0.5172 -0.0587 0.8538
vn -0.7219 -0.0591 0.6895
vn -0.8746 -0.0593 0.4812
vn -0.9679 -0.0595 0.2442
vn -0.9982 -0.0595 -0.0066
vn -0.9646 -0.0594 -0.2571
vn -0.8680 -0.0593 -0.4930
vn -0.7124 -0.0590 -0.6993
vn -0.5053 -0.0587 -0.8610
vn -0.2595 -0.0582 -0.9640
vn 0.0071 -0.0575 -0.9983
vn 0.2731 -0.0567 -0.9603
vn 0.5173 -0.0558 -0.8540
vn 0.7221 -0.0549 -0.6896
vn 0.8748 -0.0542 -0.4814
vn 0.9682 -0.0537 -0.2443
vn 0.9965 -0.0839 0.0021
vn 0.9641 -0.0839 0.2520
vn 0.8689 -0.0839 0.4878
vn 0.7147 -0.0839 0.6944
vn 0.5088 -0.0839 0.8568
vn 0.2638 -0.0839 0.9609
vn -0.0023 -0.0839 0.9965
vn -0.2681 -0.0839 0.9597
vn -0.5125 -0.0839 0.8545
vn -0.7177 -0.0839 0.6913
vn -0.8710 -0.0839 0.4841
vn -0.9651 -0.0839 0.2480
vn -0.9965 -0.0839 -0.0021
vn -0.9641 -0.0839 -0.2520
vn -0.8689 -0.0839 -0.4878
vn -0.7147 -0.0839 -0.6944
vn -0.5088 -0.0839 -0.8568
vn -0.2638 -0.0839 -0.9609
vn 0.0023 -0.0839 -0.9965
vn 0.2681 -0.0839 -0.9597
vn 0.5125 -0.0839 -0.8545
vn 0.7177 -0.0839 -0.6913
vn 0.8710 -0.0839 -0.4841
vn 0.9651 -0.0839 -0.2480
vn 0.9971 -0.0758 0.0004
vn 0.9652 -0.0758 0.2503
vn 0.8706 -0.0757 0.4861
vn 0.7168 -0.0756 0.6932
vn 0.5111 -0.0755 0.8562
vn 0.2660 -0.0755 0.9610
vn -0.0005 -0.0754 0.9972
vn -0.2670 -0.0755 0.9607
vn -0.5120 -0.0755 0.8557
vn -0.7175 -0.0756 0.6925
vn -0.8710 -0.0757 0.4853
vn -0.9654 -0.0758 0.2495
vn -0.9971 -0.0758 -0.0004
vn -0.9652 -0.0758 -0.2503
vn -0.8706 -0.0757 -0.4861
vn -0.7168 -0.0756 -0.6932
vn -0.5111 -0.0755 -0.8562
vn -0.2660 -0.0755 -0.9610
vn 0.0005 -0.0754 -0.9972
vn 0.2670 -0.0755 -0.9607
vn 0.5120 -0.0755 -0.8557
vn 0.7175 -0.0756 -0.6925
vn 0.8710 -0.0757 -0.4853
vn 0.9654 -0.0758 -0.2495
vn 0.9981 -0.0623 0.0027
vn 0.9657 -0.0621 0.2523
vn 0.8708 -0.0617 0.4878
vn 0.7166 -0.0612 0.6948
vn 0.5103 -0.0607 0.8578
vn 0.2644 -0.0604 0.9625
vn -0.0030 -0.0603 0.9982
vn -0.2702 -0.0605 0.9609
vn -0.5154 -0.0609 0.8548
vn -0.7206 -0.0614 0.6907
vn -0.8734 -0.0619 0.4830
vn -0.9670 -0.0622 0.2470
vn -0.9981 -0.0623 -0.0027
vn -0.9657 -0.0621 -0.2523
vn -0.8708 -0.0617 -0.4878
vn -0.7166 -0.0612 -0.6948
vn -0.5103 -0.0607 -0.8578
vn -0.2644 -0.0604 -0.9625
vn 0.0030 -0.0603 -0.9982
vn 0.2702 -0.0605 -0.9609
vn 0.5154 -0.0609 -0.8548
vn 0.7206 -0.0614 -0.6907
vn 0.8734 -0.0619 -0.4830
vn 0.9670 -0.0622 -0.2470
vn 0.9986 -0.0535 -0.0010
vn 0.9673 -0.0535 0.2481
vn 0.8736 -0.0532 0.4836
vn 0.7207 -0.0528 0.6913
vn 0.5151 -0.0524 0.8555
vn 0.2691 -0.0520 0.9617
vn 0.0009 -0.0518 0.9987
vn -0.2673 -0.0519 0.9622
vn -0.5134 -0.0522 0.8565
vn -0.7193 -0.0526 0.6927
vn -0.8727 -0.0530 0.4854
vn -0.9668 -0.0534 0.2500
vn -0.9986 -0.0535 0.0010
vn -0.9673 -0.0535 -0.2481
vn -0.8736 -0.0532 -0.4836
vn -0.7207 -0.0528 -0.6913
vn -0.5151 -0.0524 -0.8555
vn -0.2691 -0.0520 -0.9617
vn -0.0009 -0.0518 -0.9987
vn 0.2673 -0.0519 -0.9622
vn 0.5134 -0.0522 -0.8565
vn 0.7193 -0.0526 -0.6927
vn 0.8727 -0.0530 -0.4854
vn 0.9668 -0.0534 -0.2500
vn 0.9993 -0.0374 -0.0042
vn 0.9688 -0.0377 0.2448
vn 0.8761 -0.0385 0.4806
vn 0.7239 -0.0394 0.6888
vn 0.5188 -0.0402 0.8539
vn 0.2730 -0.0408 0.9611
vn 0.0046 -0.0409 0.9992
vn -0.2642 -0.0405 0.9636
vn -0.5111 -0.0397 0.8586
vn -0.7178 -0.0388 0.6952
vn -0.8719 -0.0380 0.4882
vn -0.9667 -0.0374 0.2531
vn -0.9993 -0.0374 0.0042
vn -0.9688 -0.0377 -0.2448
vn -0.8761 -0.0385 -0.4806
vn -0.7239 -0.0394 -0.6888
vn -0.5188 -0.0402 -0.8539
vn -0.2730 -0.0408 -0.9611
vn -0.0046 -0.0409 -0.9992
vn 0.2642 -0.0405 -0.9636
vn 0.5111 -0.0397 -0.8586
vn 0.7178 -0.0388 -0.6952
vn 0.8719 -0.0380 -0.4882
vn 0.9667 -0.0374 -0.2531
vn 0.9999 -0.0165 -0.0008
vn 0.9683 -0.0170 0.2492
vn 0.8741 -0.0184 0.4854
vn 0.7206 -0.0204 0.6931
vn 0.5147 -0.0224 0.8571
vn 0.2688 -0.0239 0.9629
vn 0.0011 -0.0244 0.9997
vn -0.2668 -0.0239 0.9635
vn -0.5129 -0.0224 0.8581
vn -0.7193 -0.0204 0.6944
vn -0.8733 -0.0184 0.4869
vn -0.9679 -0.0170 0.2508
vn -0.9999 -0.0165 0.0008
vn -0.9683 -0.0170 -0.2492
vn -0.8741 -0.0184 -0.4854
vn -0.7206 -0.0204 -0.6931
vn -0.5147 -0.0224 -0.8571
vn -0.2688 -0.0239 -0.9629
vn -0.0011 -0.0244 -0.9997
vn 0.2668 -0.0239 -0.9635
vn 0.5129 -0.0224 -0.8581
vn 0.7193 -0.0204 -0.6944
vn 0.8733 -0.0184 -0.4869
vn 0.9679 -0.0170 -0.2508
vn 1.0000 -0.0078 -0.0035
vn 0.9688 -0.0083 0.2478
vn 0.8745 -0.0098 0.4849
vn 0.7208 -0.0118 0.6930
vn 0.5153 -0.0139 0.8569
vn 0.2704 -0.0154 0.9626
vn 0.0039 -0.0160 0.9999
vn -0.2629 -0.0154 0.9647
vn -0.5087 -0.0139 0.8608
vn -0.7157 -0.0118 0.6983
vn -0.8710 -0.0098 0.4911
vn -0.9670 -0.0083 0.2546
vn -1.0000 -0.0078 0.0035
vn -0.9688 -0.0083 -0.2478
vn -0.8745 -0.0098 -0.4849
vn -0.7208 -0.0118 -0.6930
vn -0.5153 -0.0139 -0.8569
vn -0.2704 -0.0154 -0.9626
vn -0.0039 -0.0160 -0.9999
vn 0.2629 -0.0154 -0.9647
vn 0.5087 -0.0139 -0.8608
vn 0.7157 -0.0118 -0.6983
vn 0.8710 -0.0098 -0.4911
vn 0.9670 -0.0083 -0.2546
vn 0.9998 -0.0158 -0.0124
vn 0.9706 -0.0169 0.2403
vn 0.8777 -0.0196 0.4788
vn 0.7253 -0.0232 0.6881
vn 0.5212 -0.0269 0.8530
vn 0.2781 -0.0295 0.9601
vn 0.0134 -0.0304 0.9994
vn -0.2524 -0.0293 0.9672
vn -0.4986 -0.0265 0.8664
vn -0.7073 -0.0228 0.7065
vn -0.8653 -0.0192 0.5008
vn -0.9643 -0.0167 0.2644
vn -0.9998 -0.0158 0.0124
vn -0.9706 -0.0169 -0.2403
vn -0.8777 -0.0196 -0.4788
vn -0.7253 -0.0232 -0.6881
vn -0.5212 -0.0269 -0.8530
vn -0.2781 -0.0295 -0.9601
vn -0.0134 -0.0304 -0.9994
vn 0.2524 -0.0293 -0.9672
vn 0.4986 -0.0265 -0.8664
vn 0.7073 -0.0228 -0.7065
vn 0.8653 -0.0192 -0.5008
vn 0.9643 -0.0167 -0.2644
vn 0.9897 -0.1420 -0.0170
vn 0.9613 -0.1439 0.2349
vn 0.8688 -0.1495 0.4720
vn 0.7172 -0.1574 0.6788
vn 0.5156 -0.1654 0.8407
vn 0.2769 -0.1714 0.9455
vn 0.0179 -0.1737 0.9846
vn -0.2425 -0.1717 0.9548
vn -0.4851 -0.1659 0.8586
vn -0.6928 -0.1580 0.7036
vn -0.8518 -0.1501 0.5019
vn -0.9526 -0.1442 0.2678
vn -0.9897 -0.1420 0.0170
vn -0.9613 -0.1439 -0.2349
vn -0.8688 -0.1495 -0.4720
vn -0.7172 -0.1574 -0.6788
vn -0.5156 -0.1654 -0.8407
vn -0.2769 -0.1714 -0.9455
vn -0.0179 -0.1737 -0.9846
vn 0.2425 -0.1717 -0.9548
vn 0.4851 -0.1659 -0.8586
vn 0.6928 -0.1580 -0.7036
vn 0.8518 -0.1501 -0.5019
vn 0.9526 -0.1442 -0.2678
vn 0.8534 -0.5212 -0.0096
vn 0.8264 -0.5230 0.2087
vn 0.7423 -0.5283 0.4121
vn 0.6076 -0.5357 0.5864
vn 0.4322 -0.5432 0.7198
vn 0.2284 -0.5488 0.8042
vn 0.0099 -0.5510 0.8345
vn -0.2093 -0.5493 0.8090
vn -0.4150 -0.5441 0.7292
vn -0.5935 -0.5367 0.5998
vn -0.7323 -0.5292 0.4287
vn -0.8212 -0.5235 0.2273
vn -0.8534 -0.5212 0.0096
vn -0.8264 -0.5230 -0.2087
vn -0.7423 -0.5283 -0.4121
vn -0.6076 -0.5357 -0.5864
vn -0.4322 -0.5432 -0.7198
vn -0.2284 -0.5488 -0.8042
vn -0.0099 -0.5510 -0.8345
vn 0.2093 -0.5493 -0.8090
vn 0.4150 -0.5441 -0.7292
vn 0.5935 -0.5367 -0.5998
vn 0.7323 -0.5292 -0.4287
vn 0.8212 -0.5235 -0.2273
vn 0.7372 -0.6757 -0.0035
vn 0.7121 -0.6770 0.1860
vn 0.6374 -0.6805 0.3615
vn 0.5192 -0.6852 0.5108
vn 0.3668 -0.6899 0.6241
vn 0.1911 -0.6933 0.6948
vn 0.0036 -0.6946 0.7194
vn -0.1842 -0.6934 0.6967
vn -0.3606 -0.6900 0.6276
vn -0.5141 -0.6853 0.5158
vn -0.6338 -0.6805 0.3676
vn -0.7103 -0.6770 0.1927
vn -0.7372 -0.6757 0.0035
vn -0.7121 -0.6770 -0.1860
vn -0.6374 -0.6805 -0.3615
vn -0.5192 -0.6852 -0.5108
vn -0.3668 -0.6899 -0.6241
vn -0.1911 -0.6933 -0.6948
vn -0.0036 -0.6946 -0.7194
vn 0.1842 -0.6934 -0.6967
vn 0.3606 -0.6900 -0.6276
vn 0.5141 -0.6853 -0.5158
vn 0.6338 -0.6805 -0.3676
vn 0.7103 -0.6770 -0.1927
vn 0.1924 -0.9813 -0.0092
vn 0.1882 -0.9813 0.0408
vn 0.1710 -0.9813 0.0879
vn 0.1420 -0.9814 0.1288
vn 0.1036 -0.9816 0.1607
vn 0.0582 -0.9816 0.1816
vn 0.0091 -0.9817 0.1903
vn -0.0406 -0.9817 0.1862
vn -0.0876 -0.9816 0.1696
vn -0.1289 -0.9815 0.1415
vn -0.1616 -0.9814 0.1036
vn -0.1833 -0.9813 0.0585
vn -0.1924 -0.9813 0.0092
vn -0.1882 -0.9813 -0.0408
vn -0.1710 -0.9813 -0.0879
vn -0.1420 -0.9814 -0.1288
vn -0.1036 -0.9816 -0.1607
vn -0.0582 -0.9816 -0.1816
vn -0.0091 -0.9817 -0.1903
vn 0.0406 -0.9817 -0.1862
vn 0.0876 -0.9816 -0.1696
vn 0.1289 -0.9815 -0.1415
vn 0.1616 -0.9814 -0.1036
vn 0.1833 -0.9813 -0.0585
vn 0.0000 1.0000 0.0000
vn 0.0000 -1.0000 0.0000
vt 0.5360 0.6000
vt 0.5345 0.6000
vt 0.5301 0.6000
vt 0.5231 0.6000
vt 0.5140 0.6000
vt 0.5034 0.6000
vt 0.4920 0.6000
vt 0.4806 0.6000
vt 0.4700 0.6000
vt 0.4609 0.6000
vt 0.4539 0.6000
vt 0.4495 0.6000
vt 0.4480 0.6000
vt 0.4495 0.6000
vt 0.4539 0.6000
vt 0.4609 0.6000
vt 0.4700 0.6000
vt 0.4806 0.6000
vt 0.4920 0.6000
vt 0.5034 0.6000
vt 0.5140 0.6000
vt 0.5231 0.6000
vt 0.5301 0.6000
vt 0.5345 0.6000
vt 0.5588 0.5907
vt 0.5566 0.5907
vt 0.5499 0.5907
vt 0.5393 0.5907
vt 0.5254 0.5907
vt 0.5093 0.5907
vt 0.4920 0.5907
vt 0.4747 0.5907
vt 0.4586 0.5907
vt 0.4447 0.5907
vt 0.4341 0.5907
vt 0.4274 0.5907
vt 0.4252 0.5907
vt 0.4274 0.5907
vt 0.4341 0.5907
vt 0.4447 0.5907
vt 0.4586 0.5907
vt 0.4747 0.5907
vt 0.4920 0.5907
vt 0.5093 0.5907
vt 0.5254 0.5907
vt 0.5393 0.5907
vt 0.5499 0.5907
vt 0.5566 0.5907
vt 0.5821 0.5815
vt 0.5790 0.5815
vt 0.5700 0.5815
vt 0.5557 0.5815
vt 0.5370 0.5815
vt 0.5153 0.5815
vt 0.4920 0.5815
vt 0.4687 0.5815
vt 0.4470 0.5815
vt 0.4283 0.5815
vt 0.4140 0.5815
vt 0.4050 0.5815
vt 0.4019 0.5815
vt 0.4050 0.5815
vt 0.4140 0.5815
vt 0.4283 0.5815
vt 0.4470 0.5815
vt 0.4687 0.5815
vt 0.4920 0.5815
vt 0.5153 0.5815
vt 0.5370 0.5815
vt 0.5557 0.5815
vt 0.5700 0.5815
vt 0.5790 0.5815
vt 0.5984 0.5702
vt 0.5948 0.5702
vt 0.5842 0.5702
vt 0.5673 0.5702
vt 0.5452 0.5702
vt 0.5196 0.5702
vt 0.4920 0.5702
vt 0.4644 0.5702
vt 0.4388 0.5702
vt 0.4167 0.5702
vt 0.3998 0.5702
vt 0.3892 0.5702
vt 0.3856 0.5702
vt 0.3892 0.5702
vt 0.3998 0.5702
vt 0.4167 0.5702
vt 0.4388 0.5702
vt 0.4644 0.5702
vt 0.4920 0.5702
vt 0.5196 0.5702
vt 0.5452 0.5702
vt 0.5673 0.5702
vt 0.5842 0.5702
vt 0.5948 0.5702
vt 0.6078 0.5550
vt 0.6039 0.5550
vt 0.5924 0.5550
vt 0.5743 0.5550
vt 0.5506 0.5550
vt 0.5230 0.5550
vt 0.4934 0.5550
vt 0.4638 0.5550
vt 0.4362 0.5550
vt 0.4125 0.5550
vt 0.3943 0.5550
vt 0.3829 0.5550
vt 0.3790 0.5550
vt 0.3829 0.5550
vt 0.3943 0.5550
vt 0.4125 0.5550
vt 0.4362 0.5550
vt 0.4638 0.5550
vt 0.4934 0.5550
vt 0.5230 0.5550
vt 0.5506 0.5550
vt 0.5743 0.5550
vt 0.5924 0.5550
vt 0.6039 0.5550
vt 0.6174 0.5350
vt 0.6133 0.5350
vt 0.6013 0.5350
vt 0.5822 0.5350
vt 0.5572 0.5350
vt 0.5281 0.5350
vt 0.4969 0.5350
vt 0.4658 0.5350
vt 0.4367 0.5350
vt 0.4117 0.5350
vt 0.3926 0.5350
vt 0.3805 0.5350
vt 0.3764 0.5350
vt 0.3805 0.5350
vt 0.3926 0.5350
vt 0.4117 0.5350
vt 0.4367 0.5350
vt 0.4658 0.5350
vt 0.4969 0.5350
vt 0.5281 0.5350
vt 0.5572 0.5350
vt 0.5822 0.5350
vt 0.6013 0.5350
vt 0.6133 0.5350
vt 0.6235 0.5097
vt 0.6193 0.5097
vt 0.6069 0.5097
vt 0.5873 0.5097
vt 0.5616 0.5097
vt 0.5318 0.5097
vt 0.4998 0.5097
vt 0.4677 0.5097
vt 0.4379 0.5097
vt 0.4122 0.5097
vt 0.3926 0.5097
vt 0.3802 0.5097
vt 0.3760 0.5097
vt 0.3802 0.5097
vt 0.3926 0.5097
vt 0.4122 0.5097
vt 0.4379 0.5097
vt 0.4677 0.5097
vt 0.4998 0.5097
vt 0.5318 0.5097
vt 0.5616 0.5097
vt 0.5873 0.5097
vt 0.6069 0.5097
vt 0.6193 0.5097
vt 0.6230 0.4759
vt 0.6189 0.4759
vt 0.6066 0.4759
vt 0.5870 0.4759
vt 0.5615 0.4759
vt 0.5318 0.4759
vt 0.5000 0.4759
vt 0.4682 0.4759
vt 0.4385 0.4759
vt 0.4130 0.4759
vt 0.3934 0.4759
vt 0.3811 0.4759
vt 0.3770 0.4759
vt 0.3811 0.4759
vt 0.3934 0.4759
vt 0.4130 0.4759
vt 0.4385 0.4759
vt 0.4682 0.4759
vt 0.5000 0.4759
vt 0.5318 0.4759
vt 0.5615 0.4759
vt 0.5870 0.4759
vt 0.6066 0.4759
vt 0.6189 0.4759
vt 0.6191 0.4276
vt 0.6150 0.4276
vt 0.6031 0.4276
vt 0.5842 0.4276
vt 0.5596 0.4276
vt 0.5308 0.4276
vt 0.5000 0.4276
vt 0.4692 0.4276
vt 0.4404 0.4276
vt 0.4158 0.4276
vt 0.3969 0.4276
vt 0.3850 0.4276
vt 0.3809 0.4276
vt 0.3850 0.4276
vt 0.3969 0.4276
vt 0.4158 0.4276
vt 0.4404 0.4276
vt 0.4692 0.4276
vt 0.5000 0.4276
vt 0.5308 0.4276
vt 0.5596 0.4276
vt 0.5842 0.4276
vt 0.6031 0.4276
vt 0.6150 0.4276
vt 0.6141 0.3702
vt 0.6103 0.3702
vt 0.5989 0.3702
vt 0.5807 0.3702
vt 0.5571 0.3702
vt 0.5295 0.3702
vt 0.5000 0.3702
vt 0.4705 0.3702
vt 0.4429 0.3702
vt 0.4193 0.3702
vt 0.4011 0.3702
vt 0.3897 0.3702
vt 0.3859 0.3702
vt 0.3897 0.3702
vt 0.4011 0.3702
vt 0.4193 0.3702
vt 0.4429 0.3702
vt 0.4705 0.3702
vt 0.5000 0.3702
vt 0.5295 0.3702
vt 0.5571 0.3702
vt 0.5807 0.3702
vt 0.5989 0.3702
vt 0.6103 0.3702
vt 0.6099 0.3068
vt 0.6062 0.3068
vt 0.5952 0.3068
vt 0.5777 0.3068
vt 0.5550 0.3068
vt 0.5285 0.3068
vt 0.5000 0.3068
vt 0.4715 0.3068
vt 0.4450 0.3068
vt 0.4223 0.3068
vt 0.4048 0.3068
vt 0.3938 0.3068
vt 0.3901 0.3068
vt 0.3938 0.3068
vt 0.4048 0.3068
vt 0.4223 0.3068
vt 0.4450 0.3068
vt 0.4715 0.3068
vt 0.5000 0.3068
vt 0.5285 0.3068
vt 0.5550 0.3068
vt 0.5777 0.3068
vt 0.5952 0.3068
vt 0.6062 0.3068
vt 0.6053 0.2286
vt 0.6017 0.2286
vt 0.5912 0.2286
vt 0.5745 0.2286
vt 0.5527 0.2286
vt 0.5273 0.2286
vt 0.5000 0.2286
vt 0.4727 0.2286
vt 0.4473 0.2286
vt 0.4255 0.2286
vt 0.4088 0.2286
vt 0.3983 0.2286
vt 0.3947 0.2286
vt 0.3983 0.2286
vt 0.4088 0.2286
vt 0.4255 0.2286
vt 0.4473 0.2286
vt 0.4727 0.2286
vt 0.5000 0.2286
vt 0.5273 0.2286
vt 0.5527 0.2286
vt 0.5745 0.2286
vt 0.5912 0.2286
vt 0.6017 0.2286
vt 0.6014 0.1477
vt 0.5979 0.1477
vt 0.5878 0.1477
vt 0.5717 0.1477
vt 0.5507 0.1477
vt 0.5262 0.1477
vt 0.5000 0.1477
vt 0.4738 0.1477
vt 0.4493 0.1477
vt 0.4283 0.1477
vt 0.4122 0.1477
vt 0.4021 0.1477
vt 0.3986 0.1477
vt 0.4021 0.1477
vt 0.4122 0.1477
vt 0.4283 0.1477
vt 0.4493 0.1477
vt 0.4738 0.1477
vt 0.5000 0.1477
vt 0.5262 0.1477
vt 0.5507 0.1477
vt 0.5717 0.1477
vt 0.5878 0.1477
vt 0.5979 0.1477
vt 0.5997 0.0778
vt 0.5963 0.0778
vt 0.5863 0.0778
vt 0.5705 0.0778
vt 0.5498 0.0778
vt 0.5258 0.0778
vt 0.5000 0.0778
vt 0.4742 0.0778
vt 0.4502 0.0778
vt 0.4295 0.0778
vt 0.4137 0.0778
vt 0.4037 0.0778
vt 0.4003 0.0778
vt 0.4037 0.0778
vt 0.4137 0.0778
vt 0.4295 0.0778
vt 0.4502 0.0778
vt 0.4742 0.0778
vt 0.5000 0.0778
vt 0.5258 0.0778
vt 0.5498 0.0778
vt 0.5705 0.0778
vt 0.5863 0.0778
vt 0.5963 0.0778
vt 0.5991 0.0088
vt 0.5958 0.0088
vt 0.5859 0.0088
vt 0.5701 0.0088
vt 0.5496 0.0088
vt 0.5257 0.0088
vt 0.5000 0.0088
vt 0.4743 0.0088
vt 0.4504 0.0088
vt 0.4299 0.0088
vt 0.4141 0.0088
vt 0.4042 0.0088
vt 0.4009 0.0088
vt 0.4042 0.0088
vt 0.4141 0.0088
vt 0.4299 0.0088
vt 0.4504 0.0088
vt 0.4743 0.0088
vt 0.5000 0.0088
vt 0.5257 0.0088
vt 0.5496 0.0088
vt 0.5701 0.0088
vt 0.5859 0.0088
vt 0.5958 0.0088
vt 0.5987 -0.0503
vt 0.5953 -0.0503
vt 0.5855 -0.0503
vt 0.5698 -0.0503
vt 0.5493 -0.0503
vt 0.5255 -0.0503
vt 0.5000 -0.0503
vt 0.4745 -0.0503
vt 0.4507 -0.0503
vt 0.4302 -0.0503
vt 0.4145 -0.0503
vt 0.4047 -0.0503
vt 0.4013 -0.0503
vt 0.4047 -0.0503
vt 0.4145 -0.0503
vt 0.4302 -0.0503
vt 0.4507 -0.0503
vt 0.4745 -0.0503
vt 0.5000 -0.0503
vt 0.5255 -0.0503
vt 0.5493 -0.0503
vt 0.5698 -0.0503
vt 0.5855 -0.0503
vt 0.5953 -0.0503
vt 0.5977 -0.0833
vt 0.5944 -0.0833
vt 0.5846 -0.0833
vt 0.5691 -0.0833
vt 0.5488 -0.0833
vt 0.5253 -0.0833
vt 0.5000 -0.0833
vt 0.4747 -0.0833
vt 0.4512 -0.0833
vt 0.4309 -0.0833
vt 0.4154 -0.0833
vt 0.4056 -0.0833
vt 0.4023 -0.0833
vt 0.4056 -0.0833
vt 0.4154 -0.0833
vt 0.4309 -0.0833
vt 0.4512 -0.0833
vt 0.4747 -0.0833
vt 0.5000 -0.0833
vt 0.5253 -0.0833
vt 0.5488 -0.0833
vt 0.5691 -0.0833
vt 0.5846 -0.0833
vt 0.5944 -0.0833
vt 0.5917 -0.0985
vt 0.5886 -0.0985
vt 0.5794 -0.0985
vt 0.5648 -0.0985
vt 0.5458 -0.0985
vt 0.5237 -0.0985
vt 0.5000 -0.0985
vt 0.4763 -0.0985
vt 0.4542 -0.0985
vt 0.4352 -0.0985
vt 0.4206 -0.0985
vt 0.4114 -0.0985
vt 0.4083 -0.0985
vt 0.4114 -0.0985
vt 0.4206 -0.0985
vt 0.4352 -0.0985
vt 0.4542 -0.0985
vt 0.4763 -0.0985
vt 0.5000 -0.0985
vt 0.5237 -0.0985
vt 0.5458 -0.0985
vt 0.5648 -0.0985
vt 0.5794 -0.0985
vt 0.5886 -0.0985
vt 0.5817 -0.1091
vt 0.5789 -0.1091
vt 0.5708 -0.1091
vt 0.5578 -0.1091
vt 0.5409 -0.1091
vt 0.5212 -0.1091
vt 0.5000 -0.1091
vt 0.4788 -0.1091
vt 0.4591 -0.1091
vt 0.4422 -0.1091
vt 0.4292 -0.1091
vt 0.4211 -0.1091
vt 0.4183 -0.1091
vt 0.4211 -0.1091
vt 0.4292 -0.1091
vt 0.4422 -0.1091
vt 0.4591 -0.1091
vt 0.4788 -0.1091
vt 0.5000 -0.1091
vt 0.5212 -0.1091
vt 0.5409 -0.1091
vt 0.5578 -0.1091
vt 0.5708 -0.1091
vt 0.5789 -0.1091
vt 0.5720 -0.1200
vt 0.5695 -0.1200
vt 0.5624 -0.1200
vt 0.5509 -0.1200
vt 0.5360 -0.1200
vt 0.5186 -0.1200
vt 0.5000 -0.1200
vt 0.4814 -0.1200
vt 0.4640 -0.1200
vt 0.4491 -0.1200
vt 0.4376 -0.1200
vt 0.4305 -0.1200
vt 0.4280 -0.1200
vt 0.4305 -0.1200
vt 0.4376 -0.1200
vt 0.4491 -0.1200
vt 0.4640 -0.1200
vt 0.4814 -0.1200
vt 0.5000 -0.1200
vt 0.5186 -0.1200
vt 0.5360 -0.1200
vt 0.5509 -0.1200
vt 0.5624 -0.1200
vt 0.5695 -0.1200
vt 0.4920 0.6000
vt 0.5000 -0.1200
f 1/1/1 2/2/2 26/26/26
f 1/1/1 26/26/26 25/25/25
f 2/2/2 3/3/3 27/27/27
f 2/2/2 27/27/27 26/26/26
f 3/3/3 4/4/4 28/28/28
f 3/3/3 28/28/28 27/27/27
f 4/4/4 5/5/5 29/29/29
f 4/4/4 29/29/29 28/28/28
f 5/5/5 6/6/6 30/30/30
f 5/5/5 30/30/30 29/29/29
f 6/6/6 7/7/7 31/31/31
f 6/6/6 31/31/31 30/30/30
f 7/7/7 8/8/8 32/32/32
f 7/7/7 32/32/32 31/31/31
f 8/8/8 9/9/9 33/33/33
f 8/8/8 33/33/33 32/32/32
f 9/9/9 10/10/10 34/34/34
f 9/9/9 34/34/34 33/33/33
f 10/10/10 11/11/11 35/35/35
f 10/10/10 35/35/35 34/34/34
f 11/11/11 12/12/12 36/36/36
f 11/11/11 36/36/36 35/35/35
f 12/12/12 13/13/13 37/37/37
f 12/12/12 37/37/37 36/36/36
f 13/13/13 14/14/14 38/38/38
f 13/13/13 38/38/38 37/37/37
f 14/14/14 15/15/15 39/39/39
f 14/14/14 39/39/39 38/38/38
f 15/15/15 16/16/16 40/40/40
f 15/15/15 40/40/40 39/39/39
f 16/16/16 17/17/17 41/41/41
f 16/16/16 41/41/41 40/40/40
f 17/17/17 18/18/18 42/42/42
f 17/17/17 42/42/42 41/41/41
f 18/18/18 19/19/19 43/43/43
f 18/18/18 43/43/43 42/42/42
f 19/19/19 20/20/20 44/44/44
f 19/19/19 44/44/44 43/43/43
f 20/20/20 21/21/21 45/45/45
f 20/20/20 45/45/45 44/44/44
f 21/21/21 22/22/22 46/46/46
f 21/21/21 46/46/46 45/45/45
f 22/22/22 23/23/23 47/47/47
f 22/22/22 47/47/47 46/46/46
f 23/23/23 24/24/24 48/48/48
f 23/23/23 48/48/48 47/47/47
f 24/24/24 1/1/1 25/25/25
f 24/24/24 25/25/25 48/48/48
f 25/25/25 26/26/26 50/50/50
f 25/25/25 50/50/50 49/49/49
f 26/26/26 27/27/27 51/51/51
f 26/26/26 51/51/51 50/50/50
f 27/27/27 28/28/28 52/52/52
f 27/27/27 52/52/52 51/51/51
f 28/28/28 29/29/29 53/53/53
f 28/28/28 53/53/53 52/52/52
f 29/29/29 30/30/30 54/54/54
f 29/29/29 54/54/54 53/53/53
f 30/30/30 31/31/31 55/55/55
f 30/30/30 55/55/55 54/54/54
f 31/31/31 32/32/32 56/56/56
f 31/31/31 56/56/56 55/55/55
f 32/32/32 33/33/33 57/57/57
f 32/32/32 57/57/57 56/56/56
f 33/33/33 34/34/34 58/58/58
f 33/33/33 58/58/58 57/57/57
f 34/34/34 35/35/35 59/59/59
f 34/34/34 59/59/59 58/58/58
f 35/35/35 36/36/36 60/60/60
f 35/35/35 60/60/60 59/59/59
f 36/36/36 37/37/37 61/61/61
f 36/36/36 61/61/61 60/60/60
f 37/37/37 38/38/38 62/62/62
f 37/37/37 62/62/62 61/61/61
f 38/38/38 39/39/39 63/63/63
f 38/38/38 63/63/63 62/62/62
f 39/39/39 40/40/40 64/64/64
f 39/39/39 64/64/64 63/63/63
f 40/40/40 41/41/41 65/65/65
f 40/40/40 65/65/65 64/64/64
f 41/41/41 42/42/42 66/66/66
f 41/41/41 66/66/66 65/65/65
f 42/42/42 43/43/43 67/67/67
f 42/42/42 67/67/67 66/66/66
f 43/43/43 44/44/44 68/68/68
f 43/43/43 68/68/68 67/67/67
f 44/44/44 45/45/45 69/69/69
f 44/44/44 69/69/69 68/68/68
f 45/45/45 46/46/46 70/70/70
f 45/45/45 70/70/70 69/69/69
f 46/46/46 47/47/47 71/71/71
f 46/46/46 71/71/71 70/70/70
f 47/47/47 48/48/48 72/72/72
f 47/47/47 72/72/72 71/71/71
f 48/48/48 25/25/25 49/49/49
f 48/48/48 49/49/49 72/72/72
f 49/49/49 50/50/50 74/74/74
f 49/49/49 74/74/74 73/73/73
f 50/50/50 51/51/51 75/75/75
f 50/50/50 75/75/75 74/74/74
f 51/51/51 52/52/52 76/76/76
f 51/51/51 76/76/76 75/75/75
f 52/52/52 53/53/53 77/77/77
f 52/52/52 77/77/77 76/76/76
f 53/53/53 54/54/54 78/78/78
f 53/53/53 78/78/78 77/77/77
f 54/54/54 55/55/55 79/79/79
f 54/54/54 79/79/79 78/78/78
f 55/55/55 56/56/56 80/80/80
f 55/55/55 80/80/80 79/79/79
f 56/56/56 57/57/57 81/81/81
f 56/56/56 81/81/81 80/80/80
f 57/57/57 58/58/58 82/82/82
f 57/57/57 82/82/82 81/81/81
f 58/58/58 59/59/59 83/83/83
f 58/58/58 83/83/83 82/82/82
f 59/59/59 60/60/60 84/84/84
f 59/59/59 84/84/84 83/83/83
f 60/60/60 61/61/61 85/85/85
f 60/60/60 85/85/85 84/84/84
f 61/61/61 62/62/62 86/86/86
f 61/61/61 86/86/86 85/85/85
f 62/62/62 63/63/63 87/87/87
f 62/62/62 87/87/87 86/86/86
f 63/63/63 64/64/64 88/88/88
f 63/63/63 88/88/88 87/87/87
f 64/64/64 65/65/65 89/89/89
f 64/64/64 89/89/89 88/88/88
f 65/65/65 66/66/66 90/90/90
f 65/65/65 90/90/90 89/89/89
f 66/66/66 67/67/67 91/91/91
f 66/66/66 91/91/91 90/90/90
f 67/67/67 68/68/68 92/92/92
f 67/67/67 92/92/92 91/91/91
f 68/68/68 69/69/69 93/93/93
f 68/68/68 93/93/93 92/92/92
f 69/69/69 70/70/70 94/94/94
f 69/69/69 94/94/94 93/93/93
f 70/70/70 71/71/71 95/95/95
f 70/70/70 95/95/95 94/94/94
f 71/71/71 72/72/72 96/96/96
f 71/71/71 96/96/96 95/95/95
f 72/72/72 49/49/49 73/73/73
f 72/72/72 73/73/73 96/96/96
f 73/73/73 74/74/74 98/98/98
f 73/73/73 98/98/98 97/97/97
f 74/74/74 75/75/75 99/99/99
f 74/74/74 99/99/99 98/98/98
f 75/75/75 76/76/76 100/100/100
f 75/75/75 100/100/100 99/99/99
f 76/76/76 77/77/77 101/101/101
f 76/76/76 101/101/101 100/100/100
f 77/77/77 78/78/78 102/102/102
f 77/77/77 102/102/102 101/101/101
f 78/78/78 79/79/79 103/103/103
f 78/78/78 103/103/103 102/102/102
f 79/79/79 80/80/80 104/104/104
f 79/79/79 104/104/104 103/103/103
f 80/80/80 81/81/81 105/105/105
f 80/80/80 105/105/105 104/104/104
f 81/81/81 82/82/82 106/106/106
f 81/81/81 106/106/106 105/105/105
f 82/82/82 83/83/83 107/107/107
f 82/82/82 107/107/107 106/106/106
f 83/83/83 84/84/84 108/108/108
f 83/83/83 108/108/108 107/107/107
f 84/84/84 85/85/85 109/109/109
f 84/84/84 109/109/109 108/108/108
f 85/85/85 86/86/86 110/110/110
f 85/85/85 110/110/110 109/109/109
f 86/86/86 87/87/87 111/111/111
f 86/86/86 111/111/111 110/110/110
f 87/87/87 88/88/88 112/112/112
f 87/87/87 112/112/112 111/111/111
f 88/88/88 89/89/89 113/113/113
f 88/88/88 113/113/113 112/112/112
f 89/89/89 90/90/90 114/114/114
f 89/89/89 114/114/114 113/113/113
f 90/90/90 91/91/91 115/115/115
f 90/90/90 115/115/115 114/114/114
f 91/91/91 92/92/92 116/116/116
f 91/91/91 116/116/116 115/115/115
f 92/92/92 93/93/93 117/117/117
f 92/92/92 117/117/117 116/116/116
f 93/93/93 94/94/94 118/118/118
f 93/93/93 118/118/118 117/117/117
f 94/94/94 95/95/95 119/119/119
f 94/94/94 119/119/119 118/118/118
f 95/95/95 96/96/96 120/120/120
f 95/95/95 120/120/120 119/119/119
f 96/96/96 73/73/73 97/97/97
f 96/96/96 97/97/97 120/120/120
f 97/97/97 98/98/98 122/122/122
f 97/97/97 122/122/122 121/121/121
f 98/98/98 99/99/99 123/123/123
f 98/98/98 123/123/123 122/122/122
f 99/99/99 100/100/100 124/124/124
f 99/99/99 124/124/124 123/123/123
f 100/100/100 101/101/101 125/125/125
f 100/100/100 125/125/125 124/124/124
f 101/101/101 102/102/102 126/126/126
f 101/101/101 126/126/126 125/125/125
f 102/102/102 103/103/103 127/127/127
f 102/102/102 127/127/127 126/126/126
f 103/103/103 104/104/104 128/128/128
f 103/103/103 128/128/128 127/127/127
f 104/104/104 105/105/105 129/129/129
f 104/104/104 129/129/129 128/128/128
f 105/105/105 106/106/106 130/130/130
f 105/105/105 130/130/130 129/129/129
f 106/106/106 107/107/107 131/131/131
f 106/106/106 131/131/131 130/130/130
f 107/107/107 108/108/108 132/132/132
f 107/107/107 132/132/132 131/131/131
f 108/108/108 109/109/109 133/133/133
f 108/108/108 133/133/133 132/132/132
f 109/109/109 110/110/110 134/134/134
f 109/109/109 134/134/134 133/133/133
f 110/110/110 111/111/111 135/135/135
f 110/110/110 135/135/135 134/134/134
f 111/111/111 112/112/112 136/136/136
f 111/111/111 136/136/136 135/135/135
f 112/112/112 113/113/113 137/137/137
f 112/112/112 137/137/137 136/136/136
f 113/113/113 114/114/114 138/138/138
f 113/113/113 138/138/138 137/137/137
f 114/114/114 115/115/115 139/139/139
f 114/114/114 139/139/139 138/138/138
f 115/115/115 116/116/116 140/140/140
f 115/115/115 140/140/140 139/139/139
f 116/116/116 117/117/117 141/141/141
f 116/116/116 141/141/141 140/140/140
f 117/117/117 118/118/118 142/142/142
f 117/117/117 142/142/142 141/141/141
f 118/118/118 119/119/119 143/143/143
f 118/118/118 143/143/143 142/142/142
f 119/119/119 120/120/120 144/144/144
f 119/119/119 144/144/144 143/143/143
f 120/120/120 97/97/97 121/121/121
f 120/120/120 121/121/121 144/144/144
f 121/121/121 122/122/122 146/146/146
f 121/121/121 146/146/146 145/145/145
f 122/122/122 123/123/123 147/147/147
f 122/122/122 147/147/147 146/146/146
f 123/123/123 124/124/124 148/148/148
f 123/123/123 148/148/148 147/147/147
f 124/124/124 125/125/125 149/149/149
f 124/124/124 149/149/149 148/148/148
f 125/125/125 126/126/126 150/150/150
f 125/125/125 150/150/150 149/149/149
f 126/126/126 127/127/127 151/151/151
f 126/126/126 151/151/151 150/150/150
f 127/127/127 128/128/128 152/152/152
f 127/127/127 152/152/152 151/151/151
f 128/128/128 129/129/129 153/153/153
f 128/128/128 153/153/153 152/152/152
f 129/129/129 130/130/130 154/154/154
f 129/129/129 154/154/154 153/153/153
f 130/130/130 131/131/131 155/155/155
f 130/130/130 155/155/155 154/154/154
f 131/131/131 132/132/132 156/156/156
f 131/131/131 156/156/156 155/155/155
f 132/132/132 133/133/133 157/157/157
f 132/132/132 157/157/157 156/156/156
f 133/133/133 134/134/134 158/158/158
f 133/133/133 158/158/158 157/157/157
f 134/134/134 135/135/135 159/159/159
f 134/134/134 159/159/159 158/158/158
f 135/135/135 136/136/136 160/160/160
f 135/135/135 160/160/160 159/159/159
f 136/136/136 137/137/137 161/161/161
f 136/136/136 161/161/161 160/160/160
f 137/137/137 138/138/138 162/162/162
f 137/137/137 162/162/162 161/161/161
f 138/138/138 139/139/139 163/163/163
f 138/138/138 163/163/163 162/162/162
f 139/139/139 140/140/140 164/164/164
f 139/139/139 164/164/164 163/163/163
f 140/140/140 141/141/141 165/165/165
f 140/140/140 165/165/165 164/164/164
f 141/141/141 142/142/142 166/166/166
f 141/141/141 166/166/166 165/165/165
f 142/142/142 143/143/143 167/167/167
f 142/142/142 167/167/167 166/166/166
f 143/143/143 144/144/144 168/168/168
f 143/143/143 168/168/168 167/167/167
f 144/144/144 121/121/121 145/145/145
f 144/144/144 145/145/145 168/168/168
f 145/145/145 146/146/146 170/170/170
f 145/145/145 170/170/170 169/169/169
f 146/146/146 147/147/147 171/171/171
f 146/146/146 171/171/171 170/170/170
f 147/147/147 148/148/148 172/172/172
f 147/147/147 172/172/172 171/171/171
f 148/148/148 149/149/149 173/173/173
f 148/148/148 173/173/173 172/172/172
f 149/149/149 150/150/150 174/174/174
f 149/149/149 174/174/174 173/173/173
f 150/150/150 151/151/151 175/175/175
f 150/150/150 175/175/175 174/174/174
f 151/151/151 152/152/152 176/176/176
f 151/151/151 176/176/176 175/175/175
f 152/152/152 153/153/153 177/177/177
f 152/152/152 177/177/177 176/176/176
f 153/153/153 154/154/154 178/178/178
f 153/153/153 178/178/178 177/177/177
f 154/154/154 155/155/155 179/179/179
f 154/154/154 179/179/179 178/178/178
f 155/155/155 156/156/156 180/180/180
f 155/155/155 180/180/180 179/179/179
f 156/156/156 157/157/157 181/181/181
f 156/156/156 181/181/181 180/180/180
f 157/157/157 158/158/158 182/182/182
f 157/157/157 182/182/182 181/181/181
f 158/158/158 159/159/159 183/183/183
f 158/158/158 183/183/183 182/182/182
f 159/159/159 160/160/160 184/184/184
f 159/159/159 184/184/184 183/183/183
f 160/160/160 161/161/161 185/185/185
f 160/160/160 185/185/185 184/184/184
f 161/161/161 162/162/162 186/186/186
f 161/161/161 186/186/186 185/185/185
f 162/162/162 163/163/163 187/187/187
f 162/162/162 187/187/187 186/186/186
f 163/163/163 164/164/164 188/188/188
f 163/163/163 188/188/188 187/187/187
f 164/164/164 165/165/165 189/189/189
f 164/164/164 189/189/189 188/188/188
f 165/165/165 166/166/166 190/190/190
f 165/165/165 190/190/190 189/189/189
f 166/166/166 167/167/167 191/191/191
f 166/166/166 191/191/191 190/190/190
f 167/167/167 168/168/168 192/192/192
f 167/167/167 192/192/192 191/191/191
f 168/168/168 145/145/145 169/169/169
f 168/168/168 169/169/169 192/192/192
f 169/169/169 170/170/170 194/194/194
f 169/169/169 194/194/194 193/193/193
f 170/170/170 171/171/171 195/195/195
f 170/170/170 195/195/195 194/194/194
f 171/171/171 172/172/172 196/196/196
f 171/171/171 196/196/196 195/195/195
f 172/172/172 173/173/173 197/197/197
f 172/172/172 197/197/197 196/196/196
f 173/173/173 174/174/174 198/198/198
f 173/173/173 198/198/198 197/197/197
f 174/174/174 175/175/175 199/199/199
f 174/174/174 199/199/199 198/198/198
f 175/175/175 176/176/176 200/200/200
f 175/175/175 200/200/200 199/199/199
f 176/176/176 177/177/177 201/201/201
f 176/176/176 201/201/201 200/200/200
f 177/177/177 178/178/178 202/202/202
f 177/177/177 202/202/202 201/201/201
f 178/178/178 179/179/179 203/203/203
f 178/178/178 203/203/203 202/202/202
f 179/179/179 180/180/180 204/204/204
f 179/179/179 204/204/204 203/203/203
f 180/180/180 181/181/181 205/205/205
f 180/180/180 205/205/205 204/204/204
f 181/181/181 182/182/182 206/206/206
f 181/181/181 206/206/206 205/205/205
f 182/182/182 183/183/183 207/207/207
f 182/182/182 207/207/207 206/206/206
f 183/183/183 184/184/184 208/208/208
f 183/183/183 208/208/208 207/207/207
f 184/184/184 185/185/185 209/209/209
f 184/184/184 209/209/209 208/208/208
f 185/185/185 186/186/186 210/210/210
f 185/185/185 210/210/210 209/209/209
f 186/186/186 187/187/187 211/211/211
f 186/186/186 211/211/211 210/210/210
f 187/187/187 188/188/188 212/212/212
f 187/187/187 212/212/212 211/211/211
f 188/188/188 189/189/189 213/213/213
f 188/188/188 213/213/213 212/212/212
f 189/189/189 190/190/190 214/214/214
f 189/189/189 214/214/214 213/213/213
f 190/190/190 191/191/191 215/215/215
f 190/190/190 215/215/215 214/214/214
f 191/191/191 192/192/192 216/216/216
f 191/191/191 216/216/216 215/215/215
f 192/192/192 169/169/169 193/193/193
f 192/192/192 193/193/193 216/216/216
f 193/193/193 194/194/194 218/218/218
f 193/193/193 218/218/218 217/217/217
f 194/194/194 195/195/195 219/219/219
f 194/194/194 219/219/219 218/218/218
f 195/195/195 196/196/196 220/220/220
f 195/195/195 220/220/220 219/219/219
f 196/196/196 197/197/197 221/221/221
f 196/196/196 221/221/221 220/220/220
f 197/197/197 198/198/198 222/222/222
f 197/197/197 222/222/222 221/221/221
f 198/198/198 199/199/199 223/223/223
f 198/198/198 223/223/223 222/222/222
f 199/199/199 200/200/200 224/224/224
f 199/199/199 224/224/224 223/223/223
f 200/200/200 201/201/201 225/225/225
f 200/200/200 225/225/225 224/224/224
f 201/201/201 202/202/202 226/226/226
f 201/201/201 226/226/226 225/225/225
f 202/202/202 203/203/203 227/227/227
f 202/202/202 227/227/227 226/226/226
f 203/203/203 204/204/204 228/228/228
f 203/203/203 228/228/228 227/227/227
f 204/204/204 205/205/205 229/229/229
f 204/204/204 229/229/229 228/228/228
f 205/205/205 206/206/206 230/230/230
f 205/205/205 230/230/230 229/229/229
f 206/206/206 207/207/207 231/231/231
f 206/206/206 231/231/231 230/230/230
f 207/207/207 208/208/208 232/232/232
f 207/207/207 232/232/232 231/231/231
f 208/208/208 209/209/209 233/233/233
f 208/208/208 233/233/233 232/232/232
f 209/209/209 210/210/210 234/234/234
f 209/209/209 234/234/234 233/233/233
f 210/210/210 211/211/211 235/235/235
f 210/210/210 235/235/235 234/234/234
f 211/211/211 212/212/212 236/236/236
f 211/211/211 236/236/236 235/235/235
f 212/212/212 213/213/213 237/237/237
f 212/212/212 237/237/237 236/236/236
f 213/213/213 214/214/214 238/238/238
f 213/213/213 238/238/238 237/237/237
f 214/214/214 215/215/215 239/239/239
f 214/214/214 239/239/239 238/238/238
f 215/215/215 216/216/216 240/240/240
f 215/215/215 240/240/240 239/239/239
f 216/216/216 193/193/193 217/217/217
f 216/216/216 217/217/217 240/240/240
f 217/217/217 218/218/218 242/242/242
f 217/217/217 242/242/242 241/241/241
f 218/218/218 219/219/219 243/243/243
f 218/218/218 243/243/243 242/242/242
f 219/219/219 220/220/220 244/244/244
f 219/219/219 244/244/244 243/243/243
f 220/220/220 221/221/221 245/245/245
f 220/220/220 245/245/245 244/244/244
f 221/221/221 222/222/222 246/246/246
f 221/221/221 246/246/246 245/245/245
f 222/222/222 223/223/223 247/247/247
f 222/222/222 247/247/247 246/246/246
f 223/223/223 224/224/224 248/248/248
f 223/223/223 248/248/248 247/247/247
f 224/224/224 225/225/225 249/249/249
f 224/224/224 249/249/249 248/248/248
f 225/225/225 226/226/226 250/250/250
f 225/225/225 250/250/250 249/249/249
f 226/226/226 227/227/227 251/251/251
f 226/226/226 251/251/251 250/250/250
f 227/227/227 228/228/228 252/252/252
f 227/227/227 252/252/252 251/251/251
f 228/228/228 229/229/229 253/253/253
f 228/228/228 253/253/253 252/252/252
f 229/229/229 230/230/230 254/254/254
f 229/229/229 254/254/254 253/253/253
f 230/230/230 231/231/231 255/255/255
f 230/230/230 255/255/255 254/254/254
f 231/231/231 232/232/232 256/256/256
f 231/231/231 256/256/256 255/255/255
f 232/232/232 233/233/233 257/257/257
f 232/232/232 257/257/257 256/256/256
f 233/233/233 234/234/234 258/258/258
f 233/233/233 258/258/258 257/257/257
f 234/234/234 235/235/235 259/259/259
f 234/234/234 259/259/259 258/258/258
f 235/235/235 236/236/236 260/260/260
f 235/235/235 260/260/260 259/259/259
f 236/236/236 237/237/237 261/261/261
f 236/236/236 261/261/261 260/260/260
f 237/237/237 238/238/238 262/262/262
f 237/237/237 262/262/262 261/261/261
f 238/238/238 239/239/239 263/263/263
f 238/238/238 263/263/263 262/262/262
f 239/239/239 240/240/240 264/264/264
f 239/239/239 264/264/264 263/263/263
f 240/240/240 217/217/217 241/241/241
f 240/240/240 241/241/241 264/264/264
f 241/241/241 242/242/242 266/266/266
f 241/241/241 266/266/266 265/265/265
f 242/242/242 243/243/243 267/267/267
f 242/242/242 267/267/267 266/266/266
f 243/243/243 244/244/244 268/268/268
f 243/243/243 268/268/268 267/267/267
f 244/244/244 245/245/245 269/269/269
f 244/244/244 269/269/269 268/268/268
f 245/245/245 246/246/246 270/270/270
f 245/245/245 270/270/270 269/269/269
f 246/246/246 247/247/247 271/271/271
f 246/246/246 271/271/271 270/270/270
f 247/247/247 248/248/248 272/272/272
f 247/247/247 272/272/272 271/271/271
f 248/248/248 249/249/249 273/273/273
f 248/248/248 273/273/273 272/272/272
f 249/249/249 250/250/250 274/274/274
f 249/249/249 274/274/274 273/273/273
f 250/250/250 251/251/251 275/275/275
f 250/250/250 275/275/275 274/274/274
f 251/251/251 252/252/252 276/276/276
f 251/251/251 276/276/276 275/275/275
f 252/252/252 253/253/253 277/277/277
f 252/252/252 277/277/277 276/276/276
f 253/253/253 254/254/254 278/278/278
f 253/253/253 278/278/278 277/277/277
f 254/254/254 255/255/255 279/279/279
f 254/254/254 279/279/279 278/278/278
f 255/255/255 256/256/256 280/280/280
f 255/255/255 280/280/280 279/279/279
f 256/256/256 257/257/257 281/281/281
f 256/256/256 281/281/281 280/280/280
f 257/257/257 258/258/258 282/282/282
f 257/257/257 282/282/282 281/281/281
f 258/258/258 259/259/259 283/283/283
f 258/258/258 283/283/283 282/282/282
f 259/259/259 260/260/260 284/284/284
f 259/259/259 284/284/284 283/283/283
f 260/260/260 261/261/261 285/285/285
f 260/260/260 285/285/285 284/284/284
f 261/261/261 262/262/262 286/286/286
f 261/261/261 286/286/286 285/285/285
f 262/262/262 263/263/263 287/287/287
f 262/262/262 287/287/287 286/286/286
f 263/263/263 264/264/264 288/288/288
f 263/263/263 288/288/288 287/287/287
f 264/264/264 241/241/241 265/265/265
f 264/264/264 265/265/265 288/288/288
f 265/265/265 266/266/266 290/290/290
f 265/265/265 290/290/290 289/289/289
f 266/266/266 267/267/267 291/291/291
f 266/266/266 291/291/291 290/290/290
f 267/267/267 268/268/268 292/292/292
f 267/267/267 292/292/292 291/291/291
f 268/268/268 269/269/269 293/293/293
f 268/268/268 293/293/293 292/292/292
f 269/269/269 270/270/270 294/294/294
f 269/269/269 294/294/294 293/293/293
f 270/270/270 271/271/271 295/295/295
f 270/270/270 295/295/295 294/294/294
f 271/271/271 272/272/272 296/296/296
f 271/271/271 296/296/296 295/295/295
f 272/272/272 273/273/273 297/297/297
f 272/272/272 297/297/297 296/296/296
f 273/273/273 274/274/274 298/298/298
f 273/273/273 298/298/298 297/297/297
f 274/274/274 275/275/275 299/299/299
f 274/274/274 299/299/299 298/298/298
f 275/275/275 276/276/276 300/300/300
f 275/275/275 300/300/300 299/299/299
f 276/276/276 277/277/277 301/301/301
f 276/276/276 301/301/301 300/300/300
f 277/277/277 278/278/278 302/302/302
f 277/277/277 302/302/302 301/301/301
f 278/278/278 279/279/279 303/303/303
f 278/278/278 303/303/303 302/302/302
f 279/279/279 280/280/280 304/304/304
f 279/279/279 304/304/304 303/303/303
f 280/280/280 281/281/281 305/305/305
f 280/280/280 305/305/305 304/304/304
f 281/281/281 282/282/282 306/306/306
f 281/281/281 306/306/306 305/305/305
f 282/282/282 283/283/283 307/307/307
f 282/282/282 307/307/307 306/306/306
f 283/283/283 284/284/284 308/308/308
f 283/283/283 308/308/308 307/307/307
f 284/284/284 285/285/285 309/309/309
f 284/284/284 309/309/309 308/308/308
f 285/285/285 286/286/286 310/310/310
f 285/285/285 310/310/310 309/309/309
f 286/286/286 287/287/287 311/311/311
f 286/286/286 311/311/311 310/310/310
f 287/287/287 288/288/288 312/312/312
f 287/287/287 312/312/312 311/311/311
f 288/288/288 265/265/265 289/289/289
f 288/288/288 289/289/289 312/312/312
f 289/289/289 290/290/290 314/314/314
f 289/289/289 314/314/314 313/313/313
f 290/290/290 291/291/291 315/315/315
f 290/290/290 315/315/315 314/314/314
f 291/291/291 292/292/292 316/316/316
f 291/291/291 316/316/316 315/315/315
f 292/292/292 293/293/293 317/317/317
f 292/292/292 317/317/317 316/316/316
f 293/293/293 294/294/294 318/318/318
f 293/293/293 318/318/318 317/317/317
f 294/294/294 295/295/295 319/319/319
f 294/294/294 319/319/319 318/318/318
f 295/295/295 296/296/296 320/320/320
f 295/295/295 320/320/320 319/319/319
f 296/296/296 297/297/297 321/321/321
f 296/296/296 321/321/321 320/320/320
f 297/297/297 298/298/298 322/322/322
f 297/297/297 322/322/322 321/321/321
f 298/298/298 299/299/299 323/323/323
f 298/298/298 323/323/323 322/322/322
f 299/299/299 300/300/300 324/324/324
f 299/299/299 324/324/324 323/323/323
f 300/300/300 301/301/301 325/325/325
f 300/300/300 325/325/325 324/324/324
f 301/301/301 302/302/302 326/326/326
f 301/301/301 326/326/326 325/325/325
f 302/302/302 303/303/303 327/327/327
f 302/302/302 327/327/327 326/326/326
f 303/303/303 304/304/304 328/328/328
f 303/303/303 328/328/328 327/327/327
f 304/304/304 305/305/305 329/329/329
f 304/304/304 329/329/329 328/328/328
f 305/305/305 306/306/306 330/330/330
f 305/305/305 330/330/330 329/329/329
f 306/306/306 307/307/307 331/331/331
f 306/306/306 331/331/331 330/330/330
f 307/307/307 308/308/308 332/332/332
f 307/307/307 332/332/332 331/331/331
f 308/308/308 309/309/309 333/333/333
f 308/308/308 333/333/333 332/332/332
f 309/309/309 310/310/310 334/334/334
f 309/309/309 334/334/334 333/333/333
f 310/310/310 311/311/311 335/335/335
f 310/310/310 335/335/335 334/334/334
f 311/311/311 312/312/312 336/336/336
f 311/311/311 336/336/336 335/335/335
f 312/312/312 289/289/289 313/313/313
f 312/312/312 313/313/313 336/336/336
f 313/313/313 314/314/314 338/338/338
f 313/313/313 338/338/338 337/337/337
f 314/314/314 315/315/315 339/339/339
f 314/314/314 339/339/339 338/338/338
f 315/315/315 316/316/316 340/340/340
f 315/315/315 340/340/340 339/339/339
f 316/316/316 317/317/317 341/341/341
f 316/316/316 341/341/341 340/340/340
f 317/317/317 318/318/318 342/342/342
f 317/317/317 342/342/342 341/341/341
f 318/318/318 319/319/319 343/343/343
f 318/318/318 343/343/343 342/342/342
f 319/319/319 320/320/320 344/344/344
f 319/319/319 344/344/344 343/343/343
f 320/320/320 321/321/321 345/345/345
f 320/320/320 345/345/345 344/344/344
f 321/321/321 322/322/322 346/346/346
f 321/321/321 346/346/346 345/345/345
f 322/322/322 323/323/323 347/347/347
f 322/322/322 347/347/347 346/346/346
f 323/323/323 324/324/324 348/348/348
f 323/323/323 348/348/348 347/347/347
f 324/324/324 325/325/325 349/349/349
f 324/324/324 349/349/349 348/348/348
f 325/325/325 326/326/326 350/350/350
f 325/325/325 350/350/350 349/349/349
f 326/326/326 327/327/327 351/351/351
f 326/326/326 351/351/351 350/350/350
f 327/327/327 328/328/328 352/352/352
f 327/327/327 352/352/352 351/351/351
f 328/328/328 329/329/329 353/353/353
f 328/328/328 353/353/353 352/352/352
f 329/329/329 330/330/330 354/354/354
f 329/329/329 354/354/354 353/353/353
f 330/330/330 331/331/331 355/355/355
f 330/330/330 355/355/355 354/354/354
f 331/331/331 332/332/332 356/356/356
f 331/331/331 356/356/356 355/355/355
f 332/332/332 333/333/333 357/357/357
f 332/332/332 357/357/357 356/356/356
f 333/333/333 334/334/334 358/358/358
f 333/333/333 358/358/358 357/357/357
f 334/334/334 335/335/335 359/359/359
f 334/334/334 359/359/359 358/358/358
f 335/335/335 336/336/336 360/360/360
f 335/335/335 360/360/360 359/359/359
f 336/336/336 313/313/313 337/337/337
f 336/336/336 337/337/337 360/360/360
f 337/337/337 338/338/338 362/362/362
f 337/337/337 362/362/362 361/361/361
f 338/338/338 339/339/339 363/363/363
f 338/338/338 363/363/363 362/362/362
f 339/339/339 340/340/340 364/364/364
f 339/339/339 364/364/364 363/363/363
f 340/340/340 341/341/341 365/365/365
f 340/340/340 365/365/365 364/364/364
f 341/341/341 342/342/342 366/366/366
f 341/341/341 366/366/366 365/365/365
f 342/342/342 343/343/343 367/367/367
f 342/342/342 367/367/367 366/366/366
f 343/343/343 344/344/344 368/368/368
f 343/343/343 368/368/368 367/367/367
f 344/344/344 345/345/345 369/369/369
f 344/344/344 369/369/369 368/368/368
f 345/345/345 346/346/346 370/370/370
f 345/345/345 370/370/370 369/369/369
f 346/346/346 347/347/347 371/371/371
f 346/346/346 371/371/371 370/370/370
f 347/347/347 348/348/348 372/372/372
f 347/347/347 372/372/372 371/371/371
f 348/348/348 349/349/349 373/373/373
f 348/348/348 373/373/373 372/372/372
f 349/349/349 350/350/350 374/374/374
f 349/349/349 374/374/374 373/373/373
f 350/350/350 351/351/351 375/375/375
f 350/350/350 375/375/375 374/374/374
f 351/351/351 352/352/352 376/376/376
f 351/351/351 376/376/376 375/375/375
f 352/352/352 353/353/353 377/377/377
f 352/352/352 377/377/377 376/376/376
f 353/353/353 354/354/354 378/378/378
f 353/353/353 378/378/378 377/377/377
f 354/354/354 355/355/355 379/379/379
f 354/354/354 379/379/379 378/378/378
f 355/355/355 356/356/356 380/380/380
f 355/355/355 380/380/380 379/379/379
f 356/356/356 357/357/357 381/381/381
f 356/356/356 381/381/381 380/380/380
f 357/357/357 358/358/358 382/382/382
f 357/357/357 382/382/382 381/381/381
f 358/358/358 359/359/359 383/383/383
f 358/358/358 383/383/383 382/382/382
f 359/359/359 360/360/360 384/384/384
f 359/359/359 384/384/384 383/383/383
f 360/360/360 337/337/337 361/361/361
f 360/360/360 361/361/361 384/384/384
f 361/361/361 362/362/362 386/386/386
f 361/361/361 386/386/386 385/385/385
f 362/362/362 363/363/363 387/387/387
f 362/362/362 387/387/387 386/386/386
f 363/363/363 364/364/364 388/388/388
f 363/363/363 388/388/388 387/387/387
f 364/364/364 365/365/365 389/389/389
f 364/364/364 389/389/389 388/388/388
f 365/365/365 366/366/366 390/390/390
f 365/365/365 390/390/390 389/389/389
f 366/366/366 367/367/367 391/391/391
f 366/366/366 391/391/391 390/390/390
f 367/367/367 368/368/368 392/392/392
f 367/367/367 392/392/392 391/391/391
f 368/368/368 369/369/369 393/393/393
f 368/368/368 393/393/393 392/392/392
f 369/369/369 370/370/370 394/394/394
f 369/369/369 394/394/394 393/393/393
f 370/370/370 371/371/371 395/395/395
f 370/370/370 395/395/395 394/394/394
f 371/371/371 372/372/372 396/396/396
f 371/371/371 396/396/396 395/395/395
f 372/372/372 373/373/373 397/397/397
f 372/372/372 397/397/397 396/396/396
f 373/373/373 374/374/374 398/398/398
f 373/373/373 398/398/398 397/397/397
f 374/374/374 375/375/375 399/399/399
f 374/374/374 399/399/399 398/398/398
f 375/375/375 376/376/376 400/400/400
f 375/375/375 400/400/400 399/399/399
f 376/376/376 377/377/377 401/401/401
f 376/376/376 401/401/401 400/400/400
f 377/377/377 378/378/378 402/402/402
f 377/377/377 402/402/402 401/401/401
f 378/378/378 379/379/379 403/403/403
f 378/378/378 403/403/403 402/402/402
f 379/379/379 380/380/380 404/404/404
f 379/379/379 404/404/404 403/403/403
f 380/380/380 381/381/381 405/405/405
f 380/380/380 405/405/405 404/404/404
f 381/381/381 382/382/382 406/406/406
f 381/381/381 406/406/406 405/405/405
f 382/382/382 383/383/383 407/407/407
f 382/382/382 407/407/407 406/406/406
f 383/383/383 384/384/384 408/408/408
f 383/383/383 408/408/408 407/407/407
f 384/384/384 361/361/361 385/385/385
f 384/384/384 385/385/385 408/408/408
f 385/385/385 386/386/386 410/410/410
f 385/385/385 410/410/410 409/409/409
f 386/386/386 387/387/387 411/411/411
f 386/386/386 411/411/411 410/410/410
f 387/387/387 388/388/388 412/412/412
f 387/387/387 412/412/412 411/411/411
f 388/388/388 389/389/389 413/413/413
f 388/388/388 413/413/413 412/412/412
f 389/389/389 390/390/390 414/414/414
f 389/389/389 414/414/414 413/413/413
f 390/390/390 391/391/391 415/415/415
f 390/390/390 415/415/415 414/414/414
f 391/391/391 392/392/392 416/416/416
f 391/391/391 416/416/416 415/415/415
f 392/392/392 393/393/393 417/417/417
f 392/392/392 417/417/417 416/416/416
f 393/393/393 394/394/394 418/418/418
f 393/393/393 418/418/418 417/417/417
f 394/394/394 395/395/395 419/419/419
f 394/394/394 419/419/419 418/418/418
f 395/395/395 396/396/396 420/420/420
f 395/395/395 420/420/420 419/419/419
f 396/396/396 397/397/397 421/421/421
f 396/396/396 421/421/421 420/420/420
f 397/397/397 398/398/398 422/422/422
f 397/397/397 422/422/422 421/421/421
f 398/398/398 399/399/399 423/423/423
f 398/398/398 423/423/423 422/422/422
f 399/399/399 400/400/400 424/424/424
f 399/399/399 424/424/424 423/423/423
f 400/400/400 401/401/401 425/425/425
f 400/400/400 425/425/425 424/424/424
f 401/401/401 402/402/402 426/426/426
f 401/401/401 426/426/426 425/425/425
f 402/402/402 403/403/403 427/427/427
f 402/402/402 427/427/427 426/426/426
f 403/403/403 404/404/404 428/428/428
f 403/403/403 428/428/428 427/427/427
f 404/404/404 405/405/405 429/429/429
f 404/404/404 429/429/429 428/428/428
f 405/405/405 406/406/406 430/430/430
f 405/405/405 430/430/430 429/429/429
f 406/406/406 407/407/407 431/431/431
f 406/406/406 431/431/431 430/430/430
f 407/407/407 408/408/408 432/432/432
f 407/407/407 432/432/432 431/431/431
f 408/408/408 385/385/385 409/409/409
f 408/408/408 409/409/409 432/432/432
f 409/409/409 410/410/410 434/434/434
f 409/409/409 434/434/434 433/433/433
f 410/410/410 411/411/411 435/435/435
f 410/410/410 435/435/435 434/434/434
f 411/411/411 412/412/412 436/436/436
f 411/411/411 436/436/436 435/435/435
f 412/412/412 413/413/413 437/437/437
f 412/412/412 437/437/437 436/436/436
f 413/413/413 414/414/414 438/438/438
f 413/413/413 438/438/438 437/437/437
f 414/414/414 415/415/415 439/439/439
f 414/414/414 439/439/439 438/438/438
f 415/415/415 416/416/416 440/440/440
f 415/415/415 440/440/440 439/439/439
f 416/416/416 417/417/417 441/441/441
f 416/416/416 441/441/441 440/440/440
f 417/417/417 418/418/418 442/442/442
f 417/417/417 442/442/442 441/441/441
f 418/418/418 419/419/419 443/443/443
f 418/418/418 443/443/443 442/442/442
f 419/419/419 420/420/420 444/444/444
f 419/419/419 444/444/444 443/443/443
f 420/420/420 421/421/421 445/445/445
f 420/420/420 445/445/445 444/444/444
f 421/421/421 422/422/422 446/446/446
f 421/421/421 446/446/446 445/445/445
f 422/422/422 423/423/423 447/447/447
f 422/422/422 447/447/447 446/446/446
f 423/423/423 424/424/424 448/448/448
f 423/423/423 448/448/448 447/447/447
f 424/424/424 425/425/425 449/449/449
f 424/424/424 449/449/449 448/448/448
f 425/425/425 426/426/426 450/450/450
f 425/425/425 450/450/450 449/449/449
f 426/426/426 427/427/427 451/451/451
f 426/426/426 451/451/451 450/450/450
f 427/427/427 428/428/428 452/452/452
f 427/427/427 452/452/452 451/451/451
f 428/428/428 429/429/429 453/453/453
f 428/428/428 453/453/453 452/452/452
f 429/429/429 430/430/430 454/454/454
f 429/429/429 454/454/454 453/453/453
f 430/430/430 431/431/431 455/455/455
f 430/430/430 455/455/455 454/454/454
f 431/431/431 432/432/432 456/456/456
f 431/431/431 456/456/456 455/455/455
f 432/432/432 409/409/409 433/433/433
f 432/432/432 433/433/433 456/456/456
f 433/433/433 434/434/434 458/458/458
f 433/433/433 458/458/458 457/457/457
f 434/434/434 435/435/435 459/459/459
f 434/434/434 459/459/459 458/458/458
f 435/435/435 436/436/436 460/460/460
f 435/435/435 460/460/460 459/459/459
f 436/436/436 437/437/437 461/461/461
f 436/436/436 461/461/461 460/460/460
f 437/437/437 438/438/438 462/462/462
f 437/437/437 462/462/462 461/461/461
f 438/438/438 439/439/439 463/463/463
f 438/438/438 463/463/463 462/462/462
f 439/439/439 440/440/440 464/464/464
f 439/439/439 464/464/464 463/463/463
f 440/440/440 441/441/441 465/465/465
f 440/440/440 465/465/465 464/464/464
f 441/441/441 442/442/442 466/466/466
f 441/441/441 466/466/466 465/465/465
f 442/442/442 443/443/443 467/467/467
f 442/442/442 467/467/467 466/466/466
f 443/443/443 444/444/444 468/468/468
f 443/443/443 468/468/468 467/467/467
f 444/444/444 445/445/445 469/469/469
f 444/444/444 469/469/469 468/468/468
f 445/445/445 446/446/446 470/470/470
f 445/445/445 470/470/470 469/469/469
f 446/446/446 447/447/447 471/471/471
f 446/446/446 471/471/471 470/470/470
f 447/447/447 448/448/448 472/472/472
f 447/447/447 472/472/472 471/471/471
f 448/448/448 449/449/449 473/473/473
f 448/448/448 473/473/473 472/472/472
f 449/449/449 450/450/450 474/474/474
f 449/449/449 474/474/474 473/473/473
f 450/450/450 451/451/451 475/475/475
f 450/450/450 475/475/475 474/474/474
f 451/451/451 452/452/452 476/476/476
f 451/451/451 476/476/476 475/475/475
f 452/452/452 453/453/453 477/477/477
f 452/452/452 477/477/477 476/476/476
f 453/453/453 454/454/454 478/478/478
f 453/453/453 478/478/478 477/477/477
f 454/454/454 455/455/455 479/479/479
f 454/454/454 479/479/479 478/478/478
f 455/455/455 456/456/456 480/480/480
f 455/455/455 480/480/480 479/479/479
f 456/456/456 433/433/433 457/457/457
f 456/456/456 457/457/457 480/480/480
f 481/481/481 2/2/2 1/1/1
f 481/481/481 3/3/3 2/2/2
f 481/481/481 4/4/4 3/3/3
f 481/481/481 5/5/5 4/4/4
f 481/481/481 6/6/6 5/5/5
f 481/481/481 7/7/7 6/6/6
f 481/481/481 8/8/8 7/7/7
f 481/481/481 9/9/9 8/8/8
f 481/481/481 10/10/10 9/9/9
f 481/481/481 11/11/11 10/10/10
f 481/481/481 12/12/12 11/11/11
f 481/481/481 13/13/13 12/12/12
f 481/481/481 14/14/14 13/13/13
f 481/481/481 15/15/15 14/14/14
f 481/481/481 16/16/16 15/15/15
f 481/481/481 17/17/17 16/16/16
f 481/481/481 18/18/18 17/17/17
f 481/481/481 19/19/19 18/18/18
f 481/481/481 20/20/20 19/19/19
f 481/481/481 21/21/21 20/20/20
f 481/481/481 22/22/22 21/21/21
f 481/481/481 23/23/23 22/22/22
f 481/481/481 24/24/24 23/23/23
f 481/481/481 1/1/1 24/24/24
f 482/482/482 457/457/457 458/458/458
f 482/482/482 458/458/458 459/459/459
f 482/482/482 459/459/459 460/460/460
f 482/482/482 460/460/460 461/461/461
f 482/482/482 461/461/461 462/462/462
f 482/482/482 462/462/462 463/463/463
f 482/482/482 463/463/463 464/464/464
f 482/482/482 464/464/464 465/465/465
f 482/482/482 465/465/465 466/466/466
f 482/482/482 466/466/466 467/467/467
f 482/482/482 467/467/467 468/468/468
f 482/482/482 468/468/468 469/469/469
f 482/482/482 469/469/469 470/470/470
f 482/482/482 470/470/470 471/471/471
f 482/482/482 471/471/471 472/472/472
f 482/482/482 472/472/472 473/473/473
f 482/482/482 473/473/473 474/474/474
f 482/482/482 474/474/474 475/475/475
f 482/482/482 475/475/475 476/476/476
f 482/482/482 476/476/476 477/477/477
f 482/482/482 477/477/477 478/478/478
f 482/482/482 478/478/478 479/479/479
f 482/482/482 479/479/479 480/480/480
f 482/482/482 480/480/480 457/457/457
