# procedural placeholder mesh: farmer_boot
v 0.02000 -0.83500 -0.07500
v 0.01947 -0.82439 -0.07500
v 0.01791 -0.81740 -0.07500
v 0.01532 -0.81202 -0.07500
v 0.01173 -0.80814 -0.07500
v 0.00707 -0.80579 -0.07500
v 0.00000 -0.80500 -0.07500
v -0.00707 -0.80579 -0.07500
v -0.01173 -0.80814 -0.07500
v -0.01532 -0.81202 -0.07500
v -0.01791 -0.81740 -0.07500
v -0.01947 -0.82439 -0.07500
v -0.02000 -0.83500 -0.07500
v -0.01947 -0.84561 -0.07500
v -0.01791 -0.85260 -0.07500
v -0.01532 -0.85798 -0.07500
v -0.01173 -0.86186 -0.07500
v -0.00707 -0.86421 -0.07500
v -0.00000 -0.86500 -0.07500
v 0.00707 -0.86421 -0.07500
v 0.01173 -0.86186 -0.07500
v 0.01532 -0.85798 -0.07500
v 0.01791 -0.85260 -0.07500
v 0.01947 -0.84561 -0.07500
v 0.03264 -0.83184 -0.07222
v 0.03179 -0.81880 -0.07222
v 0.02923 -0.81019 -0.07222
v 0.02501 -0.80358 -0.07222
v 0.01915 -0.79881 -0.07222
v 0.01154 -0.79591 -0.07222
v 0.00000 -0.79494 -0.07222
v -0.01154 -0.79591 -0.07222
v -0.01915 -0.79881 -0.07222
v -0.02501 -0.80358 -0.07222
v -0.02923 -0.81019 -0.07222
v -0.03179 -0.81880 -0.07222
v -0.03264 -0.83184 -0.07222
v -0.03179 -0.84489 -0.07222
v -0.02923 -0.85349 -0.07222
v -0.02501 -0.86011 -0.07222
v -0.01915 -0.86488 -0.07222
v -0.01154 -0.86777 -0.07222
v -0.00000 -0.86874 -0.07222
v 0.01154 -0.86777 -0.07222
v 0.01915 -0.86488 -0.07222
v 0.02501 -0.86011 -0.07222
v 0.02923 -0.85349 -0.07222
v 0.03179 -0.84489 -0.07222
v 0.04553 -0.82868 -0.06950
v 0.04434 -0.81317 -0.06950
v 0.04076 -0.80293 -0.06950
v 0.03488 -0.79506 -0.06950
v 0.02672 -0.78939 -0.06950
v 0.01610 -0.78595 -0.06950
v 0.00000 -0.78479 -0.06950
v -0.01610 -0.78595 -0.06950
v -0.02672 -0.78939 -0.06950
v -0.03488 -0.79506 -0.06950
v -0.04076 -0.80293 -0.06950
v -0.04434 -0.81317 -0.06950
v -0.04553 -0.82868 -0.06950
v -0.04434 -0.84420 -0.06950
v -0.04076 -0.85444 -0.06950
v -0.03488 -0.86230 -0.06950
v -0.02672 -0.86798 -0.06950
v -0.01610 -0.87142 -0.06950
v -0.00000 -0.87258 -0.06950
v 0.01610 -0.87142 -0.06950
v 0.02672 -0.86798 -0.06950
v 0.03488 -0.86230 -0.06950
v 0.04076 -0.85444 -0.06950
v 0.04434 -0.84420 -0.06950
v 0.05426 -0.82553 -0.06579
v 0.05283 -0.80808 -0.06579
v 0.04858 -0.79657 -0.06579
v 0.04156 -0.78772 -0.06579
v 0.03184 -0.78134 -0.06579
v 0.01918 -0.77747 -0.06579
v 0.00000 -0.77617 -0.06579
v -0.01918 -0.77747 -0.06579
v -0.03184 -0.78134 -0.06579
v -0.04156 -0.78772 -0.06579
v -0.04858 -0.79657 -0.06579
v -0.05283 -0.80808 -0.06579
v -0.05426 -0.82553 -0.06579
v -0.05283 -0.84298 -0.06579
v -0.04858 -0.85448 -0.06579
v -0.04156 -0.86333 -0.06579
v -0.03184 -0.86971 -0.06579
v -0.01918 -0.87358 -0.06579
v -0.00000 -0.87488 -0.06579
v 0.01918 -0.87358 -0.06579
v 0.03184 -0.86971 -0.06579
v 0.04156 -0.86333 -0.06579
v 0.04858 -0.85448 -0.06579
v 0.05283 -0.84298 -0.06579
v 0.05787 -0.82186 -0.05904
v 0.05634 -0.80312 -0.05904
v 0.05180 -0.79076 -0.05904
v 0.04432 -0.78126 -0.05904
v 0.03395 -0.77441 -0.05904
v 0.02046 -0.77025 -0.05904
v 0.00000 -0.76885 -0.05904
v -0.02046 -0.77025 -0.05904
v -0.03395 -0.77441 -0.05904
v -0.04432 -0.78126 -0.05904
v -0.05180 -0.79076 -0.05904
v -0.05634 -0.80312 -0.05904
v -0.05787 -0.82186 -0.05904
v -0.05634 -0.84060 -0.05904
v -0.05180 -0.85296 -0.05904
v -0.04432 -0.86246 -0.05904
v -0.03395 -0.86931 -0.05904
v -0.02046 -0.87347 -0.05904
v -0.00000 -0.87486 -0.05904
v 0.02046 -0.87347 -0.05904
v 0.03395 -0.86931 -0.05904
v 0.04432 -0.86246 -0.05904
v 0.05180 -0.85296 -0.05904
v 0.05634 -0.84060 -0.05904
v 0.06052 -0.81780 -0.04803
v 0.05893 -0.79796 -0.04803
v 0.05418 -0.78488 -0.04803
v 0.04636 -0.77482 -0.04803
v 0.03551 -0.76756 -0.04803
v 0.02140 -0.76316 -0.04803
v 0.00000 -0.76169 -0.04803
v -0.02140 -0.76316 -0.04803
v -0.03551 -0.76756 -0.04803
v -0.04636 -0.77482 -0.04803
v -0.05418 -0.78488 -0.04803
v -0.05893 -0.79796 -0.04803
v -0.06052 -0.81780 -0.04803
v -0.05893 -0.83764 -0.04803
v -0.05418 -0.85072 -0.04803
v -0.04636 -0.86078 -0.04803
v -0.03551 -0.86803 -0.04803
v -0.02140 -0.87244 -0.04803
v -0.00000 -0.87391 -0.04803
v 0.02140 -0.87244 -0.04803
v 0.03551 -0.86803 -0.04803
v 0.04636 -0.86078 -0.04803
v 0.05418 -0.85072 -0.04803
v 0.05893 -0.83764 -0.04803
v 0.06190 -0.81521 -0.03465
v 0.06027 -0.79475 -0.03465
v 0.05542 -0.78126 -0.03465
v 0.04741 -0.77089 -0.03465
v 0.03632 -0.76341 -0.03465
v 0.02188 -0.75887 -0.03465
v 0.00000 -0.75734 -0.03465
v -0.02188 -0.75887 -0.03465
v -0.03632 -0.76341 -0.03465
v -0.04741 -0.77089 -0.03465
v -0.05542 -0.78126 -0.03465
v -0.06027 -0.79475 -0.03465
v -0.06190 -0.81521 -0.03465
v -0.06027 -0.83567 -0.03465
v -0.05542 -0.84916 -0.03465
v -0.04741 -0.85953 -0.03465
v -0.03632 -0.86701 -0.03465
v -0.02188 -0.87155 -0.03465
v -0.00000 -0.87308 -0.03465
v 0.02188 -0.87155 -0.03465
v 0.03632 -0.86701 -0.03465
v 0.04741 -0.85953 -0.03465
v 0.05542 -0.84916 -0.03465
v 0.06027 -0.83567 -0.03465
v 0.06173 -0.81736 -0.01974
v 0.06010 -0.79744 -0.01974
v 0.05526 -0.78431 -0.01974
v 0.04728 -0.77421 -0.01974
v 0.03622 -0.76693 -0.01974
v 0.02182 -0.76251 -0.01974
v 0.00000 -0.76103 -0.01974
v -0.02182 -0.76251 -0.01974
v -0.03622 -0.76693 -0.01974
v -0.04728 -0.77421 -0.01974
v -0.05526 -0.78431 -0.01974
v -0.06010 -0.79744 -0.01974
v -0.06173 -0.81736 -0.01974
v -0.06010 -0.83727 -0.01974
v -0.05526 -0.85041 -0.01974
v -0.04728 -0.86051 -0.01974
v -0.03622 -0.86779 -0.01974
v -0.02182 -0.87221 -0.01974
v -0.00000 -0.87369 -0.01974
v 0.02182 -0.87221 -0.01974
v 0.03622 -0.86779 -0.01974
v 0.04728 -0.86051 -0.01974
v 0.05526 -0.85041 -0.01974
v 0.06010 -0.83727 -0.01974
v 0.06054 -0.82661 -0.00141
v 0.05895 -0.80902 -0.00141
v 0.05420 -0.79743 -0.00141
v 0.04637 -0.78851 -0.00141
v 0.03552 -0.78208 -0.00141
v 0.02141 -0.77818 -0.00141
v 0.00000 -0.77687 -0.00141
v -0.02141 -0.77818 -0.00141
v -0.03552 -0.78208 -0.00141
v -0.04637 -0.78851 -0.00141
v -0.05420 -0.79743 -0.00141
v -0.05895 -0.80902 -0.00141
v -0.06054 -0.82661 -0.00141
v -0.05895 -0.84420 -0.00141
v -0.05420 -0.85580 -0.00141
v -0.04637 -0.86471 -0.00141
v -0.03552 -0.87114 -0.00141
v -0.02141 -0.87505 -0.00141
v -0.00000 -0.87636 -0.00141
v 0.02141 -0.87505 -0.00141
v 0.03552 -0.87114 -0.00141
v 0.04637 -0.86471 -0.00141
v 0.05420 -0.85580 -0.00141
v 0.05895 -0.84420 -0.00141
v 0.05886 -0.83673 0.01924
v 0.05732 -0.82172 0.01924
v 0.05270 -0.81182 0.01924
v 0.04509 -0.80422 0.01924
v 0.03454 -0.79873 0.01924
v 0.02081 -0.79540 0.01924
v 0.00000 -0.79428 0.01924
v -0.02081 -0.79540 0.01924
v -0.03454 -0.79873 0.01924
v -0.04509 -0.80422 0.01924
v -0.05270 -0.81182 0.01924
v -0.05732 -0.82172 0.01924
v -0.05886 -0.83673 0.01924
v -0.05732 -0.85173 0.01924
v -0.05270 -0.86163 0.01924
v -0.04509 -0.86924 0.01924
v -0.03454 -0.87473 0.01924
v -0.02081 -0.87806 0.01924
v -0.00000 -0.87917 0.01924
v 0.02081 -0.87806 0.01924
v 0.03454 -0.87473 0.01924
v 0.04509 -0.86924 0.01924
v 0.05270 -0.86163 0.01924
v 0.05732 -0.85173 0.01924
v 0.05708 -0.84217 0.04191
v 0.05558 -0.82861 0.04191
v 0.05110 -0.81966 0.04191
v 0.04372 -0.81278 0.04191
v 0.03349 -0.80782 0.04191
v 0.02018 -0.80481 0.04191
v 0.00000 -0.80380 0.04191
v -0.02018 -0.80481 0.04191
v -0.03349 -0.80782 0.04191
v -0.04372 -0.81278 0.04191
v -0.05110 -0.81966 0.04191
v -0.05558 -0.82861 0.04191
v -0.05708 -0.84217 0.04191
v -0.05558 -0.85574 0.04191
v -0.05110 -0.86468 0.04191
v -0.04372 -0.87156 0.04191
v -0.03349 -0.87652 0.04191
v -0.02018 -0.87953 0.04191
v -0.00000 -0.88054 0.04191
v 0.02018 -0.87953 0.04191
v 0.03349 -0.87652 0.04191
v 0.04372 -0.87156 0.04191
v 0.05110 -0.86468 0.04191
v 0.05558 -0.85574 0.04191
v 0.05482 -0.84594 0.06954
v 0.05338 -0.83332 0.06954
v 0.04908 -0.82501 0.06954
v 0.04199 -0.81861 0.06954
v 0.03216 -0.81400 0.06954
v 0.01938 -0.81120 0.06954
v 0.00000 -0.81026 0.06954
v -0.01938 -0.81120 0.06954
v -0.03216 -0.81400 0.06954
v -0.04199 -0.81861 0.06954
v -0.04908 -0.82501 0.06954
v -0.05338 -0.83332 0.06954
v -0.05482 -0.84594 0.06954
v -0.05338 -0.85855 0.06954
v -0.04908 -0.86686 0.06954
v -0.04199 -0.87326 0.06954
v -0.03216 -0.87787 0.06954
v -0.01938 -0.88067 0.06954
v -0.00000 -0.88161 0.06954
v 0.01938 -0.88067 0.06954
v 0.03216 -0.87787 0.06954
v 0.04199 -0.87326 0.06954
v 0.04908 -0.86686 0.06954
v 0.05338 -0.85855 0.06954
v 0.05206 -0.84875 0.09626
v 0.05069 -0.83693 0.09626
v 0.04661 -0.82914 0.09626
v 0.03988 -0.82315 0.09626
v 0.03055 -0.81883 0.09626
v 0.01841 -0.81620 0.09626
v 0.00000 -0.81532 0.09626
v -0.01841 -0.81620 0.09626
v -0.03055 -0.81883 0.09626
v -0.03988 -0.82315 0.09626
v -0.04661 -0.82914 0.09626
v -0.05069 -0.83693 0.09626
v -0.05206 -0.84875 0.09626
v -0.05069 -0.86057 0.09626
v -0.04661 -0.86836 0.09626
v -0.03988 -0.87436 0.09626
v -0.03055 -0.87868 0.09626
v -0.01841 -0.88130 0.09626
v -0.00000 -0.88218 0.09626
v 0.01841 -0.88130 0.09626
v 0.03055 -0.87868 0.09626
v 0.03988 -0.87436 0.09626
v 0.04661 -0.86836 0.09626
v 0.05069 -0.86057 0.09626
v 0.04889 -0.85046 0.11551
v 0.04760 -0.83938 0.11551
v 0.04377 -0.83208 0.11551
v 0.03745 -0.82646 0.11551
v 0.02869 -0.82242 0.11551
v 0.01729 -0.81996 0.11551
v 0.00000 -0.81913 0.11551
v -0.01729 -0.81996 0.11551
v -0.02869 -0.82242 0.11551
v -0.03745 -0.82646 0.11551
v -0.04377 -0.83208 0.11551
v -0.04760 -0.83938 0.11551
v -0.04889 -0.85046 0.11551
v -0.04760 -0.86153 0.11551
v -0.04377 -0.86884 0.11551
v -0.03745 -0.87445 0.11551
v -0.02869 -0.87850 0.11551
v -0.01729 -0.88096 0.11551
v -0.00000 -0.88178 0.11551
v 0.01729 -0.88096 0.11551
v 0.02869 -0.87850 0.11551
v 0.03745 -0.87445 0.11551
v 0.04377 -0.86884 0.11551
v 0.04760 -0.86153 0.11551
v 0.04508 -0.85155 0.13059
v 0.04389 -0.84108 0.13059
v 0.04035 -0.83417 0.13059
v 0.03453 -0.82885 0.13059
v 0.02645 -0.82502 0.13059
v 0.01594 -0.82270 0.13059
v 0.00000 -0.82192 0.13059
v -0.01594 -0.82270 0.13059
v -0.02645 -0.82502 0.13059
v -0.03453 -0.82885 0.13059
v -0.04035 -0.83417 0.13059
v -0.04389 -0.84108 0.13059
v -0.04508 -0.85155 0.13059
v -0.04389 -0.86203 0.13059
v -0.04035 -0.86894 0.13059
v -0.03453 -0.87425 0.13059
v -0.02645 -0.87808 0.13059
v -0.01594 -0.88041 0.13059
v -0.00000 -0.88119 0.13059
v 0.01594 -0.88041 0.13059
v 0.02645 -0.87808 0.13059
v 0.03453 -0.87425 0.13059
v 0.04035 -0.86894 0.13059
v 0.04389 -0.86203 0.13059
v 0.04048 -0.85238 0.14275
v 0.03941 -0.84251 0.14275
v 0.03624 -0.83599 0.14275
v 0.03101 -0.83099 0.14275
v 0.02375 -0.82738 0.14275
v 0.01431 -0.82519 0.14275
v 0.00000 -0.82445 0.14275
v -0.01431 -0.82519 0.14275
v -0.02375 -0.82738 0.14275
v -0.03101 -0.83099 0.14275
v -0.03624 -0.83599 0.14275
v -0.03941 -0.84251 0.14275
v -0.04048 -0.85238 0.14275
v -0.03941 -0.86225 0.14275
v -0.03624 -0.86876 0.14275
v -0.03101 -0.87377 0.14275
v -0.02375 -0.87738 0.14275
v -0.01431 -0.87957 0.14275
v -0.00000 -0.88030 0.14275
v 0.01431 -0.87957 0.14275
v 0.02375 -0.87738 0.14275
v 0.03101 -0.87377 0.14275
v 0.03624 -0.86876 0.14275
v 0.03941 -0.86225 0.14275
v 0.03500 -0.85312 0.15111
v 0.03408 -0.84411 0.15111
v 0.03133 -0.83816 0.15111
v 0.02681 -0.83359 0.15111
v 0.02054 -0.83029 0.15111
v 0.01237 -0.82829 0.15111
v 0.00000 -0.82762 0.15111
v -0.01237 -0.82829 0.15111
v -0.02054 -0.83029 0.15111
v -0.02681 -0.83359 0.15111
v -0.03133 -0.83816 0.15111
v -0.03408 -0.84411 0.15111
v -0.03500 -0.85312 0.15111
v -0.03408 -0.86214 0.15111
v -0.03133 -0.86809 0.15111
v -0.02681 -0.87266 0.15111
v -0.02054 -0.87595 0.15111
v -0.01237 -0.87795 0.15111
v -0.00000 -0.87863 0.15111
v 0.01237 -0.87795 0.15111
v 0.02054 -0.87595 0.15111
v 0.02681 -0.87266 0.15111
v 0.03133 -0.86809 0.15111
v 0.03408 -0.86214 0.15111
v 0.02757 -0.85380 0.15653
v 0.02684 -0.84631 0.15653
v 0.02468 -0.84137 0.15653
v 0.02112 -0.83758 0.15653
v 0.01617 -0.83484 0.15653
v 0.00975 -0.83318 0.15653
v 0.00000 -0.83262 0.15653
v -0.00975 -0.83318 0.15653
v -0.01617 -0.83484 0.15653
v -0.02112 -0.83758 0.15653
v -0.02468 -0.84137 0.15653
v -0.02684 -0.84631 0.15653
v -0.02757 -0.85380 0.15653
v -0.02684 -0.86128 0.15653
v -0.02468 -0.86622 0.15653
v -0.02112 -0.87001 0.15653
v -0.01617 -0.87275 0.15653
v -0.00975 -0.87441 0.15653
v -0.00000 -0.87497 0.15653
v 0.00975 -0.87441 0.15653
v 0.01617 -0.87275 0.15653
v 0.02112 -0.87001 0.15653
v 0.02468 -0.86622 0.15653
v 0.02684 -0.86128 0.15653
v 0.01874 -0.85440 0.16073
v 0.01825 -0.84890 0.16073
v 0.01678 -0.84527 0.16073
v 0.01436 -0.84249 0.16073
v 0.01100 -0.84048 0.16073
v 0.00663 -0.83926 0.16073
v 0.00000 -0.83885 0.16073
v -0.00663 -0.83926 0.16073
v -0.01100 -0.84048 0.16073
v -0.01436 -0.84249 0.16073
v -0.01678 -0.84527 0.16073
v -0.01825 -0.84890 0.16073
v -0.01874 -0.85440 0.16073
v -0.01825 -0.85989 0.16073
v -0.01678 -0.86352 0.16073
v -0.01436 -0.86631 0.16073
v -0.01100 -0.86832 0.16073
v -0.00663 -0.86954 0.16073
v -0.00000 -0.86994 0.16073
v 0.00663 -0.86954 0.16073
v 0.01100 -0.86832 0.16073
v 0.01436 -0.86631 0.16073
v 0.01678 -0.86352 0.16073
v 0.01825 -0.85989 0.16073
v 0.01000 -0.85500 0.16500
v 0.00974 -0.85146 0.16500
v 0.00895 -0.84913 0.16500
v 0.00766 -0.84734 0.16500
v 0.00587 -0.84605 0.16500
v 0.00354 -0.84526 0.16500
v 0.00000 -0.84500 0.16500
v -0.00354 -0.84526 0.16500
v -0.00587 -0.84605 0.16500
v -0.00766 -0.84734 0.16500
v -0.00895 -0.84913 0.16500
v -0.00974 -0.85146 0.16500
v -0.01000 -0.85500 0.16500
v -0.00974 -0.85854 0.16500
v -0.00895 -0.86087 0.16500
v -0.00766 -0.86266 0.16500
v -0.00587 -0.86395 0.16500
v -0.00354 -0.86474 0.16500
v -0.00000 -0.86500 0.16500
v 0.00354 -0.86474 0.16500
v 0.00587 -0.86395 0.16500
v 0.00766 -0.86266 0.16500
v 0.00895 -0.86087 0.16500
v 0.00974 -0.85854 0.16500
v 0.00000 -0.83500 -0.07500
v 0.00000 -0.85500 0.16500
vn 0.1103 0.0028 -0.9939
vn 0.1021 0.0181 -0.9946
vn 0.0930 0.0410 -0.9948
vn 0.0753 0.0645 -0.9951
vn 0.0499 0.0867 -0.9950
vn 0.0186 0.1052 -0.9943
vn -0.0039 0.1037 -0.9946
vn -0.0284 0.0911 -0.9954
vn -0.0593 0.0759 -0.9953
vn -0.0827 0.0541 -0.9951
vn -0.0991 0.0317 -0.9946
vn -0.1112 0.0107 -0.9937
vn -0.1110 -0.0028 -0.9938
vn -0.1065 -0.0189 -0.9941
vn -0.1025 -0.0452 -0.9937
vn -0.0881 -0.0755 -0.9932
vn -0.0620 -0.1078 -0.9922
vn -0.0244 -0.1380 -0.9901
vn 0.0051 -0.1353 -0.9908
vn 0.0358 -0.1147 -0.9928
vn 0.0715 -0.0917 -0.9932
vn 0.0942 -0.0617 -0.9936
vn 0.1068 -0.0342 -0.9937
vn 0.1140 -0.0110 -0.9934
vn 0.2108 0.0018 -0.9775
vn 0.2016 0.0343 -0.9789
vn 0.1824 0.0845 -0.9796
vn 0.1535 0.1399 -0.9782
vn 0.1090 0.1976 -0.9742
vn 0.0469 0.2455 -0.9683
vn -0.0013 0.2605 -0.9655
vn -0.0519 0.2435 -0.9685
vn -0.1137 0.1937 -0.9744
vn -0.1574 0.1351 -0.9783
vn -0.1853 0.0794 -0.9795
vn -0.2031 0.0297 -0.9787
vn -0.2116 -0.0018 -0.9773
vn -0.2184 -0.0371 -0.9751
vn -0.2251 -0.1042 -0.9687
vn -0.2230 -0.2033 -0.9534
vn -0.1925 -0.3488 -0.9172
vn -0.0988 -0.5175 -0.8500
vn 0.0029 -0.5797 -0.8148
vn 0.1085 -0.5086 -0.8541
vn 0.1979 -0.3370 -0.9205
vn 0.2251 -0.1932 -0.9550
vn 0.2254 -0.0966 -0.9695
vn 0.2176 -0.0318 -0.9755
vn 0.2900 0.0029 -0.9570
vn 0.2664 0.0533 -0.9624
vn 0.2337 0.1270 -0.9640
vn 0.1863 0.1996 -0.9620
vn 0.1246 0.2662 -0.9558
vn 0.0509 0.3175 -0.9469
vn -0.0023 0.3286 -0.9445
vn -0.0577 0.3098 -0.9491
vn -0.1333 0.2625 -0.9557
vn -0.1960 0.1951 -0.9610
vn -0.2436 0.1212 -0.9623
vn -0.2804 0.0474 -0.9587
vn -0.2910 -0.0029 -0.9567
vn -0.2950 -0.0590 -0.9537
vn -0.3044 -0.1654 -0.9381
vn -0.2916 -0.3124 -0.9041
vn -0.2345 -0.5008 -0.8332
vn -0.1092 -0.6816 -0.7235
vn 0.0051 -0.7305 -0.6829
vn 0.1240 -0.6661 -0.7355
vn 0.2505 -0.4933 -0.8330
vn 0.3052 -0.3038 -0.9025
vn 0.3148 -0.1566 -0.9361
vn 0.3082 -0.0521 -0.9499
vn 0.6547 0.0070 -0.7558
vn 0.5838 0.1243 -0.8023
vn 0.4830 0.2785 -0.8302
vn 0.3538 0.4024 -0.8443
vn 0.2162 0.4916 -0.8436
vn 0.0819 0.5483 -0.8323
vn -0.0047 0.5538 -0.8326
vn -0.0952 0.5330 -0.8408
vn -0.2349 0.4854 -0.8421
vn -0.3768 0.3945 -0.8381
vn -0.5090 0.2664 -0.8185
vn -0.6233 0.1107 -0.7741
vn -0.6569 -0.0070 -0.7540
vn -0.6634 -0.1413 -0.7348
vn -0.6590 -0.3800 -0.6491
vn -0.5626 -0.6399 -0.5235
vn -0.3743 -0.8509 -0.3686
vn -0.1437 -0.9620 -0.2324
vn 0.0084 -0.9787 -0.2050
vn 0.1701 -0.9526 -0.2523
vn 0.4064 -0.8397 -0.3602
vn 0.5949 -0.6228 -0.5081
vn 0.6870 -0.3596 -0.6314
vn 0.7002 -0.1243 -0.7030
vn 0.9434 0.0074 -0.3315
vn 0.8912 0.1856 -0.4139
vn 0.7465 0.4250 -0.5119
vn 0.5400 0.6076 -0.5824
vn 0.3199 0.7187 -0.6174
vn 0.1178 0.7720 -0.6246
vn -0.0053 0.7764 -0.6302
vn -0.1334 0.7604 -0.6356
vn -0.3394 0.7078 -0.6196
vn -0.5603 0.5914 -0.5799
vn -0.7633 0.4037 -0.5044
vn -0.9035 0.1639 -0.3961
vn -0.9441 -0.0074 -0.3294
vn -0.9420 -0.1962 -0.2724
vn -0.8563 -0.4875 -0.1707
vn -0.6625 -0.7454 -0.0743
vn -0.4067 -0.9136 0.0012
vn -0.1507 -0.9875 0.0468
vn 0.0068 -0.9984 0.0556
vn 0.1727 -0.9841 0.0422
vn 0.4324 -0.9017 -0.0007
vn 0.6858 -0.7239 -0.0755
vn 0.8712 -0.4607 -0.1698
vn 0.9496 -0.1723 -0.2620
vn 0.9869 0.0034 -0.1613
vn 0.9570 0.1901 -0.2192
vn 0.8352 0.4614 -0.2994
vn 0.6276 0.6869 -0.3664
vn 0.3812 0.8308 -0.4056
vn 0.1438 0.8977 -0.4165
vn -0.0029 0.9051 -0.4252
vn -0.1519 0.8893 -0.4314
vn -0.3909 0.8231 -0.4120
vn -0.6364 0.6765 -0.3706
vn -0.8411 0.4493 -0.3012
vn -0.9602 0.1792 -0.2145
vn -0.9865 -0.0034 -0.1640
vn -0.9734 -0.1933 -0.1233
vn -0.8739 -0.4827 -0.0576
vn -0.6745 -0.7383 0.0005
vn -0.4167 -0.9080 0.0433
vn -0.1579 -0.9852 0.0668
vn 0.0032 -0.9973 0.0733
vn 0.1680 -0.9834 0.0689
vn 0.4285 -0.9024 0.0455
vn 0.6851 -0.7284 0.0036
vn 0.8808 -0.4706 -0.0531
vn 0.9766 -0.1823 -0.1138
vn 0.9993 0.0017 -0.0380
vn 0.9808 0.1910 -0.0401
vn 0.8773 0.4788 -0.0334
vn 0.6783 0.7343 -0.0265
vn 0.4214 0.9067 -0.0188
vn 0.1616 0.9868 -0.0052
vn -0.0013 0.9997 -0.0226
vn -0.1657 0.9852 -0.0439
vn -0.4262 0.9037 -0.0418
vn -0.6824 0.7293 -0.0483
vn -0.8796 0.4729 -0.0519
vn -0.9814 0.1858 -0.0478
vn -0.9989 -0.0017 -0.0468
vn -0.9806 -0.1910 -0.0448
vn -0.8773 -0.4788 -0.0320
vn -0.6785 -0.7344 -0.0175
vn -0.4215 -0.9068 -0.0046
vn -0.1616 -0.9869 0.0021
vn 0.0013 -1.0000 0.0075
vn 0.1659 -0.9861 0.0084
vn 0.4266 -0.9045 -0.0015
vn 0.6832 -0.7301 -0.0132
vn 0.8805 -0.4733 -0.0248
vn 0.9821 -0.1859 -0.0319
vn 0.9988 0.0025 0.0479
vn 0.9718 0.1962 0.1308
vn 0.8376 0.4730 0.2732
vn 0.6122 0.6850 0.3950
vn 0.3620 0.8040 0.4717
vn 0.1348 0.8485 0.5117
vn -0.0005 0.8634 0.5045
vn -0.1403 0.8644 0.4829
vn -0.3703 0.8125 0.4503
vn -0.6235 0.6888 0.3698
vn -0.8473 0.4703 0.2467
vn -0.9752 0.1903 0.1133
vn -0.9993 -0.0025 0.0364
vn -0.9801 -0.1978 -0.0150
vn -0.8688 -0.4906 -0.0667
vn -0.6634 -0.7423 -0.0944
vn -0.4083 -0.9070 -0.1029
vn -0.1561 -0.9823 -0.1038
vn 0.0006 -0.9950 -0.0998
vn 0.1594 -0.9822 -0.0998
vn 0.4125 -0.9050 -0.1040
vn 0.6681 -0.7380 -0.0949
vn 0.8726 -0.4844 -0.0634
vn 0.9815 -0.1915 -0.0056
vn 0.9971 0.0011 0.0764
vn 0.9574 0.2088 0.1993
vn 0.7837 0.4817 0.3922
vn 0.5368 0.6539 0.5332
vn 0.3035 0.7324 0.6095
vn 0.1121 0.7588 0.6416
vn 0.0013 0.7617 0.6480
vn -0.1097 0.7585 0.6423
vn -0.3007 0.7329 0.6103
vn -0.5348 0.6547 0.5343
vn -0.7831 0.4819 0.3930
vn -0.9572 0.2086 0.2006
vn -0.9971 -0.0011 0.0758
vn -0.9770 -0.2131 -0.0079
vn -0.8483 -0.5213 -0.0932
vn -0.6286 -0.7657 -0.1361
vn -0.3787 -0.9137 -0.1472
vn -0.1447 -0.9789 -0.1443
vn -0.0016 -0.9899 -0.1419
vn 0.1416 -0.9792 -0.1452
vn 0.3754 -0.9149 -0.1482
vn 0.6267 -0.7671 -0.1371
vn 0.8479 -0.5218 -0.0938
vn 0.9770 -0.2129 -0.0075
vn 0.9969 0.0006 0.0781
vn 0.9566 0.2335 0.1743
vn 0.7794 0.5370 0.3228
vn 0.5327 0.7279 0.4316
vn 0.3019 0.8170 0.4913
vn 0.1121 0.8505 0.5138
vn 0.0013 0.8491 0.5282
vn -0.1079 0.8393 0.5329
vn -0.2958 0.8104 0.5056
vn -0.5253 0.7230 0.4488
vn -0.7727 0.5348 0.3419
vn -0.9536 0.2341 0.1893
vn -0.9963 -0.0006 0.0861
vn -0.9714 -0.2371 0.0158
vn -0.8221 -0.5665 -0.0563
vn -0.5881 -0.8036 -0.0920
vn -0.3448 -0.9332 -0.1013
vn -0.1301 -0.9866 -0.0983
vn -0.0015 -0.9952 -0.0983
vn 0.1268 -0.9867 -0.1015
vn 0.3411 -0.9346 -0.1007
vn 0.5853 -0.8056 -0.0914
vn 0.8209 -0.5682 -0.0579
vn 0.9711 -0.2384 0.0111
vn 0.9968 0.0023 0.0797
vn 0.9578 0.2558 0.1311
vn 0.7831 0.5867 0.2060
vn 0.5395 0.8014 0.2584
vn 0.3078 0.9074 0.2861
vn 0.1138 0.9486 0.2954
vn -0.0002 0.9530 0.3031
vn -0.1147 0.9447 0.3071
vn -0.3090 0.9044 0.2943
vn -0.5412 0.7973 0.2672
vn -0.7848 0.5814 0.2147
vn -0.9584 0.2503 0.1371
vn -0.9966 -0.0023 0.0826
vn -0.9653 -0.2578 0.0418
vn -0.8003 -0.5996 -0.0047
vn -0.5582 -0.8291 -0.0326
vn -0.3209 -0.9461 -0.0449
vn -0.1189 -0.9917 -0.0484
vn 0.0002 -0.9988 -0.0492
vn 0.1204 -0.9915 -0.0489
vn 0.3230 -0.9454 -0.0438
vn 0.5613 -0.8270 -0.0312
vn 0.8035 -0.5953 -0.0039
vn 0.9667 -0.2524 0.0413
vn 0.9958 -0.0024 0.0912
vn 0.9583 0.2577 0.1239
vn 0.7833 0.5986 0.1675
vn 0.5396 0.8195 0.1929
vn 0.3086 0.9292 0.2035
vn 0.1154 0.9717 0.2059
vn 0.0014 0.9782 0.2075
vn -0.1112 0.9715 0.2092
vn -0.3031 0.9304 0.2064
vn -0.5332 0.8229 0.1965
vn -0.7776 0.6049 0.1718
vn -0.9555 0.2654 0.1284
vn -0.9957 0.0024 0.0930
vn -0.9638 -0.2592 0.0631
vn -0.7943 -0.6070 0.0241
vn -0.5499 -0.8352 -0.0047
vn -0.3152 -0.9488 -0.0211
vn -0.1179 -0.9926 -0.0284
vn -0.0014 -0.9995 -0.0305
vn 0.1137 -0.9931 -0.0292
vn 0.3097 -0.9506 -0.0210
vn 0.5438 -0.8392 -0.0045
vn 0.7891 -0.6138 0.0239
vn 0.9616 -0.2671 0.0631
vn 0.9920 -0.0083 0.1263
vn 0.9560 0.2517 0.1505
vn 0.7827 0.5957 0.1803
vn 0.5402 0.8193 0.1921
vn 0.3102 0.9308 0.1931
vn 0.1179 0.9745 0.1908
vn 0.0036 0.9819 0.1893
vn -0.1063 0.9759 0.1907
vn -0.2949 0.9356 0.1940
vn -0.5219 0.8306 0.1941
vn -0.7659 0.6160 0.1842
vn -0.9480 0.2767 0.1573
vn -0.9917 0.0083 0.1285
vn -0.9620 -0.2533 0.1022
vn -0.7941 -0.6043 0.0647
vn -0.5501 -0.8345 0.0319
vn -0.3162 -0.9486 0.0105
vn -0.1201 -0.9928 -0.0002
vn -0.0036 -1.0000 -0.0043
vn 0.1083 -0.9941 -0.0028
vn 0.3006 -0.9537 0.0091
vn 0.5318 -0.8463 0.0303
vn 0.7777 -0.6255 0.0629
vn 0.9548 -0.2787 0.1028
vn 0.9803 -0.0073 0.1975
vn 0.9444 0.2506 0.2130
vn 0.7741 0.5919 0.2245
vn 0.5357 0.8161 0.2167
vn 0.3081 0.9294 0.2030
vn 0.1168 0.9744 0.1919
vn 0.0029 0.9820 0.1890
vn -0.1072 0.9752 0.1935
vn -0.2953 0.9331 0.2054
vn -0.5201 0.8252 0.2203
vn -0.7594 0.6088 0.2295
vn -0.9366 0.2716 0.2211
vn -0.9799 0.0073 0.1992
vn -0.9518 -0.2526 0.1740
vn -0.7876 -0.6022 0.1307
vn -0.5467 -0.8329 0.0857
vn -0.3142 -0.9479 0.0526
vn -0.1190 -0.9923 0.0342
vn -0.0029 -0.9996 0.0288
vn 0.1092 -0.9935 0.0336
vn 0.3013 -0.9520 0.0532
vn 0.5312 -0.8428 0.0864
vn 0.7735 -0.6200 0.1316
vn 0.9452 -0.2741 0.1776
vn 0.9562 -0.0072 0.2926
vn 0.9236 0.2395 0.2995
vn 0.7665 0.5727 0.2907
vn 0.5386 0.8021 0.2582
vn 0.3129 0.9231 0.2236
vn 0.1190 0.9726 0.1998
vn 0.0026 0.9814 0.1920
vn -0.1099 0.9738 0.1989
vn -0.3006 0.9270 0.2242
vn -0.5238 0.8113 0.2597
vn -0.7526 0.5893 0.2937
vn -0.9155 0.2594 0.3074
vn -0.9559 0.0072 0.2936
vn -0.9325 -0.2418 0.2684
vn -0.7825 -0.5846 0.2144
vn -0.5513 -0.8210 0.1486
vn -0.3195 -0.9428 0.0955
vn -0.1212 -0.9906 0.0639
vn -0.0027 -0.9985 0.0543
vn 0.1119 -0.9918 0.0623
vn 0.3071 -0.9469 0.0952
vn 0.5364 -0.8308 0.1484
vn 0.7690 -0.6021 0.2149
vn 0.9254 -0.2622 0.2736
vn 0.8996 -0.0100 0.4367
vn 0.8734 0.2116 0.4387
vn 0.7404 0.5231 0.4221
vn 0.5364 0.7571 0.3730
vn 0.3195 0.8922 0.3193
vn 0.1243 0.9512 0.2826
vn 0.0042 0.9640 0.2658
vn -0.1100 0.9558 0.2728
vn -0.3011 0.9004 0.3140
vn -0.5156 0.7733 0.3690
vn -0.7221 0.5485 0.4216
vn -0.8609 0.2392 0.4491
vn -0.8992 0.0099 0.4374
vn -0.8858 -0.2146 0.4115
vn -0.7643 -0.5400 0.3525
vn -0.5572 -0.7864 0.2668
vn -0.3311 -0.9244 0.1893
vn -0.1283 -0.9817 0.1408
vn -0.0043 -0.9925 0.1224
vn 0.1133 -0.9847 0.1324
vn 0.3117 -0.9322 0.1839
vn 0.5354 -0.8030 0.2617
vn 0.7459 -0.5666 0.3501
vn 0.8744 -0.2429 0.4199
vn 0.7363 -0.0099 0.6766
vn 0.7187 0.1621 0.6762
vn 0.6207 0.4121 0.6670
vn 0.4699 0.6242 0.6241
vn 0.2929 0.7688 0.5684
vn 0.1180 0.8417 0.5269
vn 0.0053 0.8655 0.5008
vn -0.1017 0.8568 0.5056
vn -0.2731 0.7839 0.5577
vn -0.4495 0.6461 0.6169
vn -0.6029 0.4394 0.6659
vn -0.6992 0.1880 0.6897
vn -0.7357 0.0099 0.6773
vn -0.7353 -0.1658 0.6571
vn -0.6565 -0.4359 0.6156
vn -0.5078 -0.6745 0.5359
vn -0.3185 -0.8361 0.4467
vn -0.1282 -0.9143 0.3842
vn -0.0057 -0.9363 0.3511
vn 0.1100 -0.9265 0.3599
vn 0.2965 -0.8511 0.4333
vn 0.4858 -0.6983 0.5257
vn 0.6390 -0.4658 0.6121
vn 0.7175 -0.1929 0.6693
vn 0.5165 -0.0070 0.8563
vn 0.5035 0.1068 0.8573
vn 0.4410 0.2762 0.8539
vn 0.3456 0.4333 0.8323
vn 0.2250 0.5573 0.7992
vn 0.0941 0.6318 0.7694
vn 0.0045 0.6586 0.7525
vn -0.0807 0.6463 0.7588
vn -0.2098 0.5712 0.7935
vn -0.3309 0.4512 0.8288
vn -0.4286 0.2965 0.8534
vn -0.4900 0.1254 0.8627
vn -0.5158 0.0070 0.8567
vn -0.5160 -0.1095 0.8495
vn -0.4700 -0.2944 0.8322
vn -0.3809 -0.4777 0.7916
vn -0.2536 -0.6283 0.7355
vn -0.1071 -0.7194 0.6862
vn -0.0051 -0.7508 0.6606
vn 0.0918 -0.7355 0.6712
vn 0.2368 -0.6447 0.7268
vn 0.3659 -0.4988 0.7857
vn 0.4585 -0.3172 0.8301
vn 0.5041 -0.1290 0.8540
vn 0.4349 -0.0060 0.9005
vn 0.4220 0.0819 0.9029
vn 0.3773 0.2170 0.9003
vn 0.3033 0.3497 0.8864
vn 0.2033 0.4633 0.8626
vn 0.0874 0.5402 0.8370
vn 0.0041 0.5630 0.8264
vn -0.0737 0.5451 0.8351
vn -0.1888 0.4743 0.8599
vn -0.2904 0.3656 0.8843
vn -0.3681 0.2353 0.8995
vn -0.4176 0.0991 0.9032
vn -0.4342 0.0060 0.9008
vn -0.4310 -0.0836 0.8985
vn -0.3994 -0.2297 0.8875
vn -0.3322 -0.3830 0.8619
vn -0.2287 -0.5212 0.8222
vn -0.0999 -0.6170 0.7806
vn -0.0047 -0.6454 0.7638
vn 0.0843 -0.6233 0.7774
vn 0.2129 -0.5350 0.8176
vn 0.3194 -0.4021 0.8581
vn 0.3915 -0.2503 0.8855
vn 0.4285 -0.1016 0.8978
vn 0.2858 -0.0112 0.9582
vn 0.2871 0.0389 0.9571
vn 0.2561 0.1172 0.9595
vn 0.2105 0.1975 0.9574
vn 0.1476 0.2703 0.9514
vn 0.0705 0.3182 0.9454
vn 0.0105 0.3526 0.9357
vn -0.0415 0.3557 0.9337
vn -0.1180 0.3042 0.9453
vn -0.1855 0.2347 0.9542
vn -0.2364 0.1539 0.9594
vn -0.2644 0.0701 0.9619
vn -0.2849 0.0112 0.9585
vn -0.2902 -0.0393 0.9562
vn -0.2645 -0.1210 0.9568
vn -0.2224 -0.2086 0.9524
vn -0.1592 -0.2914 0.9433
vn -0.0770 -0.3476 0.9345
vn -0.0116 -0.3886 0.9213
vn 0.0457 -0.3923 0.9187
vn 0.1284 -0.3309 0.9349
vn 0.1980 -0.2505 0.9476
vn 0.2466 -0.1606 0.9557
vn 0.2695 -0.0715 0.9603
vn 0.0000 0.0000 -1.0000
vn 0.0000 0.0000 1.0000
vt 0.5400 -1.1700
vt 0.5389 -1.1488
vt 0.5358 -1.1348
vt 0.5306 -1.1240
vt 0.5235 -1.1163
vt 0.5141 -1.1116
vt 0.5000 -1.1100
vt 0.4859 -1.1116
vt 0.4765 -1.1163
vt 0.4694 -1.1240
vt 0.4642 -1.1348
vt 0.4611 -1.1488
vt 0.4600 -1.1700
vt 0.4611 -1.1912
vt 0.4642 -1.2052
vt 0.4694 -1.2160
vt 0.4765 -1.2237
vt 0.4859 -1.2284
vt 0.5000 -1.2300
vt 0.5141 -1.2284
vt 0.5235 -1.2237
vt 0.5306 -1.2160
vt 0.5358 -1.2052
vt 0.5389 -1.1912
vt 0.5653 -1.1637
vt 0.5636 -1.1376
vt 0.5585 -1.1204
vt 0.5500 -1.1072
vt 0.5383 -1.0976
vt 0.5231 -1.0918
vt 0.5000 -1.0899
vt 0.4769 -1.0918
vt 0.4617 -1.0976
vt 0.4500 -1.1072
vt 0.4415 -1.1204
vt 0.4364 -1.1376
vt 0.4347 -1.1637
vt 0.4364 -1.1898
vt 0.4415 -1.2070
vt 0.4500 -1.2202
vt 0.4617 -1.2298
vt 0.4769 -1.2355
vt 0.5000 -1.2375
vt 0.5231 -1.2355
vt 0.5383 -1.2298
vt 0.5500 -1.2202
vt 0.5585 -1.2070
vt 0.5636 -1.1898
vt 0.5911 -1.1574
vt 0.5887 -1.1263
vt 0.5815 -1.1059
vt 0.5698 -1.0901
vt 0.5534 -1.0788
vt 0.5322 -1.0719
vt 0.5000 -1.0696
vt 0.4678 -1.0719
vt 0.4466 -1.0788
vt 0.4302 -1.0901
vt 0.4185 -1.1059
vt 0.4113 -1.1263
vt 0.4089 -1.1574
vt 0.4113 -1.1884
vt 0.4185 -1.2089
vt 0.4302 -1.2246
vt 0.4466 -1.2360
vt 0.4678 -1.2428
vt 0.5000 -1.2452
vt 0.5322 -1.2428
vt 0.5534 -1.2360
vt 0.5698 -1.2246
vt 0.5815 -1.2089
vt 0.5887 -1.1884
vt 0.6085 -1.1511
vt 0.6057 -1.1162
vt 0.5972 -1.0931
vt 0.5831 -1.0754
vt 0.5637 -1.0627
vt 0.5384 -1.0549
vt 0.5000 -1.0523
vt 0.4616 -1.0549
vt 0.4363 -1.0627
vt 0.4169 -1.0754
vt 0.4028 -1.0931
vt 0.3943 -1.1162
vt 0.3915 -1.1511
vt 0.3943 -1.1860
vt 0.4028 -1.2090
vt 0.4169 -1.2267
vt 0.4363 -1.2394
vt 0.4616 -1.2472
vt 0.5000 -1.2498
vt 0.5384 -1.2472
vt 0.5637 -1.2394
vt 0.5831 -1.2267
vt 0.5972 -1.2090
vt 0.6057 -1.1860
vt 0.6157 -1.1437
vt 0.6127 -1.1062
vt 0.6036 -1.0815
vt 0.5886 -1.0625
vt 0.5679 -1.0488
vt 0.5409 -1.0405
vt 0.5000 -1.0377
vt 0.4591 -1.0405
vt 0.4321 -1.0488
vt 0.4114 -1.0625
vt 0.3964 -1.0815
vt 0.3873 -1.1062
vt 0.3843 -1.1437
vt 0.3873 -1.1812
vt 0.3964 -1.2059
vt 0.4114 -1.2249
vt 0.4321 -1.2386
vt 0.4591 -1.2469
vt 0.5000 -1.2497
vt 0.5409 -1.2469
vt 0.5679 -1.2386
vt 0.5886 -1.2249
vt 0.6036 -1.2059
vt 0.6127 -1.1812
vt 0.6210 -1.1356
vt 0.6179 -1.0959
vt 0.6084 -1.0698
vt 0.5927 -1.0496
vt 0.5710 -1.0351
vt 0.5428 -1.0263
vt 0.5000 -1.0234
vt 0.4572 -1.0263
vt 0.4290 -1.0351
vt 0.4073 -1.0496
vt 0.3916 -1.0698
vt 0.3821 -1.0959
vt 0.3790 -1.1356
vt 0.3821 -1.1753
vt 0.3916 -1.2014
vt 0.4073 -1.2216
vt 0.4290 -1.2361
vt 0.4572 -1.2449
vt 0.5000 -1.2478
vt 0.5428 -1.2449
vt 0.5710 -1.2361
vt 0.5927 -1.2216
vt 0.6084 -1.2014
vt 0.6179 -1.1753
vt 0.6238 -1.1304
vt 0.6205 -1.0895
vt 0.6108 -1.0625
vt 0.5948 -1.0418
vt 0.5726 -1.0268
vt 0.5438 -1.0177
vt 0.5000 -1.0147
vt 0.4562 -1.0177
vt 0.4274 -1.0268
vt 0.4052 -1.0418
vt 0.3892 -1.0625
vt 0.3795 -1.0895
vt 0.3762 -1.1304
vt 0.3795 -1.1713
vt 0.3892 -1.1983
vt 0.4052 -1.2191
vt 0.4274 -1.2340
vt 0.4562 -1.2431
vt 0.5000 -1.2462
vt 0.5438 -1.2431
vt 0.5726 -1.2340
vt 0.5948 -1.2191
vt 0.6108 -1.1983
vt 0.6205 -1.1713
vt 0.6235 -1.1347
vt 0.6202 -1.0949
vt 0.6105 -1.0686
vt 0.5946 -1.0484
vt 0.5724 -1.0339
vt 0.5436 -1.0250
vt 0.5000 -1.0221
vt 0.4564 -1.0250
vt 0.4276 -1.0339
vt 0.4054 -1.0484
vt 0.3895 -1.0686
vt 0.3798 -1.0949
vt 0.3765 -1.1347
vt 0.3798 -1.1745
vt 0.3895 -1.2008
vt 0.4054 -1.2210
vt 0.4276 -1.2356
vt 0.4564 -1.2444
vt 0.5000 -1.2474
vt 0.5436 -1.2444
vt 0.5724 -1.2356
vt 0.5946 -1.2210
vt 0.6105 -1.2008
vt 0.6202 -1.1745
vt 0.6211 -1.1532
vt 0.6179 -1.1180
vt 0.6084 -1.0949
vt 0.5927 -1.0770
vt 0.5710 -1.0642
vt 0.5428 -1.0564
vt 0.5000 -1.0537
vt 0.4572 -1.0564
vt 0.4290 -1.0642
vt 0.4073 -1.0770
vt 0.3916 -1.0949
vt 0.3821 -1.1180
vt 0.3789 -1.1532
vt 0.3821 -1.1884
vt 0.3916 -1.2116
vt 0.4073 -1.2294
vt 0.4290 -1.2423
vt 0.4572 -1.2501
vt 0.5000 -1.2527
vt 0.5428 -1.2501
vt 0.5710 -1.2423
vt 0.5927 -1.2294
vt 0.6084 -1.2116
vt 0.6179 -1.1884
vt 0.6177 -1.1735
vt 0.6146 -1.1434
vt 0.6054 -1.1236
vt 0.5902 -1.1084
vt 0.5691 -1.0975
vt 0.5416 -1.0908
vt 0.5000 -1.0886
vt 0.4584 -1.0908
vt 0.4309 -1.0975
vt 0.4098 -1.1084
vt 0.3946 -1.1236
vt 0.3854 -1.1434
vt 0.3823 -1.1735
vt 0.3854 -1.2035
vt 0.3946 -1.2233
vt 0.4098 -1.2385
vt 0.4309 -1.2495
vt 0.4584 -1.2561
vt 0.5000 -1.2583
vt 0.5416 -1.2561
vt 0.5691 -1.2495
vt 0.5902 -1.2385
vt 0.6054 -1.2233
vt 0.6146 -1.2035
vt 0.6142 -1.1843
vt 0.6112 -1.1572
vt 0.6022 -1.1393
vt 0.5874 -1.1256
vt 0.5670 -1.1156
vt 0.5404 -1.1096
vt 0.5000 -1.1076
vt 0.4596 -1.1096
vt 0.4330 -1.1156
vt 0.4126 -1.1256
vt 0.3978 -1.1393
vt 0.3888 -1.1572
vt 0.3858 -1.1843
vt 0.3888 -1.2115
vt 0.3978 -1.2294
vt 0.4126 -1.2431
vt 0.4330 -1.2530
vt 0.4596 -1.2591
vt 0.5000 -1.2611
vt 0.5404 -1.2591
vt 0.5670 -1.2530
vt 0.5874 -1.2431
vt 0.6022 -1.2294
vt 0.6112 -1.2115
vt 0.6096 -1.1919
vt 0.6068 -1.1666
vt 0.5982 -1.1500
vt 0.5840 -1.1372
vt 0.5643 -1.1280
vt 0.5388 -1.1224
vt 0.5000 -1.1205
vt 0.4612 -1.1224
vt 0.4357 -1.1280
vt 0.4160 -1.1372
vt 0.4018 -1.1500
vt 0.3932 -1.1666
vt 0.3904 -1.1919
vt 0.3932 -1.2171
vt 0.4018 -1.2337
vt 0.4160 -1.2465
vt 0.4357 -1.2557
vt 0.4612 -1.2613
vt 0.5000 -1.2632
vt 0.5388 -1.2613
vt 0.5643 -1.2557
vt 0.5840 -1.2465
vt 0.5982 -1.2337
vt 0.6068 -1.2171
vt 0.6041 -1.1975
vt 0.6014 -1.1739
vt 0.5932 -1.1583
vt 0.5798 -1.1463
vt 0.5611 -1.1377
vt 0.5368 -1.1324
vt 0.5000 -1.1306
vt 0.4632 -1.1324
vt 0.4389 -1.1377
vt 0.4202 -1.1463
vt 0.4068 -1.1583
vt 0.3986 -1.1739
vt 0.3959 -1.1975
vt 0.3986 -1.2211
vt 0.4068 -1.2367
vt 0.4202 -1.2487
vt 0.4389 -1.2574
vt 0.4632 -1.2626
vt 0.5000 -1.2644
vt 0.5368 -1.2626
vt 0.5611 -1.2574
vt 0.5798 -1.2487
vt 0.5932 -1.2367
vt 0.6014 -1.2211
vt 0.5978 -1.2009
vt 0.5952 -1.1788
vt 0.5875 -1.1642
vt 0.5749 -1.1529
vt 0.5574 -1.1448
vt 0.5346 -1.1399
vt 0.5000 -1.1383
vt 0.4654 -1.1399
vt 0.4426 -1.1448
vt 0.4251 -1.1529
vt 0.4125 -1.1642
vt 0.4048 -1.1788
vt 0.4022 -1.2009
vt 0.4048 -1.2231
vt 0.4125 -1.2377
vt 0.4251 -1.2489
vt 0.4426 -1.2570
vt 0.4654 -1.2619
vt 0.5000 -1.2636
vt 0.5346 -1.2619
vt 0.5574 -1.2570
vt 0.5749 -1.2489
vt 0.5875 -1.2377
vt 0.5952 -1.2231
vt 0.5902 -1.2031
vt 0.5878 -1.1822
vt 0.5807 -1.1683
vt 0.5691 -1.1577
vt 0.5529 -1.1500
vt 0.5319 -1.1454
vt 0.5000 -1.1438
vt 0.4681 -1.1454
vt 0.4471 -1.1500
vt 0.4309 -1.1577
vt 0.4193 -1.1683
vt 0.4122 -1.1822
vt 0.4098 -1.2031
vt 0.4122 -1.2241
vt 0.4193 -1.2379
vt 0.4309 -1.2485
vt 0.4471 -1.2562
vt 0.4681 -1.2608
vt 0.5000 -1.2624
vt 0.5319 -1.2608
vt 0.5529 -1.2562
vt 0.5691 -1.2485
vt 0.5807 -1.2379
vt 0.5878 -1.2241
vt 0.5810 -1.2048
vt 0.5788 -1.1850
vt 0.5725 -1.1720
vt 0.5620 -1.1620
vt 0.5475 -1.1548
vt 0.5286 -1.1504
vt 0.5000 -1.1489
vt 0.4714 -1.1504
vt 0.4525 -1.1548
vt 0.4380 -1.1620
vt 0.4275 -1.1720
vt 0.4212 -1.1850
vt 0.4190 -1.2048
vt 0.4212 -1.2245
vt 0.4275 -1.2375
vt 0.4380 -1.2475
vt 0.4525 -1.2548
vt 0.4714 -1.2591
vt 0.5000 -1.2606
vt 0.5286 -1.2591
vt 0.5475 -1.2548
vt 0.5620 -1.2475
vt 0.5725 -1.2375
vt 0.5788 -1.2245
vt 0.5700 -1.2062
vt 0.5682 -1.1882
vt 0.5627 -1.1763
vt 0.5536 -1.1672
vt 0.5411 -1.1606
vt 0.5247 -1.1566
vt 0.5000 -1.1552
vt 0.4753 -1.1566
vt 0.4589 -1.1606
vt 0.4464 -1.1672
vt 0.4373 -1.1763
vt 0.4318 -1.1882
vt 0.4300 -1.2062
vt 0.4318 -1.2243
vt 0.4373 -1.2362
vt 0.4464 -1.2453
vt 0.4589 -1.2519
vt 0.4753 -1.2559
vt 0.5000 -1.2573
vt 0.5247 -1.2559
vt 0.5411 -1.2519
vt 0.5536 -1.2453
vt 0.5627 -1.2362
vt 0.5682 -1.2243
vt 0.5551 -1.2076
vt 0.5537 -1.1926
vt 0.5494 -1.1827
vt 0.5422 -1.1752
vt 0.5323 -1.1697
vt 0.5195 -1.1664
vt 0.5000 -1.1652
vt 0.4805 -1.1664
vt 0.4677 -1.1697
vt 0.4578 -1.1752
vt 0.4506 -1.1827
vt 0.4463 -1.1926
vt 0.4449 -1.2076
vt 0.4463 -1.2226
vt 0.4506 -1.2324
vt 0.4578 -1.2400
vt 0.4677 -1.2455
vt 0.4805 -1.2488
vt 0.5000 -1.2499
vt 0.5195 -1.2488
vt 0.5323 -1.2455
vt 0.5422 -1.2400
vt 0.5494 -1.2324
vt 0.5537 -1.2226
vt 0.5375 -1.2088
vt 0.5365 -1.1978
vt 0.5336 -1.1905
vt 0.5287 -1.1850
vt 0.5220 -1.1810
vt 0.5133 -1.1785
vt 0.5000 -1.1777
vt 0.4867 -1.1785
vt 0.4780 -1.1810
vt 0.4713 -1.1850
vt 0.4664 -1.1905
vt 0.4635 -1.1978
vt 0.4625 -1.2088
vt 0.4635 -1.2198
vt 0.4664 -1.2270
vt 0.4713 -1.2326
vt 0.4780 -1.2366
vt 0.4867 -1.2391
vt 0.5000 -1.2399
vt 0.5133 -1.2391
vt 0.5220 -1.2366
vt 0.5287 -1.2326
vt 0.5336 -1.2270
vt 0.5365 -1.2198
vt 0.5200 -1.2100
vt 0.5195 -1.2029
vt 0.5179 -1.1983
vt 0.5153 -1.1947
vt 0.5117 -1.1921
vt 0.5071 -1.1905
vt 0.5000 -1.1900
vt 0.4929 -1.1905
vt 0.4883 -1.1921
vt 0.4847 -1.1947
vt 0.4821 -1.1983
vt 0.4805 -1.2029
vt 0.4800 -1.2100
vt 0.4805 -1.2171
vt 0.4821 -1.2217
vt 0.4847 -1.2253
vt 0.4883 -1.2279
vt 0.4929 -1.2295
vt 0.5000 -1.2300
vt 0.5071 -1.2295
vt 0.5117 -1.2279
vt 0.5153 -1.2253
vt 0.5179 -1.2217
vt 0.5195 -1.2171
vt 0.5000 -1.1700
vt 0.5000 -1.2100
f 1/1/1 2/2/2 26/26/26
f 1/1/1 26/26/26 25/25/25
f 2/2/2 3/3/3 27/27/27
f 2/2/2 27/27/27 26/26/26
f 3/3/3 4/4/4 28/28/28
f 3/3/3 28/28/28 27/27/27
f 4/4/4 5/5/5 29/29/29
f 4/4/4 29/29/29 28/28/28
f 5/5/5 6/6/6 30/30/30
f 5/5/5 30/30/30 29/29/29
f 6/6/6 7/7/7 31/31/31
f 6/6/6 31/31/31 30/30/30
f 7/7/7 8/8/8 32/32/32
f 7/7/7 32/32/32 31/31/31
f 8/8/8 9/9/9 33/33/33
f 8/8/8 33/33/33 32/32/32
f 9/9/9 10/10/10 34/34/34
f 9/9/9 34/34/34 33/33/33
f 10/10/10 11/11/11 35/35/35
f 10/10/10 35/35/35 34/34/34
f 11/11/11 12/12/12 36/36/36
f 11/11/11 36/36/36 35/35/35
f 12/12/12 13/13/13 37/37/37
f 12/12/12 37/37/37 36/36/36
f 13/13/13 14/14/14 38/38/38
f 13/13/13 38/38/38 37/37/37
f 14/14/14 15/15/15 39/39/39
f 14/14/14 39/39/39 38/38/38
f 15/15/15 16/16/16 40/40/40
f 15/15/15 40/40/40 39/39/39
f 16/16/16 17/17/17 41/41/41
f 16/16/16 41/41/41 40/40/40
f 17/17/17 18/18/18 42/42/42
f 17/17/17 42/42/42 41/41/41
f 18/18/18 19/19/19 43/43/43
f 18/18/18 43/43/43 42/42/42
f 19/19/19 20/20/20 44/44/44
f 19/19/19 44/44/44 43/43/43
f 20/20/20 21/21/21 45/45/45
f 20/20/20 45/45/45 44/44/44
f 21/21/21 22/22/22 46/46/46
f 21/21/21 46/46/46 45/45/45
f 22/22/22 23/23/23 47/47/47
f 22/22/22 47/47/47 46/46/46
f 23/23/23 24/24/24 48/48/48
f 23/23/23 48/48/48 47/47/47
f 24/24/24 1/1/1 25/25/25
f 24/24/24 25/25/25 48/48/48
f 25/25/25 26/26/26 50/50/50
f 25/25/25 50/50/50 49/49/49
f 26/26/26 27/27/27 51/51/51
f 26/26/26 51/51/51 50/50/50
f 27/27/27 28/28/28 52/52/52
f 27/27/27 52/52/52 51/51/51
f 28/28/28 29/29/29 53/53/53
f 28/28/28 53/53/53 52/52/52
f 29/29/29 30/30/30 54/54/54
f 29/29/29 54/54/54 53/53/53
f 30/30/30 31/31/31 55/55/55
f 30/30/30 55/55/55 54/54/54
f 31/31/31 32/32/32 56/56/56
f 31/31/31 56/56/56 55/55/55
f 32/32/32 33/33/33 57/57/57
f 32/32/32 57/57/57 56/56/56
f 33/33/33 34/34/34 58/58/58
f 33/33/33 58/58/58 57/57/57
f 34/34/34 35/35/35 59/59/59
f 34/34/34 59/59/59 58/58/58
f 35/35/35 36/36/36 60/60/60
f 35/35/35 60/60/60 59/59/59
f 36/36/36 37/37/37 61/61/61
f 36/36/36 61/61/61 60/60/60
f 37/37/37 38/38/38 62/62/62
f 37/37/37 62/62/62 61/61/61
f 38/38/38 39/39/39 63/63/63
f 38/38/38 63/63/63 62/62/62
f 39/39/39 40/40/40 64/64/64
f 39/39/39 64/64/64 63/63/63
f 40/40/40 41/41/41 65/65/65
f 40/40/40 65/65/65 64/64/64
f 41/41/41 42/42/42 66/66/66
f 41/41/41 66/66/66 65/65/65
f 42/42/42 43/43/43 67/67/67
f 42/42/42 67/67/67 66/66/66
f 43/43/43 44/44/44 68/68/68
f 43/43/43 68/68/68 67/67/67
f 44/44/44 45/45/45 69/69/69
f 44/44/44 69/69/69 68/68/68
f 45/45/45 46/46/46 70/70/70
f 45/45/45 70/70/70 69/69/69
f 46/46/46 47/47/47 71/71/71
f 46/46/46 71/71/71 70/70/70
f 47/47/47 48/48/48 72/72/72
f 47/47/47 72/72/72 71/71/71
f 48/48/48 25/25/25 49/49/49
f 48/48/48 49/49/49 72/72/72
f 49/49/49 50/50/50 74/74/74
f 49/49/49 74/74/74 73/73/73
f 50/50/50 51/51/51 75/75/75
f 50/50/50 75/75/75 74/74/74
f 51/51/51 52/52/52 76/76/76
f 51/51/51 76/76/76 75/75/75
f 52/52/52 53/53/53 77/77/77
f 52/52/52 77/77/77 76/76/76
f 53/53/53 54/54/54 78/78/78
f 53/53/53 78/78/78 77/77/77
f 54/54/54 55/55/55 79/79/79
f 54/54/54 79/79/79 78/78/78
f 55/55/55 56/56/56 80/80/80
f 55/55/55 80/80/80 79/79/79
f 56/56/56 57/57/57 81/81/81
f 56/56/56 81/81/81 80/80/80
f 57/57/57 58/58/58 82/82/82
f 57/57/57 82/82/82 81/81/81
f 58/58/58 59/59/59 83/83/83
f 58/58/58 83/83/83 82/82/82
f 59/59/59 60/60/60 84/84/84
f 59/59/59 84/84/84 83/83/83
f 60/60/60 61/61/61 85/85/85
f 60/60/60 85/85/85 84/84/84
f 61/61/61 62/62/62 86/86/86
f 61/61/61 86/86/86 85/85/85
f 62/62/62 63/63/63 87/87/87
f 62/62/62 87/87/87 86/86/86
f 63/63/63 64/64/64 88/88/88
f 63/63/63 88/88/88 87/87/87
f 64/64/64 65/65/65 89/89/89
f 64/64/64 89/89/89 88/88/88
f 65/65/65 66/66/66 90/90/90
f 65/65/65 90/90/90 89/89/89
f 66/66/66 67/67/67 91/91/91
f 66/66/66 91/91/91 90/90/90
f 67/67/67 68/68/68 92/92/92
f 67/67/67 92/92/92 91/91/91
f 68/68/68 69/69/69 93/93/93
f 68/68/68 93/93/93 92/92/92
f 69/69/69 70/70/70 94/94/94
f 69/69/69 94/94/94 93/93/93
f 70/70/70 71/71/71 95/95/95
f 70/70/70 95/95/95 94/94/94
f 71/71/71 72/72/72 96/96/96
f 71/71/71 96/96/96 95/95/95
f 72/72/72 49/49/49 73/73/73
f 72/72/72 73/73/73 96/96/96
f 73/73/73 74/74/74 98/98/98
f 73/73/73 98/98/98 97/97/97
f 74/74/74 75/75/75 99/99/99
f 74/74/74 99/99/99 98/98/98
f 75/75/75 76/76/76 100/100/100
f 75/75/75 100/100/100 99/99/99
f 76/76/76 77/77/77 101/101/101
f 76/76/76 101/101/101 100/100/100
f 77/77/77 78/78/78 102/102/102
f 77/77/77 102/102/102 101/101/101
f 78/78/78 79/79/79 103/103/103
f 78/78/78 103/103/103 102/102/102
f 79/79/79 80/80/80 104/104/104
f 79/79/79 104/104/104 103/103/103
f 80/80/80 81/81/81 105/105/105
f 80/80/80 105/105/105 104/104/104
f 81/81/81 82/82/82 106/106/106
f 81/81/81 106/106/106 105/105/105
f 82/82/82 83/83/83 107/107/107
f 82/82/82 107/107/107 106/106/106
f 83/83/83 84/84/84 108/108/108
f 83/83/83 108/108/108 107/107/107
f 84/84/84 85/85/85 109/109/109
f 84/84/84 109/109/109 108/108/108
f 85/85/85 86/86/86 110/110/110
f 85/85/85 110/110/110 109/109/109
f 86/86/86 87/87/87 111/111/111
f 86/86/86 111/111/111 110/110/110
f 87/87/87 88/88/88 112/112/112
f 87/87/87 112/112/112 111/111/111
f 88/88/88 89/89/89 113/113/113
f 88/88/88 113/113/113 112/112/112
f 89/89/89 90/90/90 114/114/114
f 89/89/89 114/114/114 113/113/113
f 90/90/90 91/91/91 115/115/115
f 90/90/90 115/115/115 114/114/114
f 91/91/91 92/92/92 116/116/116
f 91/91/91 116/116/116 115/115/115
f 92/92/92 93/93/93 117/117/117
f 92/92/92 117/117/117 116/116/116
f 93/93/93 94/94/94 118/118/118
f 93/93/93 118/118/118 117/117/117
f 94/94/94 95/95/95 119/119/119
f 94/94/94 119/119/119 118/118/118
f 95/95/95 96/96/96 120/120/120
f 95/95/95 120/120/120 119/119/119
f 96/96/96 73/73/73 97/97/97
f 96/96/96 97/97/97 120/120/120
f 97/97/97 98/98/98 122/122/122
f 97/97/97 122/122/122 121/121/121
f 98/98/98 99/99/99 123/123/123
f 98/98/98 123/123/123 122/122/122
f 99/99/99 100/100/100 124/124/124
f 99/99/99 124/124/124 123/123/123
f 100/100/100 101/101/101 125/125/125
f 100/100/100 125/125/125 124/124/124
f 101/101/101 102/102/102 126/126/126
f 101/101/101 126/126/126 125/125/125
f 102/102/102 103/103/103 127/127/127
f 102/102/102 127/127/127 126/126/126
f 103/103/103 104/104/104 128/128/128
f 103/103/103 128/128/128 127/127/127
f 104/104/104 105/105/105 129/129/129
f 104/104/104 129/129/129 128/128/128
f 105/105/105 106/106/106 130/130/130
f 105/105/105 130/130/130 129/129/129
f 106/106/106 107/107/107 131/131/131
f 106/106/106 131/131/131 130/130/130
f 107/107/107 108/108/108 132/132/132
f 107/107/107 132/132/132 131/131/131
f 108/108/108 109/109/109 133/133/133
f 108/108/108 133/133/133 132/132/132
f 109/109/109 110/110/110 134/134/134
f 109/109/109 134/134/134 133/133/133
f 110/110/110 111/111/111 135/135/135
f 110/110/110 135/135/135 134/134/134
f 111/111/111 112/112/112 136/136/136
f 111/111/111 136/136/136 135/135/135
f 112/112/112 113/113/113 137/137/137
f 112/112/112 137/137/137 136/136/136
f 113/113/113 114/114/114 138/138/138
f 113/113/113 138/138/138 137/137/137
f 114/114/114 115/115/115 139/139/139
f 114/114/114 139/139/139 138/138/138
f 115/115/115 116/116/116 140/140/140
f 115/115/115 140/140/140 139/139/139
f 116/116/116 117/117/117 141/141/141
f 116/116/116 141/141/141 140/140/140
f 117/117/117 118/118/118 142/142/142
f 117/117/117 142/142/142 141/141/141
f 118/118/118 119/119/119 143/143/143
f 118/118/118 143/143/143 142/142/142
f 119/119/119 120/120/120 144/144/144
f 119/119/119 144/144/144 143/143/143
f 120/120/120 97/97/97 121/121/121
f 120/120/120 121/121/121 144/144/144
f 121/121/121 122/122/122 146/146/146
f 121/121/121 146/146/146 145/145/145
f 122/122/122 123/123/123 147/147/147
f 122/122/122 147/147/147 146/146/146
f 123/123/123 124/124/124 148/148/148
f 123/123/123 148/148/148 147/147/147
f 124/124/124 125/125/125 149/149/149
f 124/124/124 149/149/149 148/148/148
f 125/125/125 126/126/126 150/150/150
f 125/125/125 150/150/150 149/149/149
f 126/126/126 127/127/127 151/151/151
f 126/126/126 151/151/151 150/150/150
f 127/127/127 128/128/128 152/152/152
f 127/127/127 152/152/152 151/151/151
f 128/128/128 129/129/129 153/153/153
f 128/128/128 153/153/153 152/152/152
f 129/129/129 130/130/130 154/154/154
f 129/129/129 154/154/154 153/153/153
f 130/130/130 131/131/131 155/155/155
f 130/130/130 155/155/155 154/154/154
f 131/131/131 132/132/132 156/156/156
f 131/131/131 156/156/156 155/155/155
f 132/132/132 133/133/133 157/157/157
f 132/132/132 157/157/157 156/156/156
f 133/133/133 134/134/134 158/158/158
f 133/133/133 158/158/158 157/157/157
f 134/134/134 135/135/135 159/159/159
f 134/134/134 159/159/159 158/158/158
f 135/135/135 136/136/136 160/160/160
f 135/135/135 160/160/160 159/159/159
f 136/136/136 137/137/137 161/161/161
f 136/136/136 161/161/161 160/160/160
f 137/137/137 138/138/138 162/162/162
f 137/137/137 162/162/162 161/161/161
f 138/138/138 139/139/139 163/163/163
f 138/138/138 163/163/163 162/162/162
f 139/139/139 140/140/140 164/164/164
f 139/139/139 164/164/164 163/163/163
f 140/140/140 141/141/141 165/165/165
f 140/140/140 165/165/165 164/164/164
f 141/141/141 142/142/142 166/166/166
f 141/141/141 166/166/166 165/165/165
f 142/142/142 143/143/143 167/167/167
f 142/142/142 167/167/167 166/166/166
f 143/143/143 144/144/144 168/168/168
f 143/143/143 168/168/168 167/167/167
f 144/144/144 121/121/121 145/145/145
f 144/144/144 145/145/145 168/168/168
f 145/145/145 146/146/146 170/170/170
f 145/145/145 170/170/170 169/169/169
f 146/146/146 147/147/147 171/171/171
f 146/146/146 171/171/171 170/170/170
f 147/147/147 148/148/148 172/172/172
f 147/147/147 172/172/172 171/171/171
f 148/148/148 149/149/149 173/173/173
f 148/148/148 173/173/173 172/172/172
f 149/149/149 150/150/150 174/174/174
f 149/149/149 174/174/174 173/173/173
f 150/150/150 151/151/151 175/175/175
f 150/150/150 175/175/175 174/174/174
f 151/151/151 152/152/152 176/176/176
f 151/151/151 176/176/176 175/175/175
f 152/152/152 153/153/153 177/177/177
f 152/152/152 177/177/177 176/176/176
f 153/153/153 154/154/154 178/178/178
f 153/153/153 178/178/178 177/177/177
f 154/154/154 155/155/155 179/179/179
f 154/154/154 179/179/179 178/178/178
f 155/155/155 156/156/156 180/180/180
f 155/155/155 180/180/180 179/179/179
f 156/156/156 157/157/157 181/181/181
f 156/156/156 181/181/181 180/180/180
f 157/157/157 158/158/158 182/182/182
f 157/157/157 182/182/182 181/181/181
f 158/158/158 159/159/159 183/183/183
f 158/158/158 183/183/183 182/182/182
f 159/159/159 160/160/160 184/184/184
f 159/159/159 184/184/184 183/183/183
f 160/160/160 161/161/161 185/185/185
f 160/160/160 185/185/185 184/184/184
f 161/161/161 162/162/162 186/186/186
f 161/161/161 186/186/186 185/185/185
f 162/162/162 163/163/163 187/187/187
f 162/162/162 187/187/187 186/186/186
f 163/163/163 164/164/164 188/188/188
f 163/163/163 188/188/188 187/187/187
f 164/164/164 165/165/165 189/189/189
f 164/164/164 189/189/189 188/188/188
f 165/165/165 166/166/166 190/190/190
f 165/165/165 190/190/190 189/189/189
f 166/166/166 167/167/167 191/191/191
f 166/166/166 191/191/191 190/190/190
f 167/167/167 168/168/168 192/192/192
f 167/167/167 192/192/192 191/191/191
f 168/168/168 145/145/145 169/169/169
f 168/168/168 169/169/169 192/192/192
f 169/169/169 170/170/170 194/194/194
f 169/169/169 194/194/194 193/193/193
f 170/170/170 171/171/171 195/195/195
f 170/170/170 195/195/195 194/194/194
f 171/171/171 172/172/172 196/196/196
f 171/171/171 196/196/196 195/195/195
f 172/172/172 173/173/173 197/197/197
f 172/172/172 197/197/197 196/196/196
f 173/173/173 174/174/174 198/198/198
f 173/173/173 198/198/198 197/197/197
f 174/174/174 175/175/175 199/199/199
f 174/174/174 199/199/199 198/198/198
f 175/175/175 176/176/176 200/200/200
f 175/175/175 200/200/200 199/199/199
f 176/176/176 177/177/177 201/201/201
f 176/176/176 201/201/201 200/200/200
f 177/177/177 178/178/178 202/202/202
f 177/177/177 202/202/202 201/201/201
f 178/178/178 179/179/179 203/203/203
f 178/178/178 203/203/203 202/202/202
f 179/179/179 180/180/180 204/204/204
f 179/179/179 204/204/204 203/203/203
f 180/180/180 181/181/181 205/205/205
f 180/180/180 205/205/205 204/204/204
f 181/181/181 182/182/182 206/206/206
f 181/181/181 206/206/206 205/205/205
f 182/182/182 183/183/183 207/207/207
f 182/182/182 207/207/207 206/206/206
f 183/183/183 184/184/184 208/208/208
f 183/183/183 208/208/208 207/207/207
f 184/184/184 185/185/185 209/209/209
f 184/184/184 209/209/209 208/208/208
f 185/185/185 186/186/186 210/210/210
f 185/185/185 210/210/210 209/209/209
f 186/186/186 187/187/187 211/211/211
f 186/186/186 211/211/211 210/210/210
f 187/187/187 188/188/188 212/212/212
f 187/187/187 212/212/212 211/211/211
f 188/188/188 189/189/189 213/213/213
f 188/188/188 213/213/213 212/212/212
f 189/189/189 190/190/190 214/214/214
f 189/189/189 214/214/214 213/213/213
f 190/190/190 191/191/191 215/215/215
f 190/190/190 215/215/215 214/214/214
f 191/191/191 192/192/192 216/216/216
f 191/191/191 216/216/216 215/215/215
f 192/192/192 169/169/169 193/193/193
f 192/192/192 193/193/193 216/216/216
f 193/193/193 194/194/194 218/218/218
f 193/193/193 218/218/218 217/217/217
f 194/194/194 195/195/195 219/219/219
f 194/194/194 219/219/219 218/218/218
f 195/195/195 196/196/196 220/220/220
f 195/195/195 220/220/220 219/219/219
f 196/196/196 197/197/197 221/221/221
f 196/196/196 221/221/221 220/220/220
f 197/197/197 198/198/198 222/222/222
f 197/197/197 222/222/222 221/221/221
f 198/198/198 199/199/199 223/223/223
f 198/198/198 223/223/223 222/222/222
f 199/199/199 200/200/200 224/224/224
f 199/199/199 224/224/224 223/223/223
f 200/200/200 201/201/201 225/225/225
f 200/200/200 225/225/225 224/224/224
f 201/201/201 202/202/202 226/226/226
f 201/201/201 226/226/226 225/225/225
f 202/202/202 203/203/203 227/227/227
f 202/202/202 227/227/227 226/226/226
f 203/203/203 204/204/204 228/228/228
f 203/203/203 228/228/228 227/227/227
f 204/204/204 205/205/205 229/229/229
f 204/204/204 229/229/229 228/228/228
f 205/205/205 206/206/206 230/230/230
f 205/205/205 230/230/230 229/229/229
f 206/206/206 207/207/207 231/231/231
f 206/206/206 231/231/231 230/230/230
f 207/207/207 208/208/208 232/232/232
f 207/207/207 232/232/232 231/231/231
f 208/208/208 209/209/209 233/233/233
f 208/208/208 233/233/233 232/232/232
f 209/209/209 210/210/210 234/234/234
f 209/209/209 234/234/234 233/233/233
f 210/210/210 211/211/211 235/235/235
f 210/210/210 235/235/235 234/234/234
f 211/211/211 212/212/212 236/236/236
f 211/211/211 236/236/236 235/235/235
f 212/212/212 213/213/213 237/237/237
f 212/212/212 237/237/237 236/236/236
f 213/213/213 214/214/214 238/238/238
f 213/213/213 238/238/238 237/237/237
f 214/214/214 215/215/215 239/239/239
f 214/214/214 239/239/239 238/238/238
f 215/215/215 216/216/216 240/240/240
f 215/215/215 240/240/240 239/239/239
f 216/216/216 193/193/193 217/217/217
f 216/216/216 217/217/217 240/240/240
f 217/217/217 218/218/218 242/242/242
f 217/217/217 242/242/242 241/241/241
f 218/218/218 219/219/219 243/243/243
f 218/218/218 243/243/243 242/242/242
f 219/219/219 220/220/220 244/244/244
f 219/219/219 244/244/244 243/243/243
f 220/220/220 221/221/221 245/245/245
f 220/220/220 245/245/245 244/244/244
f 221/221/221 222/222/222 246/246/246
f 221/221/221 246/246/246 245/245/245
f 222/222/222 223/223/223 247/247/247
f 222/222/222 247/247/247 246/246/246
f 223/223/223 224/224/224 248/248/248
f 223/223/223 248/248/248 247/247/247
f 224/224/224 225/225/225 249/249/249
f 224/224/224 249/249/249 248/248/248
f 225/225/225 226/226/226 250/250/250
f 225/225/225 250/250/250 249/249/249
f 226/226/226 227/227/227 251/251/251
f 226/226/226 251/251/251 250/250/250
f 227/227/227 228/228/228 252/252/252
f 227/227/227 252/252/252 251/251/251
f 228/228/228 229/229/229 253/253/253
f 228/228/228 253/253/253 252/252/252
f 229/229/229 230/230/230 254/254/254
f 229/229/229 254/254/254 253/253/253
f 230/230/230 231/231/231 255/255/255
f 230/230/230 255/255/255 254/254/254
f 231/231/231 232/232/232 256/256/256
f 231/231/231 256/256/256 255/255/255
f 232/232/232 233/233/233 257/257/257
f 232/232/232 257/257/257 256/256/256
f 233/233/233 234/234/234 258/258/258
f 233/233/233 258/258/258 257/257/257
f 234/234/234 235/235/235 259/259/259
f 234/234/234 259/259/259 258/258/258
f 235/235/235 236/236/236 260/260/260
f 235/235/235 260/260/260 259/259/259
f 236/236/236 237/237/237 261/261/261
f 236/236/236 261/261/261 260/260/260
f 237/237/237 238/238/238 262/262/262
f 237/237/237 262/262/262 261/261/261
f 238/238/238 239/239/239 263/263/263
f 238/238/238 263/263/263 262/262/262
f 239/239/239 240/240/240 264/264/264
f 239/239/239 264/264/264 263/263/263
f 240/240/240 217/217/217 241/241/241
f 240/240/240 241/241/241 264/264/264
f 241/241/241 242/242/242 266/266/266
f 241/241/241 266/266/266 265/265/265
f 242/242/242 243/243/243 267/267/267
f 242/242/242 267/267/267 266/266/266
f 243/243/243 244/244/244 268/268/268
f 243/243/243 268/268/268 267/267/267
f 244/244/244 245/245/245 269/269/269
f 244/244/244 269/269/269 268/268/268
f 245/245/245 246/246/246 270/270/270
f 245/245/245 270/270/270 269/269/269
f 246/246/246 247/247/247 271/271/271
f 246/246/246 271/271/271 270/270/270
f 247/247/247 248/248/248 272/272/272
f 247/247/247 272/272/272 271/271/271
f 248/248/248 249/249/249 273/273/273
f 248/248/248 273/273/273 272/272/272
f 249/249/249 250/250/250 274/274/274
f 249/249/249 274/274/274 273/273/273
f 250/250/250 251/251/251 275/275/275
f 250/250/250 275/275/275 274/274/274
f 251/251/251 252/252/252 276/276/276
f 251/251/251 276/276/276 275/275/275
f 252/252/252 253/253/253 277/277/277
f 252/252/252 277/277/277 276/276/276
f 253/253/253 254/254/254 278/278/278
f 253/253/253 278/278/278 277/277/277
f 254/254/254 255/255/255 279/279/279
f 254/254/254 279/279/279 278/278/278
f 255/255/255 256/256/256 280/280/280
f 255/255/255 280/280/280 279/279/279
f 256/256/256 257/257/257 281/281/281
f 256/256/256 281/281/281 280/280/280
f 257/257/257 258/258/258 282/282/282
f 257/257/257 282/282/282 281/281/281
f 258/258/258 259/259/259 283/283/283
f 258/258/258 283/283/283 282/282/282
f 259/259/259 260/260/260 284/284/284
f 259/259/259 284/284/284 283/283/283
f 260/260/260 261/261/261 285/285/285
f 260/260/260 285/285/285 284/284/284
f 261/261/261 262/262/262 286/286/286
f 261/261/261 286/286/286 285/285/285
f 262/262/262 263/263/263 287/287/287
f 262/262/262 287/287/287 286/286/286
f 263/263/263 264/264/264 288/288/288
f 263/263/263 288/288/288 287/287/287
f 264/264/264 241/241/241 265/265/265
f 264/264/264 265/265/265 288/288/288
f 265/265/265 266/266/266 290/290/290
f 265/265/265 290/290/290 289/289/289
f 266/266/266 267/267/267 291/291/291
f 266/266/266 291/291/291 290/290/290
f 267/267/267 268/268/268 292/292/292
f 267/267/267 292/292/292 291/291/291
f 268/268/268 269/269/269 293/293/293
f 268/268/268 293/293/293 292/292/292
f 269/269/269 270/270/270 294/294/294
f 269/269/269 294/294/294 293/293/293
f 270/270/270 271/271/271 295/295/295
f 270/270/270 295/295/295 294/294/294
f 271/271/271 272/272/272 296/296/296
f 271/271/271 296/296/296 295/295/295
f 272/272/272 273/273/273 297/297/297
f 272/272/272 297/297/297 296/296/296
f 273/273/273 274/274/274 298/298/298
f 273/273/273 298/298/298 297/297/297
f 274/274/274 275/275/275 299/299/299
f 274/274/274 299/299/299 298/298/298
f 275/275/275 276/276/276 300/300/300
f 275/275/275 300/300/300 299/299/299
f 276/276/276 277/277/277 301/301/301
f 276/276/276 301/301/301 300/300/300
f 277/277/277 278/278/278 302/302/302
f 277/277/277 302/302/302 301/301/301
f 278/278/278 279/279/279 303/303/303
f 278/278/278 303/303/303 302/302/302
f 279/279/279 280/280/280 304/304/304
f 279/279/279 304/304/304 303/303/303
f 280/280/280 281/281/281 305/305/305
f 280/280/280 305/305/305 304/304/304
f 281/281/281 282/282/282 306/306/306
f 281/281/281 306/306/306 305/305/305
f 282/282/282 283/283/283 307/307/307
f 282/282/282 307/307/307 306/306/306
f 283/283/283 284/284/284 308/308/308
f 283/283/283 308/308/308 307/307/307
f 284/284/284 285/285/285 309/309/309
f 284/284/284 309/309/309 308/308/308
f 285/285/285 286/286/286 310/310/310
f 285/285/285 310/310/310 309/309/309
f 286/286/286 287/287/287 311/311/311
f 286/286/286 311/311/311 310/310/310
f 287/287/287 288/288/288 312/312/312
f 287/287/287 312/312/312 311/311/311
f 288/288/288 265/265/265 289/289/289
f 288/288/288 289/289/289 312/312/312
f 289/289/289 290/290/290 314/314/314
f 289/289/289 314/314/314 313/313/313
f 290/290/290 291/291/291 315/315/315
f 290/290/290 315/315/315 314/314/314
f 291/291/291 292/292/292 316/316/316
f 291/291/291 316/316/316 315/315/315
f 292/292/292 293/293/293 317/317/317
f 292/292/292 317/317/317 316/316/316
f 293/293/293 294/294/294 318/318/318
f 293/293/293 318/318/318 317/317/317
f 294/294/294 295/295/295 319/319/319
f 294/294/294 319/319/319 318/318/318
f 295/295/295 296/296/296 320/320/320
f 295/295/295 320/320/320 319/319/319
f 296/296/296 297/297/297 321/321/321
f 296/296/296 321/321/321 320/320/320
f 297/297/297 298/298/298 322/322/322
f 297/297/297 322/322/322 321/321/321
f 298/298/298 299/299/299 323/323/323
f 298/298/298 323/323/323 322/322/322
f 299/299/299 300/300/300 324/324/324
f 299/299/299 324/324/324 323/323/323
f 300/300/300 301/301/301 325/325/325
f 300/300/300 325/325/325 324/324/324
f 301/301/301 302/302/302 326/326/326
f 301/301/301 326/326/326 325/325/325
f 302/302/302 303/303/303 327/327/327
f 302/302/302 327/327/327 326/326/326
f 303/303/303 304/304/304 328/328/328
f 303/303/303 328/328/328 327/327/327
f 304/304/304 305/305/305 329/329/329
f 304/304/304 329/329/329 328/328/328
f 305/305/305 306/306/306 330/330/330
f 305/305/305 330/330/330 329/329/329
f 306/306/306 307/307/307 331/331/331
f 306/306/306 331/331/331 330/330/330
f 307/307/307 308/308/308 332/332/332
f 307/307/307 332/332/332 331/331/331
f 308/308/308 309/309/309 333/333/333
f 308/308/308 333/333/333 332/332/332
f 309/309/309 310/310/310 334/334/334
f 309/309/309 334/334/334 333/333/333
f 310/310/310 311/311/311 335/335/335
f 310/310/310 335/335/335 334/334/334
f 311/311/311 312/312/312 336/336/336
f 311/311/311 336/336/336 335/335/335
f 312/312/312 289/289/289 313/313/313
f 312/312/312 313/313/313 336/336/336
f 313/313/313 314/314/314 338/338/338
f 313/313/313 338/338/338 337/337/337
f 314/314/314 315/315/315 339/339/339
f 314/314/314 339/339/339 338/338/338
f 315/315/315 316/316/316 340/340/340
f 315/315/315 340/340/340 339/339/339
f 316/316/316 317/317/317 341/341/341
f 316/316/316 341/341/341 340/340/340
f 317/317/317 318/318/318 342/342/342
f 317/317/317 342/342/342 341/341/341
f 318/318/318 319/319/319 343/343/343
f 318/318/318 343/343/343 342/342/342
f 319/319/319 320/320/320 344/344/344
f 319/319/319 344/344/344 343/343/343
f 320/320/320 321/321/321 345/345/345
f 320/320/320 345/345/345 344/344/344
f 321/321/321 322/322/322 346/346/346
f 321/321/321 346/346/346 345/345/345
f 322/322/322 323/323/323 347/347/347
f 322/322/322 347/347/347 346/346/346
f 323/323/323 324/324/324 348/348/348
f 323/323/323 348/348/348 347/347/347
f 324/324/324 325/325/325 349/349/349
f 324/324/324 349/349/349 348/348/348
f 325/325/325 326/326/326 350/350/350
f 325/325/325 350/350/350 349/349/349
f 326/326/326 327/327/327 351/351/351
f 326/326/326 351/351/351 350/350/350
f 327/327/327 328/328/328 352/352/352
f 327/327/327 352/352/352 351/351/351
f 328/328/328 329/329/329 353/353/353
f 328/328/328 353/353/353 352/352/352
f 329/329/329 330/330/330 354/354/354
f 329/329/329 354/354/354 353/353/353
f 330/330/330 331/331/331 355/355/355
f 330/330/330 355/355/355 354/354/354
f 331/331/331 332/332/332 356/356/356
f 331/331/331 356/356/356 355/355/355
f 332/332/332 333/333/333 357/357/357
f 332/332/332 357/357/357 356/356/356
f 333/333/333 334/334/334 358/358/358
f 333/333/333 358/358/358 357/357/357
f 334/334/334 335/335/335 359/359/359
f 334/334/334 359/359/359 358/358/358
f 335/335/335 336/336/336 360/360/360
f 335/335/335 360/360/360 359/359/359
f 336/336/336 313/313/313 337/337/337
f 336/336/336 337/337/337 360/360/360
f 337/337/337 338/338/338 362/362/362
f 337/337/337 362/362/362 361/361/361
f 338/338/338 339/339/339 363/363/363
f 338/338/338 363/363/363 362/362/362
f 339/339/339 340/340/340 364/364/364
f 339/339/339 364/364/364 363/363/363
f 340/340/340 341/341/341 365/365/365
f 340/340/340 365/365/365 364/364/364
f 341/341/341 342/342/342 366/366/366
f 341/341/341 366/366/366 365/365/365
f 342/342/342 343/343/343 367/367/367
f 342/342/342 367/367/367 366/366/366
f 343/343/343 344/344/344 368/368/368
f 343/343/343 368/368/368 367/367/367
f 344/344/344 345/345/345 369/369/369
f 344/344/344 369/369/369 368/368/368
f 345/345/345 346/346/346 370/370/370
f 345/345/345 370/370/370 369/369/369
f 346/346/346 347/347/347 371/371/371
f 346/346/346 371/371/371 370/370/370
f 347/347/347 348/348/348 372/372/372
f 347/347/347 372/372/372 371/371/371
f 348/348/348 349/349/349 373/373/373
f 348/348/348 373/373/373 372/372/372
f 349/349/349 350/350/350 374/374/374
f 349/349/349 374/374/374 373/373/373
f 350/350/350 351/351/351 375/375/375
f 350/350/350 375/375/375 374/374/374
f 351/351/351 352/352/352 376/376/376
f 351/351/351 376/376/376 375/375/375
f 352/352/352 353/353/353 377/377/377
f 352/352/352 377/377/377 376/376/376
f 353/353/353 354/354/354 378/378/378
f 353/353/353 378/378/378 377/377/377
f 354/354/354 355/355/355 379/379/379
f 354/354/354 379/379/379 378/378/378
f 355/355/355 356/356/356 380/380/380
f 355/355/355 380/380/380 379/379/379
f 356/356/356 357/357/357 381/381/381
f 356/356/356 381/381/381 380/380/380
f 357/357/357 358/358/358 382/382/382
f 357/357/357 382/382/382 381/381/381
f 358/358/358 359/359/359 383/383/383
f 358/358/358 383/383/383 382/382/382
f 359/359/359 360/360/360 384/384/384
f 359/359/359 384/384/384 383/383/383
f 360/360/360 337/337/337 361/361/361
f 360/360/360 361/361/361 384/384/384
f 361/361/361 362/362/362 386/386/386
f 361/361/361 386/386/386 385/385/385
f 362/362/362 363/363/363 387/387/387
f 362/362/362 387/387/387 386/386/386
f 363/363/363 364/364/364 388/388/388
f 363/363/363 388/388/388 387/387/387
f 364/364/364 365/365/365 389/389/389
f 364/364/364 389/389/389 388/388/388
f 365/365/365 366/366/366 390/390/390
f 365/365/365 390/390/390 389/389/389
f 366/366/366 367/367/367 391/391/391
f 366/366/366 391/391/391 390/390/390
f 367/367/367 368/368/368 392/392/392
f 367/367/367 392/392/392 391/391/391
f 368/368/368 369/369/369 393/393/393
f 368/368/368 393/393/393 392/392/392
f 369/369/369 370/370/370 394/394/394
f 369/369/369 394/394/394 393/393/393
f 370/370/370 371/371/371 395/395/395
f 370/370/370 395/395/395 394/394/394
f 371/371/371 372/372/372 396/396/396
f 371/371/371 396/396/396 395/395/395
f 372/372/372 373/373/373 397/397/397
f 372/372/372 397/397/397 396/396/396
f 373/373/373 374/374/374 398/398/398
f 373/373/373 398/398/398 397/397/397
f 374/374/374 375/375/375 399/399/399
f 374/374/374 399/399/399 398/398/398
f 375/375/375 376/376/376 400/400/400
f 375/375/375 400/400/400 399/399/399
f 376/376/376 377/377/377 401/401/401
f 376/376/376 401/401/401 400/400/400
f 377/377/377 378/378/378 402/402/402
f 377/377/377 402/402/402 401/401/401
f 378/378/378 379/379/379 403/403/403
f 378/378/378 403/403/403 402/402/402
f 379/379/379 380/380/380 404/404/404
f 379/379/379 404/404/404 403/403/403
f 380/380/380 381/381/381 405/405/405
f 380/380/380 405/405/405 404/404/404
f 381/381/381 382/382/382 406/406/406
f 381/381/381 406/406/406 405/405/405
f 382/382/382 383/383/383 407/407/407
f 382/382/382 407/407/407 406/406/406
f 383/383/383 384/384/384 408/408/408
f 383/383/383 408/408/408 407/407/407
f 384/384/384 361/361/361 385/385/385
f 384/384/384 385/385/385 408/408/408
f 385/385/385 386/386/386 410/410/410
f 385/385/385 410/410/410 409/409/409
f 386/386/386 387/387/387 411/411/411
f 386/386/386 411/411/411 410/410/410
f 387/387/387 388/388/388 412/412/412
f 387/387/387 412/412/412 411/411/411
f 388/388/388 389/389/389 413/413/413
f 388/388/388 413/413/413 412/412/412
f 389/389/389 390/390/390 414/414/414
f 389/389/389 414/414/414 413/413/413
f 390/390/390 391/391/391 415/415/415
f 390/390/390 415/415/415 414/414/414
f 391/391/391 392/392/392 416/416/416
f 391/391/391 416/416/416 415/415/415
f 392/392/392 393/393/393 417/417/417
f 392/392/392 417/417/417 416/416/416
f 393/393/393 394/394/394 418/418/418
f 393/393/393 418/418/418 417/417/417
f 394/394/394 395/395/395 419/419/419
f 394/394/394 419/419/419 418/418/418
f 395/395/395 396/396/396 420/420/420
f 395/395/395 420/420/420 419/419/419
f 396/396/396 397/397/397 421/421/421
f 396/396/396 421/421/421 420/420/420
f 397/397/397 398/398/398 422/422/422
f 397/397/397 422/422/422 421/421/421
f 398/398/398 399/399/399 423/423/423
f 398/398/398 423/423/423 422/422/422
f 399/399/399 400/400/400 424/424/424
f 399/399/399 424/424/424 423/423/423
f 400/400/400 401/401/401 425/425/425
f 400/400/400 425/425/425 424/424/424
f 401/401/401 402/402/402 426/426/426
f 401/401/401 426/426/426 425/425/425
f 402/402/402 403/403/403 427/427/427
f 402/402/402 427/427/427 426/426/426
f 403/403/403 404/404/404 428/428/428
f 403/403/403 428/428/428 427/427/427
f 404/404/404 405/405/405 429/429/429
f 404/404/404 429/429/429 428/428/428
f 405/405/405 406/406/406 430/430/430
f 405/405/405 430/430/430 429/429/429
f 406/406/406 407/407/407 431/431/431
f 406/406/406 431/431/431 430/430/430
f 407/407/407 408/408/408 432/432/432
f 407/407/407 432/432/432 431/431/431
f 408/408/408 385/385/385 409/409/409
f 408/408/408 409/409/409 432/432/432
f 409/409/409 410/410/410 434/434/434
f 409/409/409 434/434/434 433/433/433
f 410/410/410 411/411/411 435/435/435
f 410/410/410 435/435/435 434/434/434
f 411/411/411 412/412/412 436/436/436
f 411/411/411 436/436/436 435/435/435
f 412/412/412 413/413/413 437/437/437
f 412/412/412 437/437/437 436/436/436
f 413/413/413 414/414/414 438/438/438
f 413/413/413 438/438/438 437/437/437
f 414/414/414 415/415/415 439/439/439
f 414/414/414 439/439/439 438/438/438
f 415/415/415 416/416/416 440/440/440
f 415/415/415 440/440/440 439/439/439
f 416/416/416 417/417/417 441/441/441
f 416/416/416 441/441/441 440/440/440
f 417/417/417 418/418/418 442/442/442
f 417/417/417 442/442/442 441/441/441
f 418/418/418 419/419/419 443/443/443
f 418/418/418 443/443/443 442/442/442
f 419/419/419 420/420/420 444/444/444
f 419/419/419 444/444/444 443/443/443
f 420/420/420 421/421/421 445/445/445
f 420/420/420 445/445/445 444/444/444
f 421/421/421 422/422/422 446/446/446
f 421/421/421 446/446/446 445/445/445
f 422/422/422 423/423/423 447/447/447
f 422/422/422 447/447/447 446/446/446
f 423/423/423 424/424/424 448/448/448
f 423/423/423 448/448/448 447/447/447
f 424/424/424 425/425/425 449/449/449
f 424/424/424 449/449/449 448/448/448
f 425/425/425 426/426/426 450/450/450
f 425/425/425 450/450/450 449/449/449
f 426/426/426 427/427/427 451/451/451
f 426/426/426 451/451/451 450/450/450
f 427/427/427 428/428/428 452/452/452
f 427/427/427 452/452/452 451/451/451
f 428/428/428 429/429/429 453/453/453
f 428/428/428 453/453/453 452/452/452
f 429/429/429 430/430/430 454/454/454
f 429/429/429 454/454/454 453/453/453
f 430/430/430 431/431/431 455/455/455
f 430/430/430 455/455/455 454/454/454
f 431/431/431 432/432/432 456/456/456
f 431/431/431 456/456/456 455/455/455
f 432/432/432 409/409/409 433/433/433
f 432/432/432 433/433/433 456/456/456
f 433/433/433 434/434/434 458/458/458
f 433/433/433 458/458/458 457/457/457
f 434/434/434 435/435/435 459/459/459
f 434/434/434 459/459/459 458/458/458
f 435/435/435 436/436/436 460/460/460
f 435/435/435 460/460/460 459/459/459
f 436/436/436 437/437/437 461/461/461
f 436/436/436 461/461/461 460/460/460
f 437/437/437 438/438/438 462/462/462
f 437/437/437 462/462/462 461/461/461
f 438/438/438 439/439/439 463/463/463
f 438/438/438 463/463/463 462/462/462
f 439/439/439 440/440/440 464/464/464
f 439/439/439 464/464/464 463/463/463
f 440/440/440 441/441/441 465/465/465
f 440/440/440 465/465/465 464/464/464
f 441/441/441 442/442/442 466/466/466
f 441/441/441 466/466/466 465/465/465
f 442/442/442 443/443/443 467/467/467
f 442/442/442 467/467/467 466/466/466
f 443/443/443 444/444/444 468/468/468
f 443/443/443 468/468/468 467/467/467
f 444/444/444 445/445/445 469/469/469
f 444/444/444 469/469/469 468/468/468
f 445/445/445 446/446/446 470/470/470
f 445/445/445 470/470/470 469/469/469
f 446/446/446 447/447/447 471/471/471
f 446/446/446 471/471/471 470/470/470
f 447/447/447 448/448/448 472/472/472
f 447/447/447 472/472/472 471/471/471
f 448/448/448 449/449/449 473/473/473
f 448/448/448 473/473/473 472/472/472
f 449/449/449 450/450/450 474/474/474
f 449/449/449 474/474/474 473/473/473
f 450/450/450 451/451/451 475/475/475
f 450/450/450 475/475/475 474/474/474
f 451/451/451 452/452/452 476/476/476
f 451/451/451 476/476/476 475/475/475
f 452/452/452 453/453/453 477/477/477
f 452/452/452 477/477/477 476/476/476
f 453/453/453 454/454/454 478/478/478
f 453/453/453 478/478/478 477/477/477
f 454/454/454 455/455/455 479/479/479
f 454/454/454 479/479/479 478/478/478
f 455/455/455 456/456/456 480/480/480
f 455/455/455 480/480/480 479/479/479
f 456/456/456 433/433/433 457/457/457
f 456/456/456 457/457/457 480/480/480
f 481/481/481 2/2/2 1/1/1
f 481/481/481 3/3/3 2/2/2
f 481/481/481 4/4/4 3/3/3
f 481/481/481 5/5/5 4/4/4
f 481/481/481 6/6/6 5/5/5
f 481/481/481 7/7/7 6/6/6
f 481/481/481 8/8/8 7/7/7
f 481/481/481 9/9/9 8/8/8
f 481/481/481 10/10/10 9/9/9
f 481/481/481 11/11/11 10/10/10
f 481/481/481 12/12/12 11/11/11
f 481/481/481 13/13/13 12/12/12
f 481/481/481 14/14/14 13/13/13
f 481/481/481 15/15/15 14/14/14
f 481/481/481 16/16/16 15/15/15
f 481/481/481 17/17/17 16/16/16
f 481/481/481 18/18/18 17/17/17
f 481/481/481 19/19/19 18/18/18
f 481/481/481 20/20/20 19/19/19
f 481/481/481 21/21/21 20/20/20
f 481/481/481 22/22/22 21/21/21
f 481/481/481 23/23/23 22/22/22
f 481/481/481 24/24/24 23/23/23
f 481/481/481 1/1/1 24/24/24
f 482/482/482 457/457/457 458/458/458
f 482/482/482 458/458/458 459/459/459
f 482/482/482 459/459/459 460/460/460
f 482/482/482 460/460/460 461/461/461
f 482/482/482 461/461/461 462/462/462
f 482/482/482 462/462/462 463/463/463
f 482/482/482 463/463/463 464/464/464
f 482/482/482 464/464/464 465/465/465
f 482/482/482 465/465/465 466/466/466
f 482/482/482 466/466/466 467/467/467
f 482/482/482 467/467/467 468/468/468
f 482/482/482 468/468/468 469/469/469
f 482/482/482 469/469/469 470/470/470
f 482/482/482 470/470/470 471/471/471
f 482/482/482 471/471/471 472/472/472
f 482/482/482 472/472/472 473/473/473
f 482/482/482 473/473/473 474/474/474
f 482/482/482 474/474/474 475/475/475
f 482/482/482 475/475/475 476/476/476
f 482/482/482 476/476/476 477/477/477
f 482/482/482 477/477/477 478/478/478
f 482/482/482 478/478/478 479/479/479
f 482/482/482 479/479/479 480/480/480
f 482/482/482 480/480/480 457/457/457
