# procedural placeholder mesh: farmer_palm
v 0.01600 0.00500 0.00000
v 0.01534 0.00500 0.00827
v 0.01341 0.00500 0.01413
v 0.01028 0.00500 0.01844
v 0.00601 0.00500 0.02110
v 0.00000 0.00500 0.02200
v -0.00601 0.00500 0.02110
v -0.01028 0.00500 0.01844
v -0.01341 0.00500 0.01413
v -0.01534 0.00500 0.00827
v -0.01600 0.00500 0.00000
v -0.01534 0.00500 -0.00827
v -0.01341 0.00500 -0.01413
v -0.01028 0.00500 -0.01844
v -0.00601 0.00500 -0.02110
v -0.00000 0.00500 -0.02200
v 0.00601 0.00500 -0.02110
v 0.01028 0.00500 -0.01844
v 0.01341 0.00500 -0.01413
v 0.01534 0.00500 -0.00827
v 0.01810 -0.00194 0.00078
v 0.01736 -0.00194 0.01079
v 0.01517 -0.00194 0.01789
v 0.01162 -0.00194 0.02310
v 0.00680 -0.00194 0.02632
v 0.00000 -0.00194 0.02741
v -0.00680 -0.00194 0.02632
v -0.01162 -0.00194 0.02310
v -0.01517 -0.00194 0.01789
v -0.01736 -0.00194 0.01079
v -0.01810 -0.00194 0.00078
v -0.01736 -0.00194 -0.00922
v -0.01517 -0.00194 -0.01632
v -0.01162 -0.00194 -0.02153
v -0.00680 -0.00194 -0.02476
v -0.00000 -0.00194 -0.02585
v 0.00680 -0.00194 -0.02476
v 0.01162 -0.00194 -0.02153
v 0.01517 -0.00194 -0.01632
v 0.01736 -0.00194 -0.00922
v 0.02012 -0.00897 0.00155
v 0.01929 -0.00897 0.01327
v 0.01686 -0.00897 0.02158
v 0.01292 -0.00897 0.02769
v 0.00756 -0.00897 0.03146
v 0.00000 -0.00897 0.03273
v -0.00756 -0.00897 0.03146
v -0.01292 -0.00897 0.02769
v -0.01686 -0.00897 0.02158
v -0.01929 -0.00897 0.01327
v -0.02012 -0.00897 0.00155
v -0.01929 -0.00897 -0.01017
v -0.01686 -0.00897 -0.01848
v -0.01292 -0.00897 -0.02458
v -0.00756 -0.00897 -0.02835
v -0.00000 -0.00897 -0.02963
v 0.00756 -0.00897 -0.02835
v 0.01292 -0.00897 -0.02458
v 0.01686 -0.00897 -0.01848
v 0.01929 -0.00897 -0.01017
v 0.02115 -0.01730 0.00212
v 0.02028 -0.01730 0.01521
v 0.01772 -0.01730 0.02449
v 0.01358 -0.01730 0.03131
v 0.00795 -0.01730 0.03552
v 0.00000 -0.01730 0.03695
v -0.00795 -0.01730 0.03552
v -0.01358 -0.01730 0.03131
v -0.01772 -0.01730 0.02449
v -0.02028 -0.01730 0.01521
v -0.02115 -0.01730 0.00212
v -0.02028 -0.01730 -0.01097
v -0.01772 -0.01730 -0.02024
v -0.01358 -0.01730 -0.02707
v -0.00795 -0.01730 -0.03128
v -0.00000 -0.01730 -0.03270
v 0.00795 -0.01730 -0.03128
v 0.01358 -0.01730 -0.02707
v 0.01772 -0.01730 -0.02024
v 0.02028 -0.01730 -0.01097
v 0.02166 -0.02813 0.00261
v 0.02077 -0.02813 0.01698
v 0.01815 -0.02813 0.02716
v 0.01391 -0.02813 0.03464
v 0.00814 -0.02813 0.03927
v 0.00000 -0.02813 0.04083
v -0.00814 -0.02813 0.03927
v -0.01391 -0.02813 0.03464
v -0.01815 -0.02813 0.02716
v -0.02077 -0.02813 0.01698
v -0.02166 -0.02813 0.00261
v -0.02077 -0.02813 -0.01175
v -0.01815 -0.02813 -0.02193
v -0.01391 -0.02813 -0.02942
v -0.00814 -0.02813 -0.03404
v -0.00000 -0.02813 -0.03561
v 0.00814 -0.02813 -0.03404
v 0.01391 -0.02813 -0.02942
v 0.01815 -0.02813 -0.02193
v 0.02077 -0.02813 -0.01175
v 0.02196 -0.03972 0.00295
v 0.02106 -0.03972 0.01822
v 0.01840 -0.03972 0.02904
v 0.01410 -0.03972 0.03700
v 0.00825 -0.03972 0.04191
v 0.00000 -0.03972 0.04358
v -0.00825 -0.03972 0.04191
v -0.01410 -0.03972 0.03700
v -0.01840 -0.03972 0.02904
v -0.02106 -0.03972 0.01822
v -0.02196 -0.03972 0.00295
v -0.02106 -0.03972 -0.01232
v -0.01840 -0.03972 -0.02314
v -0.01410 -0.03972 -0.03110
v -0.00825 -0.03972 -0.03602
v -0.00000 -0.03972 -0.03768
v 0.00825 -0.03972 -0.03602
v 0.01410 -0.03972 -0.03110
v 0.01840 -0.03972 -0.02314
v 0.02106 -0.03972 -0.01232
v 0.02185 -0.05011 0.00295
v 0.02096 -0.05011 0.01834
v 0.01831 -0.05011 0.02926
v 0.01403 -0.05011 0.03728
v 0.00821 -0.05011 0.04223
v 0.00000 -0.05011 0.04391
v -0.00821 -0.05011 0.04223
v -0.01403 -0.05011 0.03728
v -0.01831 -0.05011 0.02926
v -0.02096 -0.05011 0.01834
v -0.02185 -0.05011 0.00295
v -0.02096 -0.05011 -0.01245
v -0.01831 -0.05011 -0.02336
v -0.01403 -0.05011 -0.03138
v -0.00821 -0.05011 -0.03634
v -0.00000 -0.05011 -0.03801
v 0.00821 -0.05011 -0.03634
v 0.01403 -0.05011 -0.03138
v 0.01831 -0.05011 -0.02336
v 0.02096 -0.05011 -0.01245
v 0.02086 -0.06034 0.00261
v 0.02001 -0.06034 0.01790
v 0.01749 -0.06034 0.02874
v 0.01340 -0.06034 0.03670
v 0.00784 -0.06034 0.04162
v 0.00000 -0.06034 0.04329
v -0.00784 -0.06034 0.04162
v -0.01340 -0.06034 0.03670
v -0.01749 -0.06034 0.02874
v -0.02001 -0.06034 0.01790
v -0.02086 -0.06034 0.00261
v -0.02001 -0.06034 -0.01268
v -0.01749 -0.06034 -0.02351
v -0.01340 -0.06034 -0.03148
v -0.00784 -0.06034 -0.03640
v -0.00000 -0.06034 -0.03807
v 0.00784 -0.06034 -0.03640
v 0.01340 -0.06034 -0.03148
v 0.01749 -0.06034 -0.02351
v 0.02001 -0.06034 -0.01268
v 0.01939 -0.06855 0.00212
v 0.01859 -0.06855 0.01722
v 0.01625 -0.06855 0.02791
v 0.01245 -0.06855 0.03578
v 0.00729 -0.06855 0.04064
v 0.00000 -0.06855 0.04228
v -0.00729 -0.06855 0.04064
v -0.01245 -0.06855 0.03578
v -0.01625 -0.06855 0.02791
v -0.01859 -0.06855 0.01722
v -0.01939 -0.06855 0.00212
v -0.01859 -0.06855 -0.01297
v -0.01625 -0.06855 -0.02367
v -0.01245 -0.06855 -0.03153
v -0.00729 -0.06855 -0.03639
v -0.00000 -0.06855 -0.03804
v 0.00729 -0.06855 -0.03639
v 0.01245 -0.06855 -0.03153
v 0.01625 -0.06855 -0.02367
v 0.01859 -0.06855 -0.01297
v 0.01749 -0.07335 0.00155
v 0.01678 -0.07335 0.01600
v 0.01466 -0.07335 0.02625
v 0.01124 -0.07335 0.03378
v 0.00657 -0.07335 0.03843
v 0.00000 -0.07335 0.04000
v -0.00657 -0.07335 0.03843
v -0.01124 -0.07335 0.03378
v -0.01466 -0.07335 0.02625
v -0.01678 -0.07335 0.01600
v -0.01749 -0.07335 0.00155
v -0.01678 -0.07335 -0.01290
v -0.01466 -0.07335 -0.02314
v -0.01124 -0.07335 -0.03068
v -0.00657 -0.07335 -0.03533
v -0.00000 -0.07335 -0.03690
v 0.00657 -0.07335 -0.03533
v 0.01124 -0.07335 -0.03068
v 0.01466 -0.07335 -0.02314
v 0.01678 -0.07335 -0.01290
v 0.01478 -0.07672 0.00078
v 0.01418 -0.07672 0.01368
v 0.01239 -0.07672 0.02283
v 0.00949 -0.07672 0.02955
v 0.00556 -0.07672 0.03370
v 0.00000 -0.07672 0.03511
v -0.00556 -0.07672 0.03370
v -0.00949 -0.07672 0.02955
v -0.01239 -0.07672 0.02283
v -0.01418 -0.07672 0.01368
v -0.01478 -0.07672 0.00078
v -0.01418 -0.07672 -0.01212
v -0.01239 -0.07672 -0.02126
v -0.00949 -0.07672 -0.02798
v -0.00556 -0.07672 -0.03214
v -0.00000 -0.07672 -0.03354
v 0.00556 -0.07672 -0.03214
v 0.00949 -0.07672 -0.02798
v 0.01239 -0.07672 -0.02126
v 0.01418 -0.07672 -0.01212
v 0.01200 -0.08000 0.00000
v 0.01151 -0.08000 0.01127
v 0.01006 -0.08000 0.01927
v 0.00771 -0.08000 0.02514
v 0.00451 -0.08000 0.02877
v 0.00000 -0.08000 0.03000
v -0.00451 -0.08000 0.02877
v -0.00771 -0.08000 0.02514
v -0.01006 -0.08000 0.01927
v -0.01151 -0.08000 0.01127
v -0.01200 -0.08000 0.00000
v -0.01151 -0.08000 -0.01127
v -0.01006 -0.08000 -0.01927
v -0.00771 -0.08000 -0.02514
v -0.00451 -0.08000 -0.02877
v -0.00000 -0.08000 -0.03000
v 0.00451 -0.08000 -0.02877
v 0.00771 -0.08000 -0.02514
v 0.01006 -0.08000 -0.01927
v 0.01151 -0.08000 -0.01127
v 0.00000 0.00500 0.00000
v 0.00000 -0.08000 0.00000
vn 0.4971 0.8676 0.0139
vn 0.4456 0.8896 0.1003
vn 0.3617 0.9100 0.2025
vn 0.2351 0.9302 0.2819
vn 0.0913 0.9378 0.3351
vn -0.0195 0.9417 0.3360
vn -0.1378 0.9418 0.3067
vn -0.2846 0.9239 0.2556
vn -0.4061 0.8977 0.1707
vn -0.4927 0.8675 0.0680
vn -0.4985 0.8668 -0.0139
vn -0.4547 0.8847 -0.1024
vn -0.3774 0.9016 -0.2113
vn -0.2499 0.9208 -0.2996
vn -0.0982 0.9276 -0.3605
vn 0.0209 0.9321 -0.3617
vn 0.1474 0.9331 -0.3280
vn 0.3006 0.9148 -0.2699
vn 0.4206 0.8899 -0.1768
vn 0.4993 0.8637 -0.0689
vn 0.9587 0.2844 0.0029
vn 0.9319 0.3234 0.1644
vn 0.8233 0.4119 0.3906
vn 0.6021 0.5162 0.6091
vn 0.2716 0.5911 0.7595
vn -0.0076 0.6075 0.7943
vn -0.2900 0.5896 0.7539
vn -0.6162 0.5119 0.5986
vn -0.8305 0.4076 0.3796
vn -0.9345 0.3203 0.1553
vn -0.9588 0.2839 -0.0029
vn -0.9424 0.2903 -0.1663
vn -0.8509 0.3362 -0.4036
vn -0.6423 0.4066 -0.6498
vn -0.2983 0.4642 -0.8340
vn 0.0084 0.4772 -0.8788
vn 0.3182 0.4632 -0.8272
vn 0.6563 0.4036 -0.6375
vn 0.8574 0.3337 -0.3918
vn 0.9445 0.2888 -0.1569
vn 0.9812 0.1931 0.0036
vn 0.9597 0.2302 0.1613
vn 0.8666 0.3107 0.3904
vn 0.6555 0.4169 0.6297
vn 0.3042 0.5007 0.8104
vn -0.0104 0.5236 0.8519
vn -0.3282 0.5023 0.8000
vn -0.6733 0.4102 0.6152
vn -0.8755 0.3031 0.3763
vn -0.9636 0.2211 0.1500
vn -0.9811 0.1934 -0.0036
vn -0.9653 0.2044 -0.1623
vn -0.8831 0.2488 -0.3978
vn -0.6828 0.3218 -0.6559
vn -0.3242 0.3858 -0.8637
vn 0.0111 0.4036 -0.9148
vn 0.3502 0.3859 -0.8535
vn 0.7008 0.3146 -0.6403
vn 0.8917 0.2410 -0.3832
vn 0.9691 0.1952 -0.1509
vn 0.9967 0.0807 0.0036
vn 0.9820 0.1074 0.1556
vn 0.9067 0.1733 0.3846
vn 0.7139 0.2701 0.6460
vn 0.3450 0.3593 0.8671
vn -0.0128 0.3860 0.9224
vn -0.3741 0.3590 0.8551
vn -0.7321 0.2638 0.6281
vn -0.9142 0.1676 0.3690
vn -0.9843 0.1020 0.1438
vn -0.9967 0.0808 -0.0036
vn -0.9836 0.0909 -0.1558
vn -0.9125 0.1323 -0.3871
vn -0.7261 0.2028 -0.6570
vn -0.3557 0.2727 -0.8939
vn 0.0133 0.2943 -0.9556
vn 0.3858 0.2716 -0.8817
vn 0.7441 0.1968 -0.6384
vn 0.9198 0.1269 -0.3713
vn 0.9858 0.0857 -0.1441
vn 0.9993 0.0372 0.0011
vn 0.9882 0.0537 0.1435
vn 0.9260 0.1005 0.3639
vn 0.7547 0.1749 0.6323
vn 0.3857 0.2530 0.8873
vn -0.0067 0.2808 0.9597
vn -0.3989 0.2576 0.8801
vn -0.7613 0.1772 0.6237
vn -0.9282 0.1024 0.3577
vn -0.9888 0.0541 0.1395
vn -0.9993 0.0375 -0.0011
vn -0.9887 0.0435 -0.1436
vn -0.9281 0.0744 -0.3647
vn -0.7600 0.1298 -0.6368
vn -0.3913 0.1913 -0.9002
vn 0.0068 0.2140 -0.9768
vn 0.4049 0.1950 -0.8933
vn 0.7668 0.1317 -0.6282
vn 0.9304 0.0758 -0.3586
vn 0.9893 0.0435 -0.1395
vn 1.0000 0.0092 -0.0010
vn 0.9908 0.0162 0.1346
vn 0.9370 0.0374 0.3474
vn 0.7825 0.0741 0.6183
vn 0.4198 0.1160 0.9002
vn 0.0013 0.1371 0.9906
vn -0.4152 0.1278 0.9007
vn -0.7796 0.0823 0.6209
vn -0.9356 0.0432 0.3503
vn -0.9904 0.0181 0.1370
vn -1.0000 0.0098 0.0010
vn -0.9908 0.0127 -0.1346
vn -0.9373 0.0275 -0.3476
vn -0.7834 0.0562 -0.6190
vn -0.4210 0.0901 -0.9026
vn -0.0013 0.1072 -0.9942
vn 0.4165 0.0991 -0.9037
vn 0.7807 0.0625 -0.6218
vn 0.9360 0.0317 -0.3505
vn 0.9905 0.0133 -0.1370
vn 0.9986 -0.0525 -0.0006
vn 0.9900 -0.0495 0.1318
vn 0.9391 -0.0444 0.3409
vn 0.7906 -0.0337 0.6114
vn 0.4297 -0.0217 0.9027
vn 0.0005 -0.0150 0.9999
vn -0.4275 -0.0217 0.9038
vn -0.7891 -0.0378 0.6131
vn -0.9382 -0.0485 0.3426
vn -0.9896 -0.0543 0.1333
vn -0.9987 -0.0519 0.0006
vn -0.9903 -0.0446 -0.1318
vn -0.9395 -0.0325 -0.3410
vn -0.7910 -0.0129 -0.6117
vn -0.4298 0.0092 -0.9029
vn -0.0005 0.0174 -0.9998
vn 0.4276 0.0059 -0.9039
vn 0.7895 -0.0189 -0.6134
vn 0.9386 -0.0383 -0.3428
vn 0.9898 -0.0507 -0.1333
vn 0.9914 -0.1311 -0.0031
vn 0.9838 -0.1303 0.1227
vn 0.9380 -0.1260 0.3230
vn 0.8007 -0.1147 0.5879
vn 0.4496 -0.1000 0.8876
vn 0.0084 -0.0903 0.9959
vn -0.4290 -0.1008 0.8977
vn -0.7901 -0.1189 0.6013
vn -0.9335 -0.1302 0.3341
vn -0.9821 -0.1352 0.1312
vn -0.9914 -0.1309 0.0031
vn -0.9853 -0.1190 -0.1229
vn -0.9411 -0.0969 -0.3241
vn -0.8045 -0.0619 -0.5907
vn -0.4518 -0.0198 -0.8919
vn -0.0085 -0.0016 -1.0000
vn 0.4310 -0.0223 -0.9021
vn 0.7940 -0.0665 -0.6043
vn 0.9366 -0.1015 -0.3353
vn 0.9835 -0.1242 -0.1314
vn 0.9688 -0.2478 -0.0059
vn 0.9623 -0.2492 0.1094
vn 0.9215 -0.2535 0.2942
vn 0.7993 -0.2544 0.5444
vn 0.4684 -0.2574 0.8452
vn 0.0208 -0.2452 0.9693
vn -0.4226 -0.2485 0.8716
vn -0.7778 -0.2559 0.5741
vn -0.9130 -0.2570 0.3169
vn -0.9581 -0.2572 0.1261
vn -0.9688 -0.2478 0.0059
vn -0.9666 -0.2315 -0.1099
vn -0.9320 -0.2070 -0.2976
vn -0.8147 -0.1681 -0.5549
vn -0.4812 -0.1213 -0.8682
vn -0.0214 -0.0909 -0.9956
vn 0.4334 -0.1131 -0.8941
vn 0.7931 -0.1679 -0.5854
vn 0.9237 -0.2095 -0.3207
vn 0.9627 -0.2390 -0.1267
vn 0.8744 -0.4852 -0.0044
vn 0.8637 -0.4952 0.0934
vn 0.8120 -0.5294 0.2456
vn 0.6849 -0.5795 0.4418
vn 0.3851 -0.6446 0.6604
vn 0.0147 -0.6538 0.7566
vn -0.3569 -0.6333 0.6867
vn -0.6693 -0.5813 0.4627
vn -0.8044 -0.5335 0.2615
vn -0.8561 -0.5060 0.1051
vn -0.8744 -0.4852 0.0044
vn -0.8772 -0.4706 -0.0949
vn -0.8464 -0.4670 -0.2560
vn -0.7416 -0.4703 -0.4784
vn -0.4397 -0.4879 -0.7541
vn -0.0171 -0.4757 -0.8795
vn 0.4064 -0.4727 -0.7819
vn 0.7258 -0.4707 -0.5017
vn 0.8392 -0.4705 -0.2729
vn 0.8700 -0.4813 -0.1068
vn 0.7731 -0.6342 -0.0024
vn 0.7552 -0.6508 0.0787
vn 0.6955 -0.6899 0.2007
vn 0.5639 -0.7494 0.3471
vn 0.3001 -0.8149 0.4958
vn 0.0065 -0.8335 0.5525
vn -0.2839 -0.8168 0.5022
vn -0.5532 -0.7536 0.3552
vn -0.6895 -0.6937 0.2083
vn -0.7519 -0.6538 0.0850
vn -0.7727 -0.6348 0.0024
vn -0.7734 -0.6288 -0.0806
vn -0.7415 -0.6359 -0.2140
vn -0.6370 -0.6638 -0.3920
vn -0.3648 -0.7097 -0.6027
vn -0.0081 -0.7219 -0.6919
vn 0.3460 -0.7111 -0.6121
vn 0.6269 -0.6670 -0.4026
vn 0.7370 -0.6381 -0.2227
vn 0.7714 -0.6303 -0.0873
vn 0.3008 -0.9537 -0.0051
vn 0.2991 -0.9539 0.0237
vn 0.2533 -0.9654 0.0615
vn 0.1856 -0.9779 0.0965
vn 0.0936 -0.9882 0.1210
vn 0.0132 -0.9905 0.1369
vn -0.0644 -0.9886 0.1363
vn -0.1580 -0.9813 0.1097
vn -0.2309 -0.9701 0.0751
vn -0.2733 -0.9613 0.0359
vn -0.3001 -0.9539 0.0051
vn -0.3024 -0.9529 -0.0240
vn -0.2607 -0.9633 -0.0633
vn -0.1943 -0.9757 -0.1011
vn -0.0993 -0.9867 -0.1284
vn -0.0141 -0.9891 -0.1463
vn 0.0688 -0.9869 -0.1457
vn 0.1665 -0.9792 -0.1157
vn 0.2393 -0.9678 -0.0778
vn 0.2778 -0.9599 -0.0365
vn 0.0000 1.0000 0.0000
vn 0.0000 -1.0000 0.0000
vt 0.5320 0.5100
vt 0.5307 0.5100
vt 0.5268 0.5100
vt 0.5206 0.5100
vt 0.5120 0.5100
vt 0.5000 0.5100
vt 0.4880 0.5100
vt 0.4794 0.5100
vt 0.4732 0.5100
vt 0.4693 0.5100
vt 0.4680 0.5100
vt 0.4693 0.5100
vt 0.4732 0.5100
vt 0.4794 0.5100
vt 0.4880 0.5100
vt 0.5000 0.5100
vt 0.5120 0.5100
vt 0.5206 0.5100
vt 0.5268 0.5100
vt 0.5307 0.5100
vt 0.5362 0.4961
vt 0.5347 0.4961
vt 0.5303 0.4961
vt 0.5232 0.4961
vt 0.5136 0.4961
vt 0.5000 0.4961
vt 0.4864 0.4961
vt 0.4768 0.4961
vt 0.4697 0.4961
vt 0.4653 0.4961
vt 0.4638 0.4961
vt 0.4653 0.4961
vt 0.4697 0.4961
vt 0.4768 0.4961
vt 0.4864 0.4961
vt 0.5000 0.4961
vt 0.5136 0.4961
vt 0.5232 0.4961
vt 0.5303 0.4961
vt 0.5347 0.4961
vt 0.5402 0.4821
vt 0.5386 0.4821
vt 0.5337 0.4821
vt 0.5258 0.4821
vt 0.5151 0.4821
vt 0.5000 0.4821
vt 0.4849 0.4821
vt 0.4742 0.4821
vt 0.4663 0.4821
vt 0.4614 0.4821
vt 0.4598 0.4821
vt 0.4614 0.4821
vt 0.4663 0.4821
vt 0.4742 0.4821
vt 0.4849 0.4821
vt 0.5000 0.4821
vt 0.5151 0.4821
vt 0.5258 0.4821
vt 0.5337 0.4821
vt 0.5386 0.4821
vt 0.5423 0.4654
vt 0.5406 0.4654
vt 0.5354 0.4654
vt 0.5272 0.4654
vt 0.5159 0.4654
vt 0.5000 0.4654
vt 0.4841 0.4654
vt 0.4728 0.4654
vt 0.4646 0.4654
vt 0.4594 0.4654
vt 0.4577 0.4654
vt 0.4594 0.4654
vt 0.4646 0.4654
vt 0.4728 0.4654
vt 0.4841 0.4654
vt 0.5000 0.4654
vt 0.5159 0.4654
vt 0.5272 0.4654
vt 0.5354 0.4654
vt 0.5406 0.4654
vt 0.5433 0.4437
vt 0.5415 0.4437
vt 0.5363 0.4437
vt 0.5278 0.4437
vt 0.5163 0.4437
vt 0.5000 0.4437
vt 0.4837 0.4437
vt 0.4722 0.4437
vt 0.4637 0.4437
vt 0.4585 0.4437
vt 0.4567 0.4437
vt 0.4585 0.4437
vt 0.4637 0.4437
vt 0.4722 0.4437
vt 0.4837 0.4437
vt 0.5000 0.4437
vt 0.5163 0.4437
vt 0.5278 0.4437
vt 0.5363 0.4437
vt 0.5415 0.4437
vt 0.5439 0.4206
vt 0.5421 0.4206
vt 0.5368 0.4206
vt 0.5282 0.4206
vt 0.5165 0.4206
vt 0.5000 0.4206
vt 0.4835 0.4206
vt 0.4718 0.4206
vt 0.4632 0.4206
vt 0.4579 0.4206
vt 0.4561 0.4206
vt 0.4579 0.4206
vt 0.4632 0.4206
vt 0.4718 0.4206
vt 0.4835 0.4206
vt 0.5000 0.4206
vt 0.5165 0.4206
vt 0.5282 0.4206
vt 0.5368 0.4206
vt 0.5421 0.4206
vt 0.5437 0.3998
vt 0.5419 0.3998
vt 0.5366 0.3998
vt 0.5281 0.3998
vt 0.5164 0.3998
vt 0.5000 0.3998
vt 0.4836 0.3998
vt 0.4719 0.3998
vt 0.4634 0.3998
vt 0.4581 0.3998
vt 0.4563 0.3998
vt 0.4581 0.3998
vt 0.4634 0.3998
vt 0.4719 0.3998
vt 0.4836 0.3998
vt 0.5000 0.3998
vt 0.5164 0.3998
vt 0.5281 0.3998
vt 0.5366 0.3998
vt 0.5419 0.3998
vt 0.5417 0.3793
vt 0.5400 0.3793
vt 0.5350 0.3793
vt 0.5268 0.3793
vt 0.5157 0.3793
vt 0.5000 0.3793
vt 0.4843 0.3793
vt 0.4732 0.3793
vt 0.4650 0.3793
vt 0.4600 0.3793
vt 0.4583 0.3793
vt 0.4600 0.3793
vt 0.4650 0.3793
vt 0.4732 0.3793
vt 0.4843 0.3793
vt 0.5000 0.3793
vt 0.5157 0.3793
vt 0.5268 0.3793
vt 0.5350 0.3793
vt 0.5400 0.3793
vt 0.5388 0.3629
vt 0.5372 0.3629
vt 0.5325 0.3629
vt 0.5249 0.3629
vt 0.5146 0.3629
vt 0.5000 0.3629
vt 0.4854 0.3629
vt 0.4751 0.3629
vt 0.4675 0.3629
vt 0.4628 0.3629
vt 0.4612 0.3629
vt 0.4628 0.3629
vt 0.4675 0.3629
vt 0.4751 0.3629
vt 0.4854 0.3629
vt 0.5000 0.3629
vt 0.5146 0.3629
vt 0.5249 0.3629
vt 0.5325 0.3629
vt 0.5372 0.3629
vt 0.5350 0.3533
vt 0.5336 0.3533
vt 0.5293 0.3533
vt 0.5225 0.3533
vt 0.5131 0.3533
vt 0.5000 0.3533
vt 0.4869 0.3533
vt 0.4775 0.3533
vt 0.4707 0.3533
vt 0.4664 0.3533
vt 0.4650 0.3533
vt 0.4664 0.3533
vt 0.4707 0.3533
vt 0.4775 0.3533
vt 0.4869 0.3533
vt 0.5000 0.3533
vt 0.5131 0.3533
vt 0.5225 0.3533
vt 0.5293 0.3533
vt 0.5336 0.3533
vt 0.5296 0.3466
vt 0.5284 0.3466
vt 0.5248 0.3466
vt 0.5190 0.3466
vt 0.5111 0.3466
vt 0.5000 0.3466
vt 0.4889 0.3466
vt 0.4810 0.3466
vt 0.4752 0.3466
vt 0.4716 0.3466
vt 0.4704 0.3466
vt 0.4716 0.3466
vt 0.4752 0.3466
vt 0.4810 0.3466
vt 0.4889 0.3466
vt 0.5000 0.3466
vt 0.5111 0.3466
vt 0.5190 0.3466
vt 0.5248 0.3466
vt 0.5284 0.3466
vt 0.5240 0.3400
vt 0.5230 0.3400
vt 0.5201 0.3400
vt 0.5154 0.3400
vt 0.5090 0.3400
vt 0.5000 0.3400
vt 0.4910 0.3400
vt 0.4846 0.3400
vt 0.4799 0.3400
vt 0.4770 0.3400
vt 0.4760 0.3400
vt 0.4770 0.3400
vt 0.4799 0.3400
vt 0.4846 0.3400
vt 0.4910 0.3400
vt 0.5000 0.3400
vt 0.5090 0.3400
vt 0.5154 0.3400
vt 0.5201 0.3400
vt 0.5230 0.3400
vt 0.5000 0.5100
vt 0.5000 0.3400
f 1/1/1 2/2/2 22/22/22
f 1/1/1 22/22/22 21/21/21
f 2/2/2 3/3/3 23/23/23
f 2/2/2 23/23/23 22/22/22
f 3/3/3 4/4/4 24/24/24
f 3/3/3 24/24/24 23/23/23
f 4/4/4 5/5/5 25/25/25
f 4/4/4 25/25/25 24/24/24
f 5/5/5 6/6/6 26/26/26
f 5/5/5 26/26/26 25/25/25
f 6/6/6 7/7/7 27/27/27
f 6/6/6 27/27/27 26/26/26
f 7/7/7 8/8/8 28/28/28
f 7/7/7 28/28/28 27/27/27
f 8/8/8 9/9/9 29/29/29
f 8/8/8 29/29/29 28/28/28
f 9/9/9 10/10/10 30/30/30
f 9/9/9 30/30/30 29/29/29
f 10/10/10 11/11/11 31/31/31
f 10/10/10 31/31/31 30/30/30
f 11/11/11 12/12/12 32/32/32
f 11/11/11 32/32/32 31/31/31
f 12/12/12 13/13/13 33/33/33
f 12/12/12 33/33/33 32/32/32
f 13/13/13 14/14/14 34/34/34
f 13/13/13 34/34/34 33/33/33
f 14/14/14 15/15/15 35/35/35
f 14/14/14 35/35/35 34/34/34
f 15/15/15 16/16/16 36/36/36
f 15/15/15 36/36/36 35/35/35
f 16/16/16 17/17/17 37/37/37
f 16/16/16 37/37/37 36/36/36
f 17/17/17 18/18/18 38/38/38
f 17/17/17 38/38/38 37/37/37
f 18/18/18 19/19/19 39/39/39
f 18/18/18 39/39/39 38/38/38
f 19/19/19 20/20/20 40/40/40
f 19/19/19 40/40/40 39/39/39
f 20/20/20 1/1/1 21/21/21
f 20/20/20 21/21/21 40/40/40
f 21/21/21 22/22/22 42/42/42
f 21/21/21 42/42/42 41/41/41
f 22/22/22 23/23/23 43/43/43
f 22/22/22 43/43/43 42/42/42
f 23/23/23 24/24/24 44/44/44
f 23/23/23 44/44/44 43/43/43
f 24/24/24 25/25/25 45/45/45
f 24/24/24 45/45/45 44/44/44
f 25/25/25 26/26/26 46/46/46
f 25/25/25 46/46/46 45/45/45
f 26/26/26 27/27/27 47/47/47
f 26/26/26 47/47/47 46/46/46
f 27/27/27 28/28/28 48/48/48
f 27/27/27 48/48/48 47/47/47
f 28/28/28 29/29/29 49/49/49
f 28/28/28 49/49/49 48/48/48
f 29/29/29 30/30/30 50/50/50
f 29/29/29 50/50/50 49/49/49
f 30/30/30 31/31/31 51/51/51
f 30/30/30 51/51/51 50/50/50
f 31/31/31 32/32/32 52/52/52
f 31/31/31 52/52/52 51/51/51
f 32/32/32 33/33/33 53/53/53
f 32/32/32 53/53/53 52/52/52
f 33/33/33 34/34/34 54/54/54
f 33/33/33 54/54/54 53/53/53
f 34/34/34 35/35/35 55/55/55
f 34/34/34 55/55/55 54/54/54
f 35/35/35 36/36/36 56/56/56
f 35/35/35 56/56/56 55/55/55
f 36/36/36 37/37/37 57/57/57
f 36/36/36 57/57/57 56/56/56
f 37/37/37 38/38/38 58/58/58
f 37/37/37 58/58/58 57/57/57
f 38/38/38 39/39/39 59/59/59
f 38/38/38 59/59/59 58/58/58
f 39/39/39 40/40/40 60/60/60
f 39/39/39 60/60/60 59/59/59
f 40/40/40 21/21/21 41/41/41
f 40/40/40 41/41/41 60/60/60
f 41/41/41 42/42/42 62/62/62
f 41/41/41 62/62/62 61/61/61
f 42/42/42 43/43/43 63/63/63
f 42/42/42 63/63/63 62/62/62
f 43/43/43 44/44/44 64/64/64
f 43/43/43 64/64/64 63/63/63
f 44/44/44 45/45/45 65/65/65
f 44/44/44 65/65/65 64/64/64
f 45/45/45 46/46/46 66/66/66
f 45/45/45 66/66/66 65/65/65
f 46/46/46 47/47/47 67/67/67
f 46/46/46 67/67/67 66/66/66
f 47/47/47 48/48/48 68/68/68
f 47/47/47 68/68/68 67/67/67
f 48/48/48 49/49/49 69/69/69
f 48/48/48 69/69/69 68/68/68
f 49/49/49 50/50/50 70/70/70
f 49/49/49 70/70/70 69/69/69
f 50/50/50 51/51/51 71/71/71
f 50/50/50 71/71/71 70/70/70
f 51/51/51 52/52/52 72/72/72
f 51/51/51 72/72/72 71/71/71
f 52/52/52 53/53/53 73/73/73
f 52/52/52 73/73/73 72/72/72
f 53/53/53 54/54/54 74/74/74
f 53/53/53 74/74/74 73/73/73
f 54/54/54 55/55/55 75/75/75
f 54/54/54 75/75/75 74/74/74
f 55/55/55 56/56/56 76/76/76
f 55/55/55 76/76/76 75/75/75
f 56/56/56 57/57/57 77/77/77
f 56/56/56 77/77/77 76/76/76
f 57/57/57 58/58/58 78/78/78
f 57/57/57 78/78/78 77/77/77
f 58/58/58 59/59/59 79/79/79
f 58/58/58 79/79/79 78/78/78
f 59/59/59 60/60/60 80/80/80
f 59/59/59 80/80/80 79/79/79
f 60/60/60 41/41/41 61/61/61
f 60/60/60 61/61/61 80/80/80
f 61/61/61 62/62/62 82/82/82
f 61/61/61 82/82/82 81/81/81
f 62/62/62 63/63/63 83/83/83
f 62/62/62 83/83/83 82/82/82
f 63/63/63 64/64/64 84/84/84
f 63/63/63 84/84/84 83/83/83
f 64/64/64 65/65/65 85/85/85
f 64/64/64 85/85/85 84/84/84
f 65/65/65 66/66/66 86/86/86
f 65/65/65 86/86/86 85/85/85
f 66/66/66 67/67/67 87/87/87
f 66/66/66 87/87/87 86/86/86
f 67/67/67 68/68/68 88/88/88
f 67/67/67 88/88/88 87/87/87
f 68/68/68 69/69/69 89/89/89
f 68/68/68 89/89/89 88/88/88
f 69/69/69 70/70/70 90/90/90
f 69/69/69 90/90/90 89/89/89
f 70/70/70 71/71/71 91/91/91
f 70/70/70 91/91/91 90/90/90
f 71/71/71 72/72/72 92/92/92
f 71/71/71 92/92/92 91/91/91
f 72/72/72 73/73/73 93/93/93
f 72/72/72 93/93/93 92/92/92
f 73/73/73 74/74/74 94/94/94
f 73/73/73 94/94/94 93/93/93
f 74/74/74 75/75/75 95/95/95
f 74/74/74 95/95/95 94/94/94
f 75/75/75 76/76/76 96/96/96
f 75/75/75 96/96/96 95/95/95
f 76/76/76 77/77/77 97/97/97
f 76/76/76 97/97/97 96/96/96
f 77/77/77 78/78/78 98/98/98
f 77/77/77 98/98/98 97/97/97
f 78/78/78 79/79/79 99/99/99
f 78/78/78 99/99/99 98/98/98
f 79/79/79 80/80/80 100/100/100
f 79/79/79 100/100/100 99/99/99
f 80/80/80 61/61/61 81/81/81
f 80/80/80 81/81/81 100/100/100
f 81/81/81 82/82/82 102/102/102
f 81/81/81 102/102/102 101/101/101
f 82/82/82 83/83/83 103/103/103
f 82/82/82 103/103/103 102/102/102
f 83/83/83 84/84/84 104/104/104
f 83/83/83 104/104/104 103/103/103
f 84/84/84 85/85/85 105/105/105
f 84/84/84 105/105/105 104/104/104
f 85/85/85 86/86/86 106/106/106
f 85/85/85 106/106/106 105/105/105
f 86/86/86 87/87/87 107/107/107
f 86/86/86 107/107/107 106/106/106
f 87/87/87 88/88/88 108/108/108
f 87/87/87 108/108/108 107/107/107
f 88/88/88 89/89/89 109/109/109
f 88/88/88 109/109/109 108/108/108
f 89/89/89 90/90/90 110/110/110
f 89/89/89 110/110/110 109/109/109
f 90/90/90 91/91/91 111/111/111
f 90/90/90 111/111/111 110/110/110
f 91/91/91 92/92/92 112/112/112
f 91/91/91 112/112/112 111/111/111
f 92/92/92 93/93/93 113/113/113
f 92/92/92 113/113/113 112/112/112
f 93/93/93 94/94/94 114/114/114
f 93/93/93 114/114/114 113/113/113
f 94/94/94 95/95/95 115/115/115
f 94/94/94 115/115/115 114/114/114
f 95/95/95 96/96/96 116/116/116
f 95/95/95 116/116/116 115/115/115
f 96/96/96 97/97/97 117/117/117
f 96/96/96 117/117/117 116/116/116
f 97/97/97 98/98/98 118/118/118
f 97/97/97 118/118/118 117/117/117
f 98/98/98 99/99/99 119/119/119
f 98/98/98 119/119/119 118/118/118
f 99/99/99 100/100/100 120/120/120
f 99/99/99 120/120/120 119/119/119
f 100/100/100 81/81/81 101/101/101
f 100/100/100 101/101/101 120/120/120
f 101/101/101 102/102/102 122/122/122
f 101/101/101 122/122/122 121/121/121
f 102/102/102 103/103/103 123/123/123
f 102/102/102 123/123/123 122/122/122
f 103/103/103 104/104/104 124/124/124
f 103/103/103 124/124/124 123/123/123
f 104/104/104 105/105/105 125/125/125
f 104/104/104 125/125/125 124/124/124
f 105/105/105 106/106/106 126/126/126
f 105/105/105 126/126/126 125/125/125
f 106/106/106 107/107/107 127/127/127
f 106/106/106 127/127/127 126/126/126
f 107/107/107 108/108/108 128/128/128
f 107/107/107 128/128/128 127/127/127
f 108/108/108 109/109/109 129/129/129
f 108/108/108 129/129/129 128/128/128
f 109/109/109 110/110/110 130/130/130
f 109/109/109 130/130/130 129/129/129
f 110/110/110 111/111/111 131/131/131
f 110/110/110 131/131/131 130/130/130
f 111/111/111 112/112/112 132/132/132
f 111/111/111 132/132/132 131/131/131
f 112/112/112 113/113/113 133/133/133
f 112/112/112 133/133/133 132/132/132
f 113/113/113 114/114/114 134/134/134
f 113/113/113 134/134/134 133/133/133
f 114/114/114 115/115/115 135/135/135
f 114/114/114 135/135/135 134/134/134
f 115/115/115 116/116/116 136/136/136
f 115/115/115 136/136/136 135/135/135
f 116/116/116 117/117/117 137/137/137
f 116/116/116 137/137/137 136/136/136
f 117/117/117 118/118/118 138/138/138
f 117/117/117 138/138/138 137/137/137
f 118/118/118 119/119/119 139/139/139
f 118/118/118 139/139/139 138/138/138
f 119/119/119 120/120/120 140/140/140
f 119/119/119 140/140/140 139/139/139
f 120/120/120 101/101/101 121/121/121
f 120/120/120 121/121/121 140/140/140
f 121/121/121 122/122/122 142/142/142
f 121/121/121 142/142/142 141/141/141
f 122/122/122 123/123/123 143/143/143
f 122/122/122 143/143/143 142/142/142
f 123/123/123 124/124/124 144/144/144
f 123/123/123 144/144/144 143/143/143
f 124/124/124 125/125/125 145/145/145
f 124/124/124 145/145/145 144/144/144
f 125/125/125 126/126/126 146/146/146
f 125/125/125 146/146/146 145/145/145
f 126/126/126 127/127/127 147/147/147
f 126/126/126 147/147/147 146/146/146
f 127/127/127 128/128/128 148/148/148
f 127/127/127 148/148/148 147/147/147
f 128/128/128 129/129/129 149/149/149
f 128/128/128 149/149/149 148/148/148
f 129/129/129 130/130/130 150/150/150
f 129/129/129 150/150/150 149/149/149
f 130/130/130 131/131/131 151/151/151
f 130/130/130 151/151/151 150/150/150
f 131/131/131 132/132/132 152/152/152
f 131/131/131 152/152/152 151/151/151
f 132/132/132 133/133/133 153/153/153
f 132/132/132 153/153/153 152/152/152
f 133/133/133 134/134/134 154/154/154
f 133/133/133 154/154/154 153/153/153
f 134/134/134 135/135/135 155/155/155
f 134/134/134 155/155/155 154/154/154
f 135/135/135 136/136/136 156/156/156
f 135/135/135 156/156/156 155/155/155
f 136/136/136 137/137/137 157/157/157
f 136/136/136 157/157/157 156/156/156
f 137/137/137 138/138/138 158/158/158
f 137/137/137 158/158/158 157/157/157
f 138/138/138 139/139/139 159/159/159
f 138/138/138 159/159/159 158/158/158
f 139/139/139 140/140/140 160/160/160
f 139/139/139 160/160/160 159/159/159
f 140/140/140 121/121/121 141/141/141
f 140/140/140 141/141/141 160/160/160
f 141/141/141 142/142/142 162/162/162
f 141/141/141 162/162/162 161/161/161
f 142/142/142 143/143/143 163/163/163
f 142/142/142 163/163/163 162/162/162
f 143/143/143 144/144/144 164/164/164
f 143/143/143 164/164/164 163/163/163
f 144/144/144 145/145/145 165/165/165
f 144/144/144 165/165/165 164/164/164
f 145/145/145 146/146/146 166/166/166
f 145/145/145 166/166/166 165/165/165
f 146/146/146 147/147/147 167/167/167
f 146/146/146 167/167/167 166/166/166
f 147/147/147 148/148/148 168/168/168
f 147/147/147 168/168/168 167/167/167
f 148/148/148 149/149/149 169/169/169
f 148/148/148 169/169/169 168/168/168
f 149/149/149 150/150/150 170/170/170
f 149/149/149 170/170/170 169/169/169
f 150/150/150 151/151/151 171/171/171
f 150/150/150 171/171/171 170/170/170
f 151/151/151 152/152/152 172/172/172
f 151/151/151 172/172/172 171/171/171
f 152/152/152 153/153/153 173/173/173
f 152/152/152 173/173/173 172/172/172
f 153/153/153 154/154/154 174/174/174
f 153/153/153 174/174/174 173/173/173
f 154/154/154 155/155/155 175/175/175
f 154/154/154 175/175/175 174/174/174
f 155/155/155 156/156/156 176/176/176
f 155/155/155 176/176/176 175/175/175
f 156/156/156 157/157/157 177/177/177
f 156/156/156 177/177/177 176/176/176
f 157/157/157 158/158/158 178/178/178
f 157/157/157 178/178/178 177/177/177
f 158/158/158 159/159/159 179/179/179
f 158/158/158 179/179/179 178/178/178
f 159/159/159 160/160/160 180/180/180
f 159/159/159 180/180/180 179/179/179
f 160/160/160 141/141/141 161/161/161
f 160/160/160 161/161/161 180/180/180
f 161/161/161 162/162/162 182/182/182
f 161/161/161 182/182/182 181/181/181
f 162/162/162 163/163/163 183/183/183
f 162/162/162 183/183/183 182/182/182
f 163/163/163 164/164/164 184/184/184
f 163/163/163 184/184/184 183/183/183
f 164/164/164 165/165/165 185/185/185
f 164/164/164 185/185/185 184/184/184
f 165/165/165 166/166/166 186/186/186
f 165/165/165 186/186/186 185/185/185
f 166/166/166 167/167/167 187/187/187
f 166/166/166 187/187/187 186/186/186
f 167/167/167 168/168/168 188/188/188
f 167/167/167 188/188/188 187/187/187
f 168/168/168 169/169/169 189/189/189
f 168/168/168 189/189/189 188/188/188
f 169/169/169 170/170/170 190/190/190
f 169/169/169 190/190/190 189/189/189
f 170/170/170 171/171/171 191/191/191
f 170/170/170 191/191/191 190/190/190
f 171/171/171 172/172/172 192/192/192
f 171/171/171 192/192/192 191/191/191
f 172/172/172 173/173/173 193/193/193
f 172/172/172 193/193/193 192/192/192
f 173/173/173 174/174/174 194/194/194
f 173/173/173 194/194/194 193/193/193
f 174/174/174 175/175/175 195/195/195
f 174/174/174 195/195/195 194/194/194
f 175/175/175 176/176/176 196/196/196
f 175/175/175 196/196/196 195/195/195
f 176/176/176 177/177/177 197/197/197
f 176/176/176 197/197/197 196/196/196
f 177/177/177 178/178/178 198/198/198
f 177/177/177 198/198/198 197/197/197
f 178/178/178 179/179/179 199/199/199
f 178/178/178 199/199/199 198/198/198
f 179/179/179 180/180/180 200/200/200
f 179/179/179 200/200/200 199/199/199
f 180/180/180 161/161/161 181/181/181
f 180/180/180 181/181/181 200/200/200
f 181/181/181 182/182/182 202/202/202
f 181/181/181 202/202/202 201/201/201
f 182/182/182 183/183/183 203/203/203
f 182/182/182 203/203/203 202/202/202
f 183/183/183 184/184/184 204/204/204
f 183/183/183 204/204/204 203/203/203
f 184/184/184 185/185/185 205/205/205
f 184/184/184 205/205/205 204/204/204
f 185/185/185 186/186/186 206/206/206
f 185/185/185 206/206/206 205/205/205
f 186/186/186 187/187/187 207/207/207
f 186/186/186 207/207/207 206/206/206
f 187/187/187 188/188/188 208/208/208
f 187/187/187 208/208/208 207/207/207
f 188/188/188 189/189/189 209/209/209
f 188/188/188 209/209/209 208/208/208
f 189/189/189 190/190/190 210/210/210
f 189/189/189 210/210/210 209/209/209
f 190/190/190 191/191/191 211/211/211
f 190/190/190 211/211/211 210/210/210
f 191/191/191 192/192/192 212/212/212
f 191/191/191 212/212/212 211/211/211
f 192/192/192 193/193/193 213/213/213
f 192/192/192 213/213/213 212/212/212
f 193/193/193 194/194/194 214/214/214
f 193/193/193 214/214/214 213/213/213
f 194/194/194 195/195/195 215/215/215
f 194/194/194 215/215/215 214/214/214
f 195/195/195 196/196/196 216/216/216
f 195/195/195 216/216/216 215/215/215
f 196/196/196 197/197/197 217/217/217
f 196/196/196 217/217/217 216/216/216
f 197/197/197 198/198/198 218/218/218
f 197/197/197 218/218/218 217/217/217
f 198/198/198 199/199/199 219/219/219
f 198/198/198 219/219/219 218/218/218
f 199/199/199 200/200/200 220/220/220
f 199/199/199 220/220/220 219/219/219
f 200/200/200 181/181/181 201/201/201
f 200/200/200 201/201/201 220/220/220
f 201/201/201 202/202/202 222/222/222
f 201/201/201 222/222/222 221/221/221
f 202/202/202 203/203/203 223/223/223
f 202/202/202 223/223/223 222/222/222
f 203/203/203 204/204/204 224/224/224
f 203/203/203 224/224/224 223/223/223
f 204/204/204 205/205/205 225/225/225
f 204/204/204 225/225/225 224/224/224
f 205/205/205 206/206/206 226/226/226
f 205/205/205 226/226/226 225/225/225
f 206/206/206 207/207/207 227/227/227
f 206/206/206 227/227/227 226/226/226
f 207/207/207 208/208/208 228/228/228
f 207/207/207 228/228/228 227/227/227
f 208/208/208 209/209/209 229/229/229
f 208/208/208 229/229/229 228/228/228
f 209/209/209 210/210/210 230/230/230
f 209/209/209 230/230/230 229/229/229
f 210/210/210 211/211/211 231/231/231
f 210/210/210 231/231/231 230/230/230
f 211/211/211 212/212/212 232/232/232
f 211/211/211 232/232/232 231/231/231
f 212/212/212 213/213/213 233/233/233
f 212/212/212 233/233/233 232/232/232
f 213/213/213 214/214/214 234/234/234
f 213/213/213 234/234/234 233/233/233
f 214/214/214 215/215/215 235/235/235
f 214/214/214 235/235/235 234/234/234
f 215/215/215 216/216/216 236/236/236
f 215/215/215 236/236/236 235/235/235
f 216/216/216 217/217/217 237/237/237
f 216/216/216 237/237/237 236/236/236
f 217/217/217 218/218/218 238/238/238
f 217/217/217 238/238/238 237/237/237
f 218/218/218 219/219/219 239/239/239
f 218/218/218 239/239/239 238/238/238
f 219/219/219 220/220/220 240/240/240
f 219/219/219 240/240/240 239/239/239
f 220/220/220 201/201/201 221/221/221
f 220/220/220 221/221/221 240/240/240
f 241/241/241 2/2/2 1/1/1
f 241/241/241 3/3/3 2/2/2
f 241/241/241 4/4/4 3/3/3
f 241/241/241 5/5/5 4/4/4
f 241/241/241 6/6/6 5/5/5
f 241/241/241 7/7/7 6/6/6
f 241/241/241 8/8/8 7/7/7
f 241/241/241 9/9/9 8/8/8
f 241/241/241 10/10/10 9/9/9
f 241/241/241 11/11/11 10/10/10
f 241/241/241 12/12/12 11/11/11
f 241/241/241 13/13/13 12/12/12
f 241/241/241 14/14/14 13/13/13
f 241/241/241 15/15/15 14/14/14
f 241/241/241 16/16/16 15/15/15
f 241/241/241 17/17/17 16/16/16
f 241/241/241 18/18/18 17/17/17
f 241/241/241 19/19/19 18/18/18
f 241/241/241 20/20/20 19/19/19
f 241/241/241 1/1/1 20/20/20
f 242/242/242 221/221/221 222/222/222
f 242/242/242 222/222/222 223/223/223
f 242/242/242 223/223/223 224/224/224
f 242/242/242 224/224/224 225/225/225
f 242/242/242 225/225/225 226/226/226
f 242/242/242 226/226/226 227/227/227
f 242/242/242 227/227/227 228/228/228
f 242/242/242 228/228/228 229/229/229
f 242/242/242 229/229/229 230/230/230
f 242/242/242 230/230/230 231/231/231
f 242/242/242 231/231/231 232/232/232
f 242/242/242 232/232/232 233/233/233
f 242/242/242 233/233/233 234/234/234
f 242/242/242 234/234/234 235/235/235
f 242/242/242 235/235/235 236/236/236
f 242/242/242 236/236/236 237/237/237
f 242/242/242 237/237/237 238/238/238
f 242/242/242 238/238/238 239/239/239
f 242/242/242 239/239/239 240/240/240
f 242/242/242 240/240/240 221/221/221
