# procedural placeholder mesh: farmer_neck
v 0.06200 0.54000 -0.01200
v 0.05989 0.54000 0.00301
v 0.05369 0.54000 0.01700
v 0.04384 0.54000 0.02901
v 0.03100 0.54000 0.03823
v 0.01605 0.54000 0.04402
v 0.00000 0.54000 0.04600
v -0.01605 0.54000 0.04402
v -0.03100 0.54000 0.03823
v -0.04384 0.54000 0.02901
v -0.05369 0.54000 0.01700
v -0.05989 0.54000 0.00301
v -0.06200 0.54000 -0.01200
v -0.05989 0.54000 -0.02701
v -0.05369 0.54000 -0.04100
v -0.04384 0.54000 -0.05301
v -0.03100 0.54000 -0.06223
v -0.01605 0.54000 -0.06802
v -0.00000 0.54000 -0.07000
v 0.01605 0.54000 -0.06802
v 0.03100 0.54000 -0.06223
v 0.04384 0.54000 -0.05301
v 0.05369 0.54000 -0.04100
v 0.05989 0.54000 -0.02701
v 0.05914 0.56000 -0.01067
v 0.05712 0.56000 0.00377
v 0.05121 0.56000 0.01722
v 0.04182 0.56000 0.02877
v 0.02957 0.56000 0.03764
v 0.01531 0.56000 0.04321
v 0.00000 0.56000 0.04511
v -0.01531 0.56000 0.04321
v -0.02957 0.56000 0.03764
v -0.04182 0.56000 0.02877
v -0.05121 0.56000 0.01722
v -0.05712 0.56000 0.00377
v -0.05914 0.56000 -0.01067
v -0.05712 0.56000 -0.02510
v -0.05121 0.56000 -0.03856
v -0.04182 0.56000 -0.05011
v -0.02957 0.56000 -0.05897
v -0.01531 0.56000 -0.06454
v -0.00000 0.56000 -0.06644
v 0.01531 0.56000 -0.06454
v 0.02957 0.56000 -0.05897
v 0.04182 0.56000 -0.05011
v 0.05121 0.56000 -0.03856
v 0.05712 0.56000 -0.02510
v 0.05627 0.58000 -0.00933
v 0.05435 0.58000 0.00453
v 0.04873 0.58000 0.01744
v 0.03979 0.58000 0.02854
v 0.02814 0.58000 0.03705
v 0.01456 0.58000 0.04240
v 0.00000 0.58000 0.04422
v -0.01456 0.58000 0.04240
v -0.02814 0.58000 0.03705
v -0.03979 0.58000 0.02854
v -0.04873 0.58000 0.01744
v -0.05435 0.58000 0.00453
v -0.05627 0.58000 -0.00933
v -0.05435 0.58000 -0.02319
v -0.04873 0.58000 -0.03611
v -0.03979 0.58000 -0.04720
v -0.02814 0.58000 -0.05571
v -0.01456 0.58000 -0.06106
v -0.00000 0.58000 -0.06289
v 0.01456 0.58000 -0.06106
v 0.02814 0.58000 -0.05571
v 0.03979 0.58000 -0.04720
v 0.04873 0.58000 -0.03611
v 0.05435 0.58000 -0.02319
v 0.05400 0.60000 -0.00800
v 0.05216 0.60000 0.00546
v 0.04677 0.60000 0.01800
v 0.03818 0.60000 0.02877
v 0.02700 0.60000 0.03703
v 0.01398 0.60000 0.04223
v 0.00000 0.60000 0.04400
v -0.01398 0.60000 0.04223
v -0.02700 0.60000 0.03703
v -0.03818 0.60000 0.02877
v -0.04677 0.60000 0.01800
v -0.05216 0.60000 0.00546
v -0.05400 0.60000 -0.00800
v -0.05216 0.60000 -0.02146
v -0.04677 0.60000 -0.03400
v -0.03818 0.60000 -0.04477
v -0.02700 0.60000 -0.05303
v -0.01398 0.60000 -0.05823
v -0.00000 0.60000 -0.06000
v 0.01398 0.60000 -0.05823
v 0.02700 0.60000 -0.05303
v 0.03818 0.60000 -0.04477
v 0.04677 0.60000 -0.03400
v 0.05216 0.60000 -0.02146
v 0.05237 0.62040 -0.00667
v 0.05059 0.62040 0.00654
v 0.04535 0.62040 0.01885
v 0.03703 0.62040 0.02942
v 0.02619 0.62040 0.03753
v 0.01355 0.62040 0.04263
v 0.00000 0.62040 0.04437
v -0.01355 0.62040 0.04263
v -0.02619 0.62040 0.03753
v -0.03703 0.62040 0.02942
v -0.04535 0.62040 0.01885
v -0.05059 0.62040 0.00654
v -0.05237 0.62040 -0.00667
v -0.05059 0.62040 -0.01988
v -0.04535 0.62040 -0.03219
v -0.03703 0.62040 -0.04276
v -0.02619 0.62040 -0.05087
v -0.01355 0.62040 -0.05596
v -0.00000 0.62040 -0.05770
v 0.01355 0.62040 -0.05596
v 0.02619 0.62040 -0.05087
v 0.03703 0.62040 -0.04276
v 0.04535 0.62040 -0.03219
v 0.05059 0.62040 -0.01988
v 0.05104 0.64081 -0.00533
v 0.04930 0.64081 0.00768
v 0.04420 0.64081 0.01981
v 0.03609 0.64081 0.03023
v 0.02552 0.64081 0.03822
v 0.01321 0.64081 0.04325
v 0.00000 0.64081 0.04496
v -0.01321 0.64081 0.04325
v -0.02552 0.64081 0.03822
v -0.03609 0.64081 0.03023
v -0.04420 0.64081 0.01981
v -0.04930 0.64081 0.00768
v -0.05104 0.64081 -0.00533
v -0.04930 0.64081 -0.01835
v -0.04420 0.64081 -0.03048
v -0.03609 0.64081 -0.04090
v -0.02552 0.64081 -0.04889
v -0.01321 0.64081 -0.05392
v -0.00000 0.64081 -0.05563
v 0.01321 0.64081 -0.05392
v 0.02552 0.64081 -0.04889
v 0.03609 0.64081 -0.04090
v 0.04420 0.64081 -0.03048
v 0.04930 0.64081 -0.01835
v 0.05000 0.66000 -0.00400
v 0.04830 0.66000 0.00894
v 0.04330 0.66000 0.02100
v 0.03536 0.66000 0.03136
v 0.02500 0.66000 0.03930
v 0.01294 0.66000 0.04430
v 0.00000 0.66000 0.04600
v -0.01294 0.66000 0.04430
v -0.02500 0.66000 0.03930
v -0.03536 0.66000 0.03136
v -0.04330 0.66000 0.02100
v -0.04830 0.66000 0.00894
v -0.05000 0.66000 -0.00400
v -0.04830 0.66000 -0.01694
v -0.04330 0.66000 -0.02900
v -0.03536 0.66000 -0.03936
v -0.02500 0.66000 -0.04730
v -0.01294 0.66000 -0.05230
v -0.00000 0.66000 -0.05400
v 0.01294 0.66000 -0.05230
v 0.02500 0.66000 -0.04730
v 0.03536 0.66000 -0.03936
v 0.04330 0.66000 -0.02900
v 0.04830 0.66000 -0.01694
v 0.04923 0.67734 -0.00267
v 0.04756 0.67734 0.01027
v 0.04264 0.67734 0.02233
v 0.03481 0.67734 0.03269
v 0.02462 0.67734 0.04063
v 0.01274 0.67734 0.04563
v 0.00000 0.67734 0.04733
v -0.01274 0.67734 0.04563
v -0.02462 0.67734 0.04063
v -0.03481 0.67734 0.03269
v -0.04264 0.67734 0.02233
v -0.04756 0.67734 0.01027
v -0.04923 0.67734 -0.00267
v -0.04756 0.67734 -0.01561
v -0.04264 0.67734 -0.02767
v -0.03481 0.67734 -0.03802
v -0.02462 0.67734 -0.04597
v -0.01274 0.67734 -0.05096
v -0.00000 0.67734 -0.05267
v 0.01274 0.67734 -0.05096
v 0.02462 0.67734 -0.04597
v 0.03481 0.67734 -0.03802
v 0.04264 0.67734 -0.02767
v 0.04756 0.67734 -0.01561
v 0.04862 0.69367 -0.00133
v 0.04696 0.69367 0.01161
v 0.04210 0.69367 0.02367
v 0.03438 0.69367 0.03402
v 0.02431 0.69367 0.04197
v 0.01258 0.69367 0.04696
v 0.00000 0.69367 0.04867
v -0.01258 0.69367 0.04696
v -0.02431 0.69367 0.04197
v -0.03438 0.69367 0.03402
v -0.04210 0.69367 0.02367
v -0.04696 0.69367 0.01161
v -0.04862 0.69367 -0.00133
v -0.04696 0.69367 -0.01427
v -0.04210 0.69367 -0.02633
v -0.03438 0.69367 -0.03669
v -0.02431 0.69367 -0.04463
v -0.01258 0.69367 -0.04963
v -0.00000 0.69367 -0.05133
v 0.01258 0.69367 -0.04963
v 0.02431 0.69367 -0.04463
v 0.03438 0.69367 -0.03669
v 0.04210 0.69367 -0.02633
v 0.04696 0.69367 -0.01427
v 0.04800 0.71000 0.00000
v 0.04636 0.71000 0.01294
v 0.04157 0.71000 0.02500
v 0.03394 0.71000 0.03536
v 0.02400 0.71000 0.04330
v 0.01242 0.71000 0.04830
v 0.00000 0.71000 0.05000
v -0.01242 0.71000 0.04830
v -0.02400 0.71000 0.04330
v -0.03394 0.71000 0.03536
v -0.04157 0.71000 0.02500
v -0.04636 0.71000 0.01294
v -0.04800 0.71000 0.00000
v -0.04636 0.71000 -0.01294
v -0.04157 0.71000 -0.02500
v -0.03394 0.71000 -0.03536
v -0.02400 0.71000 -0.04330
v -0.01242 0.71000 -0.04830
v -0.00000 0.71000 -0.05000
v 0.01242 0.71000 -0.04830
v 0.02400 0.71000 -0.04330
v 0.03394 0.71000 -0.03536
v 0.04157 0.71000 -0.02500
v 0.04636 0.71000 -0.01294
vn 0.9894 0.1384 0.0448
vn 0.9417 0.1176 0.3153
vn 0.8241 0.0950 0.5584
vn 0.6508 0.0739 0.7556
vn 0.4389 0.0572 0.8967
vn 0.2042 0.0471 0.9778
vn -0.0400 0.0446 0.9982
vn -0.2824 0.0501 0.9580
vn -0.5111 0.0629 0.8572
vn -0.7122 0.0814 0.6972
vn -0.8692 0.1032 0.4837
vn -0.9653 0.1251 0.2294
vn -0.9885 0.1443 -0.0448
vn -0.9362 0.1587 -0.3135
vn -0.8161 0.1678 -0.5530
vn -0.6428 0.1725 -0.7464
vn -0.4329 0.1743 -0.8844
vn -0.2013 0.1749 -0.9638
vn 0.0394 0.1751 -0.9838
vn 0.2784 0.1753 -0.9443
vn 0.5043 0.1748 -0.8457
vn 0.7039 0.1724 -0.6891
vn 0.8617 0.1662 -0.4795
vn 0.9611 0.1550 -0.2284
vn 0.9899 0.1416 -0.0022
vn 0.9554 0.1217 0.2691
vn 0.8498 0.0995 0.5177
vn 0.6855 0.0780 0.7239
vn 0.4789 0.0603 0.8758
vn 0.2464 0.0487 0.9680
vn 0.0016 0.0447 0.9990
vn -0.2431 0.0486 0.9688
vn -0.4758 0.0601 0.8775
vn -0.6827 0.0778 0.7266
vn -0.8476 0.0992 0.5213
vn -0.9542 0.1214 0.2734
vn -0.9900 0.1413 0.0022
vn -0.9506 0.1568 -0.2678
vn -0.8420 0.1670 -0.5130
vn -0.6773 0.1725 -0.7153
vn -0.4724 0.1747 -0.8639
vn -0.2428 0.1752 -0.9541
vn -0.0016 0.1753 -0.9845
vn 0.2396 0.1753 -0.9549
vn 0.4693 0.1747 -0.8656
vn 0.6745 0.1726 -0.7179
vn 0.8398 0.1671 -0.5165
vn 0.9494 0.1570 -0.2720
vn 0.9919 0.1273 -0.0021
vn 0.9576 0.1073 0.2674
vn 0.8530 0.0847 0.5150
vn 0.6894 0.0627 0.7216
vn 0.4826 0.0445 0.8747
vn 0.2485 0.0325 0.9681
vn 0.0015 0.0283 0.9996
vn -0.2456 0.0326 0.9688
vn -0.4798 0.0446 0.8762
vn -0.6869 0.0628 0.7240
vn -0.8510 0.0847 0.5183
vn -0.9565 0.1072 0.2713
vn -0.9919 0.1271 0.0021
vn -0.9534 0.1423 -0.2662
vn -0.8461 0.1521 -0.5109
vn -0.6822 0.1573 -0.7140
vn -0.4769 0.1592 -0.8644
vn -0.2455 0.1596 -0.9562
vn -0.0015 0.1596 -0.9872
vn 0.2426 0.1597 -0.9569
vn 0.4741 0.1595 -0.8659
vn 0.6796 0.1577 -0.7164
vn 0.8441 0.1526 -0.5141
vn 0.9522 0.1427 -0.2701
vn 0.9954 0.0960 -0.0012
vn 0.9609 0.0762 0.2662
vn 0.8569 0.0538 0.5126
vn 0.6939 0.0318 0.7194
vn 0.4865 0.0134 0.8736
vn 0.2504 0.0012 0.9681
vn 0.0006 -0.0031 1.0000
vn -0.2492 0.0011 0.9684
vn -0.4852 0.0132 0.8743
vn -0.6926 0.0316 0.7206
vn -0.8559 0.0535 0.5144
vn -0.9603 0.0760 0.2684
vn -0.9954 0.0958 0.0012
vn -0.9578 0.1109 -0.2653
vn -0.8519 0.1207 -0.5096
vn -0.6887 0.1258 -0.7140
vn -0.4826 0.1276 -0.8665
vn -0.2484 0.1279 -0.9602
vn -0.0006 0.1278 -0.9918
vn 0.2472 0.1279 -0.9605
vn 0.4813 0.1276 -0.8672
vn 0.6875 0.1258 -0.7152
vn 0.8508 0.1208 -0.5113
vn 0.9571 0.1111 -0.2675
vn 0.9974 0.0722 -0.0013
vn 0.9632 0.0530 0.2636
vn 0.8605 0.0315 0.5086
vn 0.6985 0.0104 0.7155
vn 0.4910 -0.0073 0.8711
vn 0.2533 -0.0191 0.9672
vn 0.0007 -0.0232 0.9997
vn -0.2518 -0.0192 0.9676
vn -0.4895 -0.0076 0.8720
vn -0.6971 0.0100 0.7169
vn -0.8593 0.0311 0.5105
vn -0.9625 0.0527 0.2660
vn -0.9974 0.0720 0.0013
vn -0.9609 0.0872 -0.2630
vn -0.8568 0.0975 -0.5064
vn -0.6948 0.1033 -0.7117
vn -0.4883 0.1060 -0.8662
vn -0.2519 0.1068 -0.9619
vn -0.0007 0.1069 -0.9943
vn 0.2504 0.1067 -0.9622
vn 0.4868 0.1058 -0.8671
vn 0.6934 0.1032 -0.7131
vn 0.8556 0.0974 -0.5083
vn 0.9602 0.0872 -0.2653
vn 0.9982 0.0595 -0.0024
vn 0.9649 0.0395 0.2598
vn 0.8639 0.0170 0.5033
vn 0.7035 -0.0052 0.7107
vn 0.4962 -0.0239 0.8679
vn 0.2570 -0.0364 0.9657
vn 0.0018 -0.0407 0.9992
vn -0.2535 -0.0361 0.9667
vn -0.4929 -0.0236 0.8698
vn -0.7006 -0.0048 0.7136
vn -0.8617 0.0173 0.5072
vn -0.9636 0.0396 0.2643
vn -0.9982 0.0593 0.0024
vn -0.9629 0.0745 -0.2593
vn -0.8609 0.0847 -0.5016
vn -0.7007 0.0903 -0.7078
vn -0.4942 0.0927 -0.8644
vn -0.2560 0.0934 -0.9621
vn -0.0018 0.0936 -0.9956
vn 0.2525 0.0936 -0.9630
vn 0.4909 0.0931 -0.8663
vn 0.6977 0.0908 -0.7106
vn 0.8586 0.0852 -0.5054
vn 0.9617 0.0749 -0.2638
vn 0.9988 0.0489 -0.0030
vn 0.9663 0.0273 0.2559
vn 0.8674 0.0023 0.4976
vn 0.7088 -0.0229 0.7051
vn 0.5016 -0.0445 0.8639
vn 0.2606 -0.0591 0.9636
vn 0.0024 -0.0642 0.9979
vn -0.2560 -0.0590 0.9649
vn -0.4973 -0.0444 0.8665
vn -0.7050 -0.0228 0.7089
vn -0.8646 0.0023 0.5025
vn -0.9648 0.0272 0.2616
vn -0.9988 0.0488 0.0030
vn -0.9646 0.0649 -0.2554
vn -0.8650 0.0750 -0.4962
vn -0.7067 0.0800 -0.7030
vn -0.5004 0.0816 -0.8619
vn -0.2602 0.0815 -0.9621
vn -0.0024 0.0813 -0.9967
vn 0.2556 0.0816 -0.9633
vn 0.4961 0.0817 -0.8644
vn 0.7029 0.0802 -0.7068
vn 0.8621 0.0752 -0.5011
vn 0.9631 0.0650 -0.2612
vn 0.9992 0.0406 -0.0019
vn 0.9672 0.0179 0.2534
vn 0.8700 -0.0082 0.4929
vn 0.7130 -0.0346 0.7003
vn 0.5060 -0.0574 0.8606
vn 0.2630 -0.0729 0.9620
vn 0.0013 -0.0785 0.9969
vn -0.2604 -0.0732 0.9627
vn -0.5034 -0.0579 0.8621
vn -0.7107 -0.0352 0.7026
vn -0.8683 -0.0088 0.4960
vn -0.9662 0.0175 0.2570
vn -0.9992 0.0405 0.0019
vn -0.9657 0.0582 -0.2530
vn -0.8679 0.0699 -0.4917
vn -0.7114 0.0763 -0.6987
vn -0.5053 0.0789 -0.8594
vn -0.2629 0.0795 -0.9615
vn -0.0013 0.0794 -0.9968
vn 0.2603 0.0792 -0.9623
vn 0.5027 0.0785 -0.8609
vn 0.7091 0.0758 -0.7010
vn 0.8662 0.0694 -0.4948
vn 0.9648 0.0580 -0.2566
vn 0.9993 0.0374 -0.0005
vn 0.9677 0.0144 0.2516
vn 0.8721 -0.0116 0.4891
vn 0.7166 -0.0377 0.6964
vn 0.5097 -0.0602 0.8582
vn 0.2649 -0.0755 0.9613
vn 0.0000 -0.0809 0.9967
vn -0.2649 -0.0755 0.9613
vn -0.5095 -0.0602 0.8584
vn -0.7162 -0.0378 0.6968
vn -0.8717 -0.0117 0.4898
vn -0.9675 0.0143 0.2526
vn -0.9993 0.0373 0.0005
vn -0.9663 0.0554 -0.2512
vn -0.8702 0.0681 -0.4880
vn -0.7151 0.0759 -0.6949
vn -0.5090 0.0798 -0.8570
vn -0.2648 0.0814 -0.9609
vn -0.0000 0.0818 -0.9966
vn 0.2647 0.0814 -0.9609
vn 0.5088 0.0798 -0.8572
vn 0.7147 0.0759 -0.6953
vn 0.8698 0.0682 -0.4887
vn 0.9661 0.0555 -0.2522
vn 0.9983 0.0408 -0.0426
vn 0.9778 0.0191 0.2084
vn 0.8940 -0.0061 0.4481
vn 0.7493 -0.0323 0.6614
vn 0.5507 -0.0560 0.8328
vn 0.3102 -0.0731 0.9478
vn 0.0453 -0.0809 0.9957
vn -0.2232 -0.0776 0.9717
vn -0.4739 -0.0640 0.8783
vn -0.6880 -0.0424 0.7245
vn -0.8517 -0.0165 0.5237
vn -0.9566 0.0100 0.2914
vn -0.9985 0.0338 0.0426
vn -0.9766 0.0531 -0.2082
vn -0.8920 0.0669 -0.4471
vn -0.7476 0.0755 -0.6599
vn -0.5498 0.0799 -0.8315
vn -0.3100 0.0816 -0.9472
vn -0.0453 0.0817 -0.9956
vn 0.2231 0.0811 -0.9714
vn 0.4733 0.0794 -0.8773
vn 0.6866 0.0758 -0.7230
vn 0.8498 0.0689 -0.5225
vn 0.9550 0.0574 -0.2909
vt 0.6240 1.5800
vt 0.6198 1.5800
vt 0.6074 1.5800
vt 0.5877 1.5800
vt 0.5620 1.5800
vt 0.5321 1.5800
vt 0.5000 1.5800
vt 0.4679 1.5800
vt 0.4380 1.5800
vt 0.4123 1.5800
vt 0.3926 1.5800
vt 0.3802 1.5800
vt 0.3760 1.5800
vt 0.3802 1.5800
vt 0.3926 1.5800
vt 0.4123 1.5800
vt 0.4380 1.5800
vt 0.4679 1.5800
vt 0.5000 1.5800
vt 0.5321 1.5800
vt 0.5620 1.5800
vt 0.5877 1.5800
vt 0.6074 1.5800
vt 0.6198 1.5800
vt 0.6183 1.6200
vt 0.6142 1.6200
vt 0.6024 1.6200
vt 0.5836 1.6200
vt 0.5591 1.6200
vt 0.5306 1.6200
vt 0.5000 1.6200
vt 0.4694 1.6200
vt 0.4409 1.6200
vt 0.4164 1.6200
vt 0.3976 1.6200
vt 0.3858 1.6200
vt 0.3817 1.6200
vt 0.3858 1.6200
vt 0.3976 1.6200
vt 0.4164 1.6200
vt 0.4409 1.6200
vt 0.4694 1.6200
vt 0.5000 1.6200
vt 0.5306 1.6200
vt 0.5591 1.6200
vt 0.5836 1.6200
vt 0.6024 1.6200
vt 0.6142 1.6200
vt 0.6125 1.6600
vt 0.6087 1.6600
vt 0.5975 1.6600
vt 0.5796 1.6600
vt 0.5563 1.6600
vt 0.5291 1.6600
vt 0.5000 1.6600
vt 0.4709 1.6600
vt 0.4437 1.6600
vt 0.4204 1.6600
vt 0.4025 1.6600
vt 0.3913 1.6600
vt 0.3875 1.6600
vt 0.3913 1.6600
vt 0.4025 1.6600
vt 0.4204 1.6600
vt 0.4437 1.6600
vt 0.4709 1.6600
vt 0.5000 1.6600
vt 0.5291 1.6600
vt 0.5563 1.6600
vt 0.5796 1.6600
vt 0.5975 1.6600
vt 0.6087 1.6600
vt 0.6080 1.7000
vt 0.6043 1.7000
vt 0.5935 1.7000
vt 0.5764 1.7000
vt 0.5540 1.7000
vt 0.5280 1.7000
vt 0.5000 1.7000
vt 0.4720 1.7000
vt 0.4460 1.7000
vt 0.4236 1.7000
vt 0.4065 1.7000
vt 0.3957 1.7000
vt 0.3920 1.7000
vt 0.3957 1.7000
vt 0.4065 1.7000
vt 0.4236 1.7000
vt 0.4460 1.7000
vt 0.4720 1.7000
vt 0.5000 1.7000
vt 0.5280 1.7000
vt 0.5540 1.7000
vt 0.5764 1.7000
vt 0.5935 1.7000
vt 0.6043 1.7000
vt 0.6047 1.7408
vt 0.6012 1.7408
vt 0.5907 1.7408
vt 0.5741 1.7408
vt 0.5524 1.7408
vt 0.5271 1.7408
vt 0.5000 1.7408
vt 0.4729 1.7408
vt 0.4476 1.7408
vt 0.4259 1.7408
vt 0.4093 1.7408
vt 0.3988 1.7408
vt 0.3953 1.7408
vt 0.3988 1.7408
vt 0.4093 1.7408
vt 0.4259 1.7408
vt 0.4476 1.7408
vt 0.4729 1.7408
vt 0.5000 1.7408
vt 0.5271 1.7408
vt 0.5524 1.7408
vt 0.5741 1.7408
vt 0.5907 1.7408
vt 0.6012 1.7408
vt 0.6021 1.7816
vt 0.5986 1.7816
vt 0.5884 1.7816
vt 0.5722 1.7816
vt 0.5510 1.7816
vt 0.5264 1.7816
vt 0.5000 1.7816
vt 0.4736 1.7816
vt 0.4490 1.7816
vt 0.4278 1.7816
vt 0.4116 1.7816
vt 0.4014 1.7816
vt 0.3979 1.7816
vt 0.4014 1.7816
vt 0.4116 1.7816
vt 0.4278 1.7816
vt 0.4490 1.7816
vt 0.4736 1.7816
vt 0.5000 1.7816
vt 0.5264 1.7816
vt 0.5510 1.7816
vt 0.5722 1.7816
vt 0.5884 1.7816
vt 0.5986 1.7816
vt 0.6000 1.8200
vt 0.5966 1.8200
vt 0.5866 1.8200
vt 0.5707 1.8200
vt 0.5500 1.8200
vt 0.5259 1.8200
vt 0.5000 1.8200
vt 0.4741 1.8200
vt 0.4500 1.8200
vt 0.4293 1.8200
vt 0.4134 1.8200
vt 0.4034 1.8200
vt 0.4000 1.8200
vt 0.4034 1.8200
vt 0.4134 1.8200
vt 0.4293 1.8200
vt 0.4500 1.8200
vt 0.4741 1.8200
vt 0.5000 1.8200
vt 0.5259 1.8200
vt 0.5500 1.8200
vt 0.5707 1.8200
vt 0.5866 1.8200
vt 0.5966 1.8200
vt 0.5985 1.8547
vt 0.5951 1.8547
vt 0.5853 1.8547
vt 0.5696 1.8547
vt 0.5492 1.8547
vt 0.5255 1.8547
vt 0.5000 1.8547
vt 0.4745 1.8547
vt 0.4508 1.8547
vt 0.4304 1.8547
vt 0.4147 1.8547
vt 0.4049 1.8547
vt 0.4015 1.8547
vt 0.4049 1.8547
vt 0.4147 1.8547
vt 0.4304 1.8547
vt 0.4508 1.8547
vt 0.4745 1.8547
vt 0.5000 1.8547
vt 0.5255 1.8547
vt 0.5492 1.8547
vt 0.5696 1.8547
vt 0.5853 1.8547
vt 0.5951 1.8547
vt 0.5972 1.8873
vt 0.5939 1.8873
vt 0.5842 1.8873
vt 0.5688 1.8873
vt 0.5486 1.8873
vt 0.5252 1.8873
vt 0.5000 1.8873
vt 0.4748 1.8873
vt 0.4514 1.8873
vt 0.4312 1.8873
vt 0.4158 1.8873
vt 0.4061 1.8873
vt 0.4028 1.8873
vt 0.4061 1.8873
vt 0.4158 1.8873
vt 0.4312 1.8873
vt 0.4514 1.8873
vt 0.4748 1.8873
vt 0.5000 1.8873
vt 0.5252 1.8873
vt 0.5486 1.8873
vt 0.5688 1.8873
vt 0.5842 1.8873
vt 0.5939 1.8873
vt 0.5960 1.9200
vt 0.5927 1.9200
vt 0.5831 1.9200
vt 0.5679 1.9200
vt 0.5480 1.9200
vt 0.5248 1.9200
vt 0.5000 1.9200
vt 0.4752 1.9200
vt 0.4520 1.9200
vt 0.4321 1.9200
vt 0.4169 1.9200
vt 0.4073 1.9200
vt 0.4040 1.9200
vt 0.4073 1.9200
vt 0.4169 1.9200
vt 0.4321 1.9200
vt 0.4520 1.9200
vt 0.4752 1.9200
vt 0.5000 1.9200
vt 0.5248 1.9200
vt 0.5480 1.9200
vt 0.5679 1.9200
vt 0.5831 1.9200
vt 0.5927 1.9200
f 1/1/1 26/26/26 2/2/2
f 1/1/1 25/25/25 26/26/26
f 2/2/2 27/27/27 3/3/3
f 2/2/2 26/26/26 27/27/27
f 3/3/3 28/28/28 4/4/4
f 3/3/3 27/27/27 28/28/28
f 4/4/4 29/29/29 5/5/5
f 4/4/4 28/28/28 29/29/29
f 5/5/5 30/30/30 6/6/6
f 5/5/5 29/29/29 30/30/30
f 6/6/6 31/31/31 7/7/7
f 6/6/6 30/30/30 31/31/31
f 7/7/7 32/32/32 8/8/8
f 7/7/7 31/31/31 32/32/32
f 8/8/8 33/33/33 9/9/9
f 8/8/8 32/32/32 33/33/33
f 9/9/9 34/34/34 10/10/10
f 9/9/9 33/33/33 34/34/34
f 10/10/10 35/35/35 11/11/11
f 10/10/10 34/34/34 35/35/35
f 11/11/11 36/36/36 12/12/12
f 11/11/11 35/35/35 36/36/36
f 12/12/12 37/37/37 13/13/13
f 12/12/12 36/36/36 37/37/37
f 13/13/13 38/38/38 14/14/14
f 13/13/13 37/37/37 38/38/38
f 14/14/14 39/39/39 15/15/15
f 14/14/14 38/38/38 39/39/39
f 15/15/15 40/40/40 16/16/16
f 15/15/15 39/39/39 40/40/40
f 16/16/16 41/41/41 17/17/17
f 16/16/16 40/40/40 41/41/41
f 17/17/17 42/42/42 18/18/18
f 17/17/17 41/41/41 42/42/42
f 18/18/18 43/43/43 19/19/19
f 18/18/18 42/42/42 43/43/43
f 19/19/19 44/44/44 20/20/20
f 19/19/19 43/43/43 44/44/44
f 20/20/20 45/45/45 21/21/21
f 20/20/20 44/44/44 45/45/45
f 21/21/21 46/46/46 22/22/22
f 21/21/21 45/45/45 46/46/46
f 22/22/22 47/47/47 23/23/23
f 22/22/22 46/46/46 47/47/47
f 23/23/23 48/48/48 24/24/24
f 23/23/23 47/47/47 48/48/48
f 24/24/24 25/25/25 1/1/1
f 24/24/24 48/48/48 25/25/25
f 25/25/25 50/50/50 26/26/26
f 25/25/25 49/49/49 50/50/50
f 26/26/26 51/51/51 27/27/27
f 26/26/26 50/50/50 51/51/51
f 27/27/27 52/52/52 28/28/28
f 27/27/27 51/51/51 52/52/52
f 28/28/28 53/53/53 29/29/29
f 28/28/28 52/52/52 53/53/53
f 29/29/29 54/54/54 30/30/30
f 29/29/29 53/53/53 54/54/54
f 30/30/30 55/55/55 31/31/31
f 30/30/30 54/54/54 55/55/55
f 31/31/31 56/56/56 32/32/32
f 31/31/31 55/55/55 56/56/56
f 32/32/32 57/57/57 33/33/33
f 32/32/32 56/56/56 57/57/57
f 33/33/33 58/58/58 34/34/34
f 33/33/33 57/57/57 58/58/58
f 34/34/34 59/59/59 35/35/35
f 34/34/34 58/58/58 59/59/59
f 35/35/35 60/60/60 36/36/36
f 35/35/35 59/59/59 60/60/60
f 36/36/36 61/61/61 37/37/37
f 36/36/36 60/60/60 61/61/61
f 37/37/37 62/62/62 38/38/38
f 37/37/37 61/61/61 62/62/62
f 38/38/38 63/63/63 39/39/39
f 38/38/38 62/62/62 63/63/63
f 39/39/39 64/64/64 40/40/40
f 39/39/39 63/63/63 64/64/64
f 40/40/40 65/65/65 41/41/41
f 40/40/40 64/64/64 65/65/65
f 41/41/41 66/66/66 42/42/42
f 41/41/41 65/65/65 66/66/66
f 42/42/42 67/67/67 43/43/43
f 42/42/42 66/66/66 67/67/67
f 43/43/43 68/68/68 44/44/44
f 43/43/43 67/67/67 68/68/68
f 44/44/44 69/69/69 45/45/45
f 44/44/44 68/68/68 69/69/69
f 45/45/45 70/70/70 46/46/46
f 45/45/45 69/69/69 70/70/70
f 46/46/46 71/71/71 47/47/47
f 46/46/46 70/70/70 71/71/71
f 47/47/47 72/72/72 48/48/48
f 47/47/47 71/71/71 72/72/72
f 48/48/48 49/49/49 25/25/25
f 48/48/48 72/72/72 49/49/49
f 49/49/49 74/74/74 50/50/50
f 49/49/49 73/73/73 74/74/74
f 50/50/50 75/75/75 51/51/51
f 50/50/50 74/74/74 75/75/75
f 51/51/51 76/76/76 52/52/52
f 51/51/51 75/75/75 76/76/76
f 52/52/52 77/77/77 53/53/53
f 52/52/52 76/76/76 77/77/77
f 53/53/53 78/78/78 54/54/54
f 53/53/53 77/77/77 78/78/78
f 54/54/54 79/79/79 55/55/55
f 54/54/54 78/78/78 79/79/79
f 55/55/55 80/80/80 56/56/56
f 55/55/55 79/79/79 80/80/80
f 56/56/56 81/81/81 57/57/57
f 56/56/56 80/80/80 81/81/81
f 57/57/57 82/82/82 58/58/58
f 57/57/57 81/81/81 82/82/82
f 58/58/58 83/83/83 59/59/59
f 58/58/58 82/82/82 83/83/83
f 59/59/59 84/84/84 60/60/60
f 59/59/59 83/83/83 84/84/84
f 60/60/60 85/85/85 61/61/61
f 60/60/60 84/84/84 85/85/85
f 61/61/61 86/86/86 62/62/62
f 61/61/61 85/85/85 86/86/86
f 62/62/62 87/87/87 63/63/63
f 62/62/62 86/86/86 87/87/87
f 63/63/63 88/88/88 64/64/64
f 63/63/63 87/87/87 88/88/88
f 64/64/64 89/89/89 65/65/65
f 64/64/64 88/88/88 89/89/89
f 65/65/65 90/90/90 66/66/66
f 65/65/65 89/89/89 90/90/90
f 66/66/66 91/91/91 67/67/67
f 66/66/66 90/90/90 91/91/91
f 67/67/67 92/92/92 68/68/68
f 67/67/67 91/91/91 92/92/92
f 68/68/68 93/93/93 69/69/69
f 68/68/68 92/92/92 93/93/93
f 69/69/69 94/94/94 70/70/70
f 69/69/69 93/93/93 94/94/94
f 70/70/70 95/95/95 71/71/71
f 70/70/70 94/94/94 95/95/95
f 71/71/71 96/96/96 72/72/72
f 71/71/71 95/95/95 96/96/96
f 72/72/72 73/73/73 49/49/49
f 72/72/72 96/96/96 73/73/73
f 73/73/73 98/98/98 74/74/74
f 73/73/73 97/97/97 98/98/98
f 74/74/74 99/99/99 75/75/75
f 74/74/74 98/98/98 99/99/99
f 75/75/75 100/100/100 76/76/76
f 75/75/75 99/99/99 100/100/100
f 76/76/76 101/101/101 77/77/77
f 76/76/76 100/100/100 101/101/101
f 77/77/77 102/102/102 78/78/78
f 77/77/77 101/101/101 102/102/102
f 78/78/78 103/103/103 79/79/79
f 78/78/78 102/102/102 103/103/103
f 79/79/79 104/104/104 80/80/80
f 79/79/79 103/103/103 104/104/104
f 80/80/80 105/105/105 81/81/81
f 80/80/80 104/104/104 105/105/105
f 81/81/81 106/106/106 82/82/82
f 81/81/81 105/105/105 106/106/106
f 82/82/82 107/107/107 83/83/83
f 82/82/82 106/106/106 107/107/107
f 83/83/83 108/108/108 84/84/84
f 83/83/83 107/107/107 108/108/108
f 84/84/84 109/109/109 85/85/85
f 84/84/84 108/108/108 109/109/109
f 85/85/85 110/110/110 86/86/86
f 85/85/85 109/109/109 110/110/110
f 86/86/86 111/111/111 87/87/87
f 86/86/86 110/110/110 111/111/111
f 87/87/87 112/112/112 88/88/88
f 87/87/87 111/111/111 112/112/112
f 88/88/88 113/113/113 89/89/89
f 88/88/88 112/112/112 113/113/113
f 89/89/89 114/114/114 90/90/90
f 89/89/89 113/113/113 114/114/114
f 90/90/90 115/115/115 91/91/91
f 90/90/90 114/114/114 115/115/115
f 91/91/91 116/116/116 92/92/92
f 91/91/91 115/115/115 116/116/116
f 92/92/92 117/117/117 93/93/93
f 92/92/92 116/116/116 117/117/117
f 93/93/93 118/118/118 94/94/94
f 93/93/93 117/117/117 118/118/118
f 94/94/94 119/119/119 95/95/95
f 94/94/94 118/118/118 119/119/119
f 95/95/95 120/120/120 96/96/96
f 95/95/95 119/119/119 120/120/120
f 96/96/96 97/97/97 73/73/73
f 96/96/96 120/120/120 97/97/97
f 97/97/97 122/122/122 98/98/98
f 97/97/97 121/121/121 122/122/122
f 98/98/98 123/123/123 99/99/99
f 98/98/98 122/122/122 123/123/123
f 99/99/99 124/124/124 100/100/100
f 99/99/99 123/123/123 124/124/124
f 100/100/100 125/125/125 101/101/101
f 100/100/100 124/124/124 125/125/125
f 101/101/101 126/126/126 102/102/102
f 101/101/101 125/125/125 126/126/126
f 102/102/102 127/127/127 103/103/103
f 102/102/102 126/126/126 127/127/127
f 103/103/103 128/128/128 104/104/104
f 103/103/103 127/127/127 128/128/128
f 104/104/104 129/129/129 105/105/105
f 104/104/104 128/128/128 129/129/129
f 105/105/105 130/130/130 106/106/106
f 105/105/105 129/129/129 130/130/130
f 106/106/106 131/131/131 107/107/107
f 106/106/106 130/130/130 131/131/131
f 107/107/107 132/132/132 108/108/108
f 107/107/107 131/131/131 132/132/132
f 108/108/108 133/133/133 109/109/109
f 108/108/108 132/132/132 133/133/133
f 109/109/109 134/134/134 110/110/110
f 109/109/109 133/133/133 134/134/134
f 110/110/110 135/135/135 111/111/111
f 110/110/110 134/134/134 135/135/135
f 111/111/111 136/136/136 112/112/112
f 111/111/111 135/135/135 136/136/136
f 112/112/112 137/137/137 113/113/113
f 112/112/112 136/136/136 137/137/137
f 113/113/113 138/138/138 114/114/114
f 113/113/113 137/137/137 138/138/138
f 114/114/114 139/139/139 115/115/115
f 114/114/114 138/138/138 139/139/139
f 115/115/115 140/140/140 116/116/116
f 115/115/115 139/139/139 140/140/140
f 116/116/116 141/141/141 117/117/117
f 116/116/116 140/140/140 141/141/141
f 117/117/117 142/142/142 118/118/118
f 117/117/117 141/141/141 142/142/142
f 118/118/118 143/143/143 119/119/119
f 118/118/118 142/142/142 143/143/143
f 119/119/119 144/144/144 120/120/120
f 119/119/119 143/143/143 144/144/144
f 120/120/120 121/121/121 97/97/97
f 120/120/120 144/144/144 121/121/121
f 121/121/121 146/146/146 122/122/122
f 121/121/121 145/145/145 146/146/146
f 122/122/122 147/147/147 123/123/123
f 122/122/122 146/146/146 147/147/147
f 123/123/123 148/148/148 124/124/124
f 123/123/123 147/147/147 148/148/148
f 124/124/124 149/149/149 125/125/125
f 124/124/124 148/148/148 149/149/149
f 125/125/125 150/150/150 126/126/126
f 125/125/125 149/149/149 150/150/150
f 126/126/126 151/151/151 127/127/127
f 126/126/126 150/150/150 151/151/151
f 127/127/127 152/152/152 128/128/128
f 127/127/127 151/151/151 152/152/152
f 128/128/128 153/153/153 129/129/129
f 128/128/128 152/152/152 153/153/153
f 129/129/129 154/154/154 130/130/130
f 129/129/129 153/153/153 154/154/154
f 130/130/130 155/155/155 131/131/131
f 130/130/130 154/154/154 155/155/155
f 131/131/131 156/156/156 132/132/132
f 131/131/131 155/155/155 156/156/156
f 132/132/132 157/157/157 133/133/133
f 132/132/132 156/156/156 157/157/157
f 133/133/133 158/158/158 134/134/134
f 133/133/133 157/157/157 158/158/158
f 134/134/134 159/159/159 135/135/135
f 134/134/134 158/158/158 159/159/159
f 135/135/135 160/160/160 136/136/136
f 135/135/135 159/159/159 160/160/160
f 136/136/136 161/161/161 137/137/137
f 136/136/136 160/160/160 161/161/161
f 137/137/137 162/162/162 138/138/138
f 137/137/137 161/161/161 162/162/162
f 138/138/138 163/163/163 139/139/139
f 138/138/138 162/162/162 163/163/163
f 139/139/139 164/164/164 140/140/140
f 139/139/139 163/163/163 164/164/164
f 140/140/140 165/165/165 141/141/141
f 140/140/140 164/164/164 165/165/165
f 141/141/141 166/166/166 142/142/142
f 141/141/141 165/165/165 166/166/166
f 142/142/142 167/167/167 143/143/143
f 142/142/142 166/166/166 167/167/167
f 143/143/143 168/168/168 144/144/144
f 143/143/143 167/167/167 168/168/168
f 144/144/144 145/145/145 121/121/121
f 144/144/144 168/168/168 145/145/145
f 145/145/145 170/170/170 146/146/146
f 145/145/145 169/169/169 170/170/170
f 146/146/146 171/171/171 147/147/147
f 146/146/146 170/170/170 171/171/171
f 147/147/147 172/172/172 148/148/148
f 147/147/147 171/171/171 172/172/172
f 148/148/148 173/173/173 149/149/149
f 148/148/148 172/172/172 173/173/173
f 149/149/149 174/174/174 150/150/150
f 149/149/149 173/173/173 174/174/174
f 150/150/150 175/175/175 151/151/151
f 150/150/150 174/174/174 175/175/175
f 151/151/151 176/176/176 152/152/152
f 151/151/151 175/175/175 176/176/176
f 152/152/152 177/177/177 153/153/153
f 152/152/152 176/176/176 177/177/177
f 153/153/153 178/178/178 154/154/154
f 153/153/153 177/177/177 178/178/178
f 154/154/154 179/179/179 155/155/155
f 154/154/154 178/178/178 179/179/179
f 155/155/155 180/180/180 156/156/156
f 155/155/155 179/179/179 180/180/180
f 156/156/156 181/181/181 157/157/157
f 156/156/156 180/180/180 181/181/181
f 157/157/157 182/182/182 158/158/158
f 157/157/157 181/181/181 182/182/182
f 158/158/158 183/183/183 159/159/159
f 158/158/158 182/182/182 183/183/183
f 159/159/159 184/184/184 160/160/160
f 159/159/159 183/183/183 184/184/184
f 160/160/160 185/185/185 161/161/161
f 160/160/160 184/184/184 185/185/185
f 161/161/161 186/186/186 162/162/162
f 161/161/161 185/185/185 186/186/186
f 162/162/162 187/187/187 163/163/163
f 162/162/162 186/186/186 187/187/187
f 163/163/163 188/188/188 164/164/164
f 163/163/163 187/187/187 188/188/188
f 164/164/164 189/189/189 165/165/165
f 164/164/164 188/188/188 189/189/189
f 165/165/165 190/190/190 166/166/166
f 165/165/165 189/189/189 190/190/190
f 166/166/166 191/191/191 167/167/167
f 166/166/166 190/190/190 191/191/191
f 167/167/167 192/192/192 168/168/168
f 167/167/167 191/191/191 192/192/192
f 168/168/168 169/169/169 145/145/145
f 168/168/168 192/192/192 169/169/169
f 169/169/169 194/194/194 170/170/170
f 169/169/169 193/193/193 194/194/194
f 170/170/170 195/195/195 171/171/171
f 170/170/170 194/194/194 195/195/195
f 171/171/171 196/196/196 172/172/172
f 171/171/171 195/195/195 196/196/196
f 172/172/172 197/197/197 173/173/173
f 172/172/172 196/196/196 197/197/197
f 173/173/173 198/198/198 174/174/174
f 173/173/173 197/197/197 198/198/198
f 174/174/174 199/199/199 175/175/175
f 174/174/174 198/198/198 199/199/199
f 175/175/175 200/200/200 176/176/176
f 175/175/175 199/199/199 200/200/200
f 176/176/176 201/201/201 177/177/177
f 176/176/176 200/200/200 201/201/201
f 177/177/177 202/202/202 178/178/178
f 177/177/177 201/201/201 202/202/202
f 178/178/178 203/203/203 179/179/179
f 178/178/178 202/202/202 203/203/203
f 179/179/179 204/204/204 180/180/180
f 179/179/179 203/203/203 204/204/204
f 180/180/180 205/205/205 181/181/181
f 180/180/180 204/204/204 205/205/205
f 181/181/181 206/206/206 182/182/182
f 181/181/181 205/205/205 206/206/206
f 182/182/182 207/207/207 183/183/183
f 182/182/182 206/206/206 207/207/207
f 183/183/183 208/208/208 184/184/184
f 183/183/183 207/207/207 208/208/208
f 184/184/184 209/209/209 185/185/185
f 184/184/184 208/208/208 209/209/209
f 185/185/185 210/210/210 186/186/186
f 185/185/185 209/209/209 210/210/210
f 186/186/186 211/211/211 187/187/187
f 186/186/186 210/210/210 211/211/211
f 187/187/187 212/212/212 188/188/188
f 187/187/187 211/211/211 212/212/212
f 188/188/188 213/213/213 189/189/189
f 188/188/188 212/212/212 213/213/213
f 189/189/189 214/214/214 190/190/190
f 189/189/189 213/213/213 214/214/214
f 190/190/190 215/215/215 191/191/191
f 190/190/190 214/214/214 215/215/215
f 191/191/191 216/216/216 192/192/192
f 191/191/191 215/215/215 216/216/216
f 192/192/192 193/193/193 169/169/169
f 192/192/192 216/216/216 193/193/193
f 193/193/193 218/218/218 194/194/194
f 193/193/193 217/217/217 218/218/218
f 194/194/194 219/219/219 195/195/195
f 194/194/194 218/218/218 219/219/219
f 195/195/195 220/220/220 196/196/196
f 195/195/195 219/219/219 220/220/220
f 196/196/196 221/221/221 197/197/197
f 196/196/196 220/220/220 221/221/221
f 197/197/197 222/222/222 198/198/198
f 197/197/197 221/221/221 222/222/222
f 198/198/198 223/223/223 199/199/199
f 198/198/198 222/222/222 223/223/223
f 199/199/199 224/224/224 200/200/200
f 199/199/199 223/223/223 224/224/224
f 200/200/200 225/225/225 201/201/201
f 200/200/200 224/224/224 225/225/225
f 201/201/201 226/226/226 202/202/202
f 201/201/201 225/225/225 226/226/226
f 202/202/202 227/227/227 203/203/203
f 202/202/202 226/226/226 227/227/227
f 203/203/203 228/228/228 204/204/204
f 203/203/203 227/227/227 228/228/228
f 204/204/204 229/229/229 205/205/205
f 204/204/204 228/228/228 229/229/229
f 205/205/205 230/230/230 206/206/206
f 205/205/205 229/229/229 230/230/230
f 206/206/206 231/231/231 207/207/207
f 206/206/206 230/230/230 231/231/231
f 207/207/207 232/232/232 208/208/208
f 207/207/207 231/231/231 232/232/232
f 208/208/208 233/233/233 209/209/209
f 208/208/208 232/232/232 233/233/233
f 209/209/209 234/234/234 210/210/210
f 209/209/209 233/233/233 234/234/234
f 210/210/210 235/235/235 211/211/211
f 210/210/210 234/234/234 235/235/235
f 211/211/211 236/236/236 212/212/212
f 211/211/211 235/235/235 236/236/236
f 212/212/212 237/237/237 213/213/213
f 212/212/212 236/236/236 237/237/237
f 213/213/213 238/238/238 214/214/214
f 213/213/213 237/237/237 238/238/238
f 214/214/214 239/239/239 215/215/215
f 214/214/214 238/238/238 239/239/239
f 215/215/215 240/240/240 216/216/216
f 215/215/215 239/239/239 240/240/240
f 216/216/216 217/217/217 193/193/193
f 216/216/216 240/240/240 217/217/217
