# procedural placeholder mesh: sheep_leg
v 0.06000 0.00000 0.00000
v 0.05543 0.00000 0.02373
v 0.04243 0.00000 0.04384
v 0.02296 0.00000 0.05728
v 0.00000 0.00000 0.06200
v -0.02296 0.00000 0.05728
v -0.04243 0.00000 0.04384
v -0.05543 0.00000 0.02373
v -0.06000 0.00000 0.00000
v -0.05543 0.00000 -0.02373
v -0.04243 0.00000 -0.04384
v -0.02296 0.00000 -0.05728
v -0.00000 0.00000 -0.06200
v 0.02296 0.00000 -0.05728
v 0.04243 0.00000 -0.04384
v 0.05543 0.00000 -0.02373
v 0.05862 -0.03846 0.00000
v 0.05416 -0.03846 0.02320
v 0.04145 -0.03846 0.04286
v 0.02243 -0.03846 0.05600
v 0.00000 -0.03846 0.06062
v -0.02243 -0.03846 0.05600
v -0.04145 -0.03846 0.04286
v -0.05416 -0.03846 0.02320
v -0.05862 -0.03846 0.00000
v -0.05416 -0.03846 -0.02320
v -0.04145 -0.03846 -0.04286
v -0.02243 -0.03846 -0.05600
v -0.00000 -0.03846 -0.06062
v 0.02243 -0.03846 -0.05600
v 0.04145 -0.03846 -0.04286
v 0.05416 -0.03846 -0.02320
v 0.05716 -0.07692 0.00000
v 0.05281 -0.07692 0.02264
v 0.04042 -0.07692 0.04183
v 0.02187 -0.07692 0.05465
v 0.00000 -0.07692 0.05916
v -0.02187 -0.07692 0.05465
v -0.04042 -0.07692 0.04183
v -0.05281 -0.07692 0.02264
v -0.05716 -0.07692 0.00000
v -0.05281 -0.07692 -0.02264
v -0.04042 -0.07692 -0.04183
v -0.02187 -0.07692 -0.05465
v -0.00000 -0.07692 -0.05916
v 0.02187 -0.07692 -0.05465
v 0.04042 -0.07692 -0.04183
v 0.05281 -0.07692 -0.02264
v 0.05473 -0.11624 0.00025
v 0.05057 -0.11624 0.02197
v 0.03870 -0.11624 0.04037
v 0.02095 -0.11624 0.05267
v 0.00000 -0.11624 0.05699
v -0.02095 -0.11624 0.05267
v -0.03870 -0.11624 0.04037
v -0.05057 -0.11624 0.02197
v -0.05473 -0.11624 0.00025
v -0.05057 -0.11624 -0.02146
v -0.03870 -0.11624 -0.03986
v -0.02095 -0.11624 -0.05216
v -0.00000 -0.11624 -0.05648
v 0.02095 -0.11624 -0.05216
v 0.03870 -0.11624 -0.03986
v 0.05057 -0.11624 -0.02146
v 0.04977 -0.15958 0.00223
v 0.04598 -0.15958 0.02204
v 0.03519 -0.15958 0.03884
v 0.01905 -0.15958 0.05006
v 0.00000 -0.15958 0.05400
v -0.01905 -0.15958 0.05006
v -0.03519 -0.15958 0.03884
v -0.04598 -0.15958 0.02204
v -0.04977 -0.15958 0.00223
v -0.04598 -0.15958 -0.01758
v -0.03519 -0.15958 -0.03438
v -0.01905 -0.15958 -0.04560
v -0.00000 -0.15958 -0.04954
v 0.01905 -0.15958 -0.04560
v 0.03519 -0.15958 -0.03438
v 0.04598 -0.15958 -0.01758
v 0.04614 -0.19512 0.00393
v 0.04263 -0.19512 0.02235
v 0.03262 -0.19512 0.03797
v 0.01766 -0.19512 0.04841
v 0.00000 -0.19512 0.05207
v -0.01766 -0.19512 0.04841
v -0.03262 -0.19512 0.03797
v -0.04263 -0.19512 0.02235
v -0.04614 -0.19512 0.00393
v -0.04263 -0.19512 -0.01449
v -0.03262 -0.19512 -0.03011
v -0.01766 -0.19512 -0.04054
v -0.00000 -0.19512 -0.04420
v 0.01766 -0.19512 -0.04054
v 0.03262 -0.19512 -0.03011
v 0.04263 -0.19512 -0.01449
v 0.04690 -0.21383 0.00400
v 0.04333 -0.21383 0.02254
v 0.03317 -0.21383 0.03826
v 0.01795 -0.21383 0.04876
v 0.00000 -0.21383 0.05245
v -0.01795 -0.21383 0.04876
v -0.03317 -0.21383 0.03826
v -0.04333 -0.21383 0.02254
v -0.04690 -0.21383 0.00400
v -0.04333 -0.21383 -0.01454
v -0.03317 -0.21383 -0.03026
v -0.01795 -0.21383 -0.04076
v -0.00000 -0.21383 -0.04445
v 0.01795 -0.21383 -0.04076
v 0.03317 -0.21383 -0.03026
v 0.04333 -0.21383 -0.01454
v 0.04910 -0.22655 0.00400
v 0.04536 -0.22655 0.02296
v 0.03472 -0.22655 0.03904
v 0.01879 -0.22655 0.04978
v 0.00000 -0.22655 0.05355
v -0.01879 -0.22655 0.04978
v -0.03472 -0.22655 0.03904
v -0.04536 -0.22655 0.02296
v -0.04910 -0.22655 0.00400
v -0.04536 -0.22655 -0.01496
v -0.03472 -0.22655 -0.03104
v -0.01879 -0.22655 -0.04178
v -0.00000 -0.22655 -0.04555
v 0.01879 -0.22655 -0.04178
v 0.03472 -0.22655 -0.03104
v 0.04536 -0.22655 -0.01496
v 0.04983 -0.24484 0.00400
v 0.04604 -0.24484 0.02307
v 0.03524 -0.24484 0.03924
v 0.01907 -0.24484 0.05004
v 0.00000 -0.24484 0.05383
v -0.01907 -0.24484 0.05004
v -0.03524 -0.24484 0.03924
v -0.04604 -0.24484 0.02307
v -0.04983 -0.24484 0.00400
v -0.04604 -0.24484 -0.01507
v -0.03524 -0.24484 -0.03124
v -0.01907 -0.24484 -0.04204
v -0.00000 -0.24484 -0.04583
v 0.01907 -0.24484 -0.04204
v 0.03524 -0.24484 -0.03124
v 0.04604 -0.24484 -0.01507
v 0.04558 -0.28088 0.00400
v 0.04211 -0.28088 0.02144
v 0.03223 -0.28088 0.03623
v 0.01744 -0.28088 0.04611
v 0.00000 -0.28088 0.04958
v -0.01744 -0.28088 0.04611
v -0.03223 -0.28088 0.03623
v -0.04211 -0.28088 0.02144
v -0.04558 -0.28088 0.00400
v -0.04211 -0.28088 -0.01344
v -0.03223 -0.28088 -0.02823
v -0.01744 -0.28088 -0.03811
v -0.00000 -0.28088 -0.04158
v 0.01744 -0.28088 -0.03811
v 0.03223 -0.28088 -0.02823
v 0.04211 -0.28088 -0.01344
v 0.04064 -0.31927 0.00400
v 0.03754 -0.31927 0.01955
v 0.02873 -0.31927 0.03273
v 0.01555 -0.31927 0.04154
v 0.00000 -0.31927 0.04464
v -0.01555 -0.31927 0.04154
v -0.02873 -0.31927 0.03273
v -0.03754 -0.31927 0.01955
v -0.04064 -0.31927 0.00400
v -0.03754 -0.31927 -0.01155
v -0.02873 -0.31927 -0.02473
v -0.01555 -0.31927 -0.03354
v -0.00000 -0.31927 -0.03664
v 0.01555 -0.31927 -0.03354
v 0.02873 -0.31927 -0.02473
v 0.03754 -0.31927 -0.01155
v 0.04000 -0.34133 0.00438
v 0.03696 -0.34133 0.01976
v 0.02828 -0.34133 0.03279
v 0.01531 -0.34133 0.04151
v 0.00000 -0.34133 0.04457
v -0.01531 -0.34133 0.04151
v -0.02828 -0.34133 0.03279
v -0.03696 -0.34133 0.01976
v -0.04000 -0.34133 0.00438
v -0.03696 -0.34133 -0.01100
v -0.02828 -0.34133 -0.02404
v -0.01531 -0.34133 -0.03275
v -0.00000 -0.34133 -0.03581
v 0.01531 -0.34133 -0.03275
v 0.02828 -0.34133 -0.02404
v 0.03696 -0.34133 -0.01100
v 0.04000 -0.35602 0.00610
v 0.03696 -0.35602 0.02181
v 0.02828 -0.35602 0.03512
v 0.01531 -0.35602 0.04402
v 0.00000 -0.35602 0.04715
v -0.01531 -0.35602 0.04402
v -0.02828 -0.35602 0.03512
v -0.03696 -0.35602 0.02181
v -0.04000 -0.35602 0.00610
v -0.03696 -0.35602 -0.00961
v -0.02828 -0.35602 -0.02293
v -0.01531 -0.35602 -0.03183
v -0.00000 -0.35602 -0.03495
v 0.01531 -0.35602 -0.03183
v 0.02828 -0.35602 -0.02293
v 0.03696 -0.35602 -0.00961
v 0.04000 -0.37000 0.00800
v 0.03696 -0.37000 0.02407
v 0.02828 -0.37000 0.03770
v 0.01531 -0.37000 0.04680
v 0.00000 -0.37000 0.05000
v -0.01531 -0.37000 0.04680
v -0.02828 -0.37000 0.03770
v -0.03696 -0.37000 0.02407
v -0.04000 -0.37000 0.00800
v -0.03696 -0.37000 -0.00807
v -0.02828 -0.37000 -0.02170
v -0.01531 -0.37000 -0.03080
v -0.00000 -0.37000 -0.03400
v 0.01531 -0.37000 -0.03080
v 0.02828 -0.37000 -0.02170
v 0.03696 -0.37000 -0.00807
v 0.00000 -0.37000 0.00800
vn 0.9974 -0.0358 0.0630
vn 0.9021 -0.0358 0.4301
vn 0.6713 -0.0358 0.7403
vn 0.3311 -0.0358 0.9429
vn -0.0673 -0.0359 0.9971
vn -0.4536 -0.0359 0.8905
vn -0.7619 -0.0359 0.6467
vn -0.9494 -0.0358 0.3121
vn -0.9974 -0.0358 -0.0630
vn -0.9021 -0.0358 -0.4301
vn -0.6713 -0.0358 -0.7403
vn -0.3311 -0.0358 -0.9429
vn 0.0673 -0.0359 -0.9971
vn 0.4536 -0.0359 -0.8905
vn 0.7619 -0.0359 -0.6467
vn 0.9494 -0.0358 -0.3121
vn 0.9993 -0.0369 -0.0016
vn 0.9282 -0.0369 0.3701
vn 0.7195 -0.0369 0.6935
vn 0.3949 -0.0369 0.9180
vn 0.0016 -0.0370 0.9993
vn -0.3920 -0.0369 0.9192
vn -0.7173 -0.0369 0.6958
vn -0.9271 -0.0369 0.3730
vn -0.9993 -0.0369 0.0016
vn -0.9282 -0.0369 -0.3701
vn -0.7195 -0.0369 -0.6935
vn -0.3949 -0.0369 -0.9180
vn -0.0016 -0.0370 -0.9993
vn 0.3920 -0.0369 -0.9192
vn 0.7173 -0.0369 -0.6958
vn 0.9271 -0.0369 -0.3730
vn 0.9988 -0.0495 -0.0015
vn 0.9279 -0.0483 0.3697
vn 0.7194 -0.0473 0.6930
vn 0.3950 -0.0467 0.9175
vn 0.0015 -0.0466 0.9989
vn -0.3922 -0.0469 0.9187
vn -0.7173 -0.0477 0.6951
vn -0.9268 -0.0487 0.3725
vn -0.9988 -0.0499 0.0015
vn -0.9278 -0.0511 -0.3697
vn -0.7193 -0.0521 -0.6928
vn -0.3949 -0.0528 -0.9172
vn -0.0015 -0.0530 -0.9986
vn 0.3921 -0.0527 -0.9184
vn 0.7172 -0.0519 -0.6949
vn 0.9267 -0.0508 -0.3724
vn 0.9962 -0.0872 -0.0013
vn 0.9263 -0.0775 0.3687
vn 0.7189 -0.0692 0.6916
vn 0.3950 -0.0638 0.9165
vn 0.0012 -0.0622 0.9981
vn -0.3927 -0.0649 0.9174
vn -0.7171 -0.0711 0.6933
vn -0.9252 -0.0798 0.3710
vn -0.9960 -0.0896 0.0013
vn -0.9245 -0.0991 -0.3680
vn -0.7165 -0.1073 -0.6893
vn -0.3932 -0.1129 -0.9125
vn -0.0012 -0.1146 -0.9934
vn 0.3910 -0.1121 -0.9135
vn 0.7149 -0.1058 -0.6912
vn 0.9238 -0.0971 -0.3704
vn 0.9940 -0.1089 -0.0117
vn 0.9294 -0.0919 0.3574
vn 0.7270 -0.0770 0.6823
vn 0.4061 -0.0665 0.9114
vn 0.0125 -0.0625 0.9980
vn -0.3833 -0.0661 0.9213
vn -0.7102 -0.0762 0.6998
vn -0.9207 -0.0910 0.3795
vn -0.9941 -0.1079 0.0117
vn -0.9260 -0.1249 -0.3561
vn -0.7220 -0.1397 -0.6776
vn -0.4024 -0.1501 -0.9031
vn -0.0124 -0.1540 -0.9880
vn 0.3798 -0.1505 -0.9128
vn 0.7053 -0.1404 -0.6949
vn 0.9172 -0.1257 -0.3781
vn 0.9982 -0.0556 -0.0222
vn 0.9363 -0.0452 0.3482
vn 0.7367 -0.0373 0.6752
vn 0.4177 -0.0317 0.9080
vn 0.0242 -0.0287 0.9993
vn -0.3738 -0.0286 0.9271
vn -0.7047 -0.0323 0.7088
vn -0.9199 -0.0400 0.3901
vn -0.9984 -0.0516 0.0222
vn -0.9353 -0.0656 -0.3478
vn -0.7348 -0.0795 -0.6736
vn -0.4162 -0.0900 -0.9048
vn -0.0241 -0.0939 -0.9953
vn 0.3725 -0.0902 -0.9237
vn 0.7027 -0.0805 -0.7069
vn 0.9185 -0.0680 -0.3895
vn 0.9956 0.0927 -0.0103
vn 0.9285 0.0854 0.3614
vn 0.7241 0.0693 0.6862
vn 0.4032 0.0539 0.9135
vn 0.0121 0.0486 0.9987
vn -0.3814 0.0570 0.9227
vn -0.7082 0.0737 0.7021
vn -0.9204 0.0886 0.3809
vn -0.9956 0.0929 0.0103
vn -0.9286 0.0841 -0.3614
vn -0.7242 0.0666 -0.6864
vn -0.4033 0.0501 -0.9137
vn -0.0121 0.0444 -0.9989
vn 0.3815 0.0530 -0.9229
vn 0.7084 0.0706 -0.7023
vn 0.9205 0.0868 -0.3810
vn 0.9956 0.0924 0.0136
vn 0.9166 0.0870 0.3903
vn 0.6996 0.0711 0.7110
vn 0.3735 0.0538 0.9261
vn -0.0129 0.0454 0.9989
vn -0.3976 0.0510 0.9162
vn -0.7184 0.0671 0.6924
vn -0.9270 0.0843 0.3654
vn -0.9956 0.0924 -0.0136
vn -0.9166 0.0870 -0.3903
vn -0.6996 0.0711 -0.7110
vn -0.3735 0.0538 -0.9261
vn 0.0129 0.0454 -0.9989
vn 0.3976 0.0510 -0.9162
vn 0.7184 0.0671 -0.6924
vn 0.9270 0.0843 -0.3654
vn 0.9978 -0.0639 0.0185
vn 0.9149 -0.0645 0.3986
vn 0.6927 -0.0672 0.7181
vn 0.3650 -0.0702 0.9283
vn -0.0183 -0.0720 0.9972
vn -0.3990 -0.0714 0.9142
vn -0.7187 -0.0688 0.6919
vn -0.9289 -0.0657 0.3643
vn -0.9978 -0.0639 -0.0185
vn -0.9149 -0.0645 -0.3986
vn -0.6927 -0.0672 -0.7181
vn -0.3650 -0.0702 -0.9283
vn 0.0183 -0.0720 -0.9972
vn 0.3990 -0.0714 -0.9142
vn 0.7187 -0.0688 -0.6919
vn 0.9289 -0.0657 -0.3643
vn 0.9925 -0.1224 -0.0046
vn 0.9187 -0.1224 0.3756
vn 0.7050 -0.1224 0.6985
vn 0.3840 -0.1224 0.9152
vn 0.0046 -0.1224 0.9925
vn -0.3756 -0.1224 0.9187
vn -0.6985 -0.1224 0.7050
vn -0.9152 -0.1224 0.3840
vn -0.9925 -0.1224 0.0046
vn -0.9187 -0.1224 -0.3756
vn -0.7050 -0.1224 -0.6985
vn -0.3840 -0.1224 -0.9152
vn -0.0046 -0.1224 -0.9925
vn 0.3756 -0.1224 -0.9187
vn 0.6985 -0.1224 -0.7050
vn 0.9152 -0.1224 -0.3840
vn 0.9955 -0.0923 -0.0228
vn 0.9287 -0.0895 0.3599
vn 0.7205 -0.0865 0.6880
vn 0.4024 -0.0845 0.9116
vn 0.0227 -0.0839 0.9962
vn -0.3604 -0.0852 0.9289
vn -0.6883 -0.0877 0.7201
vn -0.9112 -0.0906 0.4018
vn -0.9954 -0.0931 0.0228
vn -0.9283 -0.0948 -0.3597
vn -0.7199 -0.0955 -0.6874
vn -0.4019 -0.0958 -0.9106
vn -0.0227 -0.0959 -0.9951
vn 0.3601 -0.0959 -0.9280
vn 0.6878 -0.0956 -0.7195
vn 0.9109 -0.0944 -0.4017
vn 0.9998 -0.0142 -0.0138
vn 0.9298 0.0124 0.3678
vn 0.7183 0.0404 0.6946
vn 0.3963 0.0610 0.9161
vn 0.0132 0.0672 0.9977
vn -0.3719 0.0567 0.9265
vn -0.6995 0.0335 0.7139
vn -0.9194 0.0056 0.3932
vn -0.9997 -0.0190 0.0138
vn -0.9293 -0.0353 -0.3676
vn -0.7182 -0.0433 -0.6945
vn -0.3967 -0.0458 -0.9168
vn -0.0132 -0.0465 -0.9988
vn 0.3721 -0.0464 -0.9270
vn 0.6992 -0.0433 -0.7136
vn 0.9190 -0.0333 -0.3930
vn 1.0000 0.0020 -0.0016
vn 0.9263 0.0580 0.3723
vn 0.7118 0.1192 0.6922
vn 0.3861 0.1670 0.9072
vn 0.0002 0.1847 0.9828
vn -0.3855 0.1661 0.9076
vn -0.7107 0.1179 0.6936
vn -0.9253 0.0567 0.3749
vn -1.0000 0.0012 0.0016
vn -0.9272 -0.0373 -0.3727
vn -0.7157 -0.0570 -0.6961
vn -0.3908 -0.0636 -0.9183
vn -0.0002 -0.0647 -0.9979
vn 0.3901 -0.0636 -0.9186
vn 0.7145 -0.0569 -0.6973
vn 0.9262 -0.0369 -0.3753
vn 0.4601 -0.8874 -0.0293
vn 0.4471 -0.8826 0.1453
vn 0.3658 -0.8784 0.3077
vn 0.2211 -0.8752 0.4303
vn 0.0330 -0.8737 0.4854
vn -0.1621 -0.8741 0.4580
vn -0.3247 -0.8765 0.3554
vn -0.4282 -0.8806 0.2030
vn -0.4634 -0.8856 0.0295
vn -0.4320 -0.8909 -0.1404
vn -0.3405 -0.8956 -0.2864
vn -0.2003 -0.8989 -0.3898
vn -0.0296 -0.9002 -0.4345
vn 0.1459 -0.8993 -0.4124
vn 0.2990 -0.8963 -0.3274
vn 0.4083 -0.8921 -0.1935
vn 0.0000 -1.0000 0.0000
vt 0.6200 0.5000
vt 0.6109 0.5000
vt 0.5849 0.5000
vt 0.5459 0.5000
vt 0.5000 0.5000
vt 0.4541 0.5000
vt 0.4151 0.5000
vt 0.3891 0.5000
vt 0.3800 0.5000
vt 0.3891 0.5000
vt 0.4151 0.5000
vt 0.4541 0.5000
vt 0.5000 0.5000
vt 0.5459 0.5000
vt 0.5849 0.5000
vt 0.6109 0.5000
vt 0.6172 0.4231
vt 0.6083 0.4231
vt 0.5829 0.4231
vt 0.5449 0.4231
vt 0.5000 0.4231
vt 0.4551 0.4231
vt 0.4171 0.4231
vt 0.3917 0.4231
vt 0.3828 0.4231
vt 0.3917 0.4231
vt 0.4171 0.4231
vt 0.4551 0.4231
vt 0.5000 0.4231
vt 0.5449 0.4231
vt 0.5829 0.4231
vt 0.6083 0.4231
vt 0.6143 0.3462
vt 0.6056 0.3462
vt 0.5808 0.3462
vt 0.5437 0.3462
vt 0.5000 0.3462
vt 0.4563 0.3462
vt 0.4192 0.3462
vt 0.3944 0.3462
vt 0.3857 0.3462
vt 0.3944 0.3462
vt 0.4192 0.3462
vt 0.4563 0.3462
vt 0.5000 0.3462
vt 0.5437 0.3462
vt 0.5808 0.3462
vt 0.6056 0.3462
vt 0.6095 0.2675
vt 0.6011 0.2675
vt 0.5774 0.2675
vt 0.5419 0.2675
vt 0.5000 0.2675
vt 0.4581 0.2675
vt 0.4226 0.2675
vt 0.3989 0.2675
vt 0.3905 0.2675
vt 0.3989 0.2675
vt 0.4226 0.2675
vt 0.4581 0.2675
vt 0.5000 0.2675
vt 0.5419 0.2675
vt 0.5774 0.2675
vt 0.6011 0.2675
vt 0.5995 0.1808
vt 0.5920 0.1808
vt 0.5704 0.1808
vt 0.5381 0.1808
vt 0.5000 0.1808
vt 0.4619 0.1808
vt 0.4296 0.1808
vt 0.4080 0.1808
vt 0.4005 0.1808
vt 0.4080 0.1808
vt 0.4296 0.1808
vt 0.4619 0.1808
vt 0.5000 0.1808
vt 0.5381 0.1808
vt 0.5704 0.1808
vt 0.5920 0.1808
vt 0.5923 0.1098
vt 0.5853 0.1098
vt 0.5652 0.1098
vt 0.5353 0.1098
vt 0.5000 0.1098
vt 0.4647 0.1098
vt 0.4348 0.1098
vt 0.4147 0.1098
vt 0.4077 0.1098
vt 0.4147 0.1098
vt 0.4348 0.1098
vt 0.4647 0.1098
vt 0.5000 0.1098
vt 0.5353 0.1098
vt 0.5652 0.1098
vt 0.5853 0.1098
vt 0.5938 0.0723
vt 0.5867 0.0723
vt 0.5663 0.0723
vt 0.5359 0.0723
vt 0.5000 0.0723
vt 0.4641 0.0723
vt 0.4337 0.0723
vt 0.4133 0.0723
vt 0.4062 0.0723
vt 0.4133 0.0723
vt 0.4337 0.0723
vt 0.4641 0.0723
vt 0.5000 0.0723
vt 0.5359 0.0723
vt 0.5663 0.0723
vt 0.5867 0.0723
vt 0.5982 0.0469
vt 0.5907 0.0469
vt 0.5694 0.0469
vt 0.5376 0.0469
vt 0.5000 0.0469
vt 0.4624 0.0469
vt 0.4306 0.0469
vt 0.4093 0.0469
vt 0.4018 0.0469
vt 0.4093 0.0469
vt 0.4306 0.0469
vt 0.4624 0.0469
vt 0.5000 0.0469
vt 0.5376 0.0469
vt 0.5694 0.0469
vt 0.5907 0.0469
vt 0.5997 0.0103
vt 0.5921 0.0103
vt 0.5705 0.0103
vt 0.5381 0.0103
vt 0.5000 0.0103
vt 0.4619 0.0103
vt 0.4295 0.0103
vt 0.4079 0.0103
vt 0.4003 0.0103
vt 0.4079 0.0103
vt 0.4295 0.0103
vt 0.4619 0.0103
vt 0.5000 0.0103
vt 0.5381 0.0103
vt 0.5705 0.0103
vt 0.5921 0.0103
vt 0.5912 -0.0618
vt 0.5842 -0.0618
vt 0.5645 -0.0618
vt 0.5349 -0.0618
vt 0.5000 -0.0618
vt 0.4651 -0.0618
vt 0.4355 -0.0618
vt 0.4158 -0.0618
vt 0.4088 -0.0618
vt 0.4158 -0.0618
vt 0.4355 -0.0618
vt 0.4651 -0.0618
vt 0.5000 -0.0618
vt 0.5349 -0.0618
vt 0.5645 -0.0618
vt 0.5842 -0.0618
vt 0.5813 -0.1385
vt 0.5751 -0.1385
vt 0.5575 -0.1385
vt 0.5311 -0.1385
vt 0.5000 -0.1385
vt 0.4689 -0.1385
vt 0.4425 -0.1385
vt 0.4249 -0.1385
vt 0.4187 -0.1385
vt 0.4249 -0.1385
vt 0.4425 -0.1385
vt 0.4689 -0.1385
vt 0.5000 -0.1385
vt 0.5311 -0.1385
vt 0.5575 -0.1385
vt 0.5751 -0.1385
vt 0.5800 -0.1827
vt 0.5739 -0.1827
vt 0.5566 -0.1827
vt 0.5306 -0.1827
vt 0.5000 -0.1827
vt 0.4694 -0.1827
vt 0.4434 -0.1827
vt 0.4261 -0.1827
vt 0.4200 -0.1827
vt 0.4261 -0.1827
vt 0.4434 -0.1827
vt 0.4694 -0.1827
vt 0.5000 -0.1827
vt 0.5306 -0.1827
vt 0.5566 -0.1827
vt 0.5739 -0.1827
vt 0.5800 -0.2120
vt 0.5739 -0.2120
vt 0.5566 -0.2120
vt 0.5306 -0.2120
vt 0.5000 -0.2120
vt 0.4694 -0.2120
vt 0.4434 -0.2120
vt 0.4261 -0.2120
vt 0.4200 -0.2120
vt 0.4261 -0.2120
vt 0.4434 -0.2120
vt 0.4694 -0.2120
vt 0.5000 -0.2120
vt 0.5306 -0.2120
vt 0.5566 -0.2120
vt 0.5739 -0.2120
vt 0.5800 -0.2400
vt 0.5739 -0.2400
vt 0.5566 -0.2400
vt 0.5306 -0.2400
vt 0.5000 -0.2400
vt 0.4694 -0.2400
vt 0.4434 -0.2400
vt 0.4261 -0.2400
vt 0.4200 -0.2400
vt 0.4261 -0.2400
vt 0.4434 -0.2400
vt 0.4694 -0.2400
vt 0.5000 -0.2400
vt 0.5306 -0.2400
vt 0.5566 -0.2400
vt 0.5739 -0.2400
vt 0.5000 -0.2400
f 1/1/1 2/2/2 18/18/18
f 1/1/1 18/18/18 17/17/17
f 2/2/2 3/3/3 19/19/19
f 2/2/2 19/19/19 18/18/18
f 3/3/3 4/4/4 20/20/20
f 3/3/3 20/20/20 19/19/19
f 4/4/4 5/5/5 21/21/21
f 4/4/4 21/21/21 20/20/20
f 5/5/5 6/6/6 22/22/22
f 5/5/5 22/22/22 21/21/21
f 6/6/6 7/7/7 23/23/23
f 6/6/6 23/23/23 22/22/22
f 7/7/7 8/8/8 24/24/24
f 7/7/7 24/24/24 23/23/23
f 8/8/8 9/9/9 25/25/25
f 8/8/8 25/25/25 24/24/24
f 9/9/9 10/10/10 26/26/26
f 9/9/9 26/26/26 25/25/25
f 10/10/10 11/11/11 27/27/27
f 10/10/10 27/27/27 26/26/26
f 11/11/11 12/12/12 28/28/28
f 11/11/11 28/28/28 27/27/27
f 12/12/12 13/13/13 29/29/29
f 12/12/12 29/29/29 28/28/28
f 13/13/13 14/14/14 30/30/30
f 13/13/13 30/30/30 29/29/29
f 14/14/14 15/15/15 31/31/31
f 14/14/14 31/31/31 30/30/30
f 15/15/15 16/16/16 32/32/32
f 15/15/15 32/32/32 31/31/31
f 16/16/16 1/1/1 17/17/17
f 16/16/16 17/17/17 32/32/32
f 17/17/17 18/18/18 34/34/34
f 17/17/17 34/34/34 33/33/33
f 18/18/18 19/19/19 35/35/35
f 18/18/18 35/35/35 34/34/34
f 19/19/19 20/20/20 36/36/36
f 19/19/19 36/36/36 35/35/35
f 20/20/20 21/21/21 37/37/37
f 20/20/20 37/37/37 36/36/36
f 21/21/21 22/22/22 38/38/38
f 21/21/21 38/38/38 37/37/37
f 22/22/22 23/23/23 39/39/39
f 22/22/22 39/39/39 38/38/38
f 23/23/23 24/24/24 40/40/40
f 23/23/23 40/40/40 39/39/39
f 24/24/24 25/25/25 41/41/41
f 24/24/24 41/41/41 40/40/40
f 25/25/25 26/26/26 42/42/42
f 25/25/25 42/42/42 41/41/41
f 26/26/26 27/27/27 43/43/43
f 26/26/26 43/43/43 42/42/42
f 27/27/27 28/28/28 44/44/44
f 27/27/27 44/44/44 43/43/43
f 28/28/28 29/29/29 45/45/45
f 28/28/28 45/45/45 44/44/44
f 29/29/29 30/30/30 46/46/46
f 29/29/29 46/46/46 45/45/45
f 30/30/30 31/31/31 47/47/47
f 30/30/30 47/47/47 46/46/46
f 31/31/31 32/32/32 48/48/48
f 31/31/31 48/48/48 47/47/47
f 32/32/32 17/17/17 33/33/33
f 32/32/32 33/33/33 48/48/48
f 33/33/33 34/34/34 50/50/50
f 33/33/33 50/50/50 49/49/49
f 34/34/34 35/35/35 51/51/51
f 34/34/34 51/51/51 50/50/50
f 35/35/35 36/36/36 52/52/52
f 35/35/35 52/52/52 51/51/51
f 36/36/36 37/37/37 53/53/53
f 36/36/36 53/53/53 52/52/52
f 37/37/37 38/38/38 54/54/54
f 37/37/37 54/54/54 53/53/53
f 38/38/38 39/39/39 55/55/55
f 38/38/38 55/55/55 54/54/54
f 39/39/39 40/40/40 56/56/56
f 39/39/39 56/56/56 55/55/55
f 40/40/40 41/41/41 57/57/57
f 40/40/40 57/57/57 56/56/56
f 41/41/41 42/42/42 58/58/58
f 41/41/41 58/58/58 57/57/57
f 42/42/42 43/43/43 59/59/59
f 42/42/42 59/59/59 58/58/58
f 43/43/43 44/44/44 60/60/60
f 43/43/43 60/60/60 59/59/59
f 44/44/44 45/45/45 61/61/61
f 44/44/44 61/61/61 60/60/60
f 45/45/45 46/46/46 62/62/62
f 45/45/45 62/62/62 61/61/61
f 46/46/46 47/47/47 63/63/63
f 46/46/46 63/63/63 62/62/62
f 47/47/47 48/48/48 64/64/64
f 47/47/47 64/64/64 63/63/63
f 48/48/48 33/33/33 49/49/49
f 48/48/48 49/49/49 64/64/64
f 49/49/49 50/50/50 66/66/66
f 49/49/49 66/66/66 65/65/65
f 50/50/50 51/51/51 67/67/67
f 50/50/50 67/67/67 66/66/66
f 51/51/51 52/52/52 68/68/68
f 51/51/51 68/68/68 67/67/67
f 52/52/52 53/53/53 69/69/69
f 52/52/52 69/69/69 68/68/68
f 53/53/53 54/54/54 70/70/70
f 53/53/53 70/70/70 69/69/69
f 54/54/54 55/55/55 71/71/71
f 54/54/54 71/71/71 70/70/70
f 55/55/55 56/56/56 72/72/72
f 55/55/55 72/72/72 71/71/71
f 56/56/56 57/57/57 73/73/73
f 56/56/56 73/73/73 72/72/72
f 57/57/57 58/58/58 74/74/74
f 57/57/57 74/74/74 73/73/73
f 58/58/58 59/59/59 75/75/75
f 58/58/58 75/75/75 74/74/74
f 59/59/59 60/60/60 76/76/76
f 59/59/59 76/76/76 75/75/75
f 60/60/60 61/61/61 77/77/77
f 60/60/60 77/77/77 76/76/76
f 61/61/61 62/62/62 78/78/78
f 61/61/61 78/78/78 77/77/77
f 62/62/62 63/63/63 79/79/79
f 62/62/62 79/79/79 78/78/78
f 63/63/63 64/64/64 80/80/80
f 63/63/63 80/80/80 79/79/79
f 64/64/64 49/49/49 65/65/65
f 64/64/64 65/65/65 80/80/80
f 65/65/65 66/66/66 82/82/82
f 65/65/65 82/82/82 81/81/81
f 66/66/66 67/67/67 83/83/83
f 66/66/66 83/83/83 82/82/82
f 67/67/67 68/68/68 84/84/84
f 67/67/67 84/84/84 83/83/83
f 68/68/68 69/69/69 85/85/85
f 68/68/68 85/85/85 84/84/84
f 69/69/69 70/70/70 86/86/86
f 69/69/69 86/86/86 85/85/85
f 70/70/70 71/71/71 87/87/87
f 70/70/70 87/87/87 86/86/86
f 71/71/71 72/72/72 88/88/88
f 71/71/71 88/88/88 87/87/87
f 72/72/72 73/73/73 89/89/89
f 72/72/72 89/89/89 88/88/88
f 73/73/73 74/74/74 90/90/90
f 73/73/73 90/90/90 89/89/89
f 74/74/74 75/75/75 91/91/91
f 74/74/74 91/91/91 90/90/90
f 75/75/75 76/76/76 92/92/92
f 75/75/75 92/92/92 91/91/91
f 76/76/76 77/77/77 93/93/93
f 76/76/76 93/93/93 92/92/92
f 77/77/77 78/78/78 94/94/94
f 77/77/77 94/94/94 93/93/93
f 78/78/78 79/79/79 95/95/95
f 78/78/78 95/95/95 94/94/94
f 79/79/79 80/80/80 96/96/96
f 79/79/79 96/96/96 95/95/95
f 80/80/80 65/65/65 81/81/81
f 80/80/80 81/81/81 96/96/96
f 81/81/81 82/82/82 98/98/98
f 81/81/81 98/98/98 97/97/97
f 82/82/82 83/83/83 99/99/99
f 82/82/82 99/99/99 98/98/98
f 83/83/83 84/84/84 100/100/100
f 83/83/83 100/100/100 99/99/99
f 84/84/84 85/85/85 101/101/101
f 84/84/84 101/101/101 100/100/100
f 85/85/85 86/86/86 102/102/102
f 85/85/85 102/102/102 101/101/101
f 86/86/86 87/87/87 103/103/103
f 86/86/86 103/103/103 102/102/102
f 87/87/87 88/88/88 104/104/104
f 87/87/87 104/104/104 103/103/103
f 88/88/88 89/89/89 105/105/105
f 88/88/88 105/105/105 104/104/104
f 89/89/89 90/90/90 106/106/106
f 89/89/89 106/106/106 105/105/105
f 90/90/90 91/91/91 107/107/107
f 90/90/90 107/107/107 106/106/106
f 91/91/91 92/92/92 108/108/108
f 91/91/91 108/108/108 107/107/107
f 92/92/92 93/93/93 109/109/109
f 92/92/92 109/109/109 108/108/108
f 93/93/93 94/94/94 110/110/110
f 93/93/93 110/110/110 109/109/109
f 94/94/94 95/95/95 111/111/111
f 94/94/94 111/111/111 110/110/110
f 95/95/95 96/96/96 112/112/112
f 95/95/95 112/112/112 111/111/111
f 96/96/96 81/81/81 97/97/97
f 96/96/96 97/97/97 112/112/112
f 97/97/97 98/98/98 114/114/114
f 97/97/97 114/114/114 113/113/113
f 98/98/98 99/99/99 115/115/115
f 98/98/98 115/115/115 114/114/114
f 99/99/99 100/100/100 116/116/116
f 99/99/99 116/116/116 115/115/115
f 100/100/100 101/101/101 117/117/117
f 100/100/100 117/117/117 116/116/116
f 101/101/101 102/102/102 118/118/118
f 101/101/101 118/118/118 117/117/117
f 102/102/102 103/103/103 119/119/119
f 102/102/102 119/119/119 118/118/118
f 103/103/103 104/104/104 120/120/120
f 103/103/103 120/120/120 119/119/119
f 104/104/104 105/105/105 121/121/121
f 104/104/104 121/121/121 120/120/120
f 105/105/105 106/106/106 122/122/122
f 105/105/105 122/122/122 121/121/121
f 106/106/106 107/107/107 123/123/123
f 106/106/106 123/123/123 122/122/122
f 107/107/107 108/108/108 124/124/124
f 107/107/107 124/124/124 123/123/123
f 108/108/108 109/109/109 125/125/125
f 108/108/108 125/125/125 124/124/124
f 109/109/109 110/110/110 126/126/126
f 109/109/109 126/126/126 125/125/125
f 110/110/110 111/111/111 127/127/127
f 110/110/110 127/127/127 126/126/126
f 111/111/111 112/112/112 128/128/128
f 111/111/111 128/128/128 127/127/127
f 112/112/112 97/97/97 113/113/113
f 112/112/112 113/113/113 128/128/128
f 113/113/113 114/114/114 130/130/130
f 113/113/113 130/130/130 129/129/129
f 114/114/114 115/115/115 131/131/131
f 114/114/114 131/131/131 130/130/130
f 115/115/115 116/116/116 132/132/132
f 115/115/115 132/132/132 131/131/131
f 116/116/116 117/117/117 133/133/133
f 116/116/116 133/133/133 132/132/132
f 117/117/117 118/118/118 134/134/134
f 117/117/117 134/134/134 133/133/133
f 118/118/118 119/119/119 135/135/135
f 118/118/118 135/135/135 134/134/134
f 119/119/119 120/120/120 136/136/136
f 119/119/119 136/136/136 135/135/135
f 120/120/120 121/121/121 137/137/137
f 120/120/120 137/137/137 136/136/136
f 121/121/121 122/122/122 138/138/138
f 121/121/121 138/138/138 137/137/137
f 122/122/122 123/123/123 139/139/139
f 122/122/122 139/139/139 138/138/138
f 123/123/123 124/124/124 140/140/140
f 123/123/123 140/140/140 139/139/139
f 124/124/124 125/125/125 141/141/141
f 124/124/124 141/141/141 140/140/140
f 125/125/125 126/126/126 142/142/142
f 125/125/125 142/142/142 141/141/141
f 126/126/126 127/127/127 143/143/143
f 126/126/126 143/143/143 142/142/142
f 127/127/127 128/128/128 144/144/144
f 127/127/127 144/144/144 143/143/143
f 128/128/128 113/113/113 129/129/129
f 128/128/128 129/129/129 144/144/144
f 129/129/129 130/130/130 146/146/146
f 129/129/129 146/146/146 145/145/145
f 130/130/130 131/131/131 147/147/147
f 130/130/130 147/147/147 146/146/146
f 131/131/131 132/132/132 148/148/148
f 131/131/131 148/148/148 147/147/147
f 132/132/132 133/133/133 149/149/149
f 132/132/132 149/149/149 148/148/148
f 133/133/133 134/134/134 150/150/150
f 133/133/133 150/150/150 149/149/149
f 134/134/134 135/135/135 151/151/151
f 134/134/134 151/151/151 150/150/150
f 135/135/135 136/136/136 152/152/152
f 135/135/135 152/152/152 151/151/151
f 136/136/136 137/137/137 153/153/153
f 136/136/136 153/153/153 152/152/152
f 137/137/137 138/138/138 154/154/154
f 137/137/137 154/154/154 153/153/153
f 138/138/138 139/139/139 155/155/155
f 138/138/138 155/155/155 154/154/154
f 139/139/139 140/140/140 156/156/156
f 139/139/139 156/156/156 155/155/155
f 140/140/140 141/141/141 157/157/157
f 140/140/140 157/157/157 156/156/156
f 141/141/141 142/142/142 158/158/158
f 141/141/141 158/158/158 157/157/157
f 142/142/142 143/143/143 159/159/159
f 142/142/142 159/159/159 158/158/158
f 143/143/143 144/144/144 160/160/160
f 143/143/143 160/160/160 159/159/159
f 144/144/144 129/129/129 145/145/145
f 144/144/144 145/145/145 160/160/160
f 145/145/145 146/146/146 162/162/162
f 145/145/145 162/162/162 161/161/161
f 146/146/146 147/147/147 163/163/163
f 146/146/146 163/163/163 162/162/162
f 147/147/147 148/148/148 164/164/164
f 147/147/147 164/164/164 163/163/163
f 148/148/148 149/149/149 165/165/165
f 148/148/148 165/165/165 164/164/164
f 149/149/149 150/150/150 166/166/166
f 149/149/149 166/166/166 165/165/165
f 150/150/150 151/151/151 167/167/167
f 150/150/150 167/167/167 166/166/166
f 151/151/151 152/152/152 168/168/168
f 151/151/151 168/168/168 167/167/167
f 152/152/152 153/153/153 169/169/169
f 152/152/152 169/169/169 168/168/168
f 153/153/153 154/154/154 170/170/170
f 153/153/153 170/170/170 169/169/169
f 154/154/154 155/155/155 171/171/171
f 154/154/154 171/171/171 170/170/170
f 155/155/155 156/156/156 172/172/172
f 155/155/155 172/172/172 171/171/171
f 156/156/156 157/157/157 173/173/173
f 156/156/156 173/173/173 172/172/172
f 157/157/157 158/158/158 174/174/174
f 157/157/157 174/174/174 173/173/173
f 158/158/158 159/159/159 175/175/175
f 158/158/158 175/175/175 174/174/174
f 159/159/159 160/160/160 176/176/176
f 159/159/159 176/176/176 175/175/175
f 160/160/160 145/145/145 161/161/161
f 160/160/160 161/161/161 176/176/176
f 161/161/161 162/162/162 178/178/178
f 161/161/161 178/178/178 177/177/177
f 162/162/162 163/163/163 179/179/179
f 162/162/162 179/179/179 178/178/178
f 163/163/163 164/164/164 180/180/180
f 163/163/163 180/180/180 179/179/179
f 164/164/164 165/165/165 181/181/181
f 164/164/164 181/181/181 180/180/180
f 165/165/165 166/166/166 182/182/182
f 165/165/165 182/182/182 181/181/181
f 166/166/166 167/167/167 183/183/183
f 166/166/166 183/183/183 182/182/182
f 167/167/167 168/168/168 184/184/184
f 167/167/167 184/184/184 183/183/183
f 168/168/168 169/169/169 185/185/185
f 168/168/168 185/185/185 184/184/184
f 169/169/169 170/170/170 186/186/186
f 169/169/169 186/186/186 185/185/185
f 170/170/170 171/171/171 187/187/187
f 170/170/170 187/187/187 186/186/186
f 171/171/171 172/172/172 188/188/188
f 171/171/171 188/188/188 187/187/187
f 172/172/172 173/173/173 189/189/189
f 172/172/172 189/189/189 188/188/188
f 173/173/173 174/174/174 190/190/190
f 173/173/173 190/190/190 189/189/189
f 174/174/174 175/175/175 191/191/191
f 174/174/174 191/191/191 190/190/190
f 175/175/175 176/176/176 192/192/192
f 175/175/175 192/192/192 191/191/191
f 176/176/176 161/161/161 177/177/177
f 176/176/176 177/177/177 192/192/192
f 177/177/177 178/178/178 194/194/194
f 177/177/177 194/194/194 193/193/193
f 178/178/178 179/179/179 195/195/195
f 178/178/178 195/195/195 194/194/194
f 179/179/179 180/180/180 196/196/196
f 179/179/179 196/196/196 195/195/195
f 180/180/180 181/181/181 197/197/197
f 180/180/180 197/197/197 196/196/196
f 181/181/181 182/182/182 198/198/198
f 181/181/181 198/198/198 197/197/197
f 182/182/182 183/183/183 199/199/199
f 182/182/182 199/199/199 198/198/198
f 183/183/183 184/184/184 200/200/200
f 183/183/183 200/200/200 199/199/199
f 184/184/184 185/185/185 201/201/201
f 184/184/184 201/201/201 200/200/200
f 185/185/185 186/186/186 202/202/202
f 185/185/185 202/202/202 201/201/201
f 186/186/186 187/187/187 203/203/203
f 186/186/186 203/203/203 202/202/202
f 187/187/187 188/188/188 204/204/204
f 187/187/187 204/204/204 203/203/203
f 188/188/188 189/189/189 205/205/205
f 188/188/188 205/205/205 204/204/204
f 189/189/189 190/190/190 206/206/206
f 189/189/189 206/206/206 205/205/205
f 190/190/190 191/191/191 207/207/207
f 190/190/190 207/207/207 206/206/206
f 191/191/191 192/192/192 208/208/208
f 191/191/191 208/208/208 207/207/207
f 192/192/192 177/177/177 193/193/193
f 192/192/192 193/193/193 208/208/208
f 193/193/193 194/194/194 210/210/210
f 193/193/193 210/210/210 209/209/209
f 194/194/194 195/195/195 211/211/211
f 194/194/194 211/211/211 210/210/210
f 195/195/195 196/196/196 212/212/212
f 195/195/195 212/212/212 211/211/211
f 196/196/196 197/197/197 213/213/213
f 196/196/196 213/213/213 212/212/212
f 197/197/197 198/198/198 214/214/214
f 197/197/197 214/214/214 213/213/213
f 198/198/198 199/199/199 215/215/215
f 198/198/198 215/215/215 214/214/214
f 199/199/199 200/200/200 216/216/216
f 199/199/199 216/216/216 215/215/215
f 200/200/200 201/201/201 217/217/217
f 200/200/200 217/217/217 216/216/216
f 201/201/201 202/202/202 218/218/218
f 201/201/201 218/218/218 217/217/217
f 202/202/202 203/203/203 219/219/219
f 202/202/202 219/219/219 218/218/218
f 203/203/203 204/204/204 220/220/220
f 203/203/203 220/220/220 219/219/219
f 204/204/204 205/205/205 221/221/221
f 204/204/204 221/221/221 220/220/220
f 205/205/205 206/206/206 222/222/222
f 205/205/205 222/222/222 221/221/221
f 206/206/206 207/207/207 223/223/223
f 206/206/206 223/223/223 222/222/222
f 207/207/207 208/208/208 224/224/224
f 207/207/207 224/224/224 223/223/223
f 208/208/208 193/193/193 209/209/209
f 208/208/208 209/209/209 224/224/224
f 225/225/225 209/209/209 210/210/210
f 225/225/225 210/210/210 211/211/211
f 225/225/225 211/211/211 212/212/212
f 225/225/225 212/212/212 213/213/213
f 225/225/225 213/213/213 214/214/214
f 225/225/225 214/214/214 215/215/215
f 225/225/225 215/215/215 216/216/216
f 225/225/225 216/216/216 217/217/217
f 225/225/225 217/217/217 218/218/218
f 225/225/225 218/218/218 219/219/219
f 225/225/225 219/219/219 220/220/220
f 225/225/225 220/220/220 221/221/221
f 225/225/225 221/221/221 222/222/222
f 225/225/225 222/222/222 223/223/223
f 225/225/225 223/223/223 224/224/224
f 225/225/225 224/224/224 209/209/209
