# procedural placeholder mesh: trunk_1
v 0.22555 0.00000 0.00000
v 0.15053 0.00000 0.06636
v 0.10417 0.00000 0.11958
v 0.04940 0.00000 0.19816
v -0.03718 0.00000 0.14912
v -0.11974 0.00000 0.13747
v -0.17603 0.00000 0.07761
v -0.16707 0.00000 0.00000
v -0.17603 0.00000 -0.07761
v -0.11974 0.00000 -0.13747
v -0.03718 0.00000 -0.14912
v 0.04940 0.00000 -0.19816
v 0.10417 0.00000 -0.11958
v 0.15053 0.00000 -0.06636
v 0.19736 0.01235 0.00001
v 0.13459 0.01235 0.06156
v 0.09314 0.01235 0.11092
v 0.04312 0.01235 0.17938
v -0.03323 0.01235 0.13831
v -0.10338 0.01235 0.12314
v -0.15805 0.01235 0.07230
v -0.14936 0.01235 0.00001
v -0.15803 0.01235 -0.07227
v -0.10340 0.01235 -0.12314
v -0.03323 0.01235 -0.13829
v 0.04312 0.01235 -0.17935
v 0.09314 0.01235 -0.11090
v 0.13459 0.01235 -0.06154
v 0.17020 0.02469 0.00003
v 0.11865 0.02469 0.05675
v 0.08212 0.02469 0.10225
v 0.03708 0.02469 0.16122
v -0.02927 0.02469 0.12750
v -0.08778 0.02469 0.10936
v -0.13989 0.02469 0.06694
v -0.13164 0.02469 0.00002
v -0.13985 0.02469 -0.06687
v -0.08780 0.02469 -0.10934
v -0.02927 0.02469 -0.12746
v 0.03708 0.02469 -0.16117
v 0.08212 0.02469 -0.10221
v 0.11865 0.02469 -0.05671
v 0.14733 0.04000 0.00005
v 0.10563 0.04000 0.05204
v 0.07311 0.04000 0.09375
v 0.03209 0.04000 0.14362
v -0.02603 0.04000 0.11689
v -0.07614 0.04000 0.09775
v -0.12340 0.04000 0.06085
v -0.11715 0.04000 0.00004
v -0.12334 0.04000 -0.06073
v -0.07618 0.04000 -0.09772
v -0.02603 0.04000 -0.11682
v 0.03210 0.04000 -0.14354
v 0.07311 0.04000 -0.09367
v 0.10563 0.04000 -0.05197
v 0.12886 0.05910 0.00010
v 0.09580 0.05910 0.04705
v 0.06632 0.05910 0.08471
v 0.02823 0.05910 0.12563
v -0.02354 0.05910 0.10561
v -0.06853 0.05910 0.08779
v -0.10891 0.05910 0.05360
v -0.10612 0.05910 0.00008
v -0.10880 0.05910 -0.05336
v -0.06860 0.05910 -0.08771
v -0.02354 0.05910 -0.10545
v 0.02824 0.05910 -0.12545
v 0.06632 0.05910 -0.08455
v 0.09580 0.05910 -0.04688
v 0.11217 0.08413 0.00021
v 0.08762 0.08413 0.04219
v 0.06070 0.08413 0.07588
v 0.02484 0.08413 0.10774
v -0.02137 0.08413 0.09457
v -0.06225 0.08413 0.07836
v -0.09565 0.08413 0.04628
v -0.09680 0.08413 0.00018
v -0.09547 0.08413 -0.04580
v -0.06235 0.08413 -0.07812
v -0.02137 0.08413 -0.09421
v 0.02484 0.08413 -0.10735
v 0.06070 0.08413 -0.07552
v 0.08762 0.08413 -0.04183
v 0.09649 0.12000 0.00036
v 0.08129 0.12000 0.03875
v 0.05637 0.12000 0.06956
v 0.02168 0.12000 0.09221
v -0.01958 0.12000 0.08666
v -0.05646 0.12000 0.07067
v -0.08400 0.12000 0.04044
v -0.08938 0.12000 0.00033
v -0.08385 0.12000 -0.03967
v -0.05655 0.12000 -0.07010
v -0.01958 0.12000 -0.08599
v 0.02168 0.12000 -0.09152
v 0.05637 0.12000 -0.06889
v 0.08129 0.12000 -0.03808
v 0.08587 0.19947 0.00110
v 0.07750 0.19947 0.03755
v 0.05403 0.19947 0.06679
v 0.02012 0.19947 0.08301
v -0.01752 0.19947 0.08301
v -0.05143 0.19947 0.06679
v -0.07489 0.19947 0.03755
v -0.08327 0.19947 0.00110
v -0.07489 0.19947 -0.03536
v -0.05143 0.19947 -0.06459
v -0.01752 0.19947 -0.08082
v 0.02012 0.19947 -0.08082
v 0.05403 0.19947 -0.06459
v 0.07750 0.19947 -0.03536
v 0.08358 0.32366 0.00270
v 0.07562 0.32366 0.03771
v 0.05332 0.32366 0.06579
v 0.02110 0.32366 0.08137
v -0.01467 0.32366 0.08137
v -0.04689 0.32366 0.06579
v -0.06919 0.32366 0.03771
v -0.07715 0.32366 0.00270
v -0.06919 0.32366 -0.03230
v -0.04689 0.32366 -0.06038
v -0.01467 0.32366 -0.07596
v 0.02110 0.32366 -0.07596
v 0.05332 0.32366 -0.06038
v 0.07562 0.32366 -0.03230
v 0.08135 0.45000 0.00470
v 0.07385 0.45000 0.03799
v 0.05282 0.45000 0.06469
v 0.02245 0.45000 0.07951
v -0.01127 0.45000 0.07951
v -0.04165 0.45000 0.06469
v -0.06267 0.45000 0.03799
v -0.07018 0.45000 0.00470
v -0.06267 0.45000 -0.02859
v -0.04165 0.45000 -0.05529
v -0.01127 0.45000 -0.07011
v 0.02245 0.45000 -0.07011
v 0.05282 0.45000 -0.05529
v 0.07385 0.45000 -0.02859
v 0.07846 0.57221 0.00756
v 0.07158 0.57221 0.03819
v 0.05230 0.57221 0.06275
v 0.02444 0.57221 0.07638
v -0.00648 0.57221 0.07638
v -0.03434 0.57221 0.06275
v -0.05362 0.57221 0.03819
v -0.06050 0.57221 0.00756
v -0.05362 0.57221 -0.02307
v -0.03434 0.57221 -0.04763
v -0.00648 0.57221 -0.06126
v 0.02444 0.57221 -0.06126
v 0.05230 0.57221 -0.04763
v 0.07158 0.57221 -0.02307
v 0.07614 0.69671 0.01132
v 0.06993 0.69671 0.03885
v 0.05254 0.69671 0.06093
v 0.02740 0.69671 0.07318
v -0.00050 0.69671 0.07318
v -0.02563 0.69671 0.06093
v -0.04303 0.69671 0.03885
v -0.04924 0.69671 0.01132
v -0.04303 0.69671 -0.01622
v -0.02563 0.69671 -0.03829
v -0.00050 0.69671 -0.05055
v 0.02740 0.69671 -0.05055
v 0.05254 0.69671 -0.03829
v 0.06993 0.69671 -0.01622
v 0.07533 0.80000 0.01485
v 0.06962 0.80000 0.03987
v 0.05362 0.80000 0.05993
v 0.03049 0.80000 0.07106
v 0.00482 0.80000 0.07106
v -0.01830 0.80000 0.05993
v -0.03431 0.80000 0.03987
v -0.04002 0.80000 0.01485
v -0.03431 0.80000 -0.01016
v -0.01830 0.80000 -0.03022
v 0.00482 0.80000 -0.04135
v 0.03049 0.80000 -0.04135
v 0.05362 0.80000 -0.03022
v 0.06962 0.80000 -0.01016
v 0.07600 0.87475 0.01776
v 0.07056 0.87475 0.04114
v 0.05533 0.87475 0.05988
v 0.03332 0.87475 0.07028
v 0.00890 0.87475 0.07028
v -0.01311 0.87475 0.05988
v -0.02834 0.87475 0.04114
v -0.03378 0.87475 0.01776
v -0.02834 0.87475 -0.00562
v -0.01311 0.87475 -0.02436
v 0.00890 0.87475 -0.03476
v 0.03332 0.87475 -0.03476
v 0.05533 0.87475 -0.02436
v 0.07056 0.87475 -0.00562
v 0.07714 0.93737 0.02048
v 0.07191 0.93737 0.04252
v 0.05726 0.93737 0.06020
v 0.03609 0.93737 0.07000
v 0.01260 0.93737 0.07000
v -0.00856 0.93737 0.06020
v -0.02321 0.93737 0.04252
v -0.02844 0.93737 0.02048
v -0.02321 0.93737 -0.00155
v -0.00856 0.93737 -0.01923
v 0.01260 0.93737 -0.02903
v 0.03609 0.93737 -0.02903
v 0.05726 0.93737 -0.01923
v 0.07191 0.93737 -0.00155
v 0.07827 1.00000 0.02321
v 0.07325 1.00000 0.04391
v 0.05919 1.00000 0.06051
v 0.03887 1.00000 0.06973
v 0.01631 1.00000 0.06973
v -0.00401 1.00000 0.06051
v -0.01808 1.00000 0.04391
v -0.02310 1.00000 0.02321
v -0.01808 1.00000 0.00251
v -0.00401 1.00000 -0.01409
v 0.01631 1.00000 -0.02331
v 0.03887 1.00000 -0.02331
v 0.05919 1.00000 -0.01409
v 0.07325 1.00000 0.00251
v 0.02759 1.00000 0.02321
vn 0.4268 0.8938 0.1379
vn 0.4676 0.7605 0.4506
vn 0.5124 0.7667 0.3868
vn -0.0304 0.8181 0.5743
vn -0.2062 0.7311 0.6503
vn -0.2906 0.8393 0.4596
vn -0.5403 0.8355 0.0995
vn -0.5741 0.8185 0.0219
vn -0.4573 0.8541 -0.2476
vn -0.2201 0.8184 -0.5308
vn -0.2720 0.7038 -0.6563
vn 0.2506 0.8354 -0.4893
vn 0.5116 0.7590 -0.4026
vn 0.4223 0.7983 -0.4294
vn 0.4368 0.8991 -0.0278
vn 0.4474 0.7846 0.4291
vn 0.5088 0.7617 0.4013
vn 0.1424 0.8332 0.5343
vn -0.2643 0.7174 0.6445
vn -0.2482 0.8219 0.5127
vn -0.4943 0.8493 0.1855
vn -0.5738 0.8190 -0.0011
vn -0.4977 0.8478 -0.1834
vn -0.2791 0.8292 -0.4843
vn -0.2337 0.7191 -0.6545
vn 0.0924 0.8309 -0.5487
vn 0.5131 0.7640 -0.3912
vn 0.4548 0.7853 -0.4200
vn 0.5138 0.8577 -0.0150
vn 0.5083 0.7365 0.4462
vn 0.5530 0.7071 0.4406
vn 0.1462 0.7931 0.5913
vn -0.2971 0.6636 0.6866
vn -0.2996 0.7621 0.5739
vn -0.5502 0.8068 0.2152
vn -0.6451 0.7641 -0.0016
vn -0.5500 0.8045 -0.2242
vn -0.3187 0.7703 -0.5524
vn -0.2670 0.6775 -0.6853
vn 0.1240 0.7870 -0.6043
vn 0.5601 0.7069 -0.4319
vn 0.5227 0.7285 -0.4428
vn 0.6706 0.7415 -0.0198
vn 0.6196 0.6026 0.5029
vn 0.6249 0.5864 0.5153
vn 0.1767 0.7087 0.6831
vn -0.3282 0.5681 0.7547
vn -0.3858 0.6268 0.6769
vn -0.6628 0.6929 0.2838
vn -0.7851 0.6193 -0.0097
vn -0.6686 0.6921 -0.2720
vn -0.3893 0.6347 -0.6676
vn -0.2993 0.5885 -0.7511
vn 0.1437 0.7019 -0.6976
vn 0.6376 0.5815 -0.5053
vn 0.6374 0.5902 -0.4953
vn 0.8093 0.5869 -0.0238
vn 0.7112 0.4500 0.5401
vn 0.6637 0.4596 0.5901
vn 0.2018 0.6038 0.7712
vn -0.3287 0.4787 0.8141
vn -0.4616 0.4878 0.7409
vn -0.7598 0.5520 0.3435
vn -0.8882 0.4591 -0.0199
vn -0.7716 0.5540 -0.3124
vn -0.4467 0.4944 -0.7457
vn -0.3025 0.4876 -0.8190
vn 0.1579 0.6052 -0.7803
vn 0.6795 0.4580 -0.5731
vn 0.7270 0.4482 -0.5202
vn 0.9062 0.4214 -0.0334
vn 0.7811 0.2944 0.5506
vn 0.6688 0.3101 0.6757
vn 0.2294 0.4402 0.8681
vn -0.3202 0.3356 0.8859
vn -0.5252 0.3410 0.7797
vn -0.8340 0.3893 0.3910
vn -0.9504 0.3094 -0.0316
vn -0.8490 0.3914 -0.3550
vn -0.5058 0.3445 -0.7908
vn -0.2751 0.3397 -0.8994
vn 0.1687 0.4492 -0.8773
vn 0.6966 0.3132 -0.6455
vn 0.8031 0.3052 -0.5117
vn 0.9822 0.1871 -0.0159
vn 0.8422 0.1194 0.5257
vn 0.6311 0.1123 0.7675
vn 0.2285 0.1805 0.9566
vn -0.3001 0.1326 0.9446
vn -0.6016 0.1412 0.7862
vn -0.8923 0.1766 0.4154
vn -0.9887 0.1427 -0.0460
vn -0.8902 0.1776 -0.4194
vn -0.5608 0.1557 -0.8131
vn -0.2183 0.1401 -0.9658
vn 0.2041 0.1963 -0.9591
vn 0.6866 0.1320 -0.7149
vn 0.8815 0.1223 -0.4561
vn 0.9985 0.0535 -0.0099
vn 0.8847 0.0375 0.4647
vn 0.6110 0.0242 0.7913
vn 0.2280 0.0444 0.9726
vn -0.2514 0.0413 0.9670
vn -0.6269 0.0465 0.7777
vn -0.8994 0.0679 0.4317
vn -0.9975 0.0667 -0.0250
vn -0.8977 0.0747 -0.4342
vn -0.6047 0.0706 -0.7933
vn -0.2034 0.0560 -0.9775
vn 0.2141 0.0667 -0.9745
vn 0.6446 0.0512 -0.7628
vn 0.9049 0.0372 -0.4240
vn 0.9998 0.0178 -0.0035
vn 0.9030 0.0123 0.4296
vn 0.6272 0.0097 0.7788
vn 0.2260 0.0118 0.9741
vn -0.2205 0.0194 0.9752
vn -0.6221 0.0309 0.7823
vn -0.8993 0.0430 0.4353
vn -0.9986 0.0520 0.0035
vn -0.9016 0.0555 -0.4289
vn -0.6263 0.0534 -0.7777
vn -0.2258 0.0473 -0.9730
vn 0.2203 0.0396 -0.9746
vn 0.6221 0.0318 -0.7823
vn 0.8998 0.0245 -0.4355
vn 0.9998 0.0202 -0.0067
vn 0.9056 0.0138 0.4238
vn 0.6329 0.0123 0.7742
vn 0.2311 0.0168 0.9728
vn -0.2187 0.0270 0.9754
vn -0.6223 0.0411 0.7817
vn -0.8987 0.0554 0.4351
vn -0.9978 0.0666 0.0066
vn -0.9034 0.0722 -0.4227
vn -0.6313 0.0713 -0.7722
vn -0.2307 0.0646 -0.9709
vn 0.2185 0.0540 -0.9744
vn 0.6223 0.0418 -0.7817
vn 0.8997 0.0300 -0.4356
vn 0.9998 0.0211 -0.0064
vn 0.9061 0.0131 0.4229
vn 0.6341 0.0129 0.7732
vn 0.2320 0.0206 0.9725
vn -0.2191 0.0348 0.9751
vn -0.6232 0.0525 0.7803
vn -0.8985 0.0701 0.4334
vn -0.9964 0.0845 0.0063
vn -0.9022 0.0930 -0.4211
vn -0.6313 0.0939 -0.7698
vn -0.2312 0.0865 -0.9691
vn 0.2187 0.0721 -0.9731
vn 0.6231 0.0538 -0.7803
vn 0.9001 0.0356 -0.4342
vn 0.9998 0.0144 -0.0141
vn 0.9089 0.0052 0.4171
vn 0.6390 0.0062 0.7691
vn 0.2394 0.0165 0.9708
vn -0.2102 0.0333 0.9771
vn -0.6154 0.0531 0.7864
vn -0.8943 0.0727 0.4416
vn -0.9959 0.0894 0.0140
vn -0.9043 0.1005 -0.4149
vn -0.6356 0.1033 -0.7650
vn -0.2383 0.0961 -0.9664
vn 0.2097 0.0792 -0.9746
vn 0.6153 0.0561 -0.7863
vn 0.8962 0.0326 -0.4425
vn 0.9998 0.0018 -0.0174
vn 0.9084 -0.0081 0.4180
vn 0.6375 -0.0052 0.7705
vn 0.2405 0.0079 0.9706
vn -0.2044 0.0267 0.9785
vn -0.6085 0.0476 0.7921
vn -0.8911 0.0681 0.4487
vn -0.9961 0.0864 0.0173
vn -0.9039 0.0998 -0.4159
vn -0.6340 0.1046 -0.7662
vn -0.2393 0.0979 -0.9660
vn 0.2038 0.0791 -0.9758
vn 0.6084 0.0520 -0.7920
vn 0.8929 0.0236 -0.4496
vn 0.9999 -0.0123 -0.0103
vn 0.9022 -0.0230 0.4307
vn 0.6251 -0.0181 0.7803
vn 0.2298 -0.0021 0.9732
vn -0.2077 0.0191 0.9780
vn -0.6074 0.0417 0.7933
vn -0.8914 0.0639 0.4487
vn -0.9964 0.0842 0.0103
vn -0.8979 0.0998 -0.4286
vn -0.6217 0.1060 -0.7761
vn -0.2286 0.0992 -0.9685
vn 0.2071 0.0783 -0.9752
vn 0.6073 0.0470 -0.7931
vn 0.8931 0.0134 -0.4496
vn 0.9998 -0.0175 -0.0031
vn 0.8954 -0.0287 0.4443
vn 0.6118 -0.0230 0.7907
vn 0.2188 -0.0058 0.9758
vn -0.2102 0.0163 0.9775
vn -0.6051 0.0398 0.7951
vn -0.8909 0.0634 0.4497
vn -0.9963 0.0854 0.0031
vn -0.8911 0.1020 -0.4422
vn -0.6083 0.1085 -0.7863
vn -0.2177 0.1012 -0.9708
vn 0.2096 0.0794 -0.9746
vn 0.6050 0.0464 -0.7949
vn 0.8927 0.0104 -0.4506
vn 0.8869 0.4561 -0.0731
vn 0.8298 0.4426 0.3399
vn 0.5968 0.4369 0.6730
vn 0.2554 0.4416 0.8601
vn -0.1223 0.4562 0.8814
vn -0.4742 0.4777 0.7395
vn -0.7376 0.5011 0.4526
vn -0.8514 0.5198 0.0702
vn -0.7856 0.5284 -0.3219
vn -0.5641 0.5266 -0.6360
vn -0.2436 0.5177 -0.8202
vn 0.1187 0.5047 -0.8551
vn 0.4707 0.4894 -0.7341
vn 0.7511 0.4727 -0.4608
vn 0.0000 1.0000 0.0000
vt 0.9511 0.5000
vt 0.8011 0.5000
vt 0.7083 0.5000
vt 0.5988 0.5000
vt 0.4256 0.5000
vt 0.2605 0.5000
vt 0.1479 0.5000
vt 0.1659 0.5000
vt 0.1479 0.5000
vt 0.2605 0.5000
vt 0.4256 0.5000
vt 0.5988 0.5000
vt 0.7083 0.5000
vt 0.8011 0.5000
vt 0.8947 0.5247
vt 0.7692 0.5247
vt 0.6863 0.5247
vt 0.5862 0.5247
vt 0.4335 0.5247
vt 0.2932 0.5247
vt 0.1839 0.5247
vt 0.2013 0.5247
vt 0.1839 0.5247
vt 0.2932 0.5247
vt 0.4335 0.5247
vt 0.5862 0.5247
vt 0.6863 0.5247
vt 0.7692 0.5247
vt 0.8404 0.5494
vt 0.7373 0.5494
vt 0.6642 0.5494
vt 0.5742 0.5494
vt 0.4415 0.5494
vt 0.3244 0.5494
vt 0.2202 0.5494
vt 0.2367 0.5494
vt 0.2203 0.5494
vt 0.3244 0.5494
vt 0.4415 0.5494
vt 0.5742 0.5494
vt 0.6642 0.5494
vt 0.7373 0.5494
vt 0.7947 0.5800
vt 0.7113 0.5800
vt 0.6462 0.5800
vt 0.5642 0.5800
vt 0.4479 0.5800
vt 0.3477 0.5800
vt 0.2532 0.5800
vt 0.2657 0.5800
vt 0.2533 0.5800
vt 0.3476 0.5800
vt 0.4479 0.5800
vt 0.5642 0.5800
vt 0.6462 0.5800
vt 0.7113 0.5800
vt 0.7577 0.6182
vt 0.6916 0.6182
vt 0.6326 0.6182
vt 0.5565 0.6182
vt 0.4529 0.6182
vt 0.3629 0.6182
vt 0.2822 0.6182
vt 0.2878 0.6182
vt 0.2824 0.6182
vt 0.3628 0.6182
vt 0.4529 0.6182
vt 0.5565 0.6182
vt 0.6326 0.6182
vt 0.6916 0.6182
vt 0.7243 0.6683
vt 0.6752 0.6683
vt 0.6214 0.6683
vt 0.5497 0.6683
vt 0.4573 0.6683
vt 0.3755 0.6683
vt 0.3087 0.6683
vt 0.3064 0.6683
vt 0.3091 0.6683
vt 0.3753 0.6683
vt 0.4573 0.6683
vt 0.5497 0.6683
vt 0.6214 0.6683
vt 0.6752 0.6683
vt 0.6930 0.7400
vt 0.6626 0.7400
vt 0.6127 0.7400
vt 0.5434 0.7400
vt 0.4608 0.7400
vt 0.3871 0.7400
vt 0.3320 0.7400
vt 0.3212 0.7400
vt 0.3323 0.7400
vt 0.3869 0.7400
vt 0.4608 0.7400
vt 0.5434 0.7400
vt 0.6127 0.7400
vt 0.6626 0.7400
vt 0.6717 0.8989
vt 0.6550 0.8989
vt 0.6081 0.8989
vt 0.5402 0.8989
vt 0.4650 0.8989
vt 0.3971 0.8989
vt 0.3502 0.8989
vt 0.3335 0.8989
vt 0.3502 0.8989
vt 0.3971 0.8989
vt 0.4650 0.8989
vt 0.5402 0.8989
vt 0.6081 0.8989
vt 0.6550 0.8989
vt 0.6672 1.1473
vt 0.6512 1.1473
vt 0.6066 1.1473
vt 0.5422 1.1473
vt 0.4707 1.1473
vt 0.4062 1.1473
vt 0.3616 1.1473
vt 0.3457 1.1473
vt 0.3616 1.1473
vt 0.4062 1.1473
vt 0.4707 1.1473
vt 0.5422 1.1473
vt 0.6066 1.1473
vt 0.6512 1.1473
vt 0.6627 1.4000
vt 0.6477 1.4000
vt 0.6056 1.4000
vt 0.5449 1.4000
vt 0.4775 1.4000
vt 0.4167 1.4000
vt 0.3747 1.4000
vt 0.3596 1.4000
vt 0.3747 1.4000
vt 0.4167 1.4000
vt 0.4775 1.4000
vt 0.5449 1.4000
vt 0.6056 1.4000
vt 0.6477 1.4000
vt 0.6569 1.6444
vt 0.6432 1.6444
vt 0.6046 1.6444
vt 0.5489 1.6444
vt 0.4870 1.6444
vt 0.4313 1.6444
vt 0.3928 1.6444
vt 0.3790 1.6444
vt 0.3928 1.6444
vt 0.4313 1.6444
vt 0.4870 1.6444
vt 0.5489 1.6444
vt 0.6046 1.6444
vt 0.6432 1.6444
vt 0.6523 1.8934
vt 0.6399 1.8934
vt 0.6051 1.8934
vt 0.5548 1.8934
vt 0.4990 1.8934
vt 0.4487 1.8934
vt 0.4139 1.8934
vt 0.4015 1.8934
vt 0.4139 1.8934
vt 0.4487 1.8934
vt 0.4990 1.8934
vt 0.5548 1.8934
vt 0.6051 1.8934
vt 0.6399 1.8934
vt 0.6507 2.1000
vt 0.6392 2.1000
vt 0.6072 2.1000
vt 0.5610 2.1000
vt 0.5096 2.1000
vt 0.4634 2.1000
vt 0.4314 2.1000
vt 0.4200 2.1000
vt 0.4314 2.1000
vt 0.4634 2.1000
vt 0.5096 2.1000
vt 0.5610 2.1000
vt 0.6072 2.1000
vt 0.6392 2.1000
vt 0.6520 2.2495
vt 0.6411 2.2495
vt 0.6107 2.2495
vt 0.5666 2.2495
vt 0.5178 2.2495
vt 0.4738 2.2495
vt 0.4433 2.2495
vt 0.4324 2.2495
vt 0.4433 2.2495
vt 0.4738 2.2495
vt 0.5178 2.2495
vt 0.5666 2.2495
vt 0.6107 2.2495
vt 0.6411 2.2495
vt 0.6543 2.3747
vt 0.6438 2.3747
vt 0.6145 2.3747
vt 0.5722 2.3747
vt 0.5252 2.3747
vt 0.4829 2.3747
vt 0.4536 2.3747
vt 0.4431 2.3747
vt 0.4536 2.3747
vt 0.4829 2.3747
vt 0.5252 2.3747
vt 0.5722 2.3747
vt 0.6145 2.3747
vt 0.6438 2.3747
vt 0.6565 2.5000
vt 0.6465 2.5000
vt 0.6184 2.5000
vt 0.5777 2.5000
vt 0.5326 2.5000
vt 0.4920 2.5000
vt 0.4638 2.5000
vt 0.4538 2.5000
vt 0.4638 2.5000
vt 0.4920 2.5000
vt 0.5326 2.5000
vt 0.5777 2.5000
vt 0.6184 2.5000
vt 0.6465 2.5000
vt 0.5552 2.5000
f 1/1/1 16/16/16 2/2/2
f 1/1/1 15/15/15 16/16/16
f 2/2/2 17/17/17 3/3/3
f 2/2/2 16/16/16 17/17/17
f 3/3/3 18/18/18 4/4/4
f 3/3/3 17/17/17 18/18/18
f 4/4/4 19/19/19 5/5/5
f 4/4/4 18/18/18 19/19/19
f 5/5/5 20/20/20 6/6/6
f 5/5/5 19/19/19 20/20/20
f 6/6/6 21/21/21 7/7/7
f 6/6/6 20/20/20 21/21/21
f 7/7/7 22/22/22 8/8/8
f 7/7/7 21/21/21 22/22/22
f 8/8/8 23/23/23 9/9/9
f 8/8/8 22/22/22 23/23/23
f 9/9/9 24/24/24 10/10/10
f 9/9/9 23/23/23 24/24/24
f 10/10/10 25/25/25 11/11/11
f 10/10/10 24/24/24 25/25/25
f 11/11/11 26/26/26 12/12/12
f 11/11/11 25/25/25 26/26/26
f 12/12/12 27/27/27 13/13/13
f 12/12/12 26/26/26 27/27/27
f 13/13/13 28/28/28 14/14/14
f 13/13/13 27/27/27 28/28/28
f 14/14/14 15/15/15 1/1/1
f 14/14/14 28/28/28 15/15/15
f 15/15/15 30/30/30 16/16/16
f 15/15/15 29/29/29 30/30/30
f 16/16/16 31/31/31 17/17/17
f 16/16/16 30/30/30 31/31/31
f 17/17/17 32/32/32 18/18/18
f 17/17/17 31/31/31 32/32/32
f 18/18/18 33/33/33 19/19/19
f 18/18/18 32/32/32 33/33/33
f 19/19/19 34/34/34 20/20/20
f 19/19/19 33/33/33 34/34/34
f 20/20/20 35/35/35 21/21/21
f 20/20/20 34/34/34 35/35/35
f 21/21/21 36/36/36 22/22/22
f 21/21/21 35/35/35 36/36/36
f 22/22/22 37/37/37 23/23/23
f 22/22/22 36/36/36 37/37/37
f 23/23/23 38/38/38 24/24/24
f 23/23/23 37/37/37 38/38/38
f 24/24/24 39/39/39 25/25/25
f 24/24/24 38/38/38 39/39/39
f 25/25/25 40/40/40 26/26/26
f 25/25/25 39/39/39 40/40/40
f 26/26/26 41/41/41 27/27/27
f 26/26/26 40/40/40 41/41/41
f 27/27/27 42/42/42 28/28/28
f 27/27/27 41/41/41 42/42/42
f 28/28/28 29/29/29 15/15/15
f 28/28/28 42/42/42 29/29/29
f 29/29/29 44/44/44 30/30/30
f 29/29/29 43/43/43 44/44/44
f 30/30/30 45/45/45 31/31/31
f 30/30/30 44/44/44 45/45/45
f 31/31/31 46/46/46 32/32/32
f 31/31/31 45/45/45 46/46/46
f 32/32/32 47/47/47 33/33/33
f 32/32/32 46/46/46 47/47/47
f 33/33/33 48/48/48 34/34/34
f 33/33/33 47/47/47 48/48/48
f 34/34/34 49/49/49 35/35/35
f 34/34/34 48/48/48 49/49/49
f 35/35/35 50/50/50 36/36/36
f 35/35/35 49/49/49 50/50/50
f 36/36/36 51/51/51 37/37/37
f 36/36/36 50/50/50 51/51/51
f 37/37/37 52/52/52 38/38/38
f 37/37/37 51/51/51 52/52/52
f 38/38/38 53/53/53 39/39/39
f 38/38/38 52/52/52 53/53/53
f 39/39/39 54/54/54 40/40/40
f 39/39/39 53/53/53 54/54/54
f 40/40/40 55/55/55 41/41/41
f 40/40/40 54/54/54 55/55/55
f 41/41/41 56/56/56 42/42/42
f 41/41/41 55/55/55 56/56/56
f 42/42/42 43/43/43 29/29/29
f 42/42/42 56/56/56 43/43/43
f 43/43/43 58/58/58 44/44/44
f 43/43/43 57/57/57 58/58/58
f 44/44/44 59/59/59 45/45/45
f 44/44/44 58/58/58 59/59/59
f 45/45/45 60/60/60 46/46/46
f 45/45/45 59/59/59 60/60/60
f 46/46/46 61/61/61 47/47/47
f 46/46/46 60/60/60 61/61/61
f 47/47/47 62/62/62 48/48/48
f 47/47/47 61/61/61 62/62/62
f 48/48/48 63/63/63 49/49/49
f 48/48/48 62/62/62 63/63/63
f 49/49/49 64/64/64 50/50/50
f 49/49/49 63/63/63 64/64/64
f 50/50/50 65/65/65 51/51/51
f 50/50/50 64/64/64 65/65/65
f 51/51/51 66/66/66 52/52/52
f 51/51/51 65/65/65 66/66/66
f 52/52/52 67/67/67 53/53/53
f 52/52/52 66/66/66 67/67/67
f 53/53/53 68/68/68 54/54/54
f 53/53/53 67/67/67 68/68/68
f 54/54/54 69/69/69 55/55/55
f 54/54/54 68/68/68 69/69/69
f 55/55/55 70/70/70 56/56/56
f 55/55/55 69/69/69 70/70/70
f 56/56/56 57/57/57 43/43/43
f 56/56/56 70/70/70 57/57/57
f 57/57/57 72/72/72 58/58/58
f 57/57/57 71/71/71 72/72/72
f 58/58/58 73/73/73 59/59/59
f 58/58/58 72/72/72 73/73/73
f 59/59/59 74/74/74 60/60/60
f 59/59/59 73/73/73 74/74/74
f 60/60/60 75/75/75 61/61/61
f 60/60/60 74/74/74 75/75/75
f 61/61/61 76/76/76 62/62/62
f 61/61/61 75/75/75 76/76/76
f 62/62/62 77/77/77 63/63/63
f 62/62/62 76/76/76 77/77/77
f 63/63/63 78/78/78 64/64/64
f 63/63/63 77/77/77 78/78/78
f 64/64/64 79/79/79 65/65/65
f 64/64/64 78/78/78 79/79/79
f 65/65/65 80/80/80 66/66/66
f 65/65/65 79/79/79 80/80/80
f 66/66/66 81/81/81 67/67/67
f 66/66/66 80/80/80 81/81/81
f 67/67/67 82/82/82 68/68/68
f 67/67/67 81/81/81 82/82/82
f 68/68/68 83/83/83 69/69/69
f 68/68/68 82/82/82 83/83/83
f 69/69/69 84/84/84 70/70/70
f 69/69/69 83/83/83 84/84/84
f 70/70/70 71/71/71 57/57/57
f 70/70/70 84/84/84 71/71/71
f 71/71/71 86/86/86 72/72/72
f 71/71/71 85/85/85 86/86/86
f 72/72/72 87/87/87 73/73/73
f 72/72/72 86/86/86 87/87/87
f 73/73/73 88/88/88 74/74/74
f 73/73/73 87/87/87 88/88/88
f 74/74/74 89/89/89 75/75/75
f 74/74/74 88/88/88 89/89/89
f 75/75/75 90/90/90 76/76/76
f 75/75/75 89/89/89 90/90/90
f 76/76/76 91/91/91 77/77/77
f 76/76/76 90/90/90 91/91/91
f 77/77/77 92/92/92 78/78/78
f 77/77/77 91/91/91 92/92/92
f 78/78/78 93/93/93 79/79/79
f 78/78/78 92/92/92 93/93/93
f 79/79/79 94/94/94 80/80/80
f 79/79/79 93/93/93 94/94/94
f 80/80/80 95/95/95 81/81/81
f 80/80/80 94/94/94 95/95/95
f 81/81/81 96/96/96 82/82/82
f 81/81/81 95/95/95 96/96/96
f 82/82/82 97/97/97 83/83/83
f 82/82/82 96/96/96 97/97/97
f 83/83/83 98/98/98 84/84/84
f 83/83/83 97/97/97 98/98/98
f 84/84/84 85/85/85 71/71/71
f 84/84/84 98/98/98 85/85/85
f 85/85/85 100/100/100 86/86/86
f 85/85/85 99/99/99 100/100/100
f 86/86/86 101/101/101 87/87/87
f 86/86/86 100/100/100 101/101/101
f 87/87/87 102/102/102 88/88/88
f 87/87/87 101/101/101 102/102/102
f 88/88/88 103/103/103 89/89/89
f 88/88/88 102/102/102 103/103/103
f 89/89/89 104/104/104 90/90/90
f 89/89/89 103/103/103 104/104/104
f 90/90/90 105/105/105 91/91/91
f 90/90/90 104/104/104 105/105/105
f 91/91/91 106/106/106 92/92/92
f 91/91/91 105/105/105 106/106/106
f 92/92/92 107/107/107 93/93/93
f 92/92/92 106/106/106 107/107/107
f 93/93/93 108/108/108 94/94/94
f 93/93/93 107/107/107 108/108/108
f 94/94/94 109/109/109 95/95/95
f 94/94/94 108/108/108 109/109/109
f 95/95/95 110/110/110 96/96/96
f 95/95/95 109/109/109 110/110/110
f 96/96/96 111/111/111 97/97/97
f 96/96/96 110/110/110 111/111/111
f 97/97/97 112/112/112 98/98/98
f 97/97/97 111/111/111 112/112/112
f 98/98/98 99/99/99 85/85/85
f 98/98/98 112/112/112 99/99/99
f 99/99/99 114/114/114 100/100/100
f 99/99/99 113/113/113 114/114/114
f 100/100/100 115/115/115 101/101/101
f 100/100/100 114/114/114 115/115/115
f 101/101/101 116/116/116 102/102/102
f 101/101/101 115/115/115 116/116/116
f 102/102/102 117/117/117 103/103/103
f 102/102/102 116/116/116 117/117/117
f 103/103/103 118/118/118 104/104/104
f 103/103/103 117/117/117 118/118/118
f 104/104/104 119/119/119 105/105/105
f 104/104/104 118/118/118 119/119/119
f 105/105/105 120/120/120 106/106/106
f 105/105/105 119/119/119 120/120/120
f 106/106/106 121/121/121 107/107/107
f 106/106/106 120/120/120 121/121/121
f 107/107/107 122/122/122 108/108/108
f 107/107/107 121/121/121 122/122/122
f 108/108/108 123/123/123 109/109/109
f 108/108/108 122/122/122 123/123/123
f 109/109/109 124/124/124 110/110/110
f 109/109/109 123/123/123 124/124/124
f 110/110/110 125/125/125 111/111/111
f 110/110/110 124/124/124 125/125/125
f 111/111/111 126/126/126 112/112/112
f 111/111/111 125/125/125 126/126/126
f 112/112/112 113/113/113 99/99/99
f 112/112/112 126/126/126 113/113/113
f 113/113/113 128/128/128 114/114/114
f 113/113/113 127/127/127 128/128/128
f 114/114/114 129/129/129 115/115/115
f 114/114/114 128/128/128 129/129/129
f 115/115/115 130/130/130 116/116/116
f 115/115/115 129/129/129 130/130/130
f 116/116/116 131/131/131 117/117/117
f 116/116/116 130/130/130 131/131/131
f 117/117/117 132/132/132 118/118/118
f 117/117/117 131/131/131 132/132/132
f 118/118/118 133/133/133 119/119/119
f 118/118/118 132/132/132 133/133/133
f 119/119/119 134/134/134 120/120/120
f 119/119/119 133/133/133 134/134/134
f 120/120/120 135/135/135 121/121/121
f 120/120/120 134/134/134 135/135/135
f 121/121/121 136/136/136 122/122/122
f 121/121/121 135/135/135 136/136/136
f 122/122/122 137/137/137 123/123/123
f 122/122/122 136/136/136 137/137/137
f 123/123/123 138/138/138 124/124/124
f 123/123/123 137/137/137 138/138/138
f 124/124/124 139/139/139 125/125/125
f 124/124/124 138/138/138 139/139/139
f 125/125/125 140/140/140 126/126/126
f 125/125/125 139/139/139 140/140/140
f 126/126/126 127/127/127 113/113/113
f 126/126/126 140/140/140 127/127/127
f 127/127/127 142/142/142 128/128/128
f 127/127/127 141/141/141 142/142/142
f 128/128/128 143/143/143 129/129/129
f 128/128/128 142/142/142 143/143/143
f 129/129/129 144/144/144 130/130/130
f 129/129/129 143/143/143 144/144/144
f 130/130/130 145/145/145 131/131/131
f 130/130/130 144/144/144 145/145/145
f 131/131/131 146/146/146 132/132/132
f 131/131/131 145/145/145 146/146/146
f 132/132/132 147/147/147 133/133/133
f 132/132/132 146/146/146 147/147/147
f 133/133/133 148/148/148 134/134/134
f 133/133/133 147/147/147 148/148/148
f 134/134/134 149/149/149 135/135/135
f 134/134/134 148/148/148 149/149/149
f 135/135/135 150/150/150 136/136/136
f 135/135/135 149/149/149 150/150/150
f 136/136/136 151/151/151 137/137/137
f 136/136/136 150/150/150 151/151/151
f 137/137/137 152/152/152 138/138/138
f 137/137/137 151/151/151 152/152/152
f 138/138/138 153/153/153 139/139/139
f 138/138/138 152/152/152 153/153/153
f 139/139/139 154/154/154 140/140/140
f 139/139/139 153/153/153 154/154/154
f 140/140/140 141/141/141 127/127/127
f 140/140/140 154/154/154 141/141/141
f 141/141/141 156/156/156 142/142/142
f 141/141/141 155/155/155 156/156/156
f 142/142/142 157/157/157 143/143/143
f 142/142/142 156/156/156 157/157/157
f 143/143/143 158/158/158 144/144/144
f 143/143/143 157/157/157 158/158/158
f 144/144/144 159/159/159 145/145/145
f 144/144/144 158/158/158 159/159/159
f 145/145/145 160/160/160 146/146/146
f 145/145/145 159/159/159 160/160/160
f 146/146/146 161/161/161 147/147/147
f 146/146/146 160/160/160 161/161/161
f 147/147/147 162/162/162 148/148/148
f 147/147/147 161/161/161 162/162/162
f 148/148/148 163/163/163 149/149/149
f 148/148/148 162/162/162 163/163/163
f 149/149/149 164/164/164 150/150/150
f 149/149/149 163/163/163 164/164/164
f 150/150/150 165/165/165 151/151/151
f 150/150/150 164/164/164 165/165/165
f 151/151/151 166/166/166 152/152/152
f 151/151/151 165/165/165 166/166/166
f 152/152/152 167/167/167 153/153/153
f 152/152/152 166/166/166 167/167/167
f 153/153/153 168/168/168 154/154/154
f 153/153/153 167/167/167 168/168/168
f 154/154/154 155/155/155 141/141/141
f 154/154/154 168/168/168 155/155/155
f 155/155/155 170/170/170 156/156/156
f 155/155/155 169/169/169 170/170/170
f 156/156/156 171/171/171 157/157/157
f 156/156/156 170/170/170 171/171/171
f 157/157/157 172/172/172 158/158/158
f 157/157/157 171/171/171 172/172/172
f 158/158/158 173/173/173 159/159/159
f 158/158/158 172/172/172 173/173/173
f 159/159/159 174/174/174 160/160/160
f 159/159/159 173/173/173 174/174/174
f 160/160/160 175/175/175 161/161/161
f 160/160/160 174/174/174 175/175/175
f 161/161/161 176/176/176 162/162/162
f 161/161/161 175/175/175 176/176/176
f 162/162/162 177/177/177 163/163/163
f 162/162/162 176/176/176 177/177/177
f 163/163/163 178/178/178 164/164/164
f 163/163/163 177/177/177 178/178/178
f 164/164/164 179/179/179 165/165/165
f 164/164/164 178/178/178 179/179/179
f 165/165/165 180/180/180 166/166/166
f 165/165/165 179/179/179 180/180/180
f 166/166/166 181/181/181 167/167/167
f 166/166/166 180/180/180 181/181/181
f 167/167/167 182/182/182 168/168/168
f 167/167/167 181/181/181 182/182/182
f 168/168/168 169/169/169 155/155/155
f 168/168/168 182/182/182 169/169/169
f 169/169/169 184/184/184 170/170/170
f 169/169/169 183/183/183 184/184/184
f 170/170/170 185/185/185 171/171/171
f 170/170/170 184/184/184 185/185/185
f 171/171/171 186/186/186 172/172/172
f 171/171/171 185/185/185 186/186/186
f 172/172/172 187/187/187 173/173/173
f 172/172/172 186/186/186 187/187/187
f 173/173/173 188/188/188 174/174/174
f 173/173/173 187/187/187 188/188/188
f 174/174/174 189/189/189 175/175/175
f 174/174/174 188/188/188 189/189/189
f 175/175/175 190/190/190 176/176/176
f 175/175/175 189/189/189 190/190/190
f 176/176/176 191/191/191 177/177/177
f 176/176/176 190/190/190 191/191/191
f 177/177/177 192/192/192 178/178/178
f 177/177/177 191/191/191 192/192/192
f 178/178/178 193/193/193 179/179/179
f 178/178/178 192/192/192 193/193/193
f 179/179/179 194/194/194 180/180/180
f 179/179/179 193/193/193 194/194/194
f 180/180/180 195/195/195 181/181/181
f 180/180/180 194/194/194 195/195/195
f 181/181/181 196/196/196 182/182/182
f 181/181/181 195/195/195 196/196/196
f 182/182/182 183/183/183 169/169/169
f 182/182/182 196/196/196 183/183/183
f 183/183/183 198/198/198 184/184/184
f 183/183/183 197/197/197 198/198/198
f 184/184/184 199/199/199 185/185/185
f 184/184/184 198/198/198 199/199/199
f 185/185/185 200/200/200 186/186/186
f 185/185/185 199/199/199 200/200/200
f 186/186/186 201/201/201 187/187/187
f 186/186/186 200/200/200 201/201/201
f 187/187/187 202/202/202 188/188/188
f 187/187/187 201/201/201 202/202/202
f 188/188/188 203/203/203 189/189/189
f 188/188/188 202/202/202 203/203/203
f 189/189/189 204/204/204 190/190/190
f 189/189/189 203/203/203 204/204/204
f 190/190/190 205/205/205 191/191/191
f 190/190/190 204/204/204 205/205/205
f 191/191/191 206/206/206 192/192/192
f 191/191/191 205/205/205 206/206/206
f 192/192/192 207/207/207 193/193/193
f 192/192/192 206/206/206 207/207/207
f 193/193/193 208/208/208 194/194/194
f 193/193/193 207/207/207 208/208/208
f 194/194/194 209/209/209 195/195/195
f 194/194/194 208/208/208 209/209/209
f 195/195/195 210/210/210 196/196/196
f 195/195/195 209/209/209 210/210/210
f 196/196/196 197/197/197 183/183/183
f 196/196/196 210/210/210 197/197/197
f 197/197/197 212/212/212 198/198/198
f 197/197/197 211/211/211 212/212/212
f 198/198/198 213/213/213 199/199/199
f 198/198/198 212/212/212 213/213/213
f 199/199/199 214/214/214 200/200/200
f 199/199/199 213/213/213 214/214/214
f 200/200/200 215/215/215 201/201/201
f 200/200/200 214/214/214 215/215/215
f 201/201/201 216/216/216 202/202/202
f 201/201/201 215/215/215 216/216/216
f 202/202/202 217/217/217 203/203/203
f 202/202/202 216/216/216 217/217/217
f 203/203/203 218/218/218 204/204/204
f 203/203/203 217/217/217 218/218/218
f 204/204/204 219/219/219 205/205/205
f 204/204/204 218/218/218 219/219/219
f 205/205/205 220/220/220 206/206/206
f 205/205/205 219/219/219 220/220/220
f 206/206/206 221/221/221 207/207/207
f 206/206/206 220/220/220 221/221/221
f 207/207/207 222/222/222 208/208/208
f 207/207/207 221/221/221 222/222/222
f 208/208/208 223/223/223 209/209/209
f 208/208/208 222/222/222 223/223/223
f 209/209/209 224/224/224 210/210/210
f 209/209/209 223/223/223 224/224/224
f 210/210/210 211/211/211 197/197/197
f 210/210/210 224/224/224 211/211/211
f 225/225/225 212/212/212 211/211/211
f 225/225/225 213/213/213 212/212/212
f 225/225/225 214/214/214 213/213/213
f 225/225/225 215/215/215 214/214/214
f 225/225/225 216/216/216 215/215/215
f 225/225/225 217/217/217 216/216/216
f 225/225/225 218/218/218 217/217/217
f 225/225/225 219/219/219 218/218/218
f 225/225/225 220/220/220 219/219/219
f 225/225/225 221/221/221 220/220/220
f 225/225/225 222/222/222 221/221/221
f 225/225/225 223/223/223 222/222/222
f 225/225/225 224/224/224 223/223/223
f 225/225/225 211/211/211 224/224/224
