# procedural placeholder mesh: trunk_2
v 0.18314 0.00000 0.00000
v 0.13876 0.00000 0.07169
v 0.12328 0.00000 0.16584
v 0.03485 0.00000 0.16380
v -0.03427 0.00000 0.16109
v -0.12526 0.00000 0.16850
v -0.13876 0.00000 0.07169
v -0.15402 0.00000 0.00000
v -0.18591 0.00000 -0.09605
v -0.09603 0.00000 -0.12918
v -0.03427 0.00000 -0.16109
v 0.04493 0.00000 -0.21117
v 0.09603 0.00000 -0.12918
v 0.14776 0.00000 -0.07634
v 0.16677 0.01235 0.00002
v 0.12805 0.01235 0.06353
v 0.10996 0.01235 0.14201
v 0.03257 0.01235 0.14689
v -0.03160 0.01235 0.14272
v -0.11456 0.01235 0.14803
v -0.12800 0.01235 0.06353
v -0.14208 0.01235 0.00001
v -0.16859 0.01235 -0.08363
v -0.08857 0.01235 -0.11443
v -0.03160 0.01235 -0.14269
v 0.04046 0.01235 -0.18246
v 0.08862 0.01235 -0.11443
v 0.13899 0.01235 -0.06892
v 0.15077 0.02469 0.00003
v 0.11734 0.02469 0.05536
v 0.09696 0.02469 0.11905
v 0.03025 0.02469 0.12965
v -0.02892 0.02469 0.12436
v -0.10380 0.02469 0.12761
v -0.11725 0.02469 0.05536
v -0.13014 0.02469 0.00003
v -0.15146 0.02469 -0.07144
v -0.08112 0.02469 -0.09967
v -0.02892 0.02469 -0.12430
v 0.03613 0.02469 -0.15478
v 0.08122 0.02469 -0.09967
v 0.12971 0.02469 -0.06113
v 0.13556 0.04000 0.00006
v 0.10732 0.04000 0.04920
v 0.08588 0.04000 0.10243
v 0.02779 0.04000 0.11556
v -0.02640 0.04000 0.11048
v -0.09264 0.04000 0.11076
v -0.10714 0.04000 0.04920
v -0.11893 0.04000 0.00005
v -0.13464 0.04000 -0.06170
v -0.07412 0.04000 -0.08851
v -0.02640 0.04000 -0.11038
v 0.03216 0.04000 -0.13360
v 0.07429 0.04000 -0.08851
v 0.11868 0.04000 -0.05430
v 0.12091 0.05910 0.00013
v 0.09783 0.05910 0.04532
v 0.07675 0.05910 0.09238
v 0.02520 0.05910 0.10540
v -0.02392 0.05910 0.10168
v -0.08118 0.05910 0.09828
v -0.09745 0.05910 0.04532
v -0.10818 0.05910 0.00011
v -0.11811 0.05910 -0.05465
v -0.06737 0.05910 -0.08133
v -0.02392 0.05910 -0.10145
v 0.02855 0.05910 -0.11915
v 0.06776 0.05910 -0.08133
v 0.10614 0.05910 -0.04891
v 0.10680 0.08413 0.00027
v 0.08903 0.08413 0.04236
v 0.06810 0.08413 0.08398
v 0.02283 0.08413 0.09712
v -0.02146 0.08413 0.09488
v -0.06972 0.08413 0.08717
v -0.08818 0.08413 0.04236
v -0.09792 0.08413 0.00025
v -0.10170 0.08413 -0.04828
v -0.06089 0.08413 -0.07564
v -0.02146 0.08413 -0.09438
v 0.02515 0.08413 -0.10644
v 0.06174 0.08413 -0.07564
v 0.09401 0.08413 -0.04421
v 0.09419 0.12000 0.00048
v 0.08196 0.12000 0.03991
v 0.05977 0.12000 0.07507
v 0.02105 0.12000 0.09003
v -0.01926 0.12000 0.08911
v -0.05894 0.12000 0.07613
v -0.08039 0.12000 0.03991
v -0.08932 0.12000 0.00046
v -0.08598 0.12000 -0.04170
v -0.05539 0.12000 -0.07062
v -0.01926 0.12000 -0.08818
v 0.02205 0.12000 -0.09331
v 0.05696 0.12000 -0.07062
v 0.08394 0.12000 -0.03992
v 0.08640 0.19947 0.00152
v 0.07810 0.19947 0.03859
v 0.05484 0.19947 0.06831
v 0.02123 0.19947 0.08481
v -0.01608 0.19947 0.08481
v -0.04969 0.19947 0.06831
v -0.07295 0.19947 0.03859
v -0.08125 0.19947 0.00152
v -0.07295 0.19947 -0.03555
v -0.04969 0.19947 -0.06528
v -0.01608 0.19947 -0.08177
v 0.02123 0.19947 -0.08177
v 0.05484 0.19947 -0.06528
v 0.07810 0.19947 -0.03555
v 0.08491 0.32366 0.00375
v 0.07713 0.32366 0.03872
v 0.05533 0.32366 0.06676
v 0.02383 0.32366 0.08233
v -0.01113 0.32366 0.08233
v -0.04263 0.32366 0.06676
v -0.06443 0.32366 0.03872
v -0.07221 0.32366 0.00375
v -0.06443 0.32366 -0.03122
v -0.04263 0.32366 -0.05927
v -0.01113 0.32366 -0.07483
v 0.02383 0.32366 -0.07483
v 0.05533 0.32366 -0.05927
v 0.07713 0.32366 -0.03122
v 0.08483 0.45000 0.00651
v 0.07752 0.45000 0.03945
v 0.05704 0.45000 0.06586
v 0.02746 0.45000 0.08052
v -0.00538 0.45000 0.08052
v -0.03497 0.45000 0.06586
v -0.05545 0.45000 0.03945
v -0.06276 0.45000 0.00651
v -0.05545 0.45000 -0.02643
v -0.03497 0.45000 -0.05284
v -0.00538 0.45000 -0.06750
v 0.02746 0.45000 -0.06750
v 0.05704 0.45000 -0.05284
v 0.07752 0.45000 -0.02643
v 0.08715 0.57221 0.01047
v 0.08028 0.57221 0.04136
v 0.06102 0.57221 0.06613
v 0.03319 0.57221 0.07988
v 0.00230 0.57221 0.07988
v -0.02552 0.57221 0.06613
v -0.04478 0.57221 0.04136
v -0.05165 0.57221 0.01047
v -0.04478 0.57221 -0.02042
v -0.02552 0.57221 -0.04519
v 0.00230 0.57221 -0.05894
v 0.03319 0.57221 -0.05894
v 0.06102 0.57221 -0.04519
v 0.08028 0.57221 -0.02042
v 0.09196 0.69671 0.01568
v 0.08548 0.69671 0.04458
v 0.06734 0.69671 0.06775
v 0.04112 0.69671 0.08061
v 0.01202 0.69671 0.08061
v -0.01420 0.69671 0.06775
v -0.03234 0.69671 0.04458
v -0.03882 0.69671 0.01568
v -0.03234 0.69671 -0.01323
v -0.01420 0.69671 -0.03640
v 0.01202 0.69671 -0.04926
v 0.04112 0.69671 -0.04926
v 0.06734 0.69671 -0.03640
v 0.08548 0.69671 -0.01323
v 0.09627 0.80000 0.02058
v 0.09019 0.80000 0.04755
v 0.07316 0.80000 0.06918
v 0.04854 0.80000 0.08119
v 0.02122 0.80000 0.08119
v -0.00340 0.80000 0.06918
v -0.02044 0.80000 0.04755
v -0.02652 0.80000 0.02058
v -0.02044 0.80000 -0.00640
v -0.00340 0.80000 -0.02803
v 0.02122 0.80000 -0.04003
v 0.04854 0.80000 -0.04003
v 0.07316 0.80000 -0.02803
v 0.09019 0.80000 -0.00640
v 0.09901 0.87475 0.02460
v 0.09334 0.87475 0.04973
v 0.07743 0.87475 0.06988
v 0.05445 0.87475 0.08106
v 0.02895 0.87475 0.08106
v 0.00597 0.87475 0.06988
v -0.00994 0.87475 0.04973
v -0.01561 0.87475 0.02460
v -0.00994 0.87475 -0.00052
v 0.00597 0.87475 -0.02067
v 0.02895 0.87475 -0.03185
v 0.05445 0.87475 -0.03185
v 0.07743 0.87475 -0.02067
v 0.09334 0.87475 -0.00052
v 0.10135 0.93737 0.02838
v 0.09608 0.93737 0.05171
v 0.08130 0.93737 0.07042
v 0.05995 0.93737 0.08081
v 0.03625 0.93737 0.08081
v 0.01490 0.93737 0.07042
v 0.00012 0.93737 0.05171
v -0.00515 0.93737 0.02838
v 0.00012 0.93737 0.00504
v 0.01490 0.93737 -0.01367
v 0.03625 0.93737 -0.02405
v 0.05995 0.93737 -0.02405
v 0.08130 0.93737 -0.01367
v 0.09608 0.93737 0.00504
v 0.10369 1.00000 0.03215
v 0.09882 1.00000 0.05369
v 0.08517 1.00000 0.07097
v 0.06544 1.00000 0.08055
v 0.04355 1.00000 0.08055
v 0.02383 1.00000 0.07097
v 0.01018 1.00000 0.05369
v 0.00531 1.00000 0.03215
v 0.01018 1.00000 0.01061
v 0.02383 1.00000 -0.00666
v 0.04355 1.00000 -0.01625
v 0.06544 1.00000 -0.01625
v 0.08517 1.00000 -0.00666
v 0.09882 1.00000 0.01061
v 0.05450 1.00000 0.03215
vn 0.6014 0.7874 0.1357
vn 0.6154 0.7634 0.1964
vn 0.2127 0.8925 0.3977
vn -0.0233 0.8143 0.5799
vn 0.0226 0.8357 0.5488
vn -0.4414 0.8459 0.2994
vn -0.7083 0.6937 0.1307
vn -0.6905 0.6944 0.2023
vn -0.3883 0.8585 -0.3349
vn -0.2415 0.8063 -0.5400
vn -0.2687 0.8407 -0.4701
vn 0.2169 0.8961 -0.3873
vn 0.5061 0.7476 -0.4300
vn 0.6029 0.7171 -0.3496
vn 0.6266 0.7787 0.0315
vn 0.6055 0.7530 0.2576
vn 0.3301 0.8836 0.3322
vn -0.0076 0.8334 0.5527
vn 0.0036 0.8301 0.5575
vn -0.2938 0.8721 0.3912
vn -0.6968 0.7060 0.1266
vn -0.6964 0.6927 0.1874
vn -0.4851 0.8514 -0.1998
vn -0.2296 0.8077 -0.5431
vn -0.2562 0.8291 -0.4969
vn 0.0709 0.9046 -0.4203
vn 0.4709 0.7853 -0.4019
vn 0.5710 0.7269 -0.3815
vn 0.6819 0.7289 0.0610
vn 0.6522 0.6936 0.3060
vn 0.3778 0.8289 0.4125
vn 0.0153 0.7803 0.6252
vn -0.0121 0.7646 0.6444
vn -0.3312 0.8354 0.4386
vn -0.7362 0.6602 0.1487
vn -0.7361 0.6493 0.1913
vn -0.5359 0.8066 -0.2494
vn -0.2624 0.7430 -0.6157
vn -0.2706 0.7621 -0.5881
vn 0.0969 0.8583 -0.5040
vn 0.4813 0.7397 -0.4702
vn 0.5895 0.7028 -0.3982
vn 0.7690 0.6350 0.0731
vn 0.7416 0.5600 0.3694
vn 0.4890 0.6669 0.5623
vn 0.0503 0.6049 0.7947
vn -0.0414 0.5755 0.8168
vn -0.4100 0.7157 0.5654
vn -0.8099 0.5569 0.1843
vn -0.8103 0.5545 0.1892
vn -0.6455 0.7010 -0.3032
vn -0.3329 0.5682 -0.7525
vn -0.3150 0.5703 -0.7586
vn 0.1349 0.7043 -0.6970
vn 0.5569 0.5900 -0.5846
vn 0.6483 0.6185 -0.4440
vn 0.8463 0.5286 0.0662
vn 0.8071 0.4326 0.4017
vn 0.5648 0.4807 0.6708
vn 0.0830 0.3993 0.9131
vn -0.0803 0.3796 0.9217
vn -0.4888 0.5533 0.6745
vn -0.8669 0.4442 0.2262
vn -0.8764 0.4526 0.1644
vn -0.7382 0.5820 -0.3411
vn -0.3996 0.3969 -0.8263
vn -0.3275 0.3789 -0.8655
vn 0.1694 0.5027 -0.8477
vn 0.6231 0.4180 -0.6611
vn 0.7236 0.5016 -0.4741
vn 0.9228 0.3829 0.0434
vn 0.8530 0.3032 0.4249
vn 0.6078 0.3435 0.7159
vn 0.1121 0.2580 0.9596
vn -0.1346 0.2527 0.9581
vn -0.5412 0.3991 0.7401
vn -0.9089 0.3122 0.2765
vn -0.9386 0.3265 0.1118
vn -0.8204 0.4423 -0.3622
vn -0.4639 0.2752 -0.8421
vn -0.3013 0.2574 -0.9181
vn 0.1816 0.3566 -0.9165
vn 0.6615 0.2790 -0.6961
vn 0.8053 0.3529 -0.4765
vn 0.9860 0.1638 0.0307
vn 0.8811 0.1254 0.4560
vn 0.6271 0.1561 0.7632
vn 0.1497 0.1195 0.9815
vn -0.2154 0.1154 0.9697
vn -0.6042 0.1952 0.7726
vn -0.9282 0.1569 0.3373
vn -0.9869 0.1593 0.0238
vn -0.8852 0.2292 -0.4048
vn -0.5368 0.1528 -0.8298
vn -0.2378 0.1323 -0.9623
vn 0.2123 0.1812 -0.9603
vn 0.6769 0.1309 -0.7243
vn 0.8852 0.1488 -0.4407
vn 0.9990 0.0441 0.0067
vn 0.8941 0.0298 0.4469
vn 0.6333 0.0394 0.7729
vn 0.2035 0.0413 0.9782
vn -0.2413 0.0443 0.9694
vn -0.6221 0.0775 0.7791
vn -0.9131 0.0835 0.3990
vn -0.9964 0.0841 -0.0113
vn -0.9032 0.1080 -0.4154
vn -0.6031 0.0927 -0.7923
vn -0.2139 0.0727 -0.9741
vn 0.2195 0.0784 -0.9725
vn 0.6516 0.0560 -0.7565
vn 0.9049 0.0447 -0.4233
vn 1.0000 0.0062 -0.0041
vn 0.9068 0.0008 0.4215
vn 0.6360 0.0023 0.7717
vn 0.2317 0.0113 0.9727
vn -0.2239 0.0266 0.9742
vn -0.6292 0.0447 0.7759
vn -0.9017 0.0616 0.4280
vn -0.9973 0.0736 0.0041
vn -0.9040 0.0785 -0.4202
vn -0.6342 0.0755 -0.7695
vn -0.2312 0.0651 -0.9707
vn 0.2237 0.0496 -0.9734
vn 0.6295 0.0326 -0.7763
vn 0.9032 0.0174 -0.4288
vn 0.9999 -0.0090 -0.0058
vn 0.9079 -0.0156 0.4189
vn 0.6385 -0.0120 0.7695
vn 0.2343 0.0016 0.9722
vn -0.2224 0.0224 0.9747
vn -0.6286 0.0458 0.7764
vn -0.9010 0.0671 0.4286
vn -0.9966 0.0825 0.0058
vn -0.9044 0.0896 -0.4173
vn -0.6361 0.0869 -0.7667
vn -0.2337 0.0740 -0.9695
vn 0.2221 0.0530 -0.9736
vn 0.6290 0.0287 -0.7769
vn 0.9030 0.0066 -0.4296
vn 0.9996 -0.0288 -0.0038
vn 0.9061 -0.0377 0.4213
vn 0.6358 -0.0319 0.7712
vn 0.2321 -0.0126 0.9726
vn -0.2236 0.0160 0.9746
vn -0.6290 0.0476 0.7759
vn -0.9008 0.0760 0.4275
vn -0.9953 0.0967 0.0038
vn -0.9016 0.1069 -0.4192
vn -0.6327 0.1041 -0.7674
vn -0.2312 0.0873 -0.9690
vn 0.2232 0.0587 -0.9730
vn 0.6296 0.0247 -0.7766
vn 0.9034 -0.0067 -0.4287
vn 0.9992 -0.0396 -0.0115
vn 0.9079 -0.0508 0.4161
vn 0.6394 -0.0442 0.7676
vn 0.2386 -0.0214 0.9709
vn -0.2145 0.0125 0.9767
vn -0.6205 0.0501 0.7826
vn -0.8959 0.0842 0.4362
vn -0.9939 0.1093 0.0114
vn -0.9023 0.1218 -0.4135
vn -0.6355 0.1188 -0.7629
vn -0.2375 0.0993 -0.9663
vn 0.2140 0.0659 -0.9746
vn 0.6211 0.0255 -0.7833
vn 0.8990 -0.0124 -0.4377
vn 0.9991 -0.0389 -0.0169
vn 0.9092 -0.0522 0.4131
vn 0.6414 -0.0455 0.7659
vn 0.2425 -0.0204 0.9699
vn -0.2081 0.0177 0.9779
vn -0.6139 0.0605 0.7871
vn -0.8913 0.0997 0.4423
vn -0.9916 0.1284 0.0168
vn -0.9011 0.1423 -0.4095
vn -0.6358 0.1385 -0.7593
vn -0.2409 0.1164 -0.9635
vn 0.2075 0.0792 -0.9750
vn 0.6146 0.0343 -0.7881
vn 0.8957 -0.0081 -0.4445
vn 0.9993 -0.0364 -0.0120
vn 0.9067 -0.0516 0.4187
vn 0.6364 -0.0446 0.7701
vn 0.2367 -0.0167 0.9714
vn -0.2127 0.0264 0.9768
vn -0.6163 0.0754 0.7839
vn -0.8910 0.1204 0.4378
vn -0.9881 0.1530 0.0118
vn -0.8950 0.1681 -0.4133
vn -0.6285 0.1627 -0.7606
vn -0.2345 0.1370 -0.9624
vn 0.2118 0.0949 -0.9727
vn 0.6174 0.0450 -0.7854
vn 0.8975 -0.0021 -0.4410
vn 0.9993 -0.0369 -0.0057
vn 0.9038 -0.0530 0.4246
vn 0.6311 -0.0457 0.7743
vn 0.2303 -0.0163 0.9730
vn -0.2188 0.0294 0.9753
vn -0.6206 0.0817 0.7799
vn -0.8925 0.1297 0.4320
vn -0.9864 0.1644 0.0057
vn -0.8903 0.1802 -0.4183
vn -0.6221 0.1741 -0.7633
vn -0.2279 0.1465 -0.9626
vn 0.2177 0.1018 -0.9707
vn 0.6219 0.0490 -0.7815
vn 0.9001 -0.0006 -0.4356
vn 0.9003 0.4294 -0.0715
vn 0.8496 0.4151 0.3253
vn 0.6241 0.4191 0.6594
vn 0.2715 0.4397 0.8561
vn -0.1281 0.4707 0.8729
vn -0.4858 0.5045 0.7138
vn -0.7315 0.5344 0.4234
vn -0.8283 0.5564 0.0658
vn -0.7686 0.5681 -0.2943
vn -0.5659 0.5677 -0.5979
vn -0.2516 0.5544 -0.7933
vn 0.1233 0.5288 -0.8397
vn 0.4890 0.4945 -0.7185
vn 0.7692 0.4584 -0.4452
vn 0.0000 1.0000 0.0000
vt 0.8663 0.5000
vt 0.7775 0.5000
vt 0.7466 0.5000
vt 0.5697 0.5000
vt 0.4315 0.5000
vt 0.2495 0.5000
vt 0.2225 0.5000
vt 0.1920 0.5000
vt 0.1282 0.5000
vt 0.3079 0.5000
vt 0.4315 0.5000
vt 0.5899 0.5000
vt 0.6921 0.5000
vt 0.7955 0.5000
vt 0.8335 0.5247
vt 0.7561 0.5247
vt 0.7199 0.5247
vt 0.5651 0.5247
vt 0.4368 0.5247
vt 0.2709 0.5247
vt 0.2440 0.5247
vt 0.2158 0.5247
vt 0.1628 0.5247
vt 0.3229 0.5247
vt 0.4368 0.5247
vt 0.5809 0.5247
vt 0.6772 0.5247
vt 0.7780 0.5247
vt 0.8015 0.5494
vt 0.7347 0.5494
vt 0.6939 0.5494
vt 0.5605 0.5494
vt 0.4422 0.5494
vt 0.2924 0.5494
vt 0.2655 0.5494
vt 0.2397 0.5494
vt 0.1971 0.5494
vt 0.3378 0.5494
vt 0.4422 0.5494
vt 0.5723 0.5494
vt 0.6624 0.5494
vt 0.7594 0.5494
vt 0.7711 0.5800
vt 0.7146 0.5800
vt 0.6718 0.5800
vt 0.5556 0.5800
vt 0.4472 0.5800
vt 0.3147 0.5800
vt 0.2857 0.5800
vt 0.2621 0.5800
vt 0.2307 0.5800
vt 0.3518 0.5800
vt 0.4472 0.5800
vt 0.5643 0.5800
vt 0.6486 0.5800
vt 0.7374 0.5800
vt 0.7418 0.6182
vt 0.6957 0.6182
vt 0.6535 0.6182
vt 0.5504 0.6182
vt 0.4522 0.6182
vt 0.3376 0.6182
vt 0.3051 0.6182
vt 0.2836 0.6182
vt 0.2638 0.6182
vt 0.3653 0.6182
vt 0.4522 0.6182
vt 0.5571 0.6182
vt 0.6355 0.6182
vt 0.7123 0.6182
vt 0.7136 0.6683
vt 0.6781 0.6683
vt 0.6362 0.6683
vt 0.5457 0.6683
vt 0.4571 0.6683
vt 0.3606 0.6683
vt 0.3236 0.6683
vt 0.3042 0.6683
vt 0.2966 0.6683
vt 0.3782 0.6683
vt 0.4571 0.6683
vt 0.5503 0.6683
vt 0.6235 0.6683
vt 0.6880 0.6683
vt 0.6884 0.7400
vt 0.6639 0.7400
vt 0.6195 0.7400
vt 0.5421 0.7400
vt 0.4615 0.7400
vt 0.3821 0.7400
vt 0.3392 0.7400
vt 0.3214 0.7400
vt 0.3280 0.7400
vt 0.3892 0.7400
vt 0.4615 0.7400
vt 0.5441 0.7400
vt 0.6139 0.7400
vt 0.6679 0.7400
vt 0.6728 0.8989
vt 0.6562 0.8989
vt 0.6097 0.8989
vt 0.5425 0.8989
vt 0.4678 0.8989
vt 0.4006 0.8989
vt 0.3541 0.8989
vt 0.3375 0.8989
vt 0.3541 0.8989
vt 0.4006 0.8989
vt 0.4678 0.8989
vt 0.5425 0.8989
vt 0.6097 0.8989
vt 0.6562 0.8989
vt 0.6698 1.1473
vt 0.6543 1.1473
vt 0.6107 1.1473
vt 0.5477 1.1473
vt 0.4777 1.1473
vt 0.4147 1.1473
vt 0.3711 1.1473
vt 0.3556 1.1473
vt 0.3711 1.1473
vt 0.4147 1.1473
vt 0.4777 1.1473
vt 0.5477 1.1473
vt 0.6107 1.1473
vt 0.6543 1.1473
vt 0.6697 1.4000
vt 0.6550 1.4000
vt 0.6141 1.4000
vt 0.5549 1.4000
vt 0.4892 1.4000
vt 0.4301 1.4000
vt 0.3891 1.4000
vt 0.3745 1.4000
vt 0.3891 1.4000
vt 0.4301 1.4000
vt 0.4892 1.4000
vt 0.5549 1.4000
vt 0.6141 1.4000
vt 0.6550 1.4000
vt 0.6743 1.6444
vt 0.6606 1.6444
vt 0.6220 1.6444
vt 0.5664 1.6444
vt 0.5046 1.6444
vt 0.4490 1.6444
vt 0.4104 1.6444
vt 0.3967 1.6444
vt 0.4104 1.6444
vt 0.4490 1.6444
vt 0.5046 1.6444
vt 0.5664 1.6444
vt 0.6220 1.6444
vt 0.6606 1.6444
vt 0.6839 1.8934
vt 0.6710 1.8934
vt 0.6347 1.8934
vt 0.5822 1.8934
vt 0.5240 1.8934
vt 0.4716 1.8934
vt 0.4353 1.8934
vt 0.4224 1.8934
vt 0.4353 1.8934
vt 0.4716 1.8934
vt 0.5240 1.8934
vt 0.5822 1.8934
vt 0.6347 1.8934
vt 0.6710 1.8934
vt 0.6925 2.1000
vt 0.6804 2.1000
vt 0.6463 2.1000
vt 0.5971 2.1000
vt 0.5424 2.1000
vt 0.4932 2.1000
vt 0.4591 2.1000
vt 0.4470 2.1000
vt 0.4591 2.1000
vt 0.4932 2.1000
vt 0.5424 2.1000
vt 0.5971 2.1000
vt 0.6463 2.1000
vt 0.6804 2.1000
vt 0.6980 2.2495
vt 0.6867 2.2495
vt 0.6549 2.2495
vt 0.6089 2.2495
vt 0.5579 2.2495
vt 0.5119 2.2495
vt 0.4801 2.2495
vt 0.4688 2.2495
vt 0.4801 2.2495
vt 0.5119 2.2495
vt 0.5579 2.2495
vt 0.6089 2.2495
vt 0.6549 2.2495
vt 0.6867 2.2495
vt 0.7027 2.3747
vt 0.6922 2.3747
vt 0.6626 2.3747
vt 0.6199 2.3747
vt 0.5725 2.3747
vt 0.5298 2.3747
vt 0.5002 2.3747
vt 0.4897 2.3747
vt 0.5002 2.3747
vt 0.5298 2.3747
vt 0.5725 2.3747
vt 0.6199 2.3747
vt 0.6626 2.3747
vt 0.6922 2.3747
vt 0.7074 2.5000
vt 0.6976 2.5000
vt 0.6703 2.5000
vt 0.6309 2.5000
vt 0.5871 2.5000
vt 0.5477 2.5000
vt 0.5204 2.5000
vt 0.5106 2.5000
vt 0.5204 2.5000
vt 0.5477 2.5000
vt 0.5871 2.5000
vt 0.6309 2.5000
vt 0.6703 2.5000
vt 0.6976 2.5000
vt 0.6090 2.5000
f 1/1/1 16/16/16 2/2/2
f 1/1/1 15/15/15 16/16/16
f 2/2/2 17/17/17 3/3/3
f 2/2/2 16/16/16 17/17/17
f 3/3/3 18/18/18 4/4/4
f 3/3/3 17/17/17 18/18/18
f 4/4/4 19/19/19 5/5/5
f 4/4/4 18/18/18 19/19/19
f 5/5/5 20/20/20 6/6/6
f 5/5/5 19/19/19 20/20/20
f 6/6/6 21/21/21 7/7/7
f 6/6/6 20/20/20 21/21/21
f 7/7/7 22/22/22 8/8/8
f 7/7/7 21/21/21 22/22/22
f 8/8/8 23/23/23 9/9/9
f 8/8/8 22/22/22 23/23/23
f 9/9/9 24/24/24 10/10/10
f 9/9/9 23/23/23 24/24/24
f 10/10/10 25/25/25 11/11/11
f 10/10/10 24/24/24 25/25/25
f 11/11/11 26/26/26 12/12/12
f 11/11/11 25/25/25 26/26/26
f 12/12/12 27/27/27 13/13/13
f 12/12/12 26/26/26 27/27/27
f 13/13/13 28/28/28 14/14/14
f 13/13/13 27/27/27 28/28/28
f 14/14/14 15/15/15 1/1/1
f 14/14/14 28/28/28 15/15/15
f 15/15/15 30/30/30 16/16/16
f 15/15/15 29/29/29 30/30/30
f 16/16/16 31/31/31 17/17/17
f 16/16/16 30/30/30 31/31/31
f 17/17/17 32/32/32 18/18/18
f 17/17/17 31/31/31 32/32/32
f 18/18/18 33/33/33 19/19/19
f 18/18/18 32/32/32 33/33/33
f 19/19/19 34/34/34 20/20/20
f 19/19/19 33/33/33 34/34/34
f 20/20/20 35/35/35 21/21/21
f 20/20/20 34/34/34 35/35/35
f 21/21/21 36/36/36 22/22/22
f 21/21/21 35/35/35 36/36/36
f 22/22/22 37/37/37 23/23/23
f 22/22/22 36/36/36 37/37/37
f 23/23/23 38/38/38 24/24/24
f 23/23/23 37/37/37 38/38/38
f 24/24/24 39/39/39 25/25/25
f 24/24/24 38/38/38 39/39/39
f 25/25/25 40/40/40 26/26/26
f 25/25/25 39/39/39 40/40/40
f 26/26/26 41/41/41 27/27/27
f 26/26/26 40/40/40 41/41/41
f 27/27/27 42/42/42 28/28/28
f 27/27/27 41/41/41 42/42/42
f 28/28/28 29/29/29 15/15/15
f 28/28/28 42/42/42 29/29/29
f 29/29/29 44/44/44 30/30/30
f 29/29/29 43/43/43 44/44/44
f 30/30/30 45/45/45 31/31/31
f 30/30/30 44/44/44 45/45/45
f 31/31/31 46/46/46 32/32/32
f 31/31/31 45/45/45 46/46/46
f 32/32/32 47/47/47 33/33/33
f 32/32/32 46/46/46 47/47/47
f 33/33/33 48/48/48 34/34/34
f 33/33/33 47/47/47 48/48/48
f 34/34/34 49/49/49 35/35/35
f 34/34/34 48/48/48 49/49/49
f 35/35/35 50/50/50 36/36/36
f 35/35/35 49/49/49 50/50/50
f 36/36/36 51/51/51 37/37/37
f 36/36/36 50/50/50 51/51/51
f 37/37/37 52/52/52 38/38/38
f 37/37/37 51/51/51 52/52/52
f 38/38/38 53/53/53 39/39/39
f 38/38/38 52/52/52 53/53/53
f 39/39/39 54/54/54 40/40/40
f 39/39/39 53/53/53 54/54/54
f 40/40/40 55/55/55 41/41/41
f 40/40/40 54/54/54 55/55/55
f 41/41/41 56/56/56 42/42/42
f 41/41/41 55/55/55 56/56/56
f 42/42/42 43/43/43 29/29/29
f 42/42/42 56/56/56 43/43/43
f 43/43/43 58/58/58 44/44/44
f 43/43/43 57/57/57 58/58/58
f 44/44/44 59/59/59 45/45/45
f 44/44/44 58/58/58 59/59/59
f 45/45/45 60/60/60 46/46/46
f 45/45/45 59/59/59 60/60/60
f 46/46/46 61/61/61 47/47/47
f 46/46/46 60/60/60 61/61/61
f 47/47/47 62/62/62 48/48/48
f 47/47/47 61/61/61 62/62/62
f 48/48/48 63/63/63 49/49/49
f 48/48/48 62/62/62 63/63/63
f 49/49/49 64/64/64 50/50/50
f 49/49/49 63/63/63 64/64/64
f 50/50/50 65/65/65 51/51/51
f 50/50/50 64/64/64 65/65/65
f 51/51/51 66/66/66 52/52/52
f 51/51/51 65/65/65 66/66/66
f 52/52/52 67/67/67 53/53/53
f 52/52/52 66/66/66 67/67/67
f 53/53/53 68/68/68 54/54/54
f 53/53/53 67/67/67 68/68/68
f 54/54/54 69/69/69 55/55/55
f 54/54/54 68/68/68 69/69/69
f 55/55/55 70/70/70 56/56/56
f 55/55/55 69/69/69 70/70/70
f 56/56/56 57/57/57 43/43/43
f 56/56/56 70/70/70 57/57/57
f 57/57/57 72/72/72 58/58/58
f 57/57/57 71/71/71 72/72/72
f 58/58/58 73/73/73 59/59/59
f 58/58/58 72/72/72 73/73/73
f 59/59/59 74/74/74 60/60/60
f 59/59/59 73/73/73 74/74/74
f 60/60/60 75/75/75 61/61/61
f 60/60/60 74/74/74 75/75/75
f 61/61/61 76/76/76 62/62/62
f 61/61/61 75/75/75 76/76/76
f 62/62/62 77/77/77 63/63/63
f 62/62/62 76/76/76 77/77/77
f 63/63/63 78/78/78 64/64/64
f 63/63/63 77/77/77 78/78/78
f 64/64/64 79/79/79 65/65/65
f 64/64/64 78/78/78 79/79/79
f 65/65/65 80/80/80 66/66/66
f 65/65/65 79/79/79 80/80/80
f 66/66/66 81/81/81 67/67/67
f 66/66/66 80/80/80 81/81/81
f 67/67/67 82/82/82 68/68/68
f 67/67/67 81/81/81 82/82/82
f 68/68/68 83/83/83 69/69/69
f 68/68/68 82/82/82 83/83/83
f 69/69/69 84/84/84 70/70/70
f 69/69/69 83/83/83 84/84/84
f 70/70/70 71/71/71 57/57/57
f 70/70/70 84/84/84 71/71/71
f 71/71/71 86/86/86 72/72/72
f 71/71/71 85/85/85 86/86/86
f 72/72/72 87/87/87 73/73/73
f 72/72/72 86/86/86 87/87/87
f 73/73/73 88/88/88 74/74/74
f 73/73/73 87/87/87 88/88/88
f 74/74/74 89/89/89 75/75/75
f 74/74/74 88/88/88 89/89/89
f 75/75/75 90/90/90 76/76/76
f 75/75/75 89/89/89 90/90/90
f 76/76/76 91/91/91 77/77/77
f 76/76/76 90/90/90 91/91/91
f 77/77/77 92/92/92 78/78/78
f 77/77/77 91/91/91 92/92/92
f 78/78/78 93/93/93 79/79/79
f 78/78/78 92/92/92 93/93/93
f 79/79/79 94/94/94 80/80/80
f 79/79/79 93/93/93 94/94/94
f 80/80/80 95/95/95 81/81/81
f 80/80/80 94/94/94 95/95/95
f 81/81/81 96/96/96 82/82/82
f 81/81/81 95/95/95 96/96/96
f 82/82/82 97/97/97 83/83/83
f 82/82/82 96/96/96 97/97/97
f 83/83/83 98/98/98 84/84/84
f 83/83/83 97/97/97 98/98/98
f 84/84/84 85/85/85 71/71/71
f 84/84/84 98/98/98 85/85/85
f 85/85/85 100/100/100 86/86/86
f 85/85/85 99/99/99 100/100/100
f 86/86/86 101/101/101 87/87/87
f 86/86/86 100/100/100 101/101/101
f 87/87/87 102/102/102 88/88/88
f 87/87/87 101/101/101 102/102/102
f 88/88/88 103/103/103 89/89/89
f 88/88/88 102/102/102 103/103/103
f 89/89/89 104/104/104 90/90/90
f 89/89/89 103/103/103 104/104/104
f 90/90/90 105/105/105 91/91/91
f 90/90/90 104/104/104 105/105/105
f 91/91/91 106/106/106 92/92/92
f 91/91/91 105/105/105 106/106/106
f 92/92/92 107/107/107 93/93/93
f 92/92/92 106/106/106 107/107/107
f 93/93/93 108/108/108 94/94/94
f 93/93/93 107/107/107 108/108/108
f 94/94/94 109/109/109 95/95/95
f 94/94/94 108/108/108 109/109/109
f 95/95/95 110/110/110 96/96/96
f 95/95/95 109/109/109 110/110/110
f 96/96/96 111/111/111 97/97/97
f 96/96/96 110/110/110 111/111/111
f 97/97/97 112/112/112 98/98/98
f 97/97/97 111/111/111 112/112/112
f 98/98/98 99/99/99 85/85/85
f 98/98/98 112/112/112 99/99/99
f 99/99/99 114/114/114 100/100/100
f 99/99/99 113/113/113 114/114/114
f 100/100/100 115/115/115 101/101/101
f 100/100/100 114/114/114 115/115/115
f 101/101/101 116/116/116 102/102/102
f 101/101/101 115/115/115 116/116/116
f 102/102/102 117/117/117 103/103/103
f 102/102/102 116/116/116 117/117/117
f 103/103/103 118/118/118 104/104/104
f 103/103/103 117/117/117 118/118/118
f 104/104/104 119/119/119 105/105/105
f 104/104/104 118/118/118 119/119/119
f 105/105/105 120/120/120 106/106/106
f 105/105/105 119/119/119 120/120/120
f 106/106/106 121/121/121 107/107/107
f 106/106/106 120/120/120 121/121/121
f 107/107/107 122/122/122 108/108/108
f 107/107/107 121/121/121 122/122/122
f 108/108/108 123/123/123 109/109/109
f 108/108/108 122/122/122 123/123/123
f 109/109/109 124/124/124 110/110/110
f 109/109/109 123/123/123 124/124/124
f 110/110/110 125/125/125 111/111/111
f 110/110/110 124/124/124 125/125/125
f 111/111/111 126/126/126 112/112/112
f 111/111/111 125/125/125 126/126/126
f 112/112/112 113/113/113 99/99/99
f 112/112/112 126/126/126 113/113/113
f 113/113/113 128/128/128 114/114/114
f 113/113/113 127/127/127 128/128/128
f 114/114/114 129/129/129 115/115/115
f 114/114/114 128/128/128 129/129/129
f 115/115/115 130/130/130 116/116/116
f 115/115/115 129/129/129 130/130/130
f 116/116/116 131/131/131 117/117/117
f 116/116/116 130/130/130 131/131/131
f 117/117/117 132/132/132 118/118/118
f 117/117/117 131/131/131 132/132/132
f 118/118/118 133/133/133 119/119/119
f 118/118/118 132/132/132 133/133/133
f 119/119/119 134/134/134 120/120/120
f 119/119/119 133/133/133 134/134/134
f 120/120/120 135/135/135 121/121/121
f 120/120/120 134/134/134 135/135/135
f 121/121/121 136/136/136 122/122/122
f 121/121/121 135/135/135 136/136/136
f 122/122/122 137/137/137 123/123/123
f 122/122/122 136/136/136 137/137/137
f 123/123/123 138/138/138 124/124/124
f 123/123/123 137/137/137 138/138/138
f 124/124/124 139/139/139 125/125/125
f 124/124/124 138/138/138 139/139/139
f 125/125/125 140/140/140 126/126/126
f 125/125/125 139/139/139 140/140/140
f 126/126/126 127/127/127 113/113/113
f 126/126/126 140/140/140 127/127/127
f 127/127/127 142/142/142 128/128/128
f 127/127/127 141/141/141 142/142/142
f 128/128/128 143/143/143 129/129/129
f 128/128/128 142/142/142 143/143/143
f 129/129/129 144/144/144 130/130/130
f 129/129/129 143/143/143 144/144/144
f 130/130/130 145/145/145 131/131/131
f 130/130/130 144/144/144 145/145/145
f 131/131/131 146/146/146 132/132/132
f 131/131/131 145/145/145 146/146/146
f 132/132/132 147/147/147 133/133/133
f 132/132/132 146/146/146 147/147/147
f 133/133/133 148/148/148 134/134/134
f 133/133/133 147/147/147 148/148/148
f 134/134/134 149/149/149 135/135/135
f 134/134/134 148/148/148 149/149/149
f 135/135/135 150/150/150 136/136/136
f 135/135/135 149/149/149 150/150/150
f 136/136/136 151/151/151 137/137/137
f 136/136/136 150/150/150 151/151/151
f 137/137/137 152/152/152 138/138/138
f 137/137/137 151/151/151 152/152/152
f 138/138/138 153/153/153 139/139/139
f 138/138/138 152/152/152 153/153/153
f 139/139/139 154/154/154 140/140/140
f 139/139/139 153/153/153 154/154/154
f 140/140/140 141/141/141 127/127/127
f 140/140/140 154/154/154 141/141/141
f 141/141/141 156/156/156 142/142/142
f 141/141/141 155/155/155 156/156/156
f 142/142/142 157/157/157 143/143/143
f 142/142/142 156/156/156 157/157/157
f 143/143/143 158/158/158 144/144/144
f 143/143/143 157/157/157 158/158/158
f 144/144/144 159/159/159 145/145/145
f 144/144/144 158/158/158 159/159/159
f 145/145/145 160/160/160 146/146/146
f 145/145/145 159/159/159 160/160/160
f 146/146/146 161/161/161 147/147/147
f 146/146/146 160/160/160 161/161/161
f 147/147/147 162/162/162 148/148/148
f 147/147/147 161/161/161 162/162/162
f 148/148/148 163/163/163 149/149/149
f 148/148/148 162/162/162 163/163/163
f 149/149/149 164/164/164 150/150/150
f 149/149/149 163/163/163 164/164/164
f 150/150/150 165/165/165 151/151/151
f 150/150/150 164/164/164 165/165/165
f 151/151/151 166/166/166 152/152/152
f 151/151/151 165/165/165 166/166/166
f 152/152/152 167/167/167 153/153/153
f 152/152/152 166/166/166 167/167/167
f 153/153/153 168/168/168 154/154/154
f 153/153/153 167/167/167 168/168/168
f 154/154/154 155/155/155 141/141/141
f 154/154/154 168/168/168 155/155/155
f 155/155/155 170/170/170 156/156/156
f 155/155/155 169/169/169 170/170/170
f 156/156/156 171/171/171 157/157/157
f 156/156/156 170/170/170 171/171/171
f 157/157/157 172/172/172 158/158/158
f 157/157/157 171/171/171 172/172/172
f 158/158/158 173/173/173 159/159/159
f 158/158/158 172/172/172 173/173/173
f 159/159/159 174/174/174 160/160/160
f 159/159/159 173/173/173 174/174/174
f 160/160/160 175/175/175 161/161/161
f 160/160/160 174/174/174 175/175/175
f 161/161/161 176/176/176 162/162/162
f 161/161/161 175/175/175 176/176/176
f 162/162/162 177/177/177 163/163/163
f 162/162/162 176/176/176 177/177/177
f 163/163/163 178/178/178 164/164/164
f 163/163/163 177/177/177 178/178/178
f 164/164/164 179/179/179 165/165/165
f 164/164/164 178/178/178 179/179/179
f 165/165/165 180/180/180 166/166/166
f 165/165/165 179/179/179 180/180/180
f 166/166/166 181/181/181 167/167/167
f 166/166/166 180/180/180 181/181/181
f 167/167/167 182/182/182 168/168/168
f 167/167/167 181/181/181 182/182/182
f 168/168/168 169/169/169 155/155/155
f 168/168/168 182/182/182 169/169/169
f 169/169/169 184/184/184 170/170/170
f 169/169/169 183/183/183 184/184/184
f 170/170/170 185/185/185 171/171/171
f 170/170/170 184/184/184 185/185/185
f 171/171/171 186/186/186 172/172/172
f 171/171/171 185/185/185 186/186/186
f 172/172/172 187/187/187 173/173/173
f 172/172/172 186/186/186 187/187/187
f 173/173/173 188/188/188 174/174/174
f 173/173/173 187/187/187 188/188/188
f 174/174/174 189/189/189 175/175/175
f 174/174/174 188/188/188 189/189/189
f 175/175/175 190/190/190 176/176/176
f 175/175/175 189/189/189 190/190/190
f 176/176/176 191/191/191 177/177/177
f 176/176/176 190/190/190 191/191/191
f 177/177/177 192/192/192 178/178/178
f 177/177/177 191/191/191 192/192/192
f 178/178/178 193/193/193 179/179/179
f 178/178/178 192/192/192 193/193/193
f 179/179/179 194/194/194 180/180/180
f 179/179/179 193/193/193 194/194/194
f 180/180/180 195/195/195 181/181/181
f 180/180/180 194/194/194 195/195/195
f 181/181/181 196/196/196 182/182/182
f 181/181/181 195/195/195 196/196/196
f 182/182/182 183/183/183 169/169/169
f 182/182/182 196/196/196 183/183/183
f 183/183/183 198/198/198 184/184/184
f 183/183/183 197/197/197 198/198/198
f 184/184/184 199/199/199 185/185/185
f 184/184/184 198/198/198 199/199/199
f 185/185/185 200/200/200 186/186/186
f 185/185/185 199/199/199 200/200/200
f 186/186/186 201/201/201 187/187/187
f 186/186/186 200/200/200 201/201/201
f 187/187/187 202/202/202 188/188/188
f 187/187/187 201/201/201 202/202/202
f 188/188/188 203/203/203 189/189/189
f 188/188/188 202/202/202 203/203/203
f 189/189/189 204/204/204 190/190/190
f 189/189/189 203/203/203 204/204/204
f 190/190/190 205/205/205 191/191/191
f 190/190/190 204/204/204 205/205/205
f 191/191/191 206/206/206 192/192/192
f 191/191/191 205/205/205 206/206/206
f 192/192/192 207/207/207 193/193/193
f 192/192/192 206/206/206 207/207/207
f 193/193/193 208/208/208 194/194/194
f 193/193/193 207/207/207 208/208/208
f 194/194/194 209/209/209 195/195/195
f 194/194/194 208/208/208 209/209/209
f 195/195/195 210/210/210 196/196/196
f 195/195/195 209/209/209 210/210/210
f 196/196/196 197/197/197 183/183/183
f 196/196/196 210/210/210 197/197/197
f 197/197/197 212/212/212 198/198/198
f 197/197/197 211/211/211 212/212/212
f 198/198/198 213/213/213 199/199/199
f 198/198/198 212/212/212 213/213/213
f 199/199/199 214/214/214 200/200/200
f 199/199/199 213/213/213 214/214/214
f 200/200/200 215/215/215 201/201/201
f 200/200/200 214/214/214 215/215/215
f 201/201/201 216/216/216 202/202/202
f 201/201/201 215/215/215 216/216/216
f 202/202/202 217/217/217 203/203/203
f 202/202/202 216/216/216 217/217/217
f 203/203/203 218/218/218 204/204/204
f 203/203/203 217/217/217 218/218/218
f 204/204/204 219/219/219 205/205/205
f 204/204/204 218/218/218 219/219/219
f 205/205/205 220/220/220 206/206/206
f 205/205/205 219/219/219 220/220/220
f 206/206/206 221/221/221 207/207/207
f 206/206/206 220/220/220 221/221/221
f 207/207/207 222/222/222 208/208/208
f 207/207/207 221/221/221 222/222/222
f 208/208/208 223/223/223 209/209/209
f 208/208/208 222/222/222 223/223/223
f 209/209/209 224/224/224 210/210/210
f 209/209/209 223/223/223 224/224/224
f 210/210/210 211/211/211 197/197/197
f 210/210/210 224/224/224 211/211/211
f 225/225/225 212/212/212 211/211/211
f 225/225/225 213/213/213 212/212/212
f 225/225/225 214/214/214 213/213/213
f 225/225/225 215/215/215 214/214/214
f 225/225/225 216/216/216 215/215/215
f 225/225/225 217/217/217 216/216/216
f 225/225/225 218/218/218 217/217/217
f 225/225/225 219/219/219 218/218/218
f 225/225/225 220/220/220 219/219/219
f 225/225/225 221/221/221 220/220/220
f 225/225/225 222/222/222 221/221/221
f 225/225/225 223/223/223 222/222/222
f 225/225/225 224/224/224 223/223/223
f 225/225/225 211/211/211 224/224/224
